<svg id="article" xmlns="http://www.w3.org/2000/svg" width="22.082" height="22.082" viewBox="0 0 22.082 22.082">
  <path id="パス_26279" data-name="パス 26279" d="M20.425,22.082H1.656A1.658,1.658,0,0,1,0,20.425V1.656A1.658,1.658,0,0,1,1.656,0H20.425a1.658,1.658,0,0,1,1.656,1.656V20.425A1.658,1.658,0,0,1,20.425,22.082ZM1.656.736a.921.921,0,0,0-.92.92V20.425a.921.921,0,0,0,.92.92H20.425a.921.921,0,0,0,.92-.92V1.656a.921.921,0,0,0-.92-.92Z" fill="#fff"/>
  <path id="パス_26280" data-name="パス 26280" d="M5.84,6.208H4.368A.368.368,0,0,1,4,5.84V4.368A.368.368,0,0,1,4.368,4H5.84a.368.368,0,0,1,.368.368V5.84A.368.368,0,0,1,5.84,6.208Zm-1.1-.736h.736V4.736H4.736Z" transform="translate(-2.528 -2.528)" fill="#fff"/>
  <path id="パス_26281" data-name="パス 26281" d="M13.84,6.208H12.368A.368.368,0,0,1,12,5.84V4.368A.368.368,0,0,1,12.368,4H13.84a.368.368,0,0,1,.368.368V5.84A.368.368,0,0,1,13.84,6.208Zm-1.1-.736h.736V4.736h-.736Z" transform="translate(-7.584 -2.528)" fill="#fff"/>
  <path id="パス_26282" data-name="パス 26282" d="M21.84,6.208H20.368A.368.368,0,0,1,20,5.84V4.368A.368.368,0,0,1,20.368,4H21.84a.368.368,0,0,1,.368.368V5.84A.368.368,0,0,1,21.84,6.208Zm-1.1-.736h.736V4.736h-.736Z" transform="translate(-12.639 -2.528)" fill="#fff"/>
  <path id="パス_26283" data-name="パス 26283" d="M21.714,5.152H.368A.368.368,0,0,1,0,4.784V1.656A1.658,1.658,0,0,1,1.656,0H20.425a1.658,1.658,0,0,1,1.656,1.656V4.784A.368.368,0,0,1,21.714,5.152ZM.736,4.416H21.345V1.656a.921.921,0,0,0-.92-.92H1.656a.921.921,0,0,0-.92.92Z" fill="#fff"/>
  <path id="パス_26284" data-name="パス 26284" d="M12.465,24.1h-8.1A.368.368,0,0,1,4,23.729V16.368A.368.368,0,0,1,4.368,16h8.1a.368.368,0,0,1,.368.368v7.361A.368.368,0,0,1,12.465,24.1Zm-7.729-.736H12.1V16.736H4.736Z" transform="translate(-2.528 -10.112)" fill="#fff"/>
  <path id="パス_26285" data-name="パス 26285" d="M8.416,32.944a.367.367,0,0,1-.26-.108L6.208,30.888l-1.58,1.58a.368.368,0,0,1-.52-.52l1.84-1.84a.368.368,0,0,1,.52,0l2.208,2.208a.368.368,0,0,1-.26.628Z" transform="translate(-2.528 -18.959)" fill="#fff"/>
  <path id="パス_26286" data-name="パス 26286" d="M9.472,22.944a1.472,1.472,0,1,1,1.472-1.472A1.474,1.474,0,0,1,9.472,22.944Zm0-2.208a.736.736,0,1,0,.736.736A.737.737,0,0,0,9.472,20.736Z" transform="translate(-5.056 -12.639)" fill="#fff"/>
  <path id="パス_26287" data-name="パス 26287" d="M18.018,30.312a.367.367,0,0,1-.26-.108l-2.3-2.3-2.026,2.209a.368.368,0,1,1-.542-.5l2.286-2.492A.368.368,0,0,1,15.434,27a.358.358,0,0,1,.268.108l2.576,2.576a.368.368,0,0,1-.26.628Z" transform="translate(-8.081 -17.063)" fill="#fff"/>
  <path id="パス_26288" data-name="パス 26288" d="M40.465,42.1h-8.1A.368.368,0,0,1,32,41.729V34.368A.368.368,0,0,1,32.368,34h8.1a.368.368,0,0,1,.368.368v7.361A.368.368,0,0,1,40.465,42.1Zm-7.729-.736H40.1V34.736H32.736Z" transform="translate(-20.223 -21.487)" fill="#fff"/>
  <path id="パス_26289" data-name="パス 26289" d="M36.416,50.944a.367.367,0,0,1-.26-.108l-1.948-1.948-1.58,1.58a.368.368,0,1,1-.52-.52l1.84-1.84a.368.368,0,0,1,.52,0l2.208,2.208a.368.368,0,0,1-.26.628Z" transform="translate(-20.223 -30.335)" fill="#fff"/>
  <path id="パス_26290" data-name="パス 26290" d="M37.472,40.944a1.472,1.472,0,1,1,1.472-1.472A1.474,1.474,0,0,1,37.472,40.944Zm0-2.208a.736.736,0,1,0,.736.736A.737.737,0,0,0,37.472,38.736Z" transform="translate(-22.751 -24.015)" fill="#fff"/>
  <path id="パス_26291" data-name="パス 26291" d="M46.018,48.312a.367.367,0,0,1-.26-.108l-2.3-2.3-2.026,2.209a.368.368,0,0,1-.542-.5l2.286-2.492A.368.368,0,0,1,43.434,45a.364.364,0,0,1,.268.108l2.576,2.576a.368.368,0,0,1-.26.628Z" transform="translate(-25.777 -28.438)" fill="#fff"/>
  <path id="パス_26292" data-name="パス 26292" d="M38.256,20.736H32.368a.368.368,0,1,1,0-.736h5.888a.368.368,0,0,1,0,.736Z" transform="translate(-20.223 -12.639)" fill="#fff"/>
  <path id="パス_26293" data-name="パス 26293" d="M53.1,20.736h-.736a.368.368,0,1,1,0-.736H53.1a.368.368,0,1,1,0,.736Z" transform="translate(-32.863 -12.639)" fill="#fff"/>
  <path id="パス_26294" data-name="パス 26294" d="M38.256,28.736H32.368a.368.368,0,1,1,0-.736h5.888a.368.368,0,0,1,0,.736Z" transform="translate(-20.223 -17.695)" fill="#fff"/>
  <path id="パス_26295" data-name="パス 26295" d="M53.1,28.736h-.736a.368.368,0,1,1,0-.736H53.1a.368.368,0,1,1,0,.736Z" transform="translate(-32.863 -17.695)" fill="#fff"/>
  <path id="パス_26296" data-name="パス 26296" d="M44.256,24.736H38.368a.368.368,0,1,1,0-.736h5.888a.368.368,0,1,1,0,.736Z" transform="translate(-24.015 -15.167)" fill="#fff"/>
  <path id="パス_26297" data-name="パス 26297" d="M33.1,24.736h-.736a.368.368,0,1,1,0-.736H33.1a.368.368,0,0,1,0,.736Z" transform="translate(-20.223 -15.167)" fill="#fff"/>
  <path id="パス_26298" data-name="パス 26298" d="M10.256,42.736H4.368a.368.368,0,0,1,0-.736h5.888a.368.368,0,0,1,0,.736Z" transform="translate(-2.528 -26.543)" fill="#fff"/>
  <path id="パス_26299" data-name="パス 26299" d="M25.1,42.736h-.736a.368.368,0,0,1,0-.736H25.1a.368.368,0,0,1,0,.736Z" transform="translate(-15.167 -26.543)" fill="#fff"/>
  <path id="パス_26300" data-name="パス 26300" d="M10.256,50.736H4.368a.368.368,0,1,1,0-.736h5.888a.368.368,0,1,1,0,.736Z" transform="translate(-2.528 -31.599)" fill="#fff"/>
  <path id="パス_26301" data-name="パス 26301" d="M25.1,50.736h-.736a.368.368,0,1,1,0-.736H25.1a.368.368,0,1,1,0,.736Z" transform="translate(-15.167 -31.599)" fill="#fff"/>
  <path id="パス_26302" data-name="パス 26302" d="M16.256,46.736H10.368a.368.368,0,0,1,0-.736h5.888a.368.368,0,1,1,0,.736Z" transform="translate(-6.32 -29.071)" fill="#fff"/>
  <path id="パス_26303" data-name="パス 26303" d="M5.1,46.736H4.368a.368.368,0,0,1,0-.736H5.1a.368.368,0,0,1,0,.736Z" transform="translate(-2.528 -29.071)" fill="#fff"/>
</svg>
