<svg id="list_1_" data-name="list (1)" xmlns="http://www.w3.org/2000/svg" width="21.575" height="21.575" viewBox="0 0 21.575 21.575">
  <g id="グループ_5104" data-name="グループ 5104">
    <g id="グループ_5103" data-name="グループ 5103">
      <path id="パス_25937" data-name="パス 25937" d="M16.856,0H4.72A4.72,4.72,0,0,0,0,4.72V16.856a4.72,4.72,0,0,0,4.72,4.72H16.856a4.72,4.72,0,0,0,4.72-4.72V4.72A4.72,4.72,0,0,0,16.856,0Zm3.371,16.856a3.371,3.371,0,0,1-3.371,3.371H4.72a3.371,3.371,0,0,1-3.371-3.371V4.72A3.371,3.371,0,0,1,4.72,1.348H16.856A3.371,3.371,0,0,1,20.227,4.72Z" fill="#fff"/>
      <path id="パス_25938" data-name="パス 25938" d="M114.023,112h-1.348a.674.674,0,0,0-.674.674v1.348a.674.674,0,0,0,.674.674h1.348a.674.674,0,0,0,.674-.674v-1.348A.674.674,0,0,0,114.023,112Z" transform="translate(-107.28 -107.28)" fill="#fff"/>
      <path id="パス_25939" data-name="パス 25939" d="M114.023,224h-1.348a.674.674,0,0,0-.674.674v1.348a.674.674,0,0,0,.674.674h1.348a.674.674,0,0,0,.674-.674v-1.348A.674.674,0,0,0,114.023,224Z" transform="translate(-107.28 -214.561)" fill="#fff"/>
      <path id="パス_25940" data-name="パス 25940" d="M114.023,336h-1.348a.674.674,0,0,0-.674.674v1.348a.674.674,0,0,0,.674.674h1.348a.674.674,0,0,0,.674-.674v-1.348A.674.674,0,0,0,114.023,336Z" transform="translate(-107.28 -321.841)" fill="#fff"/>
      <rect id="長方形_2439" data-name="長方形 2439" width="8" height="2" transform="translate(8.788 4.787)" fill="#fff"/>
      <rect id="長方形_2440" data-name="長方形 2440" width="8" height="2" transform="translate(8.788 9.787)" fill="#fff"/>
      <rect id="長方形_2441" data-name="長方形 2441" width="8" height="2" transform="translate(8.788 14.787)" fill="#fff"/>
    </g>
  </g>
</svg>
