<svg xmlns="http://www.w3.org/2000/svg" xmlns:xlink="http://www.w3.org/1999/xlink" width="22.042" height="22.042" viewBox="0 0 22.042 22.042">
  <defs>
    <clipPath id="clip-path">
      <path id="path4149" d="M0-682.665H22.042v22.042H0Z" transform="translate(0 682.665)" fill="#fff"/>
    </clipPath>
  </defs>
  <g id="g4143" transform="translate(0 682.665)">
    <g id="g4145" transform="translate(0 -682.665)">
      <g id="g4147" clip-path="url(#clip-path)">
        <g id="g4153" transform="translate(2.454 14.678)">
          <path id="path4155" d="M-548.369,0V5.771a1.162,1.162,0,0,1-1.162,1.162h-17.134" transform="translate(566.665)" fill="none" stroke="#fff" stroke-linecap="round" stroke-linejoin="round" stroke-miterlimit="10" stroke-width="1"/>
        </g>
        <g id="g4157" transform="translate(3.616 0.431)">
          <path id="path4159" d="M0-569.013V-588H17.134v10.373" transform="translate(0 587.999)" fill="none" stroke="#fff" stroke-linecap="round" stroke-linejoin="round" stroke-miterlimit="10" stroke-width="1"/>
        </g>
        <g id="g4161" transform="translate(1.292 4.133)">
          <path id="path4163" d="M-34.838-523.853h0a1.162,1.162,0,0,0,1.162-1.162v-16.316H-36v16.316A1.162,1.162,0,0,0-34.838-523.853Z" transform="translate(36 541.332)" fill="none" stroke="#fff" stroke-linecap="round" stroke-linejoin="round" stroke-miterlimit="10" stroke-width="1"/>
        </g>
        <g id="g4165" transform="translate(5.556 3.057)">
          <path id="path4167" d="M0-87.739v-2.922L1.976-87.8c.037.053.076.027.076-.037v-2.829" transform="translate(0 90.666)" fill="none" stroke="#fff" stroke-linecap="round" stroke-linejoin="round" stroke-miterlimit="10" stroke-width="1"/>
        </g>
        <g id="g4169" transform="translate(9.329 3.057)">
          <path id="path4171" d="M-36.969,0H-38.2V2.927h1.233" transform="translate(38.203)" fill="none" stroke="#fff" stroke-linecap="round" stroke-linejoin="round" stroke-miterlimit="10" stroke-width="1"/>
        </g>
        <g id="g4173" transform="translate(9.329 4.521)">
          <path id="path4175" d="M-34.244,0h-1.143" transform="translate(35.387)" fill="none" stroke="#fff" stroke-linecap="round" stroke-linejoin="round" stroke-miterlimit="10" stroke-width="1"/>
        </g>
        <g id="g4177" transform="translate(16.91 3.057)">
          <path id="path4179" d="M-54.077-9.02a1.335,1.335,0,0,0-1.145-.255.61.61,0,0,0-.237,1.1s.4.18.852.345c1.078.4.614,1.441-.254,1.441a1.383,1.383,0,0,1-1.02-.434" transform="translate(55.881 9.321)" fill="none" stroke="#fff" stroke-linecap="round" stroke-linejoin="round" stroke-miterlimit="10" stroke-width="1"/>
        </g>
        <g id="g4181" transform="translate(12.194 3.057)">
          <path id="path4183" d="M0,0,.566,2.883a.065.065,0,0,0,.124,0L1.574.005" fill="none" stroke="#fff" stroke-linecap="round" stroke-linejoin="round" stroke-miterlimit="10" stroke-width="1"/>
        </g>
        <g id="g4185" transform="translate(13.768 3.057)">
          <path id="path4187" d="M0,0,.882,2.883a.065.065,0,0,0,.124,0L1.574.005" fill="none" stroke="#fff" stroke-linecap="round" stroke-linejoin="round" stroke-miterlimit="10" stroke-width="1"/>
        </g>
        <path id="path4189" d="M179.232-407.789H172v-8.266h7.233Z" transform="translate(-166.446 424.663)" fill="none" stroke="#fff" stroke-linecap="round" stroke-linejoin="round" stroke-miterlimit="10" stroke-width="1"/>
        <g id="g4191" transform="translate(14.939 16.874)">
          <path id="path4193" d="M0,0H3.875" fill="none" stroke="#fff" stroke-linecap="round" stroke-linejoin="round" stroke-miterlimit="10" stroke-width="1"/>
        </g>
        <g id="g4195" transform="translate(14.939 10.675)">
          <path id="path4197" d="M0,0H3.875" fill="none" stroke="#fff" stroke-linecap="round" stroke-linejoin="round" stroke-miterlimit="10" stroke-width="1"/>
        </g>
        <g id="g4199" transform="translate(14.939 12.741)">
          <path id="path4201" d="M0,0H3.875" fill="none" stroke="#fff" stroke-linecap="round" stroke-linejoin="round" stroke-miterlimit="10" stroke-width="1"/>
        </g>
        <g id="g4203" transform="translate(14.939 8.608)">
          <path id="path4205" d="M0,0H3.875" fill="none" stroke="#fff" stroke-linecap="round" stroke-linejoin="round" stroke-miterlimit="10" stroke-width="1"/>
        </g>
        <g id="g4207" transform="translate(14.939 14.808)">
          <path id="path4209" d="M0,0H3.875" transform="translate(0 0)" fill="none" stroke="#fff" stroke-linecap="round" stroke-linejoin="round" stroke-miterlimit="10" stroke-width="1"/>
        </g>
        <g id="g4211" transform="translate(5.554 19.287)">
          <path id="path4213" d="M0,0H13.26" fill="none" stroke="#fff" stroke-linecap="round" stroke-linejoin="round" stroke-miterlimit="10" stroke-width="1"/>
        </g>
        <g id="g4215" transform="translate(5.609 11.672)">
          <path id="path4217" d="M0-49.3l1.645-1.645,5.06,5.06" transform="translate(0 50.945)" fill="none" stroke="#fff" stroke-linecap="round" stroke-linejoin="round" stroke-miterlimit="10" stroke-width="1"/>
        </g>
        <g id="g4219" transform="translate(8.463 10.529)">
          <path id="path4221" d="M0-70.5l2.352-2.352,1.913,1.913" transform="translate(0 72.848)" fill="none" stroke="#fff" stroke-linecap="round" stroke-linejoin="round" stroke-miterlimit="10" stroke-width="1"/>
        </g>
        <g id="g4223" transform="translate(20.75 12.741)">
          <path id="path4225" d="M0,0H0" fill="none" stroke="#fff" stroke-linecap="round" stroke-linejoin="round" stroke-miterlimit="10" stroke-width="1"/>
        </g>
      </g>
    </g>
  </g>
</svg>
