<svg xmlns="http://www.w3.org/2000/svg" width="216.395" height="72.808" viewBox="0 0 216.395 72.808">
  <g id="グループ_11698" data-name="グループ 11698" transform="translate(10002.01 20298.652)">
    <path id="パス_25993" data-name="パス 25993" d="M258.437,243.853c-5.963,0-12.645,0-13.31.293v8.306c0,10.116.612,18.634.8,20.338,0,.8-3.754,2.662-8.811,2.662a10.139,10.139,0,0,1-3.727-.506c-.506-.506-.612-8.6-.612-18.634V244.386a20.446,20.446,0,0,1-4.765-10.3,36.621,36.621,0,0,1,4.951-.293c0-7.187,0-13.31,0-16.478v-2.129a25.589,25.589,0,0,1-2.662-9.61.772.772,0,0,1,0-.506h2.13c6.468,0,13.31,2.422,13.31,3.434s-.719,13.151-.719,23.053v2.023h13.443c4.046,0,7.48,0,7.48.213,0-12.325.8-25.076.8-25.476a17.517,17.517,0,0,1,10.648-3.434c.4,0,1.3,0,1.3.4,0,0-1.118,14.881-1.118,31.944,0,19.832.612,31.545,5.457,36.417,0,.213-.213.4-.293.506a23.188,23.188,0,0,1-11.926,3.54,3.642,3.642,0,0,1-1.224-.213c-2.316-2.316-3.328-5.963-3.541-33.275A44.081,44.081,0,0,0,258.437,243.853Z" transform="translate(-10230.02 -20503.531)" fill="#f6a631"/>
    <path id="パス_25994" data-name="パス 25994" d="M251.491,239a25.1,25.1,0,0,1,25.981-25.289,19.861,19.861,0,0,1,5.457.8,3.405,3.405,0,0,1,.213,1.411,27.575,27.575,0,0,1-.293,3.647c1.011,0,11.527,3.54,11.527,17.809,0,12.032-7.587,23.665-21.642,23.665C259.184,261.041,251.491,251.777,251.491,239Zm23.559-10.222h-.9a3.51,3.51,0,0,1-.213-1.3,16.374,16.374,0,0,1,.293-2.928c-4.845,0-11.34,4.446-11.34,14.162,0,1.012,0,12.139,9.716,12.139,4.765,0,10.009-3.541,10.009-12.538S277.179,228.777,275.05,228.777Z" transform="translate(-10190.996 -20488.881)" fill="#40c1c9"/>
    <path id="パス_25995" data-name="パス 25995" d="M306.178,246.881a38.615,38.615,0,0,1-.4,7.986,15.175,15.175,0,0,1-8.492,2.023,9.871,9.871,0,0,1-3.248-.506,124.376,124.376,0,0,0,.9-15.386c0-8.2-.213-12.831-4.552-12.831-5.324,0-7.986,6.975-7.986,8.2V249.2a65.564,65.564,0,0,1-.4,10.409c-2.316,2.236-6.975,2.422-10.648,2.422-.4,0-.8,0-.8-.293a111.447,111.447,0,0,0,.692-14.854c0-8.2-.293-17.49-.293-23.772a24.621,24.621,0,0,1,.506-6.975,14.776,14.776,0,0,1,8.811-3.035c.905,0,2.13.213,2.13.4,0,1.118-.4,6.682-.4,8.6,0,0,0,.506.213.506s.213,0,.4-.213,5.457-5.963,10.914-5.963a10.25,10.25,0,0,1,9.9,5.856c2.928-4.153,7.081-7.986,12.751-7.986,12.645,0,12.937,18,12.937,35.3,0,6.682-.4,11.819-.4,11.819a16.13,16.13,0,0,1-8.7,2.023,9.88,9.88,0,0,1-3.248-.506,165.654,165.654,0,0,0,1.118-17.809c0-10.329-.4-17.6-6.176-17.6a7.24,7.24,0,0,0-6.07,4.446C306.178,235.142,306.178,238.363,306.178,246.881Z" transform="translate(-10159.301 -20489.867)" fill="#40c1c9"/>
    <path id="パス_25996" data-name="パス 25996" d="M295.31,239.073c0-13.15,7.986-25.183,24.49-25.183,4.765,0,12.751,2.023,12.751,11.021,0,8.6-7.587,17.809-20.524,22.255,0,.612,2.13,2.662,7.374,2.662a24.464,24.464,0,0,0,12.139-2.662.347.347,0,0,1,.213,0c.213,0,.293,1.331.293,1.917a16.373,16.373,0,0,1-2.662,9.1s-3.434,2.316-13.31,2.316C302.071,260.422,295.31,250.919,295.31,239.073ZM317.564,223.1c-5.457,0-10.435,6.469-10.435,14.455,0,1.118,0,1.411.4,1.411,4.259,0,13.15-6.176,13.15-12.938a2.848,2.848,0,0,0-3.115-3.035Z" transform="translate(-10118.166 -20488.555)" fill="#40c1c9"/>
  </g>
</svg>
