<svg xmlns="http://www.w3.org/2000/svg" width="56.962" height="54" viewBox="0 0 56.962 54">
  <g id="parents" transform="translate(0 -13.311)">
    <g id="グループ_8184" data-name="グループ 8184" transform="translate(12.836 32.071)">
      <g id="グループ_8183" data-name="グループ 8183" transform="translate(0 0)">
        <path id="パス_26235" data-name="パス 26235" d="M120.686,182.125a.834.834,0,0,0-1.174.122,1.636,1.636,0,0,1-2.653,0,.834.834,0,0,0-1.3,1.051,3.3,3.3,0,0,0,5.245,0A.834.834,0,0,0,120.686,182.125Z" transform="translate(-115.377 -181.938)"/>
      </g>
    </g>
    <g id="グループ_8186" data-name="グループ 8186" transform="translate(10.861 27.134)">
      <g id="グループ_8185" data-name="グループ 8185">
        <path id="パス_26236" data-name="パス 26236" d="M98.459,137.563a.834.834,0,0,0-.834.834v.987a.834.834,0,1,0,1.669,0V138.4A.834.834,0,0,0,98.459,137.563Z" transform="translate(-97.625 -137.563)"/>
      </g>
    </g>
    <g id="グループ_8188" data-name="グループ 8188" transform="translate(18.76 27.134)">
      <g id="グループ_8187" data-name="グループ 8187">
        <path id="パス_26237" data-name="パス 26237" d="M169.459,137.563a.834.834,0,0,0-.834.834v.987a.834.834,0,1,0,1.669,0V138.4A.834.834,0,0,0,169.459,137.563Z" transform="translate(-168.625 -137.563)"/>
      </g>
    </g>
    <g id="グループ_8190" data-name="グループ 8190" transform="translate(3.949 45.894)">
      <g id="グループ_8189" data-name="グループ 8189">
        <path id="パス_26238" data-name="パス 26238" d="M39.054,310.6l-1.975-3.95a.834.834,0,0,0-1.493.746l1.887,3.773v15.6a.834.834,0,1,0,1.669,0v-15.8A.834.834,0,0,0,39.054,310.6Z" transform="translate(-35.498 -306.185)"/>
      </g>
    </g>
    <g id="グループ_8192" data-name="グループ 8192" transform="translate(23.697 45.894)">
      <g id="グループ_8191" data-name="グループ 8191">
        <path id="パス_26239" data-name="パス 26239" d="M216.182,306.274a.834.834,0,0,0-1.119.373l-1.975,3.95a.834.834,0,0,0-.088.373v15.8a.834.834,0,1,0,1.669,0v-15.6l1.887-3.773A.834.834,0,0,0,216.182,306.274Z" transform="translate(-213 -306.185)"/>
      </g>
    </g>
    <g id="グループ_8194" data-name="グループ 8194" transform="translate(39.495 37.008)">
      <g id="グループ_8193" data-name="グループ 8193">
        <path id="パス_26240" data-name="パス 26240" d="M360.311,226.5a.834.834,0,0,0-1.174.122,1.636,1.636,0,0,1-2.653,0,.834.834,0,0,0-1.3,1.051,3.3,3.3,0,0,0,5.245,0A.834.834,0,0,0,360.311,226.5Z" transform="translate(-355.002 -226.312)"/>
      </g>
    </g>
    <g id="グループ_8196" data-name="グループ 8196" transform="translate(37.52 32.071)">
      <g id="グループ_8195" data-name="グループ 8195">
        <path id="パス_26241" data-name="パス 26241" d="M338.084,181.938a.834.834,0,0,0-.834.834v.987a.834.834,0,0,0,1.669,0v-.987A.834.834,0,0,0,338.084,181.938Z" transform="translate(-337.25 -181.938)"/>
      </g>
    </g>
    <g id="グループ_8198" data-name="グループ 8198" transform="translate(45.419 32.071)">
      <g id="グループ_8197" data-name="グループ 8197">
        <path id="パス_26242" data-name="パス 26242" d="M409.084,181.938a.834.834,0,0,0-.834.834v.987a.834.834,0,0,0,1.669,0v-.987A.834.834,0,0,0,409.084,181.938Z" transform="translate(-408.25 -181.938)"/>
      </g>
    </g>
    <g id="グループ_8200" data-name="グループ 8200" transform="translate(27.647 13.311)">
      <g id="グループ_8199" data-name="グループ 8199" transform="translate(0 0)">
        <path id="パス_26243" data-name="パス 26243" d="M275.429,49.159l-6.77-2.708a1.135,1.135,0,0,1-.717-1.059V43.341a9.636,9.636,0,0,0,1.323-.9,9.7,9.7,0,0,0,3.614-7.564c0-4.86-3.52-5.559-6.925-6.235-2.177-.432-4.429-.879-6.224-2.316a.835.835,0,0,0-1.267.277,9.784,9.784,0,0,1-1.263,1.826,4.258,4.258,0,0,1-2.928,1.664,2.791,2.791,0,0,0-1.14.243V28.956a10.027,10.027,0,0,1,20.054,0v1.975a.834.834,0,1,0,1.669,0V28.956a11.7,11.7,0,0,0-5.98-10.2,4.041,4.041,0,0,0,.056-.661c0-2.638-2.589-4.784-5.771-4.784s-5.771,2.146-5.771,4.784a4.028,4.028,0,0,0,.056.661,11.7,11.7,0,0,0-5.98,10.2v3.95a2.814,2.814,0,0,0,2,2.691,9.7,9.7,0,0,0,4.911,7.745v2.051a1.135,1.135,0,0,1-.717,1.059l-6.77,2.708a3.778,3.778,0,0,0-2.387,3.525v4.907a.834.834,0,0,0,.834.834h.153v8.052a.834.834,0,1,0,1.669,0V58.425h2.281v8.052a.834.834,0,1,0,1.669,0V55.615a.834.834,0,1,0-1.669,0v1.14h-3.268V52.684a2.117,2.117,0,0,1,1.337-1.976l5.265-2.106a15.371,15.371,0,0,0,6.013,5.785.834.834,0,0,0,.746,0,15.37,15.37,0,0,0,6.013-5.785l5.265,2.106a2.118,2.118,0,0,1,1.337,1.976v4.072h-3.268v-1.14a.834.834,0,0,0-1.669,0V66.477a.834.834,0,0,0,1.669,0V58.425h2.281v8.052a.834.834,0,1,0,1.669,0V58.425h.153a.834.834,0,0,0,.834-.834V52.684A3.778,3.778,0,0,0,275.429,49.159ZM263.158,14.98c2.221,0,4.035,1.348,4.1,3.023a11.692,11.692,0,0,0-8.2,0C259.123,16.328,260.936,14.98,263.158,14.98ZM258.1,41.146a8.029,8.029,0,0,1-2.994-6.266.834.834,0,0,0-.834-.834,1.14,1.14,0,0,1,0-2.281c2.53,0,4.366-2.291,5.194-3.573a17.223,17.223,0,0,0,6.163,2.09c3.667.728,5.581,1.263,5.581,4.6a8.028,8.028,0,0,1-2.994,6.266,8.053,8.053,0,0,1-10.115,0ZM263.158,52.7a13.956,13.956,0,0,1-4.814-4.727,2.794,2.794,0,0,0,1.7-2.579V44.085a9.661,9.661,0,0,0,6.23,0v1.307a2.794,2.794,0,0,0,1.7,2.579A13.956,13.956,0,0,1,263.158,52.7Z" transform="translate(-248.5 -13.311)"/>
      </g>
    </g>
    <g id="グループ_8202" data-name="グループ 8202" transform="translate(0 13.311)">
      <g id="グループ_8201" data-name="グループ 8201" transform="translate(0 0)">
        <path id="パス_26244" data-name="パス 26244" d="M28.585,42.336l-5.418-1.625-.9-1.355A.833.833,0,0,0,21.416,39V37.76a9.717,9.717,0,0,0,3.923-7.1,2.8,2.8,0,0,0,1.013-4.818V20.072a4.78,4.78,0,0,0-2.115-3.949,3.769,3.769,0,0,0-3.656-2.809h-7.9a7.755,7.755,0,0,0-7.746,7.746v4.784A2.8,2.8,0,0,0,5.95,30.661a9.717,9.717,0,0,0,3.923,7.1V39a.833.833,0,0,0-.847.357l-.9,1.355L2.705,42.336A3.773,3.773,0,0,0,0,45.973V66.478a.834.834,0,1,0,1.669,0V45.973a2.115,2.115,0,0,1,1.516-2.038l3.727-1.118a.833.833,0,0,0,.182.486l3.352,4.19a1.814,1.814,0,0,0,2.516.319l1.849-1.387V66.478a.834.834,0,1,0,1.669,0V46.425l1.849,1.387a1.814,1.814,0,0,0,2.516-.319L24.2,43.3a.832.832,0,0,0,.182-.486L28.1,43.935a2.115,2.115,0,0,1,1.516,2.038.834.834,0,1,0,1.669,0A3.773,3.773,0,0,0,28.585,42.336ZM7.593,29.945a.834.834,0,0,0-.834-.834,1.142,1.142,0,0,1-1.14-1.14,1.127,1.127,0,0,1,.573-.98c.018-.011.035-.023.053-.035a1.138,1.138,0,0,1,.515-.125H7.924A1.827,1.827,0,0,0,9.71,25.366l.607-3.035a.139.139,0,0,1,.066-.1.164.164,0,0,1,.135-.015,18.66,18.66,0,0,0,5.127.661,16.806,16.806,0,0,0,6.246-1.052.834.834,0,0,0-.643-1.54,15.362,15.362,0,0,1-5.6.923,17.228,17.228,0,0,1-4.66-.594,1.842,1.842,0,0,0-1.467.19A1.818,1.818,0,0,0,8.681,22l-.607,3.035a.153.153,0,0,1-.15.123H6.759c-.051,0-.1,0-.153.005V21.059a6.084,6.084,0,0,1,6.077-6.077h7.9a2.112,2.112,0,0,1,2.091,1.794.835.835,0,0,0,.414.6,3.115,3.115,0,0,1,1.6,2.7v6.2a.834.834,0,0,0,.415.721,1.127,1.127,0,0,1,.573.98,1.142,1.142,0,0,1-1.14,1.14.834.834,0,0,0-.834.834,8.052,8.052,0,1,1-16.1,0ZM11.96,46.476a.152.152,0,0,1-.211-.027L8.779,42.736,9.9,41.055l4.4,3.667Zm3.685-2.806-4.1-3.419v-1.5a9.7,9.7,0,0,0,8.2,0v1.5Zm3.9,2.78a.152.152,0,0,1-.211.027l-2.34-1.755,4.4-3.667,1.121,1.682Z" transform="translate(0 -13.313)"/>
      </g>
    </g>
    <g id="グループ_8204" data-name="グループ 8204" transform="translate(11.853 52.806)">
      <g id="グループ_8203" data-name="グループ 8203" transform="translate(0 0)">
        <path id="パス_26245" data-name="パス 26245" d="M107.383,368.313h-.01a.83.83,0,0,0-.83.834.837.837,0,1,0,.839-.834Z" transform="translate(-106.544 -368.313)"/>
      </g>
    </g>
    <g id="グループ_8206" data-name="グループ 8206" transform="translate(11.853 60.705)">
      <g id="グループ_8205" data-name="グループ 8205" transform="translate(0 0)">
        <path id="パス_26246" data-name="パス 26246" d="M107.383,439.313h-.01a.83.83,0,0,0-.83.834.837.837,0,1,0,.839-.834Z" transform="translate(-106.544 -439.313)"/>
      </g>
    </g>
    <g id="グループ_8208" data-name="グループ 8208" transform="translate(11.853 56.756)">
      <g id="グループ_8207" data-name="グループ 8207">
        <path id="パス_26247" data-name="パス 26247" d="M107.383,403.813h-.01a.839.839,0,1,0,.01,0Z" transform="translate(-106.544 -403.813)"/>
      </g>
    </g>
  </g>
</svg>
