<svg xmlns="http://www.w3.org/2000/svg" width="54.181" height="54" viewBox="0 0 54.181 54">
  <g id="kindergarten_2_" data-name="kindergarten (2)" transform="translate(0 -0.852)">
    <path id="パス_26218" data-name="パス 26218" d="M52.59,50.074V44.49a4.008,4.008,0,0,0-6.372-3.184V22.945c5.361-.445,5.185-8.473-.3-8.584-6.007-18.016-31.648-18.006-37.65,0-5.326-.068-5.9,8.193-.3,8.578V41.307a4.008,4.008,0,0,0-6.373,3.184s0,5.583,0,5.583H0v4.779H44.62V53.259H1.593V51.667H52.588v1.592H49.4v1.593h4.781V50.074ZM48.607,42.1A2.392,2.392,0,0,1,51,44.49v5.583H46.218V44.49A2.392,2.392,0,0,1,48.607,42.1Zm-3.985,7.973H39.844V44.49a2.389,2.389,0,0,1,4.779,0Zm0-15.936H38.251V29.351h6.374Zm3.93-15.479a2.577,2.577,0,0,1-2.663,2.707H34.247a2.582,2.582,0,0,1-2.53-1.646,2.779,2.779,0,0,1,2.364-3.777,5.535,5.535,0,0,1,2.156.651,3.96,3.96,0,0,1,7.662.049c2.143-1.462,4.651-.426,4.654,2.016ZM30,18.2H24.144A4.134,4.134,0,0,0,20.8,14.45a8.856,8.856,0,0,1,12.56-.03A4.281,4.281,0,0,0,30,18.2Zm5.48-3.734C31.624,8.831,22.516,8.85,18.677,14.5a5.008,5.008,0,0,0-1.113-1.253C22.045,7.077,32.1,7.069,36.6,13.227A5,5,0,0,0,35.483,14.469ZM27.092,2.359A18.33,18.33,0,0,1,43.932,13.6a5.239,5.239,0,0,0-2.393-1.342,16.739,16.739,0,0,0-5.968-6.029L34.76,7.6a15.15,15.15,0,0,1,4.8,4.5A5.715,5.715,0,0,0,38,12.436c-5.081-7.212-16.765-7.207-21.831.013a5.706,5.706,0,0,0-1.547-.353A15.173,15.173,0,0,1,33.34,6.856L34,5.406a16.769,16.769,0,0,0-21.347,6.833,5.26,5.26,0,0,0-2.376,1.285A18.124,18.124,0,0,1,27.092,2.359ZM5.737,19.72c-.652-2.193.979-4.665,3.78-3.448l.741.322a3.858,3.858,0,0,1,3.821-2.932,3.874,3.874,0,0,1,3.841,2.981c4.663-2.955,6.7,4.4,1.991,4.723h-2.38v1.593c3.051.139,5.625-.028,6.493-3.163h6.059a4.165,4.165,0,0,0,4.089,3.161c.039.009,10.408,0,10.454,0v4.8H36.657v7.973h7.967v5.576a4.008,4.008,0,0,0-6.374,3.183s0,5.583,0,5.583H33.469V30.949H20.721V50.074H15.933V44.49A4.008,4.008,0,0,0,9.56,41.307V35.731h7.961V27.758H9.56v-4.8h6.377V21.366H8.266a2.582,2.582,0,0,1-2.53-1.646ZM31.875,50.074H22.314V32.543h9.561ZM9.56,29.351h6.367v4.786H9.56Zm4.78,20.722H9.561V44.49a2.389,2.389,0,0,1,4.779,0ZM3.187,44.49a2.39,2.39,0,0,1,4.779,0v5.583H3.187Z" transform="translate(0 0)"/>
    <path id="パス_26219" data-name="パス 26219" d="M435.021,494.172h1.594v1.594h-1.594Z" transform="translate(-388.808 -440.913)"/>
    <path id="パス_26220" data-name="パス 26220" d="M228.457,320.374c4.21-.076,4.21-6.332,0-6.407C224.247,314.043,224.247,320.3,228.457,320.374Zm0-4.814a1.61,1.61,0,0,1,0,3.22A1.61,1.61,0,0,1,228.457,315.56Z" transform="translate(-201.365 -279.852)"/>
    <path id="パス_26221" data-name="パス 26221" d="M270.178,389.151h1.594v1.593h-1.594Z" transform="translate(-241.476 -347.049)"/>
    <path id="パス_26222" data-name="パス 26222" d="M217.521,224.14h1.593v1.594h-1.593Z" transform="translate(-194.413 -199.567)"/>
    <path id="パス_26223" data-name="パス 26223" d="M247.521,224.14h1.593v1.594h-1.593Z" transform="translate(-221.226 -199.567)"/>
    <path id="パス_26224" data-name="パス 26224" d="M277.521,224.14h1.594v1.594h-1.594Z" transform="translate(-248.039 -199.567)"/>
    <path id="パス_26225" data-name="パス 26225" d="M104.992,284.151h1.593v1.594h-1.593Z" transform="translate(-93.838 -253.203)"/>
    <path id="パス_26226" data-name="パス 26226" d="M375.048,284.151h1.594v1.594h-1.594Z" transform="translate(-335.206 -253.203)"/>
  </g>
</svg>
