<svg xmlns="http://www.w3.org/2000/svg" width="87.16" height="87.146" viewBox="0 0 87.16 87.146">
  <g id="contract_1_" data-name="contract (1)" transform="translate(0 -0.039)">
    <path id="パス_26260" data-name="パス 26260" d="M244.2,99.247a4.36,4.36,0,0,0-7.988-1.046l-.726,1.264a1.452,1.452,0,0,0-1.975.523l-3.689,6.288-1.264-.726a1.451,1.451,0,1,0-1.452,2.513l1.264.726-12.346,21.394-3.05,8.149-1.452,2.715a4.358,4.358,0,0,0,.233,4.706l-3.268,4.008-.915-2.294a2.905,2.905,0,0,0-5.186-.407l-.523.886-.494-5.81a2.9,2.9,0,0,0-5.65-.682l-3.573,10.719a1.452,1.452,0,0,0,.915,1.83,1.258,1.258,0,0,0,.45.116,1.452,1.452,0,0,0,1.38-.987l3.558-10.719.508,5.9a2.9,2.9,0,0,0,5.388,1.25l.538-.886.9,2.281a2.9,2.9,0,0,0,4.967.74l3.384-4.284a4.473,4.473,0,0,0,1.147.145,4.358,4.358,0,0,0,3.791-2.15l1.452-2.425,5.534-6.725L238.54,114.6l1.264.726a1.456,1.456,0,0,1,.538,1.99l-5.81,10.066a1.442,1.442,0,1,0,2.455,1.511l5.81-10.066a4.356,4.356,0,0,0-1.6-5.955l-1.264-.726,3.631-6.289a1.453,1.453,0,0,0-.523-1.975l.726-1.264A4.356,4.356,0,0,0,244.2,99.247Zm-5.476.406a1.452,1.452,0,0,1,.886-.682,1.525,1.525,0,0,1,1.1.145,1.454,1.454,0,0,1,.683.886,1.525,1.525,0,0,1-.145,1.1l-.726,1.264L238,100.918Zm-19.8,40.552-.726-.421-2.15-1.25,2.062-5.519,4.575,2.643Zm-4.357,4.2a1.452,1.452,0,0,1-.435-1.9l.726-1.263,2.527,1.452-.726,1.249a1.452,1.452,0,0,1-2.091.465Zm9.775-11.125-5.025-2.9,11.619-20.131,5.025,2.9Zm13.072-22.644-5.025-2.9,2.9-5.025,5.025,2.9Zm0,0" transform="translate(-157.205 -78.555)" fill="#fff"/>
    <path id="パス_26261" data-name="パス 26261" d="M78.011,356.945l-5.141,5.127-3.079-3.079a1.453,1.453,0,1,0-2.048,2.062l3.079,3.079a2.928,2.928,0,0,0,4.11,0l5.127-5.142a1.453,1.453,0,0,0-2.048-2.048Zm0,0" transform="translate(-55.092 -291.823)" fill="#fff"/>
    <path id="パス_26262" data-name="パス 26262" d="M32,324.386a12.346,12.346,0,1,0,24.691,0,1.452,1.452,0,1,0-2.9,0,9.442,9.442,0,1,1-3.776-7.552,1.453,1.453,0,0,0,1.743-2.324A12.346,12.346,0,0,0,32,324.386Zm0,0" transform="translate(-26.19 -255.357)" fill="#fff"/>
    <path id="パス_26263" data-name="パス 26263" d="M111.215,50.944a1.452,1.452,0,1,0,0-2.9H73.452A1.452,1.452,0,0,0,72,49.491V55.3a1.452,1.452,0,0,0,1.452,1.452h37.763a1.452,1.452,0,1,0,0-2.9H74.9v-2.9Zm0,0" transform="translate(-58.928 -39.285)" fill="#fff"/>
    <path id="パス_26264" data-name="パス 26264" d="M97.452,112.039a1.452,1.452,0,1,0,0,2.9H126.5a1.452,1.452,0,1,0,0-2.9Zm0,0" transform="translate(-78.571 -91.666)" fill="#fff"/>
    <path id="パス_26265" data-name="パス 26265" d="M161.406,168.039H129.452a1.452,1.452,0,0,0,0,2.9h31.953a1.452,1.452,0,0,0,0-2.9Zm0,0" transform="translate(-104.761 -137.499)" fill="#fff"/>
    <path id="パス_26266" data-name="パス 26266" d="M87.953,217.491a1.452,1.452,0,0,0-1.452-1.452H57.452a1.452,1.452,0,0,0,0,2.9H86.5A1.452,1.452,0,0,0,87.953,217.491Zm0,0" transform="translate(-45.833 -176.785)" fill="#fff"/>
    <path id="パス_26267" data-name="パス 26267" d="M259.619,216.039H249.452a1.452,1.452,0,0,0,0,2.9h10.167a1.452,1.452,0,1,0,0-2.9Zm0,0" transform="translate(-202.975 -176.785)" fill="#fff"/>
    <path id="パス_26268" data-name="パス 26268" d="M71.977,258.944a1.452,1.452,0,1,0,0-2.9H57.452a1.452,1.452,0,1,0,0,2.9Zm0,0" transform="translate(-45.833 -209.523)" fill="#fff"/>
    <path id="パス_26269" data-name="パス 26269" d="M169.452,258.944h10.167a1.452,1.452,0,0,0,0-2.9H169.452a1.452,1.452,0,0,0,0,2.9Zm0,0" transform="translate(-137.499 -209.523)" fill="#fff"/>
    <path id="パス_26270" data-name="パス 26270" d="M65.359,66.85A1.452,1.452,0,0,0,63.907,68.3V82.827a1.452,1.452,0,0,1-1.452,1.452H4.357A1.452,1.452,0,0,1,2.9,82.827V4.4A1.452,1.452,0,0,1,4.357,2.944h58.1A1.452,1.452,0,0,1,63.907,4.4V31.673a1.452,1.452,0,0,0,2.9,0V4.4A4.357,4.357,0,0,0,62.454.039H4.357A4.357,4.357,0,0,0,0,4.4V82.827a4.357,4.357,0,0,0,4.357,4.357h58.1a4.357,4.357,0,0,0,4.357-4.357V68.3A1.453,1.453,0,0,0,65.359,66.85Zm0,0" fill="#fff"/>
  </g>
</svg>
