<svg xmlns="http://www.w3.org/2000/svg" width="51.399" height="54" viewBox="0 0 51.399 54">
  <path id="_x30_6-Movie_Clapper" d="M16.961,22.83a5.126,5.126,0,0,0-.832-2.249L55.638,7.389,53.564,1.177A1.724,1.724,0,0,0,51.384.089L8.407,14.438a1.723,1.723,0,0,0-1.089,2.18l1.017,3.045a5.151,5.151,0,0,0,.991,8.28V52.277A1.723,1.723,0,0,0,11.05,54H56.359a1.723,1.723,0,0,0,1.723-1.723V22.83ZM42.142,5.2l5.231-1.746L46.115,8.542l-5.231,1.746ZM29.219,9.516,34.45,7.769l-1.259,5.088L27.961,14.6ZM11.84,26.07a2.628,2.628,0,1,1,2.628-2.628A2.63,2.63,0,0,1,11.84,26.07ZM16.3,13.831l5.231-1.746-1.259,5.088-5.231,1.747Zm5.139,14.817H15.92l2.805-4.427H24.24ZM32.35,24.221h5.515l-2.805,4.427H29.544ZM31,45.616V33.938l9.3,5.839ZM48.684,28.648H43.169l2.805-4.427h5.515Z" transform="translate(-6.683 0)"/>
</svg>
