<svg xmlns="http://www.w3.org/2000/svg" xmlns:xlink="http://www.w3.org/1999/xlink" width="250.313" height="250.313" viewBox="0 0 250.313 250.313">
  <defs>
    <clipPath id="clip-path">
      <path id="path1083" d="M0-682.665H250.313v250.312H0Z" transform="translate(0 682.665)" fill="#fff"/>
    </clipPath>
  </defs>
  <g id="relations" transform="translate(0 -0.002)">
    <g id="g1077" transform="translate(0 0.002)">
      <g id="g1079">
        <g id="g1081" clip-path="url(#clip-path)">
          <g id="g1087" transform="translate(80.066 13.065)">
            <path id="path1089" d="M-77.882-25.528a30.344,30.344,0,0,0-30.31,30.31,30.344,30.344,0,0,0,30.31,30.31,30.344,30.344,0,0,0,30.31-30.31A30.345,30.345,0,0,0-77.882-25.528Zm0,75.4a45.141,45.141,0,0,1-45.09-45.089,45.141,45.141,0,0,1,45.09-45.09,45.141,45.141,0,0,1,45.09,45.09A45.141,45.141,0,0,1-77.882,49.872Z" transform="translate(122.972 40.308)" fill="none" stroke="#fff" stroke-linecap="round" stroke-linejoin="round" stroke-miterlimit="10" stroke-width="5"/>
          </g>
          <g id="g1091" transform="translate(110.544 37.842)">
            <path id="path1093" d="M-25.239,0h0A14.655,14.655,0,0,0-39.851,14.612,14.655,14.655,0,0,0-25.239,29.224,14.655,14.655,0,0,0-10.626,14.612,14.656,14.656,0,0,0-25.239,0Z" transform="translate(39.851)" fill="none" stroke="#fff" stroke-linecap="round" stroke-linejoin="round" stroke-miterlimit="10" stroke-width="5"/>
          </g>
          <g id="g1095" transform="translate(100.721 66.987)">
            <path id="path1097" d="M-61.632,0H-84.126A14.123,14.123,0,0,0-97.314,9.074a30.283,30.283,0,0,0,24.435,12.4,30.284,30.284,0,0,0,24.436-12.4A14.124,14.124,0,0,0-61.632,0Z" transform="translate(97.314)" fill="none" stroke="#fff" stroke-linecap="round" stroke-linejoin="round" stroke-miterlimit="10" stroke-width="5"/>
          </g>
          <g id="g1099" transform="translate(186.936 171.844)">
            <path id="path1101" d="M-25.239,0h0A14.656,14.656,0,0,0-39.852,14.612,14.655,14.655,0,0,0-25.239,29.224,14.655,14.655,0,0,0-10.627,14.612,14.655,14.655,0,0,0-25.239,0Z" transform="translate(39.852)" fill="none" stroke="#fff" stroke-linecap="round" stroke-linejoin="round" stroke-miterlimit="10" stroke-width="5"/>
          </g>
          <g id="g1103" transform="translate(177.113 200.989)">
            <path id="path1105" d="M-61.632,0H-84.126A14.124,14.124,0,0,0-97.314,9.074a30.283,30.283,0,0,0,24.435,12.4,30.284,30.284,0,0,0,24.436-12.4A14.124,14.124,0,0,0-61.632,0Z" transform="translate(97.314)" fill="none" stroke="#fff" stroke-linecap="round" stroke-linejoin="round" stroke-miterlimit="10" stroke-width="5"/>
          </g>
          <g id="g1107" transform="translate(3.674 147.068)">
            <path id="path1109" d="M-77.882-25.528a30.344,30.344,0,0,0-30.31,30.31,30.344,30.344,0,0,0,30.31,30.31,30.344,30.344,0,0,0,30.31-30.31A30.345,30.345,0,0,0-77.882-25.528Zm0,75.4a45.141,45.141,0,0,1-45.09-45.089,45.142,45.142,0,0,1,45.09-45.09,45.141,45.141,0,0,1,45.09,45.09A45.141,45.141,0,0,1-77.882,49.872Z" transform="translate(122.972 40.308)" fill="none" stroke="#fff" stroke-linecap="round" stroke-linejoin="round" stroke-miterlimit="10" stroke-width="5"/>
          </g>
          <g id="g1111" transform="translate(34.152 171.844)">
            <path id="path1113" d="M-25.239,0h0A14.655,14.655,0,0,0-39.851,14.612,14.655,14.655,0,0,0-25.239,29.224,14.655,14.655,0,0,0-10.626,14.612,14.656,14.656,0,0,0-25.239,0Z" transform="translate(39.851)" fill="none" stroke="#fff" stroke-linecap="round" stroke-linejoin="round" stroke-miterlimit="10" stroke-width="5"/>
          </g>
          <g id="g1115" transform="translate(24.329 200.989)">
            <path id="path1117" d="M-61.632,0H-84.126A14.124,14.124,0,0,0-97.314,9.074a30.283,30.283,0,0,0,24.435,12.4,30.284,30.284,0,0,0,24.436-12.4A14.124,14.124,0,0,0-61.632,0Z" transform="translate(97.314)" fill="none" stroke="#fff" stroke-linecap="round" stroke-linejoin="round" stroke-miterlimit="10" stroke-width="5"/>
          </g>
          <g id="g1119" transform="translate(37.119 67.863)">
            <path id="path1121" d="M-76,0a87.243,87.243,0,0,0-44,75.807c0,1.641.05,3.27.139,4.888" transform="translate(120.008)" fill="none" stroke="#fff" stroke-linecap="round" stroke-linejoin="round" stroke-miterlimit="10" stroke-width="5"/>
          </g>
          <g id="g1123" transform="translate(169.01 68.652)">
            <path id="path1125" d="M-73.484-137.379q.114-2.245.115-4.518a87.226,87.226,0,0,0-42.659-75.018" transform="translate(116.028 216.915)" fill="none" stroke="#fff" stroke-linecap="round" stroke-linejoin="round" stroke-miterlimit="10" stroke-width="5"/>
          </g>
          <g id="g1127" transform="translate(83.553 220.241)">
            <path id="path1129" d="M0-.986A86.881,86.881,0,0,0,40.841,9.147a86.873,86.873,0,0,0,41.9-10.7" transform="translate(0 1.557)" fill="none" stroke="#fff" stroke-linecap="round" stroke-linejoin="round" stroke-miterlimit="10" stroke-width="5"/>
          </g>
          <g id="g1131" transform="translate(113.324 141.483)">
            <path id="path1133" d="M0-8.884,9.664.78,24.471-14.028" transform="translate(0 14.028)" fill="none" stroke="#fff" stroke-linecap="round" stroke-linejoin="round" stroke-miterlimit="10" stroke-width="5"/>
          </g>
          <g id="g1135" transform="translate(156.458 147.068)">
            <path id="path1137" d="M-77.882-130.234a30.344,30.344,0,0,1-30.31-30.31,30.345,30.345,0,0,1,30.31-30.31,30.344,30.344,0,0,1,30.31,30.31A30.344,30.344,0,0,1-77.882-130.234Zm8.556,13.962a45.163,45.163,0,0,0,36.534-44.272,45.142,45.142,0,0,0-45.09-45.09,45.141,45.141,0,0,0-45.09,45.09,45.163,45.163,0,0,0,36.534,44.272" transform="translate(122.972 205.634)" fill="none" stroke="#fff" stroke-linecap="round" stroke-linejoin="round" stroke-miterlimit="10" stroke-width="5"/>
          </g>
          <g id="g1139" transform="translate(95.619 117.53)">
            <path id="path1141" d="M-100.757-39.683a29.542,29.542,0,0,0-28.8-22.974A29.537,29.537,0,0,0-159.09-33.12,29.537,29.537,0,0,0-129.553-3.582a29.542,29.542,0,0,0,27.59-18.989" transform="translate(159.09 62.657)" fill="none" stroke="#fff" stroke-linecap="round" stroke-linejoin="round" stroke-miterlimit="10" stroke-width="5"/>
          </g>
        </g>
      </g>
    </g>
  </g>
</svg>
