<svg xmlns="http://www.w3.org/2000/svg" xmlns:xlink="http://www.w3.org/1999/xlink" width="81.408" height="81.408" viewBox="0 0 81.408 81.408">
  <defs>
    <clipPath id="clip-path">
      <path id="path9831" d="M0-682.665H81.408v81.408H0Z" transform="translate(0 682.665)" fill="#fff"/>
    </clipPath>
  </defs>
  <g id="g9825" transform="translate(0 682.665)">
    <g id="g9827" transform="translate(0 -682.665)">
      <g id="g9829" clip-path="url(#clip-path)">
        <g id="g9835" transform="translate(57.011 36.156)">
          <path id="path9837" d="M0-66.916l3.4-8.933a.205.205,0,0,1,.38,0l3.371,8.933" transform="translate(0 75.976)" fill="none" stroke="#fff" stroke-linecap="round" stroke-linejoin="round" stroke-miterlimit="10" stroke-width="2.5"/>
        </g>
        <g id="g9839" transform="translate(58.072 42.991)">
          <path id="path9841" d="M0,0H5.048" fill="none" stroke="#fff" stroke-linecap="round" stroke-linejoin="round" stroke-miterlimit="10" stroke-width="2.5"/>
        </g>
        <g id="g9843" transform="translate(25.281 36.156)">
          <path id="path9845" d="M0-66.916v-9.043l6.114,8.854c.113.164.235.083.235-.116l-.085-8.755" transform="translate(0 75.976)" fill="none" stroke="#fff" stroke-linecap="round" stroke-linejoin="round" stroke-miterlimit="10" stroke-width="2.5"/>
        </g>
        <g id="g9847" transform="translate(35.501 36.155)">
          <path id="path9849" d="M-52.164-5.714A4.509,4.509,0,0,0-54.7-6.488a4.53,4.53,0,0,0-4.53,4.53,4.53,4.53,0,0,0,4.53,4.53c2.5,0,3.911-2.028,3.911-4.53H-53.5" transform="translate(59.227 6.488)" fill="none" stroke="#fff" stroke-linecap="round" stroke-linejoin="round" stroke-miterlimit="10" stroke-width="2.5"/>
        </g>
        <g id="g9851" transform="translate(1.192 36.155)">
          <path id="path9853" d="M-52.165-5.714A4.509,4.509,0,0,0-54.7-6.488a4.53,4.53,0,0,0-4.53,4.53,4.53,4.53,0,0,0,4.53,4.53,3.64,3.64,0,0,0,2.486-.9,3.606,3.606,0,0,0,.368-.379" transform="translate(59.228 6.488)" fill="none" stroke="#fff" stroke-linecap="round" stroke-linejoin="round" stroke-miterlimit="10" stroke-width="2.5"/>
        </g>
        <g id="g9855" transform="translate(74.332 36.156)">
          <path id="path9857" d="M-41.244-6.879a4.132,4.132,0,0,0-3.543-.789,1.889,1.889,0,0,0-.733,3.39s1.25.558,2.636,1.069c3.336,1.231,1.9,4.459-.787,4.459A4.279,4.279,0,0,1-46.828-.094" transform="translate(46.828 7.811)" fill="none" stroke="#fff" stroke-linecap="round" stroke-linejoin="round" stroke-miterlimit="10" stroke-width="2.5"/>
        </g>
        <g id="g9859" transform="translate(66.132 36.155)">
          <path id="path9861" d="M0,0H5" fill="none" stroke="#fff" stroke-linecap="round" stroke-linejoin="round" stroke-miterlimit="10" stroke-width="2.5"/>
        </g>
        <g id="g9863" transform="translate(68.624 36.445)">
          <path id="path9865" d="M0,0V8.771" fill="none" stroke="#fff" stroke-linecap="round" stroke-linejoin="round" stroke-miterlimit="10" stroke-width="2.5"/>
        </g>
        <g id="g9867" transform="translate(49.168 40.891)">
          <path id="path9869" d="M0,0,3.806,4.324" fill="none" stroke="#fff" stroke-linecap="round" stroke-linejoin="round" stroke-miterlimit="10" stroke-width="2.5"/>
        </g>
        <g id="g9871" transform="translate(48.075 36.155)">
          <path id="path9873" d="M0,0V9.06" fill="none" stroke="#fff" stroke-linecap="round" stroke-linejoin="round" stroke-miterlimit="10" stroke-width="2.5"/>
        </g>
        <g id="g9875" transform="translate(48.078 36.155)">
          <path id="path9877" d="M-36.156-17.392a2.441,2.441,0,0,1-2.488,2.355c-.668,0-2.391.01-2.391.01s-.011-1.709-.011-2.365c0-.538-.006-2.355-.006-2.355h2.408A2.441,2.441,0,0,1-36.156-17.392Z" transform="translate(41.052 19.747)" fill="none" stroke="#fff" stroke-linecap="round" stroke-linejoin="round" stroke-miterlimit="10" stroke-width="2.5"/>
        </g>
        <g id="g9879" transform="translate(12.16 36.155)">
          <path id="path9881" d="M-66.916-33.458a4.53,4.53,0,0,1-4.53,4.53,4.53,4.53,0,0,1-4.53-4.53,4.53,4.53,0,0,1,4.53-4.53A4.53,4.53,0,0,1-66.916-33.458Z" transform="translate(75.976 37.988)" fill="none" stroke="#fff" stroke-linecap="round" stroke-linejoin="round" stroke-miterlimit="10" stroke-width="2.5"/>
        </g>
        <g id="g9883" transform="translate(6.291 30.507)">
          <path id="path9885" d="M-508.334,0H-577.16" transform="translate(577.16)" fill="none" stroke="#fff" stroke-linecap="round" stroke-linejoin="round" stroke-miterlimit="10" stroke-width="2.5"/>
        </g>
        <g id="g9887" transform="translate(40.704 12.664)">
          <path id="path9889" d="M0-131.79v-17.844" transform="translate(0 149.634)" fill="none" stroke="#fff" stroke-linecap="round" stroke-linejoin="round" stroke-miterlimit="10" stroke-width="2.5"/>
        </g>
        <g id="g9891" transform="translate(37.099 1.192)">
          <path id="path9893" d="M-26.626-53.251l-3.6-3.6,3.6-3.6,3.6,3.6Z" transform="translate(30.231 60.461)" fill="none" stroke="#fff" stroke-linecap="round" stroke-linejoin="round" stroke-miterlimit="10" stroke-width="2.5"/>
        </g>
        <g id="g9895" transform="translate(26.684 13.938)">
          <path id="path9897" d="M-75.309-122.377l-10.2-16.569" transform="translate(85.505 138.946)" fill="none" stroke="#fff" stroke-linecap="round" stroke-linejoin="round" stroke-miterlimit="10" stroke-width="2.5"/>
        </g>
        <g id="g9899" transform="translate(21.693 8.108)">
          <path id="path9901" d="M0,0,4.883,1.464" fill="none" stroke="#fff" stroke-linecap="round" stroke-linejoin="round" stroke-miterlimit="10" stroke-width="2.5"/>
        </g>
        <g id="g9903" transform="translate(23.402 6.398)">
          <path id="path9905" d="M-10.816,0-12.28,4.883" transform="translate(12.28)" fill="none" stroke="#fff" stroke-linecap="round" stroke-linejoin="round" stroke-miterlimit="10" stroke-width="2.5"/>
        </g>
        <g id="g9907" transform="translate(13.938 17.566)">
          <path id="path9909" d="M-94.137-57.93l-12.746-7.843" transform="translate(106.882 65.773)" fill="none" stroke="#fff" stroke-linecap="round" stroke-linejoin="round" stroke-miterlimit="10" stroke-width="2.5"/>
        </g>
        <g id="g9911" transform="translate(10.114 15.213)">
          <path id="path9913" d="M0,0H.013" fill="none" stroke="#fff" stroke-linecap="round" stroke-linejoin="round" stroke-miterlimit="10" stroke-width="2.5"/>
        </g>
        <g id="g9915" transform="translate(31.782 7.565)">
          <path id="path9917" d="M-18.827-47.067l-2.549-6.373" transform="translate(21.376 53.44)" fill="none" stroke="#fff" stroke-linecap="round" stroke-linejoin="round" stroke-miterlimit="10" stroke-width="2.5"/>
        </g>
        <g id="g9919" transform="translate(14.665 10.114)">
          <path id="path9921" d="M-28.24-28.24l-3.824-3.824" transform="translate(32.064 32.064)" fill="none" stroke="#fff" stroke-linecap="round" stroke-linejoin="round" stroke-miterlimit="10" stroke-width="2.5"/>
        </g>
        <g id="g9923" transform="translate(11.389 24.135)">
          <path id="path9925" d="M0,0,3.824,1.275" fill="none" stroke="#fff" stroke-linecap="round" stroke-linejoin="round" stroke-miterlimit="10" stroke-width="2.5"/>
        </g>
        <g id="g9927" transform="translate(44.528 13.938)">
          <path id="path9929" d="M0-122.377l10.2-16.569" transform="translate(0 138.946)" fill="none" stroke="#fff" stroke-linecap="round" stroke-linejoin="round" stroke-miterlimit="10" stroke-width="2.5"/>
        </g>
        <g id="g9931" transform="translate(54.831 8.108)">
          <path id="path9933" d="M-36.068,0l-4.884,1.464" transform="translate(40.952)" fill="none" stroke="#fff" stroke-linecap="round" stroke-linejoin="round" stroke-miterlimit="10" stroke-width="2.5"/>
        </g>
        <g id="g9935" transform="translate(56.541 6.398)">
          <path id="path9937" d="M0,0,1.464,4.883" fill="none" stroke="#fff" stroke-linecap="round" stroke-linejoin="round" stroke-miterlimit="10" stroke-width="2.5"/>
        </g>
        <g id="g9939" transform="translate(54.724 17.566)">
          <path id="path9941" d="M0-57.93l12.746-7.843" transform="translate(0 65.773)" fill="none" stroke="#fff" stroke-linecap="round" stroke-linejoin="round" stroke-miterlimit="10" stroke-width="2.5"/>
        </g>
        <g id="g9943" transform="translate(71.281 15.213)">
          <path id="path9945" d="M-.094,0H-.107" transform="translate(0.107)" fill="none" stroke="#fff" stroke-linecap="round" stroke-linejoin="round" stroke-miterlimit="10" stroke-width="2.5"/>
        </g>
        <g id="g9947" transform="translate(47.077 7.565)">
          <path id="path9949" d="M0-47.067,2.549-53.44" transform="translate(0 53.44)" fill="none" stroke="#fff" stroke-linecap="round" stroke-linejoin="round" stroke-miterlimit="10" stroke-width="2.5"/>
        </g>
        <g id="g9951" transform="translate(62.919 10.114)">
          <path id="path9953" d="M0-28.24l3.824-3.824" transform="translate(0 32.064)" fill="none" stroke="#fff" stroke-linecap="round" stroke-linejoin="round" stroke-miterlimit="10" stroke-width="2.5"/>
        </g>
        <g id="g9955" transform="translate(66.195 24.135)">
          <path id="path9957" d="M-28.241,0l-3.824,1.275" transform="translate(32.065)" fill="none" stroke="#fff" stroke-linecap="round" stroke-linejoin="round" stroke-miterlimit="10" stroke-width="2.5"/>
        </g>
        <g id="g9959" transform="translate(6.291 50.9)">
          <path id="path9961" d="M0,0H68.826" fill="none" stroke="#fff" stroke-linecap="round" stroke-linejoin="round" stroke-miterlimit="10" stroke-width="2.5"/>
        </g>
        <g id="g9963" transform="translate(40.704 50.9)">
          <path id="path9965" d="M0,0V17.844" fill="none" stroke="#fff" stroke-linecap="round" stroke-linejoin="round" stroke-miterlimit="10" stroke-width="2.5"/>
        </g>
        <g id="g9967" transform="translate(37.099 73.005)">
          <path id="path9969" d="M-26.626,0l3.6,3.6-3.6,3.6-3.6-3.6Z" transform="translate(30.231)" fill="none" stroke="#fff" stroke-linecap="round" stroke-linejoin="round" stroke-miterlimit="10" stroke-width="2.5"/>
        </g>
        <g id="g9971" transform="translate(44.528 50.9)">
          <path id="path9973" d="M0,0,10.2,16.569" fill="none" stroke="#fff" stroke-linecap="round" stroke-linejoin="round" stroke-miterlimit="10" stroke-width="2.5"/>
        </g>
        <g id="g9975" transform="translate(54.831 71.836)">
          <path id="path9977" d="M-36.068-10.816l-4.884-1.464" transform="translate(40.952 12.28)" fill="none" stroke="#fff" stroke-linecap="round" stroke-linejoin="round" stroke-miterlimit="10" stroke-width="2.5"/>
        </g>
        <g id="g9979" transform="translate(56.541 70.126)">
          <path id="path9981" d="M0-36.067l1.464-4.883" transform="translate(0 40.951)" fill="none" stroke="#fff" stroke-linecap="round" stroke-linejoin="round" stroke-miterlimit="10" stroke-width="2.5"/>
        </g>
        <g id="g9983" transform="translate(54.724 55.999)">
          <path id="path9985" d="M0,0,12.746,7.843" fill="none" stroke="#fff" stroke-linecap="round" stroke-linejoin="round" stroke-miterlimit="10" stroke-width="2.5"/>
        </g>
        <g id="g9987" transform="translate(71.281 66.195)">
          <path id="path9989" d="M-.094,0H-.107" transform="translate(0.107)" fill="none" stroke="#fff" stroke-linecap="round" stroke-linejoin="round" stroke-miterlimit="10" stroke-width="2.5"/>
        </g>
        <g id="g9991" transform="translate(47.077 67.47)">
          <path id="path9993" d="M0,0,2.549,6.373" fill="none" stroke="#fff" stroke-linecap="round" stroke-linejoin="round" stroke-miterlimit="10" stroke-width="2.5"/>
        </g>
        <g id="g9995" transform="translate(62.919 67.47)">
          <path id="path9997" d="M0,0,3.824,3.824" fill="none" stroke="#fff" stroke-linecap="round" stroke-linejoin="round" stroke-miterlimit="10" stroke-width="2.5"/>
        </g>
        <g id="g9999" transform="translate(66.195 55.998)">
          <path id="path10001" d="M-28.241-9.415l-3.824-1.275" transform="translate(32.065 10.689)" fill="none" stroke="#fff" stroke-linecap="round" stroke-linejoin="round" stroke-miterlimit="10" stroke-width="2.5"/>
        </g>
        <g id="g10003" transform="translate(26.684 50.9)">
          <path id="path10005" d="M-75.309,0l-10.2,16.569" transform="translate(85.505)" fill="none" stroke="#fff" stroke-linecap="round" stroke-linejoin="round" stroke-miterlimit="10" stroke-width="2.5"/>
        </g>
        <g id="g10007" transform="translate(21.693 71.836)">
          <path id="path10009" d="M0-10.816,4.883-12.28" transform="translate(0 12.28)" fill="none" stroke="#fff" stroke-linecap="round" stroke-linejoin="round" stroke-miterlimit="10" stroke-width="2.5"/>
        </g>
        <g id="g10011" transform="translate(23.402 70.126)">
          <path id="path10013" d="M-10.816-36.067l-1.464-4.883" transform="translate(12.28 40.951)" fill="none" stroke="#fff" stroke-linecap="round" stroke-linejoin="round" stroke-miterlimit="10" stroke-width="2.5"/>
        </g>
        <g id="g10015" transform="translate(13.938 55.999)">
          <path id="path10017" d="M-94.137,0l-12.746,7.843" transform="translate(106.882)" fill="none" stroke="#fff" stroke-linecap="round" stroke-linejoin="round" stroke-miterlimit="10" stroke-width="2.5"/>
        </g>
        <g id="g10019" transform="translate(10.114 66.195)">
          <path id="path10021" d="M0,0H.013" fill="none" stroke="#fff" stroke-linecap="round" stroke-linejoin="round" stroke-miterlimit="10" stroke-width="2.5"/>
        </g>
        <g id="g10023" transform="translate(31.782 67.47)">
          <path id="path10025" d="M-18.827,0l-2.549,6.373" transform="translate(21.376)" fill="none" stroke="#fff" stroke-linecap="round" stroke-linejoin="round" stroke-miterlimit="10" stroke-width="2.5"/>
        </g>
        <g id="g10027" transform="translate(14.665 67.47)">
          <path id="path10029" d="M-28.24,0l-3.824,3.824" transform="translate(32.064)" fill="none" stroke="#fff" stroke-linecap="round" stroke-linejoin="round" stroke-miterlimit="10" stroke-width="2.5"/>
        </g>
        <g id="g10031" transform="translate(11.389 55.998)">
          <path id="path10033" d="M0-9.415l3.824-1.275" transform="translate(0 10.689)" fill="none" stroke="#fff" stroke-linecap="round" stroke-linejoin="round" stroke-miterlimit="10" stroke-width="2.5"/>
        </g>
      </g>
    </g>
  </g>
</svg>
