<svg xmlns="http://www.w3.org/2000/svg" width="88.184" height="81.072" viewBox="0 0 88.184 81.072">
  <g id="kindergarden" transform="translate(-26 -36)">
    <path id="パス_47907" data-name="パス 47907" d="M220.761,64.795a1.422,1.422,0,0,0,2.011,0l1.006-1.006,1.006,1.006a1.422,1.422,0,0,0,2.011-2.011l-1.006-1.006,1.006-1.006a1.422,1.422,0,1,0-2.011-2.011l-1.006,1.006-1.006-1.006a1.422,1.422,0,1,0-2.011,2.011l1.006,1.006-1.006,1.006A1.421,1.421,0,0,0,220.761,64.795Z" transform="translate(-125.239 -14.399)" fill="#fff"/>
    <path id="パス_47908" data-name="パス 47908" d="M229.081,105.47a1.611,1.611,0,1,0,1.611,1.611A1.611,1.611,0,0,0,229.081,105.47Z" transform="translate(-129.831 -44.768)" fill="#fff"/>
    <path id="パス_47909" data-name="パス 47909" d="M58.534,77.068A8.534,8.534,0,1,0,50,68.534,8.543,8.543,0,0,0,58.534,77.068Zm0-14.223a5.689,5.689,0,1,1-5.689,5.689A5.7,5.7,0,0,1,58.534,62.845Z" transform="translate(-15.466 -15.466)" fill="#fff"/>
    <path id="パス_47910" data-name="パス 47910" d="M70,117.422v2.845a1.422,1.422,0,1,0,2.845,0v-2.845a1.422,1.422,0,0,0-2.845,0Z" transform="translate(-28.354 -51.554)" fill="#fff"/>
    <path id="パス_47911" data-name="パス 47911" d="M71.422,41.689a1.422,1.422,0,0,0,1.422-1.422V37.422a1.422,1.422,0,1,0-2.845,0v2.845A1.422,1.422,0,0,0,71.422,41.689Z" transform="translate(-28.354)" fill="#fff"/>
    <path id="パス_47912" data-name="パス 47912" d="M30.267,82.845a1.422,1.422,0,0,0,0-2.845H27.422a1.422,1.422,0,1,0,0,2.845Z" transform="translate(0 -28.354)" fill="#fff"/>
    <path id="パス_47913" data-name="パス 47913" d="M106,81.422a1.422,1.422,0,0,0,1.422,1.422h2.845a1.422,1.422,0,0,0,0-2.845h-2.845A1.422,1.422,0,0,0,106,81.422Z" transform="translate(-51.554 -28.354)" fill="#fff"/>
    <path id="パス_47914" data-name="パス 47914" d="M41.316,105.872,39.3,107.884a1.422,1.422,0,1,0,2.011,2.011l2.012-2.012a1.422,1.422,0,1,0-2.011-2.011Z" transform="translate(-8.305 -44.758)" fill="#fff"/>
    <path id="パス_47915" data-name="パス 47915" d="M96.878,53.744a1.418,1.418,0,0,0,1.006-.417L99.9,51.315A1.422,1.422,0,1,0,97.884,49.3l-2.012,2.012a1.422,1.422,0,0,0,1.006,2.428Z" transform="translate(-44.759 -8.305)" fill="#fff"/>
    <path id="パス_47916" data-name="パス 47916" d="M41.316,53.327a1.422,1.422,0,0,0,2.011-2.011L41.315,49.3A1.422,1.422,0,1,0,39.3,51.315Z" transform="translate(-8.305 -8.305)" fill="#fff"/>
    <path id="パス_47917" data-name="パス 47917" d="M95.872,105.872a1.422,1.422,0,0,0,0,2.011l2.012,2.012a1.422,1.422,0,1,0,2.011-2.011l-2.012-2.012A1.421,1.421,0,0,0,95.872,105.872Z" transform="translate(-44.759 -44.758)" fill="#fff"/>
    <path id="パス_47918" data-name="パス 47918" d="M116.466,113.535l-14.223-18.49a1.422,1.422,0,0,0-1.127-.555h-20.2l-2.561-3.328V85.956h7.112a1.422,1.422,0,0,0,1.422-1.422V77.422A1.422,1.422,0,0,0,85.471,76H76.937a1.422,1.422,0,0,0-1.422,1.422v13.74L72.954,94.49h-20.2a1.421,1.421,0,0,0-1.127.555l-14.223,18.49a1.422,1.422,0,0,0,1.127,2.29H42.8V140H31.422a1.422,1.422,0,1,0,0,2.845h82.495a1.422,1.422,0,0,0,0-2.845h-2.845V115.825h4.267a1.422,1.422,0,0,0,1.127-2.29ZM78.359,78.845h5.689v4.267H78.359V78.845Zm-24.9,18.49H70.766L58.731,112.98H41.422ZM84.048,140H78.359v-9.956h5.689Zm-8.534,0H69.825v-9.956h5.689Zm32.713,0H86.893V128.626a1.422,1.422,0,0,0-1.422-1.422H68.4a1.422,1.422,0,0,0-1.422,1.422V140H45.646V115.825H59.431a1.421,1.421,0,0,0,1.127-.555L76.937,93.978,93.315,115.27a1.422,1.422,0,0,0,1.127.555h13.785ZM95.142,112.98,83.107,97.335h17.309l12.035,15.646Z" transform="translate(-2.578 -25.777)" fill="#fff"/>
    <path id="パス_47919" data-name="パス 47919" d="M85.112,192H79.422A1.422,1.422,0,0,0,78,193.422v5.689a1.422,1.422,0,0,0,1.422,1.422h5.689a1.422,1.422,0,0,0,1.422-1.422v-5.689A1.422,1.422,0,0,0,85.112,192Zm-1.422,5.689H80.845v-2.845h2.845Z" transform="translate(-33.51 -100.53)" fill="#fff"/>
    <path id="パス_47920" data-name="パス 47920" d="M113.112,192h-5.689A1.422,1.422,0,0,0,106,193.422v5.689a1.422,1.422,0,0,0,1.422,1.422h5.689a1.422,1.422,0,0,0,1.422-1.422v-5.689A1.422,1.422,0,0,0,113.112,192Zm-1.422,5.689h-2.845v-2.845h2.845Z" transform="translate(-51.554 -100.53)" fill="#fff"/>
    <path id="パス_47921" data-name="パス 47921" d="M152.49,192H135.422A1.422,1.422,0,0,0,134,193.422v5.689a1.422,1.422,0,0,0,1.422,1.422H152.49a1.422,1.422,0,0,0,1.422-1.422v-5.689A1.422,1.422,0,0,0,152.49,192Zm-1.422,5.689H136.845v-2.845h14.223Z" transform="translate(-69.597 -100.53)" fill="#fff"/>
    <path id="パス_47922" data-name="パス 47922" d="M143.422,172.534H154.8a1.422,1.422,0,0,0,1.422-1.422v-5.689A1.422,1.422,0,0,0,154.8,164H143.422A1.422,1.422,0,0,0,142,165.422v5.689A1.422,1.422,0,0,0,143.422,172.534Zm1.422-5.689h8.534v2.845h-8.534Z" transform="translate(-74.753 -82.486)" fill="#fff"/>
    <path id="パス_47923" data-name="パス 47923" d="M85.112,220H79.422A1.422,1.422,0,0,0,78,221.422v5.689a1.422,1.422,0,0,0,1.422,1.422h5.689a1.422,1.422,0,0,0,1.422-1.422v-5.689A1.422,1.422,0,0,0,85.112,220Zm-1.422,5.689H80.845v-2.845h2.845Z" transform="translate(-33.51 -118.573)" fill="#fff"/>
    <path id="パス_47924" data-name="パス 47924" d="M113.112,220h-5.689A1.422,1.422,0,0,0,106,221.422v5.689a1.422,1.422,0,0,0,1.422,1.422h5.689a1.422,1.422,0,0,0,1.422-1.422v-5.689A1.422,1.422,0,0,0,113.112,220Zm-1.422,5.689h-2.845v-2.845h2.845Z" transform="translate(-51.554 -118.573)" fill="#fff"/>
    <path id="パス_47925" data-name="パス 47925" d="M194,193.422v5.689a1.422,1.422,0,0,0,1.422,1.422h5.689a1.422,1.422,0,0,0,1.422-1.422v-5.689A1.422,1.422,0,0,0,201.112,192h-5.689A1.422,1.422,0,0,0,194,193.422Zm2.845,1.422h2.845v2.845h-2.845Z" transform="translate(-108.263 -100.53)" fill="#fff"/>
    <path id="パス_47926" data-name="パス 47926" d="M223.422,200.534h5.689a1.422,1.422,0,0,0,1.422-1.422v-5.689A1.422,1.422,0,0,0,229.112,192h-5.689A1.422,1.422,0,0,0,222,193.422v5.689A1.422,1.422,0,0,0,223.422,200.534Zm1.422-5.689h2.845v2.845h-2.845Z" transform="translate(-126.306 -100.53)" fill="#fff"/>
    <path id="パス_47927" data-name="パス 47927" d="M201.112,220h-5.689A1.422,1.422,0,0,0,194,221.422v5.689a1.422,1.422,0,0,0,1.422,1.422h5.689a1.422,1.422,0,0,0,1.422-1.422v-5.689A1.422,1.422,0,0,0,201.112,220Zm-1.422,5.689h-2.845v-2.845h2.845Z" transform="translate(-108.263 -118.573)" fill="#fff"/>
    <path id="パス_47928" data-name="パス 47928" d="M223.422,228.534h5.689a1.422,1.422,0,0,0,1.422-1.422v-5.689A1.422,1.422,0,0,0,229.112,220h-5.689A1.422,1.422,0,0,0,222,221.422v5.689A1.422,1.422,0,0,0,223.422,228.534Zm1.422-5.689h2.845v2.845h-2.845Z" transform="translate(-126.306 -118.573)" fill="#fff"/>
  </g>
</svg>
