<svg xmlns="http://www.w3.org/2000/svg" xmlns:xlink="http://www.w3.org/1999/xlink" width="86.16" height="86.16" viewBox="0 0 86.16 86.16">
  <defs>
    <clipPath id="clip-path">
      <path id="path3972" d="M0-682.665H86.16v86.16H0Z" transform="translate(0 682.665)" fill="#fff"/>
    </clipPath>
  </defs>
  <g id="g3966" transform="translate(0 682.665)">
    <g id="g3968" transform="translate(0 -682.665)">
      <g id="g3970" clip-path="url(#clip-path)">
        <g id="g3976" transform="translate(6.731 48.297)">
          <path id="path3978" d="M-11.65,0A1.683,1.683,0,0,1-9.968,1.683,1.683,1.683,0,0,1-11.65,3.366a1.683,1.683,0,0,1-1.683-1.683A1.683,1.683,0,0,1-11.65,0" transform="translate(13.333 0)" fill="#fff"/>
        </g>
        <g id="g3980" transform="translate(1.683 43.248)">
          <path id="path3982" d="M-93.2-186.478a3.365,3.365,0,0,1-3.366,3.356h-10.1v-30.291h10.1a3.365,3.365,0,0,1,3.366,3.366Z" transform="translate(106.666 213.413)" fill="none" stroke="#fff" stroke-linecap="round" stroke-linejoin="round" stroke-miterlimit="10" stroke-width="4.5"/>
        </g>
        <g id="g3984" transform="translate(15.145 55.409)">
          <path id="path3986" d="M-291.332-51.365l20.678-7.108a4.855,4.855,0,0,1,5.934,2.018,4.845,4.845,0,0,1-2.381,6.913L-298.545-35.7a19.775,19.775,0,0,1-8.187,1.775,19.77,19.77,0,0,1-10.174-2.819l-8.8-5.281a18.125,18.125,0,0,0-7.706-1.988" transform="translate(333.413 58.784)" fill="none" stroke="#fff" stroke-linecap="round" stroke-linejoin="round" stroke-miterlimit="10" stroke-width="4.5"/>
        </g>
        <g id="g3988" transform="translate(15.145 46.614)">
          <path id="path3990" d="M0,0H13.323a10.082,10.082,0,0,1,4.951,1.3l8.892,5a3.358,3.358,0,0,0,1.651.432h10.9a5.048,5.048,0,0,1,0,10.1H22.607" fill="none" stroke="#fff" stroke-linecap="round" stroke-linejoin="round" stroke-miterlimit="10" stroke-width="4.5"/>
        </g>
        <g id="g3992" transform="translate(28.6 5.873)">
          <path id="path3994" d="M0-56.05a10.767,10.767,0,0,1,10.391-8.1c8.3,0,10.921,9.466,10.921,9.466s2.622-9.466,10.923-9.466c6.465,0,10.921,5.427,10.921,11.855,0,8.507-8.02,14.2-21.643,26.008C13.308-33.4,6.652-38.366,2.875-43.314" transform="translate(0 64.147)" fill="none" stroke="#fff" stroke-linecap="round" stroke-linejoin="round" stroke-miterlimit="10" stroke-width="4.5"/>
        </g>
        <g id="g3996" transform="translate(26.757 19.016)">
          <path id="path3998" d="M-11.65,0A1.683,1.683,0,0,1-9.968,1.683,1.683,1.683,0,0,1-11.65,3.366a1.683,1.683,0,0,1-1.683-1.683A1.683,1.683,0,0,1-11.65,0" transform="translate(13.333 0)" fill="#fff"/>
        </g>
      </g>
    </g>
  </g>
</svg>
