<svg xmlns="http://www.w3.org/2000/svg" xmlns:xlink="http://www.w3.org/1999/xlink" width="81.409" height="81.409" viewBox="0 0 81.409 81.409">
  <defs>
    <clipPath id="clip-path">
      <path id="path7959" d="M0-682.665H81.409v81.409H0Z" transform="translate(0 682.665)" fill="#fff"/>
    </clipPath>
  </defs>
  <g id="g7953" transform="translate(0 682.665)">
    <g id="g7955" transform="translate(0 -682.665)">
      <g id="g7957" clip-path="url(#clip-path)">
        <g id="g7963" transform="translate(15.196 31.657)">
          <path id="path7965" d="M0,0A6.043,6.043,0,0,0,7.928,0" fill="none" stroke="#fff" stroke-linecap="round" stroke-linejoin="round" stroke-miterlimit="10" stroke-width="2.5"/>
        </g>
        <g id="g7967" transform="translate(25.39 25.55)">
          <path id="path7969" d="M0,0V1.625" transform="translate(0)" fill="none" stroke="#fff" stroke-linecap="round" stroke-linejoin="round" stroke-miterlimit="10" stroke-width="2.5"/>
        </g>
        <g id="g7971" transform="translate(12.929 25.55)">
          <path id="path7973" d="M0,0V1.625" transform="translate(0)" fill="none" stroke="#fff" stroke-linecap="round" stroke-linejoin="round" stroke-miterlimit="10" stroke-width="2.5"/>
        </g>
        <g id="g7975" transform="translate(34.405 15.799)">
          <path id="path7977" d="M-5.571-48.806v-3.726a5.883,5.883,0,0,0-.754-2.882" transform="translate(6.325 55.415)" fill="none" stroke="#fff" stroke-linecap="round" stroke-linejoin="round" stroke-miterlimit="10" stroke-width="2.5"/>
        </g>
        <g id="g7979" transform="translate(3.194 1.548)">
          <path id="path7981" d="M0-154.059v-8.3a4.316,4.316,0,0,1,4.328-4.316h0a4.319,4.319,0,0,0,3.37-1.585c1.945-2.4,6.725-6.662,16.123-6.662h.952a2.371,2.371,0,0,1,2.371,2.371h0a1.084,1.084,0,0,0,1.476,1.01h0a4.763,4.763,0,0,1,6.14,2.648l.078.193a4.974,4.974,0,0,1-1.366,5.643,20.57,20.57,0,0,1-13.621,4.866H8.092A1.6,1.6,0,0,0,6.5-156.6v.721a1.59,1.59,0,0,1-1.59,1.59H3.166" transform="translate(0 174.918)" fill="none" stroke="#fff" stroke-linecap="round" stroke-linejoin="round" stroke-miterlimit="10" stroke-width="2.5"/>
        </g>
        <g id="g7983" transform="translate(28.658 17.802)">
          <path id="path7985" d="M0,0V2.789a1.59,1.59,0,0,0,1.59,1.59H3.3" fill="none" stroke="#fff" stroke-linecap="round" stroke-linejoin="round" stroke-miterlimit="10" stroke-width="2.5"/>
        </g>
        <g id="g7987" transform="translate(45.719 47.229)">
          <path id="path7989" d="M-61.888,0a16.6,16.6,0,0,0-8.38,14.43v1.961" transform="translate(70.268)" fill="none" stroke="#fff" stroke-linecap="round" stroke-linejoin="round" stroke-miterlimit="10" stroke-width="2.5"/>
        </g>
        <g id="g7991" transform="translate(70.55 47.224)">
          <path id="path7993" d="M-61.952-121.1v-1.961a16.6,16.6,0,0,0-8.388-14.435" transform="translate(70.34 137.494)" fill="none" stroke="#fff" stroke-linecap="round" stroke-linejoin="round" stroke-miterlimit="10" stroke-width="2.5"/>
        </g>
        <g id="g7995" transform="translate(49.529 54.14)">
          <path id="path7997" d="M0-70.46H3.26A9.54,9.54,0,0,0,12.8-80a9.54,9.54,0,0,0,9.54,9.54H25.6" transform="translate(0 80)" fill="none" stroke="#fff" stroke-linecap="round" stroke-linejoin="round" stroke-miterlimit="10" stroke-width="2.5"/>
        </g>
        <g id="g7999" transform="translate(69.364 69.75)">
          <path id="path8001" d="M0-64.454H6.393a3.18,3.18,0,0,0,3.18-3.18v-5.547" transform="translate(0 73.181)" fill="none" stroke="#fff" stroke-linecap="round" stroke-linejoin="round" stroke-miterlimit="10" stroke-width="2.5"/>
        </g>
        <g id="g8003" transform="translate(45.719 69.75)">
          <path id="path8005" d="M0,0V5.547a3.18,3.18,0,0,0,3.18,3.18H9.494" fill="none" stroke="#fff" stroke-linecap="round" stroke-linejoin="round" stroke-miterlimit="10" stroke-width="2.5"/>
        </g>
        <g id="g8007" transform="translate(59.513 44.653)">
          <path id="path8009" d="M-20.791-41.583h0A2.815,2.815,0,0,0-17.976-44.4h0a2.815,2.815,0,0,0-2.815-2.815h0A2.815,2.815,0,0,0-23.607-44.4h0A2.815,2.815,0,0,0-20.791-41.583Z" transform="translate(23.607 47.213)" fill="none" stroke="#fff" stroke-linecap="round" stroke-linejoin="round" stroke-miterlimit="10" stroke-width="2.5"/>
        </g>
        <g id="g8011" transform="translate(54.226 43.443)">
          <path id="path8013" d="M-43.315-43.405l-2.775,1.881a1.55,1.55,0,0,1-2.308-.591,6.709,6.709,0,0,1,0-6.285,1.55,1.55,0,0,1,2.308-.591l2.8,1.9" transform="translate(49.179 49.282)" fill="none" stroke="#fff" stroke-linecap="round" stroke-linejoin="round" stroke-miterlimit="10" stroke-width="2.5"/>
        </g>
        <g id="g8015" transform="translate(64.569 43.443)">
          <path id="path8017" d="M0-43.42,2.772-41.54a1.55,1.55,0,0,0,2.308-.591,6.709,6.709,0,0,0,0-6.285,1.55,1.55,0,0,0-2.308-.591L.026-47.146" transform="translate(0 49.299)" fill="none" stroke="#fff" stroke-linecap="round" stroke-linejoin="round" stroke-miterlimit="10" stroke-width="2.5"/>
        </g>
        <g id="g8019" transform="translate(45.719 5.571)">
          <path id="path8021" d="M0-126.463v-5.862a11.261,11.261,0,0,1,11.261-11.261h10.7a11.261,11.261,0,0,1,11.261,11.261v5.751" transform="translate(0 143.586)" fill="none" stroke="#fff" stroke-linecap="round" stroke-linejoin="round" stroke-miterlimit="10" stroke-width="2.5"/>
        </g>
        <g id="g8023" transform="translate(68.529 18.329)">
          <path id="path8025" d="M0,0H1.5a1.59,1.59,0,0,1,1.59,1.59v.671a1.59,1.59,0,0,0,1.59,1.59H6.6" fill="none" stroke="#fff" stroke-linecap="round" stroke-linejoin="round" stroke-miterlimit="10" stroke-width="2.5"/>
        </g>
        <g id="g8027" transform="translate(49.529 18.329)">
          <path id="path8029" d="M0-28.446H1.66a1.725,1.725,0,0,0,1.689-1.731v-.531a1.59,1.59,0,0,1,1.59-1.59h8.5" transform="translate(0 32.297)" fill="none" stroke="#fff" stroke-linecap="round" stroke-linejoin="round" stroke-miterlimit="10" stroke-width="2.5"/>
        </g>
        <g id="g8031" transform="translate(69.921 28.394)">
          <path id="path8033" d="M0-61.127H5.837a3.18,3.18,0,0,0,3.18-3.18v-5.1" transform="translate(0 69.404)" fill="none" stroke="#fff" stroke-linecap="round" stroke-linejoin="round" stroke-miterlimit="10" stroke-width="2.5"/>
        </g>
        <g id="g8035" transform="translate(45.719 28.394)">
          <path id="path8037" d="M0,0V5.1a3.18,3.18,0,0,0,3.18,3.18H9.017" fill="none" stroke="#fff" stroke-linecap="round" stroke-linejoin="round" stroke-miterlimit="10" stroke-width="2.5"/>
        </g>
        <g id="g8039" transform="translate(49.529 63.68)">
          <path id="path8041" d="M0,0V3.8A12.763,12.763,0,0,0,12.766,16.536h.051A12.778,12.778,0,0,0,25.6,3.8V0" fill="none" stroke="#fff" stroke-linecap="round" stroke-linejoin="round" stroke-miterlimit="10" stroke-width="2.5"/>
        </g>
        <g id="g8043" transform="translate(75.049 63.68)">
          <path id="path8045" d="M-.587,0H1.133A3.334,3.334,0,0,1,4.5,3.275V3.245A3.333,3.333,0,0,1,1.133,6.519h-1.8" transform="translate(0.667)" fill="none" stroke="#fff" stroke-linecap="round" stroke-linejoin="round" stroke-miterlimit="10" stroke-width="2.5"/>
        </g>
        <g id="g8047" transform="translate(44.441 63.68)">
          <path id="path8049" d="M-37.579,0H-39.3a3.334,3.334,0,0,0-3.367,3.275V3.245A3.333,3.333,0,0,0-39.3,6.519h1.8" transform="translate(42.667)" fill="none" stroke="#fff" stroke-linecap="round" stroke-linejoin="round" stroke-miterlimit="10" stroke-width="2.5"/>
        </g>
        <g id="g8051" transform="translate(58.364 73.033)">
          <path id="path8053" d="M0,0A6.043,6.043,0,0,0,7.928,0" fill="none" stroke="#fff" stroke-linecap="round" stroke-linejoin="round" stroke-miterlimit="10" stroke-width="2.5"/>
        </g>
        <g id="g8055" transform="translate(68.559 66.925)">
          <path id="path8057" d="M0,0V1.625" transform="translate(0)" fill="none" stroke="#fff" stroke-linecap="round" stroke-linejoin="round" stroke-miterlimit="10" stroke-width="2.5"/>
        </g>
        <g id="g8059" transform="translate(56.098 66.925)">
          <path id="path8061" d="M0,0V1.625" transform="translate(0)" fill="none" stroke="#fff" stroke-linecap="round" stroke-linejoin="round" stroke-miterlimit="10" stroke-width="2.5"/>
        </g>
        <g id="g8063" transform="translate(15.196 73.033)">
          <path id="path8065" d="M0,0A6.043,6.043,0,0,0,7.928,0" fill="none" stroke="#fff" stroke-linecap="round" stroke-linejoin="round" stroke-miterlimit="10" stroke-width="2.5"/>
        </g>
        <g id="g8067" transform="translate(25.39 66.925)">
          <path id="path8069" d="M0,0V1.625" transform="translate(0)" fill="none" stroke="#fff" stroke-linecap="round" stroke-linejoin="round" stroke-miterlimit="10" stroke-width="2.5"/>
        </g>
        <g id="g8071" transform="translate(12.929 66.925)">
          <path id="path8073" d="M0,0V1.625" transform="translate(0)" fill="none" stroke="#fff" stroke-linecap="round" stroke-linejoin="round" stroke-miterlimit="10" stroke-width="2.5"/>
        </g>
        <g id="g8075" transform="translate(35.143 59.064)">
          <path id="path8077" d="M0-34.774v-4.708" transform="translate(0 39.483)" fill="none" stroke="#fff" stroke-linecap="round" stroke-linejoin="round" stroke-miterlimit="10" stroke-width="2.5"/>
        </g>
        <g id="g8079" transform="translate(6.36 59.184)">
          <path id="path8081" d="M-48.609,0V1.952a2.385,2.385,0,0,1-2.385,2.385h-4.2" transform="translate(55.191)" fill="none" stroke="#fff" stroke-linecap="round" stroke-linejoin="round" stroke-miterlimit="10" stroke-width="2.5"/>
        </g>
        <g id="g8083" transform="translate(3.177 59.078)">
          <path id="path8085" d="M0-34.752v-4.705" transform="translate(0 39.457)" fill="none" stroke="#fff" stroke-linecap="round" stroke-linejoin="round" stroke-miterlimit="10" stroke-width="2.5"/>
        </g>
        <g id="g8087" transform="translate(3.578 43.681)">
          <path id="path8089" d="M0-76.919v-2.465a7.95,7.95,0,0,1,7.95-7.95H23.214a7.973,7.973,0,0,1,7.95,7.95v2.465" transform="translate(0 87.333)" fill="none" stroke="#fff" stroke-linecap="round" stroke-linejoin="round" stroke-miterlimit="10" stroke-width="2.5"/>
        </g>
        <g id="g8091" transform="translate(1.193 54.14)">
          <path id="path8093" d="M-119.782,0h17.331a2.385,2.385,0,0,1,2.385,2.385v1.59a.8.8,0,0,1-.8.8H-135.2a.8.8,0,0,1-.795-.8V2.385A2.385,2.385,0,0,1-133.615,0h8.268" transform="translate(136)" fill="none" stroke="#fff" stroke-linecap="round" stroke-linejoin="round" stroke-miterlimit="10" stroke-width="2.5"/>
        </g>
        <g id="g8095" transform="translate(11.846 43.681)">
          <path id="path8097" d="M-40.452,0a5.5,5.5,0,0,0-5.477,5.5v4.955" transform="translate(45.929)" fill="none" stroke="#fff" stroke-linecap="round" stroke-linejoin="round" stroke-miterlimit="10" stroke-width="2.5"/>
        </g>
        <g id="g8099" transform="translate(20.997 43.681)">
          <path id="path8101" d="M-40.452-75.179v-4.7a5.481,5.481,0,0,0-5.477-5.481" transform="translate(45.929 85.358)" fill="none" stroke="#fff" stroke-linecap="round" stroke-linejoin="round" stroke-miterlimit="10" stroke-width="2.5"/>
        </g>
        <g id="g8103" transform="translate(25.349 59.003)">
          <path id="path8105" d="M0,0V2.133A2.385,2.385,0,0,0,2.385,4.518H6.611" fill="none" stroke="#fff" stroke-linecap="round" stroke-linejoin="round" stroke-miterlimit="10" stroke-width="2.5"/>
        </g>
        <g id="g8107" transform="translate(57.017 1.193)">
          <path id="path8109" d="M-78.462-29.66a4.379,4.379,0,0,0-4.364-4.016h-1.9a4.379,4.379,0,0,0-4.364,4.016" transform="translate(89.085 33.676)" fill="none" stroke="#fff" stroke-linecap="round" stroke-linejoin="round" stroke-miterlimit="10" stroke-width="2.5"/>
        </g>
        <g id="g8111" transform="translate(49.529 22.181)">
          <path id="path8113" d="M0,0V3.925A12.793,12.793,0,0,0,12.766,16.7h.051A12.808,12.808,0,0,0,25.6,3.925V0" fill="none" stroke="#fff" stroke-linecap="round" stroke-linejoin="round" stroke-miterlimit="10" stroke-width="2.5"/>
        </g>
        <g id="g8115" transform="translate(75.049 22.181)">
          <path id="path8117" d="M-.587,0H1.133A3.386,3.386,0,0,1,4.5,3.337v.018A3.374,3.374,0,0,1,1.133,6.678h-1.8" transform="translate(0.667)" fill="none" stroke="#fff" stroke-linecap="round" stroke-linejoin="round" stroke-miterlimit="10" stroke-width="2.5"/>
        </g>
        <g id="g8119" transform="translate(44.441 22.181)">
          <path id="path8121" d="M-37.579,0H-39.3a3.386,3.386,0,0,0-3.367,3.337v.018A3.374,3.374,0,0,0-39.3,6.678h1.8" transform="translate(42.667)" fill="none" stroke="#fff" stroke-linecap="round" stroke-linejoin="round" stroke-miterlimit="10" stroke-width="2.5"/>
        </g>
        <g id="g8123" transform="translate(58.364 31.657)">
          <path id="path8125" d="M0,0A6.043,6.043,0,0,0,7.928,0" fill="none" stroke="#fff" stroke-linecap="round" stroke-linejoin="round" stroke-miterlimit="10" stroke-width="2.5"/>
        </g>
        <g id="g8127" transform="translate(68.559 25.55)">
          <path id="path8129" d="M0,0V1.625" transform="translate(0)" fill="none" stroke="#fff" stroke-linecap="round" stroke-linejoin="round" stroke-miterlimit="10" stroke-width="2.5"/>
        </g>
        <g id="g8131" transform="translate(56.098 25.55)">
          <path id="path8133" d="M0,0V1.625" transform="translate(0)" fill="none" stroke="#fff" stroke-linecap="round" stroke-linejoin="round" stroke-miterlimit="10" stroke-width="2.5"/>
        </g>
        <g id="g8135" transform="translate(6.36 63.521)">
          <path id="path8137" d="M0,0V3.96A12.763,12.763,0,0,0,12.766,16.7h.051A12.778,12.778,0,0,0,25.6,3.96V0" fill="none" stroke="#fff" stroke-linecap="round" stroke-linejoin="round" stroke-miterlimit="10" stroke-width="2.5"/>
        </g>
        <g id="g8139" transform="translate(6.36 22.181)">
          <path id="path8141" d="M0,0V3.96A12.763,12.763,0,0,0,12.766,16.7h.051A12.778,12.778,0,0,0,25.6,3.96V0" fill="none" stroke="#fff" stroke-linecap="round" stroke-linejoin="round" stroke-miterlimit="10" stroke-width="2.5"/>
        </g>
        <g id="g8143" transform="translate(31.88 22.181)">
          <path id="path8145" d="M-.587,0H1.133A3.386,3.386,0,0,1,4.5,3.337v.018A3.374,3.374,0,0,1,1.133,6.678h-1.8" transform="translate(0.667)" fill="none" stroke="#fff" stroke-linecap="round" stroke-linejoin="round" stroke-miterlimit="10" stroke-width="2.5"/>
        </g>
        <g id="g8147" transform="translate(1.272 22.181)">
          <path id="path8149" d="M-37.579,0H-39.3a3.386,3.386,0,0,0-3.367,3.337v.018A3.374,3.374,0,0,0-39.3,6.678h1.8" transform="translate(42.667)" fill="none" stroke="#fff" stroke-linecap="round" stroke-linejoin="round" stroke-miterlimit="10" stroke-width="2.5"/>
        </g>
        <g id="g8151" transform="translate(31.88 63.521)">
          <path id="path8153" d="M-.587,0H1.133A3.386,3.386,0,0,1,4.5,3.337v.018A3.374,3.374,0,0,1,1.133,6.678h-1.8" transform="translate(0.667)" fill="none" stroke="#fff" stroke-linecap="round" stroke-linejoin="round" stroke-miterlimit="10" stroke-width="2.5"/>
        </g>
        <g id="g8155" transform="translate(1.272 63.521)">
          <path id="path8157" d="M-37.579,0H-39.3a3.386,3.386,0,0,0-3.367,3.337v.018A3.374,3.374,0,0,0-39.3,6.678h1.8" transform="translate(42.667)" fill="none" stroke="#fff" stroke-linecap="round" stroke-linejoin="round" stroke-miterlimit="10" stroke-width="2.5"/>
        </g>
      </g>
    </g>
  </g>
</svg>
