<svg xmlns="http://www.w3.org/2000/svg" xmlns:xlink="http://www.w3.org/1999/xlink" width="85" height="85" viewBox="0 0 85 85">
  <defs>
    <clipPath id="clip-path">
      <path id="path1176" d="M0-682.665H85v85H0Z" transform="translate(0 682.665)" fill="#fff"/>
    </clipPath>
  </defs>
  <g id="g1170" transform="translate(0 682.665)">
    <g id="g1172" transform="translate(0 -682.665)">
      <g id="g1174" clip-path="url(#clip-path)">
        <g id="g1180" transform="translate(14.428 1.246)">
          <path id="path1182" d="M-210.809-45.967a10.355,10.355,0,0,0-9.624-6.537,10.355,10.355,0,0,0-9.624,6.537H-233.7a7.085,7.085,0,0,0-7.085,7.085A7.085,7.085,0,0,0-233.7-31.8h26.543a7.085,7.085,0,0,0,7.085-7.085,7.085,7.085,0,0,0-7.085-7.085Z" transform="translate(240.79 52.504)" fill="none" stroke="#fff" stroke-linecap="round" stroke-linejoin="round" stroke-miterlimit="10" stroke-width="2.5"/>
        </g>
        <g id="g1184" transform="translate(30.548 7.363)">
          <path id="path1186" d="M-59.575-29.788a4.236,4.236,0,0,0-4.236-4.236,4.236,4.236,0,0,0-4.236,4.236,4.236,4.236,0,0,0,4.236,4.236A4.236,4.236,0,0,0-59.575-29.788Z" transform="translate(68.048 34.024)" fill="none" stroke="#fff" stroke-linecap="round" stroke-linejoin="round" stroke-miterlimit="10" stroke-width="2.5"/>
        </g>
        <g id="g1188" transform="translate(2.04 10.047)">
          <path id="path1190" d="M-99.992-518.264h-2.9a11.326,11.326,0,0,1-11.326-11.326v-51.058a11.325,11.325,0,0,1,11.326-11.324h2.955" transform="translate(114.213 591.972)" fill="none" stroke="#fff" stroke-linecap="round" stroke-linejoin="round" stroke-miterlimit="10" stroke-width="2.5"/>
        </g>
        <g id="g1192" transform="translate(21.242 40.302)">
          <path id="path1194" d="M-325.459,0V32.127a11.326,11.326,0,0,1-11.324,11.326h-34.963" transform="translate(371.746)" fill="none" stroke="#fff" stroke-linecap="round" stroke-linejoin="round" stroke-miterlimit="10" stroke-width="2.5"/>
        </g>
        <g id="g1196" transform="translate(53.249 10.047)">
          <path id="path1198" d="M0,0H2.955A11.324,11.324,0,0,1,14.247,10.482" fill="none" stroke="#fff" stroke-linecap="round" stroke-linejoin="round" stroke-miterlimit="10" stroke-width="2.5"/>
        </g>
        <g id="g1200" transform="translate(11.449 29.403)">
          <path id="path1202" d="M-80.684-110.288h-7.265a4.21,4.21,0,0,1-4.21-4.21v-7.265a4.21,4.21,0,0,1,4.21-4.21h7.265a4.21,4.21,0,0,1,4.21,4.21v7.265A4.21,4.21,0,0,1-80.684-110.288Z" transform="translate(92.158 125.973)" fill="none" stroke="#fff" stroke-linecap="round" stroke-linejoin="round" stroke-miterlimit="10" stroke-width="2.5"/>
        </g>
        <g id="g1204" transform="translate(15.572 34.022)">
          <path id="path1206" d="M0-23.8l2.9,3.522L7.244-27.18" transform="translate(0 27.18)" fill="none" stroke="#fff" stroke-linecap="round" stroke-linejoin="round" stroke-miterlimit="10" stroke-width="2.5"/>
        </g>
        <g id="g1208" transform="translate(32.695 34.098)">
          <path id="path1210" d="M0,0H19.4" transform="translate(0 0)" fill="none" stroke="#fff" stroke-linecap="round" stroke-linejoin="round" stroke-miterlimit="10" stroke-width="2.5"/>
        </g>
        <g id="g1212" transform="translate(32.695 40.394)">
          <path id="path1214" d="M0,0H9.7" transform="translate(0 0)" fill="none" stroke="#fff" stroke-linecap="round" stroke-linejoin="round" stroke-miterlimit="10" stroke-width="2.5"/>
        </g>
        <g id="g1216" transform="translate(11.449 53.111)">
          <path id="path1218" d="M-80.684-110.288h-7.265a4.21,4.21,0,0,1-4.21-4.21v-7.265a4.21,4.21,0,0,1,4.21-4.21h7.265a4.21,4.21,0,0,1,4.21,4.21v7.265A4.21,4.21,0,0,1-80.684-110.288Z" transform="translate(92.158 125.973)" fill="none" stroke="#fff" stroke-linecap="round" stroke-linejoin="round" stroke-miterlimit="10" stroke-width="2.5"/>
        </g>
        <g id="g1220" transform="translate(15.572 57.73)">
          <path id="path1222" d="M0-23.8l2.9,3.522L7.244-27.18" transform="translate(0 27.18)" fill="none" stroke="#fff" stroke-linecap="round" stroke-linejoin="round" stroke-miterlimit="10" stroke-width="2.5"/>
        </g>
        <g id="g1224" transform="translate(32.695 57.807)">
          <path id="path1226" d="M-72.246,0H-82.521" transform="translate(82.521 0)" fill="none" stroke="#fff" stroke-linecap="round" stroke-linejoin="round" stroke-miterlimit="10" stroke-width="2.5"/>
        </g>
        <g id="g1228" transform="translate(32.695 64.102)">
          <path id="path1230" d="M0,0H9.7" fill="none" stroke="#fff" stroke-linecap="round" stroke-linejoin="round" stroke-miterlimit="10" stroke-width="2.5"/>
        </g>
        <g id="g1232" transform="translate(65.979 21.795)">
          <path id="path1234" d="M0-117.913a4.006,4.006,0,0,0,1.169,1.473,4.051,4.051,0,0,0,5.686-.686l8.635-11.006a4.051,4.051,0,0,0-.686-5.686,4.027,4.027,0,0,0-2.937-.839" transform="translate(0 134.683)" fill="none" stroke="#fff" stroke-linecap="round" stroke-linejoin="round" stroke-miterlimit="10" stroke-width="2.5"/>
        </g>
        <g id="g1236" transform="translate(44.504 24.385)">
          <path id="path1238" d="M-195.793-42.6l-20.123,25.648-7.723-6.059,20.123-25.648" transform="translate(223.638 48.664)" fill="none" stroke="#fff" stroke-linecap="round" stroke-linejoin="round" stroke-miterlimit="10" stroke-width="2.5"/>
        </g>
        <g id="g1240" transform="translate(42.016 45.977)">
          <path id="path1242" d="M-94.174-42.609-98.8-36.717a4.908,4.908,0,0,1-6.892.832,4.908,4.908,0,0,1-.832-6.892l4.623-5.892" transform="translate(107.567 48.669)" fill="none" stroke="#fff" stroke-linecap="round" stroke-linejoin="round" stroke-miterlimit="10" stroke-width="2.5"/>
        </g>
        <g id="g1244" transform="translate(42.306 58.761)">
          <path id="path1246" d="M-11.17,0l-1.589,2.025" transform="translate(12.759)" fill="none" stroke="#fff" stroke-linecap="round" stroke-linejoin="round" stroke-miterlimit="10" stroke-width="2.5"/>
        </g>
        <g id="g1248" transform="translate(64.073 20.343)">
          <path id="path1250" d="M-76.413-41.555l-6.859-5.381a2.478,2.478,0,0,0-3.48.42h0a2.479,2.479,0,0,0,.42,3.48l6.858,5.381a2.479,2.479,0,0,0,3.48-.42h0A2.479,2.479,0,0,0-76.413-41.555Z" transform="translate(87.28 47.465)" fill="none" stroke="#fff" stroke-linecap="round" stroke-linejoin="round" stroke-miterlimit="10" stroke-width="2.5"/>
        </g>
        <g id="g1252" transform="translate(68.081 15.949)">
          <path id="path1254" d="M-32.276,0l-4.59,4.922" transform="translate(36.867)" fill="none" stroke="#fff" stroke-linecap="round" stroke-linejoin="round" stroke-miterlimit="10" stroke-width="2.5"/>
        </g>
        <g id="g1256" transform="translate(74.941 9.85)">
          <path id="path1258" d="M-7.9-17.288l1.341-1.438a3.2,3.2,0,0,1,2.346-1.021,3.2,3.2,0,0,1,1.981.686,3.208,3.208,0,0,1,.7,4.282L-9.027-3.343" transform="translate(9.027 19.747)" fill="none" stroke="#fff" stroke-linecap="round" stroke-linejoin="round" stroke-miterlimit="10" stroke-width="2.5"/>
        </g>
        <g id="g1260" transform="translate(48.366 34.718)">
          <path id="path1262" d="M0-128.985l14.393-18.344" transform="translate(0 147.329)" fill="none" stroke="#fff" stroke-linecap="round" stroke-linejoin="round" stroke-miterlimit="10" stroke-width="2.5"/>
        </g>
      </g>
    </g>
  </g>
</svg>
