<svg xmlns="http://www.w3.org/2000/svg" xmlns:xlink="http://www.w3.org/1999/xlink" width="141.984" height="141.984" viewBox="0 0 141.984 141.984">
  <defs>
    <clipPath id="clip-path">
      <path id="path6966" d="M0-682.665H141.984v141.984H0Z" transform="translate(0 682.665)" fill="#fff"/>
    </clipPath>
  </defs>
  <g id="g6960" transform="translate(0 682.665)">
    <g id="g6962" transform="translate(0 -682.665)">
      <g id="g6964" clip-path="url(#clip-path)">
        <g id="g6970" transform="translate(9.413 60.503)">
          <path id="path6972" d="M-74.275-148.551a19.5,19.5,0,0,1-19.5-19.5h0a19.5,19.5,0,0,1,19.5-19.5H19.911" transform="translate(93.78 187.561)" fill="none" stroke="#fff" stroke-linecap="round" stroke-linejoin="round" stroke-miterlimit="10" stroke-width="4"/>
        </g>
        <g id="g6974" transform="translate(55.74 90.714)">
          <path id="path6976" d="M0,0H65.423a4.4,4.4,0,0,1,0,8.8" fill="none" stroke="#fff" stroke-linecap="round" stroke-linejoin="round" stroke-miterlimit="10" stroke-width="4"/>
        </g>
        <g id="g6978" transform="translate(18.212 69.303)">
          <path id="path6980" d="M-392.04,0h-92.245a10.706,10.706,0,0,0-10.706,10.706,10.706,10.706,0,0,0,10.706,10.706h17.116" transform="translate(494.991)" fill="none" stroke="#fff" stroke-linecap="round" stroke-linejoin="round" stroke-miterlimit="10" stroke-width="4"/>
        </g>
        <g id="g6982" transform="translate(117.416 70.023)">
          <path id="path6984" d="M-7.564,0a26.092,26.092,0,0,0,0,19.971" transform="translate(9.55)" fill="none" stroke="#fff" stroke-linecap="round" stroke-linejoin="round" stroke-miterlimit="10" stroke-width="4"/>
        </g>
        <g id="g6986" transform="translate(124.911 108.968)">
          <path id="path6988" d="M-7.563,0a26.1,26.1,0,0,0,0,19.971" transform="translate(9.549)" fill="none" stroke="#fff" stroke-linecap="round" stroke-linejoin="round" stroke-miterlimit="10" stroke-width="4"/>
        </g>
        <g id="g6990" transform="translate(38.602 69.449)">
          <path id="path6992" d="M0,0V13.492L6.374,11l6.374,2.5V0" fill="none" stroke="#fff" stroke-linecap="round" stroke-linejoin="round" stroke-miterlimit="10" stroke-width="4"/>
        </g>
        <g id="g6994" transform="translate(2.08 99.513)">
          <path id="path6996" d="M-423.991-115.042h15.074a4.4,4.4,0,0,1,4.4,4.4,4.4,4.4,0,0,1-4.4,4.4H-515.827a19.5,19.5,0,0,1-19.5-19.5h0a19.5,19.5,0,0,1,19.5-19.5h106.911a4.4,4.4,0,0,1,4.4,4.4,4.4,4.4,0,0,1-4.4,4.4H-515.827a10.706,10.706,0,0,0-10.706,10.706,10.706,10.706,0,0,0,10.706,10.705h82.13" transform="translate(535.332 145.253)" fill="none" stroke="#fff" stroke-linecap="round" stroke-linejoin="round" stroke-miterlimit="10" stroke-width="4"/>
        </g>
        <g id="g6998" transform="translate(89.259 108.559)">
          <path id="path7000" d="M0,0V13.492L6.374,11l6.374,2.5V0" fill="none" stroke="#fff" stroke-linecap="round" stroke-linejoin="round" stroke-miterlimit="10" stroke-width="4"/>
        </g>
        <g id="g7002" transform="translate(49.868 3.461)">
          <path id="path7004" d="M0-21.152l14.559-5.04a9.355,9.355,0,0,1,6.121,0L79.153-5.95a2.288,2.288,0,0,1,0,4.324L56.358,6.266" transform="translate(0 26.707)" fill="none" stroke="#fff" stroke-linecap="round" stroke-linejoin="round" stroke-miterlimit="10" stroke-width="4"/>
        </g>
        <g id="g7006" transform="translate(4.414 12.25)">
          <path id="path7008" d="M-92.116-91.9l-22.65-7.841a2.288,2.288,0,0,1,0-4.324l34.574-11.969" transform="translate(116.306 116.038)" fill="none" stroke="#fff" stroke-linecap="round" stroke-linejoin="round" stroke-miterlimit="10" stroke-width="4"/>
        </g>
        <g id="g7010" transform="translate(130.561 26.764)">
          <path id="path7012" d="M0,0V16.266" transform="translate(0 0)" fill="none" stroke="#fff" stroke-linecap="round" stroke-linejoin="round" stroke-miterlimit="10" stroke-width="4"/>
        </g>
        <g id="g7014" transform="translate(121.217 54.389)">
          <path id="path7016" d="M-20.587,0l-5.12,12.621a3.819,3.819,0,0,0,3.5,5.271H-11.1a3.819,3.819,0,0,0,3.5-5.271L-12.706.016" transform="translate(25.994)" fill="none" stroke="#fff" stroke-linecap="round" stroke-linejoin="round" stroke-miterlimit="10" stroke-width="4"/>
        </g>
        <g id="g7018" transform="translate(124.268 43.031)">
          <path id="path7020" d="M-47.929-24.19a6.323,6.323,0,0,0-6.293-6.352,6.323,6.323,0,0,0-6.293,6.352,6.323,6.323,0,0,0,6.293,6.352A6.323,6.323,0,0,0-47.929-24.19Z" transform="translate(60.516 30.543)" fill="none" stroke="#fff" stroke-linecap="round" stroke-linejoin="round" stroke-miterlimit="10" stroke-width="4"/>
        </g>
        <g id="g7022" transform="translate(28.843 26.645)">
          <path id="path7024" d="M0-127.91v-27.311a3.119,3.119,0,0,1,2.568-3.07,204.392,204.392,0,0,1,72.152,0h0a3.119,3.119,0,0,1,2.568,3.07v27.311" transform="translate(0 161.499)" fill="none" stroke="#fff" stroke-linecap="round" stroke-linejoin="round" stroke-miterlimit="10" stroke-width="4"/>
        </g>
        <g id="g7026" transform="translate(91.236 49.178)">
          <path id="path7028" d="M0,0H14.9" fill="none" stroke="#fff" stroke-linecap="round" stroke-linejoin="round" stroke-miterlimit="10" stroke-width="4"/>
        </g>
        <g id="g7030" transform="translate(28.843 49.178)">
          <path id="path7032" d="M0,0H52.687" fill="none" stroke="#fff" stroke-linecap="round" stroke-linejoin="round" stroke-miterlimit="10" stroke-width="4"/>
        </g>
      </g>
    </g>
  </g>
</svg>
