<svg xmlns="http://www.w3.org/2000/svg" width="71.768" height="78.474" viewBox="0 0 71.768 78.474">
  <g id="playtime" transform="translate(-0.5)">
    <path id="パス_26203" data-name="パス 26203" d="M66.532,33.55c3.186-.169,5.736-3.388,5.736-7.32,0-3.587-2.122-6.581-4.912-7.208v-.936a5.221,5.221,0,0,0,.712-.842,1.151,1.151,0,0,0,.193-.739,18.043,18.043,0,0,0-18-16.5H45.272A18.059,18.059,0,0,0,27.2,18.007v.253a1.15,1.15,0,0,0,.45.912,5.747,5.747,0,0,0,1.385.775c.042.017.084.029.126.045v8.376c0,5.123,1.711,9.421,4.948,12.43a15.02,15.02,0,0,0,3.17,2.247A12.931,12.931,0,0,0,35.936,44.6a11.9,11.9,0,0,1-4.559.9c-.29,0-.579-.013-.866-.034V41.823a2.137,2.137,0,0,0-2.139-2.13H26.651a3.32,3.32,0,0,0-3.326-3.277H16.991a3.321,3.321,0,0,0-3.326,3.277H11.943A2.137,2.137,0,0,0,9.8,41.823V57.934H2.639A2.137,2.137,0,0,0,.5,60.064V76.343a2.137,2.137,0,0,0,2.139,2.13H44.276a1.131,1.131,0,0,0,.256-.029,4.4,4.4,0,0,0,2.417-1.056,4.4,4.4,0,0,0,2.413,1.055,1.126,1.126,0,0,0,.26.029H62.845A5.418,5.418,0,0,0,63.731,67.7V65.445a1.15,1.15,0,0,0-2.3,0V67.63H53.983a4.423,4.423,0,0,0-7.035-1.784,4.422,4.422,0,0,0-7.034,1.784h-.3V64.448a19.479,19.479,0,0,0,2.479.16A19.684,19.684,0,0,0,59.752,53.7,4.214,4.214,0,0,0,57.8,48.032a4.289,4.289,0,0,0-5.694,1.951,10.97,10.97,0,0,1-4.484,4.72,1.15,1.15,0,1,0,1.126,2.005A13.261,13.261,0,0,0,54.167,51a1.982,1.982,0,0,1,2.632-.9,1.915,1.915,0,0,1,.891,2.579,17.393,17.393,0,0,1-18.073,9.44v-.248a5.284,5.284,0,0,0,1.05-2.673,5.162,5.162,0,0,0,.016-.844,13.381,13.381,0,0,0,2.37.051,1.15,1.15,0,1,0-.158-2.294,11.015,11.015,0,0,1-2.982-.2c-.034-.054-.068-.109-.1-.163l-1.174-3.07a2.405,2.405,0,0,0-2.838-1.49,10.525,10.525,0,0,1,3.759-7.145,18.309,18.309,0,0,0,3.245.815,4.886,4.886,0,0,0,9.491.152,16.78,16.78,0,0,0,4.955-1.3,10.443,10.443,0,0,1,4.184,8.55v7.817a1.15,1.15,0,1,0,2.3,0V52.265a12.548,12.548,0,0,0-4.27-9.709A16.722,16.722,0,0,0,66.532,33.55Zm-18.8,35.6a2.114,2.114,0,0,1,4.211-.237,1.149,1.149,0,0,0,1.142,1.018h9.761a3.123,3.123,0,1,1,0,6.246H49.78c-.027,0-.054-.007-.081-.008a2.1,2.1,0,0,1-1.967-2.075Zm-8.114.781h1.2a1.149,1.149,0,0,0,1.142-1.018,2.119,2.119,0,0,1,3.7-1.122,4.329,4.329,0,0,0-.219,1.359v4.944a4.311,4.311,0,0,0,.219,1.355,2.116,2.116,0,0,1-1.452.72c-.028,0-.054,0-.081.008h-4.5Zm-9.106-22.16c.287.017.576.028.866.028a14.331,14.331,0,0,0,2.969-.313,13.371,13.371,0,0,0-.9,4.452,18.929,18.929,0,0,1-2.067.113c-.29,0-.578-.008-.866-.022ZM30.7,65.193a.827.827,0,0,1,.491.278l1.435,2.462a.788.788,0,0,1,0,.542l-1.435,2.461a.828.828,0,0,1-.491.278H27.829a.827.827,0,0,1-.492-.278L25.9,68.474a.786.786,0,0,1,0-.541l1.434-2.462a.827.827,0,0,1,.492-.278H30.7ZM16.991,38.715h6.334a1.019,1.019,0,0,1,1.026.978H15.965A1.019,1.019,0,0,1,16.991,38.715ZM12.1,41.991h16.11V57.934H12.1ZM18.91,76.175H2.8V60.233H18.91Zm18.409,0H21.209V60.233h7.754a2.3,2.3,0,0,0-.11.5l-.032.319a2.316,2.316,0,0,0,.636,1.837H27.829a3.038,3.038,0,0,0-2.478,1.42l-1.434,2.462a3,3,0,0,0,0,2.856l1.434,2.462a3.039,3.039,0,0,0,2.478,1.42H30.7a3.036,3.036,0,0,0,2.477-1.421l1.435-2.461a3,3,0,0,0,0-2.856l-1.434-2.462a2.626,2.626,0,0,0-.413-.526l1.945.2c.186.019.375.028.561.028a5.517,5.517,0,0,0,2.049-.392ZM35.9,55.093a1.15,1.15,0,0,0,.157-1.1l-.114-.3a.113.113,0,0,1,0-.089.114.114,0,0,1,.066-.061l.322-.122a.119.119,0,0,1,.042-.008.121.121,0,0,1,.111.08l1.224,3.2a1.131,1.131,0,0,0,.133.251,3.006,3.006,0,0,1,.537,2.027,3.083,3.083,0,0,1-3.111,2.742c-.11,0-.22-.006-.33-.017l-3.809-.383a.024.024,0,0,1-.022-.026l.032-.319a.025.025,0,0,1,.026-.022h0l2.751.277A1.149,1.149,0,0,0,35.177,60.2l.02-.2a1.149,1.149,0,0,0-1.029-1.26l-3.358-.338a.027.027,0,0,1-.021-.026l.032-.319c0-.017.019-.02.026-.022l3.358.338a1.15,1.15,0,0,0,1.259-1.029l.02-.2a1.15,1.15,0,0,0-1.029-1.259L31.705,55.6a.027.027,0,0,1-.022-.026l.032-.319c0-.017.019-.019.026-.021l3.119.314.029,0A1.147,1.147,0,0,0,35.9,55.093ZM47.565,46.36a2.583,2.583,0,0,1-2.228-1.268c.2.006.41.01.616.01h3.834A2.581,2.581,0,0,1,47.565,46.36Zm3-3.558H45.953c-8.8,0-14.491-5.666-14.491-14.435V20.324a5.669,5.669,0,0,0,3.3-1.54q.286-.256.562-.553a4.3,4.3,0,0,0,.241.627,3.893,3.893,0,0,0,2.507,2.07c1.871.547,3.761-.256,5.639-2.391a4.289,4.289,0,0,0,2.838,2.384,6.08,6.08,0,0,0,1.837.291c2.012,0,3.938-1.066,5.651-3.151a15.962,15.962,0,0,0,1.439-2.089,10.539,10.539,0,0,0,1.954,2.065,1.15,1.15,0,1,0,1.429-1.8,8.957,8.957,0,0,1-2.4-3.1,1.15,1.15,0,0,0-1.061-.706h-.01a1.152,1.152,0,0,0-1.059.724c-.028.069-2.813,6.927-7.087,5.579-1.054-.332-2.036-.991-1.34-3.364a1.15,1.15,0,0,0-2.089-.914c-1.866,3.114-3.722,4.673-5.1,4.271a1.6,1.6,0,0,1-1.079-.858,5.167,5.167,0,0,1,.379-3.85,1.15,1.15,0,0,0-2.1-.934c-2.856,5.989-5.248,5.042-6.034,4.73a3.921,3.921,0,0,1-.378-.174A15.76,15.76,0,0,1,45.272,2.3h4.987A15.832,15.832,0,0,1,65.928,16.261a2.794,2.794,0,0,1-1.2.794,7.86,7.86,0,0,1-1.4.362,1.15,1.15,0,0,0,.359,2.271,10.006,10.006,0,0,0,1.364-.319v.684a1.149,1.149,0,0,0,1.15,1.15c.023,0,.046,0,.074,0,2.035.009,3.689,2.261,3.689,5.029s-1.66,5.029-3.7,5.029a2.688,2.688,0,0,1-.41-.032,1.149,1.149,0,0,0-1.284.841A14.489,14.489,0,0,1,50.564,42.8Zm0,0" fill="#fff"/>
    <path id="パス_26204" data-name="パス 26204" d="M343.825,156.6a1.149,1.149,0,0,0-1.15,1.15v1.885a1.15,1.15,0,0,0,2.3,0v-1.885A1.149,1.149,0,0,0,343.825,156.6Zm0,0" transform="translate(-289.731 -132.596)" fill="#fff"/>
    <path id="パス_26205" data-name="パス 26205" d="M233.009,156.6a1.149,1.149,0,0,0-1.15,1.15v1.885a1.15,1.15,0,0,0,2.3,0v-1.885A1.149,1.149,0,0,0,233.009,156.6Zm0,0" transform="translate(-195.899 -132.596)" fill="#fff"/>
    <path id="パス_26206" data-name="パス 26206" d="M284.3,169.753h.745a1.15,1.15,0,0,0,0-2.3H284.7v-1.066a1.15,1.15,0,0,0-2.3,0v1.449A1.907,1.907,0,0,0,284.3,169.753Zm0,0" transform="translate(-238.695 -139.912)" fill="#fff"/>
    <path id="パス_26207" data-name="パス 26207" d="M265.3,206.566h-8.548a2.137,2.137,0,0,0-2.139,2.13,6.413,6.413,0,0,0,12.826,0A2.138,2.138,0,0,0,265.3,206.566Zm-4.274,6.2a4.1,4.1,0,0,1-4.111-3.9h8.222A4.1,4.1,0,0,1,261.03,212.763Zm0,0" transform="translate(-215.169 -174.906)" fill="#fff"/>
    <path id="パス_26208" data-name="パス 26208" d="M100.527,292.182l-2.015-.288-.9-1.793a1.717,1.717,0,0,0-3.067,0l-.9,1.794-2.017.289a1.7,1.7,0,0,0-.944,2.914l1.448,1.391-.341,1.96a1.713,1.713,0,0,0,2.479,1.8l1.806-.936,1.8.933a1.722,1.722,0,0,0,.8.2,1.709,1.709,0,0,0,1.688-2l-.341-1.96,1.447-1.39a1.7,1.7,0,0,0-.945-2.916Zm-2.536,3.072a1.147,1.147,0,0,0-.336,1.026l.241,1.388L96.61,297a1.15,1.15,0,0,0-1.057,0l-1.287.667.241-1.388a1.15,1.15,0,0,0-.336-1.026l-1.008-.967,1.408-.2a1.151,1.151,0,0,0,.865-.623l.645-1.288.645,1.288a1.15,1.15,0,0,0,.865.623l1.408.2Zm0,0" transform="translate(-75.923 -244.838)" fill="#fff"/>
    <path id="パス_26209" data-name="パス 26209" d="M31.9,420.271a1.623,1.623,0,0,0,2.266,0l4.114-4.025a3.613,3.613,0,0,0,0-5.18,3.748,3.748,0,0,0-5.223,0l-.024.023L33,411.068a3.748,3.748,0,0,0-5.223,0,3.614,3.614,0,0,0,0,5.181Zm-2.507-7.56a1.448,1.448,0,0,1,2.009,0l.827.809a1.151,1.151,0,0,0,1.608,0l.827-.809a1.448,1.448,0,0,1,2.009,0,1.316,1.316,0,0,1,0,1.893l-3.64,3.559-3.64-3.559a1.316,1.316,0,0,1,0-1.893Zm0,0" transform="translate(-22.174 -347.166)" fill="#fff"/>
    <path id="パス_26210" data-name="パス 26210" d="M422.607,160.259a1.143,1.143,0,0,0,.545-.138c2.455-1.327,2.054-4.106,1.5-5.39a1.15,1.15,0,0,0-2.11.912c.032.072.756,1.787-.481,2.455a1.15,1.15,0,0,0,.548,2.161Zm0,0" transform="translate(-356.436 -130.427)" fill="#fff"/>
  </g>
</svg>
