<svg xmlns="http://www.w3.org/2000/svg" width="46.387" height="81.859" viewBox="0 0 46.387 81.859">
  <g id="smartphone_1_" data-name="smartphone (1)" transform="translate(-110.933)">
    <g id="グループ_12576" data-name="グループ 12576" transform="translate(125.941 4.093)">
      <g id="グループ_12575" data-name="グループ 12575" transform="translate(0)">
        <path id="パス_47902" data-name="パス 47902" d="M219.808,25.6H206.165a1.364,1.364,0,1,0,0,2.729h13.643a1.364,1.364,0,0,0,0-2.729Z" transform="translate(-204.801 -25.6)" fill="#fff"/>
      </g>
    </g>
    <g id="グループ_12578" data-name="グループ 12578" transform="translate(147.77 4.093)">
      <g id="グループ_12577" data-name="グループ 12577">
        <path id="パス_47903" data-name="パス 47903" d="M344.063,25.6H342.7a1.364,1.364,0,0,0,0,2.729h1.364a1.364,1.364,0,0,0,0-2.729Z" transform="translate(-341.334 -25.6)" fill="#fff"/>
      </g>
    </g>
    <g id="グループ_12580" data-name="グループ 12580" transform="translate(128.669 69.58)">
      <g id="グループ_12579" data-name="グループ 12579" transform="translate(0)">
        <path id="パス_47904" data-name="パス 47904" d="M229.019,435.2h-3.388a3.769,3.769,0,0,0-3.764,3.764v.659a3.767,3.767,0,0,0,3.763,3.763h3.388a3.768,3.768,0,0,0,3.764-3.763v-.659A3.769,3.769,0,0,0,229.019,435.2Zm1.034,4.423a1.035,1.035,0,0,1-1.034,1.034h-3.388a1.036,1.036,0,0,1-1.036-1.034v-.659a1.036,1.036,0,0,1,1.036-1.035h3.386a1.036,1.036,0,0,1,1.036,1.035Z" transform="translate(-221.867 -435.2)" fill="#fff"/>
      </g>
    </g>
    <g id="グループ_12582" data-name="グループ 12582" transform="translate(110.933)">
      <g id="グループ_12581" data-name="グループ 12581" transform="translate(0)">
        <path id="パス_47905" data-name="パス 47905" d="M152.389,0H115.865a4.938,4.938,0,0,0-4.932,4.932v72a4.938,4.938,0,0,0,4.932,4.932h36.523a4.938,4.938,0,0,0,4.932-4.931v-72A4.938,4.938,0,0,0,152.389,0Zm2.2,76.927a2.206,2.206,0,0,1-2.2,2.2H115.865a2.206,2.206,0,0,1-2.2-2.2v-72a2.206,2.206,0,0,1,2.2-2.2h36.523a2.206,2.206,0,0,1,2.2,2.2v72Z" transform="translate(-110.933)" fill="#fff"/>
      </g>
    </g>
    <g id="グループ_12584" data-name="グループ 12584" transform="translate(110.933 8.186)">
      <g id="グループ_12583" data-name="グループ 12583" transform="translate(0)">
        <path id="パス_47906" data-name="パス 47906" d="M155.956,51.2H112.3a1.365,1.365,0,0,0-1.364,1.364v57.3a1.365,1.365,0,0,0,1.364,1.364h43.658a1.365,1.365,0,0,0,1.364-1.364v-57.3A1.365,1.365,0,0,0,155.956,51.2Zm-1.364,57.3h-40.93V53.929h40.93Z" transform="translate(-110.934 -51.2)" fill="#fff"/>
      </g>
    </g>
  </g>
</svg>
