<svg xmlns="http://www.w3.org/2000/svg" xmlns:xlink="http://www.w3.org/1999/xlink" width="54" height="54" viewBox="0 0 54 54">
  <defs>
    <clipPath id="clip-path">
      <path id="path2817" d="M0-682.665H54v54H0Z" transform="translate(0 682.665)"/>
    </clipPath>
  </defs>
  <g id="g2811" transform="translate(0 682.665)">
    <g id="g2813" transform="translate(0 -682.665)">
      <g id="g2815" transform="translate(0 0)" clip-path="url(#clip-path)">
        <g id="g2821" transform="translate(29.342 1.911)">
          <path id="path2823" d="M-159.356-221.655l1.372,1.569a1.568,1.568,0,0,0,2.747-1.032v-2.639h.684a5.135,5.135,0,0,0,5.135-5.135v-6.667a5.135,5.135,0,0,0-5.135-5.135h-13.357a5.135,5.135,0,0,0-5.135,5.135v5.409" transform="translate(173.044 240.694)" fill="none" stroke="#000" stroke-linecap="round" stroke-linejoin="round" stroke-miterlimit="10" stroke-width="2"/>
        </g>
        <g id="g2825" transform="translate(0.791 25.111)">
          <path id="path2827" d="M-102.723,0H-105a6.551,6.551,0,0,0-6.549,6.551v8.506A6.551,6.551,0,0,0-105,21.607h.875v3.368a2,2,0,0,0,3.5,1.316l4.1-4.684h3.789" transform="translate(111.546)" fill="none" stroke="#000" stroke-linecap="round" stroke-linejoin="round" stroke-miterlimit="10" stroke-width="2"/>
        </g>
        <g id="g2829" transform="translate(22.73 41.476)">
          <path id="path2831" d="M0-61.037H1.654A6.554,6.554,0,0,0,8.075-66.28" transform="translate(0 66.28)" fill="none" stroke="#000" stroke-linecap="round" stroke-linejoin="round" stroke-miterlimit="10" stroke-width="2"/>
        </g>
        <g id="g2833" transform="translate(34.529 29.229)">
          <path id="path2835" d="M-98.953,0h5.971a4.209,4.209,0,0,1,4.209,4.21V9.675a4.209,4.209,0,0,1-4.209,4.209h-5.5L-101.12,16.9a1.285,1.285,0,0,1-2.252-.846V13.884h-.562a4.2,4.2,0,0,1-3.519-1.9" transform="translate(107.453)" fill="none" stroke="#000" stroke-linecap="round" stroke-linejoin="round" stroke-miterlimit="10" stroke-width="2"/>
        </g>
        <g id="g2837" transform="translate(9.615 13.212)">
          <path id="path2839" d="M-342.107,0a7.26,7.26,0,0,1,4.03,6.5v9.43c0,.028,0,.056,0,.084a7.262,7.262,0,0,1-7.261,7.178h-.97v3.733A2.2,2.2,0,0,1-346.578,28a2.222,2.222,0,0,1-3.615.386l-.11-.124-4.435-5.068h-9.493a7.262,7.262,0,0,1-7.261-7.263V6.5A7.231,7.231,0,0,1-370,2.092" transform="translate(371.492)" fill="none" stroke="#000" stroke-linecap="round" stroke-linejoin="round" stroke-miterlimit="10" stroke-width="2"/>
        </g>
        <g id="g2841" transform="translate(20.489 12.455)">
          <path id="path2843" d="M0,0H15.279c.088,0,.175,0,.262.005" fill="none" stroke="#000" stroke-linecap="round" stroke-linejoin="round" stroke-miterlimit="10" stroke-width="2"/>
        </g>
        <g id="g2845" transform="translate(1.987 1.911)">
          <path id="path2847" d="M-170.266,0h-10.564a4.061,4.061,0,0,0-4.061,4.061V9.334a4.061,4.061,0,0,0,4.061,4.061h5.309l2.541,2.9a1.24,1.24,0,0,0,2.172-.816V13.395h.542a4.061,4.061,0,0,0,4.061-4.061V4.061A4.061,4.061,0,0,0-170.266,0Z" transform="translate(184.892)" fill="none" stroke="#000" stroke-linecap="round" stroke-linejoin="round" stroke-miterlimit="10" stroke-width="2"/>
        </g>
        <g id="g2849" transform="translate(20.149 20.382)">
          <path id="path2851" d="M0-101.53l3.275-8.6a.2.2,0,0,1,.366,0l3.245,8.6" transform="translate(0 110.252)" fill="none" stroke="#000" stroke-linecap="round" stroke-linejoin="round" stroke-miterlimit="10" stroke-width="2"/>
        </g>
        <g id="g2853" transform="translate(21.17 26.961)">
          <path id="path2855" d="M0,0H4.859" transform="translate(0 0)" fill="none" stroke="#000" stroke-linecap="round" stroke-linejoin="round" stroke-miterlimit="10" stroke-width="2"/>
        </g>
        <g id="g2857" transform="translate(15.031 20.496)">
          <path id="path2859" d="M-40.85,0h-3.509V8.657" transform="translate(44.359)" fill="none" stroke="#000" stroke-linecap="round" stroke-linejoin="round" stroke-miterlimit="10" stroke-width="2"/>
        </g>
        <g id="g2861" transform="translate(15.031 24.742)">
          <path id="path2863" d="M0,0H3.23" transform="translate(0 0)" fill="none" stroke="#000" stroke-linecap="round" stroke-linejoin="round" stroke-miterlimit="10" stroke-width="2"/>
        </g>
        <g id="g2865" transform="translate(34.823 26.36)">
          <path id="path2867" d="M0,0,2.79,2.79" fill="none" stroke="#000" stroke-linecap="round" stroke-linejoin="round" stroke-miterlimit="10" stroke-width="2"/>
        </g>
        <g id="g2869" transform="translate(28.858 20.464)">
          <path id="path2871" d="M-101.531-50.766a4.361,4.361,0,0,1-4.361,4.36,4.361,4.361,0,0,1-4.36-4.36,4.361,4.361,0,0,1,4.36-4.361A4.361,4.361,0,0,1-101.531-50.766Z" transform="translate(110.252 55.127)" fill="none" stroke="#000" stroke-linecap="round" stroke-linejoin="round" stroke-miterlimit="10" stroke-width="2"/>
        </g>
      </g>
    </g>
  </g>
</svg>
