<svg xmlns="http://www.w3.org/2000/svg" width="59.42" height="53.999" viewBox="0 0 59.42 53.999">
  <g id="playground" transform="translate(-0.001 -23.357)">
    <path id="パス_26248" data-name="パス 26248" d="M130.118,188.235a3.878,3.878,0,0,0-.02-7.755h-.021a3.878,3.878,0,0,0,.02,7.756Zm-2.158-3.866a2.137,2.137,0,0,1,2.126-2.148h.012a2.137,2.137,0,0,1,.011,4.274H130.1a2.137,2.137,0,0,1-2.137-2.126Z" transform="translate(-111.572 -138.89)"/>
    <path id="パス_26249" data-name="パス 26249" d="M59.345,110.545a.87.87,0,0,0-.577-.815c-.464-.166-.94-.311-1.419-.435A9.114,9.114,0,0,0,48.4,98.5H48.35a9.108,9.108,0,0,0-8.956,7.738L38,103.892a5.373,5.373,0,0,0-4.643-2.536h-.242L33.1,97.394l1.44-.008a.87.87,0,1,0-.009-1.741l-7.543.04s-.04-5.141-.041-5.148a.873.873,0,0,0-.032-.126l-.005-.015a.865.865,0,0,0-.134-.242l-.005-.008L20.318,82.1a2.367,2.367,0,0,0-1.874-.894l-.118,0a2.371,2.371,0,0,0-1.733.893l-.014.018h0l-3.5,4.461a4.494,4.494,0,0,0-2.915-1.07h-.024a4.474,4.474,0,0,0-1.289.195,5.105,5.105,0,0,0-3.54-1.417H5.286a5.138,5.138,0,0,0-5.1,5.16q0,.1.005.209a4.63,4.63,0,0,0,4.671,4.4h.026l5.174-.028L10.076,96a.87.87,0,1,0,1.74-.015l-.038-4.346,13.444-.071.055,10.368-13.447.071-.013-2.538a.87.87,0,0,0-.87-.866h0a.87.87,0,0,0-.866.875l.018,3.408.018,3.317s0,0,0,0,0,0,0,0l.054,3.44a2.154,2.154,0,0,0-1.327-.479H8.827c-2.774.015-3.918,5.7-4.2,7.425a4.763,4.763,0,0,0-3.6,7.044A1.739,1.739,0,0,0,0,125.239l.008,1.519a1.744,1.744,0,0,0,1.742,1.733H1.76l55.927-.3a1.745,1.745,0,0,0,1.733-1.752Zm-1.737.632.066,12.013h-.013l-.929,0-.018-3.454a.87.87,0,0,0-.875-.866l-6.6.035-.012-2.235a9.118,9.118,0,0,0,7.641-5.706C57.114,111.033,57.363,111.1,57.608,111.177Zm-32.322-7.5,0,.676v.9l-3.706.02h-.005l-6.409.034h0l-3.321.018-.008-1.576Zm-4.539,8.961-4.661.025-.013-1.94,4.663-.025ZM16.1,114.4l4.658-.025.01,1.94-4.656.025Zm4.63-5.446-4.665.025-.013-1.94,4.667-.025Zm-7.342,10.257a21.683,21.683,0,0,0-1.141-6.082c-.1-.277-.2-.54-.3-.788l-.082-5.28,2.444-.013.08,12.412A3.391,3.391,0,0,0,13.386,119.213Zm2.752,1.885c0-.022,0-.045,0-.068l-.019-2.949,4.654-.025.028,5.328-4.4.023a3.413,3.413,0,0,0-.266-2.31Zm6.407,2.278-.087-16.369,2.846-.015.087,16.369Zm4.586-.024-.085-16.015,3.969,0h0a2.866,2.866,0,0,1,2.487,1.327l4.717,7.947a8.816,8.816,0,0,0-1.943-.21,8.7,8.7,0,0,0-8.471,6.95Zm9.157-5.213a6.955,6.955,0,0,1,2.779.563.866.866,0,0,0,.436.065l2.137,3.6a4.907,4.907,0,0,0,.7.9l-12.74.068A6.959,6.959,0,0,1,36.288,118.139Zm11.206.569a2.69,2.69,0,0,1-1.364-1.121l-.842-1.419a9.063,9.063,0,0,0,2.2.5Zm1.751,1.943,5.731-.031.013,2.5-5.731.03Zm-8.213-13a7.366,7.366,0,0,1,7.327-7.405h.04a7.366,7.366,0,0,1,.816,14.687l-.026-4.951,2.234-2.257a.87.87,0,0,0-1.237-1.224l-1.009,1.02-.007-1.251a.87.87,0,1,0-1.741.009l.019,3.521-.942-.932a.87.87,0,0,0-1.224,1.237l2.179,2.156.014,2.658a7.324,7.324,0,0,1-4.035-1.862l-2.2-3.707a7.4,7.4,0,0,1-.207-1.7Zm-7.676-4.55h0a3.628,3.628,0,0,1,3.146,1.684l5.484,9.237c.01.019.022.038.034.057l2.612,4.4a4.5,4.5,0,0,0,2.87,2.049l.014,2.631-1.214.007h-.022a3.625,3.625,0,0,1-3.146-1.684L35,107.773a4.612,4.612,0,0,0-3.983-2.179h0l-3.977,0-.007-1.249V103.1Zm-1.98-1.739H30.071L30.05,97.41l1.306-.007ZM28.309,97.42l.021,3.94H27.015l-.021-3.934ZM17.948,83.191a.634.634,0,0,1,.5-.247.644.644,0,0,1,.507.242l5.324,6.645L12.7,89.893ZM4.875,92.314a2.927,2.927,0,0,1-2.949-2.736c0-.048,0-.1,0-.142A3.4,3.4,0,0,1,5.3,86.026h.018a3.379,3.379,0,0,1,2.628,1.249.87.87,0,0,0,1.046.237,2.764,2.764,0,0,1,3.019.438l-1.791,2.285-.006.009a.865.865,0,0,0-.069.105l-.008.013a.858.858,0,0,0-.051.116l-.008.024c-.013.039-.03,1.784-.03,1.784ZM7.5,112.674c.567-1.29,1.109-1.761,1.334-1.762h0c.307,0,1.057.757,1.765,2.791a20.407,20.407,0,0,1,1.02,5.07,3.852,3.852,0,0,0-1.777-.434H9.824a3.844,3.844,0,0,0-.846.1,4.752,4.752,0,0,0-2.608-1.726A17.643,17.643,0,0,1,7.5,112.674ZM5.174,118.3H5.19a3.019,3.019,0,0,1,2.658,1.586.87.87,0,0,0,1.124.379,2.118,2.118,0,0,1,2.482.554.871.871,0,0,0,.988.24,1.671,1.671,0,0,1,.623-.123h.009a1.681,1.681,0,0,1,1.479,2.48l-11.477.061a3.019,3.019,0,0,1,2.1-5.177Zm52.5,8.15-55.929.3-.006-1.52.83,0a.867.867,0,0,0,.214.03h0l54.88-.321.007,1.52h0Z" transform="translate(0 -51.134)"/>
    <path id="パス_26250" data-name="パス 26250" d="M278.166,34.554h.015l4.8-.025a.87.87,0,0,0,0-1.741h0l-4.8.025h-.006a1.038,1.038,0,0,1-1.051-1.008v-.012a2.231,2.231,0,0,1,2.163-2.229.87.87,0,0,0,.837-.733,4.42,4.42,0,0,1,4.359-3.734h.024a4.416,4.416,0,0,1,4.378,3.708.87.87,0,0,0,.974.72,2.242,2.242,0,0,1,.285-.023h.012a2.232,2.232,0,0,1,1.912,1.091.87.87,0,0,0,.749.427h0l2.386-.013h0a.857.857,0,0,1,0,1.715l-9.215.049a.87.87,0,0,0-.026,1.74l.461.016a.876.876,0,0,0,.214-.019l8.574-.045a2.6,2.6,0,0,0-.014-5.2h-.014l-1.927.01a3.984,3.984,0,0,0-2.84-1.506,6.146,6.146,0,0,0-5.923-4.416h-.034a6.153,6.153,0,0,0-5.929,4.548,3.988,3.988,0,0,0-3.161,3.9v.025A2.781,2.781,0,0,0,278.166,34.554Z" transform="translate(-243.419)"/>
  </g>
</svg>
