<svg xmlns="http://www.w3.org/2000/svg" width="149.315" height="148.816" viewBox="0 0 149.315 148.816">
  <g id="kindergarten_2_" data-name="kindergarten (2)" transform="translate(0 -0.852)">
    <path id="パス_26218" data-name="パス 26218" d="M144.931,136.5V121.112c.279-8.83-10.757-14.234-17.561-8.776v-50.6c14.774-1.228,14.288-23.351-.829-23.656-16.553-49.649-87.216-49.622-103.759,0C8.1,37.889,6.512,60.653,21.955,61.716v50.623c-6.806-5.46-17.841-.058-17.563,8.774,0,0,0,15.386,0,15.386H0v13.17H122.966v-4.391H4.391V140.89H144.924v4.387H136.14v4.391h13.175V136.5Zm-10.976-21.971a6.592,6.592,0,0,1,6.585,6.585V136.5H127.37V121.112A6.592,6.592,0,0,1,133.954,114.528ZM122.974,136.5H109.8V121.112a6.585,6.585,0,0,1,13.17,0Zm0-43.916H105.413V79.392h17.566Zm10.831-42.658c0,3.648-2.27,7.367-7.34,7.461H94.38c-4.525-.309-6.289-2.635-6.972-4.537-1.5-4.5,1.091-10.326,6.516-10.408,1.6-.129,4.241,1,5.943,1.794,1.65-5.432,5.872-8.137,10.531-8.08,4.792-.037,8.894,2.7,10.585,8.215,5.906-4.028,12.817-1.173,12.826,5.555ZM82.683,48.668H66.536a11.393,11.393,0,0,0-9.223-10.342c8.881-9.619,25.692-9.659,34.614-.084C86.943,39.038,83.217,43.741,82.683,48.668Zm15.1-10.291c-10.633-15.537-35.734-15.485-46.312.092A13.8,13.8,0,0,0,48.4,35.017c12.347-17.01,40.067-17.033,52.466-.061A13.79,13.79,0,0,0,97.784,38.378ZM74.66,5a50.514,50.514,0,0,1,46.408,30.967,14.437,14.437,0,0,0-6.594-3.7A46.131,46.131,0,0,0,98.028,15.658l-2.236,3.78a41.75,41.75,0,0,1,13.221,12.388,15.75,15.75,0,0,0-4.286.949c-14-19.876-46.2-19.863-60.163.035a15.724,15.724,0,0,0-4.262-.974C51.118,15.41,74.013,8.934,91.88,17.4l1.821-4c-20.885-9.889-47.574-1.338-58.83,18.831a14.5,14.5,0,0,0-6.549,3.541A49.946,49.946,0,0,1,74.66,5ZM15.81,52.849c-1.8-6.045,2.7-12.855,10.417-9.5l2.041.888c1.65-5.432,5.872-8.137,10.531-8.08,4.792-.037,8.894,2.7,10.585,8.215,12.85-8.145,18.464,12.13,5.486,13.015H48.312v4.391c8.408.383,15.5-.078,17.893-8.717H82.9c1.195,5.1,5.42,8.351,11.267,8.713.108.025,28.682-.008,28.81,0V75H101.021V96.973h21.957V112.34c-6.8-5.463-17.844-.061-17.565,8.772,0,0,0,15.386,0,15.386H92.234v-52.7H57.1v52.7H43.91V121.112c.279-8.831-10.76-14.235-17.563-8.774V96.974H48.285V75H26.346V61.777H43.92V57.385H22.781c-4.525-.309-6.289-2.635-6.971-4.537ZM87.842,136.5H61.494V88.186H87.842Zm-61.5-57.107H43.893V92.582H26.346ZM39.518,136.5H26.348V121.112a6.585,6.585,0,0,1,13.17,0ZM8.783,121.112c.156-8.654,13.015-8.652,13.17,0V136.5H8.783Z" transform="translate(0 0)" fill="#fff"/>
    <path id="パス_26219" data-name="パス 26219" d="M435.021,494.172h4.391v4.391h-4.391Z" transform="translate(-307.664 -348.895)" fill="#fff"/>
    <path id="パス_26220" data-name="パス 26220" d="M234,331.624c11.6-.208,11.6-17.451,0-17.657C222.4,314.175,222.4,331.418,234,331.624Zm0-13.266c5.832.1,5.831,8.771,0,8.874C228.17,327.128,228.17,318.462,234,318.358Z" transform="translate(-159.341 -221.447)" fill="#fff"/>
    <path id="パス_26221" data-name="パス 26221" d="M270.178,389.151h4.391v4.391h-4.391Z" transform="translate(-191.08 -274.62)" fill="#fff"/>
    <path id="パス_26222" data-name="パス 26222" d="M217.521,224.14h4.391v4.391h-4.391Z" transform="translate(-153.839 -157.918)" fill="#fff"/>
    <path id="パス_26223" data-name="パス 26223" d="M247.521,224.14h4.391v4.391h-4.391Z" transform="translate(-175.057 -157.918)" fill="#fff"/>
    <path id="パス_26224" data-name="パス 26224" d="M277.521,224.14h4.391v4.391h-4.391Z" transform="translate(-196.274 -157.918)" fill="#fff"/>
    <path id="パス_26225" data-name="パス 26225" d="M104.992,284.151h4.391v4.391h-4.391Z" transform="translate(-74.254 -200.36)" fill="#fff"/>
    <path id="パス_26226" data-name="パス 26226" d="M375.048,284.151h4.391v4.391h-4.391Z" transform="translate(-265.249 -200.36)" fill="#fff"/>
  </g>
</svg>
