<svg xmlns="http://www.w3.org/2000/svg" width="157.816" height="141.984" viewBox="0 0 157.816 141.984">
  <g id="international-consumer" transform="translate(0 -25.682)">
    <path id="パス_26227" data-name="パス 26227" d="M85.16,321.475a4.687,4.687,0,0,0,4.681-4.681V315.1a2.312,2.312,0,0,0-4.623,0v1.693a.058.058,0,0,1-.058.058,2.312,2.312,0,1,0,0,4.623Z" transform="translate(-57.312 -198.611)" fill="#fff"/>
    <path id="パス_26228" data-name="パス 26228" d="M253.2,312.789a2.312,2.312,0,0,0-2.312,2.312v1.693a.058.058,0,0,1-.058.058,2.312,2.312,0,1,0,0,4.623,4.687,4.687,0,0,0,4.681-4.681V315.1A2.312,2.312,0,0,0,253.2,312.789Z" transform="translate(-171.914 -198.611)" fill="#fff"/>
    <path id="パス_26229" data-name="パス 26229" d="M418.863,312.789a2.312,2.312,0,0,0-2.312,2.312v1.693a.058.058,0,0,1-.058.058,2.312,2.312,0,1,0,0,4.623,4.687,4.687,0,0,0,4.681-4.681V315.1A2.312,2.312,0,0,0,418.863,312.789Z" transform="translate(-286.517 -198.611)" fill="#fff"/>
    <circle id="楕円形_111" data-name="楕円形 111" cx="2.312" cy="2.312" r="2.312" transform="translate(76.601 147.631)" fill="#fff"/>
    <circle id="楕円形_112" data-name="楕円形 112" cx="2.312" cy="2.312" r="2.312" transform="translate(76.601 155.336)" fill="#fff"/>
    <path id="パス_26230" data-name="パス 26230" d="M145.582,134.436h-5.627a.659.659,0,0,1-.658-.658v-1.816c3.011-2.336,5.481-5.657,5.778-9.693.313-4.256.624-8.479.937-12.714a16.129,16.129,0,0,0-3-10.592q.26-1.959.4-3.944c0-.046.008-.092.01-.139.1-1.505.157-3.016.157-4.523a64.612,64.612,0,0,0-25.7-51.58,2.3,2.3,0,0,0-.587-.439,64.643,64.643,0,0,0-70.357-4.212,65.1,65.1,0,0,0-23.07,22.255A2.312,2.312,0,0,0,27.8,58.811,59.689,59.689,0,0,1,73.1,30.58L65.724,39.2a12.51,12.51,0,0,0-3.005,8.131v6.464a7.853,7.853,0,0,1-2.87,6.081A12.424,12.424,0,0,0,55.92,73.428l.932,2.836A33.02,33.02,0,0,0,68.5,92.472L71,94.341a16.144,16.144,0,0,0-7.913,11.2,32.109,32.109,0,0,0-2.312,2.837l-9.383,12.967a2.391,2.391,0,0,1-3.055.7,14.377,14.377,0,0,1-5.041-4.5c.493-6.7.2-2.672.588-7.99a16.113,16.113,0,0,0-1.414-7.863,9.322,9.322,0,0,0-1.364-7.946l-3.483-4.881a11.83,11.83,0,0,1-1.815-9.917l1.421-5.39a4.238,4.238,0,0,0-6.174-4.776l-1.728.971a21.593,21.593,0,0,1-7.714,2.565q.642-2.038,1.431-4.035a2.312,2.312,0,1,0-4.3-1.7,64.367,64.367,0,0,0-4.51,23.774,65.521,65.521,0,0,0,.567,8.6A16.2,16.2,0,0,0,11.816,109.7l.925,12.566c.3,4.036,2.767,7.356,5.778,9.693v1.816a.659.659,0,0,1-.658.658H12.233A12.246,12.246,0,0,0,0,146.669v3.9a2.312,2.312,0,1,0,4.624,0v-3.9a7.618,7.618,0,0,1,7.61-7.61h2.391a15.2,15.2,0,0,0,13.22,7.456,15.2,15.2,0,0,0,13.22-7.456h2.391a7.618,7.618,0,0,1,7.61,7.6v16.385H46.671v-9.394a2.312,2.312,0,1,0-4.623,0v9.394H13.639v-9.394a2.312,2.312,0,1,0-4.624,0v9.394H4.623V161.36a2.312,2.312,0,1,0-4.624,0v3.189a3.121,3.121,0,0,0,3.117,3.117H52.57a3.115,3.115,0,0,0,.805-.106,3.113,3.113,0,0,0,.805.106h49.453a3.115,3.115,0,0,0,.805-.106,3.113,3.113,0,0,0,.805.106H154.7a3.121,3.121,0,0,0,3.117-3.117v-17.88a12.247,12.247,0,0,0-12.233-12.233Zm-9.966,2.35-4.251,2.73a2.62,2.62,0,0,1-2.786,0l-4.251-2.73a5.258,5.258,0,0,0,.875-2.16,10.613,10.613,0,0,0,9.539,0,5.249,5.249,0,0,0,.875,2.16ZM97.736,158.417h4.392v4.626H97.736Zm6.7-18.9a12.276,12.276,0,0,0-6.56-4.615,9.469,9.469,0,0,1,2.125-1.875,7.391,7.391,0,0,0,1.123-11.523L97.8,118.289a8.114,8.114,0,0,1-1.3-10.114l2.867-4.707a2.915,2.915,0,0,1,3.68-1.14l2.649,1.192a11.414,11.414,0,0,0,8.885.211,16.566,16.566,0,0,0-.635,5.971c.031.424.9,12.242.925,12.565.3,4.036,2.767,7.356,5.778,9.693v1.816a.659.659,0,0,1-.659.658h-5.627a12.225,12.225,0,0,0-9.921,5.084Zm-15.958,3.733-3.069-1.525,2.168-1.392Zm-8.817-3.329H78.152l-4.888-3.138a5.258,5.258,0,0,0,.875-2.16,12.956,12.956,0,0,0,4.77,1.132,12.96,12.96,0,0,0,4.77-1.132,5.253,5.253,0,0,0,.874,2.16Zm-7.261,1.8-3.069,1.525.9-2.917Zm6.5-10.593c-2.927,0-10.1-3.888-10.492-9.207l-.549-7.448,6.65-6.65a19.4,19.4,0,0,0,12.661,4.653H90.1l-.7,9.445c-.391,5.318-7.565,9.206-10.492,9.206Zm10,3.3H88.89a.659.659,0,0,1-.657-.658v-1.816c3.011-2.336,5.481-5.657,5.778-9.693l.085-1.151q.236.254.489.5l3.332,3.218a2.768,2.768,0,0,1-.421,4.315,14,14,0,0,0-4.832,5.288H88.908Zm40.918-37.522a11.45,11.45,0,0,1,11.6,11.887h.007l-.967,13.127c-.4,5.409-7.81,9.338-10.637,9.2-2.827.135-10.239-3.794-10.637-9.2l-.967-13.127h.007a11.449,11.449,0,0,1,11.6-11.887Zm9.13-6.559v.068L136.3,88.543a41.432,41.432,0,0,0-20.481-7.464l-3.631-.3a1.459,1.459,0,0,1-1.243-1.972,18.969,18.969,0,0,0-3.874-19.784l-.418-.448a.818.818,0,0,1,.142-1.237A27.536,27.536,0,0,0,117.209,44.26l.035-.091a59.95,59.95,0,0,1,21.713,46.186Zm-65.17.3L71.27,88.77A28.421,28.421,0,0,1,61.244,74.82l-.932-2.836a7.83,7.83,0,0,1,2.476-8.542,12.46,12.46,0,0,0,4.554-9.65V47.327A7.883,7.883,0,0,1,69.236,42.2l10.186-11.9a59.713,59.713,0,0,1,33.994,10.928l-.525,1.37A22.933,22.933,0,0,1,104.219,53.5a5.443,5.443,0,0,0-.948,8.226l.418.448a14.375,14.375,0,0,1,2.936,14.992,6.083,6.083,0,0,0,5.181,8.221l3.631.3a36.81,36.81,0,0,1,18.194,6.631l.9.636a16.094,16.094,0,0,0-4.759-.662,15.872,15.872,0,0,0-11.98,5.573,13.676,13.676,0,0,0-4.12,1.21l-.369.175a6.8,6.8,0,0,1-5.71.056l-2.649-1.192a7.545,7.545,0,0,0-9.526,2.951l-1.29,2.118A16.086,16.086,0,0,0,75.632,92.616a7.674,7.674,0,0,0-1.845-1.963Zm4.976,6.261a11.453,11.453,0,0,1,11.6,10.946h-3.18a14.822,14.822,0,0,1-10.551-4.37,3.046,3.046,0,0,0-4.308,0l-4.862,4.862A11.415,11.415,0,0,1,78.763,96.914Zm-51.064,0a11.461,11.461,0,0,1,11.493,9.817l-1.013-1.013a7.528,7.528,0,0,0-10.633,0l-.058.058-.222-.222a7.518,7.518,0,0,0-10.481-.148A11.375,11.375,0,0,1,27.7,96.914Zm3.894-23.131.934-.525-1.189,4.51a16.439,16.439,0,0,0,2.522,13.781l2.1,2.943a16.149,16.149,0,0,0-8.316-2.2,15.939,15.939,0,0,0-8.614,2.6,60.539,60.539,0,0,1,1.3-17.805,26.15,26.15,0,0,0,11.267-3.307ZM16.628,112.1l3.275-3.275a2.894,2.894,0,0,1,4.094,0h0l.675.675a3.982,3.982,0,0,0,5.631,0l.511-.511a2.9,2.9,0,0,1,4.095,0l4.079,4.079c-.637,8.641.366-4.973-.653,8.862-.392,5.319-7.565,9.207-10.492,9.207s-10.1-3.888-10.492-9.207Zm11.216,29.794a10.837,10.837,0,0,1-7.85-3.283,5.3,5.3,0,0,0,3.08-3.982,12.956,12.956,0,0,0,4.77,1.132,12.962,12.962,0,0,0,4.77-1.132,5.3,5.3,0,0,0,3.08,3.982A10.837,10.837,0,0,1,27.844,141.892Zm15.611-7.456H37.827a.659.659,0,0,1-.658-.658v-1.816a14.5,14.5,0,0,0,5.562-8.186,19.007,19.007,0,0,0,3.422,2.347,7.031,7.031,0,0,0,8.984-2.069l7.987-11.038c1.328,18.042.132,1.787.682,9.253.3,4.036,2.767,7.356,5.778,9.693v1.816a.659.659,0,0,1-.658.658H63.3a12.225,12.225,0,0,0-9.921,5.084A12.228,12.228,0,0,0,43.454,134.436ZM60.08,163.042H55.688v-4.626H60.08Zm4.624-9.394a2.312,2.312,0,0,0-4.624,0v.145H55.688v-7.136a7.618,7.618,0,0,1,7.61-7.6h2.493l-1.709,5.533a3.41,3.41,0,0,0,4.775,4.06l8.389-4.166a3.892,3.892,0,0,0,.692.062h1.942a3.918,3.918,0,0,0,.692-.062l8.389,4.166a3.41,3.41,0,0,0,4.775-4.06l-1.709-5.533h2.493a7.618,7.618,0,0,1,7.61,7.61v7.124H97.736v-.145a2.312,2.312,0,1,0-4.624,0v9.394H64.7v-9.394Zm42.048-6.979a7.618,7.618,0,0,1,7.61-7.61h3.985l2.061,5.906a2.312,2.312,0,0,0,4.365-1.523l-.394-1.128,1.7,1.093a7.2,7.2,0,0,0,7.782,0l1.7-1.093-5.592,16.024-1.481-4.245a2.312,2.312,0,0,0-4.365,1.524l2.591,7.425H115.768v-9.394a2.312,2.312,0,0,0-4.624,0v9.394h-4.392V146.669Zm46.441,16.373H148.8v-9.394a2.312,2.312,0,1,0-4.623,0v9.394H133.227l8.37-23.983h3.985a7.618,7.618,0,0,1,7.61,7.61Z" fill="#fff"/>
  </g>
</svg>
