<svg xmlns="http://www.w3.org/2000/svg" width="81.318" height="81.32" viewBox="0 0 81.318 81.32">
  <g id="application" transform="translate(-1 -0.998)">
    <path id="パス_47929" data-name="パス 47929" d="M54.232,37.232V11H28V37.232ZM41.116,24.116a2.623,2.623,0,1,1,2.623-2.623A2.626,2.626,0,0,1,41.116,24.116ZM37.6,27.6a5.105,5.105,0,0,1,2.837-.859h1.355a5.114,5.114,0,0,1,5.044,4.273l.6,3.6H34.794l.6-3.6A5.138,5.138,0,0,1,37.6,27.6ZM30.623,13.623H51.609V34.609H50.1l-.672-4.028a7.729,7.729,0,0,0-4.32-5.72,5.2,5.2,0,0,0,1.258-3.368,5.246,5.246,0,0,0-10.493,0,5.2,5.2,0,0,0,1.258,3.368,7.729,7.729,0,0,0-4.32,5.72l-.672,4.028H30.623Z" transform="translate(8.413 3.116)" fill="#fff"/>
    <path id="パス_47930" data-name="パス 47930" d="M14,17H29.739v2.623H14Z" transform="translate(4.051 4.986)" fill="#fff"/>
    <path id="パス_47931" data-name="パス 47931" d="M14,21H29.739v2.623H14Z" transform="translate(4.051 6.232)" fill="#fff"/>
    <path id="パス_47932" data-name="パス 47932" d="M14,25H29.739v2.623H14Z" transform="translate(4.051 7.479)" fill="#fff"/>
    <path id="パス_47933" data-name="パス 47933" d="M14,29H29.739v2.623H14Z" transform="translate(4.051 8.725)" fill="#fff"/>
    <path id="パス_47934" data-name="パス 47934" d="M14,33H58.594v2.623H14Z" transform="translate(4.051 9.971)" fill="#fff"/>
    <path id="パス_47935" data-name="パス 47935" d="M34,61.493H52.362V51H34Zm2.623-7.869H49.739V58.87H36.623Z" transform="translate(10.282 15.58)" fill="#fff"/>
    <path id="パス_47936" data-name="パス 47936" d="M24,57H34.493v2.623H24Z" transform="translate(7.166 17.449)" fill="#fff"/>
    <path id="パス_47937" data-name="パス 47937" d="M24,53H34.493v2.623H24Z" transform="translate(7.166 16.203)" fill="#fff"/>
    <path id="パス_47938" data-name="パス 47938" d="M82.289,68.878,74.715,4.584a4.065,4.065,0,0,0-4.564-3.547L33.77,6.055A5.242,5.242,0,0,0,28.543,1H25.92a5.252,5.252,0,0,0-5.246,5.246V8.87H15.427A2.626,2.626,0,0,0,12.8,11.493v49.3L3.012,70.581A6.876,6.876,0,1,0,12.737,80.3l.117-.117a2.626,2.626,0,0,0,2.573,2.131h49.84A2.626,2.626,0,0,0,67.891,79.7V75.544l10.939-1.988a4.246,4.246,0,0,0,3.489-4.18A4.425,4.425,0,0,0,82.289,68.878ZM23.3,6.247A2.626,2.626,0,0,1,25.92,3.624h2.623a2.626,2.626,0,0,1,2.623,2.623V8.87H28.543V6.247H25.92V8.87H23.3Zm0,5.246H25.92v3.935a1.312,1.312,0,1,1-2.623,0Zm7.624,42.494-1.59-1.59,2.384-.795Zm-4.372-.662,3.444,3.444-.712,2.137-4.869-4.869Zm-4.564,1.994L28,61.333,14.116,75.218,8.1,69.2ZM7.875,79.7a4.254,4.254,0,0,1-3.007-7.261l1.378-1.377,6.015,6.015-1.378,1.378A4.224,4.224,0,0,1,7.875,79.7Zm57.392,0H15.427v-2.08L31,62.042l3.734-11.2H62.644V48.218H33.577l-12.3,4.1-5.85,5.85V11.493h5.246v3.935a3.935,3.935,0,1,0,7.87,0V11.493h2.623V16.74H33.79V11.493H65.268ZM78.36,70.975l-10.469,1.9V11.493A2.626,2.626,0,0,0,65.268,8.87H33.79V8.7L70.509,3.637a1.428,1.428,0,0,1,1.6,1.25l7.576,64.306a1.43,1.43,0,0,1,.01.182,1.627,1.627,0,0,1-1.335,1.6Z" transform="translate(0)" fill="#fff"/>
  </g>
</svg>
