<svg xmlns="http://www.w3.org/2000/svg" width="731" height="626" viewBox="0 0 731 626">
  <g id="グループ_11701" data-name="グループ 11701" transform="translate(10491 20740)">
    <path id="パス_25982" data-name="パス 25982" d="M78.992,262.206c-1.544,1.458-7.742,2.445-10.723,2.445-.493,0-1.137,0-1.137-.236-.579-2.445-5.3-28.846-6.434-31.934-.172-.322-.322-.493-.407-.493s-.407.493-.407.493a184.945,184.945,0,0,0-7.163,28.031c0,.643-5.533,2.445-9.865,2.445a2.145,2.145,0,0,1-1.137-.236c-2.852-2.852-11.238-42.614-11.238-54.689,0-.236,2.852-2.145,8.236-2.145a7.958,7.958,0,0,1,1.952.236c.172,3.024,2.145,28.674,5.941,38.3,0,0,.172.579.407.579s.236-.172.408-.579c0,0,6.691-25.736,8.15-27.387a24.769,24.769,0,0,1,8.236-1.137,13.162,13.162,0,0,1,3.26.493c.322.322,5.533,26.251,6.434,30.647,0,0,.408,1.716,1.051,0a124.971,124.971,0,0,0,5.619-33.006c0-1.223-2.616-2.531-4.568-2.767a2.143,2.143,0,0,1,0-.729,10.831,10.831,0,0,1,.987-4.289A66.787,66.787,0,0,1,91.431,204.3a7.385,7.385,0,0,1,1.308.236C92.611,222.337,80.536,260.64,78.992,262.206Z" transform="translate(-10456.126 -20504.195)" fill="#f6a631"/>
    <path id="パス_25983" data-name="パス 25983" d="M66.706,218.813c-3.024,0-4.976-1.952-4.976-5.533a5.984,5.984,0,0,1,5.791-5.469,4.954,4.954,0,0,1,5.061,5.469A6.005,6.005,0,0,1,66.706,218.813Zm5.061,5.126c0,.407-.236,9.866-.236,17.35a74.7,74.7,0,0,0,.236,8.407,13.3,13.3,0,0,0,2.145,6.434c0,.987-5.619,4.4-9.051,4.4-.322,0-1.952-2.145-2.445-7.163,0-1.051-.172-3.753-.172-7.1,0-8.386.236-20.782.579-21.447a11.3,11.3,0,0,1,6.606-1.458s1.93.107,2.338.6Z" transform="translate(-10420.354 -20500.178)" fill="#40c1c9"/>
    <path id="パス_25984" data-name="パス 25984" d="M70.41,221.333a16.3,16.3,0,0,1,.407-5.469,12.5,12.5,0,0,1,7.421-2.273c.729,0,1.716.172,1.716.407,0,.643-.236,2.681-.236,4.289s0,1.63.236,1.63.236-.172.236-.172a13.855,13.855,0,0,1,10.016-5.276c10.187,0,10.423,13.361,10.423,27.3,0,5.383-.236,9.522-.236,9.522a13,13,0,0,1-6.927,1.78,8.82,8.82,0,0,1-2.681-.408,127.459,127.459,0,0,0,.815-13.94c0-7.914-.322-14.091-4.8-14.091-5.3,0-6.756,5.791-6.756,5.791v10.359a60.29,60.29,0,0,1-.322,9.051c-1.63,1.63-6.2,2.145-8.386,2.145-.643,0-1.222,0-1.222-.236a91.942,91.942,0,0,0,.558-12.053C70.646,233.236,70.41,226.137,70.41,221.333Z" transform="translate(-10410.763 -20493.563)" fill="#40c1c9"/>
    <path id="パス_25985" data-name="パス 25985" d="M109.858,245.141v-.322l-.236.236a12.139,12.139,0,0,1-10.723,5.3c-7.742,0-11.989-7.485-11.989-14,0-12.31,7.914-22.5,24.278-22.5,0,0,2.852,0,2.852.407a19.3,19.3,0,0,1,.236,3v1.222h.708a9.392,9.392,0,0,1,3.517.493v10.359c0,7.571.172,17.029.172,19.3,0,22.412-15.57,26.251-21.833,26.251a14.048,14.048,0,0,1-3.024-8.579H95.36C99.585,266.416,109.858,264.721,109.858,245.141Zm-1.866-22.9c-7.249,0-11.324,5.383-11.324,11.817a5.834,5.834,0,0,0,5.7,6.284,7.571,7.571,0,0,0,7.013-5.962c0-1.223,0-9.93.322-11.9-.021-.214-1.737-.214-1.737-.214Z" transform="translate(-10391.532 -20493.264)" fill="#40c1c9"/>
    <path id="パス_25986" data-name="パス 25986" d="M107.584,255.28c-.815,0-3.174-3.431-3.174-7.249v-.558c9.372,0,13.04-4.161,13.04-6.756,0-4.718-13.04-7.249-13.04-14.262s10.187-13.276,19.3-13.276c.9,0,3.431,3.346,3.5,6.841-1.222,0-11.324,1.716-11.324,6.027s12.718,6.434,12.868,15.013C128.945,250.476,113.954,255.28,107.584,255.28Z" transform="translate(-10371.501 -20494.029)" fill="#40c1c9"/>
    <path id="パス_25987" data-name="パス 25987" d="M160.366,262.617a21.445,21.445,0,0,0-.407-5.3.168.168,0,0,0-.172-.172l-.236.172a18.122,18.122,0,0,1-12.546,4.8c-14.82,0-21.275-10.916-21.275-24.535,0-11.967,4.654-32.6,31.376-32.6a31.7,31.7,0,0,1,7.978,1.137c.172.172.172.643.172,1.308a22.327,22.327,0,0,1-1.308,7.828,20.459,20.459,0,0,0-8.579-1.308c-11.088,0-18.916,7.421-18.916,22.734,0,9.136,3.582,15.806,11.731,15.806,7.163,0,11.324-5.3,11.324-7.013v-2.617a16.839,16.839,0,0,0-.493-5.469,27.882,27.882,0,0,0-7.571-.729,44.041,44.041,0,0,0-4.976.236c-.322,0-.322-.579-.322-.643a14.155,14.155,0,0,1,2.617-7.656c.558-.579,9.05-1.137,19.3-1.137a23.188,23.188,0,0,1,4.654.408,25.477,25.477,0,0,1-2.767,9.372s0,21.919-.558,22.819a12.7,12.7,0,0,1-7.485,2.852C161.1,262.917,160.366,262.917,160.366,262.617Z" transform="translate(-10347.097 -20503.404)" fill="#40c1c9"/>
    <path id="パス_25988" data-name="パス 25988" d="M159.371,246.305c0,3.088,0,5.619.172,6.927a13.168,13.168,0,0,0,2.359,6.434c0,.987-5.619,4.4-9.05,4.4-.322,0-2.145-2.145-2.531-7.163v-8.578c0-8.321.322-16.535.322-29.489,0-8.235-.322-10.273-.322-11.174s4.718-2.938,7.656-2.938a5.8,5.8,0,0,1,2.145.322c-.172,1.222-.408,15.013-.408,21.189S159.371,238.563,159.371,246.305Z" transform="translate(-10318.949 -20503.715)" fill="#40c1c9"/>
    <path id="パス_25989" data-name="パス 25989" d="M158,234.081a20.224,20.224,0,0,1,20.932-20.374,16,16,0,0,1,4.4.644,2.745,2.745,0,0,1,.172,1.137,22.218,22.218,0,0,1-.236,2.938c.815,0,9.286,2.852,9.286,14.348,0,9.694-6.112,19.066-17.436,19.066C164.2,251.839,158,244.375,158,234.081Zm18.98-8.235h-.643a2.827,2.827,0,0,1-.172-1.051,13.183,13.183,0,0,1,.236-2.359c-3.9,0-9.136,3.582-9.136,11.41,0,.815,0,9.78,7.828,9.78,3.839,0,8.064-2.852,8.064-10.1S178.7,225.845,176.981,225.845Z" transform="translate(-10310.158 -20493.441)" fill="#40c1c9"/>
    <path id="パス_25990" data-name="パス 25990" d="M177.15,265.462a131.654,131.654,0,0,0,.558-17.286c0-9.78-.172-21.682-.172-30.025a57.769,57.769,0,0,1,.408-10.595,12.737,12.737,0,0,1,7.506-2.767,5.121,5.121,0,0,1,2.037.322c-.172.9-.815,16.707-.643,19.731h1.308c4.89,0,20.46,1.137,20.46,17.157,0,10.916-10.423,17.758-21.683,19.559a18.583,18.583,0,0,1,0,2.145c-1.63,1.63-6.284,2.145-8.579,2.145C177.815,265.72,177.15,265.72,177.15,265.462Zm21.833-24.128a7.85,7.85,0,0,0-8.579-8.15c-1.458,0-3.753.236-3.753.236V239.3c0,6.2,0,11.581.322,13.211,1.351-.086,12.032-.086,12.032-11.174Z" transform="translate(-10288.237 -20503.635)" fill="#40c1c9"/>
    <path id="パス_25991" data-name="パス 25991" d="M225.252,243.956a9.63,9.63,0,0,0,2.767,6.434c0,.986-5.212,4.482-9.05,4.482-.322,0-2.145-1.866-2.617-6.284v-.172l-.236.172a18.168,18.168,0,0,1-10.359,3.431c-7.335,0-11.817-3.839-11.817-10.723,0-14.262,18.83-16.128,20.46-16.128a.279.279,0,0,0,.172,0c0-2.359-3.024-3.989-10.1-3.989a50.783,50.783,0,0,0-6.112.107h0a15.87,15.87,0,0,1,2.852-7.42,17.822,17.822,0,0,1,5.7-.579c12.4,0,18.1,4.654,18.1,14.5v4.225C225.016,236.128,225.016,242.24,225.252,243.956Zm-9.286-9.8a7.2,7.2,0,0,0,0-1.8c-2.938,0-11.967,1.458-11.967,7.335,0,2.145,1.394,3.989,5.04,3.989a6.434,6.434,0,0,0,7.013-6.434Z" transform="translate(-10269.019 -20493.945)" fill="#40c1c9"/>
    <path id="パス_25992" data-name="パス 25992" d="M221.39,246.305c0,3.088,0,5.619.172,6.927a13.169,13.169,0,0,0,2.359,6.434c0,.987-5.619,4.4-9.051,4.4-.322,0-2.145-2.145-2.531-7.163v-8.578c0-8.321.322-16.535.322-29.489,0-8.235-.322-10.273-.322-11.174s4.718-2.938,7.656-2.938a5.8,5.8,0,0,1,2.145.322c-.172,1.222-.407,15.013-.407,21.189S221.39,238.563,221.39,246.305Z" transform="translate(-10247.957 -20503.715)" fill="#40c1c9"/>
    <g id="グループ_11698" data-name="グループ 11698">
      <path id="パス_25993" data-name="パス 25993" d="M252.523,236.279c-4.8,0-10.187,0-10.723.236v6.691c0,8.15.493,15.013.644,16.385,0,.643-3.024,2.145-7.1,2.145a8.169,8.169,0,0,1-3-.407c-.408-.407-.493-6.927-.493-15.013v-9.608a16.473,16.473,0,0,1-3.839-8.3,29.5,29.5,0,0,1,3.989-.236c0-5.79,0-10.723,0-13.276v-1.716a20.616,20.616,0,0,1-2.145-7.742.622.622,0,0,1,0-.407h1.716c5.211,0,10.723,1.952,10.723,2.767s-.579,10.595-.579,18.573V228h10.831c3.26,0,6.027,0,6.027.172,0-9.93.643-20.2.643-20.525a14.113,14.113,0,0,1,8.579-2.767c.322,0,1.051,0,1.051.322,0,0-.9,11.989-.9,25.736,0,15.978.493,25.414,4.4,29.339,0,.172-.172.322-.236.408a18.681,18.681,0,0,1-9.608,2.852,2.934,2.934,0,0,1-.987-.171c-1.866-1.866-2.681-4.8-2.853-26.808A35.513,35.513,0,0,0,252.523,236.279Z" transform="translate(-10230.02 -20503.531)" fill="#f6a631"/>
      <path id="パス_25994" data-name="パス 25994" d="M251.49,234.081a20.224,20.224,0,0,1,20.932-20.374,16,16,0,0,1,4.4.644,2.744,2.744,0,0,1,.172,1.137,22.213,22.213,0,0,1-.236,2.938c.815,0,9.286,2.852,9.286,14.348,0,9.694-6.112,19.066-17.436,19.066C257.688,251.839,251.49,244.375,251.49,234.081Zm18.98-8.235h-.729a2.828,2.828,0,0,1-.172-1.051,13.194,13.194,0,0,1,.236-2.359c-3.9,0-9.136,3.582-9.136,11.41,0,.815,0,9.78,7.828,9.78,3.839,0,8.064-2.852,8.064-10.1S272.186,225.845,270.471,225.845Z" transform="translate(-10203.144 -20493.441)" fill="#40c1c9"/>
      <path id="パス_25995" data-name="パス 25995" d="M299.256,240.316a31.108,31.108,0,0,1-.322,6.434,12.225,12.225,0,0,1-6.842,1.63,7.952,7.952,0,0,1-2.617-.407,100.2,100.2,0,0,0,.729-12.4c0-6.606-.171-10.337-3.667-10.337-4.29,0-6.434,5.619-6.434,6.606v10.337a52.825,52.825,0,0,1-.322,8.386c-1.866,1.8-5.619,1.952-8.579,1.952-.322,0-.643,0-.643-.236a89.788,89.788,0,0,0,.558-11.967c0-6.606-.236-14.091-.236-19.152a19.835,19.835,0,0,1,.408-5.619,11.9,11.9,0,0,1,7.1-2.445c.729,0,1.716.172,1.716.322,0,.9-.322,5.383-.322,6.927,0,0,0,.408.171.408s.172,0,.322-.172,4.4-4.8,8.793-4.8a8.258,8.258,0,0,1,7.978,4.718c2.359-3.346,5.7-6.434,10.273-6.434,10.187,0,10.423,14.5,10.423,28.438,0,5.383-.322,9.522-.322,9.522a13,13,0,0,1-7.013,1.63,7.959,7.959,0,0,1-2.617-.407,133.457,133.457,0,0,0,.9-14.348c0-8.321-.322-14.176-4.976-14.176a5.833,5.833,0,0,0-4.89,3.582C299.256,230.858,299.256,233.453,299.256,240.316Z" transform="translate(-10181.314 -20494.121)" fill="#40c1c9"/>
      <path id="パス_25996" data-name="パス 25996" d="M295.31,234.179c0-10.595,6.434-20.289,19.731-20.289,3.839,0,10.273,1.63,10.273,8.879,0,6.927-6.112,14.348-16.535,17.929,0,.493,1.716,2.145,5.941,2.145a19.709,19.709,0,0,0,9.78-2.145.279.279,0,0,1,.172,0c.172,0,.236,1.072.236,1.544a13.191,13.191,0,0,1-2.144,7.335s-2.767,1.866-10.724,1.866C300.757,251.379,295.31,243.722,295.31,234.179Zm17.929-12.868c-4.4,0-8.407,5.212-8.407,11.645,0,.9,0,1.137.322,1.137,3.431,0,10.595-4.976,10.595-10.423a2.295,2.295,0,0,0-2.509-2.445Z" transform="translate(-10152.984 -20493.217)" fill="#40c1c9"/>
    </g>
    <path id="パス_25997" data-name="パス 25997" d="M84.771,249.73,91.677,268.5H87.645l-1.458-4.289H79.237l-1.48,4.289H73.79l7.292-18.766Zm.45,11.688-1.544-4.482q-.279-.794-.493-1.48c-.129-.451-.279-.922-.407-1.394h-.129q-.386,1.458-.9,2.9l-1.566,4.461Z" transform="translate(-10406.551 -20452.193)" fill="#40c1c9"/>
    <path id="パス_25998" data-name="パス 25998" d="M85.566,255.98v-2.016a4.89,4.89,0,0,1,1.2-3.56,4.739,4.739,0,0,1,3.539-1.223,8.638,8.638,0,0,1,1.222,0,7.268,7.268,0,0,1,1.051.214v3.046l-.751-.172h-.751a1.673,1.673,0,0,0-1.394.515,2.145,2.145,0,0,0-.408,1.394v1.759h2.852v3.131h-2.81v10.037H85.566v-9.994H83.7V255.98Z" transform="translate(-10395.207 -20452.846)" fill="#40c1c9"/>
    <path id="パス_25999" data-name="パス 25999" d="M90.741,254.629V250.34h3.732v4.289h3.11v3.131h-3.11v5.126a2.3,2.3,0,0,0,.386,1.544,1.7,1.7,0,0,0,1.265.408h.815a4.62,4.62,0,0,0,.793-.171v3.024a9.087,9.087,0,0,1-1.287.257,9.651,9.651,0,0,1-1.287,0,5.7,5.7,0,0,1-2.145-.322,3.348,3.348,0,0,1-1.373-.944,3.667,3.667,0,0,1-.751-1.5,8.016,8.016,0,0,1-.214-1.952v-5.469H89.09v-3.131Z" transform="translate(-10389.037 -20451.494)" fill="#40c1c9"/>
    <path id="パス_26000" data-name="パス 26000" d="M104.656,252.721a6.2,6.2,0,0,1,2.145,1.523,6.436,6.436,0,0,1,1.287,2.145,7.957,7.957,0,0,1,.45,2.638v.472a2.679,2.679,0,0,1,0,.515H98.629a3.089,3.089,0,0,0,.279,1.287,3.792,3.792,0,0,0,.729,1.072,3.408,3.408,0,0,0,1.072.751,3.24,3.24,0,0,0,1.33.279,3.067,3.067,0,0,0,1.544-.365,3.321,3.321,0,0,0,1.094-1.008h3.6a8.028,8.028,0,0,1-.858,1.587,5.768,5.768,0,0,1-1.287,1.33,6.065,6.065,0,0,1-1.8.9,7.609,7.609,0,0,1-2.316.322,7.419,7.419,0,0,1-2.767-.515,6.434,6.434,0,0,1-2.145-1.458,6.819,6.819,0,0,1-1.48-2.252A7.679,7.679,0,0,1,95.09,259a7.87,7.87,0,0,1,.45-2.681,6.435,6.435,0,0,1,1.33-2.145,6.22,6.22,0,0,1,2.145-1.5,7.076,7.076,0,0,1,2.874-.558A6.922,6.922,0,0,1,104.656,252.721Zm-4.139,2.252a2.916,2.916,0,0,0-.944.622,3.069,3.069,0,0,0-.622.9,3.283,3.283,0,0,0-.279,1.051h6.155a3.3,3.3,0,0,0-.944-1.973,2.852,2.852,0,0,0-2.145-.836,3.13,3.13,0,0,0-1.222.236Z" transform="translate(-10382.169 -20449.457)" fill="#40c1c9"/>
    <path id="パス_26001" data-name="パス 26001" d="M111.84,255.589h-.986a3.066,3.066,0,0,0-2.466.986,4.16,4.16,0,0,0-.836,2.767v6.434h-3.71v-13.19h3.624v2.037h0a5.47,5.47,0,0,1,1.544-1.694,3.8,3.8,0,0,1,2.316-.729,5.449,5.449,0,0,1,1.2.107v3.474Z" transform="translate(-10372.153 -20449.365)" fill="#40c1c9"/>
    <path id="パス_26002" data-name="パス 26002" d="M116.138,255.03a1.48,1.48,0,0,0-1.051-.386,1.329,1.329,0,0,0-1.008.365,1.115,1.115,0,0,0-.343.794,1.334,1.334,0,0,0,0,.515,1.222,1.222,0,0,0,.386.472,4.033,4.033,0,0,0,.815.472,12.222,12.222,0,0,0,1.351.515,6.24,6.24,0,0,1,2.938,1.737,3.8,3.8,0,0,1,.858,2.466,4.074,4.074,0,0,1-.343,1.673,3.965,3.965,0,0,1-.987,1.351,4.5,4.5,0,0,1-1.587.9,6.817,6.817,0,0,1-2.145.322,5.19,5.19,0,0,1-3.753-1.2,4.547,4.547,0,0,1-1.33-3.131h3.324a2.144,2.144,0,0,0,.493,1.287,1.715,1.715,0,0,0,1.351.493,1.479,1.479,0,0,0,1.115-.407,1.372,1.372,0,0,0,.407-.987,1.437,1.437,0,0,0-.558-1.158,6.8,6.8,0,0,0-2.145-.965,6.886,6.886,0,0,1-2.831-1.566,3.453,3.453,0,0,1-.944-2.531,3.732,3.732,0,0,1,.343-1.609,3.475,3.475,0,0,1,.987-1.244,4.8,4.8,0,0,1,1.5-.794,6.16,6.16,0,0,1,1.93-.279,4.761,4.761,0,0,1,3.389,1.137,4.612,4.612,0,0,1,1.416,2.853H116.5A1.609,1.609,0,0,0,116.138,255.03Z" transform="translate(-10365.171 -20449.451)" fill="#40c1c9"/>
    <path id="パス_26003" data-name="パス 26003" d="M126.3,252.536a6.114,6.114,0,0,1,1.866,1.137,5.768,5.768,0,0,1,1.222,1.544,6.087,6.087,0,0,1,.622,1.673h-3.689a2.3,2.3,0,0,0-.9-1.222,3.174,3.174,0,0,0-4.01.622,4.29,4.29,0,0,0-.858,2.81,5.065,5.065,0,0,0,.214,1.523,3.822,3.822,0,0,0,.643,1.244,3.006,3.006,0,0,0,1.051.836,3.2,3.2,0,0,0,1.415.3,2.511,2.511,0,0,0,1.716-.558,3.174,3.174,0,0,0,.9-1.266h3.775a8.077,8.077,0,0,1-.794,1.93,5.942,5.942,0,0,1-1.33,1.587,6.259,6.259,0,0,1-1.866,1.072,6.966,6.966,0,0,1-2.445.407,7.635,7.635,0,0,1-2.745-.493,6.436,6.436,0,0,1-2.145-1.437,6.8,6.8,0,0,1-1.5-2.145,7.461,7.461,0,0,1-.558-2.938,7.636,7.636,0,0,1,.472-2.7,6.434,6.434,0,0,1,3.6-3.732,7.459,7.459,0,0,1,2.938-.558,6.713,6.713,0,0,1,2.4.365Z" transform="translate(-10357.228 -20449.402)" fill="#40c1c9"/>
    <path id="パス_26004" data-name="パス 26004" d="M129.3,249.25v8.278h.107a4.052,4.052,0,0,1,1.716-1.587,5.063,5.063,0,0,1,2.145-.472,5.364,5.364,0,0,1,2.016.365,4.29,4.29,0,0,1,1.587,1.115,5.233,5.233,0,0,1,1.029,1.887,8.575,8.575,0,0,1,.365,2.659v7.571h-3.71v-7.356a3.26,3.26,0,0,0-.665-2.145,2.3,2.3,0,0,0-1.823-.751,2.639,2.639,0,0,0-2.016.836,3.56,3.56,0,0,0-.794,2.509v6.97h-3.71V249.314Z" transform="translate(-10347.303 -20452.742)" fill="#40c1c9"/>
    <path id="パス_26005" data-name="パス 26005" d="M134.419,256.3a6.692,6.692,0,0,1,1.48-2.145,6.78,6.78,0,0,1,2.145-1.458,7.31,7.31,0,0,1,2.788-.515,7.4,7.4,0,0,1,2.852.536,6.628,6.628,0,0,1,2.145,1.48,6.736,6.736,0,0,1,1.437,2.145,7.334,7.334,0,0,1,.515,2.788,7.141,7.141,0,0,1-.515,2.745,6.928,6.928,0,0,1-6.434,4.289,7.124,7.124,0,0,1-2.809-.558,6.866,6.866,0,0,1-2.145-1.5,6.971,6.971,0,0,1-1.48-2.144,7.55,7.55,0,0,1,0-5.6Zm3.453,4.289a3.43,3.43,0,0,0,.708,1.179,3.284,3.284,0,0,0,1.051.772,3.045,3.045,0,0,0,1.308.279,2.938,2.938,0,0,0,2.4-1.072,4.075,4.075,0,0,0,.879-2.659,4.616,4.616,0,0,0-.215-1.437,3.666,3.666,0,0,0-.622-1.18,3,3,0,0,0-1.029-.815,3.132,3.132,0,0,0-1.394-.3,2.982,2.982,0,0,0-2.445,1.051,4.1,4.1,0,0,0-.858,2.681,4.418,4.418,0,0,0,.214,1.544Z" transform="translate(-10337.791 -20449.389)" fill="#40c1c9"/>
    <path id="パス_26006" data-name="パス 26006" d="M143.029,256.3a6.691,6.691,0,0,1,1.48-2.145,6.779,6.779,0,0,1,2.145-1.458,7.833,7.833,0,0,1,5.64.021,6.623,6.623,0,0,1,2.145,1.48,6.73,6.73,0,0,1,1.437,2.145,7.356,7.356,0,0,1,.515,2.788,7.185,7.185,0,0,1-.515,2.745,6.928,6.928,0,0,1-6.434,4.289,7.123,7.123,0,0,1-2.81-.558,6.861,6.861,0,0,1-2.145-1.5,6.969,6.969,0,0,1-1.48-2.144,7.549,7.549,0,0,1,0-5.6Zm3.453,4.289a3.475,3.475,0,0,0,.708,1.179,3.3,3.3,0,0,0,1.051.772,3.068,3.068,0,0,0,1.308.279,2.938,2.938,0,0,0,2.4-1.072,4.074,4.074,0,0,0,.879-2.659,4.611,4.611,0,0,0-.215-1.437,3.689,3.689,0,0,0-.643-1.18,3,3,0,0,0-1.03-.815,3.132,3.132,0,0,0-1.394-.3,2.981,2.981,0,0,0-2.445,1.051,4.1,4.1,0,0,0-.858,2.681,4.415,4.415,0,0,0,.236,1.544Z" transform="translate(-10327.936 -20449.389)" fill="#40c1c9"/>
    <path id="パス_26007" data-name="パス 26007" d="M155.21,249.25v19.817H151.5V249.25Z" transform="translate(-10317.599 -20452.742)" fill="#40c1c9"/>
    <path id="パス_26008" data-name="パス 26008" d="M175.661,259.359v.214a9.312,9.312,0,0,1-.515,3.088,8.217,8.217,0,0,1-1.373,2.509,4.052,4.052,0,0,0,1.008.858,1.91,1.91,0,0,0,.922.257h.815v2.938l-.622.129a5.131,5.131,0,0,1-.815,0,4.031,4.031,0,0,1-1.93-.429,6.2,6.2,0,0,1-1.651-1.394,8.96,8.96,0,0,1-.944.643,9.18,9.18,0,0,1-1.2.6,8.067,8.067,0,0,1-1.437.451,8.578,8.578,0,0,1-4.289-.279,5.448,5.448,0,0,1-1.909-1.179,4.59,4.59,0,0,1-1.115-1.716,5.874,5.874,0,0,1-.365-2.144,5.062,5.062,0,0,1,1.029-3.217,9.027,9.027,0,0,1,2.917-2.316,14.417,14.417,0,0,1-1.158-2.145,5.62,5.62,0,0,1-.493-2.338,4.549,4.549,0,0,1,.3-1.63,3.947,3.947,0,0,1,.944-1.437,4.763,4.763,0,0,1,1.651-1.03,7.4,7.4,0,0,1,4.461,0,4.893,4.893,0,0,1,1.63.858,3.9,3.9,0,0,1,1.458,3.131,4.29,4.29,0,0,1-1.072,2.981,10.208,10.208,0,0,1-3.131,2.295l2.852,3.689a5.747,5.747,0,0,0,.536-1.394,7.427,7.427,0,0,0,.172-1.737v-.257Zm-7.485,6.734a4.567,4.567,0,0,0,1.265-.794l-3.667-4.654a5.253,5.253,0,0,0-1.566,1.5,3.066,3.066,0,0,0-.493,1.673,2.68,2.68,0,0,0,.193,1.008,2.469,2.469,0,0,0,.558.836,2.743,2.743,0,0,0,.858.579,2.829,2.829,0,0,0,1.137.215,4.115,4.115,0,0,0,1.716-.365Zm-1.887-10.723a6.218,6.218,0,0,0,.815,1.373,6.673,6.673,0,0,0,1.887-1.287,2.273,2.273,0,0,0,.644-1.63,1.674,1.674,0,0,0-.45-1.094,1.78,1.78,0,0,0-1.416-.515,1.886,1.886,0,0,0-.794.15,1.649,1.649,0,0,0-.558.407,1.523,1.523,0,0,0-.322.536,1.759,1.759,0,0,0,0,.558,3.9,3.9,0,0,0,.172,1.608Z" transform="translate(-10307.596 -20452.514)" fill="#40c1c9"/>
    <path id="パス_26009" data-name="パス 26009" d="M179.205,261.055l-.579.6v6.82H174.68V249.71h3.946v7.185l6.82-7.185h4.933l-7.892,8.128,8.815,10.724h-5l-6.434-8.043Z" transform="translate(-10291.065 -20452.215)" fill="#40c1c9"/>
    <path id="パス_26010" data-name="パス 26010" d="M188.083,249.4v3.56h-3.9V249.4Zm-.107,6.305V268.9h-3.71v-13.19Z" transform="translate(-10280.19 -20452.57)" fill="#40c1c9"/>
    <path id="パス_26011" data-name="パス 26011" d="M192.574,252.559v1.651h.107a4.053,4.053,0,0,1,1.716-1.587,5.13,5.13,0,0,1,2.145-.472,4.762,4.762,0,0,1,3.624,1.5,6.434,6.434,0,0,1,1.394,4.525v7.571h-3.753v-7.313a3.325,3.325,0,0,0-.665-2.145,2.274,2.274,0,0,0-1.823-.751,2.617,2.617,0,0,0-2.016.858,3.582,3.582,0,0,0-.793,2.509v6.97H188.8v-13.19Z" transform="translate(-10274.902 -20449.424)" fill="#40c1c9"/>
    <path id="パス_26012" data-name="パス 26012" d="M207.507,269v-1.437h0a6.284,6.284,0,0,1-1.716,1.308,5.338,5.338,0,0,1-2.617.6,5.683,5.683,0,0,1-3.946-1.673,6.886,6.886,0,0,1-1.458-2.144,8.042,8.042,0,0,1-.579-3.217,7.765,7.765,0,0,1,.515-2.852,6.994,6.994,0,0,1,1.373-2.145A6.024,6.024,0,0,1,201.073,256a5.79,5.79,0,0,1,2.381-.515,4.718,4.718,0,0,1,2.423.558,5.215,5.215,0,0,1,1.566,1.394h.064v-8.15h3.625v19.817Zm-6.434-5.169a3.643,3.643,0,0,0,.643,1.222,3.256,3.256,0,0,0,1.051.858,3.171,3.171,0,0,0,1.48.322,2.916,2.916,0,0,0,1.244-.279,3.2,3.2,0,0,0,1.051-.793,4.009,4.009,0,0,0,.729-1.2,4.14,4.14,0,0,0,.279-1.523,4.9,4.9,0,0,0-.257-1.587,3.647,3.647,0,0,0-.686-1.244,3.2,3.2,0,0,0-1.051-.794,2.964,2.964,0,0,0-1.287-.279,3.152,3.152,0,0,0-1.5.343,3.284,3.284,0,0,0-1.072.9,3.8,3.8,0,0,0-.643,1.244,4.868,4.868,0,0,0,0,2.81Z" transform="translate(-10265.3 -20452.697)" fill="#40c1c9"/>
    <path id="パス_26013" data-name="パス 26013" d="M215.728,252.721a6.2,6.2,0,0,1,2.145,1.523,6.437,6.437,0,0,1,1.287,2.145,7.961,7.961,0,0,1,.45,2.638v.472a2.674,2.674,0,0,1,0,.515h-9.8a3.09,3.09,0,0,0,.279,1.287,3.79,3.79,0,0,0,.729,1.072,3.407,3.407,0,0,0,1.072.751,3.241,3.241,0,0,0,1.33.279,3.067,3.067,0,0,0,1.544-.365,3.323,3.323,0,0,0,1.094-1.008h3.6a8.022,8.022,0,0,1-.858,1.587,5.766,5.766,0,0,1-1.287,1.33,6.066,6.066,0,0,1-1.8.9,7.608,7.608,0,0,1-2.316.322,7.418,7.418,0,0,1-2.766-.515,6.434,6.434,0,0,1-2.145-1.458,6.819,6.819,0,0,1-1.48-2.252,7.676,7.676,0,0,1-.536-2.938,7.87,7.87,0,0,1,.45-2.681,6.437,6.437,0,0,1,1.33-2.145,6.219,6.219,0,0,1,2.145-1.5,7.076,7.076,0,0,1,2.874-.558A6.926,6.926,0,0,1,215.728,252.721Zm-4.139,2.252a2.917,2.917,0,0,0-.944.622,3.068,3.068,0,0,0-.622.9,3.281,3.281,0,0,0-.279,1.051H215.9a3.3,3.3,0,0,0-.944-1.973,2.852,2.852,0,0,0-2.145-.836,3.13,3.13,0,0,0-1.222.236Z" transform="translate(-10254.905 -20449.457)" fill="#40c1c9"/>
    <path id="パス_26014" data-name="パス 26014" d="M222.935,255.589h-.987a3.066,3.066,0,0,0-2.466.986,4.16,4.16,0,0,0-.836,2.767v6.434H215v-13.19h3.625v2.037h0a5.471,5.471,0,0,1,1.544-1.694,3.8,3.8,0,0,1,2.316-.729,5.449,5.449,0,0,1,1.2.107v3.474Z" transform="translate(-10244.912 -20449.365)" fill="#40c1c9"/>
    <path id="パス_26015" data-name="パス 26015" d="M233.308,270.836a6.863,6.863,0,0,1-5.362,1.909,6.95,6.95,0,0,1-4.5-1.394,5.962,5.962,0,0,1-2.144-3.882h3.71a2.98,2.98,0,0,0,.944,1.608,3.217,3.217,0,0,0,2.145.644,3.11,3.11,0,0,0,2.531-1.008,4.46,4.46,0,0,0,.858-2.938V264.1h0a5.683,5.683,0,0,1-1.673,1.351,5.255,5.255,0,0,1-2.552.557,6.092,6.092,0,0,1-2.424-.472,5.706,5.706,0,0,1-1.973-1.394,6.818,6.818,0,0,1-1.33-2.145,7.932,7.932,0,0,1-.493-2.874,7.8,7.8,0,0,1,.472-2.767,6.67,6.67,0,0,1,1.33-2.145,6.437,6.437,0,0,1,2.016-1.458,6.029,6.029,0,0,1,2.552-.536,5.2,5.2,0,0,1,1.394.172,4.92,4.92,0,0,1,1.137.472,4.293,4.293,0,0,1,.858.644,5.143,5.143,0,0,1,.6.708h.129v-1.587H235V265.5a8.107,8.107,0,0,1-1.694,5.34Zm-8.321-10.509a3.45,3.45,0,0,0,.6,1.18,3.174,3.174,0,0,0,1.051.858,3.24,3.24,0,0,0,1.523.322,3.173,3.173,0,0,0,1.373-.214,3.285,3.285,0,0,0,1.072-.751,3.514,3.514,0,0,0,.708-1.158,4.141,4.141,0,0,0,.257-1.5,4.291,4.291,0,0,0-.257-1.544,3.8,3.8,0,0,0-.708-1.18,2.94,2.94,0,0,0-1.051-.751,3.326,3.326,0,0,0-1.308-.257,3.131,3.131,0,0,0-2.509,1.158,3.711,3.711,0,0,0-.643,1.2,4.287,4.287,0,0,0-.214,1.372,4.829,4.829,0,0,0,.107,1.265Z" transform="translate(-10237.999 -20449.342)" fill="#40c1c9"/>
    <path id="パス_26016" data-name="パス 26016" d="M240.422,265.657v-1.651h-.107a5.747,5.747,0,0,1-1.651,1.48,5.019,5.019,0,0,1-2.638.622,5.749,5.749,0,0,1-2.016-.407,5.643,5.643,0,0,1-1.93-1.244,6.713,6.713,0,0,1-1.458-2.145,8.044,8.044,0,0,1-.579-3.217,7.745,7.745,0,0,1,.515-2.874,6.731,6.731,0,0,1,1.372-2.145,5.943,5.943,0,0,1,1.995-1.394,6.025,6.025,0,0,1,2.4-.472,4.847,4.847,0,0,1,2.509.644,4.282,4.282,0,0,1,.858.665,6.191,6.191,0,0,1,.644.751h.107v-1.716h3.581v13.19Zm-6.434-5.169a3.776,3.776,0,0,0,.622,1.223,2.96,2.96,0,0,0,1.051.858,3.348,3.348,0,0,0,1.523.322,2.919,2.919,0,0,0,1.244-.279,3.308,3.308,0,0,0,1.051-.772,3.839,3.839,0,0,0,.729-1.2,4.138,4.138,0,0,0,.279-1.523,4.765,4.765,0,0,0-.257-1.565,3.493,3.493,0,0,0-.686-1.2A3.088,3.088,0,0,0,237.2,255.3a3.086,3.086,0,0,0-2.574,1.179,3.669,3.669,0,0,0-.643,1.2,4.694,4.694,0,0,0-.214,1.394A4.845,4.845,0,0,0,233.988,260.489Z" transform="translate(-10227.698 -20449.354)" fill="#40c1c9"/>
    <path id="パス_26017" data-name="パス 26017" d="M247.44,255.589h-.987a3.066,3.066,0,0,0-2.466.986,4.161,4.161,0,0,0-.837,2.767v6.434h-3.71v-13.19h3.625v2.037h0a5.47,5.47,0,0,1,1.544-1.694,3.776,3.776,0,0,1,2.316-.729,5.448,5.448,0,0,1,1.2.107v3.474Z" transform="translate(-10216.937 -20449.365)" fill="#40c1c9"/>
    <path id="パス_26018" data-name="パス 26018" d="M246.87,254.629V250.34h3.753v4.289h3.11v3.131h-3.11v5.126a2.3,2.3,0,0,0,.386,1.544,1.7,1.7,0,0,0,1.266.408h.815a4.582,4.582,0,0,0,.794-.171v3.024a9.1,9.1,0,0,1-1.287.257,9.654,9.654,0,0,1-1.287,0,5.7,5.7,0,0,1-2.145-.322,3.324,3.324,0,0,1-1.373-.944,3.671,3.671,0,0,1-.751-1.5,8.11,8.11,0,0,1-.214-1.952v-5.469H245.24v-3.131Z" transform="translate(-10210.298 -20451.494)" fill="#40c1c9"/>
    <path id="パス_26019" data-name="パス 26019" d="M260.739,252.721a6.221,6.221,0,0,1,2.144,1.523,6.434,6.434,0,0,1,1.287,2.145,7.983,7.983,0,0,1,.45,2.638v.472a2.684,2.684,0,0,1,0,.515h-9.8a3.088,3.088,0,0,0,.279,1.287,3.747,3.747,0,0,0,.729,1.073,3.435,3.435,0,0,0,1.072.751,3.241,3.241,0,0,0,1.33.279,3.067,3.067,0,0,0,1.544-.365,3.346,3.346,0,0,0,1.094-1.008h3.6a7.961,7.961,0,0,1-.858,1.587,5.771,5.771,0,0,1-1.287,1.33,6.064,6.064,0,0,1-1.8.9,7.608,7.608,0,0,1-2.316.322,7.418,7.418,0,0,1-2.767-.515,6.434,6.434,0,0,1-2.145-1.458,6.821,6.821,0,0,1-1.48-2.252,7.64,7.64,0,0,1-.536-2.938,7.831,7.831,0,0,1,.451-2.681,6.435,6.435,0,0,1,1.33-2.145,6.2,6.2,0,0,1,2.145-1.5,7.077,7.077,0,0,1,2.874-.558,6.925,6.925,0,0,1,2.659.6Zm-4.139,2.252a2.939,2.939,0,0,0-.944.622,3.07,3.07,0,0,0-.622.9,3.325,3.325,0,0,0-.279,1.051h6.155a3.3,3.3,0,0,0-.944-1.973,2.852,2.852,0,0,0-2.145-.836A3.133,3.133,0,0,0,256.6,254.973Z" transform="translate(-10203.384 -20449.457)" fill="#40c1c9"/>
    <path id="パス_26020" data-name="パス 26020" d="M263.624,252.559v1.651h.107a4.056,4.056,0,0,1,1.716-1.587,5.127,5.127,0,0,1,2.145-.472,4.762,4.762,0,0,1,3.625,1.5,6.433,6.433,0,0,1,1.394,4.525v7.571H268.9v-7.313a3.324,3.324,0,0,0-.665-2.144,2.274,2.274,0,0,0-1.823-.751,2.618,2.618,0,0,0-2.016.858,3.581,3.581,0,0,0-.794,2.509v6.97H260v-13.19Z" transform="translate(-10193.402 -20449.424)" fill="#40c1c9"/>
    <path id="パス_26021" data-name="パス 26021" d="M327.438,136.007a5.383,5.383,0,0,0-1.93-4.5,4.289,4.289,0,0,0-3.968-1.63h-2.466a19.834,19.834,0,0,0-2.7,0,13.823,13.823,0,0,0-2.616.322c-.365,0-.772.172-1.458.257a10.132,10.132,0,0,0-2.145.536,3.77,3.77,0,0,1-1.415.257,1.073,1.073,0,0,1-.772-.214,5.96,5.96,0,0,0-2.831-.858,8.855,8.855,0,0,0-2.509.129,6.776,6.776,0,0,1-1.458,0,8.415,8.415,0,0,1-1.523-.172,11.1,11.1,0,0,0-2.424-.214,7.312,7.312,0,0,0-2.767.493,3.628,3.628,0,0,1-1.222.257,8.835,8.835,0,0,0-2.509.493,5.724,5.724,0,0,1-1.287.3c-.172.107-.493-.129-.794-.279a3.9,3.9,0,0,0-4.826.622,3.946,3.946,0,0,0-.493,4.7,2.382,2.382,0,0,1,.279.858,18.054,18.054,0,0,1-.15,2.145l-.129,1.2a11.508,11.508,0,0,0,0,2.338,5.316,5.316,0,0,1,0,1.609,10.148,10.148,0,0,0-.129,2.338,2.788,2.788,0,0,1-.214,1.416c0,.279,0,.279-.515.515a6.006,6.006,0,0,0-2.316,2.145,7.4,7.4,0,0,0-1.029,2.745,3.367,3.367,0,0,1-.429,1.244,6.779,6.779,0,0,1-.836,1.244,10.1,10.1,0,0,0-1.373,2.145,7.892,7.892,0,0,0-.794,2.574,3.283,3.283,0,0,1-.386,1.244,5.618,5.618,0,0,1-.836,1.287,10.122,10.122,0,0,0-1.351,2.145,3.925,3.925,0,0,1-.879,1.265,12.155,12.155,0,0,0-1.372,1.63,4.462,4.462,0,0,1-1.072,1.18,13.454,13.454,0,0,0-1.458,1.351c-.557.579-.879.965-1.158,1.265a12.716,12.716,0,0,1-1.437,1.437,5.64,5.64,0,0,0-1.759,2.745c-.15.45-.15.45-.386.643a9.723,9.723,0,0,1-1.244.793,9.97,9.97,0,0,0-2.145,1.544,3.28,3.28,0,0,1-1.094.665,6.755,6.755,0,0,0-2.531,1.78q-.567.595-1.072,1.244a3.174,3.174,0,0,1-1.287,1.029,9.806,9.806,0,0,0-1.823,1.33,1.822,1.822,0,0,1-1.115.579,1.458,1.458,0,0,1-.922,0,5.1,5.1,0,0,0-3.689.172,18.059,18.059,0,0,0-3.581,1.823l-.429.257a5.812,5.812,0,0,0-2.145,2.4l-.429.45a1.715,1.715,0,0,1-1.158,0,8.383,8.383,0,0,0-2.531,0,7.037,7.037,0,0,0-2.7.9,1.844,1.844,0,0,1-1.072.322,1.244,1.244,0,0,1-.922-.257,6.434,6.434,0,0,0-2.9-.879,6.757,6.757,0,0,1-1.458-.236,9.888,9.888,0,0,0-2.767-.343,5.619,5.619,0,0,0-3.239,1.008,1.715,1.715,0,0,1-.944.365l-1.18.129a6.883,6.883,0,0,1-2.424,0,1.094,1.094,0,0,1-.836-.386,7.078,7.078,0,0,0-2.338-1.437,9.975,9.975,0,0,1-1.48-.686,11.921,11.921,0,0,0-2.338-1.03,9.566,9.566,0,0,0-2.6-.515,6.182,6.182,0,0,1-1.458-.257l-.944-.257a14.986,14.986,0,0,1-2.531-.9,7.89,7.89,0,0,0-2.509-.622,2.144,2.144,0,0,1-1.137-.365l-1.823-1.008-1.673-.922L191.68,181.9a1.437,1.437,0,0,1-.686-.708,7.229,7.229,0,0,0-2.359-2.4A25.373,25.373,0,0,1,186,176.756c-.793-.665-1.137-.987-1.523-1.33l-1.437-1.287a9.342,9.342,0,0,1-1.18-1.223,13.3,13.3,0,0,0-1.63-1.694,6.435,6.435,0,0,0-2.509-1.415c-.408-.129-.408-.129-.622-.429a1.051,1.051,0,0,1-.279-.836,6.755,6.755,0,0,0-.579-2.724,10.891,10.891,0,0,0-1.222-2.145,6.969,6.969,0,0,1-.772-1.394,9.07,9.07,0,0,1-.536-1.544,12.861,12.861,0,0,0-.751-2.145,7.1,7.1,0,0,0-1.63-2.4,2.9,2.9,0,0,1-.729-1.008,11.54,11.54,0,0,1-.622-1.523,13.312,13.312,0,0,0-.987-2.295c-.407-.751-.686-1.2-.922-1.587a9.08,9.08,0,0,1-.879-1.737,10.008,10.008,0,0,0-1.158-2.145,4.159,4.159,0,0,1-.708-1.608,17.283,17.283,0,0,1-.686-3.431,11.1,11.1,0,0,1,0-2.338V137.38a3.652,3.652,0,0,1,.472-.708,3.753,3.753,0,0,0,.3-5.04,4.611,4.611,0,0,0-4.44-1.566,4.1,4.1,0,0,1-1.158,0,7.057,7.057,0,0,0-2.853,0,4.439,4.439,0,0,1-1.244.107H154.62a23.547,23.547,0,0,0-2.981,0,5.134,5.134,0,0,1-1.5,0,11.783,11.783,0,0,0-2.145-.236,5.447,5.447,0,0,0-3.153.9c-.386.215-.386.215-.622.215s-.15,0-.515-.343a4.74,4.74,0,0,0-3.474-1.48h0a4.74,4.74,0,0,0-3.474,1.458c-.343.322-.343.322-.515.322a5.837,5.837,0,0,1-1.48,0,9.751,9.751,0,0,0-2.4,0,2.016,2.016,0,0,1-.965-.15,6.24,6.24,0,0,0-2.852-.408h-.879a4.654,4.654,0,0,0-3.946,1.844,4.461,4.461,0,0,0-1.48,4.075v.858A15.013,15.013,0,0,0,122,139.46c0,.343.129.751.193,1.416a15.134,15.134,0,0,1,0,1.544,13.525,13.525,0,0,0,.257,2.552,9.44,9.44,0,0,0,.729,2.359,4.119,4.119,0,0,1,.386,1.33c.129.836.214,1.33.279,1.759s.172.987.3,2.145a7.507,7.507,0,0,0,.794,2.767,5.491,5.491,0,0,1,.45,1.222,2.252,2.252,0,0,1,0,1.072,5.812,5.812,0,0,0,.386,3.217,12.523,12.523,0,0,1,.665,1.995,6.854,6.854,0,0,0,.386,1.48,7.314,7.314,0,0,0,1.18,2.445,1.865,1.865,0,0,1,.429,1.008,12.052,12.052,0,0,0,.772,2.917l.429,1.18a13.463,13.463,0,0,0,1.265,2.917l.493.9a2,2,0,0,1,.279,1.03,6.283,6.283,0,0,0,.815,2.874,11.774,11.774,0,0,0,1.287,1.973,8.4,8.4,0,0,1,.879,1.33,3.537,3.537,0,0,1,.429,1.2,7.336,7.336,0,0,0,1.072,2.659,7.225,7.225,0,0,0,1.952,2.145,3.432,3.432,0,0,1,.9.9,9.244,9.244,0,0,0,1.716,1.866,5.056,5.056,0,0,1,.987,1.051,6.709,6.709,0,0,1,.772,1.33,10.719,10.719,0,0,0,1.223,2.145,15.017,15.017,0,0,0,1.973,2.381l.794.815a13.406,13.406,0,0,1,.944,1.072,11.452,11.452,0,0,0,2.145,1.973A7.056,7.056,0,0,0,152,203.714a1.63,1.63,0,0,1,.9.536c.172.172.172.172.214.622a5.64,5.64,0,0,0,1.18,3.067,17.009,17.009,0,0,0,3.024,3.26,10.32,10.32,0,0,0,2.531,1.759,13.494,13.494,0,0,1,1.18.665,18.1,18.1,0,0,0,1.93,1.029,13.954,13.954,0,0,1,1.544.836,9.02,9.02,0,0,1,1.33.944,13.17,13.17,0,0,0,1.844,1.33,5.92,5.92,0,0,0,2.938.922,1.2,1.2,0,0,1,.815.257c.3.214.322.257.515.686a5.792,5.792,0,0,0,1.909,2.509,7.872,7.872,0,0,0,2.574,1.394,6.433,6.433,0,0,1,1.265.558,7.485,7.485,0,0,0,2.7,1.008,5.794,5.794,0,0,1,1.287.365,1.823,1.823,0,0,1,.836.6,6.176,6.176,0,0,0,2.509,1.716,11.443,11.443,0,0,0,2.316.665,8.577,8.577,0,0,1,1.523.429c.643.236,1.051.407,1.394.558a15.492,15.492,0,0,0,2.488.858,6.778,6.778,0,0,0,2.96.214,3.2,3.2,0,0,1,1.2,0,3.089,3.089,0,0,1,1.223.451,8.409,8.409,0,0,0,2.338.965l1.394.343a22.908,22.908,0,0,1,2.273.643,2.359,2.359,0,0,1,.965.558,5.963,5.963,0,0,0,2.917,1.416,6.285,6.285,0,0,0,3.153,0,3.024,3.024,0,0,1,1.18-.129,4.294,4.294,0,0,1,1.394.3,9.668,9.668,0,0,0,2.381.558h.965a7.033,7.033,0,0,0,1.823-.236,2.424,2.424,0,0,1,1.158,0,13.5,13.5,0,0,0,3.046.193h1.2a12.575,12.575,0,0,0,2.7-.236c.343,0,.751-.15,1.437-.214l1.523-.129a16.7,16.7,0,0,0,2.595-.343,10.714,10.714,0,0,0,2.381-.729,8.573,8.573,0,0,1,1.458-.472,2.359,2.359,0,0,1,1.179,0,7.57,7.57,0,0,0,2.617,0,6.435,6.435,0,0,0,2.745-1.051,1.394,1.394,0,0,1,.879-.322,1.629,1.629,0,0,1,.944.193,5.534,5.534,0,0,0,3.26.45,32.447,32.447,0,0,0,4.161-.429,5.685,5.685,0,0,0,2.9-1.566,2.251,2.251,0,0,1,.879-.579,4.656,4.656,0,0,1,1.137-.6,7.1,7.1,0,0,0,2.831-.965,13.121,13.121,0,0,0,1.823-1.2,6.436,6.436,0,0,1,1.394-.858,17.152,17.152,0,0,1,1.952-.836l1.544-.579c.772-.322,1.2-.45,1.587-.6s1.051-.365,2.145-.815a5.081,5.081,0,0,1,1.394-.408,9.547,9.547,0,0,0,2.466-.772,5.682,5.682,0,0,0,2.488-2.145,1.565,1.565,0,0,1,.686-.643,2.25,2.25,0,0,1,1.051-.3,6.177,6.177,0,0,0,2.938-.965,7.251,7.251,0,0,0,2.145-1.93,3.948,3.948,0,0,1,.922-.922,27.328,27.328,0,0,0,2.616-2.145l.558-.493a6.819,6.819,0,0,1,1.244-.9,11.274,11.274,0,0,0,1.952-1.416,14.565,14.565,0,0,0,1.608-1.63,9.383,9.383,0,0,1,1.115-.922,21.435,21.435,0,0,0,2.96-2.96,3.154,3.154,0,0,1,.922-.751,6.434,6.434,0,0,0,2.295-2.145,8.193,8.193,0,0,0,1.115-2.359,3.365,3.365,0,0,1,.579-1.18,8.987,8.987,0,0,0,1.18-2.145,4.073,4.073,0,0,1,.686-1.2c.793-1.008,1.051-1.394,1.437-1.952l.879-1.244c.751-1.029,1.008-1.437,1.351-1.994l.858-1.287c.15-.236.15-.236.579-.408a5.619,5.619,0,0,0,3.732-5.147c0-.472,0-.472.193-.665a1.425,1.425,0,0,1,.708-.407,4.955,4.955,0,0,0,2.917-2.145,6.048,6.048,0,0,0,.986-3.067,2.788,2.788,0,0,1,.236-1.115,5,5,0,0,1,.708-1.244,9.044,9.044,0,0,0,1.265-2.145,6.281,6.281,0,0,0,.493-2.981,1.93,1.93,0,0,1,.15-1.051,13.031,13.031,0,0,1,.686-1.5,14.664,14.664,0,0,0,.944-2.145,1.437,1.437,0,0,1,.536-.751,5.769,5.769,0,0,0,1.78-2.681c.193-.579.343-.965.472-1.308a15.029,15.029,0,0,0,.794-2.788,5.534,5.534,0,0,0-.3-3.389,1.7,1.7,0,0,1-.172-.965,16.307,16.307,0,0,0,0-2.145,8.863,8.863,0,0,1,.107-1.737,5.088,5.088,0,0,1,.407-1.5,11.287,11.287,0,0,0,.686-2.145,16.729,16.729,0,0,0,.429-3.067v-1.094a2.6,2.6,0,0,1,.322-1.115,5.984,5.984,0,0,0,.686-3.217Zm-10.916,28.546a16.9,16.9,0,0,0-.879,1.952,6.153,6.153,0,0,0-.45,1.952h-.15l-1.844,1.029c0-.172-.172-.343-.279-.536a2.273,2.273,0,0,0-1.373-1.094,2.315,2.315,0,0,0-1.18,0c2.617-1.609,4.783-2.981,6.563-4.182A7.066,7.066,0,0,1,316.521,164.553Zm5.662-25.479a6.7,6.7,0,0,0-.279,1.458v1.158a13.494,13.494,0,0,1-.343,2.423,6.861,6.861,0,0,1-.45,1.415,5.793,5.793,0,0,0-1.995.236,2.295,2.295,0,0,0-3.174-.9l-1.651.965-.858.493-6.112,3.539,2.852-1.952c7.914-5.426,11.024-7.571,12.01-8.814ZM287.675,145.4a9.731,9.731,0,0,0,.107-1.072,2.273,2.273,0,0,0,1.051.708h.15l-1.415,1.33a5.218,5.218,0,0,1,.107-.965Zm-7.635,16.364a3.3,3.3,0,0,1,.386-1.244,5.555,5.555,0,0,1,.837-1.308,12.16,12.16,0,0,0,1.094-1.609h0a2.144,2.144,0,0,0,.429,1.308,2.294,2.294,0,0,0,1.437,1.115h.129l-4.826,3.389a9.131,9.131,0,0,0,.515-1.63Zm40.234-27.3a3.666,3.666,0,0,0,1.544-.15,3.094,3.094,0,0,1,.365.343c.472.515.622.686.622.686a4.885,4.885,0,0,1,0,.815v.622a1.586,1.586,0,0,1-.236,1.029v.236a2.726,2.726,0,0,0-.408-.944,2.766,2.766,0,0,0-1.587-1.2,2.423,2.423,0,0,0-1.394,0,2.876,2.876,0,0,0-.45-1.115,2.15,2.15,0,0,0-.451-.515h.343Zm-14.605.408a5.812,5.812,0,0,0,3.174.793,8.13,8.13,0,0,0,2.724-.515,6.048,6.048,0,0,1,1.33-.322,6.288,6.288,0,0,0,1.63-.279l-18.7,10.359,7.914-7.463a2.3,2.3,0,0,0,.643-2.145,2.143,2.143,0,0,0-.364-.665h.772A1.565,1.565,0,0,1,305.669,134.871Zm-13.533.579a4.161,4.161,0,0,1,1.437-.279,8.133,8.133,0,0,0,2.488-.536,2.788,2.788,0,0,1,1.222-.215,7.273,7.273,0,0,1,1.587.15h.558l-4.675,2.745-3.517,2.145c-.236-1.48-.429-2.6-.579-3.5A11.868,11.868,0,0,0,292.136,135.45Zm-68.629,60.265a1.223,1.223,0,0,1,.858-.3,5.616,5.616,0,0,1,1.544.193,10.826,10.826,0,0,0,2.316.386,2,2,0,0,1,1.008.322,6.025,6.025,0,0,0,1.2.493c-7.163,4.289-14.3,8.45-20.482,11.989,9.908-8.386,11.238-10.723,10.959-12.1a6.434,6.434,0,0,0,2.574-.986Zm-13.469,1.8,2.273-1.33a2.27,2.27,0,0,0,.665-.579,5.08,5.08,0,0,0,1.823,1.008l-6.241,3.8c1.373-1.394,1.609-2.166,1.373-2.9Zm-13.962-7.678a6.628,6.628,0,0,0,2.938.944,3.583,3.583,0,0,1,1.2.3,18.312,18.312,0,0,0,3.11,1.094l.9.257a10.23,10.23,0,0,0,2.381.429,5.056,5.056,0,0,1,1.48.3h.215c-7.764,4.289-17.608,9.951-25.329,14.24,4.01-3.667,8.815-7.935,13.426-11.9a2.276,2.276,0,0,0-2.724-3.646c-5.726,3.689-11.881,7.485-17.157,10.53l15.4-14.348a2.143,2.143,0,0,0,.236-.386l.343.193,1.823,1.008Zm-13.318-9.63a31.65,31.65,0,0,0,3.324,2.531,2.143,2.143,0,0,1,.708.794,6.07,6.07,0,0,0,1.244,1.523l-2.145,1.2a2.3,2.3,0,0,0,0-2.145,2.68,2.68,0,0,0-1.565-1.2,4.9,4.9,0,0,0-2.638.429,3.82,3.82,0,0,0-.429-.944,3,3,0,0,0-1.651-1.265,5.984,5.984,0,0,0-3.9.879c2.145-1.8,3.517-3.024,4.461-3.946l.836.751C181.514,179.222,181.879,179.587,182.758,180.209Zm-11.817-14a6.9,6.9,0,0,1,.772,1.416,2.337,2.337,0,0,1,.215,1.072,5.406,5.406,0,0,0,1.137,3.346,5.212,5.212,0,0,0,2.9,2.144,2.343,2.343,0,0,1,.708.343c-1.223.579-2.788,1.373-4.847,2.466a2.3,2.3,0,0,0,.472-2.788,2.573,2.573,0,0,0-1.523-1.18,2.873,2.873,0,0,0-1.673,0,2.144,2.144,0,0,0-.343-1.029,2.552,2.552,0,0,0-1.994-1.072c3.753-3.11,3.86-4.139,3.045-5.6a2.874,2.874,0,0,0-1.63-1.244c-1.351-.365-3.238.279-8.171,3.174l8.042-7.678a2.861,2.861,0,0,1,.365.644,9.077,9.077,0,0,1,.536,1.544,12.858,12.858,0,0,0,.751,2.145,10.89,10.89,0,0,0,1.244,2.4Zm-6.284-12.868a8.691,8.691,0,0,1,.644,1.458,33,33,0,0,0-3.882,1.994,2.273,2.273,0,0,0-2.96-.172l-2.638,1.716,5.276-4.289a2.3,2.3,0,0,0,.579-2.9,2.916,2.916,0,0,0-1.18-1.072,1.909,1.909,0,0,0,0-2.488c-.836-1.48-1.094-1.909-9.758,2.788,2.938-2.38,6.112-4.911,9.308-7.42a26.8,26.8,0,0,0,.665,2.7,7.912,7.912,0,0,0,1.244,2.681,5.358,5.358,0,0,1,.686,1.244,12.876,12.876,0,0,0,1.244,2.488c.214.408.429.772.772,1.394Zm-5.833-18.916a8.041,8.041,0,0,0,1.759,0,4.974,4.974,0,0,0-.815,2.423c-.944.386-2.273,1.008-4.289,2.016l1.222-.965a2.273,2.273,0,0,0,.515-3.067,2.14,2.14,0,0,0-.3-.322l.622-.107a2.787,2.787,0,0,1,1.265.15Zm-11.3-.107a7.669,7.669,0,0,1,1.416.15,9.262,9.262,0,0,0,2.6.172h1.93l-14.176,7.85c3.989-4.161,5.533-5.962,5.9-7.185a6.117,6.117,0,0,0,1.63-.686c.365-.15.343-.214.708-.171Zm-11.281,1.072a5.061,5.061,0,0,0,3.2-1.523l.386-.257.193.129c-2.616,1.63-5.319,3.281-7.721,4.675l2.145-2.745v-.257a9.7,9.7,0,0,0,1.8.107Zm-8.085,12.074a8.92,8.92,0,0,0-.386-1.394c.815-.365,1.823-.858,3.2-1.608-1.18,1.437-2.059,2.295-2.809,3.11Zm-1.716-10.573v-.193l.665-.407a2.425,2.425,0,0,0,.193.729l.107.214-.836,1.094a10.719,10.719,0,0,1-.129-1.308Zm5.018,26.165c-.172-.6-.257-.987-.343-1.33a15.851,15.851,0,0,0-.858-2.616,1.35,1.35,0,0,1,0-.944,6.8,6.8,0,0,0-.129-2.767,9.912,9.912,0,0,0-.772-2.145h0l4.7-2.6c-2.96,2.874-2.6,3.539-1.995,4.59a2.274,2.274,0,0,0,1.415,1.094,2.338,2.338,0,0,0,1.78-.257l5.576-3.367c-8.686,7.549-8.085,8.579-7.356,9.93a2.318,2.318,0,0,0,.686.751,13.9,13.9,0,0,0-1.587,1.372c-.15-.257-.3-.515-.472-.751A2.81,2.81,0,0,1,131.458,163.052Zm2.552,6.734-.279-.772-.172-.493h.15a2.145,2.145,0,0,0,1.8-.3l2.145-1.394Zm3.624,8.922a7.708,7.708,0,0,1-.879-1.33,1.974,1.974,0,0,1-.279-1.03,7.5,7.5,0,0,0-.322-1.608c.643-.236,1.437-.558,2.445-1.029a2.657,2.657,0,0,0,1.094.622c1.63.386,3.324-.472,14.026-7.313l-11.9,11.367a2.273,2.273,0,0,0-.429,2.767,2.359,2.359,0,0,0,1.458,1.115,1.567,1.567,0,0,0,.751,0c-1.308.965-2.295,1.737-3.067,2.38a3.17,3.17,0,0,1-.322-.429,2.809,2.809,0,0,1-.472-1.18,8.043,8.043,0,0,0-.879-2.445,12.16,12.16,0,0,0-1.244-1.823Zm22.841,28.953A13.211,13.211,0,0,1,158.03,205c-.193-.236-.193-.322-.257-.772a5.061,5.061,0,0,0-1.523-3.324,6.09,6.09,0,0,0-2.745-1.673,2.552,2.552,0,0,1-1.008-.515,7.032,7.032,0,0,1-1.351-1.308c-.279-.322-.6-.729-1.158-1.308l-.858-.858a11.836,11.836,0,0,1-1.523-1.823,6.714,6.714,0,0,1-.772-1.33l-.3-.6c.665-.343,1.416-.772,2.381-1.351a2.295,2.295,0,0,0,3.11,3.153l10.123-5.683c-6.949,6.069-7.463,7.249-6.434,9.029a2.381,2.381,0,0,0,1.458,1.115h.172c-.622.772-.408,1.244,0,2.145a2.3,2.3,0,0,0,1.437,1.115,2.487,2.487,0,0,0,.922,0,2.274,2.274,0,0,0,0,2.316,2.423,2.423,0,0,0,1.437,1.115c1.051.3,1.63.429,12.868-5.919L162.749,209.1h0l-.665-.365a5.832,5.832,0,0,1-1.651-1.008Zm7.549,4.461a73.928,73.928,0,0,0,6.734-3.388,46.536,46.536,0,0,0-4.59,5,9.736,9.736,0,0,1-1.287-.944Zm20.31,11.688a7.523,7.523,0,0,1-1.544-.45,1.8,1.8,0,0,1-.836-.579,6.283,6.283,0,0,0-2.445-1.716,9.794,9.794,0,0,0-2.145-.622,3.152,3.152,0,0,1-1.265-.472,10.462,10.462,0,0,0-2.145-.922,3.517,3.517,0,0,1-1.265-.686,1.415,1.415,0,0,1-.536-.751,7.417,7.417,0,0,0-.536-.944l2.145-1.072a2.291,2.291,0,0,0,2.423-.043l4.933-3.153c-4.44,3.217-4.289,3.5-3.41,5.083a2.617,2.617,0,0,0,1.523,1.18c.794.214,2.273.6,17.736-8.364-3.367,2.745-6.992,5.64-10.509,8.364a2.3,2.3,0,0,0-.6,2.917,2.6,2.6,0,0,0,1.523,1.18h0a6.564,6.564,0,0,0-1.18,1.651,13.116,13.116,0,0,0-1.909-.536Zm14.669,3.9-1.308-.322a3.882,3.882,0,0,1-1.2-.493,8.226,8.226,0,0,0-1.029-.515l9.63-5.34,2.81-1.415c-5.9,4.289-6.949,6.606-5.834,8.579a2.251,2.251,0,0,0,.986.9,6.882,6.882,0,0,0-1.415-.643,26.249,26.249,0,0,0-2.7-.708Zm4.289,1.48.236.129a2.364,2.364,0,0,0,.879,0,4.075,4.075,0,0,0,.343.708l.107.129a1.737,1.737,0,0,1-.665-.386,8.855,8.855,0,0,0-1.051-.536Zm19.045,1.437a8.731,8.731,0,0,1-1.887.172h-1.33a8.577,8.577,0,0,1-2.145-.15,6.434,6.434,0,0,0-2.938.129,2.683,2.683,0,0,1-1.18,0,5.3,5.3,0,0,1-1.372-.322,9.736,9.736,0,0,0-1.995-.472l59.557-33.006c-15.013,9.865-31.527,20.675-45.167,29.575a2.274,2.274,0,0,0-.665,3.153,2.145,2.145,0,0,0,.579.6Zm13.34-1.93a3.066,3.066,0,0,1-1.222,0,6.668,6.668,0,0,0-2.981,0,11.393,11.393,0,0,0-2.145.708,7.131,7.131,0,0,1-1.5.45l-.815.129c6.884-4.289,13.919-8.793,20.8-13.018-10.723,7.635-11.517,9.908-11.066,11.2h0a1.888,1.888,0,0,1-1.222.579Zm60.265-36.309a8.578,8.578,0,0,0-1.308,2.295,4.782,4.782,0,0,1-.665,1.2,7.609,7.609,0,0,0-1.223,2.423,2.015,2.015,0,0,0-.129-.407,2.3,2.3,0,0,0-3.088-.858l-17.522,9.715c7.549-4.718,15.87-9.758,24.17-14.712Zm12.375-15.013-.515.322a5.6,5.6,0,0,0-2.724,1.8,5.212,5.212,0,0,0-1.265,3.346v.236a3.046,3.046,0,0,0-.6-.279,15.013,15.013,0,0,0-6.841,1.716c5.64-3.818,9.587-6.563,12.332-8.579v.45a1.587,1.587,0,0,1-.536,1.072Z" transform="translate(-10351.366 -20590.125)" fill="#f6a631"/>
    <path id="パス_26022" data-name="パス 26022" d="M324.478,124.155a4.511,4.511,0,0,1,0-1.373,7.614,7.614,0,0,0,0-2.9,3.155,3.155,0,0,1,0-1.265,6.858,6.858,0,0,0,0-3.067,5.748,5.748,0,0,0-1.565-3,1.651,1.651,0,0,1-.515-.858c-.279-1.051-.386-1.523-.493-2.145s-.193-.965-.407-1.866a9.816,9.816,0,0,0-.879-2.381,4.724,4.724,0,0,1-.515-1.437,1.523,1.523,0,0,1,0-.987,5.789,5.789,0,0,0,0-3.346,11.934,11.934,0,0,1-.322-1.651,13.865,13.865,0,0,0-.536-2.488,8.082,8.082,0,0,0-1.373-2.788,7.191,7.191,0,0,1-.772-1.244c-.257-.515-.429-.9-.558-1.222a13.038,13.038,0,0,0-1.608-2.767,5.877,5.877,0,0,0-2.6-2.145c-.472-.214-.493-.214-.665-.536a2.273,2.273,0,0,1-.365-1.18,7.594,7.594,0,0,0-.708-2.681,6,6,0,0,1-.472-1.415,8.578,8.578,0,0,0-1.008-2.638,7.144,7.144,0,0,0-1.909-2.316,3.774,3.774,0,0,1-.9-.986,1.48,1.48,0,0,1-.257-.922,5.575,5.575,0,0,0-1.137-3.26,6.047,6.047,0,0,0-2.574-2.145,1.953,1.953,0,0,1-.879-.643A18.539,18.539,0,0,0,299,63.89l-.579-.536a6.045,6.045,0,0,1-.944-1.094,7.913,7.913,0,0,0-2.145-2.145c-1.587-1.115-1.63-1.158-3.217-2.4a11.5,11.5,0,0,0-1.973-1.265,5.619,5.619,0,0,1-1.33-.9,12.559,12.559,0,0,1-1.158-1.115,12.679,12.679,0,0,0-1.93-1.759,9.07,9.07,0,0,0-2.381-1.351,5.94,5.94,0,0,1-1.308-.686,2.359,2.359,0,0,1-.858-.858,7.721,7.721,0,0,0-1.823-1.995,8.577,8.577,0,0,0-2.316-1.308,3.025,3.025,0,0,1-1.158-.729,10.719,10.719,0,0,0-2.338-1.716,12.86,12.86,0,0,1-1.287-.794,1.649,1.649,0,0,1-.622-.772,5.362,5.362,0,0,0-2.531-2.552l-1.351-.729a24.373,24.373,0,0,0-2.509-1.2,11.088,11.088,0,0,0-2.595-.794,10.191,10.191,0,0,1-1.566-.429,8.724,8.724,0,0,1-1.458-.643,10.6,10.6,0,0,0-2.6-1.008,19.176,19.176,0,0,0-2.745-.536l-1.544-.236a5.276,5.276,0,0,0-3.582.622c-.429.214-.407.214-.643.172a1.351,1.351,0,0,1-.815-.493,6.112,6.112,0,0,0-2.7-1.673,15.375,15.375,0,0,0-2.681-.643,7.518,7.518,0,0,1-1.544-.3,14.509,14.509,0,0,1-1.544-.429,12.462,12.462,0,0,0-2.659-.579,15.246,15.246,0,0,0-2.809-.193h-1.072a11.945,11.945,0,0,0-2.745.172,13.922,13.922,0,0,1-1.566.172,6.219,6.219,0,0,1-1.566,0,12.094,12.094,0,0,0-2.509-.193,6.048,6.048,0,0,0-3.067.9,1.458,1.458,0,0,1-.922.3,2.145,2.145,0,0,1-1.008-.257,5.984,5.984,0,0,0-3.2-.643,6.241,6.241,0,0,0-3.024.9,2.145,2.145,0,0,1-1.072.365,1.158,1.158,0,0,1-.836-.214,5.576,5.576,0,0,0-3.41-.686,6.241,6.241,0,0,0-2.981,1.115,1.866,1.866,0,0,1-1.008.407,15.7,15.7,0,0,0-3.324.686l-.944.279-1.373.343a12.072,12.072,0,0,0-2.831.987,15.589,15.589,0,0,1-2.145.858l-1.5.515a5.683,5.683,0,0,1-1.63.365,12.871,12.871,0,0,0-2.145.386,10.4,10.4,0,0,0-2.638,1.008,10.188,10.188,0,0,1-1.416.643l-.472.172a25.094,25.094,0,0,0-3.517,1.523,7.891,7.891,0,0,0-2.4,1.716,5.6,5.6,0,0,1-1.094.9,14.568,14.568,0,0,1-1.33.772,11.469,11.469,0,0,0-2.316,1.544l-1.158.965a18.144,18.144,0,0,1-1.952,1.48,1.523,1.523,0,0,1-.987.322,6.755,6.755,0,0,0-2.831.858,8.687,8.687,0,0,0-2.4,1.866,9.112,9.112,0,0,1-1.072,1.008,12.864,12.864,0,0,0-2.273,2.145l-.858.987c-.708.772-1.051,1.115-1.416,1.48s-.729.729-1.415,1.437a6.925,6.925,0,0,0-1.544,2.488,2.339,2.339,0,0,1-.622,1.008,5.041,5.041,0,0,1-1.18.965,9.82,9.82,0,0,0-1.973,1.566l-1.03,1.029c-.557.558-.858.858-1.844,1.8a10.571,10.571,0,0,0-1.716,2.037,8.317,8.317,0,0,1-.965,1.222l-.922.987c-.6.643-.9.944-1.887,2.145a5.272,5.272,0,0,1-1.008.965,7.829,7.829,0,0,0-1.973,2.145A14.82,14.82,0,0,1,138.793,78a12.1,12.1,0,0,0-1.48,2.445,8.17,8.17,0,0,0-.793,2.617,3.11,3.11,0,0,1-.407,1.287,17.914,17.914,0,0,1-1.029,1.737c-.279.407-.579.858-1.051,1.694a11.373,11.373,0,0,1-.836,1.244,10.208,10.208,0,0,0-1.394,2.488,7.25,7.25,0,0,0-.643,2.96,4.546,4.546,0,0,1-.193,1.33,18.092,18.092,0,0,0-.45,2.145,8.581,8.581,0,0,1-.45,1.8,1.716,1.716,0,0,1-.622.9,6.731,6.731,0,0,0-1.737,2.445l-.536,1.2a27.4,27.4,0,0,0-1.072,2.745,8.731,8.731,0,0,0-.536,2.767,5.747,5.747,0,0,1-.236,1.458,3.434,3.434,0,0,1-.536,1.137,6.434,6.434,0,0,0-1.115,3.067,6.61,6.61,0,0,1-.214,1.437,12.862,12.862,0,0,0-.214,3.088,6.026,6.026,0,0,0,.922,3.11,1.48,1.48,0,0,1,.3.965,2.659,2.659,0,0,1-.236,1.244,7.4,7.4,0,0,0-.536,2.788,15.733,15.733,0,0,1-.129,2.145c0,.45-.107.965-.172,1.844a12.86,12.86,0,0,1-.257,1.952c0,.472-.214,1.008-.322,1.973a6.713,6.713,0,0,0,.3,3.3,5.079,5.079,0,0,1,.279,1.33,8.238,8.238,0,0,0,.729,3.045A11.321,11.321,0,0,1,124.6,145a13.731,13.731,0,0,0,.815,2.145,7.031,7.031,0,0,1,.558,1.673,1.451,1.451,0,0,1-.15.686,5.447,5.447,0,0,0-.579,3.41,13.929,13.929,0,0,1,.15,1.566,11.732,11.732,0,0,0,.429,2.788,9.333,9.333,0,0,0,1.115,2.659,7.586,7.586,0,0,1,.665,1.351,7.358,7.358,0,0,0,1.5,2.488,2.915,2.915,0,0,1,.665,1.072,3.754,3.754,0,0,1,.279,1.33,8,8,0,0,0,.6,2.7l.643,1.673c.214.558.386,1.051.836,2.145a7.955,7.955,0,0,0,1.458,2.4,3.69,3.69,0,0,1,.708,1.137,10.184,10.184,0,0,1,.515,1.5,12.284,12.284,0,0,0,1.094,2.745,37.82,37.82,0,0,0,1.866,3.453,4.1,4.1,0,0,1,.493,1.244,7.2,7.2,0,0,0,1.265,2.745,5.747,5.747,0,0,0,2.659,2.145,1.824,1.824,0,0,1,.858.6,2.638,2.638,0,0,1,.6,1.072,7.14,7.14,0,0,0,1.437,2.531l1.373,1.566,1.308,1.48a6.435,6.435,0,0,0,2.488,1.823,2.145,2.145,0,0,1,.9.643,3.325,3.325,0,0,1,.686,1.094,7.422,7.422,0,0,0,1.566,2.4,6.692,6.692,0,0,0,2.423,1.716,2.146,2.146,0,0,1,.944.665c.686.751,1.072,1.137,1.437,1.5s.708.708,1.394,1.458a2.143,2.143,0,0,1,.536.944,5.6,5.6,0,0,0,1.995,2.831l.836.665a14.6,14.6,0,0,0,2.852,1.93,8.576,8.576,0,0,0,2.509.944,3.474,3.474,0,0,1,1.287.515,4.291,4.291,0,0,1,1.158.944,9.61,9.61,0,0,0,1.952,1.63,8.32,8.32,0,0,0,2.552,1.158,5.064,5.064,0,0,1,1.33.558,4.292,4.292,0,0,1,1.094.836,7.786,7.786,0,0,0,2.338,1.673,5.533,5.533,0,0,1,1.244.793,8.9,8.9,0,0,0,2.359,1.437,5.854,5.854,0,0,0,3.281.45,1.694,1.694,0,0,1,1.03,0c1.265.472,1.759.622,2.445.815l1.523.472a1.951,1.951,0,0,1,.922.579,6.134,6.134,0,0,0,2.81,1.587,6.048,6.048,0,0,0,3.217,0,1.738,1.738,0,0,1,1.051,0,11.111,11.111,0,0,1,1.565.493,12.717,12.717,0,0,0,2.381.708c2.145.45,2.145,0,4.139.429,1.287.214,1.8.257,2.445.343l1.651.193a6.435,6.435,0,0,1,1.5.365,10.314,10.314,0,0,0,2.531.558h.815c1.287.129,1.544.172,3.3.322a8.985,8.985,0,0,0,2.681-.129,5.19,5.19,0,0,1,1.48,0H228.4a7,7,0,0,1,1.437.172,8.855,8.855,0,0,0,2.852.15,4.291,4.291,0,0,1,1.33,0,7.507,7.507,0,0,0,1.437.15,7.681,7.681,0,0,0,1.63-.193,7.076,7.076,0,0,0,2.681-1.094,2.509,2.509,0,0,1,1.137-.45c1.973-.343,2.037,0,4.032-.322a9.585,9.585,0,0,0,1.544-.193,15.254,15.254,0,0,0,2.7-.45,12.269,12.269,0,0,0,2.573-.858,13.817,13.817,0,0,1,1.48-.579,19.991,19.991,0,0,0,1.995-.772,14.224,14.224,0,0,1,1.78-.665c1.094-.343,1.566-.45,2.145-.6l1.78-.472a9.209,9.209,0,0,1,1.415-.3,8.578,8.578,0,0,0,2.917-.9,14.76,14.76,0,0,0,3.067-1.823l.772-.558a9.691,9.691,0,0,1,1.737-1.051,21.642,21.642,0,0,0,3.346-2.016,6.887,6.887,0,0,1,1.566-.9,4.294,4.294,0,0,1,1.265-.365,6.626,6.626,0,0,0,3.024-1.158,7.744,7.744,0,0,0,2.252-2.145,6.69,6.69,0,0,1,.944-1.072,4.479,4.479,0,0,1,1.244-.879,10.213,10.213,0,0,0,2.037-1.33,6.562,6.562,0,0,0,1.866-2.338,1.651,1.651,0,0,1,.665-.815,2.294,2.294,0,0,1,1.051-.45,6,6,0,0,0,2.917-1.458,5.834,5.834,0,0,0,1.866-2.788,2.018,2.018,0,0,1,.536-.922,5.213,5.213,0,0,1,1.2-.987,10.727,10.727,0,0,0,1.952-1.544l1.308-1.308c.408-.429.729-.772,1.566-1.544a2.145,2.145,0,0,1,.965-.515,5.362,5.362,0,0,0,3.045-2.145,4.89,4.89,0,0,0,.879-3.925v-.9a14.113,14.113,0,0,1,1.029-1.909c.236-.386.515-.836.944-1.587a2.487,2.487,0,0,1,.815-.965,8.58,8.58,0,0,0,2.981-4.547,3.684,3.684,0,0,1,.536-1.244,2,2,0,0,1,.794-.772,6.264,6.264,0,0,0,2.145-2.252,6.626,6.626,0,0,0,1.029-3.045,3.865,3.865,0,0,1,.322-1.265,6.883,6.883,0,0,0,.622-3.024,4.289,4.289,0,0,1,.172-1.308,10.223,10.223,0,0,1,.686-1.887c.193-.45.429-.944.751-1.8a2.144,2.144,0,0,1,.665-1.008,7.381,7.381,0,0,0,1.651-2.273,9.551,9.551,0,0,1,.729-1.265,8.364,8.364,0,0,0,1.308-2.96,6.434,6.434,0,0,0,0-3.389,4.291,4.291,0,0,1-.15-1.308,8.027,8.027,0,0,1,.236-1.673,12.875,12.875,0,0,0,.343-2.423,6.242,6.242,0,0,0-.579-3.067,1.672,1.672,0,0,1-.215-1.008,2.68,2.68,0,0,1,.322-1.2,7.228,7.228,0,0,0,.751-2.767c0-1.051,0-1.608,0-2.145a15.8,15.8,0,0,1,0-1.887,8.169,8.169,0,0,0-.129-2.788,4.294,4.294,0,0,1,0-1.394q.055-1.077.215-2.145c0-.429.129-.944.214-1.759a7.872,7.872,0,0,0-.15-3A8.1,8.1,0,0,1,324.478,124.155ZM271.14,178.136l-9.437,5.49c37.832-23.184,52.244-32.513,57.434-36.867a1.965,1.965,0,0,0,.257.729,1.76,1.76,0,0,1,.215,1.008,8.911,8.911,0,0,1-.236,1.673,12.266,12.266,0,0,0-.343,2.488,7.981,7.981,0,0,0,0,1.8,12.865,12.865,0,0,0-2.638.558,2.4,2.4,0,0,0-.322-.794,2.295,2.295,0,0,0-3.2-.836l-13.383,8.171C291.75,166.147,281.349,172.2,271.14,178.136Zm46.046-67.686c-.515-.9-.794-1.437-2.96-.643l-.129-.236-2.788,1.544c-3.732,1.844-10.166,5.383-21.447,11.624-14.5,8.021-33.821,18.744-53.123,29.489L211.518,166.34c26.487-16.214,59.579-35.987,88.382-52.973,2.831-1.587,5.276-3.024,7.335-4.289l8-4.933a2.271,2.271,0,0,0,.579-.515,5.214,5.214,0,0,0,0,1.18,9.328,9.328,0,0,0,.9,2.531,5.4,5.4,0,0,1,.536,1.415c.193.815.3,1.287.386,1.716s.236,1.137.558,2.316v.129c-32.706,18.637-74.527,42.143-106.526,59.858,31.248-18.208,72.49-41.435,104.66-59.214a2.273,2.273,0,0,0,.879-3.11Zm.193,15.27a3.538,3.538,0,0,0-1.78-1.351,15.161,15.161,0,0,0-6.734,1.673,115.959,115.959,0,0,0,11.388-8.214,7.379,7.379,0,0,0,0,2.659,3.329,3.329,0,0,1,0,1.373,8.835,8.835,0,0,0-.193,2.552,11.811,11.811,0,0,0,.3,2.145,3.56,3.56,0,0,1,0,1.523,10.6,10.6,0,0,1-.193,1.63c-.043.407-.172,1.222-.257,2.552v.407a3.131,3.131,0,0,0-1.158-.6c-2.424-.622-10.573,2.745-21.919,8.536l19.688-11.731a2.3,2.3,0,0,0,.858-3.153Zm2.424,10.723a2.144,2.144,0,0,0,.322-.3A19.554,19.554,0,0,0,320,138.46v1.759a2.827,2.827,0,0,1-.15.772c-1.5-.214-5.254,1.737-59.75,32.706Zm-5.212-41.156.15.236a28.688,28.688,0,0,0-3.646,1.244l-.472-.193a2.3,2.3,0,0,0-1.737.214L277.467,114.4c14.262-8.879,22.047-14.09,26.186-17.329a44.118,44.118,0,0,0,8.579-5.962,9.319,9.319,0,0,1,.472.922c.15.343.343.772.643,1.351a11.087,11.087,0,0,0,1.244,2.016ZM306.87,82.849a3.153,3.153,0,0,1,.322,1.244,6.671,6.671,0,0,0,.815,2.724,63.444,63.444,0,0,0-9.136,4.161c5.04-4.118,4.44-5.19,3.818-6.327a2.273,2.273,0,0,0-3.153-.858c-39.183,22.905-91.684,53.016-125.978,71.825,34.572-20.589,89.261-51.879,130.31-75.063A2.273,2.273,0,0,0,305,78.409a2.875,2.875,0,0,1,.536.751A4.485,4.485,0,0,1,306.1,80.6a10.548,10.548,0,0,0,.772,2.338Zm-165.976,97.6c-.343-.622-.579-1.072-1.158-2.145-.107-.214-.15-.365-.236-.536a77.023,77.023,0,0,0,10.016-4.289,18.722,18.722,0,0,0-5.769,5.469ZM134.16,164.2a7.778,7.778,0,0,0-.236-.815,7.485,7.485,0,0,0-1.48-2.445,2.853,2.853,0,0,1-.665-1.094c-.15-.365-.257-.643-.386-.9.815-.386,2.145-1.051,4.054-2.145a2.53,2.53,0,0,0,1.394,1.051c2.338.665,13.94-4.954,103.159-55.761-31.291,18.766-68.158,40.148-87.931,51.579C142.61,159.091,137.163,162.223,134.16,164.2Zm26.358-22.733,2.7-1.651c3.517-1.93,7.313-3.968,11.281-6.069C169.5,136.529,164.786,139.124,160.518,141.462Zm142.406-65.2.107.15a2.853,2.853,0,0,0-1.094,0l.815-.45Zm-3.11-5.169a71.564,71.564,0,0,0-7.678,3.389,33.2,33.2,0,0,0,5.876-5.126l.343.429a6.435,6.435,0,0,0,1.458,1.244ZM267.987,44.931a6.112,6.112,0,0,0,2.145,2.4,18.085,18.085,0,0,0,1.673,1.029,6.092,6.092,0,0,1,1.48,1.072,7.4,7.4,0,0,0,2.552,1.587,4.013,4.013,0,0,1,1.2.665,3.177,3.177,0,0,1,.686.987,6.778,6.778,0,0,0,2.145,2.145,10.553,10.553,0,0,0,2.145,1.115,4.59,4.59,0,0,1,1.33.751,8.729,8.729,0,0,1,1.33,1.2,16.687,16.687,0,0,0,1.523,1.48,10.184,10.184,0,0,0,2.145,1.458,95.322,95.322,0,0,0-13.318,5.426l5.64-3.5a2.3,2.3,0,0,0,.794-3.045,3.26,3.26,0,0,0-1.287-1.287,1.952,1.952,0,0,0-.214-2.145,3.26,3.26,0,0,0-1.694-1.308,3.8,3.8,0,0,0-1.63,0,3,3,0,0,0-.365-1.351,2.3,2.3,0,0,0-3.11-.9l-16.45,9.115c12.868-9.179,11.753-11,10.723-12.7a2.3,2.3,0,0,0-2.938-.987,2.761,2.761,0,0,0-.279-.729,2.316,2.316,0,0,0-1.394-1.094c-1.287-.365-1.266-.386-31.827,17.458-27,15.742-73.24,42.722-91.792,51.965,3.26-2.4,7.742-5.362,13.147-8.772C179.842,92.5,223.829,68.8,245.769,54.067c6.67-3.582,13.1-6.992,19.087-10.144a2.3,2.3,0,0,0,.708-.6l.3.15,1.458.772C267.752,44.459,267.752,44.48,267.987,44.931Zm-104.3,47.376c-5.555,3.2-10.723,6.134-15.184,8.579C152.9,98.29,158.116,95.352,163.692,92.307Zm72.726-56.4a8.577,8.577,0,0,1,1.844.407,18.19,18.19,0,0,0,1.952.536c.836.193,1.351.257,1.8.343a12.055,12.055,0,0,1,2.016.493,1.715,1.715,0,0,1,.858.558,6.435,6.435,0,0,0,1.373,1.051c-10.487,5.576-33.543,18.423-85.508,47.633,22.433-14.09,53.445-32.384,76.222-45.467a2.273,2.273,0,0,0,.858-3.088,2.487,2.487,0,0,0-1.458-1.137c-.729-.214-1.587-.15-5.083,1.544,2.145-1.566,2.917-2.381,3.045-3a16.877,16.877,0,0,1,2.08.129Zm-24.556,1.415c-1.694.944-3.539,1.973-5.812,3.3l-7.571,4.289,10.294-6.434a2.273,2.273,0,0,0,1.008-1.458,5.169,5.169,0,0,0,2.059.3Zm-18.7,4.032,1.394-.472.836-.279-5.9,3.281a15.019,15.019,0,0,0,2.145-2.145,11.558,11.558,0,0,0,1.5-.386ZM138.836,88.9a22.089,22.089,0,0,0,1.244-2.145,2.3,2.3,0,0,0,1.351,1.051,2.616,2.616,0,0,0,.772,0c-2.145,1.33-3.6,2.381-4.783,3.238.15-.236.3-.472.515-.815C138.321,89.626,138.6,89.24,138.836,88.9Zm-3.517,8.429a1.2,1.2,0,0,1,.129-.665,2.347,2.347,0,0,0,.343.172c.515.15.9.236,2.659-.536-1.308.965-2.445,1.823-3.474,2.616a14.119,14.119,0,0,1,.343-1.609ZM127.4,138.074a2.274,2.274,0,0,1-.129-1.33,5.825,5.825,0,0,1,.279-1.651,16.328,16.328,0,0,0,.343-2.531,4.594,4.594,0,0,1,.15-1.609,19.445,19.445,0,0,0,.15-2.552,3,3,0,0,1,.236-1.244,7.1,7.1,0,0,0,.515-2.874,5.941,5.941,0,0,0-.9-3.2,1.609,1.609,0,0,1-.322-.965,8.836,8.836,0,0,1,.15-2.145c0-.408.15-.922.236-1.651a1.93,1.93,0,0,1,.407-1.094,7.7,7.7,0,0,0,1.223-2.509,10.084,10.084,0,0,0,.386-2.445,4.29,4.29,0,0,1,.3-1.48v-.214h.171a3.043,3.043,0,0,0-.193.472,3,3,0,0,0,.214,2.338,3.153,3.153,0,0,0,1.373,1.18l-2.145,1.115a2.295,2.295,0,0,0-.944,3.131,2.6,2.6,0,0,0,1.437,1.137,5.534,5.534,0,0,0-1.158,1.844,3.132,3.132,0,0,0,.214,2.488,2.551,2.551,0,0,0,.643.729,1.458,1.458,0,0,0-.472.794,2.295,2.295,0,0,0,3.3,2.659l5.448-3.024,11.5-6.069c36.138-19.023,62.367-33.221,80.575-43.665-28.567,17.736-69.83,41.456-99.963,58.228h0a2.295,2.295,0,0,0,1.158,4.289A2.809,2.809,0,0,0,132.9,139.4c-4.59,2.938-4.289,3.539-3.625,4.7a2.9,2.9,0,0,0,1.63,1.244c3.067.793,12.868-4.933,49.327-27.366l27.709-15.442-51.472,31.956c-10.359,6.434-18.594,11.5-23.27,14.412a2.273,2.273,0,0,0-.922,2.724,27.033,27.033,0,0,0-2.145,1.8A3.135,3.135,0,0,0,130,152.4c-.129-.407,0-.343.193-.794a5.19,5.19,0,0,0,.472-3.646,11.083,11.083,0,0,0-.879-2.595,10.1,10.1,0,0,1-.579-1.523,15.79,15.79,0,0,0-.665-1.78,4.055,4.055,0,0,1-.365-1.63,9.541,9.541,0,0,0-.793-2.359Zm47.526-24.428c-13.511,8.043-25.736,15.12-33.264,18.852,6.97-4.654,19.516-11.581,33.242-18.852Zm-39.355,55.761.686-.193a3.2,3.2,0,0,0,.279,1.694A2.3,2.3,0,0,0,137.935,172a3.025,3.025,0,0,0,2.016-.429,27.411,27.411,0,0,0-2.145,1.844,9.626,9.626,0,0,0-.772-1.051,3.407,3.407,0,0,1-.708-1.158c-.45-.987-.622-1.437-.794-1.887Zm12.289,21.018a7.118,7.118,0,0,0-1.437-2.531,6.433,6.433,0,0,0-2.509-1.823,1.48,1.48,0,0,1-.6-.407c9.351-1.394,38.6-18.787,94.58-52.995l13.3-8.128,7.163-3.6c-31.612,19.3-73.8,44.116-106.59,63.117a2.273,2.273,0,0,0-1.115,2.273,2.14,2.14,0,0,0,.15.579,4.547,4.547,0,0,0-.622,1.2,2.681,2.681,0,0,0,0,.322c-1.094,1.137-.987,1.737-.686,2.338a4.452,4.452,0,0,0-.751.965l-.193-.236a2.639,2.639,0,0,1-.729-1.158Zm16.493,17.844a6.692,6.692,0,0,0-1.437-2.488c-.772-.858-1.158-1.244-1.566-1.673s-.665-.665-1.287-1.351A6.627,6.627,0,0,0,157.6,201a2.293,2.293,0,0,1-.944-.643,2.959,2.959,0,0,1-.708-1.094,7.787,7.787,0,0,0-1.48-2.338,6.434,6.434,0,0,0-2.445-1.759l-.407-.214a92.1,92.1,0,0,0,8.15-4.59c7.356-3.088,19.624-10.016,38.046-21.1-41.22,25.457-40.448,26.873-39.226,29.1a2.273,2.273,0,0,0,1.373,1.094,2.145,2.145,0,0,0,1.737-.193l1.2-.665a5.534,5.534,0,0,0-1.566,1.909,2.981,2.981,0,0,0,.215,1.995,2.337,2.337,0,0,0,1.394,1.094c1.008.279,2.295.729,95.095-51.472l-10.1,6.112c-31.655,18.208-65.8,38.84-81.883,48.662a2.252,2.252,0,0,0-1.072,2.145l-.172-.15a1.158,1.158,0,0,1-.493-.708Zm4.868,3.41a4.034,4.034,0,0,1-1.308-.493h0a2.147,2.147,0,0,0,.579-.193c.386-.236,39.226-23.012,77.208-45.917l1.18-.708c9.93-5.748,19.452-11.174,28.074-15.956-10.209,6.134-21.447,12.868-32.728,19.774-49.542,30.025-65.455,40.427-70.109,44.781l-.3-.214a7.939,7.939,0,0,0-2.638-1.158Zm11.581,6.863a8.709,8.709,0,0,0-2.145-1.566,9.371,9.371,0,0,0-2.316-.965h0c37.146-22.862,90.076-54.41,119.694-69.959L183.059,216.461a2.3,2.3,0,0,0-.794,3.045v.107l-.45-.257a3.474,3.474,0,0,1-1.029-.9Zm10.723,4.139c-.6-.172-1.03-.3-2.145-.708a6.241,6.241,0,0,0-3.11-.365,1.373,1.373,0,0,1-.987-.107,4.4,4.4,0,0,1-1.287-.772h0c1.737.279,6.434-1.952,76.843-42.014l4.847-2.767C242.4,190.3,215.314,206.66,193.4,219.764a2.273,2.273,0,0,0-.836,3.067,2.62,2.62,0,0,0,.236.257Zm5.147,2.6a1.608,1.608,0,0,1-.9-.536l-.665-.558a7.919,7.919,0,0,0,1.609-.257,1.888,1.888,0,0,0,.365,1.287l.129.15a1.714,1.714,0,0,1-.515-.172Zm19.8,2.96a5.768,5.768,0,0,1-1.544-.343,10.722,10.722,0,0,0-2.381-.558l-1.8-.214a6.778,6.778,0,0,1-2.145-.3h-.129c12.868-7.228,34.186-19.088,54.324-30.283l-44.588,29.21a2.252,2.252,0,0,0-.922,2.488Zm8.042.15a8.877,8.877,0,0,0-1.694,0l5.64-3.26a2.553,2.553,0,0,0-.686,1.673c-.858.579-.922.858-1.072,1.308v.279h0c-.643-.043-1.094-.021-2.166-.064Zm11.71.493a2.661,2.661,0,0,1-1.33,0,11.382,11.382,0,0,0-1.158-.129l2.145-1.18,8.943-4.654,1.952-1.008c-2.4,1.566-4.118,2.724-5.3,3.6l-1.244.751v.15a5.386,5.386,0,0,0-.987,1.051,6.889,6.889,0,0,0-1.995.922,2.746,2.746,0,0,1-1.029.408Zm25.543-6.82a13.187,13.187,0,0,0-2.016.407l-1.308.365c1.973-1.072,4.289-2.295,6.777-3.753l1.072-.558c-.815.879-1.008,1.437-.986,1.909a11.14,11.14,0,0,1-1.973,1.115,4.139,4.139,0,0,1-1.544.45Zm40.062-29.21c-.214.3-.236.3-.751.472a8.3,8.3,0,0,0-1.63.772h-.472l2.874-1.973v-.043a1.05,1.05,0,0,1,0,.708ZM312.918,171.4a8.149,8.149,0,0,0-.643,2.531,2.145,2.145,0,0,1-.408,1.2,1.844,1.844,0,0,1-.772.772,6.434,6.434,0,0,0-2.145,2.145,7.8,7.8,0,0,0-.536,1.029,4.3,4.3,0,0,0-.236-.515,2.444,2.444,0,0,0-1.437-1.115c-.751-.214-1.887-.558-25.35,12.4l31.934-20.953a10.679,10.679,0,0,0,0,1.244,2.444,2.444,0,0,1-.386,1.158Z" transform="translate(-10350.529 -20702.791)" fill="#40c1c9"/>
    <rect id="長方形_5622" data-name="長方形 5622" width="731" height="626" transform="translate(-10491 -20740)" fill="none"/>
  </g>
</svg>
