<svg id="teacher_1_" data-name="teacher (1)" xmlns="http://www.w3.org/2000/svg" width="47.071" height="47.071" viewBox="0 0 47.071 47.071">
  <circle id="楕円形_170" data-name="楕円形 170" cx="1" cy="1" r="1" transform="translate(11 11.071)" fill="#f6a631"/>
  <ellipse id="楕円形_171" data-name="楕円形 171" cx="0.5" cy="1" rx="0.5" ry="1" transform="translate(17 11.071)" fill="#f6a631"/>
  <path id="パス_39154" data-name="パス 39154" d="M21.736,7.206a.735.735,0,0,0,.52-.215l.736-.736a.735.735,0,1,0-1.04-1.04l-.735.736a.735.735,0,0,0,.52,1.255Z" transform="translate(-5.555 -1.323)" fill="#f6a631"/>
  <path id="パス_39155" data-name="パス 39155" d="M46.336,0H26.478a1.471,1.471,0,0,0-1.471,1.471V20.594a1.471,1.471,0,0,0,1.471,1.471h8.581l-.083,3.024a2.241,2.241,0,0,0-1.441.646l-.914.914L28.3,29.739l-2.115-4.647a3.694,3.694,0,0,0-2.09-1.934l-6.441-2.343V19.159a6.635,6.635,0,0,0,3.507-4.45h.171a2.2,2.2,0,0,0,.758-4.27A2.193,2.193,0,0,0,22.8,8.826V7.42a8.205,8.205,0,0,0-1.383-4.569A5.048,5.048,0,0,0,16.277.7L15.039.077A.735.735,0,0,0,14.71,0H13.39A7.515,7.515,0,0,0,5.884,7.507V9.561a.735.735,0,0,0,.735.735H8.09a2.206,2.206,0,1,0,0,4.413h.171a6.635,6.635,0,0,0,3.507,4.45v1.655L5.323,23.158a3.694,3.694,0,0,0-2.09,1.934L.2,31.767a2.189,2.189,0,0,0-.2.913v7.036a2.206,2.206,0,0,0,2.206,2.206H3.466l-.515,4.325a.735.735,0,0,0,.727.823H25.742a.735.735,0,0,0,.73-.823l-.9-7.541a2.629,2.629,0,0,0,1.661.872,2.726,2.726,0,0,0,.318.018,2.648,2.648,0,0,0,1.7-.616l7.262-6.052c.01-.008.014-.02.024-.028s.018-.01.025-.017l3.31-3.31a2.478,2.478,0,0,0,.183-3.3l-.9-1.122a2.111,2.111,0,0,0-.193-.2l-.176-2.89h7.551a.735.735,0,1,0,0-1.471H38.695l-.407-6.678a1.5,1.5,0,0,0-3.005.049L35.1,20.594H26.478V1.471H46.336a.735.735,0,1,0,0-1.471ZM18.387,42.658H13.239a.735.735,0,0,0,0,1.471h5.148V45.6H11.032V41.923A1.471,1.471,0,0,0,12.5,40.452V36.774A1.471,1.471,0,0,0,11.032,35.3V31.716l1.311-5.273.013,0-.584,5.841a.736.736,0,0,0,.074.4L14.052,37.1a.735.735,0,0,0,1.317,0l2.206-4.413a.735.735,0,0,0,.077-.4l-.588-5.841.013,0,1.311,5.273ZM8.09,36.774h2.942v3.677H8.09ZM13.306,23.9l-.742.74-1.581-1.976.966-.352A2.942,2.942,0,0,0,13.306,23.9Zm2.857,8.324L14.71,35.13l-1.454-2.907.689-6.883.765-.765.765.765Zm.691-7.582-.742-.742a2.942,2.942,0,0,0,1.357-1.586l.966.352Zm4.474-11.4V11.768a.735.735,0,0,1,0,1.471ZM7.355,8.826V7.507A6.044,6.044,0,0,1,13.39,1.471h1.146l1.316.662a.741.741,0,0,0,.507.055A3.577,3.577,0,0,1,20.193,3.67a6.744,6.744,0,0,1,1.136,3.75V8.826a.735.735,0,0,1-.735.735h-.973l-.515-1.284a2.109,2.109,0,0,0-2.7-1.186,2.083,2.083,0,0,0-1.529-.873,2.116,2.116,0,0,0-1.728.662A6.661,6.661,0,0,1,8.09,8.826Zm0,3.677a.735.735,0,0,1,.735-.735v1.471A.735.735,0,0,1,7.355,12.5Zm2.206.735V10.184a7.77,7.77,0,0,0,4.648-2.293.644.644,0,0,1,.535-.207.618.618,0,0,1,.467.277l.357.537a.735.735,0,0,0,1.132.113.635.635,0,0,1,1.041.215l.7,1.746a.735.735,0,0,0,.683.46h.735v2.206a5.148,5.148,0,1,1-10.3,0Zm5.148,6.619a6.6,6.6,0,0,0,1.471-.171v1.642a1.471,1.471,0,0,1-2.942,0V19.688A6.6,6.6,0,0,0,14.71,19.858ZM1.471,39.716V32.68a.742.742,0,0,1,.066-.3L4.571,25.7a2.215,2.215,0,0,1,1.255-1.16l3.7-1.345,1.61,2.013L9.583,31.449a.754.754,0,0,0-.021.177V35.3H5.742l.872-7.267a.736.736,0,1,0-1.461-.175l-.7,5.81-.166-.25a.736.736,0,1,0-1.224.816l1.471,2.206a.735.735,0,0,0,.612.33H6.619v3.677H2.206A.735.735,0,0,1,1.471,39.716Zm3.477,2.206H9.561V45.6H4.506Zm23.358-4.075a1.171,1.171,0,0,1-.907.27,1.188,1.188,0,0,1-.819-.471l-1.353-1.809-.956-7.977a.736.736,0,0,0-1.461.175l2.1,17.564H19.858V31.626a.754.754,0,0,0-.021-.177l-1.551-6.241L19.9,23.2l3.7,1.345a2.215,2.215,0,0,1,1.255,1.16l3.166,6.966a.735.735,0,1,0,1.339-.609l-.435-.956,3.944-2.817,2.232,3.907Zm10.523-9.316L36.2,31.16l-2.186-3.825.56-.56a.766.766,0,0,1,.62-.231.785.785,0,0,1,.581.316l.763,1.019-.285.285a.735.735,0,1,0,1.04,1.04l.735-.736a.735.735,0,0,0,.068-.961l-1.147-1.529c-.011-.015-.026-.026-.038-.04a.729.729,0,0,1,.515-.168.784.784,0,0,1,.577.3l.9,1.122a1.008,1.008,0,0,1-.076,1.342ZM36.82,14.005l.627,10.3a2.234,2.234,0,0,0-.976.2Z" transform="translate(0 0)" fill="#f6a631"/>
  <path id="パス_39156" data-name="パス 39156" d="M56.387,4H38.735A.735.735,0,0,0,38,4.735v14.71a.735.735,0,0,0,.735.735h4.271a.735.735,0,0,0,0-1.471H39.471V5.471H56.387a.735.735,0,1,0,0-1.471Z" transform="translate(-10.051 -1.058)" fill="#f6a631"/>
  <path id="パス_39157" data-name="パス 39157" d="M55.162,25.471h5.57a.735.735,0,1,0,0-1.471h-5.57a.735.735,0,1,0,0,1.471Z" transform="translate(-14.397 -6.348)" fill="#f6a631"/>
  <path id="パス_39158" data-name="パス 39158" d="M42.735,9.471H54.5A.735.735,0,0,0,54.5,8H42.735a.735.735,0,0,0,0,1.471Z" transform="translate(-11.109 -2.116)" fill="#f6a631"/>
  <path id="パス_39159" data-name="パス 39159" d="M42.735,13.471H54.5A.735.735,0,1,0,54.5,12H42.735a.735.735,0,1,0,0,1.471Z" transform="translate(-11.109 -3.174)" fill="#f6a631"/>
</svg>
