<svg xmlns="http://www.w3.org/2000/svg" width="54.212" height="54" viewBox="0 0 54.212 54">
  <g id="cv" transform="translate(0 -1)">
    <path id="パス_39139" data-name="パス 39139" d="M422,9.787v8.6h8.6Z" transform="translate(-377.318 -7.857)" fill="#f6a631"/>
    <path id="パス_39140" data-name="パス 39140" d="M120.919,181.148a13.5,13.5,0,1,0-19.837,0,7.906,7.906,0,0,1,4.608-5.834,6.882,6.882,0,1,1,10.622,0A7.906,7.906,0,0,1,120.919,181.148Z" transform="translate(-87.176 -140.824)" fill="#f6a631"/>
    <ellipse id="楕円形_167" data-name="楕円形 167" cx="3.5" cy="4" rx="3.5" ry="4" transform="translate(20 26)" fill="#f6a631"/>
    <path id="パス_39141" data-name="パス 39141" d="M158.31,344.975l-.281,1.684a13.472,13.472,0,0,0,14.182,0l-.281-1.684A4.743,4.743,0,0,0,167.238,341H163A4.743,4.743,0,0,0,158.31,344.975Z" transform="translate(-141.297 -304)" fill="#f6a631"/>
    <path id="パス_39142" data-name="パス 39142" d="M152.176,13.706a1.588,1.588,0,0,1-1.588-1.588V1H125.706A3.71,3.71,0,0,0,122,4.706V18.57a16.646,16.646,0,0,1,19.487-1.688h13.866a1.588,1.588,0,1,1,0,3.176H145.324a16.757,16.757,0,0,1,2.243,3.176h7.786a1.588,1.588,0,1,1,0,3.176h-6.465a16.561,16.561,0,0,1,.619,3.176h5.847a1.588,1.588,0,0,1,0,3.176h-5.847a16.561,16.561,0,0,1-.619,3.176h6.465a1.588,1.588,0,1,1,0,3.176h-7.786A16.671,16.671,0,0,1,126.5,46.571l-4.5,4.5v.227A3.71,3.71,0,0,0,125.706,55h33.882a3.71,3.71,0,0,0,3.706-3.706V13.706Zm-6.353,0H129.941a1.588,1.588,0,0,1,0-3.176h15.882a1.588,1.588,0,1,1,0,3.176Zm9.529,31.765h-8.471a1.588,1.588,0,0,1,0-3.176h8.471a1.588,1.588,0,1,1,0,3.176Z" transform="translate(-109.082)" fill="#f6a631"/>
    <path id="パス_39143" data-name="パス 39143" d="M10.005,374.081.93,383.156a3.176,3.176,0,0,0,4.492,4.492l9.075-9.075A16.811,16.811,0,0,1,10.005,374.081Z" transform="translate(0 -333.578)" fill="#f6a631"/>
  </g>
</svg>
