<svg id="school" xmlns="http://www.w3.org/2000/svg" width="54" height="54" viewBox="0 0 54 54">
  <g id="グループ_8015" data-name="グループ 8015" transform="translate(31.513 14.168)">
    <g id="グループ_8014" data-name="グループ 8014">
      <path id="パス_26113" data-name="パス 26113" d="M314.167,134.333H298.794l9.439,11.25h13.047v-2.347Z" transform="translate(-298.794 -134.333)" fill="#f6a631"/>
    </g>
  </g>
  <g id="グループ_8017" data-name="グループ 8017" transform="translate(0 14.168)">
    <g id="グループ_8016" data-name="グループ 8016">
      <path id="パス_26114" data-name="パス 26114" d="M7.114,134.333,0,143.236v2.347H13.047l9.439-11.25Z" transform="translate(0 -134.333)" fill="#f6a631"/>
    </g>
  </g>
  <g id="グループ_8019" data-name="グループ 8019">
    <g id="グループ_8018" data-name="グループ 8018">
      <path id="パス_26115" data-name="パス 26115" d="M51.082,50.836V28.582h-11.6L28.582,15.6V8.789h9.137V0h-12.3V15.6l-10.9,12.985H2.918V50.836H0V54H54V50.836ZM8.473,33.75h3.164v4.5H8.473Zm3.245,13.5H8.554v-4.5h3.164ZM27,22.043A4.957,4.957,0,1,1,22.043,27,4.963,4.963,0,0,1,27,22.043Zm8.332,28.793H32.168v-11H28.582v11H25.418v-11H21.832v11H18.668V36.668H35.332ZM45.446,47.25H42.282v-4.5h3.164Zm.081-9H42.363v-4.5h3.164Z" fill="#f6a631"/>
    </g>
  </g>
  <g id="グループ_8021" data-name="グループ 8021" transform="translate(25.207 25.207)">
    <g id="グループ_8020" data-name="グループ 8020">
      <path id="パス_26116" data-name="パス 26116" d="M240.793,239a1.793,1.793,0,1,0,1.793,1.793A1.795,1.795,0,0,0,240.793,239Z" transform="translate(-239 -239)" fill="#f6a631"/>
    </g>
  </g>
</svg>
