<svg xmlns="http://www.w3.org/2000/svg" width="55.96" height="54" viewBox="0 0 55.96 54">
  <g id="feature" transform="translate(0 -8.967)">
    <path id="パス_26181" data-name="パス 26181" d="M213.154,228.516l-1.058-2.657-1.058,2.657a1.639,1.639,0,0,1-1.417,1.029l-2.854.184,2.2,1.828a1.64,1.64,0,0,1,.541,1.667L208.8,236l2.419-1.529a1.647,1.647,0,0,1,1.751,0l2.417,1.527-.706-2.77a1.64,1.64,0,0,1,.541-1.667l2.2-1.828-2.853-.184A1.639,1.639,0,0,1,213.154,228.516Z" transform="translate(-184.169 -193.188)" fill="#f6a631"/>
    <path id="パス_26182" data-name="パス 26182" d="M54.426,28.057l-18.219-1.18L29.449,9.9a1.708,1.708,0,0,0-3.045,0L19.647,26.877,1.533,28.057a1.64,1.64,0,0,0-.941,2.9L14.528,42.627l-4.511,17.7a1.64,1.64,0,0,0,2.464,1.791l15.446-9.762L43.37,62.123a1.64,1.64,0,0,0,2.464-1.791l-4.511-17.7L55.367,30.955a1.639,1.639,0,0,0-.941-2.9ZM38.517,36.435l-4.571,3.8,1.466,5.757a1.64,1.64,0,0,1-2.464,1.791L27.927,44.6,22.9,47.779a1.64,1.64,0,0,1-2.464-1.791l1.466-5.757-4.571-3.8a1.64,1.64,0,0,1,.941-2.9l5.93-.384,2.2-5.52a1.708,1.708,0,0,1,3.045,0l2.2,5.52,5.928.384a1.64,1.64,0,0,1,.941,2.9Z" transform="translate(0 0)" fill="#f6a631"/>
    <circle id="楕円形_102" data-name="楕円形 102" cx="1.639" cy="1.639" r="1.639" transform="translate(26.338 59.688)" fill="#f6a631"/>
    <circle id="楕円形_103" data-name="楕円形 103" cx="1.639" cy="1.639" r="1.639" transform="translate(47.74 46.518) rotate(-72.002)" fill="#f6a631"/>
    <circle id="楕円形_104" data-name="楕円形 104" cx="1.639" cy="1.639" r="1.639" transform="matrix(0.588, -0.809, 0.809, 0.588, 39.179, 20.173)" fill="#f6a631"/>
    <circle id="楕円形_105" data-name="楕円形 105" cx="1.639" cy="1.639" r="1.639" transform="matrix(0.809, -0.588, 0.588, 0.809, 12.198, 19.446)" fill="#f6a631"/>
    <circle id="楕円形_106" data-name="楕円形 106" cx="1.639" cy="1.639" r="1.639" transform="translate(4.084 44.418) rotate(-17.998)" fill="#f6a631"/>
  </g>
</svg>
