<svg xmlns="http://www.w3.org/2000/svg" width="146" height="146" viewBox="0 0 146 146">
  <g id="グループ_12731" data-name="グループ 12731" transform="translate(-11287 14489)">
    <circle id="楕円形_210" data-name="楕円形 210" cx="73" cy="73" r="73" transform="translate(11287 -14489)" fill="#40c1c9"/>
    <g id="グループ_12726" data-name="グループ 12726" transform="translate(40 -0.354)">
      <line id="線_575" data-name="線 575" x2="37" y2="9" transform="translate(11330.5 -14461.5)" fill="none" stroke="#fff" stroke-linecap="round" stroke-width="5"/>
      <g id="グループ_12724" data-name="グループ 12724">
        <line id="線_574" data-name="線 574" x2="95" transform="translate(11272.5 -14452.146)" fill="none" stroke="#fff" stroke-linecap="round" stroke-width="5"/>
        <line id="線_576" data-name="線 576" y1="9" x2="37" transform="translate(11330.5 -14451.793)" fill="none" stroke="#fff" stroke-linecap="round" stroke-width="5"/>
      </g>
    </g>
    <g id="グループ_12727" data-name="グループ 12727" transform="translate(40 72.646)">
      <line id="線_575-2" data-name="線 575" x2="37" y2="9" transform="translate(11330.5 -14461.5)" fill="none" stroke="#fff" stroke-linecap="round" stroke-width="5"/>
      <g id="グループ_12724-2" data-name="グループ 12724">
        <line id="線_574-2" data-name="線 574" x2="95" transform="translate(11272.5 -14452.146)" fill="none" stroke="#fff" stroke-linecap="round" stroke-width="5"/>
        <line id="線_576-2" data-name="線 576" y1="9" x2="37" transform="translate(11330.5 -14451.793)" fill="none" stroke="#fff" stroke-linecap="round" stroke-width="5"/>
      </g>
    </g>
    <path id="パス_48047" data-name="パス 48047" d="M16.468-12.581v-1.5H21.39a.951.951,0,0,0,.874-1.058.951.951,0,0,0-.874-1.058H19.849a1.066,1.066,0,0,0,.713-.989,1.041,1.041,0,0,0-.414-.828,9.47,9.47,0,0,0-1.449-.9,1.5,1.5,0,0,0-.6-.138.976.976,0,0,0-.989.966.963.963,0,0,0,.529.851,8.927,8.927,0,0,1,1.288.851,1.261,1.261,0,0,0,.345.184H16.468v-2.231a1.065,1.065,0,0,0-1.2-.989,1.065,1.065,0,0,0-1.2.989v2.231H9.752A.949.949,0,0,0,8.9-15.134a.949.949,0,0,0,.851,1.058h4.324v1.5H12.121c-1.863,0-2.576.713-2.576,2.369V.966c0,.621.575.92,1.15.92s1.15-.3,1.15-.92V-3.013h2.3V.621a1.02,1.02,0,0,0,1.127.92A1.008,1.008,0,0,0,16.4.621V-3.013h2.53v2.07c0,.391-.115.506-.391.506a3.459,3.459,0,0,1-.667-.069A1,1,0,0,0,16.7.575a1.047,1.047,0,0,0,.874,1.058,5.75,5.75,0,0,0,1.4.138c1.518,0,2.254-.69,2.254-2.484v-9.5c0-1.656-.736-2.369-2.6-2.369Zm-.069,2.07h1.817c.6,0,.713.161.713.667v1.1H16.4Zm2.53,3.749v1.794H16.4V-6.762ZM11.845-4.968V-6.762h2.3v1.794Zm0-3.772v-1.1c0-.506.161-.667.69-.667h1.61V-8.74ZM5.75-8.832A18.125,18.125,0,0,0,7.958-12.6a3.325,3.325,0,0,0,.3-1.288c0-1.012-.713-1.633-2.024-1.633H5.658v-3.059c0-.621-.6-.92-1.173-.92-.6,0-1.2.3-1.2.92v3.059H1.633c-.575,0-.851.529-.851,1.058,0,.552.276,1.081.851,1.081H5.175c.3,0,.437.069.437.23a.794.794,0,0,1-.069.3A15.564,15.564,0,0,1,.92-7.153a1.227,1.227,0,0,0-.552.966A1.12,1.12,0,0,0,1.495-5.106a1.421,1.421,0,0,0,.874-.322c.345-.276.69-.552,1.012-.851V1.2c0,.6.6.92,1.2.92.575,0,1.173-.322,1.173-.92V-5.428c.437.391.92.8,1.288,1.2a1.075,1.075,0,0,0,.759.368A1.041,1.041,0,0,0,8.809-4.9a1.157,1.157,0,0,0-.391-.828c-.253-.23-.552-.506-.9-.782a12.64,12.64,0,0,0,1.173-1.4,1.1,1.1,0,0,0,.207-.6.979.979,0,0,0-.966-.92.93.93,0,0,0-.782.437A9.569,9.569,0,0,1,6-7.59c-.069-.046-.161-.092-.253-.161Zm35.305-2.76c.6,0,.736.138.736.644a54.656,54.656,0,0,1-.667,9.085c-.115.667-.345.851-.782.851a6.55,6.55,0,0,1-.966-.092A1.206,1.206,0,0,0,37.927.138a1.282,1.282,0,0,0,1.1,1.265,7.283,7.283,0,0,0,1.633.161c1.587,0,2.6-.759,2.944-2.921a65.257,65.257,0,0,0,.667-9.936c0-1.748-.667-2.53-2.691-2.507l-2.047.023v-4.485c0-.69-.621-1.012-1.242-1.012s-1.242.322-1.242,1.012v4.531l-2.231.023a1.009,1.009,0,0,0-.989,1.1,1.026,1.026,0,0,0,1.035,1.127l2.162-.046c-.184,5.129-1.587,8.556-4.393,11.316a1.356,1.356,0,0,0-.46.966,1.221,1.221,0,0,0,1.242,1.15,1.411,1.411,0,0,0,1.012-.46A16.617,16.617,0,0,0,36.11-.46,17.086,17.086,0,0,0,38.663-5.7a24.087,24.087,0,0,0,.851-5.865ZM25.3-2.852c-.253.046-.529.092-.782.138a1.1,1.1,0,0,0-.943,1.127A1.169,1.169,0,0,0,24.886-.345a55.684,55.684,0,0,0,8.9-2.346,1.112,1.112,0,0,0,.759-1.081,1.086,1.086,0,0,0-1.035-1.15,1.3,1.3,0,0,0-.414.069,2.261,2.261,0,0,1-.368.115V-15.847c0-1.748-.529-2.576-2.392-2.576H27.692c-1.863,0-2.392.828-2.392,2.576ZM30.337-4c-.874.23-1.748.46-2.645.644v-3.2h2.645Zm0-4.669H27.692v-2.691h2.645Zm0-4.807H27.692v-2.047c0-.529.138-.69.575-.69h1.5c.437,0,.575.161.575.69Zm28.382-4.761a.813.813,0,0,0,.092-.391,1.185,1.185,0,0,0-1.265-1.058,1.383,1.383,0,0,0-1.15.575,30.431,30.431,0,0,1-9.062,8.027,1.288,1.288,0,0,0-.713,1.1,1.2,1.2,0,0,0,1.173,1.219,1.276,1.276,0,0,0,.667-.184,35.959,35.959,0,0,0,8.9-7.452,31.085,31.085,0,0,0,8.97,7.084,1.82,1.82,0,0,0,.805.207,1.256,1.256,0,0,0,1.242-1.265,1.345,1.345,0,0,0-.851-1.242A27.28,27.28,0,0,1,58.719-18.239Zm0,8.234h2.323a.928.928,0,0,0,.874-1.035c0-.529-.276-1.035-.874-1.035H53.8a.93.93,0,0,0-.874,1.035.942.942,0,0,0,.874,1.035h2.392v2.139H49.795a.93.93,0,0,0-.874,1.035A.942.942,0,0,0,49.795-5.8h6.394V-.92h-7.82a.953.953,0,0,0-.9,1.058.953.953,0,0,0,.9,1.058H66.631a.953.953,0,0,0,.9-1.058.953.953,0,0,0-.9-1.058H58.719V-5.8h6.555a.928.928,0,0,0,.874-1.035c0-.529-.276-1.035-.874-1.035H58.719ZM53.383-4.738a1.2,1.2,0,0,0-.966-.483A1.147,1.147,0,0,0,51.244-4.14a1.113,1.113,0,0,0,.207.621c.414.575.69,1.012,1.058,1.587a1.147,1.147,0,0,0,.989.552,1.214,1.214,0,0,0,1.242-1.1,1.08,1.08,0,0,0-.184-.621A11.742,11.742,0,0,0,53.383-4.738Zm6.992,1.656a1.277,1.277,0,0,0-.276.736,1.094,1.094,0,0,0,1.127,1.012,1.162,1.162,0,0,0,.92-.46A13.8,13.8,0,0,0,63.434-3.7a1.279,1.279,0,0,0,.184-.6,1.1,1.1,0,0,0-1.127-1.035,1.15,1.15,0,0,0-1.035.644A10.953,10.953,0,0,1,60.375-3.082Zm29.739-8.464c0-1.541-.782-2.277-2.852-2.277h-.621c.161-.3.322-.621.483-.943a.876.876,0,0,0,.092-.391.849.849,0,0,0-.23-.552h3.151a.942.942,0,0,0,.874-1.035.93.93,0,0,0-.874-1.035H84.456v-.851c0-.621-.575-.92-1.173-.92-.575,0-1.173.3-1.173.92v.851h-5.5c-.575,0-.851.506-.851,1.035a.925.925,0,0,0,.851,1.035h2.9a.8.8,0,0,0-.184.506.81.81,0,0,0,.161.483,8.28,8.28,0,0,1,.575.9h-.69c-2.07,0-2.852.736-2.852,2.277v8.878c0,.6.575.9,1.15.9s1.15-.3,1.15-.9v-8.6c0-.437.184-.621.782-.621h2.576v1.1H80.247a.8.8,0,0,0-.782.874.8.8,0,0,0,.782.9h1.932v1.081h-.23c-1.426,0-1.955.506-1.955,1.656V-4.9c0,1.15.529,1.656,1.955,1.656h2.668a3.311,3.311,0,0,0,.943-.115,1.219,1.219,0,0,0-.184.621,1.072,1.072,0,0,0,1.012,1.081,10.132,10.132,0,0,0,1.2.069c1.656,0,2.53-.736,2.53-2.323ZM86.572-6.279c0-1.15-.529-1.656-1.955-1.656h-.276V-9.016h2a.8.8,0,0,0,.782-.9.8.8,0,0,0-.782-.874h-2v-1.1h2.691c.6,0,.782.184.782.621v7.015c0,.345-.138.506-.46.506a4.089,4.089,0,0,1-.713-.046.988.988,0,0,0-.368,0,1.75,1.75,0,0,0,.3-1.1Zm-4.439-7.544a.923.923,0,0,0,.069-.345,1.131,1.131,0,0,0-.115-.46,4.7,4.7,0,0,0-.736-1.081h3.795a.5.5,0,0,0-.115.184,15.006,15.006,0,0,1-.874,1.7Zm.23,9.016c-.276,0-.437-.069-.437-.368v-.874c0-.276.092-.368.437-.368H84.2c.345,0,.437.092.437.368v.874c0,.276-.092.368-.437.368ZM74.934-7.36c0-1.587-.713-2.392-2.507-2.392H70.863a1.034,1.034,0,0,0-1.012,1.127A1.046,1.046,0,0,0,70.863-7.5h1.012c.6,0,.667.138.667.529v4.462a14.418,14.418,0,0,1-2.3,2.047A1.353,1.353,0,0,0,69.575.6a1.2,1.2,0,0,0,1.219,1.15,1.31,1.31,0,0,0,.805-.276,17.343,17.343,0,0,0,2.415-2.3C75.785.851,78.269,1.495,84.042,1.495c2.438,0,4.531-.069,6.325-.207a1.133,1.133,0,0,0,1.1-1.2,1.09,1.09,0,0,0-1.265-1.15,60.863,60.863,0,0,1-6.233.253c-5.336,0-7.59-.552-9.039-1.955Zm-2.07-10.465a1.434,1.434,0,0,0-.9-.322,1.224,1.224,0,0,0-1.242,1.173,1.156,1.156,0,0,0,.437.9A12.015,12.015,0,0,1,72.68-14.49a1.238,1.238,0,0,0,.989.506,1.3,1.3,0,0,0,1.311-1.265,1.33,1.33,0,0,0-.345-.874A10.464,10.464,0,0,0,72.864-17.825Zm25.415-.483c-2.162,0-3.128,1.012-3.128,2.852v4.876c0,4.9-.713,7.682-2.162,10.074a1.519,1.519,0,0,0-.23.782,1.233,1.233,0,0,0,1.265,1.2A1.387,1.387,0,0,0,95.2.759,15.437,15.437,0,0,0,97.4-5.681h4.853V-.138c0,.667.621.989,1.242.989s1.242-.322,1.242-.989V-5.681h5.037v3.588c0,.69-.161.943-.667.943a4.242,4.242,0,0,1-.9-.092,1.188,1.188,0,0,0-1.449,1.2,1.192,1.192,0,0,0,1.012,1.2,9.22,9.22,0,0,0,1.7.138c1.978,0,2.829-1.1,2.829-3.082V-15.456c0-1.84-.943-2.852-3.1-2.852Zm6.463,2.254h3.795c.989,0,1.242.276,1.242,1.15v1.794h-5.037Zm5.037,5.152v3.013h-5.037V-10.9ZM97.612-7.889c.046-.9.069-1.771.069-2.668V-10.9h4.577v3.013Zm.069-5.221V-14.9c0-.874.276-1.15,1.265-1.15h3.312v2.944ZM129.1-7.59c.276-.391.529-.805.782-1.2,1.357-.115,2.714-.3,4.071-.483.253.322.483.621.667.9a1.057,1.057,0,0,0,.9.506,1.35,1.35,0,0,0,1.311-1.265,1.128,1.128,0,0,0-.184-.575,19.279,19.279,0,0,0-2.76-3.2,1.433,1.433,0,0,0-.989-.414,1.167,1.167,0,0,0-1.2,1.058,1,1,0,0,0,.322.713c.138.138.276.276.414.437-1.081.092-2.162.184-3.266.253a35.451,35.451,0,0,0,3.841-4.508,1.175,1.175,0,0,0,.253-.713,1.29,1.29,0,0,0-1.311-1.2,1.1,1.1,0,0,0-.943.506c-.506.782-1.242,1.794-2.07,2.829-.345-.276-.69-.575-1.035-.874a20.375,20.375,0,0,0,2.116-2.99,1.208,1.208,0,0,0,.138-.529,1.282,1.282,0,0,0-1.288-1.173,1.136,1.136,0,0,0-1.012.621,31.484,31.484,0,0,1-1.725,2.76l-.276-.207a1.365,1.365,0,0,0-.782-.253,1.219,1.219,0,0,0-1.219,1.173,1.114,1.114,0,0,0,.506.9c.989.736,2,1.449,3.082,2.369-.437.483-.874.989-1.334,1.449-.782.046-1.564.069-2.323.069a1.036,1.036,0,0,0-1.058,1.1A1.061,1.061,0,0,0,123.855-8.4c1.035-.046,2.139-.092,3.289-.161A18.551,18.551,0,0,1,123.027-4.3a1.2,1.2,0,0,0-.575.966,1.073,1.073,0,0,0,1.1,1.012,1.31,1.31,0,0,0,.805-.276,23.252,23.252,0,0,0,1.84-1.587A17.18,17.18,0,0,0,127.972-2.3a13.846,13.846,0,0,1-2.093,1.081,18.465,18.465,0,0,1-2.691.9,1.194,1.194,0,0,0-1.035,1.15,1.089,1.089,0,0,0,1.081,1.127,1.8,1.8,0,0,0,.322-.046A18.628,18.628,0,0,0,129.812-.9a18.54,18.54,0,0,0,5.5,2.484,1.3,1.3,0,0,0,.414.069A1.284,1.284,0,0,0,136.988.345a1.153,1.153,0,0,0-.966-1.127,18.156,18.156,0,0,1-4.3-1.656,15.814,15.814,0,0,0,1.771-1.978,2.621,2.621,0,0,0,.6-1.541c0-.966-.828-1.633-2.369-1.633Zm1.932,1.955c.253,0,.391.046.391.161a.506.506,0,0,1-.138.276,13.025,13.025,0,0,1-1.472,1.518,13.564,13.564,0,0,1-2.024-1.955ZM118.749,1.219c0,.621.6.92,1.2.92s1.2-.3,1.2-.92v-9.66a.934.934,0,0,0-.667-.851,25.548,25.548,0,0,0,2.07-3.151,1.217,1.217,0,0,0,.161-.575,1.228,1.228,0,0,0-1.288-1.127,1.075,1.075,0,0,0-.989.575A24.22,24.22,0,0,1,116.2-8a1.27,1.27,0,0,0-.483.966,1.169,1.169,0,0,0,1.173,1.127,1.322,1.322,0,0,0,.874-.368c.322-.3.667-.621.989-.966Zm.989-19.918a19,19,0,0,1-3.473,4.094,1.2,1.2,0,0,0-.483.943,1.238,1.238,0,0,0,1.219,1.2,1.262,1.262,0,0,0,.828-.322,21.083,21.083,0,0,0,4-4.784,1.152,1.152,0,0,0,.161-.575,1.243,1.243,0,0,0-1.288-1.1A1.086,1.086,0,0,0,119.738-18.7Z" transform="translate(11291 -14407)" fill="#fff"/>
  </g>
</svg>
