<svg xmlns="http://www.w3.org/2000/svg" width="2004.633" height="473" viewBox="0 0 2004.633 473">
  <g id="グループ_12777" data-name="グループ 12777" transform="translate(-22305.684 -1382)">
    <path id="パス_48114" data-name="パス 48114" d="M690,96H0L34.849,48,0,0H690V96Z" transform="translate(22570.684 1382.499)" fill="#aeadae"/>
    <g id="グループ_12774" data-name="グループ 12774" transform="translate(-76.316 2141.5)">
      <path id="前面オブジェクトで型抜き_1" data-name="前面オブジェクトで型抜き 1" d="M657,96H0L33.182,48,0,0H657V96Z" transform="translate(23361 -758)" fill="#aeadae"/>
      <path id="多角形_20" data-name="多角形 20" d="M48,0,96,35H0Z" transform="translate(24053 -758) rotate(90)" fill="#aeadae"/>
    </g>
    <g id="グループ_12775" data-name="グループ 12775" transform="translate(-56.316 2141.5)">
      <path id="多角形_21" data-name="多角形 21" d="M48,0,96,35H0Z" transform="translate(23351 -758) rotate(90)" fill="#aeadae"/>
    </g>
    <g id="グループ_12776" data-name="グループ 12776" transform="translate(-321.316 2141.5)">
      <path id="長方形_6826" data-name="長方形 6826" d="M10,0H243a0,0,0,0,1,0,0V96a0,0,0,0,1,0,0H10A10,10,0,0,1,0,86V10A10,10,0,0,1,10,0Z" transform="translate(22627 -758)" fill="#aeadae"/>
      <path id="多角形_21-2" data-name="多角形 21" d="M48,0,96,35H0Z" transform="translate(22905 -758) rotate(90)" fill="#aeadae"/>
    </g>
    <path id="パス_48115" data-name="パス 48115" d="M10,0H244V471H10A10,10,0,0,1,0,461V10A10,10,0,0,1,10,0Z" transform="translate(23998.684 1383.5)" fill="#3ec1c9"/>
    <path id="パス_48102" data-name="パス 48102" d="M10,0H234a10,10,0,0,1,10,10V345a10,10,0,0,1-10,10H10A10,10,0,0,1,0,345V10A10,10,0,0,1,10,0Z" transform="translate(22305.684 1499.5)" fill="#f8bc2c"/>
    <path id="パス_48117" data-name="パス 48117" d="M-100.47-13.53a1.355,1.355,0,0,0-1.41,1.47,1.379,1.379,0,0,0,1.41,1.5h1.89c2.64,0,4.2,1.44,4.2,3.72A4,4,0,0,1-98.7-2.79a7.284,7.284,0,0,1-4.47-1.59,1.468,1.468,0,0,0-.87-.24,1.538,1.538,0,0,0-1.59,1.56,1.622,1.622,0,0,0,.66,1.38A10.251,10.251,0,0,0-98.7.21c4.68,0,7.92-2.91,7.92-7.2a5.522,5.522,0,0,0-4.29-5.34,4.485,4.485,0,0,0,3.54-4.74c0-3.42-2.7-5.82-7.08-5.82a9.547,9.547,0,0,0-5.97,2.19,1.29,1.29,0,0,0-.45,1.08,1.7,1.7,0,0,0,1.68,1.68,1.468,1.468,0,0,0,1.08-.45,5.783,5.783,0,0,1,3.66-1.5c2.19,0,3.57,1.23,3.57,2.97,0,2.13-1.29,3.39-3.72,3.39Zm13.83,3.51a1.332,1.332,0,0,0-1.35,1.44,1.332,1.332,0,0,0,1.35,1.44h7.47a1.332,1.332,0,0,0,1.35-1.44,1.332,1.332,0,0,0-1.35-1.44Zm15.9-8.4c.06-.63.33-.87.99-.87h6.93a1.42,1.42,0,0,0,1.44-1.56,1.42,1.42,0,0,0-1.44-1.56h-8.16a2.544,2.544,0,0,0-2.82,2.28l-.63,7.95a1.783,1.783,0,0,0,1.95,1.95,2.616,2.616,0,0,0,1.5-.57,4.993,4.993,0,0,1,2.58-.75,3.98,3.98,0,0,1,4.29,4.32A4.167,4.167,0,0,1-68.4-2.79a6.351,6.351,0,0,1-4.2-1.5,1.661,1.661,0,0,0-.9-.36,1.589,1.589,0,0,0-1.71,1.56,1.565,1.565,0,0,0,.66,1.35A9.965,9.965,0,0,0-68.34.21c4.47,0,7.83-3,7.83-7.56s-3.27-7.14-7.89-7.14a5.6,5.6,0,0,0-2.73.75ZM-44.13-1.89c.03.87-.3,1.11-.99,1.11a9.231,9.231,0,0,1-1.62-.18A1.555,1.555,0,0,0-48.63.63a1.564,1.564,0,0,0,1.35,1.59,11.833,11.833,0,0,0,2.58.21c2.91,0,3.99-1.17,3.93-4.05l-.15-6.81a45.387,45.387,0,0,0,5.37-3.78,1.375,1.375,0,0,0,.57-1.14,1.679,1.679,0,0,0-1.65-1.62,1.646,1.646,0,0,0-1.08.42,35.149,35.149,0,0,1-3.3,2.49l-.09-4.02h9.06a1.378,1.378,0,0,0,1.29-1.53,1.362,1.362,0,0,0-1.29-1.53h-9.12l-.12-4.95a1.515,1.515,0,0,0-1.68-1.41,1.525,1.525,0,0,0-1.68,1.47l.12,4.89H-55.35c-.84,0-1.26.75-1.26,1.53a1.375,1.375,0,0,0,1.26,1.53h10.89l.15,6.06a53.658,53.658,0,0,1-12.12,4.8,1.542,1.542,0,0,0-1.23,1.53A1.553,1.553,0,0,0-56.1-2.1a2.241,2.241,0,0,0,.6-.09A52.808,52.808,0,0,0-44.25-6.57ZM-25.8-11.4c0,5.55,2.43,10.44,7.02,14.43a1.38,1.38,0,0,0,.9.36,1.143,1.143,0,0,0,1.11-1.08,1.164,1.164,0,0,0-.45-.93A16.739,16.739,0,0,1-23.04-11.4a16.739,16.739,0,0,1,5.82-12.78,1.164,1.164,0,0,0,.45-.93,1.143,1.143,0,0,0-1.11-1.08,1.38,1.38,0,0,0-.9.36C-23.37-21.84-25.8-16.95-25.8-11.4ZM-3.42-7.08A2.336,2.336,0,0,0-.87-9.72a6.307,6.307,0,0,0-6.3-6.42c-3.99,0-6.99,3.09-6.99,8.07,0,5.19,2.85,8.16,7.2,8.16A8.558,8.558,0,0,0-1.5-1.74a1.311,1.311,0,0,0,.42-1.05A1.391,1.391,0,0,0-2.52-4.17a1.5,1.5,0,0,0-.93.36A5.034,5.034,0,0,1-6.96-2.64c-1.95,0-3.84-1.62-3.96-4.44Zm-7.41-2.49c.12-2.25,1.5-3.93,3.6-3.93a3.212,3.212,0,0,1,3.18,3.18.662.662,0,0,1-.69.75ZM15.66-21.81a1.51,1.51,0,0,0-1.71-1.56c-1.08,0-1.74.57-1.74,1.56v7.38a5.022,5.022,0,0,0-3.69-1.74c-3.96,0-6.99,2.82-6.99,8.13C1.53-2.85,4.26.12,8.43.12a4.445,4.445,0,0,0,4.11-2.79,13.608,13.608,0,0,0,.45,1.62A1.322,1.322,0,0,0,14.37,0c1.08,0,1.86-.48,1.86-1.23a6.167,6.167,0,0,0-.15-1.08,28.842,28.842,0,0,1-.42-5.64ZM12.21-6.99c0,2.67-1.68,4.41-3.51,4.41-2.22,0-3.72-1.77-3.72-5.46,0-3.48,1.65-5.34,3.78-5.34a4.1,4.1,0,0,1,3.45,2.07Zm7.83.63c0,2.79.39,4.02,1.38,5.1A4.686,4.686,0,0,0,25.26.12a5,5,0,0,0,4.56-2.85,9.621,9.621,0,0,0,.45,1.68A1.322,1.322,0,0,0,31.65,0c1.11,0,1.86-.45,1.86-1.23a6.166,6.166,0,0,0-.15-1.08,28.842,28.842,0,0,1-.42-5.64v-6.51c0-.99-.66-1.56-1.74-1.56a1.525,1.525,0,0,0-1.71,1.56v7.11c0,3.18-1.5,4.62-3.75,4.62a2.013,2.013,0,0,1-1.68-.78c-.33-.39-.57-1.08-.57-3.33v-7.62c0-.99-.66-1.56-1.74-1.56a1.525,1.525,0,0,0-1.71,1.56ZM49.17-2.94a1.425,1.425,0,0,0-1.53-1.29,1.279,1.279,0,0,0-.93.42,3.9,3.9,0,0,1-2.82,1.17c-2.22,0-3.93-1.59-3.93-5.43,0-3.78,1.71-5.34,3.9-5.34a4.558,4.558,0,0,1,2.55.84,2.037,2.037,0,0,0,1.11.36,1.46,1.46,0,0,0,1.44-1.44,1.357,1.357,0,0,0-.69-1.32,8.35,8.35,0,0,0-4.41-1.2c-4.32,0-7.38,3.09-7.38,8.1C36.48-3,39.36.12,43.86.12a6.626,6.626,0,0,0,4.86-1.89A1.474,1.474,0,0,0,49.17-2.94Zm11.01-7.14a18.421,18.421,0,0,0-4.95.6c-2.49.66-4.11,2.28-4.11,5.01,0,2.76,1.89,4.59,5.22,4.59A5,5,0,0,0,60.9-2.01,2.834,2.834,0,0,0,62.49-.33a3.129,3.129,0,0,0,1.38.3,1.3,1.3,0,0,0,1.29-1.44,1.132,1.132,0,0,0-.63-1.05c-.69-.45-1.05-1.05-1.05-3.12V-11.1c0-3.33-2.1-5.07-5.67-5.07a8.206,8.206,0,0,0-5.4,2.01,1.3,1.3,0,0,0-.39.9,1.584,1.584,0,0,0,1.59,1.5,1.392,1.392,0,0,0,.84-.33,4.745,4.745,0,0,1,3.24-1.32,2.234,2.234,0,0,1,2.49,2.34Zm0,4.26a3.243,3.243,0,0,1-3.27,3.36c-1.8,0-2.52-.9-2.52-2.28a2.534,2.534,0,0,1,1.98-2.37,10.983,10.983,0,0,1,3.81-.57ZM71.55-7.08c0-3.75,1.86-5.76,4.02-5.76a1.5,1.5,0,0,0,1.68-1.65c0-1.08-.42-1.68-1.68-1.68-2.04,0-3.45,1.35-4.14,3.99v-2.31a1.506,1.506,0,0,0-1.62-1.53,1.566,1.566,0,0,0-1.71,1.53v12.9c0,.99.66,1.56,1.74,1.56a1.525,1.525,0,0,0,1.71-1.56Zm18.15,0a2.336,2.336,0,0,0,2.55-2.64,6.307,6.307,0,0,0-6.3-6.42c-3.99,0-6.99,3.09-6.99,8.07,0,5.19,2.85,8.16,7.2,8.16a8.558,8.558,0,0,0,5.46-1.83,1.311,1.311,0,0,0,.42-1.05A1.391,1.391,0,0,0,90.6-4.17a1.5,1.5,0,0,0-.93.36,5.034,5.034,0,0,1-3.51,1.17c-1.95,0-3.84-1.62-3.96-4.44ZM82.29-9.57c.12-2.25,1.5-3.93,3.6-3.93a3.212,3.212,0,0,1,3.18,3.18.662.662,0,0,1-.69.75Zm21.48-1.83c0-5.55-2.43-10.44-7.02-14.43a1.38,1.38,0,0,0-.9-.36,1.143,1.143,0,0,0-1.11,1.08,1.164,1.164,0,0,0,.45.93,16.739,16.739,0,0,1,5.82,12.78A16.739,16.739,0,0,1,95.19,1.38a1.164,1.164,0,0,0-.45.93,1.143,1.143,0,0,0,1.11,1.08,1.38,1.38,0,0,0,.9-.36C101.34-.96,103.77-5.85,103.77-11.4Z" transform="translate(22915.684 1441.5)" fill="#fff"/>
    <path id="パス_48118" data-name="パス 48118" d="M-17.85-3.36C-15.96-5.07-14.49-6.39-12-9c2.7-2.85,3.66-4.71,3.66-7.47,0-3.84-2.4-6.42-6.69-6.42a9.425,9.425,0,0,0-6.27,2.64,1.562,1.562,0,0,0-.6,1.23,1.656,1.656,0,0,0,1.74,1.68,1.654,1.654,0,0,0,1.14-.51A5.779,5.779,0,0,1-15-19.8c1.89,0,3.06,1.14,3.06,3.39,0,1.74-.81,3.3-2.67,5.49a64.306,64.306,0,0,1-6.75,6.69,2.492,2.492,0,0,0-.93,2.04A1.759,1.759,0,0,0-20.52-.27H-9.45A1.421,1.421,0,0,0-7.86-1.8,1.443,1.443,0,0,0-9.45-3.36ZM8.67-1.89c.03.87-.3,1.11-.99,1.11A9.231,9.231,0,0,1,6.06-.96,1.555,1.555,0,0,0,4.17.63,1.564,1.564,0,0,0,5.52,2.22a11.833,11.833,0,0,0,2.58.21c2.91,0,3.99-1.17,3.93-4.05l-.15-6.81a45.387,45.387,0,0,0,5.37-3.78,1.375,1.375,0,0,0,.57-1.14,1.679,1.679,0,0,0-1.65-1.62,1.646,1.646,0,0,0-1.08.42,35.149,35.149,0,0,1-3.3,2.49l-.09-4.02h9.06a1.378,1.378,0,0,0,1.29-1.53,1.362,1.362,0,0,0-1.29-1.53H11.64l-.12-4.95A1.515,1.515,0,0,0,9.84-25.5a1.525,1.525,0,0,0-1.68,1.47l.12,4.89H-2.55c-.84,0-1.26.75-1.26,1.53a1.375,1.375,0,0,0,1.26,1.53H8.34l.15,6.06A53.658,53.658,0,0,1-3.63-5.22,1.542,1.542,0,0,0-4.86-3.69,1.553,1.553,0,0,0-3.3-2.1a2.241,2.241,0,0,0,.6-.09A52.808,52.808,0,0,0,8.55-6.57Z" transform="translate(22444.684 1441.5)" fill="#fff"/>
    <path id="パス_48105" data-name="パス 48105" d="M-66.825-23.13c-3.45,0-4.5,1.17-4.5,4.05V-1.71A1.665,1.665,0,0,0-69.465,0a1.617,1.617,0,0,0,1.8-1.71V-9.99h4.38c4.95,0,7.74-2.76,7.74-6.66,0-4.11-2.16-6.48-7.38-6.48Zm-.84,10.23v-5.7c0-1.2.3-1.59,1.68-1.59h2.85c2.58,0,3.84,1.26,3.84,3.6,0,2.28-1.56,3.69-3.99,3.69Zm19.2,5.82c0-3.75,1.86-5.76,4.02-5.76a1.5,1.5,0,0,0,1.68-1.65c0-1.08-.42-1.68-1.68-1.68-2.04,0-3.45,1.35-4.14,3.99v-2.31a1.506,1.506,0,0,0-1.62-1.53,1.566,1.566,0,0,0-1.71,1.53v12.9c0,.99.66,1.56,1.74,1.56a1.525,1.525,0,0,0,1.71-1.56Zm18.15,0a2.336,2.336,0,0,0,2.55-2.64,6.307,6.307,0,0,0-6.3-6.42c-3.99,0-6.99,3.09-6.99,8.07,0,5.19,2.85,8.16,7.2,8.16a8.558,8.558,0,0,0,5.46-1.83,1.311,1.311,0,0,0,.42-1.05,1.391,1.391,0,0,0-1.44-1.38,1.5,1.5,0,0,0-.93.36,5.034,5.034,0,0,1-3.51,1.17c-1.95,0-3.84-1.62-3.96-4.44Zm-7.41-2.49c.12-2.25,1.5-3.93,3.6-3.93a3.212,3.212,0,0,1,3.18,3.18.662.662,0,0,1-.69.75Zm13.59-.45a1.332,1.332,0,0,0-1.35,1.44,1.332,1.332,0,0,0,1.35,1.44h7.47a1.332,1.332,0,0,0,1.35-1.44,1.332,1.332,0,0,0-1.35-1.44Zm17.04,3.15c2.04.51,2.61,1.05,2.61,2.16,0,1.29-.9,2.19-2.67,2.19a4.4,4.4,0,0,1-3.6-1.56,1.447,1.447,0,0,0-1.14-.51,1.42,1.42,0,0,0-1.5,1.35A1.305,1.305,0,0,0-13-2.16,7.435,7.435,0,0,0-7.155.12c3.66,0,5.88-1.98,5.88-4.89,0-2.7-1.29-4.05-4.62-4.8l-1.08-.24c-2.31-.51-2.7-.96-2.7-2.01,0-.9.66-1.71,2.31-1.71A3.667,3.667,0,0,1-4.3-12.18a1.451,1.451,0,0,0,1.02.39,1.479,1.479,0,0,0,1.5-1.47,1.393,1.393,0,0,0-.48-1.14,7.264,7.264,0,0,0-5.13-1.77c-3.24,0-5.46,1.74-5.46,4.32,0,2.61,1.2,3.87,4.77,4.74Zm20.82,3.93A1.425,1.425,0,0,0,12.2-4.23a1.279,1.279,0,0,0-.93.42,3.9,3.9,0,0,1-2.82,1.17c-2.22,0-3.93-1.59-3.93-5.43,0-3.78,1.71-5.34,3.9-5.34a4.558,4.558,0,0,1,2.55.84,2.037,2.037,0,0,0,1.11.36,1.46,1.46,0,0,0,1.44-1.44,1.357,1.357,0,0,0-.69-1.32,8.35,8.35,0,0,0-4.41-1.2c-4.32,0-7.38,3.09-7.38,8.1C1.035-3,3.915.12,8.415.12a6.626,6.626,0,0,0,4.86-1.89A1.474,1.474,0,0,0,13.725-2.94Zm12.36-1.92a14.98,14.98,0,0,0,.33,3.75,1.419,1.419,0,0,0,1.56,1.08c1.17,0,1.95-.57,1.95-1.32a3.085,3.085,0,0,0-.03-.51,13.973,13.973,0,0,1-.33-3.3V-9.69c0-2.79-.42-4.02-1.41-5.1a4.659,4.659,0,0,0-3.81-1.38,4.551,4.551,0,0,0-4.14,2.79v-8.43a1.51,1.51,0,0,0-1.71-1.56c-1.08,0-1.74.57-1.74,1.56V-1.59c0,.99.66,1.56,1.74,1.56a1.525,1.525,0,0,0,1.71-1.56V-8.4c0-3.12,1.62-4.92,3.66-4.92a1.974,1.974,0,0,1,1.65.75c.33.39.57,1.11.57,3.36ZM40.125.12c4.17,0,7.11-3.09,7.11-8.19,0-5.07-3-8.1-7.11-8.1s-7.11,3.03-7.11,8.1C33.015-2.97,35.985.12,40.125.12Zm0-2.73c-2.34,0-3.66-1.95-3.66-5.46,0-3.48,1.32-5.37,3.66-5.37,2.37,0,3.66,1.89,3.66,5.37C43.785-4.56,42.5-2.61,40.125-2.61ZM56.865.12c4.17,0,7.11-3.09,7.11-8.19,0-5.07-3-8.1-7.11-8.1s-7.11,3.03-7.11,8.1C49.755-2.97,52.725.12,56.865.12Zm0-2.73c-2.34,0-3.66-1.95-3.66-5.46,0-3.48,1.32-5.37,3.66-5.37,2.37,0,3.66,1.89,3.66,5.37C60.525-4.56,59.235-2.61,56.865-2.61Zm10.74-2.31c0,3.69,1.56,4.89,4.17,4.89a8.068,8.068,0,0,0,.93-.06c.63-.06,1.05-.66,1.05-1.5s-.45-1.35-1.08-1.35c-.12,0-.24.03-.36.03-.96,0-1.26-.42-1.26-2.73V-21.81a1.51,1.51,0,0,0-1.71-1.56c-1.08,0-1.74.57-1.74,1.56Z" transform="translate(22427.684 1688.5)"/>
    <path id="パス_48106" data-name="パス 48106" d="M10,0H683a10,10,0,0,1,10,10V160a10,10,0,0,1-10,10H10A10,10,0,0,1,0,160V10A10,10,0,0,1,10,0Z" transform="translate(22570.684 1500)" fill="#f8bc2c"/>
    <path id="パス_48109" data-name="パス 48109" d="M-110.13-21.54a1.592,1.592,0,0,0-1.77-1.5,1.609,1.609,0,0,0-1.77,1.5V-4.35c0,3.72,2.01,4.92,8.25,4.92a46.208,46.208,0,0,0,9.39-.81,1.606,1.606,0,0,0,1.38-1.59,1.681,1.681,0,0,0-1.68-1.71,2.316,2.316,0,0,0-.45.06,41.459,41.459,0,0,1-8.82.81c-3.6,0-4.53-.45-4.53-2.16v-5.22a46.939,46.939,0,0,0,12.24-4.68,1.743,1.743,0,0,0,.99-1.5,1.73,1.73,0,0,0-1.74-1.68,2.063,2.063,0,0,0-1.02.3,46.833,46.833,0,0,1-10.47,4.26Zm11.73.3a21.821,21.821,0,0,1,2.22,2.55,1.2,1.2,0,0,0,.99.57,1.223,1.223,0,0,0,1.2-1.2,1.253,1.253,0,0,0-.27-.81,14.988,14.988,0,0,0-2.34-2.61,1.251,1.251,0,0,0-.84-.33,1.249,1.249,0,0,0-1.26,1.14A1.067,1.067,0,0,0-98.4-21.24Zm3-2.37c.69.72,1.53,1.62,2.22,2.49a1.3,1.3,0,0,0,1.05.54,1.172,1.172,0,0,0,1.2-1.14,1.4,1.4,0,0,0-.33-.9,15.043,15.043,0,0,0-2.31-2.46,1.441,1.441,0,0,0-.9-.36,1.2,1.2,0,0,0-1.26,1.11A.991.991,0,0,0-95.4-23.61Zm9.45,10.65a1.6,1.6,0,0,0-1.62,1.71,1.612,1.612,0,0,0,1.62,1.71h21.9a1.612,1.612,0,0,0,1.62-1.71,1.6,1.6,0,0,0-1.62-1.71Zm39.18-.48c0,5.25-2.1,8.76-6.21,11.25A1.991,1.991,0,0,0-54.09-.54a1.71,1.71,0,0,0,1.74,1.68A2.2,2.2,0,0,0-51.21.78a15.7,15.7,0,0,0,7.92-14.22v-1.41a1.582,1.582,0,0,0-1.74-1.5,1.582,1.582,0,0,0-1.74,1.5Zm-8.07-8.31a1.573,1.573,0,0,0-1.59,1.65,1.557,1.557,0,0,0,1.59,1.65l17.04-.12c.48,0,.69.12.69.36a.952.952,0,0,1-.21.54,15.567,15.567,0,0,1-3.15,3.33,1.959,1.959,0,0,0-.84,1.53,1.639,1.639,0,0,0,1.62,1.65,2.079,2.079,0,0,0,1.26-.48,22.348,22.348,0,0,0,4.77-5.22,4.414,4.414,0,0,0,.78-2.28c0-1.59-1.29-2.76-3.93-2.73ZM-15.48.24A1.617,1.617,0,0,0-13.71,1.8,1.6,1.6,0,0,0-11.94.24V-12.93a1.568,1.568,0,0,0-1.56-1.56,47.323,47.323,0,0,0,6.36-6.69,1.841,1.841,0,0,0,.42-1.11,1.79,1.79,0,0,0-1.83-1.68,1.877,1.877,0,0,0-1.5.78,46.185,46.185,0,0,1-14.58,12.3,1.907,1.907,0,0,0-1.14,1.68,1.67,1.67,0,0,0,1.65,1.68,2.031,2.031,0,0,0,1.05-.27,52.777,52.777,0,0,0,7.59-5.04ZM11.94-17.94,5.28-16.92a1.377,1.377,0,0,0-1.23,1.47A1.528,1.528,0,0,0,5.79-13.8l6.72-1.05.75,4.26L4.47-9.12A1.44,1.44,0,0,0,3.24-7.65,1.551,1.551,0,0,0,5.01-6L13.8-7.47,15.24.54a1.557,1.557,0,0,0,1.65,1.29A1.554,1.554,0,0,0,18.6.06l-1.44-8.1,8.82-1.47a1.44,1.44,0,0,0,1.23-1.47,1.541,1.541,0,0,0-1.8-1.62l-8.79,1.47-.75-4.23,6.81-1.05a1.391,1.391,0,0,0,1.23-1.44,1.562,1.562,0,0,0-1.8-1.65l-6.78,1.05-.87-4.89a1.559,1.559,0,0,0-1.65-1.26c-.96,0-1.95.63-1.74,1.74Zm25.8-3.15a2.181,2.181,0,0,0-1.2-.39,1.939,1.939,0,0,0-1.92,1.83,1.668,1.668,0,0,0,.72,1.35,43.865,43.865,0,0,1,4.08,3.63,1.9,1.9,0,0,0,1.35.6,2.028,2.028,0,0,0,1.92-1.98,1.77,1.77,0,0,0-.54-1.29A26.938,26.938,0,0,0,37.74-21.09Zm16.08,3.81A33.416,33.416,0,0,1,36.9-3.09,1.619,1.619,0,0,0,35.73-1.5,1.829,1.829,0,0,0,37.53.33a2.122,2.122,0,0,0,.81-.15A36.03,36.03,0,0,0,56.88-15.6a1.789,1.789,0,0,0,.3-.96,1.745,1.745,0,0,0-1.83-1.65A1.708,1.708,0,0,0,53.82-17.28Zm20.1-2.31c.48-.87.9-1.71,1.26-2.55a1.721,1.721,0,0,0,.15-.72,1.617,1.617,0,0,0-1.71-1.53,1.76,1.76,0,0,0-1.68,1.14,31.309,31.309,0,0,1-7.2,10.14,1.9,1.9,0,0,0-.72,1.41,1.641,1.641,0,0,0,1.68,1.59,1.935,1.935,0,0,0,1.32-.54,32.383,32.383,0,0,0,5.04-5.94l7.32-.06c.57,0,.81.15.81.48a1.178,1.178,0,0,1-.09.42,24.189,24.189,0,0,1-3.03,5.94,27.519,27.519,0,0,0-3.6-2.76,1.869,1.869,0,0,0-1.05-.33,1.654,1.654,0,0,0-1.65,1.59,1.58,1.58,0,0,0,.75,1.32A27.577,27.577,0,0,1,75-7.2,29.16,29.16,0,0,1,67.26-.93,1.811,1.811,0,0,0,66.18.69a1.67,1.67,0,0,0,1.65,1.68,2.142,2.142,0,0,0,.99-.27C75.48-1.5,81.48-8.34,83.58-15.3a5.353,5.353,0,0,0,.27-1.59c0-1.8-1.26-2.79-3.75-2.76Zm8.22-2.82a21.494,21.494,0,0,1,1.98,2.73,1.152,1.152,0,0,0,1.02.66,1.229,1.229,0,0,0,1.23-1.2,1.327,1.327,0,0,0-.21-.72,16.02,16.02,0,0,0-2.1-2.82,1.2,1.2,0,0,0-.9-.42,1.225,1.225,0,0,0-1.26,1.11A1,1,0,0,0,82.14-22.41Zm3.21-2.1a33.1,33.1,0,0,1,1.98,2.7,1.357,1.357,0,0,0,1.11.66,1.178,1.178,0,0,0,1.2-1.17,1.614,1.614,0,0,0-.27-.81A15.111,15.111,0,0,0,87.3-25.8a1.388,1.388,0,0,0-.99-.42,1.168,1.168,0,0,0-1.23,1.05A1.044,1.044,0,0,0,85.35-24.51Zm8.7,11.55a1.6,1.6,0,0,0-1.62,1.71,1.612,1.612,0,0,0,1.62,1.71h21.9a1.612,1.612,0,0,0,1.62-1.71,1.6,1.6,0,0,0-1.62-1.71Z" transform="translate(22917.684 1596)"/>
    <path id="パス_48112" data-name="パス 48112" d="M10,0H327.5a10,10,0,0,1,10,10V160a10,10,0,0,1-10,10H10A10,10,0,0,1,0,160V10A10,10,0,0,1,10,0Z" transform="translate(23640.684 1685)" fill="#f8ab1a"/>
    <path id="パス_48113" data-name="パス 48113" d="M-106.77-13.44c0,5.25-2.1,8.76-6.21,11.25a1.99,1.99,0,0,0-1.11,1.65,1.71,1.71,0,0,0,1.74,1.68,2.2,2.2,0,0,0,1.14-.36,15.7,15.7,0,0,0,7.92-14.22v-1.41a1.582,1.582,0,0,0-1.74-1.5,1.582,1.582,0,0,0-1.74,1.5Zm-8.07-8.31a1.573,1.573,0,0,0-1.59,1.65,1.557,1.557,0,0,0,1.59,1.65l17.04-.12c.48,0,.69.12.69.36a.952.952,0,0,1-.21.54,15.567,15.567,0,0,1-3.15,3.33,1.959,1.959,0,0,0-.84,1.53,1.639,1.639,0,0,0,1.62,1.65,2.079,2.079,0,0,0,1.26-.48,22.348,22.348,0,0,0,4.77-5.22,4.414,4.414,0,0,0,.78-2.28c0-1.59-1.29-2.76-3.93-2.73Zm39.18-.78a1.624,1.624,0,0,0-1.77-1.59,1.64,1.64,0,0,0-1.77,1.59V.36a1.617,1.617,0,0,0,1.77,1.56A1.6,1.6,0,0,0-75.66.36V-12.57a2.14,2.14,0,0,0,.87.84,52.993,52.993,0,0,1,5.61,3.6,2.029,2.029,0,0,0,1.26.45,1.742,1.742,0,0,0,1.71-1.77,1.927,1.927,0,0,0-.84-1.56,35.178,35.178,0,0,0-6.36-3.84,1.848,1.848,0,0,0-.78-.18,1.713,1.713,0,0,0-1.47.93Zm5.22,2.73a21.821,21.821,0,0,1,2.22,2.55,1.2,1.2,0,0,0,.99.57,1.223,1.223,0,0,0,1.2-1.2,1.253,1.253,0,0,0-.27-.81,14.988,14.988,0,0,0-2.34-2.61,1.251,1.251,0,0,0-.84-.33,1.249,1.249,0,0,0-1.26,1.14A1.067,1.067,0,0,0-70.44-19.8Zm3-2.37c.69.72,1.53,1.62,2.22,2.49a1.3,1.3,0,0,0,1.05.54,1.172,1.172,0,0,0,1.2-1.14,1.4,1.4,0,0,0-.33-.9,15.043,15.043,0,0,0-2.31-2.46,1.441,1.441,0,0,0-.9-.36,1.2,1.2,0,0,0-1.26,1.11A.991.991,0,0,0-67.44-22.17Zm28.74,2.43a21.821,21.821,0,0,1,2.22,2.55,1.2,1.2,0,0,0,.99.57,1.223,1.223,0,0,0,1.2-1.2,1.253,1.253,0,0,0-.27-.81,14.988,14.988,0,0,0-2.34-2.61,1.251,1.251,0,0,0-.84-.33A1.249,1.249,0,0,0-39-20.43,1.067,1.067,0,0,0-38.7-19.74Zm-12.99,3.51A30.845,30.845,0,0,1-57.75-5.31a2.019,2.019,0,0,0-.6,1.38,1.8,1.8,0,0,0,1.83,1.74,2.078,2.078,0,0,0,1.56-.75,34.491,34.491,0,0,0,6.72-12.3,2.079,2.079,0,0,0,.09-.6,1.725,1.725,0,0,0-1.83-1.65A1.732,1.732,0,0,0-51.69-16.23Zm15.99-5.88c.69.72,1.53,1.62,2.22,2.49a1.3,1.3,0,0,0,1.05.54,1.172,1.172,0,0,0,1.2-1.14,1.4,1.4,0,0,0-.33-.9,15.043,15.043,0,0,0-2.31-2.46,1.441,1.441,0,0,0-.9-.36,1.2,1.2,0,0,0-1.26,1.11A.991.991,0,0,0-35.7-22.11Zm-6.81,6.72A56.144,56.144,0,0,1-35.76-3.87a1.96,1.96,0,0,0,1.8,1.29,1.843,1.843,0,0,0,1.89-1.8,2.163,2.163,0,0,0-.21-.9,52.422,52.422,0,0,0-7.38-12,1.978,1.978,0,0,0-1.53-.75,1.672,1.672,0,0,0-1.74,1.56A1.7,1.7,0,0,0-42.51-15.39Zm20.25-5.7a2.181,2.181,0,0,0-1.2-.39,1.939,1.939,0,0,0-1.92,1.83,1.668,1.668,0,0,0,.72,1.35,43.865,43.865,0,0,1,4.08,3.63,1.9,1.9,0,0,0,1.35.6,2.028,2.028,0,0,0,1.92-1.98,1.77,1.77,0,0,0-.54-1.29A26.938,26.938,0,0,0-22.26-21.09Zm16.08,3.81A33.416,33.416,0,0,1-23.1-3.09,1.619,1.619,0,0,0-24.27-1.5,1.829,1.829,0,0,0-22.47.33a2.122,2.122,0,0,0,.81-.15A36.03,36.03,0,0,0-3.12-15.6a1.789,1.789,0,0,0,.3-.96,1.745,1.745,0,0,0-1.83-1.65A1.708,1.708,0,0,0-6.18-17.28Zm13.23-3.9A1.541,1.541,0,0,0,5.58-19.5a1.511,1.511,0,0,0,1.5,1.62l10.74-.21c.51,0,.75.12.75.39a1.119,1.119,0,0,1-.12.48C16.08-11.4,10.83-6.3,4.59-3.15A1.668,1.668,0,0,0,3.57-1.62,1.76,1.76,0,0,0,5.31.12a1.945,1.945,0,0,0,.87-.21,34.7,34.7,0,0,0,9.78-7.44A46.256,46.256,0,0,1,23.34-.48a1.869,1.869,0,0,0,1.44.72,1.912,1.912,0,0,0,1.92-1.8,2.108,2.108,0,0,0-.57-1.35,44.59,44.59,0,0,0-8.04-7.11,27.84,27.84,0,0,0,4.11-7.17,5.019,5.019,0,0,0,.33-1.62c0-1.62-1.2-2.64-3.54-2.58Zm49.62-5.04a3.183,3.183,0,0,0-3.24,3.21,3.189,3.189,0,0,0,3.24,3.24,3.183,3.183,0,0,0,3.21-3.24A3.176,3.176,0,0,0,56.67-26.22Zm0,1.5a1.69,1.69,0,0,1,1.71,1.71,1.716,1.716,0,0,1-1.71,1.74,1.741,1.741,0,0,1-1.74-1.74A1.716,1.716,0,0,1,56.67-24.72ZM35.4-20.34a1.573,1.573,0,0,0-1.59,1.65,1.691,1.691,0,0,0,1.74,1.77l14.46-.18c.87,0,1.26.21,1.26.78a2.425,2.425,0,0,1-.09.6C49.62-10.35,45.87-5.55,39.24-2.1A1.79,1.79,0,0,0,38.19-.51a1.747,1.747,0,0,0,1.74,1.77,2.17,2.17,0,0,0,.99-.24C48-2.43,53.22-8.55,54.87-15.66a7.368,7.368,0,0,0,.21-1.71c0-2.01-1.23-3.15-4.38-3.12Zm33.18-2.1a1.506,1.506,0,0,0-1.47,1.62,1.506,1.506,0,0,0,1.47,1.62H81.66a1.511,1.511,0,0,0,1.5-1.62,1.511,1.511,0,0,0-1.5-1.62Zm-2.97,6.69a1.488,1.488,0,0,0-1.47,1.62,1.5,1.5,0,0,0,1.53,1.62l15.18-.18c.66,0,.96.15.96.51a1.926,1.926,0,0,1-.15.6c-1.5,3.96-5.13,7.35-10.38,9.45A1.754,1.754,0,0,0,70.05-.51a1.76,1.76,0,0,0,1.74,1.74,2.378,2.378,0,0,0,.75-.15c5.88-2.31,10.77-6.75,12.63-12.3a5.41,5.41,0,0,0,.3-1.71c0-1.83-1.29-3-4.05-2.97Zm31.44-5.43a1.541,1.541,0,0,0-1.47,1.68,1.511,1.511,0,0,0,1.5,1.62l10.74-.21c.51,0,.75.12.75.39a1.119,1.119,0,0,1-.12.48C106.08-11.4,100.83-6.3,94.59-3.15a1.668,1.668,0,0,0-1.02,1.53A1.76,1.76,0,0,0,95.31.12a1.945,1.945,0,0,0,.87-.21,34.7,34.7,0,0,0,9.78-7.44,46.255,46.255,0,0,1,7.38,7.05,1.869,1.869,0,0,0,1.44.72,1.912,1.912,0,0,0,1.92-1.8,2.108,2.108,0,0,0-.57-1.35,44.59,44.59,0,0,0-8.04-7.11,27.839,27.839,0,0,0,4.11-7.17,5.019,5.019,0,0,0,.33-1.62c0-1.62-1.2-2.64-3.54-2.58Z" transform="translate(23809.684 1781)"/>
    <path id="パス_48116" data-name="パス 48116" d="M-75.93-19.29c.51-.96.96-1.89,1.35-2.82a2.047,2.047,0,0,0,.15-.69,1.681,1.681,0,0,0-1.77-1.59,1.767,1.767,0,0,0-1.65,1.14,31.568,31.568,0,0,1-7.23,10.32,2.059,2.059,0,0,0-.75,1.44A1.64,1.64,0,0,0-84.15-9.9a1.976,1.976,0,0,0,1.38-.57,31.817,31.817,0,0,0,4.89-5.7l6.72-.06c.57,0,.81.15.81.48a1.178,1.178,0,0,1-.09.42A25.689,25.689,0,0,1-82.23-1.08,1.923,1.923,0,0,0-83.28.54a1.709,1.709,0,0,0,1.71,1.71,2.24,2.24,0,0,0,.99-.27A29.6,29.6,0,0,0-66.84-15a5.353,5.353,0,0,0,.27-1.59c0-1.8-1.26-2.79-3.75-2.76Zm7.65-3a21.494,21.494,0,0,1,1.98,2.73,1.152,1.152,0,0,0,1.02.66,1.229,1.229,0,0,0,1.23-1.2,1.327,1.327,0,0,0-.21-.72,16.019,16.019,0,0,0-2.1-2.82,1.2,1.2,0,0,0-.9-.42,1.225,1.225,0,0,0-1.26,1.11A1,1,0,0,0-68.28-22.29Zm3.21-2.1a33.1,33.1,0,0,1,1.98,2.7,1.357,1.357,0,0,0,1.11.66,1.178,1.178,0,0,0,1.2-1.17,1.614,1.614,0,0,0-.27-.81,15.112,15.112,0,0,0-2.07-2.67,1.388,1.388,0,0,0-.99-.42,1.168,1.168,0,0,0-1.23,1.05A1.044,1.044,0,0,0-65.07-24.39ZM-39.18-.99c3.45,0,4.89-1.41,4.89-4.23V-16.41c0-2.82-1.44-4.23-4.89-4.23H-50.85c-3.45,0-4.89,1.41-4.89,4.23V-5.22c0,2.82,1.44,4.23,4.89,4.23ZM-50.4-4.23c-1.38,0-1.8-.39-1.8-1.41V-15.99c0-1.02.42-1.41,1.8-1.41h10.77c1.38,0,1.8.39,1.8,1.41V-5.64c0,1.02-.42,1.41-1.8,1.41Zm24.45-8.73a1.6,1.6,0,0,0-1.62,1.71,1.612,1.612,0,0,0,1.62,1.71h21.9a1.612,1.612,0,0,0,1.62-1.71,1.6,1.6,0,0,0-1.62-1.71ZM21.3-19.74a21.821,21.821,0,0,1,2.22,2.55,1.2,1.2,0,0,0,.99.57,1.223,1.223,0,0,0,1.2-1.2,1.253,1.253,0,0,0-.27-.81,14.988,14.988,0,0,0-2.34-2.61,1.251,1.251,0,0,0-.84-.33A1.249,1.249,0,0,0,21-20.43,1.067,1.067,0,0,0,21.3-19.74ZM8.31-16.23A30.845,30.845,0,0,1,2.25-5.31a2.019,2.019,0,0,0-.6,1.38A1.8,1.8,0,0,0,3.48-2.19a2.078,2.078,0,0,0,1.56-.75,34.491,34.491,0,0,0,6.72-12.3,2.079,2.079,0,0,0,.09-.6,1.725,1.725,0,0,0-1.83-1.65A1.732,1.732,0,0,0,8.31-16.23ZM24.3-22.11c.69.72,1.53,1.62,2.22,2.49a1.3,1.3,0,0,0,1.05.54,1.172,1.172,0,0,0,1.2-1.14,1.4,1.4,0,0,0-.33-.9,15.043,15.043,0,0,0-2.31-2.46,1.441,1.441,0,0,0-.9-.36,1.2,1.2,0,0,0-1.26,1.11A.991.991,0,0,0,24.3-22.11Zm-6.81,6.72A56.144,56.144,0,0,1,24.24-3.87a1.96,1.96,0,0,0,1.8,1.29,1.843,1.843,0,0,0,1.89-1.8,2.163,2.163,0,0,0-.21-.9,52.422,52.422,0,0,0-7.38-12,1.978,1.978,0,0,0-1.53-.75,1.672,1.672,0,0,0-1.74,1.56A1.7,1.7,0,0,0,17.49-15.39Zm20.34-1.89c0,7.32-1.56,11.01-5.13,14.22a1.913,1.913,0,0,0-.72,1.44A1.787,1.787,0,0,0,33.75.12,2,2,0,0,0,35.1-.42c4.14-3.54,6.27-8.46,6.27-16.74v-3.39a1.591,1.591,0,0,0-1.74-1.56,1.645,1.645,0,0,0-1.8,1.56ZM49.02-21.3a1.6,1.6,0,0,0-1.77-1.53,1.612,1.612,0,0,0-1.77,1.53V-3.72c0,2.22,1.32,3.51,3.15,3.51a5.714,5.714,0,0,0,2.58-.72A21.164,21.164,0,0,0,58.56-7.5a1.921,1.921,0,0,0,.36-1.05,1.726,1.726,0,0,0-1.77-1.62,1.82,1.82,0,0,0-1.47.81,18.143,18.143,0,0,1-5.64,5.07,1.594,1.594,0,0,1-.6.21c-.3,0-.42-.24-.42-.69Zm16.29-.24A67.63,67.63,0,0,0,63.9-7.68a59.068,59.068,0,0,0,.51,7.41A1.64,1.64,0,0,0,66.15,1.2,1.614,1.614,0,0,0,67.86-.63a58.93,58.93,0,0,1-.54-7.05A62.676,62.676,0,0,1,68.7-20.94a1.573,1.573,0,0,0-1.71-1.86A1.61,1.61,0,0,0,65.31-21.54Zm18.18,1.38a72.9,72.9,0,0,1-8.25.66,1.589,1.589,0,0,0-1.62,1.62,1.577,1.577,0,0,0,1.74,1.62,76.134,76.134,0,0,0,8.46-.66,1.645,1.645,0,0,0,1.53-1.65A1.584,1.584,0,0,0,83.49-20.16ZM75.66-6.9a1.465,1.465,0,0,0-1.53-1.29,1.678,1.678,0,0,0-1.74,1.83c.33,3.63,2.64,5.31,8.19,5.31a26.212,26.212,0,0,0,5.19-.51,1.557,1.557,0,0,0,1.32-1.59A1.6,1.6,0,0,0,85.14-4.8a24.63,24.63,0,0,1-4.53.45C76.86-4.35,75.93-5.04,75.66-6.9ZM-42.72,31.94h-2.13c-2.46,0-3.57.9-3.57,3.06v4.53c0,2.16,1.23,3.06,3.69,3.06h7.17c2.19-.03,3.66-.63,3.69-3.06V35c0-2.16-1.11-3.06-3.57-3.06h-2.04V28.07h6.93a1.337,1.337,0,0,0,1.26-1.47,1.347,1.347,0,0,0-1.26-1.5h-6.93V20.78a43.522,43.522,0,0,0,4.32-1.05,1.571,1.571,0,0,0,1.26-1.5,1.594,1.594,0,0,0-1.53-1.62,1.7,1.7,0,0,0-.54.09,61.338,61.338,0,0,1-11.4,2.25,1.4,1.4,0,0,0-1.41,1.44,1.468,1.468,0,0,0,1.62,1.5c1.38-.09,2.91-.27,4.44-.51V25.1h-6.87a1.337,1.337,0,0,0-1.26,1.47,1.347,1.347,0,0,0,1.26,1.5h6.87Zm-1.44,7.8c-.6-.03-1.02-.18-1.02-.84V35.57c0-.6.33-.84,1.02-.84h6.03c.69,0,1.02.24,1.02.84V38.9c0,.6-.33.84-1.02.84Zm-9.96-6.9a37.37,37.37,0,0,1-3.48,7.47,1.763,1.763,0,0,0-.33.99,1.615,1.615,0,0,0,1.71,1.5,1.909,1.909,0,0,0,1.62-.93,37.219,37.219,0,0,0,3.66-8.01,1.7,1.7,0,0,0,.09-.54,1.672,1.672,0,0,0-1.77-1.53A1.525,1.525,0,0,0-54.12,32.84Zm.24-16.17a1.847,1.847,0,0,0-1.05-.36,1.6,1.6,0,0,0-1.65,1.47,1.487,1.487,0,0,0,.6,1.11c.69.57,1.62,1.47,2.43,2.28a1.621,1.621,0,0,0,1.2.57,1.621,1.621,0,0,0,1.59-1.59,1.886,1.886,0,0,0-.51-1.23A18.477,18.477,0,0,0-53.88,16.67Zm-2.22,7.11a1.921,1.921,0,0,0-1.05-.36,1.675,1.675,0,0,0-1.68,1.53,1.446,1.446,0,0,0,.63,1.14,29.387,29.387,0,0,1,2.58,2.34,1.534,1.534,0,0,0,1.14.51,1.681,1.681,0,0,0,1.68-1.59,1.791,1.791,0,0,0-.54-1.23A15.832,15.832,0,0,0-56.1,23.78Zm34.65,2.43c2.1-.09,2.58-1.05,2.58-2.91V19.58c0-1.95-.84-2.94-3.21-2.94h-2.64c-2.37,0-3.21.99-3.21,2.94V23.3c0,1.92.57,2.91,2.91,2.91h.78V38.45l-.99.27V29.78c0-.75-.69-1.11-1.38-1.11-.72,0-1.41.36-1.41,1.11v9.54c-.09.03-.21.03-.3.06a1.31,1.31,0,0,0-1.08,1.35,1.379,1.379,0,0,0,1.59,1.47,53.29,53.29,0,0,0,8.79-2.49,1.326,1.326,0,0,0,.87-1.26,1.313,1.313,0,0,0-1.26-1.38,1.524,1.524,0,0,0-.51.09c-.48.18-.99.33-1.53.51V32.36h1.71c.72,0,1.05-.69,1.05-1.35,0-.69-.33-1.35-1.05-1.35h-1.71Zm-2.79-2.7c-.51,0-.72-.15-.72-.66V20.06c0-.51.18-.66.72-.66h1.68c.54,0,.72.15.72.66v2.79c0,.51-.18.66-.72.66ZM-16.5,42.5c0,.75.72,1.11,1.47,1.11.72,0,1.44-.36,1.44-1.11v-.45H-2.34a1.061,1.061,0,0,0,.99-1.17,1.045,1.045,0,0,0-.99-1.17H-7.71V38.33h3.72a1,1,0,0,0,.9-1.11c0-.57-.3-1.11-.9-1.11H-7.71V34.82h3.69a1,1,0,0,0,.9-1.11c0-.57-.3-1.11-.9-1.11H-7.71V31.28h4.86a1.013,1.013,0,0,0,.96-1.14A1.013,1.013,0,0,0-2.85,29H-7.23c.09-.21.21-.45.33-.75a1.143,1.143,0,0,0,.12-.51c0-.75-.81-1.23-1.59-1.23a1.386,1.386,0,0,0-1.35.87c-.21.57-.42,1.08-.66,1.62h-2.49l.27-.54a1.366,1.366,0,0,0,.15-.63,1.446,1.446,0,0,0-1.53-1.35,1.37,1.37,0,0,0-1.23.75,23.8,23.8,0,0,1-3.69,5.43,1.4,1.4,0,0,0-.39.93,1.392,1.392,0,0,0,1.41,1.32,1.537,1.537,0,0,0,1.08-.48,3.284,3.284,0,0,0,.3-.33Zm2.91-2.79V38.33h3.03v1.38Zm0-3.6V34.82h3.03v1.29Zm0-3.51v-.72c0-.48.15-.6.66-.6h2.37V32.6Zm.57-10.11v.87c0,.27-.09.39-.54.39H-16.8a1.076,1.076,0,0,0-1.02,1.2,1.076,1.076,0,0,0,1.02,1.2h3.51c2.04,0,2.97-.66,2.97-2.46V19.07c0-1.8-.93-2.46-2.97-2.46H-16.8a1.076,1.076,0,0,0-1.02,1.2,1.076,1.076,0,0,0,1.02,1.2h3.24c.45,0,.54.12.54.39v.81h-3.24a1.031,1.031,0,0,0-.96,1.14,1.031,1.031,0,0,0,.96,1.14Zm8.31,0v.87c0,.27-.09.39-.54.39H-8.61a1.076,1.076,0,0,0-1.02,1.2,1.076,1.076,0,0,0,1.02,1.2h3.63c2.07,0,3-.66,3-2.46V19.07c0-1.8-.93-2.46-3-2.46H-8.61a1.076,1.076,0,0,0-1.02,1.2,1.076,1.076,0,0,0,1.02,1.2h3.36c.45,0,.54.12.54.39v.81H-8.07a1.031,1.031,0,0,0-.96,1.14,1.031,1.031,0,0,0,.96,1.14ZM15.99,35.9a8.478,8.478,0,0,1-4.62,4.2,1.682,1.682,0,0,0-1.17,1.53,1.7,1.7,0,0,0,1.71,1.68,2.211,2.211,0,0,0,.81-.18c4.32-1.98,6.75-5.25,6.75-9.99a7.652,7.652,0,0,0-1.02-3.99c-.12-1.74-.18-3.45-.21-5.19,3.12-.09,6.18-.18,8.85-.18a1.492,1.492,0,0,0,1.44-1.59,1.533,1.533,0,0,0-1.56-1.65c-2.67,0-5.67.06-8.79.15V17.12a1.482,1.482,0,0,0-1.62-1.44,1.541,1.541,0,0,0-1.68,1.47c0,1.35,0,2.58.03,3.66-4.11.15-8.22.36-11.76.57A1.548,1.548,0,0,0,1.62,23,1.613,1.613,0,0,0,3.3,24.71c3.51-.24,7.59-.45,11.64-.63.03.81.06,1.59.09,2.4a7.046,7.046,0,0,0-1.8-.24c-2.79,0-4.65,2.04-4.65,4.98,0,3.42,2.16,5.4,5.1,5.4a3.307,3.307,0,0,0,2.22-.75ZM13.5,29.18a2.17,2.17,0,0,1,2.1,2.4c0,1.38-.75,2.1-1.77,2.1a2.232,2.232,0,0,1-2.07-2.37C11.76,29.99,12.48,29.18,13.5,29.18Zm30-1.59a66.021,66.021,0,0,0,6.03-6.78,2.382,2.382,0,0,0,.54-1.41,2,2,0,0,0-2.49-1.86c-2.88.45-6.06.81-8.49.96a1.486,1.486,0,0,0-1.47,1.56,1.526,1.526,0,0,0,1.62,1.62c2.37-.18,4.41-.39,6.09-.66A67.509,67.509,0,0,1,35.19,31.16a1.765,1.765,0,0,0-.75,1.41,1.691,1.691,0,0,0,1.68,1.65,2.079,2.079,0,0,0,1.26-.48c3.69-2.85,6.63-3.9,9.66-3.9,2.88,0,4.56,1.71,4.56,3.84a5.142,5.142,0,0,1-2.91,4.89c-.87-3-2.88-4.92-5.76-4.92-2.67,0-4.17,1.59-4.17,3.84,0,2.67,2.61,4.77,6.72,4.77,5.85,0,9.63-3.36,9.63-8.61,0-4.17-3.06-6.72-7.74-6.72a10.365,10.365,0,0,0-3.81.75Zm2.04,11.67H45.3c-2.37,0-3.51-.78-3.51-1.77a1.1,1.1,0,0,1,1.08-1.17C44.13,36.32,45.03,37.34,45.54,39.26ZM-48.48,67.6a1.425,1.425,0,0,0,1.35-1.59,1.415,1.415,0,0,0-1.35-1.56H-58.71c.15-1.8.24-3.87.24-6.24a1.533,1.533,0,0,0-1.71-1.47,1.549,1.549,0,0,0-1.71,1.47c0,2.46-.06,4.5-.21,6.24h-9.33a1.415,1.415,0,0,0-1.35,1.56,1.425,1.425,0,0,0,1.35,1.59h8.97a15.845,15.845,0,0,1-2.91,7.23,19.844,19.844,0,0,1-7.17,6.03,1.717,1.717,0,0,0-.99,1.53,1.651,1.651,0,0,0,1.65,1.68,2.144,2.144,0,0,0,.96-.24,23.594,23.594,0,0,0,8.25-7.11,19.273,19.273,0,0,0,2.82-5.67A25.667,25.667,0,0,0-49.2,83.62a2.051,2.051,0,0,0,.99.27,1.786,1.786,0,0,0,1.74-1.77,1.844,1.844,0,0,0-1.02-1.59,27.444,27.444,0,0,1-2.67-1.77,23.707,23.707,0,0,1-5.31-5.64,24.362,24.362,0,0,1-2.76-5.52Zm19.71-5.52q.09-1.485.09-3.15a1.545,1.545,0,0,0-1.71-1.44,1.556,1.556,0,0,0-1.74,1.44c0,7.92-1.41,12.45-3.99,15.96a21.852,21.852,0,0,1-6.69,5.79,1.646,1.646,0,0,0-.9,1.47,1.612,1.612,0,0,0,1.59,1.65,2.082,2.082,0,0,0,1.05-.3,25.6,25.6,0,0,0,7.53-6.63,21.71,21.71,0,0,0,3.66-7.8c1.98,6.27,5.94,11.4,10.92,14.16a1.765,1.765,0,0,0,.9.24,1.786,1.786,0,0,0,1.74-1.77,1.77,1.77,0,0,0-1.02-1.56,25.47,25.47,0,0,1-2.31-1.5,20.329,20.329,0,0,1-3.48-3.33,25.777,25.777,0,0,1-4.32-7.92A36.144,36.144,0,0,1-28.77,62.08Zm19.08-1.62A67.629,67.629,0,0,0-11.1,74.32a59.069,59.069,0,0,0,.51,7.41A1.64,1.64,0,0,0-8.85,83.2a1.614,1.614,0,0,0,1.71-1.83,58.931,58.931,0,0,1-.54-7.05A62.676,62.676,0,0,1-6.3,61.06,1.573,1.573,0,0,0-8.01,59.2,1.61,1.61,0,0,0-9.69,60.46ZM8.49,61.84a72.9,72.9,0,0,1-8.25.66,1.589,1.589,0,0,0-1.62,1.62A1.577,1.577,0,0,0,.36,65.74a76.134,76.134,0,0,0,8.46-.66,1.645,1.645,0,0,0,1.53-1.65A1.584,1.584,0,0,0,8.49,61.84ZM.66,75.1A1.465,1.465,0,0,0-.87,73.81a1.678,1.678,0,0,0-1.74,1.83c.33,3.63,2.64,5.31,8.19,5.31a26.212,26.212,0,0,0,5.19-.51,1.557,1.557,0,0,0,1.32-1.59,1.6,1.6,0,0,0-1.95-1.65,24.629,24.629,0,0,1-4.53.45C1.86,77.65.93,76.96.66,75.1ZM30.84,64.3a57.535,57.535,0,0,0,.93,6.78A40.151,40.151,0,0,0,33.21,76a26.721,26.721,0,0,1-6.42,4.89,1.606,1.606,0,0,0-.93,1.41,1.485,1.485,0,0,0,1.5,1.5,2.032,2.032,0,0,0,.96-.27,27.827,27.827,0,0,0,6.21-4.56c1.86,3.54,3.84,4.83,5.91,4.83,2.13,0,3.63-1.26,4.05-5.28a1.476,1.476,0,1,0-2.94-.27c-.24,2.07-.63,2.34-1.2,2.34-.87,0-2.07-.99-3.54-4.11a32.679,32.679,0,0,0,4.68-7.62,1.506,1.506,0,0,0-1.44-2.16,1.574,1.574,0,0,0-1.5,1.02,27.508,27.508,0,0,1-3,5.46,44.629,44.629,0,0,1-1.47-8.88h7.95a1.446,1.446,0,0,0,0-2.85h-8.1c-.03-1.14-.06-2.37-.06-3.66a1.46,1.46,0,0,0-1.62-1.41,1.455,1.455,0,0,0-1.62,1.38c0,1.29.03,2.52.06,3.69h-7.8c-2.97,0-4.29,1.11-4.29,3.72v3.84c0,6.06-.78,9.66-2.43,12.6a1.924,1.924,0,0,0-.27.93,1.538,1.538,0,0,0,1.59,1.47,1.82,1.82,0,0,0,1.62-1.02c1.62-2.94,2.52-6.72,2.67-12.06h3.3c.51,0,.72.21.72.78a17.139,17.139,0,0,1-.42,3.99c-.12.57-.42.78-.87.78a5.677,5.677,0,0,1-.93-.09,1.344,1.344,0,0,0-1.62,1.38,1.469,1.469,0,0,0,1.26,1.5,9.748,9.748,0,0,0,1.71.12c1.74,0,2.94-.84,3.42-2.97a23.956,23.956,0,0,0,.57-5.31c0-1.89-.99-2.82-3.21-2.82h-3.9V65.65c0-.99.39-1.35,1.68-1.35Zm6.51-7.29a1.576,1.576,0,0,0-.69-.18,1.482,1.482,0,0,0-1.47,1.41,1.266,1.266,0,0,0,.66,1.05c.75.48,1.26.78,2.01,1.35a1.517,1.517,0,0,0,.93.36,1.433,1.433,0,0,0,.75-2.64A14.8,14.8,0,0,0,37.35,57.01ZM72.6,73.39a1.278,1.278,0,0,0,1.23-1.41,1.262,1.262,0,0,0-1.23-1.41H54.81V68.92h12.3a1.25,1.25,0,0,0,0-2.49H54.81V64.84H66.99a1.25,1.25,0,0,0,0-2.49H54.81V61.6c0-.66.18-.9,1.11-.9H68.58a1.3,1.3,0,0,0,1.23-1.41,1.28,1.28,0,0,0-1.23-1.41H55.62c-3,0-3.93.96-3.93,3.33v9.36H47.46a1.28,1.28,0,0,0-1.23,1.41,1.3,1.3,0,0,0,1.23,1.41h4.23v7.17c-1.08.18-2.13.36-3.12.48a1.431,1.431,0,0,0-1.32,1.47,1.527,1.527,0,0,0,1.74,1.59,60.288,60.288,0,0,0,10.5-2.34,1.371,1.371,0,0,0,.99-1.32,1.532,1.532,0,0,0-1.44-1.59,1.492,1.492,0,0,0-.48.09c-1.11.36-2.4.69-3.72.99V73.39H58.2A19.48,19.48,0,0,0,71.16,84.04a1.486,1.486,0,0,0,.51.06,1.649,1.649,0,0,0,.24-3.27,18.19,18.19,0,0,1-5.94-2.64,26.062,26.062,0,0,0,3.24-2.43,1.552,1.552,0,0,0,.57-1.14,1.6,1.6,0,0,0-.66-1.23Zm-5.4,0c-.09.09-.21.18-.3.27a17.06,17.06,0,0,1-3.18,2.67,16.754,16.754,0,0,1-2.28-2.94Z" transform="translate(24120.684 1589.5)"/>
    <path id="パス_48107" data-name="パス 48107" d="M10,0H328.5a10,10,0,0,1,10,10V160a10,10,0,0,1-10,10H10A10,10,0,0,1,0,160V10A10,10,0,0,1,10,0Z" transform="translate(23284.684 1685)" fill="#f8ab1a"/>
    <path id="パス_48110" data-name="パス 48110" d="M-88.23-16.86h7.26a1.588,1.588,0,0,0,1.62-1.68,1.588,1.588,0,0,0-1.62-1.68H-98.55a1.588,1.588,0,0,0-1.62,1.68,1.588,1.588,0,0,0,1.62,1.68h6.72V-5.19h-9.42a1.588,1.588,0,0,0-1.62,1.68,1.588,1.588,0,0,0,1.62,1.68h22.5a1.588,1.588,0,0,0,1.62-1.68,1.588,1.588,0,0,0-1.62-1.68h-9.48Zm23.37-3.81a1.6,1.6,0,0,0-1.8-1.5,1.6,1.6,0,0,0-1.8,1.5v16.2c0,2.64,1.38,3.99,3.48,3.99a6.425,6.425,0,0,0,2.04-.33A34.489,34.489,0,0,0-47.88-10.8a1.956,1.956,0,0,0,.51-1.26,1.825,1.825,0,0,0-1.83-1.77,1.826,1.826,0,0,0-1.44.72A31.039,31.039,0,0,1-63.45-4.44a2.218,2.218,0,0,1-.69.12c-.51,0-.72-.3-.72-1.14Zm33.3,9.63a37.293,37.293,0,0,1-9.15,8.49A1.922,1.922,0,0,0-41.73-.93,1.748,1.748,0,0,0-39.96.81,2.385,2.385,0,0,0-38.79.45,39.859,39.859,0,0,0-28.77-8.76c1.38,1.17,2.64,2.4,3.66,3.45a2.027,2.027,0,0,0,1.5.72,1.794,1.794,0,0,0,1.74-1.8,2.21,2.21,0,0,0-.6-1.44,45.121,45.121,0,0,0-4.17-3.87,46.108,46.108,0,0,0,4.8-9.18,2.062,2.062,0,0,0,.15-.72,1.807,1.807,0,0,0-1.89-1.71,1.737,1.737,0,0,0-1.68,1.17,42.545,42.545,0,0,1-4.23,8.22,42.08,42.08,0,0,0-4.17-2.73,2.051,2.051,0,0,0-.99-.27,1.821,1.821,0,0,0-1.83,1.74,1.639,1.639,0,0,0,.93,1.41A38.221,38.221,0,0,1-31.56-11.04Zm24.3-10.05a2.181,2.181,0,0,0-1.2-.39,1.939,1.939,0,0,0-1.92,1.83,1.668,1.668,0,0,0,.72,1.35,43.865,43.865,0,0,1,4.08,3.63,1.9,1.9,0,0,0,1.35.6,2.028,2.028,0,0,0,1.92-1.98,1.77,1.77,0,0,0-.54-1.29A26.938,26.938,0,0,0-7.26-21.09ZM8.82-17.28A33.416,33.416,0,0,1-8.1-3.09,1.619,1.619,0,0,0-9.27-1.5,1.829,1.829,0,0,0-7.47.33,2.122,2.122,0,0,0-6.66.18,36.03,36.03,0,0,0,11.88-15.6a1.789,1.789,0,0,0,.3-.96,1.745,1.745,0,0,0-1.83-1.65A1.708,1.708,0,0,0,8.82-17.28Zm20.7-2.61c.48-.87.9-1.71,1.26-2.55a1.721,1.721,0,0,0,.15-.72,1.617,1.617,0,0,0-1.71-1.53,1.76,1.76,0,0,0-1.68,1.14,31.309,31.309,0,0,1-7.2,10.14A1.9,1.9,0,0,0,19.62-12a1.641,1.641,0,0,0,1.68,1.59,1.935,1.935,0,0,0,1.32-.54,32.383,32.383,0,0,0,5.04-5.94l7.32-.06c.57,0,.81.15.81.48a1.178,1.178,0,0,1-.09.42,24.19,24.19,0,0,1-3.03,5.94,27.519,27.519,0,0,0-3.6-2.76,1.869,1.869,0,0,0-1.05-.33,1.654,1.654,0,0,0-1.65,1.59,1.58,1.58,0,0,0,.75,1.32A27.577,27.577,0,0,1,30.6-7.5a29.16,29.16,0,0,1-7.74,6.27A1.811,1.811,0,0,0,21.78.39a1.67,1.67,0,0,0,1.65,1.68,2.142,2.142,0,0,0,.99-.27C31.08-1.8,37.08-8.64,39.18-15.6a5.353,5.353,0,0,0,.27-1.59c0-1.8-1.26-2.79-3.75-2.76Zm34.44,6.57c0,6-1.98,9.63-6.99,12.09A1.77,1.77,0,0,0,55.86.33,1.792,1.792,0,0,0,57.63,2.1a2.245,2.245,0,0,0,.9-.24c5.79-2.76,9.03-7.35,9.03-14.94v-8.91a1.612,1.612,0,0,0-1.77-1.53,1.634,1.634,0,0,0-1.83,1.53Zm-7.92-8.16a1.65,1.65,0,0,0-1.8-1.59,1.65,1.65,0,0,0-1.8,1.59V-9.69a1.645,1.645,0,0,0,1.8,1.56,1.645,1.645,0,0,0,1.8-1.56Zm23.01,8.52a1.6,1.6,0,0,0-1.62,1.71,1.612,1.612,0,0,0,1.62,1.71h21.9a1.612,1.612,0,0,0,1.62-1.71,1.6,1.6,0,0,0-1.62-1.71Z" transform="translate(23453.684 1781)"/>
    <path id="パス_48108" data-name="パス 48108" d="M10,0H683a10,10,0,0,1,10,10V160a10,10,0,0,1-10,10H10A10,10,0,0,1,0,160V10A10,10,0,0,1,10,0Z" transform="translate(23284.684 1499.5)" fill="#ffe2aa"/>
    <path id="パス_48111" data-name="パス 48111" d="M-23.01-.63q.72.9,1.26,1.71a1.829,1.829,0,0,0,1.5.84A1.635,1.635,0,0,0-18.57.36a1.932,1.932,0,0,0-.42-1.17,45.89,45.89,0,0,0-5.82-6.57,1.776,1.776,0,0,0-1.23-.51,1.556,1.556,0,0,0-1.59,1.44,1.463,1.463,0,0,0,.48,1.02,28.41,28.41,0,0,1,2.19,2.37c-3.09.39-6.24.75-9.36.93a65.364,65.364,0,0,0,4.98-10.2,1.814,1.814,0,0,0,.12-.66,1.571,1.571,0,0,0-1.68-1.53,1.818,1.818,0,0,0-1.71,1.23,63.178,63.178,0,0,1-5.52,11.4l-2.52.09A1.509,1.509,0,0,0-42.21-.24a1.488,1.488,0,0,0,1.59,1.56A120.255,120.255,0,0,0-23.01-.63ZM-35.97-23.37a27.6,27.6,0,0,1-6.75,9.87,1.869,1.869,0,0,0-.66,1.35,1.72,1.72,0,0,0,1.74,1.62,1.869,1.869,0,0,0,1.29-.54,30.34,30.34,0,0,0,7.56-11.16,1.814,1.814,0,0,0,.12-.66,1.644,1.644,0,0,0-1.74-1.53A1.651,1.651,0,0,0-35.97-23.37Zm11.37-.24a1.615,1.615,0,0,0-1.5-.96,1.522,1.522,0,0,0-1.62,1.44,1.556,1.556,0,0,0,.15.72,32.458,32.458,0,0,0,8.1,10.92,1.9,1.9,0,0,0,1.26.51,1.787,1.787,0,0,0,1.74-1.77,2.108,2.108,0,0,0-.9-1.62A26.816,26.816,0,0,1-24.6-23.61ZM-.45-17.97A35.079,35.079,0,0,0,2.22-22.5a1.4,1.4,0,0,0,.15-.66A1.553,1.553,0,0,0,.78-24.6a1.425,1.425,0,0,0-1.35.9c-.42.93-.87,1.83-1.38,2.73v-.06a1.2,1.2,0,0,0-1.17-1.29H-5.37v-1.86c0-.84-.75-1.26-1.53-1.26a1.375,1.375,0,0,0-1.53,1.26v1.86h-2.64A1.2,1.2,0,0,0-12.21-21a1.2,1.2,0,0,0,1.14,1.32h2.64v1.71h-4.5a1.2,1.2,0,0,0-1.14,1.32,1.2,1.2,0,0,0,1.14,1.32h6.87c-.69.75-1.38,1.47-2.1,2.16h-3.03a1.2,1.2,0,0,0-1.14,1.32,1.167,1.167,0,0,0,1.14,1.26h.15c-.75.51-1.5.99-2.19,1.38a1.4,1.4,0,0,0-.84,1.23A1.416,1.416,0,0,0-12.69-6.6a1.327,1.327,0,0,0,.72-.21,35.121,35.121,0,0,0,5.28-3.78h2.13q.36,0,.36.18,0,.09-.18.27c-.27.24-.54.48-.84.72a1.711,1.711,0,0,0-.39-.03c-.75,0-1.5.39-1.5,1.23v2.19c-1.8.24-3.63.48-5.37.63a1.331,1.331,0,0,0-1.29,1.38,1.412,1.412,0,0,0,1.56,1.47c1.65-.15,3.36-.36,5.1-.63v2.13c0,.51-.21.66-.6.66A9.5,9.5,0,0,1-8.94-.48,1.344,1.344,0,0,0-10.5.99,1.3,1.3,0,0,0-9.42,2.37a11.637,11.637,0,0,0,2.01.18c2.13,0,3.3-.9,3.3-3.03V-3.66C-2.37-3.99-.69-4.35.9-4.77A1.294,1.294,0,0,0,1.95-6.09,1.382,1.382,0,0,0,.6-7.53a2.316,2.316,0,0,0-.45.06c-1.41.36-2.82.66-4.26.93V-7.2A15.261,15.261,0,0,0-1.56-9.39a2.994,2.994,0,0,0,.93-1.95c0-1.05-.9-1.83-2.49-1.83h-1.2c.66-.69,1.32-1.41,1.92-2.16H.93A1.207,1.207,0,0,0,2.1-16.65,1.207,1.207,0,0,0,.93-17.97Zm-4.92,0v-1.71h2.25a.958.958,0,0,0,.42-.09,19.014,19.014,0,0,1-1.23,1.8Zm18.33,2.04a1.284,1.284,0,0,0,1.2-1.44,1.284,1.284,0,0,0-1.2-1.44H6.78a41.057,41.057,0,0,0,1.26-4.38,1.474,1.474,0,0,0-1.59-1.74,1.444,1.444,0,0,0-1.5,1.17A39.9,39.9,0,0,1,.66-12.27a1.408,1.408,0,0,0-.24.81,1.494,1.494,0,0,0,1.53,1.41,1.655,1.655,0,0,0,1.47-.93c.09-.15.15-.27.24-.42A26,26,0,0,0,5.55-6.39,20.135,20.135,0,0,1-.48-.3a1.617,1.617,0,0,0-.87,1.38A1.5,1.5,0,0,0,.15,2.55a1.608,1.608,0,0,0,.9-.3A22.578,22.578,0,0,0,7.14-3.6,22.622,22.622,0,0,0,11.7,1.41a1.719,1.719,0,0,0,1.11.42A1.681,1.681,0,0,0,14.49.24a1.813,1.813,0,0,0-.84-1.44A18.633,18.633,0,0,1,8.82-6.3a28.744,28.744,0,0,0,3.09-9.63Zm-4.02,0a26.776,26.776,0,0,1-1.8,6.45,29.488,29.488,0,0,1-1.68-5.76c.09-.24.18-.45.27-.69Zm19.32-6.84H17.67a1.172,1.172,0,0,0-1.11,1.29,1.188,1.188,0,0,0,1.11,1.29h7.68a27.7,27.7,0,0,1-1.68,2.88c-1.56.06-3.15.09-4.68.09A1.249,1.249,0,0,0,17.7-15.9a1.3,1.3,0,0,0,1.35,1.38,160.984,160.984,0,0,0,18.03-1.32c.63.57,1.23,1.17,1.74,1.68a1.665,1.665,0,0,0,1.23.57,1.5,1.5,0,0,0,1.5-1.47,1.677,1.677,0,0,0-.54-1.2,36.246,36.246,0,0,0-4.74-3.93h6.06a1.166,1.166,0,0,0,1.08-1.29,1.15,1.15,0,0,0-1.08-1.29H31.53v-1.59c0-.87-.81-1.29-1.62-1.29-.84,0-1.65.42-1.65,1.29Zm5.52,2.58a1.143,1.143,0,0,0-.33.78,1.185,1.185,0,0,0,.54.93c.21.15.42.3.63.48-2.46.21-4.92.39-7.41.54.57-.9,1.08-1.8,1.56-2.73Zm-8.4,6.75c-3,0-4.11.93-4.11,3.18V1.65c0,.78.81,1.2,1.62,1.2.78,0,1.59-.42,1.59-1.2V-2.52H35.79v1.38c0,.66-.24.84-.69.84a11.241,11.241,0,0,1-1.32-.09,1.407,1.407,0,0,0-1.59,1.47,1.436,1.436,0,0,0,1.35,1.47c.63.06,1.41.09,1.98.09C37.92,2.64,39,1.59,39-.72v-9.54c0-2.25-1.08-3.18-4.11-3.18Zm9.09,2.58c1.08,0,1.32.21,1.32.96v.78H24.48V-9.9c0-.75.24-.96,1.32-.96Zm1.32,5.94H24.48v-1.8H35.79Z" transform="translate(23631.684 1595.5)"/>
    <path id="パス_48103" data-name="パス 48103" d="M10,0H683a10,10,0,0,1,10,10V160a10,10,0,0,1-10,10H10A10,10,0,0,1,0,160V10A10,10,0,0,1,10,0Z" transform="translate(22570.684 1685)" fill="#f8bc2c"/>
    <path id="パス_48104" data-name="パス 48104" d="M-123.06-17.94l-6.66,1.02a1.377,1.377,0,0,0-1.23,1.47,1.528,1.528,0,0,0,1.74,1.65l6.72-1.05.75,4.26-8.79,1.47a1.44,1.44,0,0,0-1.23,1.47A1.551,1.551,0,0,0-129.99-6l8.79-1.47,1.44,8.01a1.557,1.557,0,0,0,1.65,1.29A1.554,1.554,0,0,0-116.4.06l-1.44-8.1,8.82-1.47a1.44,1.44,0,0,0,1.23-1.47,1.541,1.541,0,0,0-1.8-1.62l-8.79,1.47-.75-4.23,6.81-1.05a1.391,1.391,0,0,0,1.23-1.44,1.562,1.562,0,0,0-1.8-1.65l-6.78,1.05-.87-4.89a1.559,1.559,0,0,0-1.65-1.26c-.96,0-1.95.63-1.74,1.74Zm25.8-3.15a2.181,2.181,0,0,0-1.2-.39,1.939,1.939,0,0,0-1.92,1.83,1.668,1.668,0,0,0,.72,1.35,43.864,43.864,0,0,1,4.08,3.63,1.9,1.9,0,0,0,1.35.6,2.028,2.028,0,0,0,1.92-1.98,1.77,1.77,0,0,0-.54-1.29A26.938,26.938,0,0,0-97.26-21.09Zm16.08,3.81A33.416,33.416,0,0,1-98.1-3.09,1.619,1.619,0,0,0-99.27-1.5,1.829,1.829,0,0,0-97.47.33a2.121,2.121,0,0,0,.81-.15A36.03,36.03,0,0,0-78.12-15.6a1.789,1.789,0,0,0,.3-.96,1.745,1.745,0,0,0-1.83-1.65A1.708,1.708,0,0,0-81.18-17.28Zm20.1-2.31c.48-.87.9-1.71,1.26-2.55a1.721,1.721,0,0,0,.15-.72,1.617,1.617,0,0,0-1.71-1.53,1.76,1.76,0,0,0-1.68,1.14,31.309,31.309,0,0,1-7.2,10.14,1.9,1.9,0,0,0-.72,1.41,1.641,1.641,0,0,0,1.68,1.59,1.935,1.935,0,0,0,1.32-.54,32.383,32.383,0,0,0,5.04-5.94l7.32-.06c.57,0,.81.15.81.48a1.178,1.178,0,0,1-.09.42,24.189,24.189,0,0,1-3.03,5.94,27.519,27.519,0,0,0-3.6-2.76,1.869,1.869,0,0,0-1.05-.33,1.654,1.654,0,0,0-1.65,1.59,1.58,1.58,0,0,0,.75,1.32A27.577,27.577,0,0,1-60-7.2,29.16,29.16,0,0,1-67.74-.93,1.811,1.811,0,0,0-68.82.69a1.67,1.67,0,0,0,1.65,1.68,2.142,2.142,0,0,0,.99-.27c6.66-3.6,12.66-10.44,14.76-17.4a5.353,5.353,0,0,0,.27-1.59c0-1.8-1.26-2.79-3.75-2.76Zm8.22-2.82a21.5,21.5,0,0,1,1.98,2.73,1.152,1.152,0,0,0,1.02.66,1.229,1.229,0,0,0,1.23-1.2,1.327,1.327,0,0,0-.21-.72,16.019,16.019,0,0,0-2.1-2.82,1.2,1.2,0,0,0-.9-.42,1.225,1.225,0,0,0-1.26,1.11A1,1,0,0,0-52.86-22.41Zm3.21-2.1a33.1,33.1,0,0,1,1.98,2.7,1.357,1.357,0,0,0,1.11.66,1.178,1.178,0,0,0,1.2-1.17,1.614,1.614,0,0,0-.27-.81A15.112,15.112,0,0,0-47.7-25.8a1.388,1.388,0,0,0-.99-.42,1.168,1.168,0,0,0-1.23,1.05A1.044,1.044,0,0,0-49.65-24.51Zm8.7,11.55a1.6,1.6,0,0,0-1.62,1.71,1.612,1.612,0,0,0,1.62,1.71h21.9a1.612,1.612,0,0,0,1.62-1.71,1.6,1.6,0,0,0-1.62-1.71ZM-9-20.94a1.573,1.573,0,0,0-1.59,1.65,1.691,1.691,0,0,0,1.74,1.77L5.61-17.7c.87,0,1.26.21,1.26.78a2.425,2.425,0,0,1-.09.6C5.22-10.95,1.47-6.15-5.16-2.7A1.79,1.79,0,0,0-6.21-1.11,1.747,1.747,0,0,0-4.47.66,2.17,2.17,0,0,0-3.48.42C3.6-3.03,8.82-9.15,10.47-16.26a7.369,7.369,0,0,0,.21-1.71c0-2.01-1.23-3.15-4.38-3.12Zm34.14.27a1.6,1.6,0,0,0-1.8-1.5,1.6,1.6,0,0,0-1.8,1.5v16.2c0,2.64,1.38,3.99,3.48,3.99a6.425,6.425,0,0,0,2.04-.33A34.489,34.489,0,0,0,42.12-10.8a1.956,1.956,0,0,0,.51-1.26,1.825,1.825,0,0,0-1.83-1.77,1.826,1.826,0,0,0-1.44.72A31.039,31.039,0,0,1,26.55-4.44a2.218,2.218,0,0,1-.69.12c-.51,0-.72-.3-.72-1.14Zm28.44,4.86a1.6,1.6,0,0,0-1.38-.78,1.567,1.567,0,0,0-1.65,1.38,1.327,1.327,0,0,0,.21.72,29.053,29.053,0,0,1,1.92,3.87,1.422,1.422,0,0,0,1.38.93,1.63,1.63,0,0,0,1.71-1.47,1.7,1.7,0,0,0-.09-.54A23.061,23.061,0,0,0,53.58-15.81Zm5.94-1.41A1.552,1.552,0,0,0,58.11-18a1.492,1.492,0,0,0-1.62,1.32,1.3,1.3,0,0,0,.21.69,26.3,26.3,0,0,1,1.8,3.81,1.414,1.414,0,0,0,1.38.99,1.568,1.568,0,0,0,1.65-1.44,1.664,1.664,0,0,0-.09-.51A21.073,21.073,0,0,0,59.52-17.22Zm6.84,1.2C64.56-9.51,61.02-4.56,55.65-1.53a1.614,1.614,0,0,0-.93,1.44A1.588,1.588,0,0,0,56.25,1.5a1.89,1.89,0,0,0,.84-.24c5.76-3.12,10.53-9.42,12.42-16.5a2.064,2.064,0,0,0,.06-.39,1.613,1.613,0,0,0-1.74-1.44A1.39,1.39,0,0,0,66.36-16.02Zm23.31-3.57c.51-.96.96-1.89,1.35-2.82a2.047,2.047,0,0,0,.15-.69,1.681,1.681,0,0,0-1.77-1.59,1.767,1.767,0,0,0-1.65,1.14,31.568,31.568,0,0,1-7.23,10.32,2.059,2.059,0,0,0-.75,1.44,1.64,1.64,0,0,0,1.68,1.59,1.976,1.976,0,0,0,1.38-.57,31.817,31.817,0,0,0,4.89-5.7l6.72-.06c.57,0,.81.15.81.48a1.178,1.178,0,0,1-.09.42A25.689,25.689,0,0,1,83.37-1.38,1.923,1.923,0,0,0,82.32.24a1.709,1.709,0,0,0,1.71,1.71,2.24,2.24,0,0,0,.99-.27A29.6,29.6,0,0,0,98.76-15.3a5.353,5.353,0,0,0,.27-1.59c0-1.8-1.26-2.79-3.75-2.76Zm22.38-1.59a1.541,1.541,0,0,0-1.47,1.68,1.511,1.511,0,0,0,1.5,1.62l10.74-.21c.51,0,.75.12.75.39a1.119,1.119,0,0,1-.12.48c-2.37,5.82-7.62,10.92-13.86,14.07a1.668,1.668,0,0,0-1.02,1.53A1.76,1.76,0,0,0,110.31.12a1.945,1.945,0,0,0,.87-.21,34.7,34.7,0,0,0,9.78-7.44,46.255,46.255,0,0,1,7.38,7.05,1.869,1.869,0,0,0,1.44.72,1.912,1.912,0,0,0,1.92-1.8,2.108,2.108,0,0,0-.57-1.35,44.591,44.591,0,0,0-8.04-7.11,27.839,27.839,0,0,0,4.11-7.17,5.019,5.019,0,0,0,.33-1.62c0-1.62-1.2-2.64-3.54-2.58Z" transform="translate(22917.684 1781)"/>
    <path id="パス_48119" data-name="パス 48119" d="M-132.42-13.53a28.634,28.634,0,0,1,6.3-6.54,1.337,1.337,0,0,0,.54-1.11,1.69,1.69,0,0,0-1.71-1.71,1.808,1.808,0,0,0-1.11.42,33.92,33.92,0,0,0-6.51,7.14c-2.07,3.33-2.76,5.22-2.76,7.98,0,4.56,3,7.56,7.47,7.56a7.209,7.209,0,0,0,7.56-7.41c0-4.35-3-7.08-7.23-7.08A4.28,4.28,0,0,0-132.42-13.53Zm2.22,10.89c-2.49,0-4.05-1.74-4.05-4.65a6.5,6.5,0,0,1,.39-2.4,4.614,4.614,0,0,1,3.87-1.89c2.31,0,3.87,1.68,3.87,4.38C-126.12-4.41-127.68-2.64-130.2-2.64Zm11.31-7.38a1.332,1.332,0,0,0-1.35,1.44,1.332,1.332,0,0,0,1.35,1.44h7.47a1.332,1.332,0,0,0,1.35-1.44,1.332,1.332,0,0,0-1.35-1.44Zm17.82,8.25A1.563,1.563,0,0,0-99.33,0a1.607,1.607,0,0,0,1.8-1.77V-20.7a1.86,1.86,0,0,0-1.98-2.04,3,3,0,0,0-2.22.99c-1.56,1.41-2.91,2.52-4.53,3.78a1.578,1.578,0,0,0-.69,1.38,1.56,1.56,0,0,0,1.68,1.62,1.881,1.881,0,0,0,1.32-.51c1.08-.93,1.95-1.77,2.88-2.7Zm15.93-1.59c1.89-1.71,3.36-3.03,5.85-5.64,2.7-2.85,3.66-4.71,3.66-7.47,0-3.84-2.4-6.42-6.69-6.42a9.425,9.425,0,0,0-6.27,2.64,1.562,1.562,0,0,0-.6,1.23,1.656,1.656,0,0,0,1.74,1.68,1.654,1.654,0,0,0,1.14-.51,5.779,5.779,0,0,1,4.02-1.95c1.89,0,3.06,1.14,3.06,3.39,0,1.74-.81,3.3-2.67,5.49a64.306,64.306,0,0,1-6.75,6.69,2.492,2.492,0,0,0-.93,2.04A1.759,1.759,0,0,0-87.81-.27h11.07A1.421,1.421,0,0,0-75.15-1.8a1.443,1.443,0,0,0-1.59-1.56Zm26.52,1.47c.03.87-.3,1.11-.99,1.11a9.231,9.231,0,0,1-1.62-.18A1.555,1.555,0,0,0-63.12.63a1.564,1.564,0,0,0,1.35,1.59,11.833,11.833,0,0,0,2.58.21c2.91,0,3.99-1.17,3.93-4.05l-.15-6.81a45.387,45.387,0,0,0,5.37-3.78,1.375,1.375,0,0,0,.57-1.14,1.679,1.679,0,0,0-1.65-1.62,1.646,1.646,0,0,0-1.08.42,35.149,35.149,0,0,1-3.3,2.49l-.09-4.02h9.06a1.378,1.378,0,0,0,1.29-1.53,1.362,1.362,0,0,0-1.29-1.53h-9.12l-.12-4.95a1.515,1.515,0,0,0-1.68-1.41,1.525,1.525,0,0,0-1.68,1.47l.12,4.89H-69.84c-.84,0-1.26.75-1.26,1.53a1.375,1.375,0,0,0,1.26,1.53h10.89l.15,6.06a53.658,53.658,0,0,1-12.12,4.8,1.542,1.542,0,0,0-1.23,1.53A1.553,1.553,0,0,0-70.59-2.1a2.241,2.241,0,0,0,.6-.09A52.808,52.808,0,0,0-58.74-6.57Zm18.33-9.51c0,5.55,2.43,10.44,7.02,14.43a1.38,1.38,0,0,0,.9.36,1.143,1.143,0,0,0,1.11-1.08,1.164,1.164,0,0,0-.45-.93A16.739,16.739,0,0,1-37.53-11.4a16.739,16.739,0,0,1,5.82-12.78,1.164,1.164,0,0,0,.45-.93,1.143,1.143,0,0,0-1.11-1.08,1.38,1.38,0,0,0-.9.36C-37.86-21.84-40.29-16.95-40.29-11.4Zm20.58,1.32a18.421,18.421,0,0,0-4.95.6c-2.49.66-4.11,2.28-4.11,5.01,0,2.76,1.89,4.59,5.22,4.59a5,5,0,0,0,4.56-2.13A2.834,2.834,0,0,0-17.4-.33a3.129,3.129,0,0,0,1.38.3,1.3,1.3,0,0,0,1.29-1.44,1.132,1.132,0,0,0-.63-1.05c-.69-.45-1.05-1.05-1.05-3.12V-11.1c0-3.33-2.1-5.07-5.67-5.07a8.206,8.206,0,0,0-5.4,2.01,1.3,1.3,0,0,0-.39.9,1.584,1.584,0,0,0,1.59,1.5,1.392,1.392,0,0,0,.84-.33,4.745,4.745,0,0,1,3.24-1.32,2.234,2.234,0,0,1,2.49,2.34Zm0,4.26a3.243,3.243,0,0,1-3.27,3.36c-1.8,0-2.52-.9-2.52-2.28a2.534,2.534,0,0,1,1.98-2.37,10.983,10.983,0,0,1,3.81-.57Zm12.84-9.96v-2.16c0-1.74.63-2.52,1.95-2.52.48,0,.96.09,1.29.09a1.344,1.344,0,0,0,1.11-1.47,1.274,1.274,0,0,0-1.05-1.41,7.285,7.285,0,0,0-1.47-.12c-3.06,0-5.28,1.83-5.28,5.49v2.1h-1.77a1.335,1.335,0,0,0-1.5,1.41,1.335,1.335,0,0,0,1.5,1.41h1.77V-1.59c0,.99.66,1.56,1.74,1.56A1.525,1.525,0,0,0-6.87-1.59V-12.96h2.85a1.349,1.349,0,0,0,1.5-1.41,1.349,1.349,0,0,0-1.5-1.41Zm11.7,2.82H7.8a1.349,1.349,0,0,0,1.5-1.41,1.349,1.349,0,0,0-1.5-1.41H4.83v-4.05a1.525,1.525,0,0,0-1.71-1.56c-1.08,0-1.74.57-1.74,1.56v4.05H-.15a1.335,1.335,0,0,0-1.5,1.41,1.335,1.335,0,0,0,1.5,1.41H1.38v7.95c0,3.63,1.44,4.98,4.59,4.98A8.681,8.681,0,0,0,8.79-.48a1.147,1.147,0,0,0,.78-1.14c0-.9-.48-1.41-1.05-1.41a4.109,4.109,0,0,0-.96.18,4.52,4.52,0,0,1-1.11.15c-.99,0-1.62-.57-1.62-2.04ZM21.96-7.08a2.336,2.336,0,0,0,2.55-2.64,6.307,6.307,0,0,0-6.3-6.42c-3.99,0-6.99,3.09-6.99,8.07,0,5.19,2.85,8.16,7.2,8.16a8.558,8.558,0,0,0,5.46-1.83,1.311,1.311,0,0,0,.42-1.05,1.391,1.391,0,0,0-1.44-1.38,1.5,1.5,0,0,0-.93.36,5.034,5.034,0,0,1-3.51,1.17c-1.95,0-3.84-1.62-3.96-4.44ZM14.55-9.57c.12-2.25,1.5-3.93,3.6-3.93a3.212,3.212,0,0,1,3.18,3.18.662.662,0,0,1-.69.75ZM31.32-7.08c0-3.75,1.86-5.76,4.02-5.76a1.5,1.5,0,0,0,1.68-1.65c0-1.08-.42-1.68-1.68-1.68-2.04,0-3.45,1.35-4.14,3.99v-2.31a1.506,1.506,0,0,0-1.62-1.53,1.566,1.566,0,0,0-1.71,1.53v12.9c0,.99.66,1.56,1.74,1.56a1.525,1.525,0,0,0,1.71-1.56Zm13.23.21c2.04.51,2.61,1.05,2.61,2.16,0,1.29-.9,2.19-2.67,2.19a4.4,4.4,0,0,1-3.6-1.56,1.447,1.447,0,0,0-1.14-.51,1.42,1.42,0,0,0-1.5,1.35,1.305,1.305,0,0,0,.39,1.08A7.435,7.435,0,0,0,44.49.12c3.66,0,5.88-1.98,5.88-4.89,0-2.7-1.29-4.05-4.62-4.8l-1.08-.24c-2.31-.51-2.7-.96-2.7-2.01,0-.9.66-1.71,2.31-1.71a3.667,3.667,0,0,1,3.06,1.35,1.451,1.451,0,0,0,1.02.39,1.479,1.479,0,0,0,1.5-1.47,1.393,1.393,0,0,0-.48-1.14,7.264,7.264,0,0,0-5.13-1.77c-3.24,0-5.46,1.74-5.46,4.32,0,2.61,1.2,3.87,4.77,4.74ZM65.37-2.94a1.425,1.425,0,0,0-1.53-1.29,1.279,1.279,0,0,0-.93.42,3.9,3.9,0,0,1-2.82,1.17c-2.22,0-3.93-1.59-3.93-5.43,0-3.78,1.71-5.34,3.9-5.34a4.558,4.558,0,0,1,2.55.84,2.037,2.037,0,0,0,1.11.36,1.46,1.46,0,0,0,1.44-1.44,1.357,1.357,0,0,0-.69-1.32,8.35,8.35,0,0,0-4.41-1.2c-4.32,0-7.38,3.09-7.38,8.1C52.68-3,55.56.12,60.06.12a6.626,6.626,0,0,0,4.86-1.89A1.474,1.474,0,0,0,65.37-2.94ZM77.73-4.86a14.98,14.98,0,0,0,.33,3.75A1.419,1.419,0,0,0,79.62-.03c1.17,0,1.95-.57,1.95-1.32a3.085,3.085,0,0,0-.03-.51,13.973,13.973,0,0,1-.33-3.3V-9.69c0-2.79-.42-4.02-1.41-5.1a4.659,4.659,0,0,0-3.81-1.38,4.551,4.551,0,0,0-4.14,2.79v-8.43a1.51,1.51,0,0,0-1.71-1.56c-1.08,0-1.74.57-1.74,1.56V-1.59c0,.99.66,1.56,1.74,1.56a1.525,1.525,0,0,0,1.71-1.56V-8.4c0-3.12,1.62-4.92,3.66-4.92a1.974,1.974,0,0,1,1.65.75c.33.39.57,1.11.57,3.36ZM91.77.12c4.17,0,7.11-3.09,7.11-8.19,0-5.07-3-8.1-7.11-8.1s-7.11,3.03-7.11,8.1C84.66-2.97,87.63.12,91.77.12Zm0-2.73c-2.34,0-3.66-1.95-3.66-5.46,0-3.48,1.32-5.37,3.66-5.37,2.37,0,3.66,1.89,3.66,5.37C95.43-4.56,94.14-2.61,91.77-2.61ZM108.51.12c4.17,0,7.11-3.09,7.11-8.19,0-5.07-3-8.1-7.11-8.1s-7.11,3.03-7.11,8.1C101.4-2.97,104.37.12,108.51.12Zm0-2.73c-2.34,0-3.66-1.95-3.66-5.46,0-3.48,1.32-5.37,3.66-5.37,2.37,0,3.66,1.89,3.66,5.37C112.17-4.56,110.88-2.61,108.51-2.61Zm10.74-2.31c0,3.69,1.56,4.89,4.17,4.89a8.068,8.068,0,0,0,.93-.06c.63-.06,1.05-.66,1.05-1.5s-.45-1.35-1.08-1.35c-.12,0-.24.03-.36.03-.96,0-1.26-.42-1.26-2.73V-21.81a1.51,1.51,0,0,0-1.71-1.56c-1.08,0-1.74.57-1.74,1.56Zm16.77-6.48c0-5.55-2.43-10.44-7.02-14.43a1.38,1.38,0,0,0-.9-.36,1.143,1.143,0,0,0-1.11,1.08,1.164,1.164,0,0,0,.45.93,16.739,16.739,0,0,1,5.82,12.78,16.739,16.739,0,0,1-5.82,12.78,1.164,1.164,0,0,0-.45.93,1.143,1.143,0,0,0,1.11,1.08,1.38,1.38,0,0,0,.9-.36C133.59-.96,136.02-5.85,136.02-11.4Z" transform="translate(23613.684 1442.5)" fill="#fff"/>
    <path id="パス_48120" data-name="パス 48120" d="M236.25,0,472.5,67.633H0Z" transform="translate(24310.316 1382) rotate(90)" fill="#4cc1c9"/>
  </g>
</svg>
