<svg xmlns="http://www.w3.org/2000/svg" width="337" height="381" viewBox="0 0 337 381">
  <g id="グループ_12792" data-name="グループ 12792" transform="translate(-24446 -2203)">
    <g id="グループ_12788" data-name="グループ 12788" transform="translate(23755.457 -20816) rotate(90)">
      <path id="長方形_6826" data-name="長方形 6826" d="M5,0H43a0,0,0,0,1,0,0V46a0,0,0,0,1,0,0H5a5,5,0,0,1-5-5V5A5,5,0,0,1,5,0Z" transform="translate(23019 -736.543)" fill="#aeadae"/>
      <path id="多角形_21" data-name="多角形 21" d="M23,0,46,20H0Z" transform="translate(23082 -736.543) rotate(90)" fill="#aeadae"/>
    </g>
    <path id="前面オブジェクトで型抜き_10" data-name="前面オブジェクトで型抜き 10" d="M46,122H0V0L23,19.837,46,0V122Z" transform="translate(24446 2365)" fill="#aeadae"/>
    <path id="前面オブジェクトで型抜き_11" data-name="前面オブジェクトで型抜き 11" d="M46,122H0V0L23,19.837,46,0V122Z" transform="translate(24446 2365)" fill="#aeadae"/>
    <path id="前面オブジェクトで型抜き_12" data-name="前面オブジェクトで型抜き 12" d="M46,107.92H0V0L23,19.476,46,0V107.919Z" transform="translate(24446 2252)" fill="#aeadae"/>
    <path id="多角形_41" data-name="多角形 41" d="M23,0,46,20H0Z" transform="translate(24492 2507) rotate(180)" fill="#aeadae"/>
    <path id="多角形_42" data-name="多角形 42" d="M23,0,46,20H0Z" transform="translate(24492 2380) rotate(180)" fill="#aeadae"/>
    <rect id="長方形_6895" data-name="長方形 6895" width="286" height="44" rx="5" transform="translate(24497 2203)" fill="#f8bc2c"/>
    <path id="長方形_6896" data-name="長方形 6896" d="M5,0H332a5,5,0,0,1,5,5V44a0,0,0,0,1,0,0H0a0,0,0,0,1,0,0V5A5,5,0,0,1,5,0Z" transform="translate(24446 2512)" fill="#4cc1c9"/>
    <text id="Pre-school" transform="translate(24615 2231)" font-size="15" font-family="DNPShueiMGoStd-B, DNP ShueiMGoStd"><tspan x="-36.997" y="0">Pre-school</tspan></text>
    <text id="グローバルに活躍する大人に成長" transform="translate(24614 2543)" font-size="15" font-family="DNPShueiMGoStd-B, DNP ShueiMGoStd"><tspan x="-112.5" y="0">グローバルに活躍する大人に成長</tspan></text>
    <rect id="長方形_6897" data-name="長方形 6897" width="141" height="125" rx="5" transform="translate(24497 2252)" fill="#f8bc2c"/>
    <rect id="長方形_6898" data-name="長方形 6898" width="141" height="61" rx="5" transform="translate(24642 2382)" fill="#f6ab1b"/>
    <rect id="長方形_6899" data-name="長方形 6899" width="141" height="125" rx="5" transform="translate(24642 2252)" fill="#f8bc2c"/>
    <rect id="長方形_6900" data-name="長方形 6900" width="141" height="61" rx="5" transform="translate(24642 2446)" fill="#f6ab1b"/>
    <rect id="長方形_6901" data-name="長方形 6901" width="143" height="125" rx="5" transform="translate(24497 2382)" fill="#fbe2aa"/>
    <text id="ビーアイキンダー" transform="translate(24568 2320)" font-size="12" font-family="DNPShueiMGoStd-B, DNP ShueiMGoStd"><tspan x="-48" y="0">ビーアイキンダー</tspan></text>
    <text id="エレメンタリー" transform="translate(24713 2418)" font-size="12" font-family="DNPShueiMGoStd-B, DNP ShueiMGoStd"><tspan x="-42" y="0">エレメンタリー</tspan></text>
    <text id="公教育" transform="translate(24569 2450)" font-size="12" font-family="DNPShueiMGoStd-B, DNP ShueiMGoStd"><tspan x="-18" y="0">公教育</tspan></text>
    <text id="キンダーフレックス" transform="translate(24713 2320)" font-size="12" font-family="DNPShueiMGoStd-B, DNP ShueiMGoStd"><tspan x="-54" y="0">キンダーフレックス</tspan></text>
    <text id="アドバンスプラス" transform="translate(24713 2482)" font-size="12" font-family="DNPShueiMGoStd-B, DNP ShueiMGoStd"><tspan x="-48" y="0">アドバンスプラス</tspan></text>
    <text id="_afterschool_" data-name="(afterschool)" transform="translate(24465 2467) rotate(90)" fill="#fff" font-size="10" font-family="DNPShueiMGoStd-B, DNP ShueiMGoStd"><tspan x="-30.425" y="0">(afterschool)</tspan></text>
    <g id="グループ_12789" data-name="グループ 12789" transform="translate(1342 2175)">
      <text id="_3" data-name="3" transform="translate(23127 111)" fill="#fff" font-size="12" font-family="DNPShueiMGoStd-B, DNP ShueiMGoStd"><tspan x="-3.552" y="0">3</tspan></text>
      <text id="_5_才" data-name="5
才" transform="translate(23127 131)" fill="#fff" font-size="12" font-family="DNPShueiMGoStd-B, DNP ShueiMGoStd"><tspan x="-3.552" y="0">5</tspan><tspan x="-6" y="13">才</tspan></text>
      <text id="_educare_" data-name="(educare)" transform="translate(23123 173) rotate(90)" fill="#fff" font-size="10" font-family="DNPShueiMGoStd-B, DNP ShueiMGoStd"><tspan x="-22.635" y="0">(educare)</tspan></text>
      <path id="パス_48050" data-name="パス 48050" d="M-1.494-4.008a.533.533,0,0,0-.54.576.533.533,0,0,0,.54.576H1.494a.533.533,0,0,0,.54-.576.533.533,0,0,0-.54-.576Z" transform="translate(23123.145 116) rotate(90)" fill="#fff"/>
    </g>
    <g id="グループ_12790" data-name="グループ 12790" transform="translate(1342 2095)">
      <text id="_2_才" data-name="2
才" transform="translate(23127 131)" fill="#fff" font-size="12" font-family="DNPShueiMGoStd-B, DNP ShueiMGoStd"><tspan x="-3.552" y="0">2</tspan><tspan x="-6" y="13">才</tspan></text>
    </g>
    <g id="グループ_12791" data-name="グループ 12791" transform="translate(1342 2287)">
      <text id="_6" data-name="6" transform="translate(23127 111)" fill="#fff" font-size="12" font-family="DNPShueiMGoStd-B, DNP ShueiMGoStd"><tspan x="-3.552" y="0">6</tspan></text>
      <text id="_12_才" data-name="12
才" transform="translate(23127 131)" fill="#fff" font-size="12" font-family="DNPShueiMGoStd-B, DNP ShueiMGoStd"><tspan x="-7.104" y="0">12</tspan><tspan x="-6" y="13">才</tspan></text>
      <path id="パス_48050-2" data-name="パス 48050" d="M-1.494-4.008a.533.533,0,0,0-.54.576.533.533,0,0,0,.54.576H1.494a.533.533,0,0,0,.54-.576.533.533,0,0,0-.54-.576Z" transform="translate(23123.145 116) rotate(90)" fill="#fff"/>
    </g>
    <path id="多角形_43" data-name="多角形 43" d="M168.5,0,337,28H0Z" transform="translate(24783 2584) rotate(180)" fill="#4cc1c9"/>
  </g>
</svg>
