<svg id="clock_1_" data-name="clock (1)" xmlns="http://www.w3.org/2000/svg" width="53.519" height="53.519" viewBox="0 0 53.519 53.519">
  <g id="グループ_11839" data-name="グループ 11839">
    <g id="グループ_11838" data-name="グループ 11838">
      <path id="パス_39169" data-name="パス 39169" d="M45.681,7.838A26.759,26.759,0,0,0,7.838,45.681,26.759,26.759,0,0,0,45.681,7.838ZM44.572,44.572A25.191,25.191,0,0,1,8.946,8.946,25.191,25.191,0,0,1,44.572,44.572Z" fill="#fff"/>
    </g>
  </g>
  <g id="グループ_11841" data-name="グループ 11841" transform="translate(25.975 8.379)">
    <g id="グループ_11840" data-name="グループ 11840">
      <path id="パス_39170" data-name="パス 39170" d="M249.284,80.161a.784.784,0,0,0-.784.784V84.3a.784.784,0,0,0,1.568,0V80.945A.784.784,0,0,0,249.284,80.161Z" transform="translate(-248.5 -80.161)" fill="#fff"/>
    </g>
  </g>
  <g id="グループ_11843" data-name="グループ 11843" transform="translate(25.975 40.22)">
    <g id="グループ_11842" data-name="グループ 11842">
      <path id="パス_39171" data-name="パス 39171" d="M249.284,384.774a.784.784,0,0,0-.784.784v3.352a.784.784,0,1,0,1.568,0v-3.352A.784.784,0,0,0,249.284,384.774Z" transform="translate(-248.5 -384.774)" fill="#fff"/>
    </g>
  </g>
  <g id="グループ_11845" data-name="グループ 11845" transform="translate(40.22 25.975)">
    <g id="グループ_11844" data-name="グループ 11844">
      <path id="パス_39172" data-name="パス 39172" d="M388.911,248.5h-3.352a.784.784,0,0,0,0,1.568h3.352a.784.784,0,0,0,0-1.568Z" transform="translate(-384.775 -248.5)" fill="#fff"/>
    </g>
  </g>
  <g id="グループ_11847" data-name="グループ 11847" transform="translate(8.379 25.975)">
    <g id="グループ_11846" data-name="グループ 11846">
      <path id="パス_39173" data-name="パス 39173" d="M84.3,248.5H80.945a.784.784,0,1,0,0,1.568H84.3a.784.784,0,1,0,0-1.568Z" transform="translate(-80.161 -248.5)" fill="#fff"/>
    </g>
  </g>
  <g id="グループ_11849" data-name="グループ 11849" transform="translate(10.737 17.177)">
    <g id="グループ_11848" data-name="グループ 11848">
      <path id="パス_39174" data-name="パス 39174" d="M105.341,165.273l-1.451-.838a.784.784,0,0,0-.784,1.358l1.451.838a.784.784,0,1,0,.784-1.358Z" transform="translate(-102.714 -164.33)" fill="#fff"/>
    </g>
  </g>
  <g id="グループ_11851" data-name="グループ 11851" transform="translate(39.763 33.935)">
    <g id="グループ_11850" data-name="グループ 11850">
      <path id="パス_39175" data-name="パス 39175" d="M383.027,325.595l-1.451-.838a.784.784,0,0,0-.784,1.358l1.451.838a.784.784,0,1,0,.784-1.358Z" transform="translate(-380.4 -324.652)" fill="#fff"/>
    </g>
  </g>
  <g id="グループ_11853" data-name="グループ 11853" transform="translate(33.935 10.736)">
    <g id="グループ_11852" data-name="グループ 11852">
      <path id="パス_39176" data-name="パス 39176" d="M326.666,102.819a.784.784,0,0,0-1.071.287l-.838,1.451a.784.784,0,1,0,1.358.784l.838-1.451A.784.784,0,0,0,326.666,102.819Z" transform="translate(-324.652 -102.714)" fill="#fff"/>
    </g>
  </g>
  <g id="グループ_11855" data-name="グループ 11855" transform="translate(17.177 39.763)">
    <g id="グループ_11854" data-name="グループ 11854">
      <path id="パス_39177" data-name="パス 39177" d="M166.344,380.5a.784.784,0,0,0-1.071.287l-.838,1.451a.784.784,0,1,0,1.358.784l.838-1.451A.784.784,0,0,0,166.344,380.5Z" transform="translate(-164.33 -380.4)" fill="#fff"/>
    </g>
  </g>
  <g id="グループ_11857" data-name="グループ 11857" transform="translate(39.763 17.177)">
    <g id="グループ_11856" data-name="グループ 11856">
      <path id="パス_39178" data-name="パス 39178" d="M383.315,164.721a.784.784,0,0,0-1.071-.287l-1.451.838a.784.784,0,1,0,.784,1.358l1.451-.838A.784.784,0,0,0,383.315,164.721Z" transform="translate(-380.401 -164.329)" fill="#fff"/>
    </g>
  </g>
  <g id="グループ_11859" data-name="グループ 11859" transform="translate(10.737 33.935)">
    <g id="グループ_11858" data-name="グループ 11858">
      <path id="パス_39179" data-name="パス 39179" d="M105.628,325.043a.784.784,0,0,0-1.071-.287l-1.451.838a.784.784,0,1,0,.784,1.358l1.451-.838A.784.784,0,0,0,105.628,325.043Z" transform="translate(-102.714 -324.651)" fill="#fff"/>
    </g>
  </g>
  <g id="グループ_11861" data-name="グループ 11861" transform="translate(17.177 10.736)">
    <g id="グループ_11860" data-name="グループ 11860">
      <path id="パス_39180" data-name="パス 39180" d="M166.631,104.557l-.838-1.451a.784.784,0,0,0-1.358.784l.838,1.451a.784.784,0,0,0,1.358-.784Z" transform="translate(-164.33 -102.713)" fill="#fff"/>
    </g>
  </g>
  <g id="グループ_11863" data-name="グループ 11863" transform="translate(33.935 39.763)">
    <g id="グループ_11862" data-name="グループ 11862">
      <path id="パス_39181" data-name="パス 39181" d="M326.953,382.243l-.838-1.451a.784.784,0,0,0-1.358.784l.838,1.451a.784.784,0,0,0,1.358-.784Z" transform="translate(-324.652 -380.4)" fill="#fff"/>
    </g>
  </g>
  <g id="グループ_11865" data-name="グループ 11865" transform="translate(15.921 15.92)">
    <g id="グループ_11864" data-name="グループ 11864">
      <path id="パス_39182" data-name="パス 39182" d="M174.815,161.351a.783.783,0,0,0-.894-.656l-8.589,1.321a2.456,2.456,0,0,0-3.278-1.073l-8.407-8.407a.784.784,0,0,0-1.109,1.109l8.407,8.407a2.459,2.459,0,1,0,4.625,1.514l8.589-1.321A.784.784,0,0,0,174.815,161.351Zm-11.668,2.687a.892.892,0,1,1,.892-.892A.893.893,0,0,1,163.147,164.038Z" transform="translate(-152.308 -152.307)" fill="#fff"/>
    </g>
  </g>
  <g id="グループ_11867" data-name="グループ 11867" transform="translate(5.031 5.03)">
    <g id="グループ_11866" data-name="グループ 11866">
      <path id="パス_39183" data-name="パス 39183" d="M83.94,53.312A21.726,21.726,0,0,0,53.313,83.939a.784.784,0,1,0,1.193-1.018A20.158,20.158,0,0,1,82.923,54.5a.784.784,0,0,0,1.018-1.193Z" transform="translate(-48.127 -48.125)" fill="#fff"/>
    </g>
  </g>
  <g id="グループ_11869" data-name="グループ 11869" transform="translate(12.399 12.399)">
    <g id="グループ_11868" data-name="グループ 11868">
      <path id="パス_39184" data-name="パス 39184" d="M149.525,118.9a.784.784,0,0,0-1.193,1.018,20.158,20.158,0,0,1-28.417,28.417.784.784,0,0,0-1.018,1.193,21.65,21.65,0,0,0,14.086,5.186q.406,0,.814-.015a21.726,21.726,0,0,0,15.727-35.8Z" transform="translate(-118.623 -118.621)" fill="#fff"/>
    </g>
  </g>
</svg>
