<svg xmlns="http://www.w3.org/2000/svg" width="25.004" height="25" viewBox="0 0 25.004 25">
  <g id="investment" transform="translate(-1 -1.011)">
    <path id="パス_47828" data-name="パス 47828" d="M17.472,52.639a4.6,4.6,0,0,1-1.515-.25l-5.213-1.811a.379.379,0,0,1-.254-.356V44.259a.379.379,0,0,1,.379-.379h2.042a6.622,6.622,0,0,1,4.425,1.894h2.819a1.341,1.341,0,0,1,1.337,1.341,1.516,1.516,0,0,1-.019.227l4.463-1.224a1.22,1.22,0,0,1,.887,2.273l-7.236,3.732A4.6,4.6,0,0,1,17.472,52.639Zm-6.225-2.69,4.974,1.72a3.819,3.819,0,0,0,3.031-.22l7.232-3.758a.463.463,0,0,0-.337-.856L20.689,48.35a1.341,1.341,0,0,1-.523.106H15.688a.379.379,0,1,1,0-.758h4.467a.557.557,0,0,0,.212-.042h.042a.584.584,0,0,0-.254-1.14H17.188a.379.379,0,0,1-.261-.1,5.93,5.93,0,0,0-4.016-1.777H11.248Z" transform="translate(-5.895 -26.628)"/>
    <path id="パス_47829" data-name="パス 47829" d="M4.36,49.83H1.993A.993.993,0,0,1,1,48.838V41.693a.993.993,0,0,1,.993-.993H4.36a.993.993,0,0,1,.993.993v7.145a.993.993,0,0,1-.993.993ZM1.993,41.458a.235.235,0,0,0-.235.235v7.145a.235.235,0,0,0,.235.235H4.36a.235.235,0,0,0,.235-.235V41.693a.235.235,0,0,0-.235-.235Z" transform="translate(0 -24.652)"/>
    <path id="パス_47830" data-name="パス 47830" d="M29.086,9.766H27.044a6.622,6.622,0,0,1-4.425-1.894H19.8a1.341,1.341,0,0,1-1.337-1.341,1.515,1.515,0,0,1,.019-.227L14.023,7.542a1.22,1.22,0,0,1-.887-2.273l7.232-3.747a4.622,4.622,0,0,1,3.6-.265l5.243,1.811a.379.379,0,0,1,.254.356V9.387A.379.379,0,0,1,29.086,9.766ZM19.554,6.023a.576.576,0,0,0-.33.523.583.583,0,0,0,.576.583h2.963a.379.379,0,0,1,.261.1A5.93,5.93,0,0,0,27.04,9.008H28.7V3.7l-4.971-1.72A3.819,3.819,0,0,0,20.7,2.2L13.485,5.955a.462.462,0,0,0,.337.856L19.285,5.3a1.322,1.322,0,0,1,.515-.087h4.463a.379.379,0,0,1,0,.758H19.8a.614.614,0,0,0-.22.042.076.076,0,0,1-.027.015Z" transform="translate(-7.056 0)"/>
    <path id="パス_47831" data-name="パス 47831" d="M58.87,12.33H56.5a.993.993,0,0,1-.993-.993V4.193A.993.993,0,0,1,56.5,3.2H58.87a.993.993,0,0,1,.993.993v7.145a.993.993,0,0,1-.993.993ZM56.5,3.958a.235.235,0,0,0-.235.235v7.145a.235.235,0,0,0,.235.235H58.87a.235.235,0,0,0,.235-.235V4.193a.235.235,0,0,0-.235-.235Z" transform="translate(-33.859 -1.359)"/>
    <path id="パス_47832" data-name="パス 47832" d="M27.031,31.281a4.251,4.251,0,1,1,4.251-4.251A4.251,4.251,0,0,1,27.031,31.281Zm0-7.744a3.493,3.493,0,1,0,3.493,3.493,3.493,3.493,0,0,0-3.493-3.493Z" transform="translate(-13.529 -13.521)"/>
    <path id="パス_47833" data-name="パス 47833" d="M32,32.686a1.224,1.224,0,0,1-1.22-1.224.379.379,0,1,1,.758,0A.462.462,0,1,0,32,31a1.22,1.22,0,1,1,1.22-1.22.379.379,0,0,1-.758,0,.462.462,0,1,0-.462.462,1.224,1.224,0,1,1,0,2.447Z" transform="translate(-18.498 -17.112)"/>
    <path id="パス_47834" data-name="パス 47834" d="M33.379,28.227A.379.379,0,0,1,33,27.848v-.659a.379.379,0,1,1,.758,0v.659A.379.379,0,0,1,33.379,28.227Z" transform="translate(-19.877 -16.025)"/>
    <path id="パス_47835" data-name="パス 47835" d="M33.379,38.863A.379.379,0,0,1,33,38.484v-.655a.379.379,0,1,1,.758,0v.655A.379.379,0,0,1,33.379,38.863Z" transform="translate(-19.877 -22.634)"/>
  </g>
</svg>
