<svg xmlns="http://www.w3.org/2000/svg" width="53.965" height="53.965" viewBox="0 0 53.965 53.965">
  <g id="food" transform="translate(-1 -1)">
    <path id="パス_48020" data-name="パス 48020" d="M39.758,30.594h-8.9l1.393-13.926h.083a1.743,1.743,0,0,0,1.741-1.741V13.186a1.743,1.743,0,0,0-1.741-1.741H20.869l.7-5.222h12.51V1H20.8a4.365,4.365,0,0,0-4.314,3.778L15.6,11.445H2.741A1.743,1.743,0,0,0,1,13.186v1.741a1.743,1.743,0,0,0,1.741,1.741h.083l3.09,30.9a4.338,4.338,0,0,0,4.33,3.919h3.944l-1,1.473v2.009H54.965V52.956Zm-2.122,1.741L23.174,53.224h-3.1l14.462-20.89Zm-7.5-11.97a11.717,11.717,0,0,0-2.15-.216c-2.968,0-5.906,1.159-8.591,2.375l.781-5.857H30.5ZM13.8,24.926a7.9,7.9,0,0,1-2.358.446c-3.775,0-6.093-1.014-6.093-1.741S7.67,21.89,11.445,21.89a11.043,11.043,0,0,1,2.71.4Zm2.858-8.258h1.756l-.9,6.717c-.636.3-1.26.578-1.868.836Zm1.555-11.66A2.619,2.619,0,0,1,20.8,2.741H32.334V4.482H21.565A1.746,1.746,0,0,0,19.84,5.993l-.728,5.452H17.356ZM2.741,13.186H32.334v1.741H2.741ZM14.9,16.667l-.518,3.885a12.486,12.486,0,0,0-2.941-.4,13.456,13.456,0,0,0-6.393,1.306l-.479-4.788Zm-4.66,33.075a2.6,2.6,0,0,1-2.6-2.351L5.511,26.053a14.668,14.668,0,0,0,5.934,1.059c2.186,0,4.658-1.148,7.275-2.364,3.025-1.406,6.153-2.858,9.263-2.858a10.178,10.178,0,0,1,1.974.232l-.847,8.472h-.717L15.371,49.742Zm19.07-17.408h3.1L17.952,53.224H15.109Zm-4.021,20.89L39.292,33,53.042,53.224Z"/>
    <path id="パス_48021" data-name="パス 48021" d="M51,53h1.741v1.741H51Z" transform="translate(-6.48 -6.739)"/>
    <path id="パス_48022" data-name="パス 48022" d="M47,53h1.741v1.741H47Z" transform="translate(-5.962 -6.739)"/>
    <path id="パス_48023" data-name="パス 48023" d="M43,53h1.741v1.741H43Z" transform="translate(-5.443 -6.739)"/>
    <path id="パス_48024" data-name="パス 48024" d="M51,57h1.741v1.741H51Z" transform="translate(-6.48 -7.258)"/>
    <path id="パス_48025" data-name="パス 48025" d="M47,57h1.741v1.741H47Z" transform="translate(-5.962 -7.258)"/>
    <path id="パス_48026" data-name="パス 48026" d="M43,57h1.741v1.741H43Z" transform="translate(-5.443 -7.258)"/>
    <path id="パス_48027" data-name="パス 48027" d="M18.7,43.356a2.953,2.953,0,0,0-.87-2.1l-1.38-1.38a3.045,3.045,0,0,0-4.2,0l-1.38,1.38a2.971,2.971,0,0,0,0,4.2l.51.51-.51.51a2.971,2.971,0,0,0,0,4.2l1.38,1.38a2.972,2.972,0,0,0,4.2,0l1.38-1.38a2.971,2.971,0,0,0,0-4.2l-.51-.51.51-.51A2.953,2.953,0,0,0,18.7,43.356Zm-6.6-.87,1.38-1.38a1.231,1.231,0,0,1,1.741,0l1.38,1.38a1.23,1.23,0,0,1,0,1.741l-1.38,1.38a1.259,1.259,0,0,1-1.741,0l-1.38-1.38a1.23,1.23,0,0,1,0-1.741Zm4.5,6.963-1.38,1.38a1.259,1.259,0,0,1-1.741,0l-1.38-1.38a1.23,1.23,0,0,1,0-1.741l.545-.545a2.943,2.943,0,0,0,3.412,0l.544.545a1.23,1.23,0,0,1,0,1.741Z" transform="translate(-1.166 -4.929)"/>
    <path id="パス_48028" data-name="パス 48028" d="M25.454,31.875a3.045,3.045,0,0,0-4.2,0l-1.38,1.38a2.971,2.971,0,0,0,0,4.2l1.38,1.38a2.972,2.972,0,0,0,4.2,0l1.38-1.38a2.971,2.971,0,0,0,0-4.2Zm.149,4.352-1.38,1.38a1.259,1.259,0,0,1-1.741,0l-1.38-1.38a1.231,1.231,0,0,1,0-1.741l1.38-1.38a1.259,1.259,0,0,1,1.741,0l1.38,1.38a1.23,1.23,0,0,1,0,1.741Z" transform="translate(-2.333 -3.892)"/>
  </g>
</svg>
