<svg xmlns="http://www.w3.org/2000/svg" width="49.102" height="34.533" viewBox="0 0 49.102 34.533">
  <path id="youtube" d="M22.479,31.136v-13.8l13.263,6.923L22.479,31.136ZM51.608,14.952s-.478-3.386-1.953-4.876A7.026,7.026,0,0,0,44.736,8c-6.869-.5-17.177-.5-17.177-.5h-.02s-10.306,0-17.177.5a7.026,7.026,0,0,0-4.92,2.079C3.971,11.564,3.491,14.95,3.491,14.95A74.277,74.277,0,0,0,3,22.9v3.725a74.318,74.318,0,0,0,.491,7.947s.478,3.383,1.953,4.874c1.866,1.957,4.321,1.894,5.414,2.1,3.928.375,16.694.491,16.694.491s10.319-.015,17.188-.511a7.024,7.024,0,0,0,4.92-2.079c1.473-1.489,1.953-4.874,1.953-4.874a74.318,74.318,0,0,0,.491-7.948V22.9a74.237,74.237,0,0,0-.491-7.948Z" transform="translate(-3 -7.5)" fill="red" fill-rule="evenodd"/>
</svg>
