<svg xmlns="http://www.w3.org/2000/svg" width="34.8" height="29" viewBox="0 0 34.8 29">
  <path id="twitter" d="M34.8,6.393a9.353,9.353,0,0,1-1.3,1.862,9.592,9.592,0,0,1-2.347,1.979q.039.31.058.582A21.116,21.116,0,0,1,29.719,18.9a21.3,21.3,0,0,1-8.477,10.533A22.288,22.288,0,0,1,7.973,31.862,15.235,15.235,0,0,1,0,28.778a14.856,14.856,0,0,0,10.631-3.065c-3.262.082-5.632-2.277-6.75-5a4.539,4.539,0,0,0,1.513.077A14.075,14.075,0,0,0,7.1,20.553,8,8,0,0,1,2.25,16.79a8.112,8.112,0,0,1-.815-3.569,6.816,6.816,0,0,0,3.22.97A8.319,8.319,0,0,1,1.494,9.049a9.519,9.519,0,0,1,.873-4.636A24.383,24.383,0,0,0,10.65,10.62a17.159,17.159,0,0,0,6.5,1.358,8.684,8.684,0,0,1,.873-5.509A7.505,7.505,0,0,1,22.5,3.211a6.613,6.613,0,0,1,6.634,2.056A11.809,11.809,0,0,0,33.752,3.56a7,7,0,0,1-3.181,4.112A20.173,20.173,0,0,0,34.8,6.392Z" transform="translate(0 -2.999)" fill="#1da1f2"/>
</svg>
