<svg xmlns="http://www.w3.org/2000/svg" width="85" height="106" viewBox="0 0 85 106">
  <g id="グループ_11826" data-name="グループ 11826" transform="translate(-1315 -6482)">
    <rect id="長方形_5625" data-name="長方形 5625" width="85" height="85" rx="42.5" transform="translate(1315 6482)" fill="#fff"/>
    <g id="グループ_11825" data-name="グループ 11825">
      <g id="レイヤー_1" data-name="レイヤー 1" transform="translate(1315 6487.869)">
        <path id="パス_25982" data-name="パス 25982" d="M36.143,211.06a2.727,2.727,0,0,1-1.252.285c-.058,0-.133,0-.133-.028-.068-.285-.618-3.367-.751-3.728-.02-.038-.038-.058-.048-.058s-.048.058-.048.058a21.59,21.59,0,0,0-.836,3.272,2.24,2.24,0,0,1-1.152.285.25.25,0,0,1-.133-.028,25.851,25.851,0,0,1-1.312-6.384,1.464,1.464,0,0,1,.961-.25.928.928,0,0,1,.228.028,22.386,22.386,0,0,0,.693,4.471s.02.068.048.068.028-.02.048-.068c0,0,.781-3,.951-3.2a2.892,2.892,0,0,1,.961-.133,1.537,1.537,0,0,1,.381.058c.038.038.646,3.064.751,3.578,0,0,.048.2.123,0a14.589,14.589,0,0,0,.656-3.853c0-.143-.305-.3-.533-.323a.25.25,0,0,1,0-.085,1.264,1.264,0,0,1,.115-.5A7.8,7.8,0,0,1,37.6,204.3a.863.863,0,0,1,.153.028A25.7,25.7,0,0,1,36.143,211.06Z" transform="translate(-22.851 -152.79)" fill="#f6a631"/>
        <path id="パス_25983" data-name="パス 25983" d="M62.311,209.094a.564.564,0,0,1-.581-.646.7.7,0,0,1,.676-.638.578.578,0,0,1,.591.638A.7.7,0,0,1,62.311,209.094Zm.591.6c0,.048-.028,1.152-.028,2.025a8.72,8.72,0,0,0,.028.981,1.552,1.552,0,0,0,.25.751,1.642,1.642,0,0,1-1.057.513c-.038,0-.228-.25-.285-.836,0-.123-.02-.438-.02-.829,0-.979.028-2.426.068-2.5a1.319,1.319,0,0,1,.771-.17s.225.013.273.07Z" transform="translate(-46.277 -155.421)" fill="#40c1c9"/>
        <path id="パス_25984" data-name="パス 25984" d="M70.145,214.493a1.9,1.9,0,0,1,.048-.638,1.46,1.46,0,0,1,.866-.265c.085,0,.2.02.2.048,0,.075-.028.313-.028.5s0,.19.028.19.028-.02.028-.02a1.617,1.617,0,0,1,1.169-.616c1.189,0,1.217,1.56,1.217,3.187,0,.628-.028,1.112-.028,1.112a1.517,1.517,0,0,1-.809.208,1.03,1.03,0,0,1-.313-.048,14.874,14.874,0,0,0,.1-1.627c0-.924-.038-1.645-.561-1.645-.618,0-.789.676-.789.676v1.209a7.039,7.039,0,0,1-.038,1.057,1.735,1.735,0,0,1-.979.25c-.075,0-.143,0-.143-.028a10.731,10.731,0,0,0,.065-1.407C70.173,215.883,70.145,215.054,70.145,214.493Z" transform="translate(-52.559 -159.754)" fill="#40c1c9"/>
        <path id="パス_25985" data-name="パス 25985" d="M89.589,217.5v-.038l-.028.028a1.417,1.417,0,0,1-1.252.618,1.528,1.528,0,0,1-1.4-1.635,2.547,2.547,0,0,1,2.834-2.626s.333,0,.333.048a2.253,2.253,0,0,1,.028.35v.143h.083a1.1,1.1,0,0,1,.411.058v1.209c0,.884.02,1.988.02,2.253,0,2.616-1.818,3.064-2.549,3.064a1.64,1.64,0,0,1-.353-1h.18C88.39,219.986,89.589,219.789,89.589,217.5Zm-.218-2.674a1.288,1.288,0,0,0-1.322,1.379.681.681,0,0,0,.666.734.884.884,0,0,0,.819-.7c0-.143,0-1.159.038-1.389,0-.025-.2-.025-.2-.025Z" transform="translate(-65.153 -159.949)" fill="#40c1c9"/>
        <path id="パス_25986" data-name="パス 25986" d="M104.781,218.095a1.032,1.032,0,0,1-.371-.846v-.065c1.094,0,1.522-.486,1.522-.789,0-.551-1.522-.846-1.522-1.665s1.189-1.55,2.253-1.55c.105,0,.4.391.408.8-.143,0-1.322.2-1.322.7s1.485.751,1.5,1.753C107.274,217.534,105.524,218.095,104.781,218.095Z" transform="translate(-78.272 -159.447)" fill="#40c1c9"/>
        <path id="パス_25987" data-name="パス 25987" d="M129.773,211.717a2.5,2.5,0,0,0-.048-.618.02.02,0,0,0-.02-.02l-.028.02a2.116,2.116,0,0,1-1.465.561c-1.73,0-2.484-1.274-2.484-2.864,0-1.4.543-3.805,3.663-3.805a3.7,3.7,0,0,1,.931.133c.02.02.02.075.02.153a2.607,2.607,0,0,1-.153.914,2.389,2.389,0,0,0-1-.153c-1.294,0-2.208.866-2.208,2.654,0,1.067.418,1.845,1.369,1.845a1.341,1.341,0,0,0,1.322-.819v-.305a1.966,1.966,0,0,0-.058-.638,3.255,3.255,0,0,0-.884-.085,5.142,5.142,0,0,0-.581.028c-.038,0-.038-.068-.038-.075a1.652,1.652,0,0,1,.305-.894,10.929,10.929,0,0,1,2.253-.133,2.708,2.708,0,0,1,.543.048,2.974,2.974,0,0,1-.323,1.094s0,2.559-.065,2.664a1.482,1.482,0,0,1-.874.333C129.858,211.752,129.773,211.752,129.773,211.717Z" transform="translate(-94.254 -153.307)" fill="#40c1c9"/>
        <path id="パス_25988" data-name="パス 25988" d="M151.377,209.574c0,.361,0,.656.02.809a1.537,1.537,0,0,0,.275.751,1.642,1.642,0,0,1-1.057.513c-.038,0-.25-.25-.3-.836v-1c0-.971.038-1.93.038-3.442,0-.961-.038-1.2-.038-1.3s.551-.343.894-.343a.677.677,0,0,1,.25.038c-.02.143-.048,1.753-.048,2.474S151.377,208.671,151.377,209.574Z" transform="translate(-112.688 -153.105)" fill="#40c1c9"/>
        <path id="パス_25989" data-name="パス 25989" d="M158,216.074a2.361,2.361,0,0,1,2.443-2.378,1.868,1.868,0,0,1,.513.075.32.32,0,0,1,.02.133,2.6,2.6,0,0,1-.028.343,1.576,1.576,0,0,1,1.084,1.675A2.069,2.069,0,0,1,160,218.147,1.906,1.906,0,0,1,158,216.074Zm2.216-.961h-.075a.33.33,0,0,1-.02-.123,1.539,1.539,0,0,1,.028-.275,1.2,1.2,0,0,0-1.067,1.332c0,.1,0,1.142.914,1.142.448,0,.941-.333.941-1.179S160.416,215.113,160.215,215.113Z" transform="translate(-118.445 -159.833)" fill="#40c1c9"/>
        <path id="パス_25990" data-name="パス 25990" d="M177.15,211.873a15.366,15.366,0,0,0,.065-2.018c0-1.142-.02-2.531-.02-3.505a6.745,6.745,0,0,1,.048-1.237,1.487,1.487,0,0,1,.876-.323.6.6,0,0,1,.238.038c-.02.105-.1,1.95-.075,2.3h.153c.571,0,2.388.133,2.388,2,0,1.274-1.217,2.073-2.531,2.283a2.168,2.168,0,0,1,0,.25,1.784,1.784,0,0,1-1,.25C177.228,211.9,177.15,211.9,177.15,211.873Zm2.549-2.817a.916.916,0,0,0-1-.951c-.17,0-.438.028-.438.028v.686a14.662,14.662,0,0,0,.038,1.542,1.294,1.294,0,0,0,1.4-1.3Z" transform="translate(-132.801 -153.158)" fill="#40c1c9"/>
        <path id="パス_25991" data-name="パス 25991" d="M197.6,216.839a1.124,1.124,0,0,0,.323.751,1.52,1.52,0,0,1-1.057.523c-.038,0-.25-.218-.305-.734v-.02l-.028.02a2.121,2.121,0,0,1-1.209.4,1.207,1.207,0,0,1-1.379-1.252c0-1.665,2.2-1.883,2.388-1.883a.033.033,0,0,0,.02,0c0-.275-.353-.466-1.179-.466a5.925,5.925,0,0,0-.714.013h0a1.853,1.853,0,0,1,.333-.866,2.081,2.081,0,0,1,.666-.068c1.447,0,2.113.543,2.113,1.692v.493C197.568,215.925,197.568,216.638,197.6,216.839Zm-1.084-1.144a.841.841,0,0,0,0-.21c-.343,0-1.4.17-1.4.856,0,.25.163.466.588.466a.751.751,0,0,0,.819-.751Z" transform="translate(-145.387 -159.503)" fill="#40c1c9"/>
        <path id="パス_25992" data-name="パス 25992" d="M213.4,209.574c0,.361,0,.656.02.809a1.537,1.537,0,0,0,.275.751,1.642,1.642,0,0,1-1.057.513c-.038,0-.25-.25-.3-.836v-1c0-.971.038-1.93.038-3.442,0-.961-.038-1.2-.038-1.3s.551-.343.894-.343a.677.677,0,0,1,.25.038c-.02.143-.048,1.753-.048,2.474S213.4,208.671,213.4,209.574Z" transform="translate(-159.181 -153.105)" fill="#40c1c9"/>
        <path id="パス_25993" data-name="パス 25993" d="M230.872,208.545a12.379,12.379,0,0,0-1.252.028v.781c0,.951.058,1.753.075,1.913,0,.075-.353.25-.829.25a.954.954,0,0,1-.351-.048,11.386,11.386,0,0,1-.058-1.753v-1.122a1.923,1.923,0,0,1-.448-.969,3.445,3.445,0,0,1,.466-.028c0-.676,0-1.252,0-1.55v-.2a2.407,2.407,0,0,1-.25-.9.073.073,0,0,1,0-.048h.2a2.093,2.093,0,0,1,1.252.323c0,.1-.068,1.237-.068,2.168v.19h1.264a4.482,4.482,0,0,1,.7.02c0-1.159.075-2.358.075-2.4a1.647,1.647,0,0,1,1-.323c.038,0,.123,0,.123.038,0,0-.105,1.4-.105,3,0,1.865.058,2.967.513,3.425,0,.02-.02.038-.028.048a2.181,2.181,0,0,1-1.122.333.342.342,0,0,1-.115-.02c-.218-.218-.313-.561-.333-3.13A4.147,4.147,0,0,0,230.872,208.545Z" transform="translate(-170.928 -153.225)" fill="#f6a631"/>
        <path id="パス_25994" data-name="パス 25994" d="M251.49,216.074a2.361,2.361,0,0,1,2.443-2.378,1.868,1.868,0,0,1,.513.075.32.32,0,0,1,.02.133,2.592,2.592,0,0,1-.028.343,1.576,1.576,0,0,1,1.084,1.675,2.069,2.069,0,0,1-2.035,2.226A1.906,1.906,0,0,1,251.49,216.074Zm2.216-.961h-.085a.33.33,0,0,1-.02-.123,1.542,1.542,0,0,1,.028-.275,1.2,1.2,0,0,0-1.067,1.332c0,.1,0,1.142.914,1.142.448,0,.941-.333.941-1.179S253.906,215.113,253.705,215.113Z" transform="translate(-188.529 -159.833)" fill="#40c1c9"/>
        <path id="パス_25995" data-name="パス 25995" d="M273.91,216.277a3.63,3.63,0,0,1-.038.751,1.427,1.427,0,0,1-.8.19.928.928,0,0,1-.305-.048,11.7,11.7,0,0,0,.085-1.447c0-.771-.02-1.207-.428-1.207-.5,0-.751.656-.751.771v1.207a6.164,6.164,0,0,1-.038.979,1.546,1.546,0,0,1-1,.228c-.038,0-.075,0-.075-.028a10.483,10.483,0,0,0,.065-1.4c0-.771-.028-1.645-.028-2.236a2.315,2.315,0,0,1,.048-.656,1.389,1.389,0,0,1,.829-.285c.085,0,.2.02.2.038,0,.105-.038.628-.038.809,0,0,0,.048.02.048s.02,0,.038-.02a1.709,1.709,0,0,1,1.026-.561.964.964,0,0,1,.931.551,1.514,1.514,0,0,1,1.2-.751c1.189,0,1.217,1.692,1.217,3.32,0,.628-.038,1.112-.038,1.112a1.517,1.517,0,0,1-.819.19.929.929,0,0,1-.305-.048,15.573,15.573,0,0,0,.105-1.675c0-.971-.038-1.655-.581-1.655a.681.681,0,0,0-.571.418A8.974,8.974,0,0,1,273.91,216.277Z" transform="translate(-202.825 -159.387)" fill="#40c1c9"/>
        <path id="パス_25996" data-name="パス 25996" d="M295.31,216.258a2.21,2.21,0,0,1,2.3-2.368,1.066,1.066,0,0,1,1.2,1.037,2.51,2.51,0,0,1-1.93,2.093c0,.058.2.25.693.25a2.3,2.3,0,0,0,1.142-.25.033.033,0,0,1,.02,0c.02,0,.028.125.028.18a1.54,1.54,0,0,1-.25.856,2.448,2.448,0,0,1-1.252.218A1.851,1.851,0,0,1,295.31,216.258Zm2.093-1.5c-.513,0-.981.608-.981,1.359,0,.105,0,.133.038.133a1.5,1.5,0,0,0,1.237-1.217.268.268,0,0,0-.293-.285Z" transform="translate(-221.378 -159.979)" fill="#40c1c9"/>
        <path id="パス_25997" data-name="パス 25997" d="M75.072,249.73l.806,2.191h-.471l-.17-.5h-.811l-.173.5H73.79l.851-2.191Zm.053,1.364-.18-.523q-.033-.093-.058-.173c-.015-.053-.033-.108-.048-.163h-.015q-.045.17-.105.338l-.183.521Z" transform="translate(-55.318 -186.846)" fill="#40c1c9"/>
        <path id="パス_25998" data-name="パス 25998" d="M83.918,249.956v-.235a.571.571,0,0,1,.14-.416.553.553,0,0,1,.413-.143,1.012,1.012,0,0,1,.143,0,.848.848,0,0,1,.123.025v.356l-.088-.02h-.088a.2.2,0,0,0-.163.06.25.25,0,0,0-.048.163v.205h.333v.366h-.328v1.172h-.438v-1.167H83.7v-.366Z" transform="translate(-62.747 -186.419)" fill="#40c1c9"/>
        <path id="パス_25999" data-name="パス 25999" d="M89.283,250.841v-.5h.436v.5h.363v.366h-.363v.6a.268.268,0,0,0,.045.18.2.2,0,0,0,.148.048h.1a.54.54,0,0,0,.093-.02v.353a1.066,1.066,0,0,1-.15.03,1.132,1.132,0,0,1-.15,0,.665.665,0,0,1-.25-.038.391.391,0,0,1-.16-.11.428.428,0,0,1-.088-.175.935.935,0,0,1-.025-.228v-.638H89.09v-.366Z" transform="translate(-66.787 -187.304)" fill="#40c1c9"/>
        <path id="パス_26000" data-name="パス 26000" d="M96.206,252.19a.723.723,0,0,1,.25.178.751.751,0,0,1,.15.25.929.929,0,0,1,.053.308v.055a.313.313,0,0,1,0,.06H95.5a.36.36,0,0,0,.033.15.442.442,0,0,0,.085.125.4.4,0,0,0,.125.088.378.378,0,0,0,.155.033.358.358,0,0,0,.18-.043.388.388,0,0,0,.128-.118h.421a.937.937,0,0,1-.1.185.673.673,0,0,1-.15.155.707.707,0,0,1-.21.105.888.888,0,0,1-.27.038.866.866,0,0,1-.323-.06.751.751,0,0,1-.25-.17.8.8,0,0,1-.173-.263.9.9,0,0,1-.063-.343.919.919,0,0,1,.053-.313.751.751,0,0,1,.155-.25.726.726,0,0,1,.25-.175.826.826,0,0,1,.335-.065A.808.808,0,0,1,96.206,252.19Zm-.483.263a.34.34,0,0,0-.11.073.358.358,0,0,0-.073.105.383.383,0,0,0-.033.123h.719a.385.385,0,0,0-.11-.23.333.333,0,0,0-.25-.1A.366.366,0,0,0,95.723,252.453Z" transform="translate(-71.285 -188.638)" fill="#40c1c9"/>
        <path id="パス_26001" data-name="パス 26001" d="M104.774,252.6h-.115a.358.358,0,0,0-.288.115.486.486,0,0,0-.1.323v.751h-.433v-1.54h.423v.238h0a.638.638,0,0,1,.18-.2.443.443,0,0,1,.27-.085.638.638,0,0,1,.14.012v.406Z" transform="translate(-77.845 -188.698)" fill="#40c1c9"/>
        <path id="パス_26002" data-name="パス 26002" d="M110.664,252.465a.173.173,0,0,0-.123-.045.155.155,0,0,0-.118.043.13.13,0,0,0-.04.093.156.156,0,0,0,0,.06.143.143,0,0,0,.045.055.472.472,0,0,0,.1.055,1.424,1.424,0,0,0,.158.06.728.728,0,0,1,.343.2.443.443,0,0,1,.1.288.475.475,0,0,1-.04.2.463.463,0,0,1-.115.158.525.525,0,0,1-.185.105.8.8,0,0,1-.25.038.606.606,0,0,1-.438-.14.531.531,0,0,1-.155-.366h.388a.25.25,0,0,0,.058.15.2.2,0,0,0,.158.058.173.173,0,0,0,.13-.048.16.16,0,0,0,.048-.115.168.168,0,0,0-.065-.135.794.794,0,0,0-.25-.113.8.8,0,0,1-.33-.183.4.4,0,0,1-.11-.3.436.436,0,0,1,.04-.188.406.406,0,0,1,.115-.145.56.56,0,0,1,.175-.093.718.718,0,0,1,.225-.033.556.556,0,0,1,.4.133.538.538,0,0,1,.165.333h-.376A.188.188,0,0,0,110.664,252.465Z" transform="translate(-82.417 -188.642)" fill="#40c1c9"/>
        <path id="パス_26003" data-name="パス 26003" d="M117.979,252.211a.714.714,0,0,1,.218.133.673.673,0,0,1,.143.18.711.711,0,0,1,.073.2h-.431a.268.268,0,0,0-.105-.143.371.371,0,0,0-.468.073.5.5,0,0,0-.1.328.591.591,0,0,0,.025.178.447.447,0,0,0,.075.145.351.351,0,0,0,.123.1.374.374,0,0,0,.165.035.293.293,0,0,0,.2-.065.37.37,0,0,0,.105-.148h.441a.942.942,0,0,1-.093.225.694.694,0,0,1-.155.185.73.73,0,0,1-.218.125.813.813,0,0,1-.285.048.892.892,0,0,1-.32-.058.751.751,0,0,1-.25-.168.794.794,0,0,1-.175-.25.871.871,0,0,1-.065-.343.891.891,0,0,1,.055-.315.751.751,0,0,1,.421-.436.87.87,0,0,1,.343-.065.783.783,0,0,1,.28.043Z" transform="translate(-87.62 -188.674)" fill="#40c1c9"/>
        <path id="パス_26004" data-name="パス 26004" d="M125.988,249.25v.966H126a.473.473,0,0,1,.2-.185.591.591,0,0,1,.25-.055.627.627,0,0,1,.235.043.5.5,0,0,1,.185.13.611.611,0,0,1,.12.22,1,1,0,0,1,.043.31v.884H126.6V250.7a.381.381,0,0,0-.078-.25.268.268,0,0,0-.213-.088.308.308,0,0,0-.235.1.416.416,0,0,0-.093.293v.814h-.433v-2.313Z" transform="translate(-94.119 -186.487)" fill="#40c1c9"/>
        <path id="パス_26005" data-name="パス 26005" d="M133.924,252.661a.781.781,0,0,1,.173-.25.792.792,0,0,1,.25-.17.853.853,0,0,1,.325-.06.864.864,0,0,1,.333.063.774.774,0,0,1,.25.173.786.786,0,0,1,.168.25.856.856,0,0,1,.06.325.834.834,0,0,1-.06.32.809.809,0,0,1-.751.5.832.832,0,0,1-.328-.065.8.8,0,0,1-.25-.175.814.814,0,0,1-.173-.25.881.881,0,0,1,0-.653Zm.4.5a.4.4,0,0,0,.083.138.383.383,0,0,0,.123.09.356.356,0,0,0,.153.033.343.343,0,0,0,.28-.125.476.476,0,0,0,.1-.31.539.539,0,0,0-.025-.168.428.428,0,0,0-.073-.138.351.351,0,0,0-.12-.1.366.366,0,0,0-.163-.035.348.348,0,0,0-.285.123.478.478,0,0,0-.1.313.515.515,0,0,0,.025.18Z" transform="translate(-100.348 -188.683)" fill="#40c1c9"/>
        <path id="パス_26006" data-name="パス 26006" d="M142.534,252.661a.781.781,0,0,1,.173-.25.792.792,0,0,1,.25-.17.914.914,0,0,1,.658,0,.773.773,0,0,1,.25.173.786.786,0,0,1,.168.25.859.859,0,0,1,.06.325.839.839,0,0,1-.06.32.809.809,0,0,1-.751.5.832.832,0,0,1-.328-.065.8.8,0,0,1-.25-.175.814.814,0,0,1-.173-.25.881.881,0,0,1,0-.653Zm.4.5a.405.405,0,0,0,.083.138.385.385,0,0,0,.123.09.359.359,0,0,0,.153.033.343.343,0,0,0,.28-.125.476.476,0,0,0,.1-.31.539.539,0,0,0-.025-.168.431.431,0,0,0-.075-.138.35.35,0,0,0-.12-.1.366.366,0,0,0-.163-.035.348.348,0,0,0-.285.123.478.478,0,0,0-.1.313.515.515,0,0,0,.028.18Z" transform="translate(-106.803 -188.683)" fill="#40c1c9"/>
        <path id="パス_26007" data-name="パス 26007" d="M151.933,249.25v2.313H151.5V249.25Z" transform="translate(-113.573 -186.487)" fill="#40c1c9"/>
        <path id="パス_26008" data-name="パス 26008" d="M162.039,250.606v.025a1.087,1.087,0,0,1-.06.361.959.959,0,0,1-.16.293.473.473,0,0,0,.118.1.223.223,0,0,0,.108.03h.1v.343l-.073.015a.6.6,0,0,1-.1,0,.471.471,0,0,1-.225-.05.724.724,0,0,1-.193-.163,1.048,1.048,0,0,1-.11.075,1.071,1.071,0,0,1-.14.07.943.943,0,0,1-.168.053,1,1,0,0,1-.5-.033.637.637,0,0,1-.223-.138.536.536,0,0,1-.13-.2.685.685,0,0,1-.043-.25.591.591,0,0,1,.12-.376,1.054,1.054,0,0,1,.34-.27,1.685,1.685,0,0,1-.135-.25.656.656,0,0,1-.058-.273.531.531,0,0,1,.035-.19.461.461,0,0,1,.11-.168.556.556,0,0,1,.193-.12.864.864,0,0,1,.521,0,.572.572,0,0,1,.19.1.456.456,0,0,1,.17.366.5.5,0,0,1-.125.348,1.192,1.192,0,0,1-.366.268l.333.431a.671.671,0,0,0,.063-.163.867.867,0,0,0,.02-.2v-.03Zm-.874.786a.533.533,0,0,0,.148-.093l-.428-.543a.613.613,0,0,0-.183.175.358.358,0,0,0-.058.2.313.313,0,0,0,.023.118.288.288,0,0,0,.065.1.321.321,0,0,0,.1.068.33.33,0,0,0,.133.025.481.481,0,0,0,.2-.043Zm-.22-1.252a.725.725,0,0,0,.1.16.779.779,0,0,0,.22-.15.265.265,0,0,0,.075-.19.2.2,0,0,0-.053-.128.208.208,0,0,0-.165-.06.22.22,0,0,0-.093.018.192.192,0,0,0-.065.048.178.178,0,0,0-.038.063.206.206,0,0,0,0,.065.456.456,0,0,0,.02.188Z" transform="translate(-120.124 -186.636)" fill="#40c1c9"/>
        <path id="パス_26009" data-name="パス 26009" d="M175.208,251.034l-.068.07v.8h-.461V249.71h.461v.839l.8-.839h.576l-.921.949,1.029,1.252h-.583l-.751-.939Z" transform="translate(-130.949 -186.831)" fill="#40c1c9"/>
        <path id="パス_26010" data-name="パス 26010" d="M184.636,249.4v.416h-.456V249.4Zm-.013.736v1.54h-.433v-1.54Z" transform="translate(-138.071 -186.599)" fill="#40c1c9"/>
        <path id="パス_26011" data-name="パス 26011" d="M189.241,252.2v.193h.013a.473.473,0,0,1,.2-.185.6.6,0,0,1,.25-.055.556.556,0,0,1,.423.175.751.751,0,0,1,.163.528v.884h-.438v-.854a.388.388,0,0,0-.078-.25.265.265,0,0,0-.213-.088.305.305,0,0,0-.235.1.418.418,0,0,0-.093.293v.814H188.8v-1.54Z" transform="translate(-141.534 -188.66)" fill="#40c1c9"/>
        <path id="パス_26012" data-name="パス 26012" d="M198.393,251.591v-.168h0a.733.733,0,0,1-.2.153.623.623,0,0,1-.305.07.663.663,0,0,1-.461-.2.8.8,0,0,1-.17-.25.939.939,0,0,1-.068-.376.906.906,0,0,1,.06-.333.816.816,0,0,1,.16-.25.7.7,0,0,1,.233-.168.676.676,0,0,1,.278-.06.551.551,0,0,1,.283.065.609.609,0,0,1,.183.163h.007v-.951h.423V251.6Zm-.751-.6a.425.425,0,0,0,.075.143.38.38,0,0,0,.123.1.37.37,0,0,0,.173.038.34.34,0,0,0,.145-.033.373.373,0,0,0,.123-.093.468.468,0,0,0,.085-.14.483.483,0,0,0,.033-.178.571.571,0,0,0-.03-.185.426.426,0,0,0-.08-.145.374.374,0,0,0-.123-.093.346.346,0,0,0-.15-.033.368.368,0,0,0-.175.04.383.383,0,0,0-.125.105.444.444,0,0,0-.075.145.568.568,0,0,0,0,.328Z" transform="translate(-147.823 -186.517)" fill="#40c1c9"/>
        <path id="パス_26013" data-name="パス 26013" d="M207.374,252.19a.724.724,0,0,1,.25.178.752.752,0,0,1,.15.25.929.929,0,0,1,.053.308v.055a.312.312,0,0,1,0,.06h-1.144a.361.361,0,0,0,.033.15.442.442,0,0,0,.085.125.4.4,0,0,0,.125.088.378.378,0,0,0,.155.033.358.358,0,0,0,.18-.043.388.388,0,0,0,.128-.118h.421a.937.937,0,0,1-.1.185.673.673,0,0,1-.15.155.708.708,0,0,1-.21.105.888.888,0,0,1-.27.038.866.866,0,0,1-.323-.06.751.751,0,0,1-.25-.17.8.8,0,0,1-.173-.263.9.9,0,0,1-.063-.343.918.918,0,0,1,.053-.313.751.751,0,0,1,.155-.25.726.726,0,0,1,.25-.175.826.826,0,0,1,.335-.065A.808.808,0,0,1,207.374,252.19Zm-.483.263a.34.34,0,0,0-.11.073.357.357,0,0,0-.073.105.382.382,0,0,0-.033.123h.719a.386.386,0,0,0-.11-.23.333.333,0,0,0-.25-.1A.366.366,0,0,0,206.891,252.453Z" transform="translate(-154.63 -188.638)" fill="#40c1c9"/>
        <path id="パス_26014" data-name="パス 26014" d="M215.926,252.6h-.115a.358.358,0,0,0-.288.115.486.486,0,0,0-.1.323v.751H215v-1.54h.423v.238h0a.639.639,0,0,1,.18-.2.443.443,0,0,1,.27-.085.638.638,0,0,1,.14.012v.406Z" transform="translate(-161.175 -188.698)" fill="#40c1c9"/>
        <path id="パス_26015" data-name="パス 26015" d="M222.472,254.393a.8.8,0,0,1-.626.223.811.811,0,0,1-.526-.163.7.7,0,0,1-.25-.453h.433a.348.348,0,0,0,.11.188.376.376,0,0,0,.25.075.363.363,0,0,0,.3-.118.521.521,0,0,0,.1-.343v-.2h0a.664.664,0,0,1-.2.158.613.613,0,0,1-.3.065.712.712,0,0,1-.283-.055.666.666,0,0,1-.23-.163.8.8,0,0,1-.155-.25.926.926,0,0,1-.058-.335.911.911,0,0,1,.055-.323.779.779,0,0,1,.155-.25.752.752,0,0,1,.235-.17.7.7,0,0,1,.3-.063.607.607,0,0,1,.163.02.574.574,0,0,1,.133.055.5.5,0,0,1,.1.075.6.6,0,0,1,.07.083h.015v-.185h.406v1.5a.946.946,0,0,1-.2.623Zm-.971-1.227a.4.4,0,0,0,.07.138.37.37,0,0,0,.123.1.378.378,0,0,0,.178.038.37.37,0,0,0,.16-.025.384.384,0,0,0,.125-.088.41.41,0,0,0,.083-.135.483.483,0,0,0,.03-.175.5.5,0,0,0-.03-.18.443.443,0,0,0-.083-.138.343.343,0,0,0-.123-.088.389.389,0,0,0-.153-.03.365.365,0,0,0-.293.135.434.434,0,0,0-.075.14.5.5,0,0,0-.025.16.564.564,0,0,0,.013.148Z" transform="translate(-165.702 -188.713)" fill="#40c1c9"/>
        <path id="パス_26016" data-name="パス 26016" d="M231.251,253.779v-.193h-.013a.671.671,0,0,1-.193.173.586.586,0,0,1-.308.073.671.671,0,0,1-.235-.048.659.659,0,0,1-.225-.145.784.784,0,0,1-.17-.25.939.939,0,0,1-.068-.376.9.9,0,0,1,.06-.335.786.786,0,0,1,.16-.25.694.694,0,0,1,.233-.163.7.7,0,0,1,.28-.055.566.566,0,0,1,.293.075.5.5,0,0,1,.1.078.722.722,0,0,1,.075.088h.013v-.2h.418v1.54Zm-.751-.6a.441.441,0,0,0,.073.143.346.346,0,0,0,.123.1.391.391,0,0,0,.178.038.341.341,0,0,0,.145-.033.387.387,0,0,0,.123-.09.449.449,0,0,0,.085-.14.483.483,0,0,0,.033-.178.557.557,0,0,0-.03-.183.408.408,0,0,0-.08-.14.36.36,0,0,0-.273-.123.36.36,0,0,0-.3.138.428.428,0,0,0-.075.14.548.548,0,0,0-.025.163A.566.566,0,0,0,230.5,253.176Z" transform="translate(-172.448 -188.705)" fill="#40c1c9"/>
        <path id="パス_26017" data-name="パス 26017" d="M240.374,252.6h-.115a.358.358,0,0,0-.288.115.486.486,0,0,0-.1.323v.751h-.433v-1.54h.423v.238h0a.639.639,0,0,1,.18-.2.441.441,0,0,1,.27-.085.638.638,0,0,1,.14.012v.406Z" transform="translate(-179.496 -188.698)" fill="#40c1c9"/>
        <path id="パス_26018" data-name="パス 26018" d="M245.43,250.841v-.5h.438v.5h.363v.366h-.363v.6a.268.268,0,0,0,.045.18.2.2,0,0,0,.148.048h.1a.534.534,0,0,0,.093-.02v.353a1.068,1.068,0,0,1-.15.03,1.132,1.132,0,0,1-.15,0,.665.665,0,0,1-.25-.038.388.388,0,0,1-.16-.11.428.428,0,0,1-.088-.175.946.946,0,0,1-.025-.228v-.638h-.185v-.366Z" transform="translate(-183.844 -187.304)" fill="#40c1c9"/>
        <path id="パス_26019" data-name="パス 26019" d="M252.384,252.19a.726.726,0,0,1,.25.178.751.751,0,0,1,.15.25.932.932,0,0,1,.053.308v.055a.313.313,0,0,1,0,.06h-1.144a.36.36,0,0,0,.033.15.437.437,0,0,0,.085.125.4.4,0,0,0,.125.088.378.378,0,0,0,.155.033.358.358,0,0,0,.18-.043.391.391,0,0,0,.128-.118h.421a.93.93,0,0,1-.1.185.673.673,0,0,1-.15.155.707.707,0,0,1-.21.105.888.888,0,0,1-.27.038.866.866,0,0,1-.323-.06.751.751,0,0,1-.25-.17.8.8,0,0,1-.173-.263.892.892,0,0,1-.063-.343.914.914,0,0,1,.053-.313.751.751,0,0,1,.155-.25.723.723,0,0,1,.25-.175.826.826,0,0,1,.335-.065.808.808,0,0,1,.31.07Zm-.483.263a.342.342,0,0,0-.11.073.358.358,0,0,0-.073.105.388.388,0,0,0-.033.123h.719a.385.385,0,0,0-.11-.23.333.333,0,0,0-.25-.1A.366.366,0,0,0,251.9,252.453Z" transform="translate(-188.371 -188.638)" fill="#40c1c9"/>
        <path id="パス_26020" data-name="パス 26020" d="M260.423,252.2v.193h.012a.473.473,0,0,1,.2-.185.6.6,0,0,1,.25-.055.556.556,0,0,1,.423.175.751.751,0,0,1,.163.528v.884h-.433v-.854a.388.388,0,0,0-.078-.25.265.265,0,0,0-.213-.088.306.306,0,0,0-.235.1.418.418,0,0,0-.093.293v.814H260v-1.54Z" transform="translate(-194.909 -188.66)" fill="#40c1c9"/>
        <path id="パス_26021" data-name="パス 26021" d="M145.982,130.021a.628.628,0,0,0-.225-.526.5.5,0,0,0-.463-.19h-.288a2.315,2.315,0,0,0-.315,0,1.612,1.612,0,0,0-.305.038c-.043,0-.09.02-.17.03a1.183,1.183,0,0,0-.25.063.44.44,0,0,1-.165.03.125.125,0,0,1-.09-.025.7.7,0,0,0-.33-.1,1.033,1.033,0,0,0-.293.015.792.792,0,0,1-.17,0,.982.982,0,0,1-.178-.02,1.3,1.3,0,0,0-.283-.025.854.854,0,0,0-.323.058.423.423,0,0,1-.143.03,1.031,1.031,0,0,0-.293.058.667.667,0,0,1-.15.035c-.02.013-.058-.015-.093-.033a.456.456,0,0,0-.563.073.461.461,0,0,0-.058.548.279.279,0,0,1,.033.1,2.11,2.11,0,0,1-.018.25l-.015.14a1.343,1.343,0,0,0,0,.273.621.621,0,0,1,0,.188,1.183,1.183,0,0,0-.015.273.326.326,0,0,1-.025.165c0,.033,0,.033-.06.06a.7.7,0,0,0-.27.25.863.863,0,0,0-.12.32.393.393,0,0,1-.05.145.79.79,0,0,1-.1.145,1.18,1.18,0,0,0-.16.25.922.922,0,0,0-.093.3.383.383,0,0,1-.045.145.656.656,0,0,1-.1.15,1.181,1.181,0,0,0-.158.25.458.458,0,0,1-.1.148,1.418,1.418,0,0,0-.16.19.521.521,0,0,1-.125.138,1.567,1.567,0,0,0-.17.158c-.065.068-.1.113-.135.148a1.483,1.483,0,0,1-.168.168.659.659,0,0,0-.205.32c-.018.053-.018.053-.045.075a1.135,1.135,0,0,1-.145.093,1.163,1.163,0,0,0-.25.18.383.383,0,0,1-.128.078.788.788,0,0,0-.3.208q-.066.069-.125.145a.37.37,0,0,1-.15.12,1.144,1.144,0,0,0-.213.155.213.213,0,0,1-.13.068.17.17,0,0,1-.108,0,.6.6,0,0,0-.431.02,2.108,2.108,0,0,0-.418.213l-.05.03a.679.679,0,0,0-.25.28l-.05.053a.2.2,0,0,1-.135,0,.979.979,0,0,0-.3,0,.821.821,0,0,0-.315.105.215.215,0,0,1-.125.038.145.145,0,0,1-.108-.03.751.751,0,0,0-.338-.1.789.789,0,0,1-.17-.028,1.154,1.154,0,0,0-.323-.04.656.656,0,0,0-.378.118.2.2,0,0,1-.11.043l-.138.015a.8.8,0,0,1-.283,0,.128.128,0,0,1-.1-.045.826.826,0,0,0-.273-.168,1.165,1.165,0,0,1-.173-.08,1.391,1.391,0,0,0-.273-.12,1.116,1.116,0,0,0-.3-.06.721.721,0,0,1-.17-.03l-.11-.03a1.748,1.748,0,0,1-.3-.105.921.921,0,0,0-.293-.073.25.25,0,0,1-.133-.043l-.213-.118-.2-.108-.4-.233a.168.168,0,0,1-.08-.083.844.844,0,0,0-.275-.28,2.961,2.961,0,0,1-.308-.238c-.093-.078-.133-.115-.178-.155l-.168-.15a1.09,1.09,0,0,1-.138-.143,1.552,1.552,0,0,0-.19-.2.751.751,0,0,0-.293-.165c-.048-.015-.048-.015-.073-.05a.123.123,0,0,1-.033-.1.788.788,0,0,0-.068-.318,1.271,1.271,0,0,0-.143-.25.813.813,0,0,1-.09-.163,1.058,1.058,0,0,1-.063-.18,1.5,1.5,0,0,0-.088-.25.829.829,0,0,0-.19-.28.338.338,0,0,1-.085-.118,1.348,1.348,0,0,1-.073-.178,1.554,1.554,0,0,0-.115-.268c-.048-.088-.08-.14-.108-.185a1.06,1.06,0,0,1-.1-.2,1.169,1.169,0,0,0-.135-.25.486.486,0,0,1-.083-.188,2.018,2.018,0,0,1-.08-.4,1.3,1.3,0,0,1,0-.273v-.133a.427.427,0,0,1,.055-.083.438.438,0,0,0,.035-.588.538.538,0,0,0-.518-.183.48.48,0,0,1-.135,0,.824.824,0,0,0-.333,0,.518.518,0,0,1-.145.013h-.128a2.752,2.752,0,0,0-.348,0,.6.6,0,0,1-.175,0,1.377,1.377,0,0,0-.25-.028.636.636,0,0,0-.368.105c-.045.025-.045.025-.073.025s-.018,0-.06-.04a.553.553,0,0,0-.406-.173h0a.553.553,0,0,0-.406.17c-.04.038-.04.038-.06.038a.68.68,0,0,1-.173,0,1.139,1.139,0,0,0-.28,0,.235.235,0,0,1-.113-.018.729.729,0,0,0-.333-.048h-.1a.543.543,0,0,0-.461.215.521.521,0,0,0-.173.476v.1a1.752,1.752,0,0,0-.028.26c0,.04.015.088.023.165a1.771,1.771,0,0,1,0,.18,1.578,1.578,0,0,0,.03.3,1.1,1.1,0,0,0,.085.275.481.481,0,0,1,.045.155c.015.1.025.155.033.205s.02.115.035.25a.876.876,0,0,0,.093.323.641.641,0,0,1,.053.143.263.263,0,0,1,0,.125.679.679,0,0,0,.045.376,1.461,1.461,0,0,1,.078.233.8.8,0,0,0,.045.173.854.854,0,0,0,.138.285.218.218,0,0,1,.05.118,1.407,1.407,0,0,0,.09.34l.05.138a1.571,1.571,0,0,0,.148.34l.058.105a.233.233,0,0,1,.033.12.734.734,0,0,0,.1.335,1.375,1.375,0,0,0,.15.23.98.98,0,0,1,.1.155.413.413,0,0,1,.05.14.856.856,0,0,0,.125.31.843.843,0,0,0,.228.25.4.4,0,0,1,.105.105,1.079,1.079,0,0,0,.2.218.59.59,0,0,1,.115.123.783.783,0,0,1,.09.155,1.251,1.251,0,0,0,.143.25,1.752,1.752,0,0,0,.23.278l.093.1a1.565,1.565,0,0,1,.11.125,1.336,1.336,0,0,0,.25.23.824.824,0,0,0,.285.15.19.19,0,0,1,.105.063c.02.02.02.02.025.073a.658.658,0,0,0,.138.358,1.985,1.985,0,0,0,.353.381,1.2,1.2,0,0,0,.3.205,1.574,1.574,0,0,1,.138.078,2.114,2.114,0,0,0,.225.12,1.628,1.628,0,0,1,.18.1,1.053,1.053,0,0,1,.155.11,1.539,1.539,0,0,0,.215.155.691.691,0,0,0,.343.108.14.14,0,0,1,.1.03c.035.025.038.03.06.08a.676.676,0,0,0,.223.293.919.919,0,0,0,.3.163.749.749,0,0,1,.148.065.873.873,0,0,0,.315.118.677.677,0,0,1,.15.043.213.213,0,0,1,.1.07.721.721,0,0,0,.293.2,1.335,1.335,0,0,0,.27.078,1,1,0,0,1,.178.05c.075.028.123.048.163.065a1.808,1.808,0,0,0,.29.1.791.791,0,0,0,.346.025.373.373,0,0,1,.14,0,.361.361,0,0,1,.143.053.983.983,0,0,0,.273.113l.163.04a2.67,2.67,0,0,1,.265.075.275.275,0,0,1,.113.065.7.7,0,0,0,.34.165.734.734,0,0,0,.368,0,.353.353,0,0,1,.138-.015.5.5,0,0,1,.163.035,1.128,1.128,0,0,0,.278.065h.113a.821.821,0,0,0,.213-.028.283.283,0,0,1,.135,0,1.575,1.575,0,0,0,.356.023h.14a1.468,1.468,0,0,0,.315-.028c.04,0,.088-.018.168-.025l.178-.015a1.951,1.951,0,0,0,.3-.04,1.25,1.25,0,0,0,.278-.085,1,1,0,0,1,.17-.055.275.275,0,0,1,.138,0,.884.884,0,0,0,.305,0,.751.751,0,0,0,.32-.123.163.163,0,0,1,.1-.038.19.19,0,0,1,.11.023.646.646,0,0,0,.381.053,3.785,3.785,0,0,0,.486-.05.664.664,0,0,0,.338-.183.263.263,0,0,1,.1-.068.544.544,0,0,1,.133-.07.829.829,0,0,0,.33-.113,1.533,1.533,0,0,0,.213-.14.751.751,0,0,1,.163-.1,2,2,0,0,1,.228-.1l.18-.068c.09-.038.14-.053.185-.07s.123-.043.25-.1a.594.594,0,0,1,.163-.048,1.115,1.115,0,0,0,.288-.09.663.663,0,0,0,.29-.25.183.183,0,0,1,.08-.075.263.263,0,0,1,.123-.035.721.721,0,0,0,.343-.113.846.846,0,0,0,.25-.225.461.461,0,0,1,.108-.108,3.189,3.189,0,0,0,.305-.25l.065-.058a.8.8,0,0,1,.145-.105,1.315,1.315,0,0,0,.228-.165,1.7,1.7,0,0,0,.188-.19,1.1,1.1,0,0,1,.13-.108,2.5,2.5,0,0,0,.345-.345.368.368,0,0,1,.108-.088.751.751,0,0,0,.268-.25.957.957,0,0,0,.13-.275.393.393,0,0,1,.068-.138,1.05,1.05,0,0,0,.138-.25.475.475,0,0,1,.08-.14c.093-.118.123-.163.168-.228l.1-.145c.088-.12.118-.168.158-.233l.1-.15c.018-.028.018-.028.068-.048a.656.656,0,0,0,.436-.6c0-.055,0-.055.023-.078a.166.166,0,0,1,.083-.048.578.578,0,0,0,.34-.25.706.706,0,0,0,.115-.358.325.325,0,0,1,.028-.13.584.584,0,0,1,.083-.145,1.056,1.056,0,0,0,.148-.25.734.734,0,0,0,.058-.348.225.225,0,0,1,.018-.123,1.522,1.522,0,0,1,.08-.175,1.714,1.714,0,0,0,.11-.25.168.168,0,0,1,.063-.088.673.673,0,0,0,.208-.313c.023-.068.04-.113.055-.153a1.755,1.755,0,0,0,.093-.325.646.646,0,0,0-.035-.4.2.2,0,0,1-.02-.113,1.909,1.909,0,0,0,0-.25,1.035,1.035,0,0,1,.013-.2.594.594,0,0,1,.048-.175,1.318,1.318,0,0,0,.08-.25,1.954,1.954,0,0,0,.05-.358v-.128a.3.3,0,0,1,.038-.13.7.7,0,0,0,.08-.376Zm-1.274,3.332a1.973,1.973,0,0,0-.1.228.718.718,0,0,0-.053.228h-.018l-.215.12c0-.02-.02-.04-.033-.063a.265.265,0,0,0-.16-.128.27.27,0,0,0-.138,0c.305-.188.558-.348.766-.488A.828.828,0,0,1,144.708,133.353Zm.661-2.974a.783.783,0,0,0-.033.17v.135a1.575,1.575,0,0,1-.04.283.8.8,0,0,1-.053.165.677.677,0,0,0-.233.028.268.268,0,0,0-.371-.105l-.193.113-.1.058-.714.413.333-.228a9.945,9.945,0,0,0,1.4-1.029Zm-4.028.739a1.14,1.14,0,0,0,.013-.125.266.266,0,0,0,.123.083h.018l-.165.155A.609.609,0,0,1,141.34,131.118Zm-.891,1.91a.385.385,0,0,1,.045-.145.648.648,0,0,1,.1-.153,1.42,1.42,0,0,0,.128-.188h0a.25.25,0,0,0,.05.153.268.268,0,0,0,.168.13h.015l-.563.4a1.068,1.068,0,0,0,.06-.19Zm4.7-3.187a.428.428,0,0,0,.18-.018.359.359,0,0,1,.043.04l.073.08a.569.569,0,0,1,0,.1v.073a.185.185,0,0,1-.028.12v.028a.318.318,0,0,0-.048-.11.323.323,0,0,0-.185-.14.283.283,0,0,0-.163,0,.336.336,0,0,0-.053-.13.251.251,0,0,0-.053-.06h.04Zm-1.7.048a.678.678,0,0,0,.371.093.948.948,0,0,0,.318-.06.7.7,0,0,1,.155-.038.734.734,0,0,0,.19-.033l-2.183,1.209.924-.871a.268.268,0,0,0,.075-.25.25.25,0,0,0-.043-.078h.09A.183.183,0,0,1,143.441,129.888Zm-1.58.068a.485.485,0,0,1,.168-.033.949.949,0,0,0,.29-.063.325.325,0,0,1,.143-.025.849.849,0,0,1,.185.018h.065l-.546.32-.411.25c-.028-.173-.05-.3-.068-.408A1.387,1.387,0,0,0,141.861,129.956Zm-8.011,7.035a.143.143,0,0,1,.1-.035.655.655,0,0,1,.18.023,1.264,1.264,0,0,0,.27.045.233.233,0,0,1,.118.038.7.7,0,0,0,.14.058c-.836.5-1.67.986-2.391,1.4,1.157-.979,1.312-1.252,1.279-1.412a.751.751,0,0,0,.3-.115Zm-1.572.21.265-.155a.265.265,0,0,0,.078-.068.593.593,0,0,0,.213.118l-.729.443c.16-.163.188-.253.16-.338Zm-1.63-.9a.774.774,0,0,0,.343.11.418.418,0,0,1,.14.035,2.139,2.139,0,0,0,.363.128l.105.03a1.194,1.194,0,0,0,.278.05.59.59,0,0,1,.173.035h.025c-.906.5-2.055,1.162-2.957,1.662.468-.428,1.029-.926,1.567-1.389a.266.266,0,0,0-.318-.426c-.668.431-1.387.874-2,1.229l1.8-1.675a.251.251,0,0,0,.028-.045l.04.023.213.118Zm-1.555-1.124a3.694,3.694,0,0,0,.388.3.25.25,0,0,1,.083.093.708.708,0,0,0,.145.178l-.25.14a.268.268,0,0,0,0-.25.313.313,0,0,0-.183-.14.572.572,0,0,0-.308.05.447.447,0,0,0-.05-.11.351.351,0,0,0-.193-.148.7.7,0,0,0-.456.1c.25-.21.411-.353.521-.461l.1.088C128.947,135.066,128.99,135.108,129.093,135.181Zm-1.379-1.635a.806.806,0,0,1,.09.165.273.273,0,0,1,.025.125.631.631,0,0,0,.133.391.608.608,0,0,0,.338.25.274.274,0,0,1,.083.04c-.143.068-.325.16-.566.288a.268.268,0,0,0,.055-.325.3.3,0,0,0-.178-.138.336.336,0,0,0-.2,0,.25.25,0,0,0-.04-.12.3.3,0,0,0-.233-.125c.438-.363.451-.483.355-.653a.335.335,0,0,0-.19-.145c-.158-.043-.378.033-.954.371l.939-.9a.334.334,0,0,1,.043.075,1.061,1.061,0,0,1,.063.18,1.5,1.5,0,0,0,.088.25,1.271,1.271,0,0,0,.145.28Zm-.734-1.5a1.016,1.016,0,0,1,.075.17,3.851,3.851,0,0,0-.453.233.265.265,0,0,0-.345-.02l-.308.2.616-.5a.268.268,0,0,0,.068-.338.34.34,0,0,0-.138-.125.223.223,0,0,0,0-.29c-.1-.173-.128-.223-1.139.325.343-.278.714-.573,1.087-.866a3.132,3.132,0,0,0,.078.315.924.924,0,0,0,.145.313.625.625,0,0,1,.08.145,1.5,1.5,0,0,0,.145.29c.025.048.05.09.09.163Zm-.681-2.208a.94.94,0,0,0,.205,0,.581.581,0,0,0-.1.283c-.11.045-.265.118-.5.235l.143-.113a.265.265,0,0,0,.06-.358.25.25,0,0,0-.035-.038l.073-.013a.325.325,0,0,1,.148.018Zm-1.319-.013a.894.894,0,0,1,.165.018,1.081,1.081,0,0,0,.3.02h.225l-1.655.916a3.126,3.126,0,0,0,.688-.839.714.714,0,0,0,.19-.08c.043-.018.04-.025.083-.02Zm-1.317.125a.591.591,0,0,0,.373-.178l.045-.03.023.015c-.305.19-.621.383-.9.546l.25-.32v-.03a1.13,1.13,0,0,0,.21.013Zm-.944,1.41a1.04,1.04,0,0,0-.045-.163c.1-.043.213-.1.373-.188-.138.168-.24.268-.328.363Zm-.2-1.234V130.1l.078-.048a.283.283,0,0,0,.023.085l.013.025-.1.128a1.253,1.253,0,0,1-.015-.153Zm.586,3.054c-.02-.07-.03-.115-.04-.155a1.849,1.849,0,0,0-.1-.305.158.158,0,0,1,0-.11.794.794,0,0,0-.015-.323,1.157,1.157,0,0,0-.09-.25h0l.548-.3c-.345.335-.3.413-.233.536a.266.266,0,0,0,.165.128.273.273,0,0,0,.208-.03l.651-.393c-1.014.881-.944,1-.859,1.159a.27.27,0,0,0,.08.088,1.622,1.622,0,0,0-.185.16c-.018-.03-.035-.06-.055-.088A.328.328,0,0,1,123.1,133.178Zm.3.786-.033-.09-.02-.058h.018a.25.25,0,0,0,.21-.035l.25-.163Zm.423,1.042a.9.9,0,0,1-.1-.155.23.23,0,0,1-.033-.12.875.875,0,0,0-.038-.188c.075-.028.168-.065.285-.12a.31.31,0,0,0,.128.073c.19.045.388-.055,1.637-.854l-1.389,1.327a.265.265,0,0,0-.05.323.275.275,0,0,0,.17.13.183.183,0,0,0,.088,0c-.153.113-.268.2-.358.278a.371.371,0,0,1-.038-.05.328.328,0,0,1-.055-.138.939.939,0,0,0-.1-.285,1.42,1.42,0,0,0-.145-.213Zm2.666,3.38a1.542,1.542,0,0,1-.285-.31c-.023-.028-.023-.038-.03-.09A.591.591,0,0,0,126,137.6a.711.711,0,0,0-.32-.2.3.3,0,0,1-.118-.06.82.82,0,0,1-.158-.153c-.033-.038-.07-.085-.135-.153l-.1-.1a1.382,1.382,0,0,1-.178-.213.784.784,0,0,1-.09-.155l-.035-.07c.078-.04.165-.09.278-.158a.268.268,0,0,0,.363.368l1.182-.663c-.811.709-.871.846-.751,1.054a.278.278,0,0,0,.17.13h.02c-.073.09-.048.145,0,.25a.268.268,0,0,0,.168.13.29.29,0,0,0,.108,0,.265.265,0,0,0,0,.27.283.283,0,0,0,.168.13c.123.035.19.05,1.5-.691l-1.314,1.234h0l-.078-.043a.681.681,0,0,1-.193-.118Zm.881.521a8.631,8.631,0,0,0,.786-.4,5.432,5.432,0,0,0-.536.583,1.135,1.135,0,0,1-.15-.11Zm2.371,1.364a.879.879,0,0,1-.18-.053.21.21,0,0,1-.1-.068.733.733,0,0,0-.285-.2,1.143,1.143,0,0,0-.25-.073.368.368,0,0,1-.148-.055,1.222,1.222,0,0,0-.25-.108.411.411,0,0,1-.148-.08.165.165,0,0,1-.063-.088.868.868,0,0,0-.063-.11l.25-.125a.267.267,0,0,0,.283-.005l.576-.368c-.518.376-.5.408-.4.593a.306.306,0,0,0,.178.138c.093.025.265.07,2.07-.976-.393.32-.816.658-1.227.976a.268.268,0,0,0-.07.34.3.3,0,0,0,.178.138h0a.767.767,0,0,0-.138.193,1.533,1.533,0,0,0-.223-.063Zm1.712.456-.153-.038a.453.453,0,0,1-.14-.058.963.963,0,0,0-.12-.06l1.124-.623.328-.165c-.688.5-.811.771-.681,1a.263.263,0,0,0,.115.105.8.8,0,0,0-.165-.075,3.065,3.065,0,0,0-.315-.083Zm.5.173.028.015a.276.276,0,0,0,.1,0,.475.475,0,0,0,.04.083l.013.015a.2.2,0,0,1-.078-.045,1.033,1.033,0,0,0-.123-.063Zm2.223.168a1.019,1.019,0,0,1-.22.02H133.8a1,1,0,0,1-.25-.018.751.751,0,0,0-.343.015.313.313,0,0,1-.138,0,.619.619,0,0,1-.16-.038,1.136,1.136,0,0,0-.233-.055l6.952-3.853c-1.753,1.152-3.68,2.413-5.273,3.452a.265.265,0,0,0-.078.368.25.25,0,0,0,.068.07Zm1.557-.225a.358.358,0,0,1-.143,0,.778.778,0,0,0-.348,0,1.332,1.332,0,0,0-.25.083.831.831,0,0,1-.175.053l-.1.015c.8-.5,1.625-1.026,2.428-1.52-1.252.891-1.344,1.157-1.292,1.307h0a.22.22,0,0,1-.143.068Zm7.035-4.239a1,1,0,0,0-.153.268.558.558,0,0,1-.078.14.888.888,0,0,0-.143.283.235.235,0,0,0-.015-.048.268.268,0,0,0-.361-.1l-2.045,1.134c.881-.551,1.853-1.139,2.822-1.717Zm1.445-1.753-.06.038a.653.653,0,0,0-.318.21.608.608,0,0,0-.148.391v.028a.355.355,0,0,0-.07-.033,1.753,1.753,0,0,0-.8.2c.658-.446,1.119-.766,1.44-1v.053a.185.185,0,0,1-.063.125Z" transform="translate(-91.458 -96.515)" fill="#f6a631"/>
        <path id="パス_26022" data-name="パス 26022" d="M146.282,41.7a.526.526,0,0,1,0-.16.889.889,0,0,0,0-.338.368.368,0,0,1,0-.148.8.8,0,0,0,0-.358.671.671,0,0,0-.183-.35.193.193,0,0,1-.06-.1c-.033-.123-.045-.178-.058-.25s-.022-.113-.048-.218a1.146,1.146,0,0,0-.1-.278.551.551,0,0,1-.06-.168.178.178,0,0,1,0-.115.676.676,0,0,0,0-.391,1.4,1.4,0,0,1-.038-.193,1.62,1.62,0,0,0-.063-.29.944.944,0,0,0-.16-.325.84.84,0,0,1-.09-.145c-.03-.06-.05-.105-.065-.143a1.522,1.522,0,0,0-.188-.323.686.686,0,0,0-.3-.25c-.055-.025-.058-.025-.078-.063a.266.266,0,0,1-.043-.138.887.887,0,0,0-.083-.313.7.7,0,0,1-.055-.165,1,1,0,0,0-.118-.308.834.834,0,0,0-.223-.27.441.441,0,0,1-.105-.115.173.173,0,0,1-.03-.108A.651.651,0,0,0,144,35.3a.706.706,0,0,0-.3-.25.228.228,0,0,1-.1-.075,2.165,2.165,0,0,0-.288-.305l-.068-.063a.7.7,0,0,1-.11-.128.924.924,0,0,0-.25-.25c-.185-.13-.19-.135-.376-.28a1.342,1.342,0,0,0-.23-.148.656.656,0,0,1-.155-.105,1.463,1.463,0,0,1-.135-.13,1.48,1.48,0,0,0-.225-.205,1.059,1.059,0,0,0-.278-.158.693.693,0,0,1-.153-.08.275.275,0,0,1-.1-.1.9.9,0,0,0-.213-.233,1,1,0,0,0-.27-.153.353.353,0,0,1-.135-.085,1.251,1.251,0,0,0-.273-.2,1.5,1.5,0,0,1-.15-.093.193.193,0,0,1-.073-.09.626.626,0,0,0-.3-.3l-.158-.085a2.845,2.845,0,0,0-.293-.14,1.3,1.3,0,0,0-.3-.093,1.189,1.189,0,0,1-.183-.05,1.018,1.018,0,0,1-.17-.075,1.237,1.237,0,0,0-.3-.118,2.239,2.239,0,0,0-.32-.063l-.18-.028a.616.616,0,0,0-.418.073c-.05.025-.048.025-.075.02a.158.158,0,0,1-.1-.058.713.713,0,0,0-.315-.2,1.794,1.794,0,0,0-.313-.075.877.877,0,0,1-.18-.035,1.694,1.694,0,0,1-.18-.05,1.455,1.455,0,0,0-.31-.068,1.78,1.78,0,0,0-.328-.023h-.125a1.394,1.394,0,0,0-.32.02,1.625,1.625,0,0,1-.183.02.726.726,0,0,1-.183,0,1.412,1.412,0,0,0-.293-.023.706.706,0,0,0-.358.105.17.17,0,0,1-.108.035.25.25,0,0,1-.118-.03.7.7,0,0,0-.373-.075.729.729,0,0,0-.353.105.25.25,0,0,1-.125.043.135.135,0,0,1-.1-.025.651.651,0,0,0-.4-.08.729.729,0,0,0-.348.13.218.218,0,0,1-.118.048,1.833,1.833,0,0,0-.388.08l-.11.033-.16.04a1.409,1.409,0,0,0-.33.115,1.819,1.819,0,0,1-.25.1l-.175.06a.663.663,0,0,1-.19.043,1.5,1.5,0,0,0-.25.045,1.214,1.214,0,0,0-.308.118,1.19,1.19,0,0,1-.165.075l-.055.02a2.93,2.93,0,0,0-.411.178.921.921,0,0,0-.28.2.654.654,0,0,1-.128.105,1.7,1.7,0,0,1-.155.09,1.339,1.339,0,0,0-.27.18l-.135.113a2.121,2.121,0,0,1-.228.173.178.178,0,0,1-.115.038.789.789,0,0,0-.33.1,1.014,1.014,0,0,0-.28.218,1.064,1.064,0,0,1-.125.118,1.5,1.5,0,0,0-.265.25l-.1.115c-.083.09-.123.13-.165.173s-.085.085-.165.168a.809.809,0,0,0-.18.29.273.273,0,0,1-.073.118.588.588,0,0,1-.138.113,1.146,1.146,0,0,0-.23.183l-.12.12c-.065.065-.1.1-.215.21a1.234,1.234,0,0,0-.2.238.971.971,0,0,1-.113.143l-.108.115c-.07.075-.105.11-.22.25a.615.615,0,0,1-.118.113.914.914,0,0,0-.23.25,1.73,1.73,0,0,1-.1.145,1.413,1.413,0,0,0-.173.285.954.954,0,0,0-.093.305.363.363,0,0,1-.048.15,2.092,2.092,0,0,1-.12.2c-.033.048-.068.1-.123.2a1.329,1.329,0,0,1-.1.145,1.191,1.191,0,0,0-.163.29.846.846,0,0,0-.075.345.531.531,0,0,1-.023.155,2.112,2.112,0,0,0-.053.25,1,1,0,0,1-.053.21.2.2,0,0,1-.073.105.786.786,0,0,0-.2.285l-.063.14a3.2,3.2,0,0,0-.125.32,1.019,1.019,0,0,0-.063.323.671.671,0,0,1-.028.17.4.4,0,0,1-.063.133.751.751,0,0,0-.13.358.772.772,0,0,1-.025.168,1.5,1.5,0,0,0-.025.361.7.7,0,0,0,.108.363.173.173,0,0,1,.035.113.31.31,0,0,1-.028.145.864.864,0,0,0-.063.325,1.837,1.837,0,0,1-.015.25c0,.053-.013.113-.02.215a1.5,1.5,0,0,1-.03.228c0,.055-.025.118-.038.23a.784.784,0,0,0,.035.386.594.594,0,0,1,.033.155.962.962,0,0,0,.085.356,1.322,1.322,0,0,1,.055.153,1.6,1.6,0,0,0,.1.25.821.821,0,0,1,.065.2.169.169,0,0,1-.018.08.636.636,0,0,0-.068.4,1.625,1.625,0,0,1,.018.183,1.37,1.37,0,0,0,.05.325,1.089,1.089,0,0,0,.13.31.886.886,0,0,1,.078.158.859.859,0,0,0,.175.29.34.34,0,0,1,.078.125.438.438,0,0,1,.033.155.934.934,0,0,0,.07.315l.075.2c.025.065.045.123.1.25a.929.929,0,0,0,.17.28.431.431,0,0,1,.083.133,1.189,1.189,0,0,1,.06.175,1.434,1.434,0,0,0,.128.32,4.416,4.416,0,0,0,.218.4.478.478,0,0,1,.058.145.841.841,0,0,0,.148.32.671.671,0,0,0,.31.25.213.213,0,0,1,.1.07.308.308,0,0,1,.07.125.833.833,0,0,0,.168.3l.16.183.153.173a.751.751,0,0,0,.29.213.25.25,0,0,1,.105.075.388.388,0,0,1,.08.128.866.866,0,0,0,.183.28.781.781,0,0,0,.283.2.251.251,0,0,1,.11.078c.08.088.125.133.168.175s.083.083.163.17a.25.25,0,0,1,.063.11.653.653,0,0,0,.233.33l.1.078a1.7,1.7,0,0,0,.333.225,1,1,0,0,0,.293.11.406.406,0,0,1,.15.06.5.5,0,0,1,.135.11,1.122,1.122,0,0,0,.228.19.971.971,0,0,0,.3.135.591.591,0,0,1,.155.065.5.5,0,0,1,.128.1.909.909,0,0,0,.273.2.645.645,0,0,1,.145.093,1.039,1.039,0,0,0,.275.168.683.683,0,0,0,.383.053.2.2,0,0,1,.12,0c.148.055.205.073.285.1l.178.055a.228.228,0,0,1,.108.068.716.716,0,0,0,.328.185.706.706,0,0,0,.376,0,.2.2,0,0,1,.123,0,1.3,1.3,0,0,1,.183.058,1.486,1.486,0,0,0,.278.083c.25.053.25,0,.483.05.15.025.21.03.285.04l.193.023a.751.751,0,0,1,.175.043,1.2,1.2,0,0,0,.3.065h.1c.15.015.18.02.386.038a1.049,1.049,0,0,0,.313-.015.606.606,0,0,1,.173,0h.466a.817.817,0,0,1,.168.02,1.034,1.034,0,0,0,.333.018.5.5,0,0,1,.155,0,.876.876,0,0,0,.168.018.9.9,0,0,0,.19-.023.826.826,0,0,0,.313-.128.293.293,0,0,1,.133-.053c.23-.04.238,0,.471-.038a1.118,1.118,0,0,0,.18-.023,1.78,1.78,0,0,0,.315-.053,1.432,1.432,0,0,0,.3-.1,1.612,1.612,0,0,1,.173-.068,2.334,2.334,0,0,0,.233-.09,1.66,1.66,0,0,1,.208-.078c.128-.04.183-.053.25-.07l.208-.055a1.074,1.074,0,0,1,.165-.035,1,1,0,0,0,.341-.105,1.723,1.723,0,0,0,.358-.213l.09-.065a1.131,1.131,0,0,1,.2-.123,2.527,2.527,0,0,0,.391-.235.8.8,0,0,1,.183-.105.5.5,0,0,1,.148-.043.774.774,0,0,0,.353-.135.9.9,0,0,0,.263-.25.781.781,0,0,1,.11-.125.523.523,0,0,1,.145-.1,1.192,1.192,0,0,0,.238-.155.766.766,0,0,0,.218-.273.193.193,0,0,1,.078-.1.268.268,0,0,1,.123-.053.7.7,0,0,0,.34-.17.681.681,0,0,0,.218-.325.235.235,0,0,1,.063-.108.608.608,0,0,1,.14-.115,1.252,1.252,0,0,0,.228-.18l.153-.153c.048-.05.085-.09.183-.18a.25.25,0,0,1,.113-.06.626.626,0,0,0,.355-.25.571.571,0,0,0,.1-.458v-.105a1.647,1.647,0,0,1,.12-.223c.028-.045.06-.1.11-.185a.29.29,0,0,1,.1-.113,1,1,0,0,0,.348-.531.43.43,0,0,1,.063-.145.233.233,0,0,1,.093-.09.731.731,0,0,0,.25-.263.774.774,0,0,0,.12-.356.451.451,0,0,1,.038-.148.8.8,0,0,0,.073-.353.5.5,0,0,1,.02-.153,1.194,1.194,0,0,1,.08-.22c.023-.053.05-.11.088-.21a.25.25,0,0,1,.078-.118.862.862,0,0,0,.193-.265,1.116,1.116,0,0,1,.085-.148.976.976,0,0,0,.153-.345.751.751,0,0,0,0-.4.5.5,0,0,1-.018-.153.938.938,0,0,1,.028-.2,1.505,1.505,0,0,0,.04-.283.729.729,0,0,0-.068-.358.2.2,0,0,1-.025-.118.313.313,0,0,1,.038-.14.844.844,0,0,0,.088-.323c0-.123,0-.188,0-.25a1.849,1.849,0,0,1,0-.22.954.954,0,0,0-.015-.325.5.5,0,0,1,0-.163q.006-.126.025-.25c0-.05.015-.11.025-.205a.919.919,0,0,0-.018-.351A.948.948,0,0,1,146.282,41.7ZM140.055,48l-1.1.641c4.416-2.706,6.1-3.8,6.7-4.3a.23.23,0,0,0,.03.085.205.205,0,0,1,.025.118,1.041,1.041,0,0,1-.028.2,1.433,1.433,0,0,0-.04.29.934.934,0,0,0,0,.21,1.5,1.5,0,0,0-.308.065.28.28,0,0,0-.038-.093.268.268,0,0,0-.373-.1l-1.562.954C142.461,46.6,141.247,47.308,140.055,48Zm5.375-7.9c-.06-.105-.093-.168-.345-.075L145.07,40l-.325.18c-.436.215-1.187.628-2.5,1.357-1.692.936-3.948,2.188-6.2,3.442L133.1,46.624c3.092-1.893,6.955-4.2,10.317-6.184.33-.185.616-.353.856-.5l.934-.576a.265.265,0,0,0,.068-.06.608.608,0,0,0,0,.138,1.088,1.088,0,0,0,.105.3.631.631,0,0,1,.063.165c.023.1.035.15.045.2s.028.133.065.27v.015c-3.818,2.176-8.7,4.92-12.435,6.988,3.648-2.126,8.462-4.837,12.218-6.912a.265.265,0,0,0,.1-.363Zm.023,1.783a.413.413,0,0,0-.208-.158,1.77,1.77,0,0,0-.786.2,13.537,13.537,0,0,0,1.329-.959.862.862,0,0,0,0,.31.389.389,0,0,1,0,.16,1.032,1.032,0,0,0-.023.3,1.379,1.379,0,0,0,.035.25.415.415,0,0,1,0,.178,1.238,1.238,0,0,1-.023.19c-.005.048-.02.143-.03.3v.048a.366.366,0,0,0-.135-.07,7.034,7.034,0,0,0-2.559,1l2.3-1.369a.268.268,0,0,0,.1-.368Zm.283,1.252a.25.25,0,0,0,.038-.035,2.277,2.277,0,0,0-.015.27v.205a.33.33,0,0,1-.018.09c-.175-.025-.613.2-6.975,3.818Zm-.608-4.8.018.028a3.348,3.348,0,0,0-.426.145l-.055-.023a.268.268,0,0,0-.2.025l-3.668,2.055c1.665-1.036,2.574-1.645,3.057-2.023a5.15,5.15,0,0,0,1-.7,1.09,1.09,0,0,1,.055.108c.018.04.04.09.075.158a1.294,1.294,0,0,0,.145.235Zm-.9-1.452a.368.368,0,0,1,.038.145.779.779,0,0,0,.1.318,7.407,7.407,0,0,0-1.067.486c.588-.481.518-.606.446-.739a.265.265,0,0,0-.368-.1c-4.574,2.674-10.7,6.189-14.706,8.385,4.036-2.4,10.42-6.056,15.212-8.763a.265.265,0,0,0,.133-.25.336.336,0,0,1,.063.088.523.523,0,0,1,.065.168,1.232,1.232,0,0,0,.09.273ZM124.851,48.272c-.04-.073-.068-.125-.135-.25-.013-.025-.018-.043-.028-.063a8.992,8.992,0,0,0,1.169-.5,2.185,2.185,0,0,0-.673.638Zm-.786-1.9a.91.91,0,0,0-.028-.1.874.874,0,0,0-.173-.285.333.333,0,0,1-.078-.128c-.018-.043-.03-.075-.045-.105.1-.045.25-.123.473-.25a.3.3,0,0,0,.163.123c.273.078,1.627-.578,12.042-6.509-3.653,2.191-7.956,4.687-10.265,6.021C125.051,45.778,124.415,46.144,124.065,46.374Zm3.077-2.654.315-.193c.411-.225.854-.463,1.317-.709C128.191,43.144,127.64,43.447,127.142,43.72Zm16.624-7.611.013.018a.333.333,0,0,0-.128,0l.1-.053Zm-.363-.6a8.353,8.353,0,0,0-.9.4,3.875,3.875,0,0,0,.686-.6l.04.05a.752.752,0,0,0,.17.145Zm-3.715-3.054a.714.714,0,0,0,.25.28,2.109,2.109,0,0,0,.2.12.711.711,0,0,1,.173.125.864.864,0,0,0,.3.185.468.468,0,0,1,.14.078.371.371,0,0,1,.08.115.791.791,0,0,0,.25.25,1.232,1.232,0,0,0,.25.13.536.536,0,0,1,.155.088,1.018,1.018,0,0,1,.155.14,1.951,1.951,0,0,0,.178.173,1.189,1.189,0,0,0,.25.17,11.127,11.127,0,0,0-1.555.633l.658-.408a.268.268,0,0,0,.093-.356.381.381,0,0,0-.15-.15.228.228,0,0,0-.025-.25.381.381,0,0,0-.2-.153.443.443,0,0,0-.19,0,.351.351,0,0,0-.043-.158.268.268,0,0,0-.363-.105l-1.92,1.064c1.5-1.072,1.372-1.284,1.252-1.482a.268.268,0,0,0-.343-.115.322.322,0,0,0-.033-.085.27.27,0,0,0-.163-.128c-.15-.043-.148-.045-3.715,2.038-3.152,1.838-8.55,4.987-10.715,6.066.381-.28.9-.626,1.535-1.024,3.21-1.69,8.344-4.456,10.906-6.176.779-.418,1.53-.816,2.228-1.184a.268.268,0,0,0,.083-.07l.035.018.17.09C139.66,32.4,139.66,32.4,139.687,32.452Zm-12.175,5.53c-.648.373-1.252.716-1.773,1C126.253,38.68,126.861,38.337,127.512,37.982ZM136,31.4a1,1,0,0,1,.215.048,2.124,2.124,0,0,0,.228.063c.1.023.158.03.21.04a1.407,1.407,0,0,1,.235.058.2.2,0,0,1,.1.065.751.751,0,0,0,.16.123c-1.224.651-3.916,2.151-9.982,5.56,2.619-1.645,6.239-3.78,8.9-5.308a.265.265,0,0,0,.1-.361.29.29,0,0,0-.17-.133c-.085-.025-.185-.018-.593.18.25-.183.34-.278.355-.351A1.97,1.97,0,0,1,136,31.4Zm-2.867.165c-.2.11-.413.23-.678.386l-.884.5,1.2-.751a.265.265,0,0,0,.118-.17.6.6,0,0,0,.24.035Zm-2.183.471.163-.055.1-.033-.688.383a1.753,1.753,0,0,0,.25-.25,1.349,1.349,0,0,0,.175-.045Zm-6.342,5.55a2.579,2.579,0,0,0,.145-.25.268.268,0,0,0,.158.123.306.306,0,0,0,.09,0c-.25.155-.421.278-.558.378l.06-.1C124.551,37.669,124.583,37.624,124.611,37.584Zm-.411.984a.14.14,0,0,1,.015-.078.274.274,0,0,0,.04.02c.06.018.105.028.31-.063-.153.113-.285.213-.406.305a1.649,1.649,0,0,1,.04-.188Zm-.924,4.757a.266.266,0,0,1-.015-.155.68.68,0,0,1,.033-.193,1.906,1.906,0,0,0,.04-.3.536.536,0,0,1,.018-.188,2.27,2.27,0,0,0,.018-.3.351.351,0,0,1,.028-.145.828.828,0,0,0,.06-.335.694.694,0,0,0-.105-.373.188.188,0,0,1-.038-.113,1.031,1.031,0,0,1,.018-.25c0-.048.018-.108.028-.193a.225.225,0,0,1,.048-.128.9.9,0,0,0,.143-.293,1.177,1.177,0,0,0,.045-.285.5.5,0,0,1,.035-.173v-.025h.02a.355.355,0,0,0-.023.055.35.35,0,0,0,.025.273.368.368,0,0,0,.16.138l-.25.13a.268.268,0,0,0-.11.366.3.3,0,0,0,.168.133.646.646,0,0,0-.135.215.366.366,0,0,0,.025.29.3.3,0,0,0,.075.085.17.17,0,0,0-.055.093.268.268,0,0,0,.386.31l.636-.353,1.342-.709c4.219-2.221,7.28-3.878,9.406-5.1-3.335,2.07-8.152,4.839-11.669,6.8h0a.268.268,0,0,0,.135.5.328.328,0,0,0,.153.371c-.536.343-.5.413-.423.548a.338.338,0,0,0,.19.145c.358.093,1.5-.576,5.758-3.195l3.235-1.8-6.009,3.73c-1.209.751-2.171,1.342-2.716,1.682a.265.265,0,0,0-.108.318,3.153,3.153,0,0,0-.25.21.366.366,0,0,0-.015-.12c-.015-.048,0-.04.023-.093a.606.606,0,0,0,.055-.426,1.294,1.294,0,0,0-.1-.3,1.178,1.178,0,0,1-.068-.178,1.843,1.843,0,0,0-.078-.208.474.474,0,0,1-.043-.19,1.114,1.114,0,0,0-.093-.275Zm5.548-2.852c-1.577.939-3,1.765-3.883,2.2.814-.543,2.278-1.352,3.881-2.2Zm-4.594,6.509.08-.023a.373.373,0,0,0,.033.2.268.268,0,0,0,.163.128.353.353,0,0,0,.235-.05,3.2,3.2,0,0,0-.25.215,1.124,1.124,0,0,0-.09-.123.4.4,0,0,1-.083-.135c-.053-.115-.073-.168-.093-.22Zm1.435,2.454a.831.831,0,0,0-.168-.3.751.751,0,0,0-.293-.213.173.173,0,0,1-.07-.048c1.092-.163,4.506-2.193,11.041-6.186l1.552-.949.836-.421c-3.69,2.253-8.615,5.15-12.443,7.368a.265.265,0,0,0-.13.265.25.25,0,0,0,.018.068.53.53,0,0,0-.073.14.312.312,0,0,0,0,.038c-.128.133-.115.2-.08.273a.52.52,0,0,0-.088.113l-.023-.028a.308.308,0,0,1-.085-.135Zm1.925,2.083a.781.781,0,0,0-.168-.29c-.09-.1-.135-.145-.183-.2s-.078-.078-.15-.158a.774.774,0,0,0-.288-.205.268.268,0,0,1-.11-.075.346.346,0,0,1-.083-.128.909.909,0,0,0-.173-.273.751.751,0,0,0-.285-.205l-.048-.025a10.75,10.75,0,0,0,.951-.536,42.821,42.821,0,0,0,4.441-2.464c-4.812,2.972-4.722,3.137-4.579,3.4a.265.265,0,0,0,.16.128.25.25,0,0,0,.2-.023l.14-.078a.646.646,0,0,0-.183.223.348.348,0,0,0,.025.233.273.273,0,0,0,.163.128c.118.033.268.085,11.1-6.009l-1.179.714c-3.7,2.126-7.681,4.534-9.559,5.681a.263.263,0,0,0-.125.25l-.02-.018a.135.135,0,0,1-.058-.083Zm.568.4a.471.471,0,0,1-.153-.058h0a.25.25,0,0,0,.068-.023c.045-.028,4.579-2.686,9.013-5.36l.138-.083c1.159-.671,2.271-1.3,3.277-1.863-1.192.716-2.5,1.5-3.82,2.308-5.783,3.505-7.641,4.719-8.184,5.228l-.035-.025a.927.927,0,0,0-.308-.135Zm1.352.8a1.016,1.016,0,0,0-.25-.183,1.094,1.094,0,0,0-.27-.113h0c4.336-2.669,10.515-6.352,13.973-8.167l-13.189,8.219a.268.268,0,0,0-.093.356v.013l-.053-.03a.405.405,0,0,1-.12-.105Zm1.252.483c-.07-.02-.12-.035-.25-.083a.729.729,0,0,0-.363-.043.16.16,0,0,1-.115-.013.514.514,0,0,1-.15-.09h0c.2.033.751-.228,8.97-4.9l.566-.323c-2.719,1.675-5.881,3.585-8.44,5.115a.265.265,0,0,0-.1.358.308.308,0,0,0,.028.03Zm.6.3a.188.188,0,0,1-.105-.063l-.078-.065a.925.925,0,0,0,.188-.03.22.22,0,0,0,.043.15l.015.018a.2.2,0,0,1-.06-.02Zm2.311.346a.673.673,0,0,1-.18-.04,1.252,1.252,0,0,0-.278-.065l-.21-.025a.791.791,0,0,1-.25-.035h-.015c1.5-.844,3.991-2.228,6.342-3.535l-5.2,3.41a.263.263,0,0,0-.108.29Zm.939.018a1.037,1.037,0,0,0-.2,0l.658-.381a.3.3,0,0,0-.08.2c-.1.068-.108.1-.125.153v.033h0c-.075,0-.128,0-.253-.008Zm1.367.058a.311.311,0,0,1-.155,0,1.329,1.329,0,0,0-.135-.015l.25-.138,1.044-.543.228-.118c-.28.183-.481.318-.618.421l-.145.088v.018a.629.629,0,0,0-.115.123.8.8,0,0,0-.233.108.32.32,0,0,1-.12.048Zm2.982-.8a1.541,1.541,0,0,0-.235.048l-.153.043c.23-.125.5-.268.791-.438l.125-.065c-.1.1-.118.168-.115.223a1.3,1.3,0,0,1-.23.13.483.483,0,0,1-.18.053Zm4.677-3.41c-.025.035-.028.035-.088.055a.97.97,0,0,0-.19.09H143.3l.335-.23v-.005a.123.123,0,0,1,0,.083Zm1.294-2.5a.951.951,0,0,0-.075.3.251.251,0,0,1-.048.14.215.215,0,0,1-.09.09.751.751,0,0,0-.25.25.911.911,0,0,0-.063.12.5.5,0,0,0-.028-.06.285.285,0,0,0-.168-.13c-.088-.025-.22-.065-2.959,1.447l3.728-2.446a1.239,1.239,0,0,0,0,.145.285.285,0,0,1-.045.135Z" transform="translate(-92.006 -22.729)" fill="#40c1c9"/>
        <rect id="長方形_5622" data-name="長方形 5622" width="85" height="73" transform="translate(-0.001 0.131)" fill="none"/>
      </g>
      <path id="多角形_5" data-name="多角形 5" d="M10.135,4.818a2,2,0,0,1,3.73,0l9.081,23.46A2,2,0,0,1,21.081,31H2.919a2,2,0,0,1-1.865-2.722Z" transform="translate(1370 6588) rotate(180)" fill="#fff"/>
    </g>
  </g>
</svg>
