<svg xmlns="http://www.w3.org/2000/svg" width="35.139" height="51.702" viewBox="0 0 35.139 51.702">
  <path id="パス_26123" data-name="パス 26123" d="M94.33,50c9.578,18.259,20.337,20.138,23.466,18.5l.816-.429L111.286,54.1c-.268.138-.542.278-.818.423-2.522,1.325-5.042-2.5-8.27-8.653s-4.942-10.4-2.42-11.723c.279-.145.548-.289.814-.431L93.265,19.748l-.816.428C89.321,21.817,84.752,31.74,94.33,50Zm28.712,15.744c1.209-.634.546-2.023-.142-3.334l-4.922-9.382c-.529-1.009-1.4-1.578-2.112-1.207-.444.233-1.478.724-2.81,1.386l7.312,13.938Zm-17.971-34.5c.707-.37.735-1.417.206-2.424s-4.92-9.382-4.92-9.382c-.688-1.312-1.453-2.646-2.662-2.011l-2.674,1.4,7.312,13.94C103.636,32.047,104.627,31.475,105.071,31.242Z" transform="translate(-88.574 -17.262)" fill="#fff"/>
</svg>
