<svg id="article" xmlns="http://www.w3.org/2000/svg" width="54" height="54" viewBox="0 0 54 54">
  <path id="パス_26279" data-name="パス 26279" d="M49.95,54H4.05A4.055,4.055,0,0,1,0,49.95V4.05A4.055,4.055,0,0,1,4.05,0h45.9A4.055,4.055,0,0,1,54,4.05v45.9A4.055,4.055,0,0,1,49.95,54ZM4.05,1.8A2.253,2.253,0,0,0,1.8,4.05v45.9A2.253,2.253,0,0,0,4.05,52.2h45.9a2.253,2.253,0,0,0,2.25-2.25V4.05A2.253,2.253,0,0,0,49.95,1.8Z"/>
  <path id="パス_26280" data-name="パス 26280" d="M8.5,9.4H4.9A.9.9,0,0,1,4,8.5V4.9A.9.9,0,0,1,4.9,4H8.5a.9.9,0,0,1,.9.9V8.5A.9.9,0,0,1,8.5,9.4ZM5.8,7.6H7.6V5.8H5.8Z" transform="translate(-0.4 -0.4)"/>
  <path id="パス_26281" data-name="パス 26281" d="M16.5,9.4H12.9a.9.9,0,0,1-.9-.9V4.9a.9.9,0,0,1,.9-.9h3.6a.9.9,0,0,1,.9.9V8.5A.9.9,0,0,1,16.5,9.4ZM13.8,7.6h1.8V5.8H13.8Z" transform="translate(-1.2 -0.4)"/>
  <path id="パス_26282" data-name="パス 26282" d="M24.5,9.4H20.9a.9.9,0,0,1-.9-.9V4.9a.9.9,0,0,1,.9-.9h3.6a.9.9,0,0,1,.9.9V8.5A.9.9,0,0,1,24.5,9.4ZM21.8,7.6h1.8V5.8H21.8Z" transform="translate(-2 -0.4)"/>
  <path id="パス_26283" data-name="パス 26283" d="M53.1,12.6H.9a.9.9,0,0,1-.9-.9V4.05A4.055,4.055,0,0,1,4.05,0h45.9A4.055,4.055,0,0,1,54,4.05V11.7A.9.9,0,0,1,53.1,12.6ZM1.8,10.8H52.2V4.05A2.253,2.253,0,0,0,49.95,1.8H4.05A2.253,2.253,0,0,0,1.8,4.05Z"/>
  <path id="パス_26284" data-name="パス 26284" d="M24.7,35.8H4.9a.9.9,0,0,1-.9-.9v-18a.9.9,0,0,1,.9-.9H24.7a.9.9,0,0,1,.9.9v18A.9.9,0,0,1,24.7,35.8ZM5.8,34h18V17.8H5.8Z" transform="translate(-0.4 -1.6)"/>
  <path id="パス_26285" data-name="パス 26285" d="M14.8,37.2a.9.9,0,0,1-.636-.264L9.4,32.173,5.536,36.036a.9.9,0,0,1-1.273-1.273l4.5-4.5a.9.9,0,0,1,1.273,0l5.4,5.4A.9.9,0,0,1,14.8,37.2Z" transform="translate(-0.4 -3)"/>
  <path id="パス_26286" data-name="パス 26286" d="M11.6,27.2a3.6,3.6,0,1,1,3.6-3.6A3.6,3.6,0,0,1,11.6,27.2Zm0-5.4a1.8,1.8,0,1,0,1.8,1.8A1.8,1.8,0,0,0,11.6,21.8Z" transform="translate(-0.8 -2)"/>
  <path id="パス_26287" data-name="パス 26287" d="M25.579,35.1a.9.9,0,0,1-.636-.264L19.307,29.2l-4.955,5.4a.9.9,0,1,1-1.327-1.217l5.59-6.094A.9.9,0,0,1,19.258,27a.875.875,0,0,1,.656.264l6.3,6.3a.9.9,0,0,1-.635,1.536Z" transform="translate(-1.279 -2.7)"/>
  <path id="パス_26288" data-name="パス 26288" d="M52.7,53.8H32.9a.9.9,0,0,1-.9-.9v-18a.9.9,0,0,1,.9-.9H52.7a.9.9,0,0,1,.9.9v18A.9.9,0,0,1,52.7,53.8ZM33.8,52h18V35.8h-18Z" transform="translate(-3.2 -3.4)"/>
  <path id="パス_26289" data-name="パス 26289" d="M42.8,55.2a.9.9,0,0,1-.636-.264L37.4,50.173l-3.864,3.864a.9.9,0,0,1-1.273-1.273l4.5-4.5a.9.9,0,0,1,1.273,0l5.4,5.4A.9.9,0,0,1,42.8,55.2Z" transform="translate(-3.2 -4.8)"/>
  <path id="パス_26290" data-name="パス 26290" d="M39.6,45.2a3.6,3.6,0,1,1,3.6-3.6A3.6,3.6,0,0,1,39.6,45.2Zm0-5.4a1.8,1.8,0,1,0,1.8,1.8A1.8,1.8,0,0,0,39.6,39.8Z" transform="translate(-3.6 -3.8)"/>
  <path id="パス_26291" data-name="パス 26291" d="M53.579,53.1a.9.9,0,0,1-.636-.264L47.307,47.2l-4.955,5.4a.9.9,0,1,1-1.327-1.217l5.59-6.094A.9.9,0,0,1,47.258,45a.89.89,0,0,1,.656.264l6.3,6.3a.9.9,0,0,1-.635,1.536Z" transform="translate(-4.079 -4.5)"/>
  <path id="パス_26292" data-name="パス 26292" d="M47.3,21.8H32.9a.9.9,0,0,1,0-1.8H47.3a.9.9,0,1,1,0,1.8Z" transform="translate(-3.2 -2)"/>
  <path id="パス_26293" data-name="パス 26293" d="M54.7,21.8H52.9a.9.9,0,0,1,0-1.8h1.8a.9.9,0,0,1,0,1.8Z" transform="translate(-5.2 -2)"/>
  <path id="パス_26294" data-name="パス 26294" d="M47.3,29.8H32.9a.9.9,0,0,1,0-1.8H47.3a.9.9,0,1,1,0,1.8Z" transform="translate(-3.2 -2.8)"/>
  <path id="パス_26295" data-name="パス 26295" d="M54.7,29.8H52.9a.9.9,0,0,1,0-1.8h1.8a.9.9,0,0,1,0,1.8Z" transform="translate(-5.2 -2.8)"/>
  <path id="パス_26296" data-name="パス 26296" d="M53.3,25.8H38.9a.9.9,0,0,1,0-1.8H53.3a.9.9,0,0,1,0,1.8Z" transform="translate(-3.8 -2.4)"/>
  <path id="パス_26297" data-name="パス 26297" d="M34.7,25.8H32.9a.9.9,0,0,1,0-1.8h1.8a.9.9,0,0,1,0,1.8Z" transform="translate(-3.2 -2.4)"/>
  <path id="パス_26298" data-name="パス 26298" d="M19.3,43.8H4.9a.9.9,0,1,1,0-1.8H19.3a.9.9,0,1,1,0,1.8Z" transform="translate(-0.4 -4.2)"/>
  <path id="パス_26299" data-name="パス 26299" d="M26.7,43.8H24.9a.9.9,0,1,1,0-1.8h1.8a.9.9,0,1,1,0,1.8Z" transform="translate(-2.4 -4.2)"/>
  <path id="パス_26300" data-name="パス 26300" d="M19.3,51.8H4.9a.9.9,0,1,1,0-1.8H19.3a.9.9,0,1,1,0,1.8Z" transform="translate(-0.4 -5)"/>
  <path id="パス_26301" data-name="パス 26301" d="M26.7,51.8H24.9a.9.9,0,1,1,0-1.8h1.8a.9.9,0,1,1,0,1.8Z" transform="translate(-2.4 -5)"/>
  <path id="パス_26302" data-name="パス 26302" d="M25.3,47.8H10.9a.9.9,0,1,1,0-1.8H25.3a.9.9,0,1,1,0,1.8Z" transform="translate(-1 -4.6)"/>
  <path id="パス_26303" data-name="パス 26303" d="M6.7,47.8H4.9a.9.9,0,1,1,0-1.8H6.7a.9.9,0,1,1,0,1.8Z" transform="translate(-0.4 -4.6)"/>
</svg>
