<svg xmlns="http://www.w3.org/2000/svg" width="48.004" height="58.616" viewBox="0 0 48.004 58.616">
  <g id="グループ_8030" data-name="グループ 8030" transform="translate(-1440.998 -5268)">
    <path id="合体_2" data-name="合体 2" d="M21109.145,10640.359l-4.033-10.09a24,24,0,1,1,11.779,0l-4.033,10.09a2,2,0,0,1-3.713,0Z" transform="translate(-19646 -5315)" fill="#40c1c9"/>
    <path id="パス_25943" data-name="パス 25943" d="M69.995,214.083a1.04,1.04,0,0,1,.026-.349.8.8,0,0,1,.473-.145c.047,0,.109.011.109.026,0,.041-.015.171-.015.274s0,.1.015.1.015-.011.015-.011a.884.884,0,0,1,.639-.337c.65,0,.665.852.665,1.742,0,.343-.015.607-.015.607a.829.829,0,0,1-.447.1.562.562,0,0,1-.171-.026,8.135,8.135,0,0,0,.052-.889c0-.5-.021-.9-.306-.9-.338,0-.431.369-.431.369v.661a3.846,3.846,0,0,1-.021.577.948.948,0,0,1-.535.137c-.041,0-.078,0-.078-.015a5.868,5.868,0,0,0,.036-.769C70.01,214.842,69.995,214.39,69.995,214.083Z" transform="translate(1380.992 5087.985)" fill="#fff"/>
    <path id="パス_25944" data-name="パス 25944" d="M88.274,215.846v-.021l-.015.015a.774.774,0,0,1-.684.338.835.835,0,0,1-.765-.893,1.392,1.392,0,0,1,1.549-1.435s.182,0,.182.026a1.232,1.232,0,0,1,.015.192v.078h.057a.6.6,0,0,1,.224.031v.661c0,.483.011,1.086.011,1.231,0,1.43-.993,1.675-1.393,1.675a.9.9,0,0,1-.193-.547h.1C87.619,217.2,88.274,217.1,88.274,215.846Zm-.119-1.461a.7.7,0,0,0-.722.754.372.372,0,0,0,.361.4.483.483,0,0,0,.447-.38c0-.078,0-.633.021-.759,0-.014-.108-.014-.108-.014Z" transform="translate(1366.457 5087.76)" fill="#fff"/>
    <path id="パス_25945" data-name="パス 25945" d="M104.522,215.866a.564.564,0,0,1-.2-.462v-.036c.6,0,.832-.265.832-.431,0-.3-.832-.462-.832-.91s.65-.847,1.231-.847c.057,0,.219.213.223.436-.078,0-.722.109-.722.384s.811.41.821.958C105.884,215.559,104.927,215.866,104.522,215.866Z" transform="translate(1351.342 5088.338)" fill="#fff"/>
    <path id="パス_25946" data-name="パス 25946" d="M127.84,208.666a1.367,1.367,0,0,0-.026-.338.011.011,0,0,0-.011-.011l-.015.011a1.156,1.156,0,0,1-.8.306c-.945,0-1.357-.7-1.357-1.565a1.882,1.882,0,0,1,2-2.08,2.02,2.02,0,0,1,.509.073c.011.011.011.041.011.083a1.425,1.425,0,0,1-.083.5,1.305,1.305,0,0,0-.547-.083c-.707,0-1.207.473-1.207,1.45,0,.583.228,1.008.748,1.008a.733.733,0,0,0,.722-.447v-.167a1.074,1.074,0,0,0-.031-.349,1.778,1.778,0,0,0-.483-.047,2.816,2.816,0,0,0-.317.015c-.021,0-.021-.037-.021-.041a.9.9,0,0,1,.167-.488,5.974,5.974,0,0,1,1.231-.073,1.48,1.48,0,0,1,.3.026,1.625,1.625,0,0,1-.177.6s0,1.4-.036,1.456a.81.81,0,0,1-.478.182C127.886,208.686,127.84,208.686,127.84,208.666Z" transform="translate(1332.947 5095.408)" fill="#fff"/>
    <path id="パス_25947" data-name="パス 25947" d="M150.8,207.373c0,.2,0,.358.011.442a.84.84,0,0,0,.15.41.9.9,0,0,1-.577.28c-.021,0-.137-.137-.161-.457V207.5c0-.531.021-1.055.021-1.881,0-.525-.021-.655-.021-.713s.3-.187.488-.187a.371.371,0,0,1,.137.021c-.011.078-.026.958-.026,1.352S150.8,206.879,150.8,207.373Z" transform="translate(1311.723 5095.641)" fill="#fff"/>
    <path id="パス_25948" data-name="パス 25948" d="M157.9,214.995a1.29,1.29,0,0,1,1.335-1.3,1.021,1.021,0,0,1,.28.041.175.175,0,0,1,.011.073,1.414,1.414,0,0,1-.015.187.862.862,0,0,1,.592.915,1.131,1.131,0,0,1-1.112,1.216A1.042,1.042,0,0,1,157.9,214.995Zm1.211-.525h-.041a.18.18,0,0,1-.011-.067.84.84,0,0,1,.015-.15.653.653,0,0,0-.583.728c0,.052,0,.624.5.624.245,0,.514-.182.514-.644S159.22,214.469,159.111,214.469Z" transform="translate(1305.092 5087.895)" fill="#fff"/>
    <path id="パス_25949" data-name="パス 25949" d="M177.05,208.661a8.4,8.4,0,0,0,.036-1.1c0-.624-.011-1.383-.011-1.915a3.689,3.689,0,0,1,.026-.676.813.813,0,0,1,.479-.177.326.326,0,0,1,.13.021c-.011.057-.052,1.066-.041,1.259h.083c.312,0,1.305.073,1.305,1.095,0,.7-.665,1.133-1.383,1.248a1.19,1.19,0,0,1,0,.137.975.975,0,0,1-.547.137C177.092,208.677,177.05,208.677,177.05,208.661Zm1.393-1.539a.5.5,0,0,0-.547-.52c-.093,0-.239.015-.239.015v.375a8.013,8.013,0,0,0,.021.843.707.707,0,0,0,.768-.713Z" transform="translate(1288.563 5095.58)" fill="#fff"/>
    <path id="パス_25950" data-name="パス 25950" d="M195.838,215.3a.614.614,0,0,0,.176.41.83.83,0,0,1-.577.286c-.021,0-.137-.119-.167-.4v-.011l-.015.011a1.159,1.159,0,0,1-.661.219.659.659,0,0,1-.754-.684c0-.91,1.2-1.029,1.305-1.029a.018.018,0,0,0,.011,0c0-.15-.193-.254-.644-.254a3.243,3.243,0,0,0-.379.021h0a1.013,1.013,0,0,1,.182-.473,1.137,1.137,0,0,1,.364-.037c.791,0,1.155.3,1.155.925v.256A7.049,7.049,0,0,0,195.838,215.3Zm-.592-.625a.458.458,0,0,0,0-.115c-.187,0-.763.093-.763.468,0,.137.089.254.322.254a.41.41,0,0,0,.447-.41Z" transform="translate(1274.068 5088.188)" fill="#fff"/>
    <path id="パス_25951" data-name="パス 25951" d="M212.817,207.373c0,.2,0,.358.011.442a.84.84,0,0,0,.15.41.9.9,0,0,1-.577.28c-.021,0-.137-.137-.161-.457V207.5c0-.531.021-1.055.021-1.881,0-.525-.021-.655-.021-.713s.3-.187.488-.187a.371.371,0,0,1,.137.021c-.011.078-.026.958-.026,1.352S212.817,206.879,212.817,207.373Z" transform="translate(1258.188 5095.641)" fill="#fff"/>
    <path id="パス_25952" data-name="パス 25952" d="M229.474,206.883a6.774,6.774,0,0,0-.684.015v.427c0,.52.031.958.041,1.045,0,.041-.193.137-.453.137a.522.522,0,0,1-.192-.026,6.221,6.221,0,0,1-.031-.958v-.613a1.051,1.051,0,0,1-.245-.529,1.884,1.884,0,0,1,.254-.015v-.956a1.315,1.315,0,0,1-.137-.494.04.04,0,0,1,0-.026h.109a1.144,1.144,0,0,1,.684.176c0,.052-.037.676-.037,1.185v.1h.691a2.451,2.451,0,0,1,.384.011c0-.633.041-1.289.041-1.309a.9.9,0,0,1,.547-.176c.021,0,.067,0,.067.021,0,0-.057.765-.057,1.642,0,1.019.031,1.621.28,1.872,0,.011-.011.021-.015.026a1.192,1.192,0,0,1-.613.182.188.188,0,0,1-.063-.011c-.119-.119-.171-.306-.182-1.71A2.268,2.268,0,0,0,229.474,206.883Z" transform="translate(1244.66 5095.503)" fill="#fff"/>
    <path id="パス_25953" data-name="パス 25953" d="M251.39,214.995a1.29,1.29,0,0,1,1.335-1.3,1.021,1.021,0,0,1,.28.041.175.175,0,0,1,.011.073A1.414,1.414,0,0,1,253,214a.861.861,0,0,1,.592.915,1.131,1.131,0,0,1-1.112,1.216A1.042,1.042,0,0,1,251.39,214.995Zm1.211-.525h-.041a.18.18,0,0,1-.011-.067.839.839,0,0,1,.015-.15.653.653,0,0,0-.583.728c0,.052,0,.624.5.624.245,0,.514-.182.514-.644S252.7,214.469,252.6,214.469Z" transform="translate(1224.395 5087.895)" fill="#fff"/>
    <path id="パス_25954" data-name="パス 25954" d="M272.291,214.836a1.986,1.986,0,0,1-.021.41.78.78,0,0,1-.436.1.508.508,0,0,1-.167-.026,6.4,6.4,0,0,0,.047-.791c0-.421-.011-.659-.234-.659-.274,0-.41.358-.41.421v.659a3.365,3.365,0,0,1-.021.535.845.845,0,0,1-.547.125c-.02,0-.041,0-.041-.015a5.728,5.728,0,0,0,.036-.763c0-.421-.015-.9-.015-1.222a1.264,1.264,0,0,1,.026-.358.759.759,0,0,1,.453-.156c.047,0,.109.011.109.021,0,.057-.021.343-.021.442,0,0,0,.026.011.026s.011,0,.021-.011a.934.934,0,0,1,.561-.306.527.527,0,0,1,.509.3.827.827,0,0,1,.655-.41c.65,0,.665.925.665,1.814,0,.343-.021.607-.021.607a.83.83,0,0,1-.447.1.507.507,0,0,1-.167-.026,8.52,8.52,0,0,0,.057-.915c0-.531-.021-.9-.317-.9a.372.372,0,0,0-.312.228A4.906,4.906,0,0,1,272.291,214.836Z" transform="translate(1207.932 5088.407)" fill="#fff"/>
    <path id="パス_25955" data-name="パス 25955" d="M295.21,215.184a1.208,1.208,0,0,1,1.259-1.294.583.583,0,0,1,.655.566,1.372,1.372,0,0,1-1.055,1.144c0,.031.109.137.379.137a1.257,1.257,0,0,0,.624-.137.018.018,0,0,1,.011,0c.011,0,.015.068.015.1a.841.841,0,0,1-.137.468,1.337,1.337,0,0,1-.684.119A1.011,1.011,0,0,1,295.21,215.184Zm1.144-.821c-.28,0-.536.332-.536.743,0,.057,0,.072.021.072a.819.819,0,0,0,.676-.665.146.146,0,0,0-.16-.156Z" transform="translate(1186.568 5087.726)" fill="#fff"/>
    <path id="パス_25956" data-name="パス 25956" d="M74.4,249.73l.435,1.2h-.253l-.093-.274h-.442l-.094.274H73.7l.465-1.2Zm.029.746-.1-.286q-.018-.051-.031-.094c-.008-.029-.018-.059-.026-.089h-.008q-.025.093-.057.185l-.1.285Z" transform="translate(1377.773 5056.789)" fill="#fff"/>
    <path id="パス_25957" data-name="パス 25957" d="M83.719,249.6v-.129a.312.312,0,0,1,.077-.227.3.3,0,0,1,.226-.078.554.554,0,0,1,.078,0,.464.464,0,0,1,.067.014v.194l-.048-.011h-.048a.107.107,0,0,0-.089.033.137.137,0,0,0-.026.089v.112h.182v.2h-.179v.64h-.239v-.638H83.6v-.2Z" transform="translate(1369.227 5057.281)" fill="#fff"/>
    <path id="パス_25958" data-name="パス 25958" d="M89.1,250.614v-.274h.238v.274h.205v.2h-.205v.327a.146.146,0,0,0,.025.1.108.108,0,0,0,.081.026H89.5a.3.3,0,0,0,.048-.014v.193a.583.583,0,0,1-.082.016.614.614,0,0,1-.082,0,.365.365,0,0,1-.137-.021.213.213,0,0,1-.088-.06.234.234,0,0,1-.048-.1.512.512,0,0,1-.014-.125v-.346H89v-.2Z" transform="translate(1364.566 5056.263)" fill="#fff"/>
    <path id="パス_25959" data-name="パス 25959" d="M95.608,252.158a.4.4,0,0,1,.137.1.41.41,0,0,1,.082.137.508.508,0,0,1,.029.168v.03a.171.171,0,0,1,0,.033h-.631a.2.2,0,0,0,.018.082.241.241,0,0,0,.047.068.217.217,0,0,0,.068.048.207.207,0,0,0,.085.018.2.2,0,0,0,.1-.023.212.212,0,0,0,.07-.064h.23a.512.512,0,0,1-.055.1.368.368,0,0,1-.082.085.387.387,0,0,1-.115.057.485.485,0,0,1-.148.021.473.473,0,0,1-.176-.033.41.41,0,0,1-.137-.093.435.435,0,0,1-.094-.144.49.49,0,0,1-.034-.187.5.5,0,0,1,.029-.171.411.411,0,0,1,.085-.137.4.4,0,0,1,.137-.1.452.452,0,0,1,.183-.036A.442.442,0,0,1,95.608,252.158Zm-.264.144a.186.186,0,0,0-.06.04.2.2,0,0,0-.04.057.21.21,0,0,0-.018.067h.393a.211.211,0,0,0-.06-.126.182.182,0,0,0-.137-.053A.2.2,0,0,0,95.344,252.3Z" transform="translate(1359.387 5054.727)" fill="#fff"/>
    <path id="パス_25960" data-name="パス 25960" d="M104.25,252.416h-.063a.2.2,0,0,0-.157.063.266.266,0,0,0-.053.177v.41h-.237v-.841h.231v.13h0a.349.349,0,0,1,.1-.108.242.242,0,0,1,.148-.047.349.349,0,0,1,.077.007v.222Z" transform="translate(1351.842 5054.658)" fill="#fff"/>
    <path id="パス_25961" data-name="パス 25961" d="M110.235,252.346a.094.094,0,0,0-.067-.025.085.085,0,0,0-.064.023.071.071,0,0,0-.022.051.085.085,0,0,0,0,.033.078.078,0,0,0,.025.03.257.257,0,0,0,.052.03.776.776,0,0,0,.086.033.4.4,0,0,1,.187.111.242.242,0,0,1,.055.157.26.26,0,0,1-.022.107.253.253,0,0,1-.063.086.288.288,0,0,1-.1.057.435.435,0,0,1-.137.021.331.331,0,0,1-.239-.077.29.29,0,0,1-.085-.2h.212a.137.137,0,0,0,.031.082.109.109,0,0,0,.086.031.094.094,0,0,0,.071-.026.088.088,0,0,0,.026-.063.092.092,0,0,0-.036-.074.434.434,0,0,0-.137-.062.439.439,0,0,1-.181-.1.22.22,0,0,1-.052-.156.238.238,0,0,1,.022-.1.221.221,0,0,1,.063-.079.306.306,0,0,1,.1-.051.392.392,0,0,1,.123-.018.3.3,0,0,1,.216.073.294.294,0,0,1,.09.182h-.2A.1.1,0,0,0,110.235,252.346Z" transform="translate(1346.576 5054.687)" fill="#fff"/>
    <path id="パス_25962" data-name="パス 25962" d="M117.363,252.191a.39.39,0,0,1,.119.073.368.368,0,0,1,.078.1.389.389,0,0,1,.04.107h-.235a.146.146,0,0,0-.057-.078.2.2,0,0,0-.256.04.274.274,0,0,0-.055.179.323.323,0,0,0,.014.1.244.244,0,0,0,.041.079.192.192,0,0,0,.067.053.2.2,0,0,0,.09.019.16.16,0,0,0,.109-.036.2.2,0,0,0,.057-.081h.238a.516.516,0,0,1-.051.123.379.379,0,0,1-.085.1.4.4,0,0,1-.119.068.444.444,0,0,1-.156.026.487.487,0,0,1-.175-.031.41.41,0,0,1-.137-.092.434.434,0,0,1-.1-.137.476.476,0,0,1-.036-.187.487.487,0,0,1,.03-.172.411.411,0,0,1,.23-.238.476.476,0,0,1,.187-.036A.428.428,0,0,1,117.363,252.191Z" transform="translate(1340.604 5054.685)" fill="#fff"/>
    <path id="パス_25963" data-name="パス 25963" d="M125.689,249.25v.528h.007a.258.258,0,0,1,.109-.1.323.323,0,0,1,.137-.03.342.342,0,0,1,.129.023.274.274,0,0,1,.1.071.334.334,0,0,1,.066.12.547.547,0,0,1,.023.17v.483h-.237v-.469a.208.208,0,0,0-.042-.137.146.146,0,0,0-.116-.048.168.168,0,0,0-.129.053.227.227,0,0,0-.051.16v.445h-.237v-1.264Z" transform="translate(1333.104 5057.203)" fill="#fff"/>
    <path id="パス_25964" data-name="パス 25964" d="M133.775,252.442a.427.427,0,0,1,.094-.137.432.432,0,0,1,.137-.093.5.5,0,0,1,.36,0,.423.423,0,0,1,.137.094.43.43,0,0,1,.092.137.468.468,0,0,1,.033.178.455.455,0,0,1-.033.175.442.442,0,0,1-.41.274.455.455,0,0,1-.179-.036.438.438,0,0,1-.137-.1.445.445,0,0,1-.094-.137.481.481,0,0,1,0-.357Zm.22.274a.219.219,0,0,0,.045.075.209.209,0,0,0,.067.049.194.194,0,0,0,.083.018.187.187,0,0,0,.153-.068.26.26,0,0,0,.056-.17.3.3,0,0,0-.014-.092.234.234,0,0,0-.04-.075.192.192,0,0,0-.066-.052.2.2,0,0,0-.089-.019.19.19,0,0,0-.156.067.261.261,0,0,0-.055.171.282.282,0,0,0,.016.1Z" transform="translate(1325.947 5054.675)" fill="#fff"/>
    <path id="パス_25965" data-name="パス 25965" d="M142.4,252.442a.427.427,0,0,1,.094-.137.432.432,0,0,1,.137-.093.5.5,0,0,1,.36,0,.423.423,0,0,1,.137.094.43.43,0,0,1,.092.137.47.47,0,0,1,.033.178.458.458,0,0,1-.033.175.442.442,0,0,1-.41.274.454.454,0,0,1-.179-.036.438.438,0,0,1-.137-.1.446.446,0,0,1-.094-.137.481.481,0,0,1,0-.357Zm.22.274a.221.221,0,0,0,.045.075.21.21,0,0,0,.067.049.2.2,0,0,0,.083.018.187.187,0,0,0,.153-.068.26.26,0,0,0,.056-.17.3.3,0,0,0-.014-.092.236.236,0,0,0-.041-.075.192.192,0,0,0-.066-.052.2.2,0,0,0-.089-.019.19.19,0,0,0-.156.067.261.261,0,0,0-.055.171.282.282,0,0,0,.015.1Z" transform="translate(1318.498 5054.675)" fill="#fff"/>
    <path id="パス_25966" data-name="パス 25966" d="M151.637,249.25v1.264H151.4V249.25Z" transform="translate(1310.703 5057.203)" fill="#fff"/>
    <path id="パス_25967" data-name="パス 25967" d="M161.123,250.082v.014a.6.6,0,0,1-.033.2.525.525,0,0,1-.088.16.259.259,0,0,0,.064.055.121.121,0,0,0,.059.016h.052v.187l-.04.008a.329.329,0,0,1-.052,0,.257.257,0,0,1-.123-.027.4.4,0,0,1-.105-.089.577.577,0,0,1-.06.041.59.59,0,0,1-.077.038.512.512,0,0,1-.092.029.547.547,0,0,1-.274-.018.347.347,0,0,1-.122-.075.293.293,0,0,1-.071-.109.375.375,0,0,1-.023-.137.323.323,0,0,1,.066-.205.576.576,0,0,1,.186-.148.921.921,0,0,1-.074-.137.358.358,0,0,1-.031-.149.29.29,0,0,1,.019-.1.252.252,0,0,1,.06-.092.3.3,0,0,1,.105-.066.472.472,0,0,1,.285,0,.312.312,0,0,1,.1.055.249.249,0,0,1,.093.2.274.274,0,0,1-.068.19.651.651,0,0,1-.2.146l.182.235a.367.367,0,0,0,.034-.089.474.474,0,0,0,.011-.111v-.016Zm-.478.43a.291.291,0,0,0,.081-.051l-.234-.3a.335.335,0,0,0-.1.1.2.2,0,0,0-.031.107.171.171,0,0,0,.012.064.157.157,0,0,0,.036.053.174.174,0,0,0,.055.037.18.18,0,0,0,.073.014A.263.263,0,0,0,160.645,250.511Zm-.12-.684a.4.4,0,0,0,.052.088.424.424,0,0,0,.12-.082.145.145,0,0,0,.041-.1.107.107,0,0,0-.029-.07.114.114,0,0,0-.09-.033.12.12,0,0,0-.051.01.106.106,0,0,0-.036.026.1.1,0,0,0-.021.034.112.112,0,0,0,0,.036.249.249,0,0,0,.018.1Z" transform="translate(1303.158 5057.031)" fill="#fff"/>
    <path id="パス_25968" data-name="パス 25968" d="M174.879,250.434l-.037.038v.435h-.252v-1.2h.252v.458l.435-.458h.315l-.5.519.562.684h-.32l-.41-.513Z" transform="translate(1290.684 5056.807)" fill="#fff"/>
    <path id="パス_25969" data-name="パス 25969" d="M184.359,249.4v.227h-.249V249.4Zm-.007.4v.841h-.237V249.8Z" transform="translate(1282.469 5057.074)" fill="#fff"/>
    <path id="パス_25970" data-name="パス 25970" d="M188.958,252.175v.105h.007a.258.258,0,0,1,.109-.1.327.327,0,0,1,.137-.03.3.3,0,0,1,.231.1.411.411,0,0,1,.089.289v.483h-.237v-.467a.212.212,0,0,0-.042-.137.145.145,0,0,0-.116-.048.167.167,0,0,0-.129.055.228.228,0,0,0-.051.16v.445h-.237v-.841Z" transform="translate(1278.488 5054.701)" fill="#fff"/>
    <path id="パス_25971" data-name="パス 25971" d="M197.734,250.547v-.092h-.007a.4.4,0,0,1-.109.083.341.341,0,0,1-.167.038.363.363,0,0,1-.252-.107.439.439,0,0,1-.093-.137.513.513,0,0,1-.037-.205.5.5,0,0,1,.033-.182.446.446,0,0,1,.088-.137.384.384,0,0,1,.127-.092.37.37,0,0,1,.152-.033.3.3,0,0,1,.155.036.333.333,0,0,1,.1.089h.007v-.52h.231v1.264Zm-.41-.33a.232.232,0,0,0,.041.078.208.208,0,0,0,.067.055.2.2,0,0,0,.094.021.186.186,0,0,0,.079-.018.2.2,0,0,0,.067-.051.256.256,0,0,0,.047-.077.264.264,0,0,0,.018-.1.311.311,0,0,0-.016-.1.233.233,0,0,0-.044-.079.2.2,0,0,0-.067-.051.188.188,0,0,0-.082-.018.2.2,0,0,0-.1.022.209.209,0,0,0-.068.057.242.242,0,0,0-.041.079.31.31,0,0,0,0,.179Z" transform="translate(1271.283 5057.169)" fill="#fff"/>
    <path id="パス_25972" data-name="パス 25972" d="M206.773,252.158a.4.4,0,0,1,.137.1.411.411,0,0,1,.082.137.507.507,0,0,1,.029.168v.03a.171.171,0,0,1,0,.033H206.4a.2.2,0,0,0,.018.082.242.242,0,0,0,.047.068.217.217,0,0,0,.068.048.207.207,0,0,0,.085.018.2.2,0,0,0,.1-.023.212.212,0,0,0,.07-.064h.23a.512.512,0,0,1-.055.1.368.368,0,0,1-.082.085.387.387,0,0,1-.115.057.485.485,0,0,1-.148.021.473.473,0,0,1-.176-.033.411.411,0,0,1-.137-.093.435.435,0,0,1-.094-.144.489.489,0,0,1-.034-.187.5.5,0,0,1,.029-.171.41.41,0,0,1,.085-.137.4.4,0,0,1,.137-.1.451.451,0,0,1,.183-.036A.442.442,0,0,1,206.773,252.158Zm-.264.144a.186.186,0,0,0-.06.04.2.2,0,0,0-.04.057.209.209,0,0,0-.018.067h.393a.211.211,0,0,0-.06-.126.182.182,0,0,0-.137-.053A.2.2,0,0,0,206.509,252.3Z" transform="translate(1263.428 5054.727)" fill="#fff"/>
    <path id="パス_25973" data-name="パス 25973" d="M215.38,252.416h-.063a.2.2,0,0,0-.157.063.266.266,0,0,0-.053.177v.41h-.237v-.841h.231v.13h0a.349.349,0,0,1,.1-.108.242.242,0,0,1,.148-.047.349.349,0,0,1,.077.007v.222Z" transform="translate(1255.918 5054.658)" fill="#fff"/>
    <path id="パス_25974" data-name="パス 25974" d="M221.722,253.407a.438.438,0,0,1-.342.122.443.443,0,0,1-.287-.089.38.38,0,0,1-.137-.248h.237a.19.19,0,0,0,.06.1.205.205,0,0,0,.137.041.2.2,0,0,0,.161-.064.285.285,0,0,0,.055-.187v-.107h0a.363.363,0,0,1-.107.086.335.335,0,0,1-.163.036.389.389,0,0,1-.155-.03.364.364,0,0,1-.126-.089.434.434,0,0,1-.085-.137.506.506,0,0,1-.031-.183.5.5,0,0,1,.03-.177.426.426,0,0,1,.085-.137.411.411,0,0,1,.129-.093.384.384,0,0,1,.163-.034.331.331,0,0,1,.089.011.313.313,0,0,1,.073.03.273.273,0,0,1,.055.041.328.328,0,0,1,.038.045h.008v-.1h.222v.821A.517.517,0,0,1,221.722,253.407Zm-.529-.67a.22.22,0,0,0,.038.075.2.2,0,0,0,.067.055.207.207,0,0,0,.1.021.2.2,0,0,0,.083-.018.209.209,0,0,0,.068-.048.224.224,0,0,0,.045-.074.264.264,0,0,0,.016-.1.274.274,0,0,0-.016-.1.242.242,0,0,0-.045-.075.188.188,0,0,0-.067-.048.212.212,0,0,0-.083-.016.2.2,0,0,0-.16.074.236.236,0,0,0-.041.077.273.273,0,0,0-.014.088A.308.308,0,0,0,221.193,252.737Z" transform="translate(1250.678 5054.64)" fill="#fff"/>
    <path id="パス_25975" data-name="パス 25975" d="M230.6,253.068v-.105h-.007a.366.366,0,0,1-.105.094.32.32,0,0,1-.168.04.367.367,0,0,1-.129-.026.36.36,0,0,1-.123-.079.429.429,0,0,1-.093-.137.513.513,0,0,1-.037-.205.494.494,0,0,1,.033-.183.429.429,0,0,1,.088-.137.379.379,0,0,1,.127-.089.384.384,0,0,1,.153-.03.31.31,0,0,1,.16.041.274.274,0,0,1,.055.042.4.4,0,0,1,.041.048h.007v-.109h.228v.841Zm-.41-.33a.24.24,0,0,0,.04.078.188.188,0,0,0,.067.055.214.214,0,0,0,.1.021.186.186,0,0,0,.079-.018.211.211,0,0,0,.067-.049.245.245,0,0,0,.047-.077.264.264,0,0,0,.018-.1.3.3,0,0,0-.016-.1.223.223,0,0,0-.044-.077.2.2,0,0,0-.149-.067.2.2,0,0,0-.164.075.235.235,0,0,0-.041.077.3.3,0,0,0-.014.089.31.31,0,0,0,.015.09Z" transform="translate(1242.91 5054.649)" fill="#fff"/>
    <path id="パス_25976" data-name="パス 25976" d="M239.86,252.416H239.8a.2.2,0,0,0-.157.063.266.266,0,0,0-.053.177v.41h-.237v-.841h.226v.13h0a.349.349,0,0,1,.1-.108.241.241,0,0,1,.148-.047.349.349,0,0,1,.077.007v.222Z" transform="translate(1234.787 5054.658)" fill="#fff"/>
    <path id="パス_25977" data-name="パス 25977" d="M245.244,250.614v-.274h.239v.274h.2v.2h-.2v.327a.146.146,0,0,0,.025.1.108.108,0,0,0,.081.026h.052a.293.293,0,0,0,.051-.011v.193a.578.578,0,0,1-.082.016.614.614,0,0,1-.082,0,.363.363,0,0,1-.137-.021.212.212,0,0,1-.088-.06.234.234,0,0,1-.048-.1.518.518,0,0,1-.014-.125v-.349h-.1v-.2Z" transform="translate(1229.789 5056.263)" fill="#fff"/>
    <path id="パス_25978" data-name="パス 25978" d="M251.793,252.158a.4.4,0,0,1,.137.1.411.411,0,0,1,.082.137.509.509,0,0,1,.029.168v.03a.171.171,0,0,1,0,.033h-.625a.2.2,0,0,0,.018.082.239.239,0,0,0,.047.068.219.219,0,0,0,.068.048.207.207,0,0,0,.085.018.2.2,0,0,0,.1-.023.213.213,0,0,0,.07-.064h.23a.508.508,0,0,1-.055.1.367.367,0,0,1-.082.085.387.387,0,0,1-.115.057.485.485,0,0,1-.148.021.473.473,0,0,1-.176-.033.411.411,0,0,1-.137-.093.435.435,0,0,1-.094-.144.487.487,0,0,1-.034-.187.5.5,0,0,1,.029-.171.41.41,0,0,1,.085-.137.4.4,0,0,1,.137-.1.452.452,0,0,1,.183-.036A.442.442,0,0,1,251.793,252.158Zm-.264.144a.187.187,0,0,0-.06.04.2.2,0,0,0-.04.057.212.212,0,0,0-.018.067h.393a.211.211,0,0,0-.06-.126.182.182,0,0,0-.137-.053.2.2,0,0,0-.079.015Z" transform="translate(1224.568 5054.727)" fill="#fff"/>
    <path id="パス_25979" data-name="パス 25979" d="M260.088,252.175v.105h.007a.259.259,0,0,1,.109-.1.327.327,0,0,1,.137-.03.3.3,0,0,1,.231.1.41.41,0,0,1,.089.289v.483h-.237v-.467a.212.212,0,0,0-.042-.137.145.145,0,0,0-.116-.048.167.167,0,0,0-.129.055.229.229,0,0,0-.051.16v.445h-.237v-.841Z" transform="translate(1217.092 5054.701)" fill="#fff"/>
    <path id="パス_25980" data-name="パス 25980" d="M135.078,129.662a.343.343,0,0,0-.123-.287.274.274,0,0,0-.253-.1h-.157a1.265,1.265,0,0,0-.172,0,.882.882,0,0,0-.167.021c-.023,0-.049.011-.093.016a.646.646,0,0,0-.137.034.241.241,0,0,1-.09.016.068.068,0,0,1-.049-.014.38.38,0,0,0-.181-.055.565.565,0,0,0-.16.008.431.431,0,0,1-.093,0,.536.536,0,0,1-.1-.011.708.708,0,0,0-.155-.014.467.467,0,0,0-.176.031.231.231,0,0,1-.078.016.565.565,0,0,0-.16.031.365.365,0,0,1-.082.019c-.011.007-.031-.008-.051-.018a.249.249,0,0,0-.308.04.252.252,0,0,0-.031.3.152.152,0,0,1,.018.055,1.156,1.156,0,0,1-.01.137l-.008.077a.734.734,0,0,0,0,.149.34.34,0,0,1,0,.1.647.647,0,0,0-.008.149.178.178,0,0,1-.014.09c0,.018,0,.018-.033.033a.383.383,0,0,0-.148.137.472.472,0,0,0-.066.175.215.215,0,0,1-.027.079.431.431,0,0,1-.053.079.645.645,0,0,0-.088.137.5.5,0,0,0-.051.164.209.209,0,0,1-.025.079.359.359,0,0,1-.053.082.645.645,0,0,0-.086.137.25.25,0,0,1-.056.081.777.777,0,0,0-.088.1.285.285,0,0,1-.068.075.856.856,0,0,0-.093.086c-.036.037-.056.062-.074.081a.811.811,0,0,1-.092.092.36.36,0,0,0-.112.175c-.01.029-.01.029-.025.041a.622.622,0,0,1-.079.051.635.635,0,0,0-.137.1.21.21,0,0,1-.07.042.431.431,0,0,0-.161.114q-.036.038-.068.079a.2.2,0,0,1-.082.066.626.626,0,0,0-.116.085.116.116,0,0,1-.071.037.093.093,0,0,1-.059,0,.326.326,0,0,0-.235.011,1.151,1.151,0,0,0-.228.116l-.027.016a.371.371,0,0,0-.137.153l-.027.029a.109.109,0,0,1-.074,0,.535.535,0,0,0-.161,0,.449.449,0,0,0-.172.057.117.117,0,0,1-.068.021.079.079,0,0,1-.059-.016.411.411,0,0,0-.185-.056.43.43,0,0,1-.093-.015.631.631,0,0,0-.176-.022.358.358,0,0,0-.207.064.11.11,0,0,1-.06.023l-.075.008a.44.44,0,0,1-.155,0,.07.07,0,0,1-.053-.025.451.451,0,0,0-.149-.092.639.639,0,0,1-.094-.044.762.762,0,0,0-.149-.066.611.611,0,0,0-.166-.033.393.393,0,0,1-.093-.016l-.06-.016a.954.954,0,0,1-.161-.057.5.5,0,0,0-.16-.04.137.137,0,0,1-.073-.023l-.116-.064-.107-.059-.22-.127a.092.092,0,0,1-.044-.045.461.461,0,0,0-.15-.153,1.624,1.624,0,0,1-.168-.13c-.051-.042-.073-.063-.1-.085l-.092-.082a.6.6,0,0,1-.075-.078.85.85,0,0,0-.1-.108.41.41,0,0,0-.16-.09c-.026-.008-.026-.008-.04-.027a.067.067,0,0,1-.018-.053.431.431,0,0,0-.037-.174.7.7,0,0,0-.078-.137.445.445,0,0,1-.049-.089.58.58,0,0,1-.034-.1.819.819,0,0,0-.048-.137.453.453,0,0,0-.1-.153.185.185,0,0,1-.047-.064.738.738,0,0,1-.04-.1.851.851,0,0,0-.063-.146c-.026-.048-.044-.077-.059-.1a.58.58,0,0,1-.056-.111.638.638,0,0,0-.074-.137.266.266,0,0,1-.045-.1,1.1,1.1,0,0,1-.044-.219.708.708,0,0,1,0-.149v-.073a.233.233,0,0,1,.03-.045.239.239,0,0,0,.019-.322.294.294,0,0,0-.283-.1.263.263,0,0,1-.074,0,.45.45,0,0,0-.182,0,.283.283,0,0,1-.079.007h-.07a1.5,1.5,0,0,0-.19,0,.327.327,0,0,1-.1,0,.752.752,0,0,0-.137-.015.347.347,0,0,0-.2.057c-.025.014-.025.014-.04.014s-.01,0-.033-.022a.3.3,0,0,0-.222-.094h0a.3.3,0,0,0-.222.093c-.022.021-.022.021-.033.021a.37.37,0,0,1-.094,0,.623.623,0,0,0-.153,0,.128.128,0,0,1-.062-.01.4.4,0,0,0-.182-.026h-.056a.3.3,0,0,0-.252.118.285.285,0,0,0-.094.26v.055a.959.959,0,0,0,.015.155c0,.022.008.048.012.09a.965.965,0,0,1,0,.1.863.863,0,0,0,.016.163.6.6,0,0,0,.047.15.262.262,0,0,1,.025.085c.008.053.014.085.018.112s.011.063.019.137a.479.479,0,0,0,.051.176.35.35,0,0,1,.029.078.144.144,0,0,1,0,.068.371.371,0,0,0,.025.205.8.8,0,0,1,.042.127.437.437,0,0,0,.025.094.467.467,0,0,0,.075.156.119.119,0,0,1,.027.064.769.769,0,0,0,.049.186l.027.075a.86.86,0,0,0,.081.186l.031.057a.127.127,0,0,1,.018.066.4.4,0,0,0,.052.183.75.75,0,0,0,.082.126.537.537,0,0,1,.056.085.226.226,0,0,1,.027.077.468.468,0,0,0,.068.17.461.461,0,0,0,.124.137.219.219,0,0,1,.057.057.59.59,0,0,0,.109.119.323.323,0,0,1,.063.067.429.429,0,0,1,.049.085.684.684,0,0,0,.078.137.958.958,0,0,0,.126.152l.051.052a.85.85,0,0,1,.06.068.731.731,0,0,0,.137.126.45.45,0,0,0,.156.082.1.1,0,0,1,.057.034c.011.011.011.011.014.04a.36.36,0,0,0,.075.2,1.085,1.085,0,0,0,.193.208.657.657,0,0,0,.161.112c.019.01.042.022.075.042a1.161,1.161,0,0,0,.123.066.889.889,0,0,1,.1.053.573.573,0,0,1,.085.06.841.841,0,0,0,.118.085.378.378,0,0,0,.187.059.076.076,0,0,1,.052.016c.019.014.021.016.033.044a.37.37,0,0,0,.122.16.5.5,0,0,0,.164.089.412.412,0,0,1,.081.036.478.478,0,0,0,.172.064.369.369,0,0,1,.082.023.116.116,0,0,1,.053.038.394.394,0,0,0,.16.109.73.73,0,0,0,.148.042.545.545,0,0,1,.1.027c.041.015.067.026.089.036a.988.988,0,0,0,.159.055.433.433,0,0,0,.189.014.2.2,0,0,1,.077,0,.2.2,0,0,1,.078.029.537.537,0,0,0,.149.062l.089.022a1.467,1.467,0,0,1,.145.041.151.151,0,0,1,.062.036.38.38,0,0,0,.186.09.4.4,0,0,0,.2,0,.193.193,0,0,1,.075-.008.273.273,0,0,1,.089.019.617.617,0,0,0,.152.036h.062a.448.448,0,0,0,.116-.015.155.155,0,0,1,.074,0,.862.862,0,0,0,.194.012h.077a.8.8,0,0,0,.172-.015c.022,0,.048-.01.092-.014l.1-.008a1.067,1.067,0,0,0,.166-.022.685.685,0,0,0,.152-.046.547.547,0,0,1,.093-.03.151.151,0,0,1,.075,0,.482.482,0,0,0,.167,0,.41.41,0,0,0,.175-.067.089.089,0,0,1,.056-.021.1.1,0,0,1,.06.012.353.353,0,0,0,.208.029,2.074,2.074,0,0,0,.265-.027.363.363,0,0,0,.185-.1.144.144,0,0,1,.056-.037.3.3,0,0,1,.081-.021.453.453,0,0,0,.181-.062.838.838,0,0,0,.116-.077.411.411,0,0,1,.089-.055,1.091,1.091,0,0,1,.124-.053l.1-.037c.049-.021.077-.029.1-.038s.067-.023.137-.052a.325.325,0,0,1,.089-.026.609.609,0,0,0,.157-.049.362.362,0,0,0,.159-.137.1.1,0,0,1,.044-.041.144.144,0,0,1,.067-.019.394.394,0,0,0,.187-.062.462.462,0,0,0,.137-.123.252.252,0,0,1,.059-.059,1.744,1.744,0,0,0,.167-.137l.036-.031a.436.436,0,0,1,.079-.057.719.719,0,0,0,.125-.09.929.929,0,0,0,.1-.1.6.6,0,0,1,.074-.075,1.368,1.368,0,0,0,.189-.189.2.2,0,0,1,.059-.048.411.411,0,0,0,.146-.137.523.523,0,0,0,.071-.151.215.215,0,0,1,.037-.075.573.573,0,0,0,.075-.137.26.26,0,0,1,.044-.077c.051-.064.067-.089.092-.125l.056-.079c.048-.066.064-.092.086-.127l.055-.082c.01-.015.01-.015.037-.026a.358.358,0,0,0,.238-.328c0-.03,0-.03.012-.042a.091.091,0,0,1,.045-.026.316.316,0,0,0,.186-.137.386.386,0,0,0,.063-.2.178.178,0,0,1,.015-.071.319.319,0,0,1,.045-.079.576.576,0,0,0,.081-.137.4.4,0,0,0,.031-.19.123.123,0,0,1,.01-.067.835.835,0,0,1,.044-.1.932.932,0,0,0,.06-.137.092.092,0,0,1,.034-.048.368.368,0,0,0,.114-.171c.012-.037.022-.062.03-.083a.957.957,0,0,0,.051-.178.353.353,0,0,0-.019-.216.108.108,0,0,1-.011-.062,1.039,1.039,0,0,0,0-.137.567.567,0,0,1,.007-.111.325.325,0,0,1,.026-.1.721.721,0,0,0,.044-.137,1.067,1.067,0,0,0,.027-.2v-.07a.165.165,0,0,1,.021-.071.382.382,0,0,0,.044-.205Zm-.7,1.821a1.081,1.081,0,0,0-.056.125.393.393,0,0,0-.029.124h-.01l-.124.066c0-.011-.011-.022-.018-.034a.145.145,0,0,0-.088-.07.148.148,0,0,0-.075,0c.167-.1.305-.19.419-.267A.142.142,0,0,1,134.382,131.483Zm.361-1.625a.428.428,0,0,0-.018.093v.074a.858.858,0,0,1-.022.155.437.437,0,0,1-.029.09.369.369,0,0,0-.127.015.146.146,0,0,0-.2-.057l-.105.062-.055.031-.39.226.182-.125a5.433,5.433,0,0,0,.766-.562Zm-2.2.4a.624.624,0,0,0,.007-.068.145.145,0,0,0,.067.045h.01l-.09.085A.334.334,0,0,1,132.542,130.261Zm-.487,1.044a.211.211,0,0,1,.025-.079.354.354,0,0,1,.053-.083.78.78,0,0,0,.07-.1h0a.137.137,0,0,0,.027.083.146.146,0,0,0,.092.071h.008l-.308.216a.585.585,0,0,0,.033-.1Zm2.567-1.742a.234.234,0,0,0,.1-.01.2.2,0,0,1,.023.022l.04.044a.311.311,0,0,1,0,.052v.04a.1.1,0,0,1-.015.066v.015a.174.174,0,0,0-.026-.06.176.176,0,0,0-.1-.077.155.155,0,0,0-.089,0,.183.183,0,0,0-.029-.071.137.137,0,0,0-.029-.033h.022Zm-.932.026a.371.371,0,0,0,.2.051.519.519,0,0,0,.174-.033.387.387,0,0,1,.085-.021.4.4,0,0,0,.1-.018l-1.186.662.5-.476a.146.146,0,0,0,.041-.137.137.137,0,0,0-.023-.042h.049A.1.1,0,0,1,133.689,129.59Zm-.863.037a.265.265,0,0,1,.086-.016.519.519,0,0,0,.159-.034.178.178,0,0,1,.078-.014.464.464,0,0,1,.1.01h.036l-.293.174-.224.137c-.015-.094-.027-.166-.037-.223a.761.761,0,0,0,.094-.033Zm-4.378,3.845a.078.078,0,0,1,.055-.019.359.359,0,0,1,.1.012.692.692,0,0,0,.148.025.127.127,0,0,1,.064.021.386.386,0,0,0,.077.031c-.457.274-.913.539-1.307.765.632-.535.717-.684.7-.772a.41.41,0,0,0,.164-.063Zm-.859.115.145-.085a.145.145,0,0,0,.042-.037.324.324,0,0,0,.116.064l-.4.242c.085-.089.1-.138.093-.185Zm-.891-.49a.423.423,0,0,0,.187.06.228.228,0,0,1,.077.019,1.168,1.168,0,0,0,.2.07l.057.016a.652.652,0,0,0,.152.027.323.323,0,0,1,.094.019h.014c-.5.274-1.123.635-1.616.908.256-.234.562-.506.856-.759a.145.145,0,0,0-.174-.233c-.365.235-.758.477-1.095.672l.982-.915a.137.137,0,0,0,.015-.025l.022.012.116.064Zm-.848-.614a2.02,2.02,0,0,0,.212.161.137.137,0,0,1,.045.051.388.388,0,0,0,.079.1l-.137.077a.146.146,0,0,0,0-.137.171.171,0,0,0-.1-.077.313.313,0,0,0-.168.027.244.244,0,0,0-.027-.06.192.192,0,0,0-.105-.081.382.382,0,0,0-.249.056c.137-.115.224-.193.285-.252l.053.048C125.769,132.419,125.794,132.442,125.85,132.482Zm-.754-.893a.442.442,0,0,1,.049.09.149.149,0,0,1,.014.068.345.345,0,0,0,.073.213.332.332,0,0,0,.185.137.15.15,0,0,1,.045.022c-.078.037-.178.088-.309.157a.146.146,0,0,0,.03-.178.164.164,0,0,0-.1-.075.183.183,0,0,0-.107,0,.137.137,0,0,0-.022-.066.163.163,0,0,0-.127-.068c.239-.2.246-.264.194-.357a.183.183,0,0,0-.1-.079c-.086-.023-.207.018-.521.2l.513-.49a.181.181,0,0,1,.023.041.58.58,0,0,1,.034.1.819.819,0,0,0,.048.137.7.7,0,0,0,.078.153Zm-.4-.821a.556.556,0,0,1,.041.093,2.113,2.113,0,0,0-.248.127.145.145,0,0,0-.185-.021l-.168.109.337-.274a.146.146,0,0,0,.037-.185.186.186,0,0,0-.075-.068.122.122,0,0,0,0-.159c-.053-.094-.07-.122-.623.178.187-.152.39-.313.594-.473a1.708,1.708,0,0,0,.042.172.5.5,0,0,0,.079.171.342.342,0,0,1,.044.079.821.821,0,0,0,.079.159.4.4,0,0,0,.044.1Zm-.372-1.207a.511.511,0,0,0,.112,0,.318.318,0,0,0-.052.155c-.06.025-.145.064-.274.129l.078-.062a.145.145,0,0,0,.033-.2.137.137,0,0,0-.019-.021l.04-.007a.178.178,0,0,1,.079.01Zm-.721-.007a.489.489,0,0,1,.09.01.592.592,0,0,0,.166.011h.123l-.9.506a1.709,1.709,0,0,0,.376-.458.39.39,0,0,0,.1-.044c.018-.015.016-.019.04-.016Zm-.72.068a.323.323,0,0,0,.2-.1l.025-.016.012.008c-.167.1-.339.209-.493.3l.137-.175v-.016a.619.619,0,0,0,.114.007Zm-.516.77a.568.568,0,0,0-.025-.089c.052-.023.116-.055.2-.1-.075.092-.133.146-.181.2Zm-.109-.675v-.012l.042-.026a.155.155,0,0,0,.012.047l.007.014-.053.07a.681.681,0,0,1-.005-.083Zm.319,1.669c-.011-.038-.016-.063-.022-.085a1.011,1.011,0,0,0-.055-.167.086.086,0,0,1,0-.06.434.434,0,0,0-.008-.176.632.632,0,0,0-.049-.137h0l.3-.166c-.189.183-.166.226-.127.293a.145.145,0,0,0,.09.07.149.149,0,0,0,.114-.016l.356-.215c-.554.482-.516.547-.469.633a.148.148,0,0,0,.044.048.891.891,0,0,0-.1.088.558.558,0,0,0-.03-.048A.179.179,0,0,1,122.576,131.387Zm.163.43-.018-.049-.011-.031h.01a.137.137,0,0,0,.115-.019l.137-.089Zm.231.569a.49.49,0,0,1-.056-.085.126.126,0,0,1-.018-.066.478.478,0,0,0-.021-.1c.041-.015.092-.036.156-.066a.169.169,0,0,0,.07.04c.1.025.212-.03.895-.467l-.759.725a.145.145,0,0,0-.027.176.151.151,0,0,0,.093.071.1.1,0,0,0,.048,0c-.083.062-.146.111-.2.152a.2.2,0,0,1-.021-.027.179.179,0,0,1-.03-.075.513.513,0,0,0-.056-.156.778.778,0,0,0-.079-.116Zm1.457,1.847a.843.843,0,0,1-.156-.17c-.012-.015-.012-.021-.016-.049a.323.323,0,0,0-.1-.212.388.388,0,0,0-.175-.107.163.163,0,0,1-.064-.033.449.449,0,0,1-.086-.083c-.018-.021-.038-.047-.074-.083l-.055-.055a.757.757,0,0,1-.1-.116.427.427,0,0,1-.049-.085l-.019-.038c.042-.022.09-.049.152-.086a.146.146,0,0,0,.2.2l.646-.363c-.443.387-.476.462-.41.576a.152.152,0,0,0,.093.071h.011c-.04.049-.026.079,0,.137a.146.146,0,0,0,.092.071.159.159,0,0,0,.059,0,.145.145,0,0,0,0,.148.155.155,0,0,0,.092.071c.067.019.1.027.821-.378l-.716.668h0l-.042-.023a.372.372,0,0,1-.108-.052Zm.482.285a4.717,4.717,0,0,0,.43-.216,2.967,2.967,0,0,0-.293.319.621.621,0,0,1-.082-.06Zm1.3.746a.482.482,0,0,1-.1-.029.115.115,0,0,1-.053-.037.4.4,0,0,0-.156-.109.626.626,0,0,0-.137-.04.2.2,0,0,1-.081-.03.669.669,0,0,0-.137-.059.224.224,0,0,1-.081-.044.09.09,0,0,1-.034-.048.475.475,0,0,0-.034-.066l.137-.068a.146.146,0,0,0,.155,0l.315-.2c-.283.205-.274.223-.218.324a.167.167,0,0,0,.1.075c.051.014.145.038,1.131-.534-.215.175-.446.36-.67.534a.146.146,0,0,0-.038.186.166.166,0,0,0,.1.075h0a.418.418,0,0,0-.075.105.838.838,0,0,0-.122-.029Zm.936.249-.092-.021a.248.248,0,0,1-.077-.031.527.527,0,0,0-.066-.033l.614-.341.179-.09c-.376.274-.443.421-.372.547a.144.144,0,0,0,.063.057.438.438,0,0,0-.09-.041,1.677,1.677,0,0,0-.163-.045Zm.274.094.015.008a.151.151,0,0,0,.056,0,.262.262,0,0,0,.022.045l.007.008a.111.111,0,0,1-.042-.025.565.565,0,0,0-.067-.034Zm1.215.092a.557.557,0,0,1-.12.011h-.092a.548.548,0,0,1-.137-.01.41.41,0,0,0-.187.008.171.171,0,0,1-.075,0,.338.338,0,0,1-.088-.021.621.621,0,0,0-.127-.03l3.8-2.106c-.958.629-2.011,1.319-2.881,1.887a.145.145,0,0,0-.042.2.137.137,0,0,0,.037.038Zm.851-.123a.2.2,0,0,1-.078,0,.426.426,0,0,0-.19,0,.728.728,0,0,0-.137.045.454.454,0,0,1-.1.029l-.052.008c.439-.274.888-.561,1.327-.831-.684.487-.735.632-.706.714h0a.12.12,0,0,1-.078.037Zm3.845-2.316a.547.547,0,0,0-.083.146.305.305,0,0,1-.042.077.486.486,0,0,0-.078.155.129.129,0,0,0-.008-.026.146.146,0,0,0-.2-.055l-1.118.62c.482-.3,1.012-.623,1.542-.939Zm.789-.958-.033.021a.357.357,0,0,0-.174.115.333.333,0,0,0-.081.213v.015a.194.194,0,0,0-.038-.018.958.958,0,0,0-.436.109c.36-.244.612-.419.787-.547v.029a.1.1,0,0,1-.034.068Z" transform="translate(1336.094 5160.803)" fill="#fff"/>
    <path id="パス_25981" data-name="パス 25981" d="M135.451,36.92a.288.288,0,0,1,0-.088.485.485,0,0,0,0-.185.2.2,0,0,1,0-.081.438.438,0,0,0,0-.2.367.367,0,0,0-.1-.192.105.105,0,0,1-.033-.055c-.018-.067-.025-.1-.031-.137s-.012-.062-.026-.119a.627.627,0,0,0-.056-.152.3.3,0,0,1-.033-.092.1.1,0,0,1,0-.063.369.369,0,0,0,0-.213.757.757,0,0,1-.021-.105.886.886,0,0,0-.034-.159.516.516,0,0,0-.088-.178.458.458,0,0,1-.049-.079c-.016-.033-.027-.057-.036-.078a.832.832,0,0,0-.1-.176.375.375,0,0,0-.166-.137c-.03-.014-.031-.014-.042-.034a.145.145,0,0,1-.023-.075.484.484,0,0,0-.045-.171.383.383,0,0,1-.03-.09.547.547,0,0,0-.064-.168.456.456,0,0,0-.122-.148.241.241,0,0,1-.057-.063.1.1,0,0,1-.016-.059.356.356,0,0,0-.073-.208.386.386,0,0,0-.164-.137.125.125,0,0,1-.056-.041,1.181,1.181,0,0,0-.134-.146l-.037-.034a.385.385,0,0,1-.06-.07.5.5,0,0,0-.137-.137c-.1-.071-.1-.074-.205-.153a.733.733,0,0,0-.126-.081.359.359,0,0,1-.085-.057.8.8,0,0,1-.074-.071A.809.809,0,0,0,133,32.38a.578.578,0,0,0-.152-.086.379.379,0,0,1-.083-.044.15.15,0,0,1-.055-.055.493.493,0,0,0-.116-.127.547.547,0,0,0-.148-.083.193.193,0,0,1-.074-.047.683.683,0,0,0-.149-.109.819.819,0,0,1-.082-.051.105.105,0,0,1-.04-.049.342.342,0,0,0-.161-.163l-.086-.047a1.553,1.553,0,0,0-.16-.077.707.707,0,0,0-.166-.051.65.65,0,0,1-.1-.027.556.556,0,0,1-.093-.041.676.676,0,0,0-.166-.064,1.223,1.223,0,0,0-.175-.034l-.1-.015a.337.337,0,0,0-.228.04c-.027.014-.026.014-.041.011a.086.086,0,0,1-.052-.031.39.39,0,0,0-.172-.107.981.981,0,0,0-.171-.041.479.479,0,0,1-.1-.019.924.924,0,0,1-.1-.027.8.8,0,0,0-.17-.037.973.973,0,0,0-.176-.007h-.1a.762.762,0,0,0-.175.011.887.887,0,0,1-.1.011.4.4,0,0,1-.1,0,.772.772,0,0,0-.157-.022.386.386,0,0,0-.2.057.093.093,0,0,1-.059.019.137.137,0,0,1-.064-.016.382.382,0,0,0-.2-.041.4.4,0,0,0-.193.057.137.137,0,0,1-.068.023.074.074,0,0,1-.053-.014.356.356,0,0,0-.218-.044.4.4,0,0,0-.19.071.119.119,0,0,1-.064.026,1,1,0,0,0-.212.044l-.06.018-.088.022a.771.771,0,0,0-.181.063.994.994,0,0,1-.137.055l-.1.033a.363.363,0,0,1-.1.023.821.821,0,0,0-.137.025.664.664,0,0,0-.168.064.65.65,0,0,1-.09.041l-.03.011a1.6,1.6,0,0,0-.224.1.5.5,0,0,0-.153.109.357.357,0,0,1-.07.057.928.928,0,0,1-.085.049.732.732,0,0,0-.148.1l-.074.062a1.158,1.158,0,0,1-.125.094.1.1,0,0,1-.063.021.431.431,0,0,0-.181.055.554.554,0,0,0-.153.119.581.581,0,0,1-.068.064.821.821,0,0,0-.149.141l-.055.063c-.045.049-.067.071-.09.094l-.09.092a.442.442,0,0,0-.1.159.149.149,0,0,1-.04.064.321.321,0,0,1-.075.062.626.626,0,0,0-.126.1l-.066.066c-.036.036-.055.055-.118.115a.674.674,0,0,0-.109.13.531.531,0,0,1-.062.078l-.059.063c-.038.041-.057.06-.12.137a.337.337,0,0,1-.064.062.5.5,0,0,0-.126.137A.949.949,0,0,1,123.6,34a.772.772,0,0,0-.094.156.521.521,0,0,0-.056.164.2.2,0,0,1-.026.082,1.144,1.144,0,0,1-.066.111c-.018.026-.037.055-.067.108a.725.725,0,0,1-.053.079.652.652,0,0,0-.089.159.462.462,0,0,0-.041.189.29.29,0,0,1-.012.085,1.153,1.153,0,0,0-.029.137.548.548,0,0,1-.029.115.109.109,0,0,1-.04.057.43.43,0,0,0-.111.156l-.034.077a1.747,1.747,0,0,0-.068.175.557.557,0,0,0-.034.176.367.367,0,0,1-.015.093.219.219,0,0,1-.034.073.41.41,0,0,0-.071.2.421.421,0,0,1-.014.092.821.821,0,0,0-.014.2.384.384,0,0,0,.059.2.094.094,0,0,1,.019.062.17.17,0,0,1-.015.079.472.472,0,0,0-.034.178,1,1,0,0,1-.008.137c0,.029-.007.062-.011.118a.82.82,0,0,1-.016.125c0,.03-.014.064-.021.126a.428.428,0,0,0,.019.211.324.324,0,0,1,.018.085.525.525,0,0,0,.047.194.722.722,0,0,1,.03.083.876.876,0,0,0,.052.137.449.449,0,0,1,.036.107.092.092,0,0,1-.01.044.347.347,0,0,0-.037.218.889.889,0,0,1,.01.1.748.748,0,0,0,.027.178.6.6,0,0,0,.071.17.485.485,0,0,1,.042.086.469.469,0,0,0,.1.159.186.186,0,0,1,.042.068.239.239,0,0,1,.021.078.51.51,0,0,0,.038.172l.041.107c.014.036.025.067.053.137a.508.508,0,0,0,.093.153.235.235,0,0,1,.045.073.65.65,0,0,1,.033.1.785.785,0,0,0,.07.175,2.413,2.413,0,0,0,.119.22.261.261,0,0,1,.031.079.46.46,0,0,0,.081.175.367.367,0,0,0,.17.137.116.116,0,0,1,.055.038.168.168,0,0,1,.038.068A.456.456,0,0,0,124,41.4l.088.1.083.094a.41.41,0,0,0,.159.116.137.137,0,0,1,.057.041.212.212,0,0,1,.044.07.473.473,0,0,0,.1.153.427.427,0,0,0,.155.109.137.137,0,0,1,.06.042c.044.048.068.073.092.1s.045.045.089.093a.137.137,0,0,1,.034.06.357.357,0,0,0,.127.181l.053.042a.932.932,0,0,0,.182.123.547.547,0,0,0,.16.06.222.222,0,0,1,.082.033.274.274,0,0,1,.074.06.613.613,0,0,0,.124.1.531.531,0,0,0,.163.074.323.323,0,0,1,.085.036.274.274,0,0,1,.07.053.5.5,0,0,0,.149.107.353.353,0,0,1,.079.051.568.568,0,0,0,.151.092.374.374,0,0,0,.209.029.108.108,0,0,1,.066,0c.081.03.112.04.156.052l.1.03a.125.125,0,0,1,.059.037.391.391,0,0,0,.179.1.386.386,0,0,0,.205,0,.111.111,0,0,1,.067,0,.708.708,0,0,1,.1.031.811.811,0,0,0,.152.045c.137.029.137,0,.264.027.082.014.115.016.156.022l.105.012a.41.41,0,0,1,.1.023.658.658,0,0,0,.161.036h.052c.082.008.1.011.211.021a.573.573,0,0,0,.171-.008.331.331,0,0,1,.094,0h.265a.445.445,0,0,1,.092.011.565.565,0,0,0,.182.01.273.273,0,0,1,.085,0,.479.479,0,0,0,.092.01.49.49,0,0,0,.1-.012.452.452,0,0,0,.171-.07.16.16,0,0,1,.073-.029c.126-.022.13,0,.257-.021a.612.612,0,0,0,.1-.012.972.972,0,0,0,.172-.029.783.783,0,0,0,.164-.055.879.879,0,0,1,.094-.037,1.273,1.273,0,0,0,.127-.049.907.907,0,0,1,.114-.042c.07-.022.1-.029.137-.038l.114-.03a.587.587,0,0,1,.09-.019.547.547,0,0,0,.186-.057.942.942,0,0,0,.2-.116l.049-.036a.618.618,0,0,1,.111-.067,1.378,1.378,0,0,0,.213-.129.439.439,0,0,1,.1-.057.274.274,0,0,1,.081-.023.423.423,0,0,0,.19-.059.494.494,0,0,0,.144-.137.427.427,0,0,1,.06-.068.286.286,0,0,1,.079-.056.651.651,0,0,0,.13-.085.419.419,0,0,0,.119-.149.105.105,0,0,1,.042-.052.146.146,0,0,1,.067-.029.383.383,0,0,0,.186-.093.372.372,0,0,0,.119-.178.129.129,0,0,1,.034-.059.332.332,0,0,1,.077-.063.686.686,0,0,0,.125-.1l.083-.083c.026-.027.047-.049.1-.1a.137.137,0,0,1,.062-.033.342.342,0,0,0,.194-.137.312.312,0,0,0,.056-.25v-.057a.9.9,0,0,1,.066-.122c.015-.025.033-.053.06-.1a.159.159,0,0,1,.052-.062.547.547,0,0,0,.19-.29.235.235,0,0,1,.034-.079.127.127,0,0,1,.051-.049.4.4,0,0,0,.137-.144.423.423,0,0,0,.066-.194.246.246,0,0,1,.021-.081.439.439,0,0,0,.04-.193.274.274,0,0,1,.011-.083.652.652,0,0,1,.044-.12c.012-.029.027-.06.048-.115a.137.137,0,0,1,.042-.064.471.471,0,0,0,.105-.145.61.61,0,0,1,.046-.081.533.533,0,0,0,.083-.189.41.41,0,0,0,0-.216.273.273,0,0,1-.01-.083.512.512,0,0,1,.015-.107.821.821,0,0,0,.022-.155.4.4,0,0,0-.037-.2.107.107,0,0,1-.014-.064.171.171,0,0,1,.021-.077.461.461,0,0,0,.048-.177v-.137a1.009,1.009,0,0,1,0-.12.521.521,0,0,0-.008-.178.274.274,0,0,1,0-.089q0-.069.014-.137c0-.027.008-.06.014-.112a.5.5,0,0,0-.01-.192A.515.515,0,0,1,135.451,36.92Zm-3.4,3.444-.6.35c2.413-1.479,3.333-2.074,3.664-2.352a.125.125,0,0,0,.016.047.112.112,0,0,1,.014.064.572.572,0,0,1-.015.107.782.782,0,0,0-.022.159.51.51,0,0,0,0,.115.821.821,0,0,0-.168.036.153.153,0,0,0-.021-.051.146.146,0,0,0-.2-.053l-.854.521C133.361,39.6,132.7,39.985,132.047,40.364Zm2.938-4.318c-.033-.057-.051-.092-.189-.041l-.008-.015-.178.1c-.238.118-.649.343-1.368.742-.925.512-2.158,1.2-3.389,1.881l-1.613.9c1.69-1.034,3.8-2.3,5.638-3.379.181-.1.337-.193.468-.274l.516-.315a.145.145,0,0,0,.037-.033.334.334,0,0,0,0,.075.6.6,0,0,0,.057.161.345.345,0,0,1,.034.09c.012.052.019.082.025.109s.015.073.036.148V36.2c-2.088,1.189-4.759,2.689-6.8,3.819,1.992-1.167,4.623-2.647,6.674-3.782a.145.145,0,0,0,.056-.2Zm.012.974a.226.226,0,0,0-.114-.086.967.967,0,0,0-.43.107,7.4,7.4,0,0,0,.727-.524.47.47,0,0,0,0,.17.212.212,0,0,1,0,.088.564.564,0,0,0-.012.163.755.755,0,0,0,.019.137.227.227,0,0,1,0,.1.674.674,0,0,1-.012.1c0,.026-.011.078-.016.163v.026a.2.2,0,0,0-.078-.041,3.9,3.9,0,0,0-1.394.539l1.257-.746a.146.146,0,0,0,.053-.2Zm.155.684a.137.137,0,0,0,.021-.019,1.239,1.239,0,0,0-.008.148v.112a.181.181,0,0,1-.01.049c-.1-.014-.335.111-3.812,2.087Zm-.332-2.626.01.015a1.831,1.831,0,0,0-.233.079l-.03-.012a.146.146,0,0,0-.111.014l-2,1.123c.91-.566,1.406-.9,1.671-1.106a2.815,2.815,0,0,0,.549-.369.591.591,0,0,1,.03.059c.01.022.022.049.041.086a.708.708,0,0,0,.078.118Zm-.493-.794a.2.2,0,0,1,.021.079.426.426,0,0,0,.049.185,4.048,4.048,0,0,0-.583.265c.322-.263.283-.331.244-.4a.145.145,0,0,0-.2-.055c-2.5,1.45-5.846,3.371-8.034,4.571,2.206-1.313,5.694-3.31,8.313-4.789a.145.145,0,0,0,.072-.137.183.183,0,0,1,.034.048.286.286,0,0,1,.036.092.673.673,0,0,0,.049.149Zm-10.588,6.234-.074-.137c-.007-.014-.01-.023-.015-.034a4.912,4.912,0,0,0,.639-.274,1.2,1.2,0,0,0-.368.349Zm-.424-1.044a.5.5,0,0,0-.015-.052.477.477,0,0,0-.094-.156.182.182,0,0,1-.042-.07c-.01-.023-.016-.041-.025-.057.052-.025.137-.067.259-.137a.161.161,0,0,0,.089.067c.149.042.889-.316,6.581-3.557-2,1.2-4.348,2.561-5.61,3.291C123.846,39.149,123.5,39.349,123.313,39.475Zm1.681-1.45.172-.105c.224-.123.467-.253.72-.387-.324.178-.624.343-.9.493Zm9.079-4.159.007.01a.182.182,0,0,0-.07,0l.052-.029Zm-.2-.33a4.566,4.566,0,0,0-.49.216,2.118,2.118,0,0,0,.375-.327l.022.027a.41.41,0,0,0,.093.079Zm-2.03-1.669a.39.39,0,0,0,.137.153,1.148,1.148,0,0,0,.107.066.39.39,0,0,1,.094.068.472.472,0,0,0,.163.1.256.256,0,0,1,.077.042.2.2,0,0,1,.053.059.432.432,0,0,0,.137.137.673.673,0,0,0,.137.071.293.293,0,0,1,.085.048.556.556,0,0,1,.085.077,1.061,1.061,0,0,0,.1.094.65.65,0,0,0,.137.093,6.083,6.083,0,0,0-.85.346l.36-.223a.146.146,0,0,0,.051-.194.208.208,0,0,0-.082-.082.124.124,0,0,0-.014-.137.208.208,0,0,0-.108-.083.242.242,0,0,0-.1,0,.191.191,0,0,0-.023-.086.146.146,0,0,0-.2-.057l-1.049.581c.821-.586.75-.7.684-.81a.146.146,0,0,0-.187-.063.177.177,0,0,0-.018-.047.148.148,0,0,0-.089-.07c-.082-.023-.081-.025-2.03,1.114-1.723,1-4.672,2.725-5.856,3.315.208-.153.494-.342.839-.56,1.754-.924,4.56-2.435,5.96-3.375.426-.228.836-.446,1.218-.647a.146.146,0,0,0,.045-.038l.019.01.093.049A.119.119,0,0,1,131.845,31.866Zm-6.653,3.022c-.354.2-.684.391-.969.547C124.5,35.27,124.836,35.083,125.192,34.888Zm4.64-3.6a.548.548,0,0,1,.118.026,1.162,1.162,0,0,0,.124.034c.053.012.086.016.115.022a.769.769,0,0,1,.129.031.11.11,0,0,1,.055.036.41.41,0,0,0,.088.067c-.669.356-2.14,1.175-5.455,3.039,1.431-.9,3.41-2.066,4.863-2.9a.145.145,0,0,0,.055-.2.159.159,0,0,0-.093-.073c-.047-.014-.1-.01-.324.1.137-.1.186-.152.194-.192a1.077,1.077,0,0,1,.133.008Zm-1.567.09c-.108.06-.226.126-.371.211l-.483.274.657-.41a.145.145,0,0,0,.064-.093A.33.33,0,0,0,128.265,31.38Zm-1.193.257.089-.03.053-.018-.376.209a.958.958,0,0,0,.137-.137.738.738,0,0,0,.1-.025Zm-3.466,3.033a1.412,1.412,0,0,0,.079-.137.146.146,0,0,0,.086.067.167.167,0,0,0,.049,0c-.137.085-.23.152-.305.207l.033-.052A.969.969,0,0,1,123.606,34.671Zm-.224.538a.076.076,0,0,1,.008-.042l.022.011c.033.01.057.015.17-.034-.083.062-.156.116-.222.167a.9.9,0,0,1,.022-.1Zm-.5,2.6a.145.145,0,0,1-.008-.085.372.372,0,0,1,.018-.105,1.043,1.043,0,0,0,.022-.161.293.293,0,0,1,.01-.1,1.241,1.241,0,0,0,.01-.163.192.192,0,0,1,.015-.079.453.453,0,0,0,.033-.183.379.379,0,0,0-.057-.2.1.1,0,0,1-.021-.062.564.564,0,0,1,.01-.137c0-.026.01-.059.015-.105a.123.123,0,0,1,.026-.07.491.491,0,0,0,.071-.155.643.643,0,0,0,.025-.156.274.274,0,0,1,.019-.094v-.014h.011a.2.2,0,0,0-.012.03.192.192,0,0,0,.014.149.2.2,0,0,0,.088.075l-.137.071a.146.146,0,0,0-.06.2.166.166,0,0,0,.092.073.353.353,0,0,0-.074.118.2.2,0,0,0,.014.159.163.163,0,0,0,.041.047.093.093,0,0,0-.03.051.146.146,0,0,0,.211.17l.346-.192.733-.387c2.305-1.214,3.979-2.119,5.14-2.786-1.822,1.132-4.455,2.645-6.377,3.715h0a.146.146,0,0,0,.074.274.179.179,0,0,0,.083.2c-.293.187-.274.226-.231.3a.185.185,0,0,0,.1.079c.2.051.821-.315,3.147-1.746l1.768-.985-3.284,2.039c-.661.41-1.186.733-1.484.919a.145.145,0,0,0-.059.174,1.725,1.725,0,0,0-.137.115.2.2,0,0,0-.008-.066c-.008-.026,0-.022.012-.051a.331.331,0,0,0,.03-.233.708.708,0,0,0-.056-.166.643.643,0,0,1-.037-.1,1.006,1.006,0,0,0-.042-.114.259.259,0,0,1-.023-.1.609.609,0,0,0-.042-.157Zm3.036-1.558c-.862.513-1.642.965-2.122,1.2C124.231,37.155,125.032,36.713,125.913,36.25ZM123.4,39.807l.044-.012a.2.2,0,0,0,.018.108.146.146,0,0,0,.089.07.193.193,0,0,0,.129-.027,1.749,1.749,0,0,0-.137.118A.613.613,0,0,0,123.5,40a.218.218,0,0,1-.045-.074.958.958,0,0,1-.055-.12Zm.784,1.341a.454.454,0,0,0-.092-.161.41.41,0,0,0-.16-.116.094.094,0,0,1-.038-.026c.6-.089,2.463-1.2,6.034-3.381l.848-.519.457-.23c-2.017,1.231-4.708,2.814-6.8,4.027a.145.145,0,0,0-.071.145.137.137,0,0,0,.01.037.29.29,0,0,0-.04.077.171.171,0,0,0,0,.021c-.07.073-.063.111-.044.149a.284.284,0,0,0-.048.062l-.012-.015a.168.168,0,0,1-.051-.074Zm1.052,1.138a.427.427,0,0,0-.092-.159c-.049-.055-.074-.079-.1-.107s-.042-.042-.082-.086a.423.423,0,0,0-.157-.112.146.146,0,0,1-.06-.041.189.189,0,0,1-.045-.07.5.5,0,0,0-.094-.149.41.41,0,0,0-.156-.112l-.026-.014a5.874,5.874,0,0,0,.527-.289A23.4,23.4,0,0,0,127.38,39.8c-2.63,1.624-2.58,1.714-2.5,1.857a.145.145,0,0,0,.088.07.137.137,0,0,0,.111-.012l.077-.042a.353.353,0,0,0-.1.122.19.19,0,0,0,.014.127.149.149,0,0,0,.089.07c.064.018.146.047,6.067-3.284l-.657.391c-2.019,1.162-4.2,2.478-5.224,3.1a.144.144,0,0,0-.068.137l-.011-.01a.074.074,0,0,1-.033-.051Zm.311.218a.257.257,0,0,1-.083-.031h0a.137.137,0,0,0,.037-.012c.025-.015,2.5-1.468,4.925-2.929l.075-.045c.633-.367,1.241-.713,1.791-1.018-.651.391-1.368.821-2.088,1.261a45.644,45.644,0,0,0-4.473,2.857l-.019-.014a.506.506,0,0,0-.172-.074Zm.739.438a.556.556,0,0,0-.137-.1A.6.6,0,0,0,126,42.78h0c2.37-1.459,5.746-3.471,7.636-4.463l-7.208,4.492a.146.146,0,0,0-.051.194v.007l-.029-.016a.222.222,0,0,1-.07-.057Zm.684.264c-.038-.011-.066-.019-.137-.045a.4.4,0,0,0-.2-.023.088.088,0,0,1-.063-.007.281.281,0,0,1-.082-.049h0c.111.018.41-.125,4.9-2.68l.309-.176c-1.486.915-3.214,1.959-4.612,2.8a.145.145,0,0,0-.053.2l.015.016Zm.328.166a.1.1,0,0,1-.057-.034L127.2,43.3a.505.505,0,0,0,.1-.016.12.12,0,0,0,.023.082l.008.01a.109.109,0,0,1-.037-.011Zm1.263.189a.368.368,0,0,1-.1-.022.684.684,0,0,0-.152-.036l-.115-.014a.433.433,0,0,1-.137-.019h-.008c.821-.461,2.181-1.218,3.466-1.932L128.67,43.4a.144.144,0,0,0-.059.159Zm.513.01a.566.566,0,0,0-.108,0l.36-.208a.163.163,0,0,0-.044.107c-.055.037-.059.055-.068.083v.018h0c-.045,0-.074,0-.142,0Zm.747.031a.17.17,0,0,1-.085,0,.729.729,0,0,0-.074-.008l.137-.075.571-.3.124-.064c-.153.1-.263.174-.338.23l-.079.048v.01a.345.345,0,0,0-.063.067.439.439,0,0,0-.127.059.175.175,0,0,1-.07.026Zm1.63-.435a.842.842,0,0,0-.129.026l-.083.023c.126-.068.274-.146.432-.239l.068-.036c-.052.056-.064.092-.063.122a.71.71,0,0,1-.126.071.264.264,0,0,1-.1.029Zm2.556-1.863c-.014.019-.015.019-.048.03a.53.53,0,0,0-.1.049h-.03l.183-.126v0a.067.067,0,0,1,0,.045Zm.707-1.368a.521.521,0,0,0-.041.161.137.137,0,0,1-.026.077.118.118,0,0,1-.049.049.41.41,0,0,0-.137.137.5.5,0,0,0-.034.066.276.276,0,0,0-.015-.033.156.156,0,0,0-.092-.071c-.048-.014-.12-.036-1.617.791l2.037-1.337a.688.688,0,0,0,0,.079.156.156,0,0,1-.029.074Z" transform="translate(1335.59 5245.601)" fill="#fff"/>
  </g>
</svg>
