<svg xmlns="http://www.w3.org/2000/svg" width="72.1" height="54" viewBox="0 0 72.1 54">
  <g id="email_2_" data-name="email (2)" transform="translate(0 -64.266)">
    <path id="パス_26121" data-name="パス 26121" d="M42.076,191.44a10.845,10.845,0,0,1-12.051,0L.48,171.742c-.164-.109-.324-.223-.48-.34v32.276a6.635,6.635,0,0,0,6.637,6.637H65.463a6.635,6.635,0,0,0,6.637-6.637V171.4c-.157.117-.317.232-.481.341Z" transform="translate(0 -92.049)" fill="#fff"/>
    <path id="パス_26122" data-name="パス 26122" d="M2.823,76.178l29.545,19.7a6.62,6.62,0,0,0,7.364,0l29.545-19.7A6.326,6.326,0,0,0,72.1,70.9a6.643,6.643,0,0,0-6.635-6.635H6.635A6.643,6.643,0,0,0,0,70.9a6.325,6.325,0,0,0,2.823,5.274Z" fill="#fff"/>
  </g>
</svg>
