<svg xmlns="http://www.w3.org/2000/svg" width="41.377" height="29.1" viewBox="0 0 41.377 29.1">
  <path id="youtube" d="M19.415,27.418V15.791l11.177,5.834L19.415,27.418ZM43.961,13.779s-.4-2.853-1.645-4.108A5.921,5.921,0,0,0,38.17,7.919C32.381,7.5,23.7,7.5,23.7,7.5h-.017s-8.684,0-14.474.418A5.921,5.921,0,0,0,5.059,9.669c-1.241,1.255-1.645,4.108-1.645,4.108A62.591,62.591,0,0,0,3,20.475v3.139a62.625,62.625,0,0,0,.414,6.7s.4,2.851,1.645,4.107c1.572,1.649,3.641,1.6,4.562,1.768,3.31.316,14.067.414,14.067.414s8.7-.012,14.484-.43a5.919,5.919,0,0,0,4.146-1.752c1.241-1.255,1.645-4.107,1.645-4.107a62.626,62.626,0,0,0,.414-6.7V20.475a62.558,62.558,0,0,0-.414-6.7Z" transform="translate(-3 -7.5)" fill="red" fill-rule="evenodd"/>
</svg>
