<svg xmlns="http://www.w3.org/2000/svg" width="41.298" height="34.415" viewBox="0 0 41.298 34.415">
  <path id="twitter" d="M41.3,7.027a11.1,11.1,0,0,1-1.542,2.209,11.383,11.383,0,0,1-2.785,2.348q.046.368.069.691a25.058,25.058,0,0,1-1.772,9.6,25.277,25.277,0,0,1-10.059,12.5c-4.863,2.79-10.527,3.383-15.746,2.877A18.08,18.08,0,0,1,0,33.591a17.63,17.63,0,0,0,12.615-3.638c-3.871.1-6.683-2.7-8.011-5.939a5.387,5.387,0,0,0,1.8.092,16.7,16.7,0,0,0,2.026-.276,9.5,9.5,0,0,1-5.755-4.466A9.627,9.627,0,0,1,1.7,15.129,8.089,8.089,0,0,0,5.525,16.28a9.872,9.872,0,0,1-3.752-6.1,11.3,11.3,0,0,1,1.036-5.5,28.935,28.935,0,0,0,9.83,7.366,20.363,20.363,0,0,0,7.711,1.612,10.306,10.306,0,0,1,1.036-6.538A8.907,8.907,0,0,1,26.7,3.25a7.848,7.848,0,0,1,7.873,2.44,14.013,14.013,0,0,0,5.479-2.026,8.312,8.312,0,0,1-3.775,4.88A23.939,23.939,0,0,0,41.3,7.025Z" transform="translate(0 -3)" fill="#1da1f2"/>
</svg>
