<svg xmlns="http://www.w3.org/2000/svg" width="328.91" height="303.392" viewBox="0 0 328.91 303.392">
  <g id="レイヤー_1" data-name="レイヤー 1" transform="translate(-5.939 -47.09)">
    <g id="グループ_4" data-name="グループ 4">
      <g id="グループ_1" data-name="グループ 1">
        <path id="パス_1" data-name="パス 1" d="M14.778,48.026l.588,3.618,6.9-.478.149,2.042-6.7.469.657,4.006,7.284-.529.159,2.034-7.124.557,1.046,6.279-2.351.289-1.036-6.388L6.1,60.563l-.161-2.1,8.063-.6-.658-4.015-6.467.448-.14-2.063,6.268-.428L12.427,48.3Z" fill="#40c1c9"/>
        <path id="パス_2" data-name="パス 2" d="M28.865,59.028a28.451,28.451,0,0,0-1.943-5.67l1.893-.926a29.1,29.1,0,0,1,2.063,5.819Zm1.525,5.3a12.852,12.852,0,0,0,5.082-2.391,9.353,9.353,0,0,0,2.671-4.345A28.051,28.051,0,0,0,39.188,51.8l2.124.628A28.1,28.1,0,0,1,39.647,59.6a10.1,10.1,0,0,1-3.886,4.7,17.893,17.893,0,0,1-4.205,1.873Zm3.1-6.2a39.287,39.287,0,0,0-1.834-5.649l1.963-.818a31.719,31.719,0,0,1,1.913,5.71Z" fill="#40c1c9"/>
        <path id="パス_3" data-name="パス 3" d="M46.08,49.78H57.1l1.225,1.5a22.6,22.6,0,0,1-2.979,6.666,55.044,55.044,0,0,1,6.368,5.9l-1.635,1.884a74.787,74.787,0,0,0-6-6.07,21.594,21.594,0,0,1-8.251,6.129l-1.216-2.062a19.678,19.678,0,0,0,5.8-3.4,18.348,18.348,0,0,0,4.245-5.39,13.939,13.939,0,0,0,1.176-3.11H46.08Zm13.493,2a18.137,18.137,0,0,0-2.023-3.676l1.574-.569a20.291,20.291,0,0,1,2.064,3.608Zm2.74-.448a16.32,16.32,0,0,0-2.023-3.717l1.5-.488a13.325,13.325,0,0,1,2.023,3.508Z" fill="#40c1c9"/>
        <path id="パス_4" data-name="パス 4" d="M65.479,50.169h15.2v2.083H74.168V62.864h7.593v2.083H64.372V62.864h7.474V52.252H65.479Z" fill="#40c1c9"/>
        <path id="パス_5" data-name="パス 5" d="M83.241,54.843H101.1v2.043H93.715a16.546,16.546,0,0,1-.638,4.065,7.583,7.583,0,0,1-2.531,3.737,12.454,12.454,0,0,1-3,1.644l-1.426-1.773a8.234,8.234,0,0,0,4.285-3.249,10.2,10.2,0,0,0,.977-4.424H83.241Zm2.183-5.67h11.2v2.043h-11.2Zm13.024,2.361a18.132,18.132,0,0,0-1.455-3.567l1.574-.349a14.045,14.045,0,0,1,1.446,3.508Zm2.571-.548A13.489,13.489,0,0,0,99.564,47.4l1.515-.309a13.944,13.944,0,0,1,1.534,3.448Z" fill="#40c1c9"/>
        <path id="パス_6" data-name="パス 6" d="M106.407,52.859h10.025q-.24,4.416-.947,9.986l-.089.7h3.766v1.894H104.514V63.542h8.739q.768-5.372.917-8.789h-7.763Z" fill="#40c1c9"/>
        <path id="パス_7" data-name="パス 7" d="M140.244,53.906h-4.4a22.314,22.314,0,0,1-.787,5.91,8.72,8.72,0,0,1-2.591,4,12.766,12.766,0,0,1-4.035,2.312l-1.4-1.694a12.351,12.351,0,0,0,3.686-2.142,7.964,7.964,0,0,0,2.422-4.365,21.742,21.742,0,0,0,.4-4.026h-6a13.494,13.494,0,0,1-3.7,4.405l-1.525-1.505a13.494,13.494,0,0,0,4.913-8.68l2.212.578a23.178,23.178,0,0,1-.947,3.179h11.759Z" fill="#40c1c9"/>
        <path id="パス_8" data-name="パス 8" d="M142.412,49.6h15.615l1.286,1.086a12.338,12.338,0,0,1-1.456,3.477,10.081,10.081,0,0,1-5.042,3.946L151.56,56.4a7.958,7.958,0,0,0,3.856-2.5,6.29,6.29,0,0,0,1.266-2.253h-14.27Zm6.388,4.3h2.281V55.62a16.359,16.359,0,0,1-.856,5.959A8.726,8.726,0,0,1,146,65.924l-1.644-1.734a7.824,7.824,0,0,0,3.159-2.452,6.132,6.132,0,0,0,1.007-2.341,20.579,20.579,0,0,0,.279-3.8Z" fill="#40c1c9"/>
        <path id="パス_9" data-name="パス 9" d="M177.126,65.943q-.758-.558-2.681-2.131l-.219-.17a7.5,7.5,0,0,1-5.64,2.242,6.048,6.048,0,0,1-3.487-1,4.242,4.242,0,0,1-2.014-3.668,4.524,4.524,0,0,1,1.635-3.478,7.575,7.575,0,0,1,2.162-1.3,6.466,6.466,0,0,1-1.873-3.917,3.487,3.487,0,0,1,1.4-2.87,5.337,5.337,0,0,1,6.139-.129,3.514,3.514,0,0,1,1.594,2.979q0,3.009-3.7,4.524,1.216,1.167,3.6,3.149a11.624,11.624,0,0,0,1.285-3.478l2.3.907a18.083,18.083,0,0,1-1.216,3.079A5.807,5.807,0,0,1,175.8,61.7a35.747,35.747,0,0,0,3,2.223Zm-8.9-7.931a4.905,4.905,0,0,0-1.715,1.256,2.763,2.763,0,0,0-.738,1.813,2.292,2.292,0,0,0,.977,1.893,3.265,3.265,0,0,0,2.043.648,5.279,5.279,0,0,0,2.86-.787,4.107,4.107,0,0,0,.877-.748Q169.682,59.576,168.228,58.012Zm.856-2.491q2.55-1.137,2.551-2.98a1.676,1.676,0,0,0-.5-1.216,2.2,2.2,0,0,0-2.83-.209,1.753,1.753,0,0,0-.728,1.475,3.141,3.141,0,0,0,.568,1.674q.219.348.588.827Q169.074,55.521,169.084,55.521Z" fill="#40c1c9"/>
        <path id="パス_10" data-name="パス 10" d="M181.188,49.6H196.8l1.285,1.086a12.338,12.338,0,0,1-1.455,3.477,10.085,10.085,0,0,1-5.042,3.946L190.335,56.4a7.953,7.953,0,0,0,3.856-2.5,6.275,6.275,0,0,0,1.266-2.253H181.188Zm6.387,4.3h2.281V55.62A16.359,16.359,0,0,1,189,61.579a8.726,8.726,0,0,1-4.226,4.345l-1.643-1.734a7.827,7.827,0,0,0,3.158-2.452A6.1,6.1,0,0,0,187.3,59.4a20.579,20.579,0,0,0,.279-3.8Z" fill="#40c1c9"/>
        <path id="パス_11" data-name="パス 11" d="M200.854,49.9h15.794a27.011,27.011,0,0,1-1.225,8.241,10.691,10.691,0,0,1-4.4,5.461,21.14,21.14,0,0,1-6.428,2.462l-1.146-2.024a17.2,17.2,0,0,0,6.348-2.262,8.98,8.98,0,0,0,3.487-4.494,16.8,16.8,0,0,0,.858-5.3H200.854Z" fill="#40c1c9"/>
        <path id="パス_12" data-name="パス 12" d="M234.73,50.229l1.425,1.166a21.435,21.435,0,0,1-4.523,9.876,15.968,15.968,0,0,1-4.485,3.387,20.507,20.507,0,0,1-4.2,1.634L221.8,64.329a16.586,16.586,0,0,0,7.951-4.264,30.1,30.1,0,0,0-5.142-3.707l1.306-1.615a28.423,28.423,0,0,1,5.211,3.508,16.781,16.781,0,0,0,2.441-6.019H226.55a17.888,17.888,0,0,1-5.68,5.75L219.4,56.4a15.939,15.939,0,0,0,5.192-5.033,13.717,13.717,0,0,0,1.624-3.438l2.162.528q-.328.9-.737,1.774Z" fill="#40c1c9"/>
        <path id="パス_13" data-name="パス 13" d="M238.772,55.779H256.32v2.243H238.772Z" fill="#40c1c9"/>
        <path id="パス_14" data-name="パス 14" d="M259.755,49.6h12.017l1.326,1.165a37.415,37.415,0,0,1-4.016,7.245,53.538,53.538,0,0,1,6.308,5.839l-1.655,1.874a69.609,69.609,0,0,0-5.978-6.039,22.972,22.972,0,0,1-8.272,6.1l-1.195-2.062a20.548,20.548,0,0,0,6.189-3.778,24.477,24.477,0,0,0,4.234-5.211,20.307,20.307,0,0,0,1.6-3.089H259.755Z" fill="#40c1c9"/>
        <path id="パス_15" data-name="パス 15" d="M292.267,50.657l1.554,1.286q-1.127,6.3-4.134,9.626a17.749,17.749,0,0,1-8.251,4.683l-1.247-2.022a15.316,15.316,0,0,0,7.694-4.125,14.5,14.5,0,0,0,3.428-7.4h-6.717a17.808,17.808,0,0,1-4.912,5.063l-1.635-1.655a16.25,16.25,0,0,0,3.737-3.209,14.462,14.462,0,0,0,2.551-4.752l2.162.587a17.97,17.97,0,0,1-.777,1.923Z" fill="#40c1c9"/>
        <path id="パス_16" data-name="パス 16" d="M296.937,55.779h17.547v2.243H296.937Z" fill="#40c1c9"/>
        <path id="パス_17" data-name="パス 17" d="M319.832,49.113h2.242V52.74a26.946,26.946,0,0,1-.777,7.614,9.943,9.943,0,0,1-4.3,5.3l-1.524-1.773a10.133,10.133,0,0,0,3.2-3.309,10.5,10.5,0,0,0,1.026-3.876q.14-1.375.14-3.916Zm5.1-.578h2.242v14.16a10.667,10.667,0,0,0,3.478-2.92,14.024,14.024,0,0,0,2.441-4.913l1.754,1.695a15.643,15.643,0,0,1-2.731,5.051,14.826,14.826,0,0,1-5.72,4.157L324.934,64.5Z" fill="#40c1c9"/>
      </g>
      <g id="グループ_3" data-name="グループ 3">
        <g id="グループ_2" data-name="グループ 2">
          <path id="パス_18" data-name="パス 18" d="M108.115,334.834v1.836H89v-1.836Zm-1.754,8.609v6.467H90.795v-6.467Zm-.408-5.711v1.794H91.162v-1.794Zm0,2.794v1.836H91.162v-1.836Zm-.041-8.609v1.816H91.244v-1.816Zm-1.611,13.24H92.814v3.02H104.3Z" fill="#231815"/>
          <path id="パス_19" data-name="パス 19" d="M114.283,334.814v-.694h-4.916v-1.836h4.916v-1h2.061v1h5.284v-1h2.081v1h4.855v1.836h-4.855V335.3h-2.081V334.12h-5.284V335.3h-2.061v.551h3.653v-1.041h1.978v1.041h3.836v-1.041h2.04v1.041h2.774v1.712H125.79v2.653h-7.854v-2.653h-3.653v3.51H127.32v1.653H120v1.06h8.568v1.776h-6.65a16.788,16.788,0,0,0,6.915,2.467l-1.1,2.061A16.379,16.379,0,0,1,120,346.177v4.3h-2.019V346.2c-1.368,1.428-3.816,2.917-7.9,3.917l-.938-2.081a16.256,16.256,0,0,0,7.017-2.467h-6.793V343.79h8.61v-1.06H112.2v-5.163h-2.836v-1.712H112.2v-1.041Zm5.631,2.753v1.143h3.836v-1.143Z" fill="#231815"/>
          <path id="パス_20" data-name="パス 20" d="M134.223,332.509a43.167,43.167,0,0,0-.857,9.119,34.625,34.625,0,0,0,.632,7.4l-2.265.285a42.207,42.207,0,0,1-.591-7.69,53.8,53.8,0,0,1,.735-9.3Zm13.506,3.2v2.184H144.1l.041,5.039a14.58,14.58,0,0,1,4.018,2.9l-1.448,2.02a11.661,11.661,0,0,0-2.673-2.428l-.02.592c-.081,2.122-1.224,3.284-4,3.284-3.183,0-4.468-1.857-4.468-3.631,0-2.162,1.836-3.651,4.509-3.651a6.961,6.961,0,0,1,1.836.244l-.062-4.365h-5.916v-2.184h5.855l-.02-3.3h2.3l.02,3.3Zm-5.815,8.589a4.1,4.1,0,0,0-1.836-.388c-1.224,0-2.551.47-2.551,1.776,0,1.264,1.163,1.734,2.368,1.734,1.937,0,2.06-1.143,2.04-1.98Z" fill="#231815"/>
          <path id="パス_21" data-name="パス 21" d="M154.549,349.788a36.385,36.385,0,0,0-3.611-4.488l1.877-1.326a32.164,32.164,0,0,1,3.9,4.345Z" fill="#231815"/>
          <path id="パス_22" data-name="パス 22" d="M160.429,335.814c.734-.1,2.182-.327,3.672-.674a12.757,12.757,0,0,0-2.428-.857l.449-.979h-1.429v-1.448H169.2V336.4a1.469,1.469,0,0,1-.633,1.143h7.2l-.184-1.408a46.718,46.718,0,0,1-5.283,1.122l-.347-1.755c1.509-.122,2.325-.244,3.753-.448a22.635,22.635,0,0,0-2.366-.9l.47-.857h-1.654v-1.448h8.977v4.385a1.426,1.426,0,0,1-1,1.531v5.018H174.75v.98h4.182v1.408H174.75v.978h4.835v1.51h-5.406a20.353,20.353,0,0,0,5.426.98l-.857,1.8a20.086,20.086,0,0,1-6.854-1.917l.836-.858h-5.712l.979.98a21.017,21.017,0,0,1-6.508,1.815l-.693-1.815a17.244,17.244,0,0,0,5.427-.98h-5.794v-1.51h4.855v-.978h-4.121V343.77h4.121v-.98h-3.326v-5.242h4l-.2-1.347a50.91,50.91,0,0,1-5.06,1.306Zm5.61.285h.9c.264,0,.285-.122.285-.367V333.3h-3.693a9.209,9.209,0,0,1,1.449.551l-.612,1.224c.551-.123.938-.245,1.428-.388Zm-2.122,2.714v.815h5.1v-.815Zm0,1.836v.917h5.1v-.917Zm3.407,2.141v.98h5.386v-.98Zm0,2.388v.978h5.386v-.978Zm3.57-6.365v.815h5.243v-.815Zm0,1.836v.917h5.243v-.917Zm3.427-5.672c.817-.163.918-.184,1.244-.244l.205,1.366h1.041c.326,0,.367-.1.367-.408V333.3h-3.734a8.328,8.328,0,0,1,1.449.653Z" fill="#231815"/>
          <path id="パス_23" data-name="パス 23" d="M185.712,332.692a41.662,41.662,0,0,0-.877,9.3,35.636,35.636,0,0,0,.592,7.222L183,349.4a41.081,41.081,0,0,1-.51-7.038,51.434,51.434,0,0,1,.816-9.853Zm5.223,8.792a4.883,4.883,0,0,0-1,2.632c0,1.714,2.019,1.9,3.977,1.9a42.818,42.818,0,0,0,4.713-.245v2.367c-1.1.081-2.325.183-3.774.183-3.346,0-7.039-.326-7.039-3.937a6.722,6.722,0,0,1,1.062-3.488Zm7.283-7.425V336.3h-9.792v-2.244Z" fill="#231815"/>
          <path id="パス_24" data-name="パス 24" d="M212.017,334.609v2.143H207.59a49.557,49.557,0,0,1-3.387,10.466l-2.326-.918a31.8,31.8,0,0,0,3.407-9.548h-3.162v-2.143h3.57A25.471,25.471,0,0,0,206,332.06l2.407.081c-.183,1.286-.244,1.714-.387,2.468Zm3.814,8.181a15.031,15.031,0,0,1,4.142,2.959l-1.347,2.08a11.014,11.014,0,0,0-2.938-2.55v.633c0,2.612-2.06,3.571-4.141,3.571-3.121,0-4.672-1.714-4.672-3.694,0-1.693,1.326-3.9,4.835-3.9a8.874,8.874,0,0,1,1.857.183l-.1-4.161h2.264Zm-2.2,1.367a5.167,5.167,0,0,0-1.918-.346c-1.774,0-2.733.836-2.733,1.918,0,.367.122,1.795,2.57,1.795,1.633,0,2.081-.755,2.081-2.123Zm5.08-5.916a28.432,28.432,0,0,0-5.59-2.673l.939-1.918a29.755,29.755,0,0,1,5.691,2.572Z" fill="#231815"/>
          <path id="パス_25" data-name="パス 25" d="M235.872,334.446c-1.632,1.2-3.569,2.775-5.345,4.162a10.168,10.168,0,0,1,3.081-.55c2.856,0,5.529,1.57,5.529,5.243,0,4-3.346,6.182-7.386,6.182-3.509,0-5.365-1.592-5.365-3.49,0-1.733,1.571-3.019,3.611-3.019a5.062,5.062,0,0,1,4.9,3.754,3.735,3.735,0,0,0,1.978-3.367c0-1.489-.755-3.447-4.121-3.447-3.488,0-5.978,2.02-8.813,4.672l-1.306-1.918c.592-.429,4.3-3.264,9.568-7.916-2.428.185-4,.245-7.4.327v-2.223c4.712.04,6.671-.041,11.077-.246Zm-5.936,10.324c-1.082,0-1.571.672-1.571,1.142,0,.877,1.061,1.775,3.223,1.775a9.83,9.83,0,0,0,1.449-.163C232.608,345.993,231.67,344.77,229.936,344.77Z" fill="#231815"/>
          <path id="パス_26" data-name="パス 26" d="M249.2,346.565a3.152,3.152,0,1,1-3.141-3.163A3.142,3.142,0,0,1,249.2,346.565Zm-5.14,0a2,2,0,1,0,2-2.02A2,2,0,0,0,244.061,346.565Z" fill="#231815"/>
        </g>
      </g>
      <g id="レイヤー_1-2" data-name="レイヤー 1">
        <g id="グループ_12585" data-name="グループ 12585">
          <path id="パス_26022" data-name="パス 26022" d="M164.087,90.127c-.833.47-1.741.971-2.86,1.626L157.5,93.869l5.065-3.166a1.115,1.115,0,0,0,.5-.717,2.532,2.532,0,0,0,1.013.148Zm-9.2,1.984.687-.235.411-.137-2.9,1.615a7.451,7.451,0,0,0,1.058-1.058,5.712,5.712,0,0,0,.738-.191Z" fill="#40b6bd"/>
        </g>
      </g>
    </g>
    <g id="グループ_5" data-name="グループ 5">
      <path id="パス_27" data-name="パス 27" d="M49.881,296.891c-.742.7-3.714,1.173-5.161,1.173-.234,0-.547,0-.547-.118-.274-1.173-2.54-13.839-3.127-15.325-.078-.156-.157-.234-.2-.234-.117,0-.195.234-.195.234a88.771,88.771,0,0,0-3.44,13.449c0,.313-2.659,1.172-4.73,1.172a1.027,1.027,0,0,1-.547-.117c-1.369-1.368-5.4-20.445-5.4-26.231,0-.118,1.37-.977,3.949-.977a3.821,3.821,0,0,1,.939.117c.077,1.447,1.016,13.76,2.854,18.374,0,0,.077.274.195.274s.118-.079.195-.274c0,0,3.205-12.392,3.91-13.136a11.878,11.878,0,0,1,3.947-.547,6.341,6.341,0,0,1,1.565.234c.156.157,2.658,12.589,3.126,14.7,0,0,.2.82.508,0a59.931,59.931,0,0,0,2.7-15.832c0-.587-1.252-1.213-2.191-1.329a1,1,0,0,1-.038-.352,5.21,5.21,0,0,1,.469-2.073,32.048,32.048,0,0,1,7.116-.937,3.509,3.509,0,0,1,.624.116C56.409,277.774,50.624,296.147,49.881,296.891Z" fill="#f6a631"/>
      <path id="パス_28" data-name="パス 28" d="M61.147,278.01c-1.447,0-2.384-.939-2.384-2.659a2.873,2.873,0,0,1,2.774-2.62,2.377,2.377,0,0,1,2.425,2.62A2.886,2.886,0,0,1,61.147,278.01Zm2.424,2.461c0,.2-.118,4.731-.118,8.327,0,1.8.039,3.363.118,4.028a6.385,6.385,0,0,0,1.055,3.126c0,.469-2.7,2.112-4.339,2.112-.157,0-.939-1.017-1.173-3.441-.038-.508-.079-1.8-.079-3.4,0-4.026.118-9.969.274-10.282a5.424,5.424,0,0,1,3.167-.7S63.374,280.237,63.571,280.471Z" fill="#40c1c9"/>
      <path id="パス_29" data-name="パス 29" d="M67.52,282.387a7.833,7.833,0,0,1,.195-2.619,6,6,0,0,1,3.557-1.094c.352,0,.821.078.821.195-.039.313-.118,1.291-.118,2.033,0,.626.041.782.118.782.039,0,.118-.079.118-.079a6.647,6.647,0,0,1,4.809-2.461c4.886,0,5,6.41,5,13.1,0,2.579-.117,4.573-.117,4.573,0,.2-1.681.782-3.362.782a4.23,4.23,0,0,1-1.291-.2,60.919,60.919,0,0,0,.391-6.685c0-3.792-.157-6.763-2.305-6.763-2.543,0-3.246,2.776-3.246,2.776,0-.039.039,2.5.039,4.965a28.854,28.854,0,0,1-.157,4.339c-.78.781-2.969,1.055-4.026,1.055-.313,0-.585,0-.585-.118a44.15,44.15,0,0,0,.272-5.784C67.636,288.1,67.52,284.694,67.52,282.387Z" fill="#40c1c9"/>
      <path id="パス_30" data-name="パス 30" d="M95.669,293.958c0-.116,0-.156-.039-.156s-.118.117-.118.117a5.826,5.826,0,0,1-5.12,2.541c-3.713,0-5.747-3.6-5.747-6.723,0-5.9,3.792-10.79,11.65-10.79,0,0,1.367,0,1.367.2a9.219,9.219,0,0,1,.118,1.445c0,.2-.038.587-.038.587h.429a4.508,4.508,0,0,1,1.682.234v4.965c0,3.636.078,8.17.078,9.264,0,10.751-7.468,12.589-10.478,12.589a6.75,6.75,0,0,1-1.447-4.065h.744C90.744,304.163,95.669,303.342,95.669,293.958Zm-.9-10.985c-3.479,0-5.434,2.581-5.434,5.668a2.8,2.8,0,0,0,2.737,3.012,3.637,3.637,0,0,0,3.362-2.855c0-.586.039-4.768.156-5.707C95.591,282.973,94.77,282.973,94.77,282.973Z" fill="#40c1c9"/>
      <path id="パス_31" data-name="パス 31" d="M104.2,298.454c-.391,0-1.525-1.642-1.525-3.48V294.7c4.5,0,6.256-1.994,6.256-3.246,0-2.266-6.256-3.479-6.256-6.841,0-3.244,4.886-6.372,9.305-6.372.429,0,1.642,1.6,1.681,3.285-.588,0-5.435.821-5.435,2.892,0,1.955,6.1,3.089,6.217,7.154C114.439,296.147,107.244,298.454,104.2,298.454Z" fill="#40c1c9"/>
      <path id="パス_32" data-name="パス 32" d="M141.221,297.476a10.283,10.283,0,0,0-.195-2.54c-.04-.078-.079-.078-.079-.078-.039,0-.118.078-.118.078a8.7,8.7,0,0,1-6.02,2.306c-7.113,0-10.2-5.237-10.2-11.767,0-5.746,2.23-15.636,15.051-15.636a15.223,15.223,0,0,1,3.831.547c.079.077.079.313.079.626a10.711,10.711,0,0,1-.626,3.752,9.828,9.828,0,0,0-4.1-.624c-5.317,0-9.07,3.557-9.07,10.906,0,4.378,1.719,7.583,5.629,7.583,3.441,0,5.433-2.541,5.433-3.362v-1.25a8.059,8.059,0,0,0-.234-2.62,13.4,13.4,0,0,0-3.636-.351,21.114,21.114,0,0,0-2.384.118c-.156,0-.156-.275-.156-.313a6.792,6.792,0,0,1,1.252-3.675c.272-.274,4.339-.548,9.225-.548a11.193,11.193,0,0,1,2.228.2,12.217,12.217,0,0,1-1.33,4.5s-.038,10.516-.272,10.945a6.094,6.094,0,0,1-3.559,1.329C141.573,297.594,141.221,297.594,141.221,297.476Z" fill="#40c1c9"/>
      <path id="パス_33" data-name="パス 33" d="M154.244,289.5c0,1.485,0,2.7.077,3.323a6.32,6.32,0,0,0,1.134,3.126c0,.469-2.7,2.112-4.339,2.112-.156,0-.977-1.017-1.211-3.441-.039-.624-.039-2.189-.039-4.1,0-3.988.157-7.936.157-14.152,0-3.948-.157-4.926-.157-5.355,0-.549,2.266-1.408,3.675-1.408a2.352,2.352,0,0,1,.977.156c-.079.587-.2,7.233-.2,10.164S154.244,285.788,154.244,289.5Z" fill="#40c1c9"/>
      <path id="パス_34" data-name="パス 34" d="M157.8,288.564a9.7,9.7,0,0,1,10.046-9.774,7.665,7.665,0,0,1,2.111.313,1.315,1.315,0,0,1,.078.549,10.768,10.768,0,0,1-.116,1.406c.39.039,4.455,1.368,4.455,6.88,0,4.652-2.931,9.148-8.365,9.148C160.774,297.086,157.8,293.45,157.8,288.564Zm9.109-3.949H166.6a1.344,1.344,0,0,1-.079-.508,6.392,6.392,0,0,1,.117-1.134c-1.876,0-4.377,1.721-4.377,5.473,0,.392,0,4.691,3.752,4.691,1.837,0,3.869-1.368,3.869-4.847C169.881,284.928,167.733,284.615,166.912,284.615Z" fill="#40c1c9"/>
      <path id="パス_35" data-name="パス 35" d="M177.51,298.728a63.1,63.1,0,0,0,.273-8.288c0-4.691-.078-10.4-.078-14.424a27.777,27.777,0,0,1,.195-5.083,6.109,6.109,0,0,1,3.6-1.329,2.34,2.34,0,0,1,.975.156c-.077.431-.39,8.014-.311,9.461h.624c2.346,0,9.813.547,9.813,8.209,0,5.239-5,8.522-10.4,9.382a8.852,8.852,0,0,1-.039.977c-.782.783-3.01,1.057-4.067,1.057C177.823,298.846,177.51,298.846,177.51,298.728Zm10.477-11.571a3.763,3.763,0,0,0-4.067-3.91c-.7,0-1.8.118-1.8.118v2.815c0,2.971.04,5.55.156,6.333C182.865,292.513,187.987,292.434,187.987,287.157Z" fill="#40c1c9"/>
      <path id="パス_36" data-name="パス 36" d="M209.8,293.06a4.612,4.612,0,0,0,1.329,3.087c0,.47-2.5,2.15-4.339,2.15-.157,0-1.017-.9-1.251-3.01,0,0,0-.077-.04-.077s-.116.077-.116.077a8.713,8.713,0,0,1-4.965,1.642c-3.518,0-5.669-1.837-5.669-5.16,0-6.841,9.031-7.739,9.813-7.739a.132.132,0,0,0,.077-.039c0-1.134-1.447-1.917-4.847-1.917a24.426,24.426,0,0,0-2.854.157H196.9a7.616,7.616,0,0,1,1.368-3.557,8.561,8.561,0,0,1,2.735-.274c5.943,0,8.679,2.228,8.679,6.959v1.994C209.685,289.306,209.685,292.239,209.8,293.06Zm-4.457-4.691a3.436,3.436,0,0,0-.039-.86c-1.407,0-5.746.7-5.746,3.518,0,.978.665,1.915,2.423,1.915a3.12,3.12,0,0,0,3.362-3.088Z" fill="#40c1c9"/>
      <path id="パス_37" data-name="パス 37" d="M218.055,289.5c0,1.485,0,2.7.078,3.323a6.31,6.31,0,0,0,1.134,3.126c0,.469-2.7,2.112-4.339,2.112-.157,0-.978-1.017-1.212-3.441-.039-.624-.039-2.189-.039-4.1,0-3.988.157-7.936.157-14.152,0-3.948-.157-4.926-.157-5.355,0-.549,2.267-1.408,3.675-1.408a2.354,2.354,0,0,1,.978.156c-.079.587-.2,7.233-.2,10.164S218.055,285.788,218.055,289.5Z" fill="#40c1c9"/>
      <path id="パス_38" data-name="パス 38" d="M241.592,284.772c-2.307,0-4.886.038-5.121.117-.039,1.1-.039,2.151-.039,3.206,0,3.91.234,7.233.313,7.857,0,.313-1.447,1.016-3.4,1.016a3.932,3.932,0,0,1-1.446-.195c-.2-.2-.235-3.323-.235-7.193v-4.613a7.9,7.9,0,0,1-1.837-3.986,14.035,14.035,0,0,1,1.916-.118c.039-2.776.039-5.16.039-6.372v-.821a9.874,9.874,0,0,1-1.017-3.715.294.294,0,0,1,.039-.195c.039,0,.392-.039.821-.039,2.5,0,5.161.939,5.161,1.33-.039.274-.275,5.081-.275,8.912v.782c.587,0,3.128-.038,5.2-.038,1.563,0,2.892.038,2.892.077,0-4.768.313-9.7.313-9.851a6.769,6.769,0,0,1,4.1-1.329c.156,0,.508,0,.508.156,0,0-.429,5.748-.429,12.353,0,7.662.234,12.2,2.111,14.074,0,.078-.079.157-.117.2a8.96,8.96,0,0,1-4.614,1.368,1.4,1.4,0,0,1-.469-.078c-.9-.9-1.289-2.307-1.368-12.863C243.976,284.772,242.842,284.772,241.592,284.772Z" fill="#f6a631"/>
      <path id="パス_39" data-name="パス 39" d="M253.989,288.564a9.7,9.7,0,0,1,10.046-9.774,7.677,7.677,0,0,1,2.112.313,1.322,1.322,0,0,1,.077.549,10.6,10.6,0,0,1-.116,1.406c.391.039,4.456,1.368,4.456,6.88,0,4.652-2.931,9.148-8.366,9.148C256.96,297.086,253.989,293.45,253.989,288.564Zm9.109-3.949h-.313a1.365,1.365,0,0,1-.079-.508,6.276,6.276,0,0,1,.118-1.134c-1.876,0-4.378,1.721-4.378,5.473,0,.392,0,4.691,3.752,4.691,1.837,0,3.87-1.368,3.87-4.847C266.068,284.928,263.919,284.615,263.1,284.615Z" fill="#40c1c9"/>
      <path id="パス_40" data-name="パス 40" d="M287.379,291.222a14.878,14.878,0,0,1-.157,3.088,5.862,5.862,0,0,1-3.284.782,3.815,3.815,0,0,1-1.25-.2,48.146,48.146,0,0,0,.351-5.943c0-3.166-.079-4.963-1.76-4.963-2.071,0-3.048,2.7-3.048,3.166,0,.234.038,2.657.038,4.964a25.328,25.328,0,0,1-.156,4.026c-.9.862-2.7.939-4.1.939-.156,0-.313,0-.313-.118a42.9,42.9,0,0,0,.273-5.746c0-3.166-.116-6.763-.116-9.186a9.5,9.5,0,0,1,.2-2.7,5.716,5.716,0,0,1,3.4-1.173c.352,0,.821.077.821.156-.038.43-.156,2.58-.156,3.323,0,0,0,.2.079.2.039,0,.077,0,.157-.079,0,0,2.109-2.307,4.221-2.307a3.961,3.961,0,0,1,3.831,2.268c1.134-1.6,2.736-3.128,4.925-3.128,4.888,0,5,6.959,5,13.644,0,2.579-.157,4.573-.157,4.573a6.239,6.239,0,0,1-3.361.782,3.825,3.825,0,0,1-1.251-.2,63.792,63.792,0,0,0,.429-6.88c0-3.988-.156-6.8-2.384-6.8a2.8,2.8,0,0,0-2.345,1.719C287.379,286.688,287.379,287.938,287.379,291.222Z" fill="#40c1c9"/>
      <path id="パス_41" data-name="パス 41" d="M299.072,288.72c0-5.082,3.128-9.733,9.461-9.733,1.837,0,4.925.781,4.925,4.26,0,3.323-2.931,6.88-7.935,8.6,0,.234.821,1.055,2.854,1.055a9.452,9.452,0,0,0,4.69-1.055.135.135,0,0,1,.078-.04c.079,0,.118.51.118.744a6.327,6.327,0,0,1-.978,3.518s-1.329.9-5.12.9C301.692,296.968,299.072,293.294,299.072,288.72Zm8.6-6.215c-2.111,0-4.028,2.5-4.028,5.59,0,.43,0,.546.157.546,1.642-.038,5.083-2.384,5.083-5A1.1,1.1,0,0,0,307.673,282.505Z" fill="#40c1c9"/>
    </g>
    <path id="パス_42" data-name="パス 42" d="M219.322,195.131a2.581,2.581,0,0,0-.929-2.157,2.058,2.058,0,0,0-1.9-.779c-.124.006-.291.017-.49.01-.315-.017-.518-.034-.692-.051a9.541,9.541,0,0,0-1.291-.03,6.678,6.678,0,0,0-1.257.152c-.173.036-.375.079-.7.122a4.866,4.866,0,0,0-1.065.255,1.805,1.805,0,0,1-.674.122c-.182.017-.189,0-.369-.1a2.872,2.872,0,0,0-1.355-.413,4.252,4.252,0,0,0-1.2.062,3.226,3.226,0,0,1-.7.047,4.011,4.011,0,0,1-.726-.079,5.3,5.3,0,0,0-1.16-.107,3.492,3.492,0,0,0-1.328.238,1.747,1.747,0,0,1-.584.128,4.235,4.235,0,0,0-1.2.236,2.744,2.744,0,0,1-.619.145c-.079.056-.237-.066-.385-.135a1.87,1.87,0,0,0-2.315.3,1.891,1.891,0,0,0-.236,2.257,1.132,1.132,0,0,1,.137.409,8.871,8.871,0,0,1-.072,1.052l-.062.574a5.446,5.446,0,0,0-.015,1.119,2.536,2.536,0,0,1-.037.769,4.841,4.841,0,0,0-.062,1.12,1.335,1.335,0,0,1-.105.677c-.049.13-.049.13-.246.248a2.889,2.889,0,0,0-1.107,1.062,3.552,3.552,0,0,0-.495,1.317,1.6,1.6,0,0,1-.21.6,3.287,3.287,0,0,1-.4.6,4.861,4.861,0,0,0-.66,1.034,3.81,3.81,0,0,0-.385,1.236,1.567,1.567,0,0,1-.186.6,2.7,2.7,0,0,1-.4.615,4.886,4.886,0,0,0-.653,1.006,1.861,1.861,0,0,1-.426.606,5.943,5.943,0,0,0-.655.784,2.167,2.167,0,0,1-.518.57,6.28,6.28,0,0,0-.7.644c-.268.279-.424.458-.555.61a6.138,6.138,0,0,1-.689.692,2.7,2.7,0,0,0-.84,1.317c-.073.221-.073.221-.188.306a4.589,4.589,0,0,1-.6.379,4.827,4.827,0,0,0-1.043.743,1.563,1.563,0,0,1-.522.321,3.244,3.244,0,0,0-1.216.851,7.824,7.824,0,0,0-.519.6,1.526,1.526,0,0,1-.612.5,4.712,4.712,0,0,0-.876.643.872.872,0,0,1-.533.276.711.711,0,0,1-.448-.034,2.445,2.445,0,0,0-1.77.085,8.663,8.663,0,0,0-1.722.878l-.206.129a2.779,2.779,0,0,0-1.053,1.147l-.208.219a.821.821,0,0,1-.557.049,4.035,4.035,0,0,0-1.216-.024,3.376,3.376,0,0,0-1.3.435.885.885,0,0,1-.518.15.6.6,0,0,1-.448-.12,3.058,3.058,0,0,0-1.387-.417,3.258,3.258,0,0,1-.7-.116,4.765,4.765,0,0,0-1.33-.161,2.7,2.7,0,0,0-1.551.484.816.816,0,0,1-.451.174l-.57.064a3.277,3.277,0,0,1-1.158-.015.526.526,0,0,1-.4-.186,3.385,3.385,0,0,0-1.119-.688,4.8,4.8,0,0,1-.711-.329,5.752,5.752,0,0,0-1.125-.491,4.565,4.565,0,0,0-1.239-.246,2.979,2.979,0,0,1-.7-.122l-.45-.126a7.258,7.258,0,0,1-1.218-.433,3.8,3.8,0,0,0-1.206-.3,1.057,1.057,0,0,1-.548-.173c-.43-.247-.651-.364-.871-.48-.2-.107-.4-.214-.8-.443l-1.66-.957a.687.687,0,0,1-.327-.337,3.472,3.472,0,0,0-1.129-1.156,12.3,12.3,0,0,1-1.263-.974c-.383-.319-.551-.473-.735-.643-.169-.154-.351-.321-.689-.612a4.514,4.514,0,0,1-.57-.582,6.4,6.4,0,0,0-.781-.812,3.06,3.06,0,0,0-1.206-.679c-.2-.064-.2-.064-.3-.208a.5.5,0,0,1-.131-.4,3.222,3.222,0,0,0-.28-1.3,5.2,5.2,0,0,0-.585-1.051,3.4,3.4,0,0,1-.374-.673,4.24,4.24,0,0,1-.253-.741,6.177,6.177,0,0,0-.364-1.066,3.4,3.4,0,0,0-.777-1.15,1.388,1.388,0,0,1-.345-.482,5.555,5.555,0,0,1-.3-.728,6.3,6.3,0,0,0-.475-1.1c-.191-.362-.326-.577-.441-.761a4.336,4.336,0,0,1-.418-.837,4.792,4.792,0,0,0-.552-1.032,1.985,1.985,0,0,1-.336-.775,8.253,8.253,0,0,1-.332-1.649,5.308,5.308,0,0,1-.052-1.126l.02-.542a1.692,1.692,0,0,1,.227-.336A1.8,1.8,0,0,0,141.42,193a2.212,2.212,0,0,0-2.127-.752,1.95,1.95,0,0,1-.559.011,3.4,3.4,0,0,0-1.364.047,2.13,2.13,0,0,1-.6.054l-.525-.026a11.523,11.523,0,0,0-1.434,0,2.422,2.422,0,0,1-.724-.047,5.7,5.7,0,0,0-1.047-.109,2.609,2.609,0,0,0-1.51.435c-.184.107-.188.1-.3.1-.075-.006-.077-.006-.242-.16a2.271,2.271,0,0,0-1.668-.711h-.006a2.272,2.272,0,0,0-1.668.7c-.165.152-.167.152-.242.159a2.833,2.833,0,0,1-.707-.013,4.7,4.7,0,0,0-1.154-.024.966.966,0,0,1-.467-.068,2.993,2.993,0,0,0-1.364-.191c-.169.015-.306.017-.422.019a2.231,2.231,0,0,0-1.895.883,2.14,2.14,0,0,0-.713,1.95l.023.407a7.207,7.207,0,0,0,.11,1.161c.027.169.057.362.092.683.036.351.04.557.043.741a6.4,6.4,0,0,0,.122,1.227,4.534,4.534,0,0,0,.346,1.128,1.969,1.969,0,0,1,.187.643c.058.4.1.636.135.841.047.262.083.474.141.99a3.6,3.6,0,0,0,.381,1.329,2.625,2.625,0,0,1,.219.591,1.092,1.092,0,0,1,.019.514,2.791,2.791,0,0,0,.186,1.542,5.987,5.987,0,0,1,.317.962c.043.175.094.387.184.706a3.5,3.5,0,0,0,.566,1.169.9.9,0,0,1,.207.487,5.775,5.775,0,0,0,.373,1.4l.208.563a6.422,6.422,0,0,0,.606,1.4l.235.433a.965.965,0,0,1,.133.494,3,3,0,0,0,.39,1.375,5.669,5.669,0,0,0,.618.951,4.008,4.008,0,0,1,.418.64,1.687,1.687,0,0,1,.2.576,3.536,3.536,0,0,0,.512,1.281,3.462,3.462,0,0,0,.932,1.021,1.652,1.652,0,0,1,.428.435,4.441,4.441,0,0,0,.82.891,2.408,2.408,0,0,1,.469.507,3.232,3.232,0,0,1,.368.636,5.126,5.126,0,0,0,.583,1.007,7.311,7.311,0,0,0,.951,1.137l.381.389c.218.227.347.382.454.51a5.509,5.509,0,0,0,.978.942,3.394,3.394,0,0,0,1.172.613.775.775,0,0,1,.434.257c.082.083.082.083.1.293a2.717,2.717,0,0,0,.561,1.471,8.176,8.176,0,0,0,1.452,1.568,4.945,4.945,0,0,0,1.212.841c.146.077.319.165.568.317a8.7,8.7,0,0,0,.927.495,6.776,6.776,0,0,1,.743.4,4.41,4.41,0,0,1,.636.454,6.263,6.263,0,0,0,.884.636,2.84,2.84,0,0,0,1.409.439.57.57,0,0,1,.394.12c.146.1.157.126.244.326a2.783,2.783,0,0,0,.921,1.207,3.764,3.764,0,0,0,1.234.664,3.166,3.166,0,0,1,.606.27,3.6,3.6,0,0,0,1.295.482,2.823,2.823,0,0,1,.613.177.873.873,0,0,1,.4.287,2.962,2.962,0,0,0,1.2.825,5.49,5.49,0,0,0,1.109.321,4.106,4.106,0,0,1,.726.2c.312.116.5.2.664.27a7.464,7.464,0,0,0,1.188.416,3.25,3.25,0,0,0,1.418.1,1.55,1.55,0,0,1,.573.011,1.49,1.49,0,0,1,.583.219,4.033,4.033,0,0,0,1.126.464l.666.165a10.786,10.786,0,0,1,1.088.311,1.126,1.126,0,0,1,.46.267,2.855,2.855,0,0,0,1.4.679,3.006,3.006,0,0,0,1.509-.047,1.464,1.464,0,0,1,.561-.058,2.076,2.076,0,0,1,.668.148,4.671,4.671,0,0,0,1.144.27,3.867,3.867,0,0,0,.467.03,3.388,3.388,0,0,0,.871-.118,1.164,1.164,0,0,1,.559-.03,6.444,6.444,0,0,0,1.465.1l.574-.012a6.084,6.084,0,0,0,1.3-.118c.165-.032.36-.069.686-.107s.548-.054.728-.067a7.872,7.872,0,0,0,1.239-.169,5.176,5.176,0,0,0,1.138-.349,4.137,4.137,0,0,1,.7-.227,1.138,1.138,0,0,1,.565-.015,3.636,3.636,0,0,0,1.255.019,3.026,3.026,0,0,0,1.321-.507.666.666,0,0,1,.424-.152.781.781,0,0,1,.45.092,2.651,2.651,0,0,0,1.559.212,15.572,15.572,0,0,0,1.993-.2,2.721,2.721,0,0,0,1.392-.75,1.078,1.078,0,0,1,.424-.28,2.214,2.214,0,0,1,.606-.152,3.414,3.414,0,0,0,1.36-.459,6.262,6.262,0,0,0,.878-.578,3.059,3.059,0,0,1,.67-.409,8.141,8.141,0,0,1,.934-.4c.184-.068.4-.146.738-.283.371-.15.574-.22.765-.284.265-.09.5-.172,1.008-.388a2.433,2.433,0,0,1,.664-.2,4.59,4.59,0,0,0,1.184-.368,2.729,2.729,0,0,0,1.2-1.015.749.749,0,0,1,.326-.313,1.082,1.082,0,0,1,.5-.141,2.969,2.969,0,0,0,1.409-.465,3.459,3.459,0,0,0,1.034-.929,1.884,1.884,0,0,1,.442-.439,12.966,12.966,0,0,0,1.254-1.02l.266-.237a3.209,3.209,0,0,1,.6-.437,5.432,5.432,0,0,0,.933-.679,7.084,7.084,0,0,0,.767-.779,4.544,4.544,0,0,1,.556-.564,10.225,10.225,0,0,0,1.424-1.421,1.5,1.5,0,0,1,.448-.364,3.044,3.044,0,0,0,1.1-1.035,3.948,3.948,0,0,0,.536-1.13,1.6,1.6,0,0,1,.28-.564,4.3,4.3,0,0,0,.568-1.038,1.945,1.945,0,0,1,.325-.574c.377-.484.506-.67.69-.936l.422-.6c.355-.493.479-.685.648-.953l.407-.619c.075-.111.075-.111.279-.193a2.694,2.694,0,0,0,1.794-2.473c.013-.225.013-.225.092-.321.1-.114.133-.126.339-.2a2.377,2.377,0,0,0,1.4-1.079,2.906,2.906,0,0,0,.469-1.474,1.324,1.324,0,0,1,.117-.535,2.416,2.416,0,0,1,.343-.593,4.329,4.329,0,0,0,.608-1.079,3.02,3.02,0,0,0,.234-1.429.932.932,0,0,1,.07-.5,6.3,6.3,0,0,1,.326-.717,7.165,7.165,0,0,0,.454-1.03.689.689,0,0,1,.261-.362,2.771,2.771,0,0,0,.859-1.287c.092-.278.162-.467.222-.627a7.189,7.189,0,0,0,.384-1.337,2.653,2.653,0,0,0-.14-1.625.817.817,0,0,1-.081-.465,7.857,7.857,0,0,0,.03-1.01,4.216,4.216,0,0,1,.054-.837,2.422,2.422,0,0,1,.2-.716,5.4,5.4,0,0,0,.329-1.062,8,8,0,0,0,.21-1.469l.039-.529a1.245,1.245,0,0,1,.156-.531,2.872,2.872,0,0,0,.33-1.548Zm-5.237,13.7a8.138,8.138,0,0,0-.427.934,2.95,2.95,0,0,0-.212.94.6.6,0,0,0-.072.023l-.889.493a2.609,2.609,0,0,0-.131-.257,1.09,1.09,0,0,0-.657-.523,1.116,1.116,0,0,0-.568-.01c1.256-.768,2.292-1.429,3.146-2.005C214.207,208.586,214.143,208.716,214.085,208.831ZM216.8,196.61a3.193,3.193,0,0,0-.137.7l-.041.558a6.528,6.528,0,0,1-.169,1.165,3.338,3.338,0,0,1-.211.676,2.769,2.769,0,0,0-.952.11,1.072,1.072,0,0,0-.3-.353,1.091,1.091,0,0,0-1.216-.075l-.8.465c-.124.07-.261.152-.413.237q-1.539.89-2.936,1.7c.478-.328.936-.643,1.366-.936C214.833,198.235,216.327,197.213,216.8,196.61Zm-16.555,3.032a4.556,4.556,0,0,0,.052-.51,1.1,1.1,0,0,0,.509.339l.077.019-.674.638A2.465,2.465,0,0,1,200.245,199.642Zm-3.664,7.853a1.589,1.589,0,0,1,.184-.6,2.655,2.655,0,0,1,.4-.625,5.915,5.915,0,0,0,.524-.77l.045-.024a1.052,1.052,0,0,0,.208.629,1.093,1.093,0,0,0,.685.531l.06.013c-.876.608-1.639,1.143-2.315,1.621A4.356,4.356,0,0,0,196.581,207.495Zm19.3-13.1a1.762,1.762,0,0,0,.743-.073,1.418,1.418,0,0,1,.18.169c.232.242.294.326.3.326a2.334,2.334,0,0,1,.024.389l.01.3a.752.752,0,0,1-.111.5c-.013.028-.03.077-.045.108a1.291,1.291,0,0,0-.191-.45,1.322,1.322,0,0,0-.76-.581,1.156,1.156,0,0,0-.668.02,1.393,1.393,0,0,0-.212-.532,1.083,1.083,0,0,0-.211-.245l.168.014C215.3,194.355,215.534,194.377,215.885,194.394Zm-7.008.193a2.792,2.792,0,0,0,1.518.381,3.91,3.91,0,0,0,1.308-.242,2.845,2.845,0,0,1,.641-.154c.363-.049.588-.092.785-.133l-8.968,4.97,3.793-3.585a1.094,1.094,0,0,0,.308-1.062,1.059,1.059,0,0,0-.175-.315,2.931,2.931,0,0,1,.372,0A.745.745,0,0,1,208.877,194.587Zm-6.493.278a2.005,2.005,0,0,1,.647-.126,3.9,3.9,0,0,0,1.19-.255,1.344,1.344,0,0,1,.583-.107,3.526,3.526,0,0,1,.758.07c.082.015.179.029.27.044-.505.28-1.183.672-2.2,1.258-.531.309-1.156.673-1.692.979-.112-.709-.2-1.25-.277-1.681A5.719,5.719,0,0,0,202.384,194.865Zm-32.934,28.91a.584.584,0,0,1,.411-.141,2.682,2.682,0,0,1,.741.09,5.163,5.163,0,0,0,1.112.182.965.965,0,0,1,.486.156,2.835,2.835,0,0,0,.572.238c-3.433,2.048-6.863,4.058-9.823,5.747,4.757-4.021,5.389-5.155,5.255-5.807A3.1,3.1,0,0,0,169.45,223.775Zm-6.465.861,1.092-.634a1.062,1.062,0,0,0,.316-.278,2.439,2.439,0,0,0,.871.482c-1,.61-2,1.223-2.99,1.82C162.928,225.364,163.065,224.985,162.985,224.636Zm-6.7-3.681a3.171,3.171,0,0,0,1.413.452,1.734,1.734,0,0,1,.579.139,8.739,8.739,0,0,0,1.488.527l.432.12a4.924,4.924,0,0,0,1.142.2,2.418,2.418,0,0,1,.711.142c.043.014.061.024.1.038-3.719,2.107-8.45,4.774-12.154,6.833,1.927-1.762,4.229-3.8,6.439-5.707a1.1,1.1,0,0,0-1.308-1.751c-2.752,1.773-5.7,3.6-8.18,5.053l7.383-6.88a1.017,1.017,0,0,0,.116-.186l.167.1c.43.247.651.364.871.48C155.685,220.619,155.889,220.726,156.287,220.955Zm-6.368-4.567a15.2,15.2,0,0,0,1.591,1.212.979.979,0,0,1,.338.379,2.91,2.91,0,0,0,.6.73c-.262.15-.573.331-.985.574a1.105,1.105,0,0,0,0-1.06,1.294,1.294,0,0,0-.754-.572c-.176-.049-.426-.107-1.264.208a1.816,1.816,0,0,0-.2-.456,1.435,1.435,0,0,0-.8-.606,2.87,2.87,0,0,0-1.876.419c1.017-.861,1.684-1.447,2.143-1.9.163.144.3.263.4.36C149.313,215.867,149.5,216.034,149.919,216.388Zm-5.673-6.722a3.281,3.281,0,0,1,.375.675,1.127,1.127,0,0,1,.1.509,2.59,2.59,0,0,0,.544,1.6,2.509,2.509,0,0,0,1.394,1.009,1.12,1.12,0,0,1,.341.168c-.587.276-1.335.658-2.322,1.187a1.1,1.1,0,0,0,.223-1.342,1.236,1.236,0,0,0-.728-.562,1.383,1.383,0,0,0-.8.033,1.07,1.07,0,0,0-.167-.5,1.229,1.229,0,0,0-.953-.51c1.8-1.492,1.848-1.98,1.456-2.689a1.376,1.376,0,0,0-.782-.593c-.653-.176-1.55.137-3.921,1.52l3.861-3.685a1.347,1.347,0,0,1,.178.312,4.481,4.481,0,0,1,.253.741,6.093,6.093,0,0,0,.364,1.067A5.206,5.206,0,0,0,144.246,209.666Zm-3.019-6.163a4.138,4.138,0,0,1,.306.7,15.809,15.809,0,0,0-1.867.962,1.095,1.095,0,0,0-1.385-.156c-.418.272-.844.543-1.27.818l2.527-2.009a1.1,1.1,0,0,0,.276-1.392,1.41,1.41,0,0,0-.57-.512.916.916,0,0,0,0-1.19c-.4-.707-.522-.917-4.677,1.334,1.407-1.147,2.934-2.359,4.461-3.556a12.785,12.785,0,0,0,.315,1.3,3.794,3.794,0,0,0,.6,1.287,2.568,2.568,0,0,1,.326.6,6.138,6.138,0,0,0,.6,1.191C140.959,203.03,141.071,203.206,141.227,203.5Zm-2.8-9.071a3.873,3.873,0,0,0,.848.022,2.38,2.38,0,0,0-.4,1.163c-.455.181-1.094.478-2.033.97.2-.155.392-.307.586-.459a1.094,1.094,0,0,0,.242-1.469.987.987,0,0,0-.147-.149c.107-.02.22-.039.3-.056A1.346,1.346,0,0,1,138.424,194.432Zm-5.418-.055a3.647,3.647,0,0,1,.677.07,4.439,4.439,0,0,0,1.246.082c.471-.023.681-.027.923-.017l-6.8,3.768c1.913-1.992,2.659-2.856,2.827-3.447a2.936,2.936,0,0,0,.784-.334C132.844,194.392,132.835,194.366,133.006,194.377Zm-5.407.516a2.434,2.434,0,0,0,1.532-.73l.184-.125.1.066c-1.252.78-2.547,1.57-3.7,2.247.347-.441.705-.889,1.048-1.315.03-.037.026-.087.051-.128A4.668,4.668,0,0,0,127.6,194.893Zm-3.88,5.79a4.127,4.127,0,0,0-.181-.669c.388-.171.877-.411,1.535-.768C124.5,199.835,124.075,200.292,123.719,200.683Zm-.82-5.069c0-.033-.011-.059-.013-.092.1-.063.193-.115.322-.194a1.125,1.125,0,0,0,.092.353c.017.036.034.071.053.1-.152.2-.266.347-.4.52A5.174,5.174,0,0,1,122.9,195.614Zm2.4,12.521c-.082-.287-.129-.478-.167-.634a7.6,7.6,0,0,0-.407-1.25.649.649,0,0,1-.05-.45,3.258,3.258,0,0,0-.066-1.328,4.8,4.8,0,0,0-.372-1.013l0,0,2.254-1.249c-1.419,1.379-1.24,1.7-.959,2.2a1.087,1.087,0,0,0,.677.527,1.118,1.118,0,0,0,.85-.122c.882-.538,1.783-1.079,2.679-1.615-4.168,3.621-3.874,4.15-3.534,4.767a1.109,1.109,0,0,0,.326.364,6.65,6.65,0,0,0-.758.662,4.219,4.219,0,0,0-.225-.358A1.333,1.333,0,0,1,125.3,208.135Zm1.219,3.23c-.051-.142-.1-.266-.136-.367s-.06-.161-.085-.235c.025.009.046.029.072.036a1.06,1.06,0,0,0,.865-.148c.339-.223.679-.445,1.024-.668Zm1.736,4.284a3.7,3.7,0,0,1-.418-.642.948.948,0,0,1-.135-.493,3.621,3.621,0,0,0-.151-.767c.308-.109.685-.265,1.175-.5a1.275,1.275,0,0,0,.524.295c.778.186,1.6-.227,6.733-3.51l-5.709,5.45a1.1,1.1,0,0,0-.2,1.324,1.129,1.129,0,0,0,.7.539.747.747,0,0,0,.362.047c-.632.467-1.1.83-1.471,1.137a1.507,1.507,0,0,1-.15-.2,1.339,1.339,0,0,1-.223-.563,3.853,3.853,0,0,0-.422-1.174A5.865,5.865,0,0,0,128.255,215.649Zm10.953,13.887a6.309,6.309,0,0,1-1.176-1.272c-.092-.118-.1-.157-.12-.375a2.427,2.427,0,0,0-.726-1.593,2.912,2.912,0,0,0-1.319-.8,1.224,1.224,0,0,1-.488-.246,3.363,3.363,0,0,1-.653-.626c-.133-.158-.289-.347-.555-.623l-.407-.415a5.733,5.733,0,0,1-.728-.874,3.233,3.233,0,0,1-.368-.636c-.042-.092-.093-.192-.143-.291.314-.168.682-.374,1.143-.645a1.1,1.1,0,0,0,1.5,1.476c1.476-.829,3.174-1.78,4.859-2.722-3.336,2.91-3.576,3.475-3.1,4.336a1.145,1.145,0,0,0,.705.54l.085.019c-.3.371-.19.6.045,1.03a1.1,1.1,0,0,0,.69.533,1.188,1.188,0,0,0,.445.022,1.092,1.092,0,0,0-.023,1.109,1.156,1.156,0,0,0,.691.537c.5.146.786.21,6.127-2.839l-5.384,5.017c-.012.011-.009.028-.021.04-.12-.067-.226-.122-.319-.17A2.817,2.817,0,0,1,139.208,229.536Zm3.621,2.142a35.418,35.418,0,0,0,3.235-1.626,22.3,22.3,0,0,0-2.205,2.393,4.629,4.629,0,0,1-.621-.449C143.119,231.9,142.989,231.794,142.829,231.678Zm9.739,5.6a3.6,3.6,0,0,1-.737-.212.86.86,0,0,1-.4-.283,3.035,3.035,0,0,0-1.176-.818,4.677,4.677,0,0,0-1.034-.3,1.51,1.51,0,0,1-.608-.23,5.1,5.1,0,0,0-.985-.441,1.682,1.682,0,0,1-.606-.327.68.68,0,0,1-.253-.356,3.624,3.624,0,0,0-.261-.492c.285-.149.608-.319.978-.519a1.116,1.116,0,0,0,.3.123,1.132,1.132,0,0,0,.863-.144c.775-.505,1.569-1.013,2.364-1.514-2.127,1.546-2.056,1.675-1.641,2.435a1.256,1.256,0,0,0,.735.563c.379.1,1.092.285,8.51-4.011-1.619,1.321-3.352,2.7-5.037,4.017a1.1,1.1,0,0,0-.285,1.4,1.251,1.251,0,0,0,.726.563l.017,0a3.37,3.37,0,0,0-.554.795A6.24,6.24,0,0,0,152.568,237.281Zm7.032,1.869-.632-.156a1.862,1.862,0,0,1-.576-.24,3.867,3.867,0,0,0-.5-.249l4.623-2.562c.427-.208.876-.433,1.352-.675-2.825,2.079-3.332,3.169-2.8,4.124a1.085,1.085,0,0,0,.473.429,3.246,3.246,0,0,0-.679-.313A12.751,12.751,0,0,0,159.6,239.15Zm2.008.707a1.215,1.215,0,0,0,.114.058,1.146,1.146,0,0,0,.42.036,1.94,1.94,0,0,0,.162.341c.014.024.039.039.054.063a.821.821,0,0,1-.323-.185A4.407,4.407,0,0,0,161.608,239.857Zm9.14.687a4.233,4.233,0,0,1-.908.082l-.634.013a4.146,4.146,0,0,1-1.064-.071,3.071,3.071,0,0,0-1.407.066,1.288,1.288,0,0,1-.561.043,2.58,2.58,0,0,1-.658-.158,4.609,4.609,0,0,0-.952-.225l28.567-15.838c-7.182,4.733-15.12,9.923-21.67,14.185a1.1,1.1,0,0,0-.324,1.512,1.064,1.064,0,0,0,.278.285C171.129,240.477,170.915,240.512,170.748,240.544Zm6.4-.929a1.455,1.455,0,0,1-.587-.013,3.207,3.207,0,0,0-1.426.047,5.459,5.459,0,0,0-1.036.339,3.475,3.475,0,0,1-.724.22c-.173.034-.278.049-.394.067,3.3-2.1,6.678-4.216,9.979-6.245-5.156,3.666-5.523,4.752-5.31,5.371l-.048.03A.908.908,0,0,1,177.146,239.615ZM206.061,222.2a4.073,4.073,0,0,0-.628,1.1,2.3,2.3,0,0,1-.314.578,3.658,3.658,0,0,0-.585,1.167.97.97,0,0,0-.064-.193,1.1,1.1,0,0,0-1.482-.413l-8.407,4.66c3.625-2.26,7.612-4.682,11.6-7.055Zm5.931-7.177-.242.158a2.692,2.692,0,0,0-1.3.861,2.505,2.505,0,0,0-.6,1.6c0,.056-.008.077-.011.112a1.484,1.484,0,0,0-.293-.138,7.214,7.214,0,0,0-3.287.824c2.708-1.826,4.6-3.143,5.915-4.114-.007.07-.022.16-.026.217A.766.766,0,0,1,211.992,215.022Z" fill="#f6a631"/>
    <path id="パス_43" data-name="パス 43" d="M218.3,135.4a2.189,2.189,0,0,1,.049-.659,3.64,3.64,0,0,0,.047-1.386,1.534,1.534,0,0,1,.03-.61,3.27,3.27,0,0,0,.011-1.471,2.746,2.746,0,0,0-.754-1.439.8.8,0,0,1-.25-.413c-.137-.506-.182-.726-.236-.987-.045-.219-.1-.465-.2-.893a4.7,4.7,0,0,0-.426-1.146,2.258,2.258,0,0,1-.244-.69.733.733,0,0,1,.032-.471,2.776,2.776,0,0,0,.039-1.6,5.743,5.743,0,0,1-.155-.8,6.552,6.552,0,0,0-.261-1.193,3.888,3.888,0,0,0-.661-1.334,3.461,3.461,0,0,1-.367-.593c-.122-.25-.2-.432-.272-.582a6.287,6.287,0,0,0-.768-1.324,2.823,2.823,0,0,0-1.242-.989c-.225-.1-.234-.107-.317-.253a1.086,1.086,0,0,1-.178-.565,3.658,3.658,0,0,0-.336-1.285,2.854,2.854,0,0,1-.227-.676,4.157,4.157,0,0,0-.482-1.262,3.41,3.41,0,0,0-.919-1.109,1.815,1.815,0,0,1-.428-.471.711.711,0,0,1-.124-.445,2.685,2.685,0,0,0-.55-1.566,2.9,2.9,0,0,0-1.232-.989.941.941,0,0,1-.424-.311,8.831,8.831,0,0,0-1.18-1.25l-.274-.253a2.866,2.866,0,0,1-.451-.52,3.792,3.792,0,0,0-1.033-1.024c-.76-.535-.781-.554-1.546-1.15a5.591,5.591,0,0,0-.948-.61,2.677,2.677,0,0,1-.634-.435,6.091,6.091,0,0,1-.555-.537,6.028,6.028,0,0,0-.927-.84,4.35,4.35,0,0,0-1.139-.646,2.832,2.832,0,0,1-.632-.332,1.133,1.133,0,0,1-.411-.416,3.7,3.7,0,0,0-.878-.961,4.077,4.077,0,0,0-1.107-.63,1.437,1.437,0,0,1-.559-.349,5.109,5.109,0,0,0-1.124-.818,6.133,6.133,0,0,1-.621-.381.8.8,0,0,1-.3-.372,2.576,2.576,0,0,0-1.214-1.225l-.651-.345a11.715,11.715,0,0,0-1.208-.58,5.274,5.274,0,0,0-1.24-.381,4.991,4.991,0,0,1-.751-.2,4.185,4.185,0,0,1-.7-.306,5.067,5.067,0,0,0-1.244-.482,9.225,9.225,0,0,0-1.315-.257c-.187-.023-.4-.053-.743-.111a2.536,2.536,0,0,0-1.718.3c-.2.1-.2.1-.3.081a.647.647,0,0,1-.392-.24,2.931,2.931,0,0,0-1.293-.8,7.437,7.437,0,0,0-1.283-.308c-.184-.03-.4-.064-.743-.139a6.874,6.874,0,0,1-.736-.2,6.022,6.022,0,0,0-1.279-.28,7.3,7.3,0,0,0-1.349-.088c-.192,0-.4,0-.726-.013a5.791,5.791,0,0,0-1.312.079,6.573,6.573,0,0,1-.756.084,2.965,2.965,0,0,1-.752-.045,5.849,5.849,0,0,0-1.2-.088,2.9,2.9,0,0,0-1.471.435.7.7,0,0,1-.448.139,1.053,1.053,0,0,1-.486-.122,2.877,2.877,0,0,0-1.533-.313,3,3,0,0,0-1.45.433,1.03,1.03,0,0,1-.511.173.562.562,0,0,1-.4-.1,2.674,2.674,0,0,0-1.638-.326,3.008,3.008,0,0,0-1.43.533.893.893,0,0,1-.486.193,7.579,7.579,0,0,0-1.6.328l-.451.132c-.3.086-.493.131-.656.17a5.791,5.791,0,0,0-1.357.473,7.579,7.579,0,0,1-1.041.409c-.182.06-.4.13-.724.244a2.745,2.745,0,0,1-.781.18,6.219,6.219,0,0,0-1.056.184,5.008,5.008,0,0,0-1.266.484,4.782,4.782,0,0,1-.676.306l-.223.084a11.945,11.945,0,0,0-1.683.734,3.8,3.8,0,0,0-1.148.822,2.658,2.658,0,0,1-.524.429,7.123,7.123,0,0,1-.636.368,5.507,5.507,0,0,0-1.116.741l-.553.462a8.457,8.457,0,0,1-.933.709.738.738,0,0,1-.469.159,3.244,3.244,0,0,0-1.36.415,4.186,4.186,0,0,0-1.156.9,4.281,4.281,0,0,1-.516.48,6.189,6.189,0,0,0-1.1,1.047l-.411.469c-.336.371-.5.533-.681.711s-.351.347-.674.694a3.32,3.32,0,0,0-.741,1.188,1.109,1.109,0,0,1-.3.482,2.423,2.423,0,0,1-.565.458,4.712,4.712,0,0,0-.947.75l-.5.5c-.264.265-.409.413-.883.867a5.1,5.1,0,0,0-.818.976,3.93,3.93,0,0,1-.458.587l-.443.469c-.291.306-.435.456-.9,1.024a2.5,2.5,0,0,1-.482.464,3.755,3.755,0,0,0-.95,1.05c-.185.286-.311.453-.42.6a5.832,5.832,0,0,0-.711,1.171,3.916,3.916,0,0,0-.381,1.253,1.491,1.491,0,0,1-.2.615,8.742,8.742,0,0,1-.5.837c-.131.2-.274.413-.505.811a5.464,5.464,0,0,1-.4.6,4.905,4.905,0,0,0-.672,1.195,3.457,3.457,0,0,0-.308,1.422,2.22,2.22,0,0,1-.09.638,8.689,8.689,0,0,0-.217,1,4.11,4.11,0,0,1-.22.865.815.815,0,0,1-.294.433,3.238,3.238,0,0,0-.83,1.173l-.253.581a13.123,13.123,0,0,0-.516,1.314,4.183,4.183,0,0,0-.261,1.324,2.781,2.781,0,0,1-.11.7,1.642,1.642,0,0,1-.257.544,3.059,3.059,0,0,0-.539,1.467c-.039.306-.073.514-.1.687a6.214,6.214,0,0,0-.1,1.48,2.907,2.907,0,0,0,.439,1.5.711.711,0,0,1,.142.458,1.277,1.277,0,0,1-.112.593,3.553,3.553,0,0,0-.257,1.338,7.5,7.5,0,0,1-.062.987c-.026.217-.056.463-.085.883a6.116,6.116,0,0,1-.125.94c-.047.231-.1.488-.156.951a3.224,3.224,0,0,0,.146,1.588,2.464,2.464,0,0,1,.135.634,3.944,3.944,0,0,0,.346,1.461,5.246,5.246,0,0,1,.23.631,6.556,6.556,0,0,0,.389,1.017,3.381,3.381,0,0,1,.27.8c.028.123.028.123-.071.332a2.622,2.622,0,0,0-.276,1.641,6.667,6.667,0,0,1,.071.753,5.648,5.648,0,0,0,.2,1.339,4.477,4.477,0,0,0,.531,1.28,3.679,3.679,0,0,1,.315.651,3.528,3.528,0,0,0,.715,1.193,1.4,1.4,0,0,1,.319.518,1.793,1.793,0,0,1,.137.64,3.852,3.852,0,0,0,.289,1.292l.307.8c.1.27.186.5.4,1.021a3.837,3.837,0,0,0,.7,1.148,1.767,1.767,0,0,1,.343.548,5.055,5.055,0,0,1,.242.72,5.835,5.835,0,0,0,.52,1.319,18.148,18.148,0,0,0,.895,1.653,1.974,1.974,0,0,1,.24.6,3.448,3.448,0,0,0,.6,1.312,2.757,2.757,0,0,0,1.272,1.015.871.871,0,0,1,.413.285,1.273,1.273,0,0,1,.289.516,3.417,3.417,0,0,0,.694,1.218c.325.38.492.564.657.75s.317.351.625.711a3.044,3.044,0,0,0,1.193.878,1.024,1.024,0,0,1,.437.306,1.6,1.6,0,0,1,.332.527,3.559,3.559,0,0,0,.747,1.148,3.218,3.218,0,0,0,1.167.822,1.034,1.034,0,0,1,.452.315c.33.362.514.546.69.721s.338.339.663.705a1.041,1.041,0,0,1,.253.456,2.7,2.7,0,0,0,.953,1.36l.4.323a6.972,6.972,0,0,0,1.371.923,4.087,4.087,0,0,0,1.205.454,1.654,1.654,0,0,1,.617.244,2.078,2.078,0,0,1,.555.45,4.593,4.593,0,0,0,.936.786,3.965,3.965,0,0,0,1.227.558,2.447,2.447,0,0,1,.638.264,2.052,2.052,0,0,1,.524.405,3.744,3.744,0,0,0,1.127.8,2.655,2.655,0,0,1,.593.384,4.279,4.279,0,0,0,1.135.687,2.807,2.807,0,0,0,1.574.221.81.81,0,0,1,.492.047c.61.227.844.295,1.174.392l.728.222a.946.946,0,0,1,.439.274,3.116,3.116,0,0,0,2.893.782.838.838,0,0,1,.5-.011,5.307,5.307,0,0,1,.756.238,6.156,6.156,0,0,0,1.139.341c1.017.216,1.058.04,1.987.2.612.105.861.128,1.178.16.192.02.415.041.792.092a3.116,3.116,0,0,1,.722.172,4.969,4.969,0,0,0,1.214.27l.389.042c.617.067.746.082,1.589.15a4.28,4.28,0,0,0,1.283-.06,2.52,2.52,0,0,1,.713-.047c.595.037.852.03,1.152.024.206,0,.431-.007.842,0a3.356,3.356,0,0,1,.694.079,4.228,4.228,0,0,0,1.37.071,2.031,2.031,0,0,1,.642.034,3.588,3.588,0,0,0,.69.073,3.722,3.722,0,0,0,.782-.09,3.39,3.39,0,0,0,1.284-.529,1.2,1.2,0,0,1,.544-.218c.949-.167.977-.017,1.936-.155.34-.051.557-.07.739-.087a7.273,7.273,0,0,0,1.3-.217,5.879,5.879,0,0,0,1.236-.413,6.493,6.493,0,0,1,.709-.278c.479-.161.728-.268.961-.369a6.906,6.906,0,0,1,.857-.316c.529-.163.751-.221,1.026-.292l.854-.231a4.345,4.345,0,0,1,.679-.141,4.093,4.093,0,0,0,1.4-.433,7.1,7.1,0,0,0,1.469-.876l.37-.269a4.687,4.687,0,0,1,.835-.508c.195-.1.424-.21.786-.418a8.381,8.381,0,0,0,.827-.543,3.261,3.261,0,0,1,.749-.433,2.023,2.023,0,0,1,.611-.171,3.2,3.2,0,0,0,1.451-.559,3.724,3.724,0,0,0,1.084-1.037,3.232,3.232,0,0,1,.452-.518,2.155,2.155,0,0,1,.6-.424,4.9,4.9,0,0,0,.977-.64,3.165,3.165,0,0,0,.891-1.124.785.785,0,0,1,.319-.388,1.1,1.1,0,0,1,.5-.212,2.881,2.881,0,0,0,1.4-.7,2.79,2.79,0,0,0,.891-1.341.97.97,0,0,1,.253-.445,2.52,2.52,0,0,1,.58-.476,5.1,5.1,0,0,0,.932-.736c.3-.3.473-.476.625-.632.2-.2.353-.366.756-.736a1.016,1.016,0,0,1,.467-.242,2.577,2.577,0,0,0,1.46-1.022,2.343,2.343,0,0,0,.426-1.878c-.032-.246-.036-.3.024-.432a6.768,6.768,0,0,1,.492-.917c.116-.184.251-.4.452-.758a1.2,1.2,0,0,1,.394-.46,4.107,4.107,0,0,0,1.431-2.182,1.759,1.759,0,0,1,.254-.6.97.97,0,0,1,.386-.368,3.007,3.007,0,0,0,1.066-1.081,3.192,3.192,0,0,0,.491-1.459,1.825,1.825,0,0,1,.152-.61,3.32,3.32,0,0,0,.3-1.45,2.085,2.085,0,0,1,.079-.623,4.916,4.916,0,0,1,.325-.906c.1-.212.206-.451.358-.86a1,1,0,0,1,.317-.482,3.546,3.546,0,0,0,.788-1.094,4.493,4.493,0,0,1,.351-.611,4,4,0,0,0,.623-1.417,3.1,3.1,0,0,0,.011-1.628,2.05,2.05,0,0,1-.069-.629,3.891,3.891,0,0,1,.112-.805,6.174,6.174,0,0,0,.162-1.163,3,3,0,0,0-.274-1.476.8.8,0,0,1-.1-.486,1.286,1.286,0,0,1,.154-.574,3.469,3.469,0,0,0,.364-1.323c.043-.5.045-.771.047-1.023a7.581,7.581,0,0,1,.049-.9,3.914,3.914,0,0,0-.064-1.343,2.074,2.074,0,0,1-.051-.67,10.493,10.493,0,0,1,.1-1.054c.027-.207.062-.449.1-.845a3.762,3.762,0,0,0-.075-1.444A3.862,3.862,0,0,1,218.3,135.4Zm-25.593,25.9-4.531,2.636c18.153-11.126,25.067-15.6,27.55-17.687.042.122.084.259.122.349a.841.841,0,0,1,.1.488,4.32,4.32,0,0,1-.114.8,5.928,5.928,0,0,0-.16,1.188,3.872,3.872,0,0,0,.051.861,6.143,6.143,0,0,0-1.265.272,1.141,1.141,0,0,0-.159-.383,1.1,1.1,0,0,0-1.533-.4c-2.021,1.242-4.173,2.555-6.418,3.917C202.6,155.545,197.611,158.447,192.712,161.3ZM214.8,128.823c-.242-.434-.379-.687-1.422-.306l-.064-.115c-.435.239-.883.488-1.339.74-1.794.881-4.873,2.583-10.3,5.579-6.957,3.843-16.223,8.989-25.484,14.141-4.092,2.279-8.186,4.557-12.077,6.726,12.707-7.781,28.583-17.263,42.4-25.413,1.357-.761,2.526-1.448,3.518-2.073q1.956-1.151,3.839-2.255a1.073,1.073,0,0,0,.282-.244,2.5,2.5,0,0,0,.035.561,4.456,4.456,0,0,0,.433,1.218,2.623,2.623,0,0,1,.253.675c.094.392.139.617.182.818.06.295.111.546.267,1.115.006.022.014.037.021.057-15.75,8.9-35.806,20.179-51.154,28.71,14.983-8.771,34.769-19.912,50.187-28.437a1.095,1.095,0,0,0,.424-1.5Zm.094,7.322a1.7,1.7,0,0,0-.857-.651,7.285,7.285,0,0,0-3.227.8,55.6,55.6,0,0,0,5.464-3.936,3.538,3.538,0,0,0-.046,1.28,1.609,1.609,0,0,1-.021.662,4.2,4.2,0,0,0-.09,1.225,5.747,5.747,0,0,0,.145,1.015,1.706,1.706,0,0,1,.035.73c-.039.364-.071.587-.1.778-.047.336-.081.582-.12,1.227,0,.081.005.127,0,.2a1.493,1.493,0,0,0-.557-.284c-1.137-.293-5.048,1.313-10.482,4.056,3.276-1.96,6.449-3.85,9.45-5.632A1.1,1.1,0,0,0,214.894,136.145Zm1.158,5.195a1.074,1.074,0,0,0,.151-.142,9.549,9.549,0,0,0-.061,1.114c0,.21,0,.43-.038.846a1.364,1.364,0,0,1-.077.37c-.717-.1-2.52.836-28.667,15.692Zm-2.5-19.741c.031.042.049.077.075.113a13.731,13.731,0,0,0-1.752.593,1.192,1.192,0,0,0-.227-.094,1.105,1.105,0,0,0-.835.1c-3.972,2.23-9.208,5.163-15.075,8.446,6.843-4.257,10.576-6.762,12.561-8.315a21.212,21.212,0,0,0,4.162-2.855,4.524,4.524,0,0,1,.223.446c.075.167.167.37.307.651A5.281,5.281,0,0,0,213.556,121.6Zm-3.705-5.971a1.511,1.511,0,0,1,.152.594,3.2,3.2,0,0,0,.392,1.307,30.326,30.326,0,0,0-4.381,2c2.413-1.975,2.128-2.489,1.826-3.035a1.094,1.094,0,0,0-1.511-.415c-18.793,10.942-43.975,25.394-60.43,34.45,16.585-9.88,42.823-24.891,62.509-35.992a1.1,1.1,0,0,0,.549-1.052,1.34,1.34,0,0,1,.262.356,2.169,2.169,0,0,1,.264.69A5.1,5.1,0,0,0,209.851,115.628Zm-79.625,46.828c-.169-.3-.279-.518-.558-1.08-.054-.107-.076-.171-.111-.252a36.931,36.931,0,0,0,4.8-2.069,8.987,8.987,0,0,0-2.769,2.625C131.132,161.943,130.679,162.2,130.226,162.456ZM127,154.6a3.985,3.985,0,0,0-.114-.394,3.617,3.617,0,0,0-.708-1.169,1.356,1.356,0,0,1-.319-.524c-.068-.18-.128-.306-.188-.435.393-.183.98-.5,1.943-1.067a1.218,1.218,0,0,0,.673.5c1.124.319,6.685-2.373,49.487-26.759-15.009,9-32.693,19.255-42.164,24.748C131.045,152.156,128.446,153.663,127,154.6Zm12.647-10.9q.628-.382,1.293-.79c1.692-.93,3.51-1.906,5.413-2.913C143.955,141.335,141.7,142.584,139.647,143.7ZM207.958,112.4c.019.029.034.04.053.068a1.354,1.354,0,0,0-.524.005c.149-.081.267-.148.392-.217C207.908,112.3,207.925,112.347,207.958,112.4Zm-1.489-2.48a34.665,34.665,0,0,0-3.687,1.621,15.88,15.88,0,0,0,2.821-2.454c.053.065.1.118.169.2A3.06,3.06,0,0,0,206.469,109.917ZM191.2,97.388a2.923,2.923,0,0,0,.989,1.15,8.535,8.535,0,0,0,.808.5,2.944,2.944,0,0,1,.709.518,3.546,3.546,0,0,0,1.22.765,1.9,1.9,0,0,1,.572.323,1.513,1.513,0,0,1,.4.443,3.252,3.252,0,0,0,1.026,1.032,5.053,5.053,0,0,0,1.024.538,2.217,2.217,0,0,1,.636.362,4.151,4.151,0,0,1,.64.578,8.019,8.019,0,0,0,.732.713,4.866,4.866,0,0,0,1.015.695,45.679,45.679,0,0,0-6.39,2.6l2.7-1.674a1.1,1.1,0,0,0,.381-1.463,1.554,1.554,0,0,0-.621-.614.936.936,0,0,0-.1-1,1.556,1.556,0,0,0-.816-.626,1.825,1.825,0,0,0-.785,0,1.447,1.447,0,0,0-.178-.647,1.1,1.1,0,0,0-1.491-.428l-7.886,4.37c6.124-4.4,5.638-5.278,5.186-6.092a1.1,1.1,0,0,0-1.407-.471,1.328,1.328,0,0,0-.135-.351,1.108,1.108,0,0,0-.67-.529c-.617-.172-.606-.182-15.263,8.37-12.956,7.557-35.132,20.493-44.037,24.93,1.561-1.148,3.711-2.576,6.308-4.206,13.189-6.942,34.292-18.31,44.821-25.379,3.2-1.717,6.285-3.353,9.154-4.863a1.106,1.106,0,0,0,.342-.284l.14.076c.175.094.383.208.7.371C191.089,97.17,191.093,97.178,191.2,97.388Zm-50.039,22.729c-2.664,1.535-5.146,2.94-7.289,4.113C136,122.986,138.49,121.584,141.165,120.117Zm34.887-27.058a4.069,4.069,0,0,1,.886.192,8.689,8.689,0,0,0,.938.255c.4.088.649.129.863.163a5.787,5.787,0,0,1,.972.233.828.828,0,0,1,.414.272,3.142,3.142,0,0,0,.657.507c-5.034,2.673-16.094,8.838-41.022,22.847,10.765-6.763,25.637-15.538,36.57-21.808a1.094,1.094,0,0,0,.414-1.482,1.2,1.2,0,0,0-.7-.546c-.347-.1-.765-.07-2.439.737,1.049-.749,1.4-1.139,1.456-1.438A8.073,8.073,0,0,1,176.052,93.059Zm-11.782.684c-.808.448-1.7.95-2.792,1.581-1.024.563-2.223,1.233-3.632,2.03,1.739-1.092,3.407-2.137,4.942-3.092a1.088,1.088,0,0,0,.486-.7A2.483,2.483,0,0,0,164.27,93.743ZM155.3,95.677l.664-.222c.143-.047.268-.089.4-.136l-2.834,1.57a7.106,7.106,0,0,0,.988-.989A5.547,5.547,0,0,0,155.3,95.677Zm-26.056,22.8a10.55,10.55,0,0,0,.6-1.007,1.1,1.1,0,0,0,.652.506,1.269,1.269,0,0,0,.371.036c-.995.642-1.73,1.142-2.3,1.555.074-.112.149-.227.242-.388C129,118.838,129.126,118.65,129.24,118.481Zm-1.688,4.038c.035-.126.042-.21.064-.317a1.065,1.065,0,0,0,.168.086c.25.075.43.116,1.272-.259-.632.46-1.177.874-1.67,1.257A6.846,6.846,0,0,1,127.552,122.519Zm-3.8,19.553a1.093,1.093,0,0,1-.057-.64c.049-.388.092-.6.13-.8a7.869,7.869,0,0,0,.163-1.216c.026-.368.051-.585.075-.773a9.373,9.373,0,0,0,.077-1.223,1.429,1.429,0,0,1,.118-.6,3.4,3.4,0,0,0,.25-1.381,2.844,2.844,0,0,0-.43-1.531.769.769,0,0,1-.15-.467A4.21,4.21,0,0,1,124,132.4c.034-.2.075-.439.117-.795a.939.939,0,0,1,.2-.529,3.673,3.673,0,0,0,.536-1.16,4.855,4.855,0,0,0,.188-1.172,2.091,2.091,0,0,1,.139-.713c.015-.04.024-.066.038-.1.031-.01.047-.009.08-.022a1.559,1.559,0,0,0-.094.231,1.444,1.444,0,0,0,.107,1.12,1.5,1.5,0,0,0,.655.561c-.342.178-.687.353-1.03.531a1.1,1.1,0,0,0-.456,1.506,1.251,1.251,0,0,0,.685.55,2.665,2.665,0,0,0-.554.886,1.5,1.5,0,0,0,.107,1.189,1.237,1.237,0,0,0,.313.351.7.7,0,0,0-.23.381,1.1,1.1,0,0,0,1.583,1.274l2.6-1.443c1.424-.758,3.353-1.773,5.512-2.912,17.332-9.129,29.919-15.938,38.649-20.949-13.7,8.508-33.5,19.887-47.958,27.932l-.011.006a1.1,1.1,0,0,0,.559,2.054,1.346,1.346,0,0,0,.623,1.527c-2.2,1.413-2.042,1.7-1.736,2.25a1.388,1.388,0,0,0,.777.6c1.473.379,6.219-2.368,23.645-13.13,4.906-2.726,9.321-5.189,13.289-7.412l-24.743,15.33c-4.972,3.056-8.925,5.519-11.165,6.919a1.1,1.1,0,0,0-.448,1.311,12.748,12.748,0,0,0-1.062.868c-.014-.144-.03-.3-.06-.5-.021-.141-.008-.169.092-.379a2.482,2.482,0,0,0,.227-1.747,5.314,5.314,0,0,0-.419-1.242,4.753,4.753,0,0,1-.277-.728,7.766,7.766,0,0,0-.314-.859,1.926,1.926,0,0,1-.18-.784A4.524,4.524,0,0,0,123.751,142.072Zm22.8-11.715c-6.486,3.861-12.36,7.257-15.959,9.045C133.942,137.168,139.966,133.845,146.546,130.357Zm-18.883,26.7c.116-.036.2-.044.328-.092a1.536,1.536,0,0,0,.135.812,1.107,1.107,0,0,0,.668.527c.191.049.326.092.966-.2a12.941,12.941,0,0,0-1.051.886,4.714,4.714,0,0,0-.367-.505,1.646,1.646,0,0,1-.34-.556C127.826,157.5,127.744,157.281,127.663,157.061Zm5.894,10.086a3.424,3.424,0,0,0-.692-1.216,3.029,3.029,0,0,0-1.2-.869.706.706,0,0,1-.292-.193c4.489-.668,18.545-9.015,45.367-25.42,2.1-1.287,4.249-2.6,6.384-3.9q1.782-.9,3.432-1.732c-15.167,9.238-35.4,21.159-51.131,30.283a1.094,1.094,0,0,0-.535,1.086.983.983,0,0,0,.073.278,2.174,2.174,0,0,0-.294.574,1.189,1.189,0,0,0-.04.15c-.523.548-.476.833-.326,1.126a2.136,2.136,0,0,0-.361.462c-.035-.042-.057-.066-.1-.113A1.255,1.255,0,0,1,133.557,167.147Zm7.912,8.561a3.21,3.21,0,0,0-.687-1.192c-.369-.416-.555-.6-.754-.8-.156-.157-.321-.321-.617-.647a3.168,3.168,0,0,0-1.182-.841,1.108,1.108,0,0,1-.456-.313,1.407,1.407,0,0,1-.336-.525,3.755,3.755,0,0,0-.713-1.12,3.112,3.112,0,0,0-1.172-.843,1.73,1.73,0,0,1-.2-.1,44.119,44.119,0,0,0,3.956-2.166c3.525-1.48,9.412-4.8,18.251-10.124-19.777,12.216-19.4,12.9-18.816,13.957a1.1,1.1,0,0,0,.66.523,1.073,1.073,0,0,0,.835-.1l.574-.321a2.649,2.649,0,0,0-.756.921,1.425,1.425,0,0,0,.1.955,1.128,1.128,0,0,0,.668.529c.484.13,1.1.353,45.616-24.645q-2.378,1.438-4.844,2.927c-15.187,8.735-31.562,18.636-39.281,23.341a1.084,1.084,0,0,0-.512,1.019l-.083-.068A.557.557,0,0,1,141.469,175.708Zm2.336,1.641a1.929,1.929,0,0,1-.625-.234l-.021-.011a1.038,1.038,0,0,0,.28-.1c.186-.109,18.814-11.034,37.086-22.024.191-.115.375-.227.563-.338,4.767-2.756,9.332-5.356,13.467-7.658-4.9,2.943-10.315,6.212-15.7,9.484-23.766,14.44-31.4,19.4-33.638,21.485-.054-.036-.08-.063-.142-.1A3.8,3.8,0,0,0,143.8,177.349Zm5.559,3.289a4.174,4.174,0,0,0-.987-.754,4.522,4.522,0,0,0-1.116-.465l-.02-.006c17.817-10.968,43.216-26.1,57.422-33.559l-54.205,33.78a1.1,1.1,0,0,0-.379,1.462c.012.02.034.034.046.054-.077-.043-.125-.08-.217-.125A1.667,1.667,0,0,1,149.364,180.638Zm5.167,1.983c-.289-.084-.49-.144-1.021-.341a3,3,0,0,0-1.5-.173.652.652,0,0,1-.471-.056,2.1,2.1,0,0,1-.621-.375l-.014-.01c.838.13,3.046-.937,36.86-20.155l2.328-1.323c-11.174,6.878-24.17,14.735-34.679,21.024a1.094,1.094,0,0,0-.4,1.471,1.209,1.209,0,0,0,.117.125ZM157,183.867a.775.775,0,0,1-.428-.253c-.083-.077-.193-.171-.318-.266a3.769,3.769,0,0,0,.768-.126.9.9,0,0,0,.178.613c.015.027.041.043.058.068A.8.8,0,0,1,157,183.867Zm9.5,1.42a2.753,2.753,0,0,1-.738-.165,5.1,5.1,0,0,0-1.146-.272c-.407-.054-.651-.077-.861-.1-.276-.027-.492-.049-1.021-.139-.024,0-.035,0-.057-.007,6.2-3.465,16.4-9.154,26.066-14.53l-21.425,14.06a1.083,1.083,0,0,0-.443,1.192Zm3.855.077a4.193,4.193,0,0,0-.812.016c.889-.514,1.773-1.026,2.7-1.562a1.216,1.216,0,0,0-.334.807c-.407.281-.446.413-.51.625-.013.043,0,.089-.013.133h-.036C171.09,185.383,170.87,185.392,170.354,185.364Zm5.612.235a1.277,1.277,0,0,1-.636.005,5.325,5.325,0,0,0-.554-.067l1.028-.569c1.22-.638,2.734-1.424,4.291-2.23.312-.16.625-.323.933-.483-1.156.753-1.972,1.308-2.537,1.732l-.593.362.047.075a2.559,2.559,0,0,0-.47.506,3.3,3.3,0,0,0-.958.438A1.3,1.3,0,0,1,175.966,185.6Zm12.257-3.27a6.413,6.413,0,0,0-.968.2l-.629.172c.951-.517,2.016-1.105,3.246-1.8l.518-.265c-.387.424-.487.687-.472.916a5.316,5.316,0,0,1-.945.538A1.98,1.98,0,0,1,188.223,182.329Zm19.221-14.008c-.1.145-.109.147-.355.225a3.946,3.946,0,0,0-.786.372c-.076.006-.15-.029-.225-.008.527-.352.972-.657,1.383-.943l.007.063A.508.508,0,0,1,207.444,168.321Zm5.321-10.3a3.915,3.915,0,0,0-.312,1.216,1.084,1.084,0,0,1-.193.578.876.876,0,0,1-.373.368,3.086,3.086,0,0,0-1.049,1.039,3.751,3.751,0,0,0-.254.489,2.042,2.042,0,0,0-.114-.243,1.179,1.179,0,0,0-.69-.54c-.359-.1-.908-.263-12.165,5.951l15.32-10.054a5.147,5.147,0,0,0-.043.594A1.164,1.164,0,0,1,212.765,158.017Z" fill="#40c1c9"/>
  </g>
</svg>
