<svg xmlns="http://www.w3.org/2000/svg" width="306" height="262" viewBox="0 0 306 262">
  <g id="グループ_8010" data-name="グループ 8010" transform="translate(21387.998 11047.351)">
    <rect id="長方形_5625" data-name="長方形 5625" width="306" height="262" transform="translate(-21387.998 -11047.351)" fill="#fff"/>
    <g id="レイヤー_2" data-name="レイヤー 2" transform="translate(-21387.998 -11047.351)">
      <g id="レイヤー_1" data-name="レイヤー 1" transform="translate(0 0)">
        <path id="パス_25982" data-name="パス 25982" d="M50.787,228.54c-.646.611-3.241,1.023-4.489,1.023-.206,0-.476,0-.476-.1-.242-1.023-2.217-12.075-2.693-13.368-.072-.135-.135-.206-.171-.206s-.171.206-.171.206a77.419,77.419,0,0,0-3,11.734c0,.269-2.316,1.023-4.13,1.023a.9.9,0,0,1-.476-.1c-1.194-1.194-4.7-17.839-4.7-22.893,0-.1,1.194-.9,3.447-.9a3.332,3.332,0,0,1,.817.1c.072,1.266.9,12,2.487,16.034,0,0,.072.242.171.242s.1-.072.171-.242c0,0,2.8-10.773,3.412-11.465a10.369,10.369,0,0,1,3.447-.476,5.51,5.51,0,0,1,1.365.206c.135.135,2.316,10.989,2.693,12.829,0,0,.171.718.44,0a52.313,52.313,0,0,0,2.352-13.817c0-.512-1.1-1.059-1.912-1.158a.9.9,0,0,1,0-.305,4.534,4.534,0,0,1,.413-1.8,27.957,27.957,0,0,1,6.213-.817,3.091,3.091,0,0,1,.548.1C56.488,211.85,51.434,227.884,50.787,228.54Z" transform="translate(-3.123 -20.07)" fill="#f6a631"/>
        <path id="パス_25983" data-name="パス 25983" d="M63.813,212.415A2.024,2.024,0,0,1,61.73,210.1a2.5,2.5,0,0,1,2.424-2.289,2.074,2.074,0,0,1,2.119,2.289A2.514,2.514,0,0,1,63.813,212.415Zm2.119,2.146c0,.171-.1,4.13-.1,7.263a31.271,31.271,0,0,0,.1,3.519,5.566,5.566,0,0,0,.9,2.693c0,.413-2.352,1.84-3.789,1.84-.135,0-.817-.9-1.023-3,0-.44-.072-1.571-.072-2.972,0-3.51.1-8.7.242-8.978a4.731,4.731,0,0,1,2.765-.61s.808.045.979.251Z" transform="translate(-6.318 -20.429)" fill="#40c1c9"/>
        <path id="パス_25984" data-name="パス 25984" d="M70.236,216.831a6.823,6.823,0,0,1,.171-2.289,5.234,5.234,0,0,1,3.106-.952c.305,0,.718.072.718.171,0,.269-.1,1.122-.1,1.8s0,.682.1.682.1-.072.1-.072a5.8,5.8,0,0,1,4.193-2.208c4.264,0,4.363,5.593,4.363,11.429,0,2.253-.1,3.986-.1,3.986a5.441,5.441,0,0,1-2.9.745,3.691,3.691,0,0,1-1.122-.171,53.354,53.354,0,0,0,.341-5.835c0-3.313-.135-5.9-2.011-5.9-2.217,0-2.828,2.424-2.828,2.424v4.336a25.238,25.238,0,0,1-.135,3.789c-.682.682-2.595.9-3.51.9-.269,0-.512,0-.512-.1a38.487,38.487,0,0,0,.233-5.045C70.334,221.813,70.236,218.842,70.236,216.831Z" transform="translate(-7.174 -21.02)" fill="#40c1c9"/>
        <path id="パス_25985" data-name="パス 25985" d="M96.516,226.948v-.135l-.1.1a5.081,5.081,0,0,1-4.489,2.217c-3.241,0-5.019-3.133-5.019-5.862,0-5.153,3.313-9.418,10.163-9.418,0,0,1.194,0,1.194.171a8.081,8.081,0,0,1,.1,1.257v.512h.3a3.932,3.932,0,0,1,1.472.206v4.336c0,3.169.072,7.128.072,8.08,0,9.382-6.518,10.989-9.139,10.989a5.881,5.881,0,0,1-1.266-3.591h.646C92.216,235.854,96.516,235.145,96.516,226.948Zm-.781-9.588a4.619,4.619,0,0,0-4.74,4.947,2.442,2.442,0,0,0,2.388,2.63,3.169,3.169,0,0,0,2.936-2.5c0-.512,0-4.157.135-4.983-.009-.09-.727-.09-.727-.09Z" transform="translate(-8.892 -21.046)" fill="#40c1c9"/>
        <path id="パス_25986" data-name="パス 25986" d="M105.739,230.8c-.341,0-1.329-1.436-1.329-3.034v-.233c3.923,0,5.458-1.742,5.458-2.828,0-1.975-5.458-3.034-5.458-5.97s4.264-5.557,8.08-5.557c.377,0,1.436,1.4,1.463,2.864-.512,0-4.74.718-4.74,2.523s5.324,2.693,5.387,6.284C114.68,228.792,108.405,230.8,105.739,230.8Z" transform="translate(-10.681 -20.978)" fill="#40c1c9"/>
        <path id="パス_25987" data-name="パス 25987" d="M140.229,229.113a8.976,8.976,0,0,0-.171-2.217.07.07,0,0,0-.072-.072l-.1.072a7.586,7.586,0,0,1-5.252,2.011c-6.2,0-8.906-4.57-8.906-10.27,0-5.01,1.948-13.646,13.134-13.646a13.269,13.269,0,0,1,3.34.476c.072.072.072.269.072.548a9.346,9.346,0,0,1-.548,3.277,8.564,8.564,0,0,0-3.591-.548c-4.641,0-7.918,3.106-7.918,9.516,0,3.824,1.5,6.617,4.911,6.617,3,0,4.74-2.217,4.74-2.936v-1.1a7.049,7.049,0,0,0-.206-2.289,11.671,11.671,0,0,0-3.169-.305,18.437,18.437,0,0,0-2.083.1c-.135,0-.135-.242-.135-.269a5.925,5.925,0,0,1,1.1-3.205c.233-.242,3.789-.476,8.08-.476a9.7,9.7,0,0,1,1.948.171,10.665,10.665,0,0,1-1.158,3.923s0,9.175-.233,9.552a5.315,5.315,0,0,1-3.133,1.194C140.534,229.239,140.229,229.239,140.229,229.113Z" transform="translate(-12.86 -20.14)" fill="#40c1c9"/>
        <path id="パス_25988" data-name="パス 25988" d="M154.109,222.128c0,1.293,0,2.352.072,2.9a5.512,5.512,0,0,0,.988,2.693c0,.413-2.352,1.84-3.789,1.84-.135,0-.9-.9-1.059-3v-3.591c0-3.483.135-6.922.135-12.344,0-3.447-.135-4.3-.135-4.677s1.975-1.23,3.205-1.23a2.429,2.429,0,0,1,.9.135c-.072.512-.171,6.284-.171,8.87S154.109,218.887,154.109,222.128Z" transform="translate(-15.374 -20.113)" fill="#40c1c9"/>
        <path id="パス_25989" data-name="パス 25989" d="M158,222.228a8.466,8.466,0,0,1,8.762-8.529,6.7,6.7,0,0,1,1.84.269,1.15,1.15,0,0,1,.072.476,9.3,9.3,0,0,1-.1,1.23c.341,0,3.887,1.194,3.887,6.006,0,4.058-2.559,7.981-7.3,7.981C160.594,229.662,158,226.537,158,222.228Zm7.945-3.447h-.269a1.183,1.183,0,0,1-.072-.44,5.519,5.519,0,0,1,.1-.988c-1.634,0-3.824,1.5-3.824,4.776,0,.341,0,4.094,3.277,4.094,1.607,0,3.376-1.194,3.376-4.228S166.663,218.781,165.945,218.781Z" transform="translate(-16.159 -21.03)" fill="#40c1c9"/>
        <path id="パス_25990" data-name="パス 25990" d="M177.15,230.188a55.111,55.111,0,0,0,.233-7.236c0-4.094-.072-9.076-.072-12.569a24.182,24.182,0,0,1,.171-4.435,5.332,5.332,0,0,1,3.142-1.158,2.144,2.144,0,0,1,.853.135c-.072.377-.341,6.994-.269,8.259h.548c2.047,0,8.565.476,8.565,7.182,0,4.57-4.363,7.434-9.076,8.188a7.777,7.777,0,0,1,0,.9c-.682.682-2.63.9-3.591.9C177.428,230.3,177.15,230.3,177.15,230.188Zm9.139-10.1a3.286,3.286,0,0,0-3.591-3.412c-.61,0-1.571.1-1.571.1v2.46a52.569,52.569,0,0,0,.135,5.53c.566-.036,5.036-.036,5.036-4.677Z" transform="translate(-18.117 -20.12)" fill="#40c1c9"/>
        <path id="パス_25991" data-name="パス 25991" d="M207.047,226.107a4.031,4.031,0,0,0,1.158,2.693c0,.413-2.182,1.876-3.789,1.876-.135,0-.9-.781-1.1-2.63v-.072l-.1.072a7.605,7.605,0,0,1-4.336,1.436c-3.07,0-4.947-1.607-4.947-4.489,0-5.97,7.882-6.751,8.565-6.751a.117.117,0,0,0,.072,0c0-.988-1.266-1.67-4.228-1.67a21.253,21.253,0,0,0-2.559.045h0a6.643,6.643,0,0,1,1.194-3.106,7.46,7.46,0,0,1,2.388-.242c5.189,0,7.577,1.948,7.577,6.069v1.769C206.949,222.83,206.949,225.388,207.047,226.107ZM203.16,222a3.016,3.016,0,0,0,0-.754c-1.23,0-5.01.61-5.01,3.07,0,.9.584,1.67,2.11,1.67A2.693,2.693,0,0,0,203.2,223.3Z" transform="translate(-19.834 -20.985)" fill="#40c1c9"/>
        <path id="パス_25992" data-name="パス 25992" d="M216.129,222.128c0,1.293,0,2.352.072,2.9a5.513,5.513,0,0,0,.988,2.693c0,.413-2.352,1.84-3.789,1.84-.135,0-.9-.9-1.059-3v-3.591c0-3.483.135-6.922.135-12.344,0-3.447-.135-4.3-.135-4.677s1.975-1.23,3.205-1.23a2.429,2.429,0,0,1,.9.135c-.072.512-.171,6.284-.171,8.87S216.129,218.887,216.129,222.128Z" transform="translate(-21.715 -20.113)" fill="#40c1c9"/>
        <path id="パス_25993" data-name="パス 25993" d="M238.271,218.023a44.394,44.394,0,0,0-4.489.1v2.8c0,3.412.207,6.284.269,6.859,0,.269-1.266.9-2.972.9a3.42,3.42,0,0,1-1.257-.171,40.825,40.825,0,0,1-.206-6.284V218.2a6.9,6.9,0,0,1-1.607-3.474,12.351,12.351,0,0,1,1.67-.1c0-2.424,0-4.489,0-5.557v-.718a8.63,8.63,0,0,1-.9-3.241.26.26,0,0,1,0-.171h.718c2.181,0,4.489.817,4.489,1.158s-.242,4.435-.242,7.775v.682h4.534a16.073,16.073,0,0,1,2.523.072c0-4.157.269-8.457.269-8.592a5.908,5.908,0,0,1,3.591-1.158c.135,0,.44,0,.44.135,0,0-.377,5.019-.377,10.773,0,6.688.206,10.639,1.84,12.281,0,.072-.072.135-.1.171a7.82,7.82,0,0,1-4.022,1.194,1.229,1.229,0,0,1-.413-.072c-.781-.781-1.122-2.011-1.194-11.222A14.867,14.867,0,0,0,238.271,218.023Z" transform="translate(-23.317 -20.129)" fill="#f6a631"/>
        <path id="パス_25994" data-name="パス 25994" d="M251.49,222.228a8.466,8.466,0,0,1,8.762-8.529,6.7,6.7,0,0,1,1.84.269,1.149,1.149,0,0,1,.072.476,9.3,9.3,0,0,1-.1,1.23c.341,0,3.887,1.194,3.887,6.006,0,4.058-2.559,7.981-7.3,7.981C254.085,229.662,251.49,226.537,251.49,222.228Zm7.945-3.447h-.305a1.184,1.184,0,0,1-.072-.44,5.521,5.521,0,0,1,.1-.988c-1.634,0-3.824,1.5-3.824,4.776,0,.341,0,4.094,3.277,4.094,1.607,0,3.376-1.194,3.376-4.228S260.153,218.781,259.435,218.781Z" transform="translate(-25.717 -21.03)" fill="#40c1c9"/>
        <path id="パス_25995" data-name="パス 25995" d="M282.572,224.493a13.023,13.023,0,0,1-.135,2.693,5.118,5.118,0,0,1-2.864.682,3.329,3.329,0,0,1-1.1-.171,41.949,41.949,0,0,0,.305-5.189c0-2.765-.072-4.327-1.535-4.327-1.8,0-2.693,2.352-2.693,2.765v4.327a22.116,22.116,0,0,1-.135,3.51c-.781.754-2.352.817-3.591.817-.135,0-.269,0-.269-.1a37.59,37.59,0,0,0,.233-5.009c0-2.765-.1-5.9-.1-8.017a8.3,8.3,0,0,1,.171-2.352,4.983,4.983,0,0,1,2.971-1.023c.305,0,.718.072.718.135,0,.377-.135,2.253-.135,2.9,0,0,0,.171.072.171s.072,0,.135-.072,1.84-2.011,3.681-2.011a3.457,3.457,0,0,1,3.34,1.975,5.43,5.43,0,0,1,4.3-2.693c4.264,0,4.363,6.069,4.363,11.9,0,2.253-.135,3.986-.135,3.986a5.44,5.44,0,0,1-2.936.682,3.331,3.331,0,0,1-1.1-.171,55.865,55.865,0,0,0,.377-6.006c0-3.483-.135-5.934-2.083-5.934a2.442,2.442,0,0,0-2.047,1.5A32.175,32.175,0,0,1,282.572,224.493Z" transform="translate(-27.667 -20.97)" fill="#40c1c9"/>
        <path id="パス_25996" data-name="パス 25996" d="M295.31,222.383c0-4.435,2.693-8.493,8.259-8.493,1.607,0,4.3.682,4.3,3.717,0,2.9-2.559,6.006-6.922,7.505,0,.206.718.9,2.487.9a8.25,8.25,0,0,0,4.094-.9.117.117,0,0,1,.072,0c.072,0,.1.449.1.646a5.522,5.522,0,0,1-.9,3.07s-1.158.781-4.489.781C297.59,229.583,295.31,226.378,295.31,222.383ZM302.815,217c-1.84,0-3.519,2.182-3.519,4.875,0,.377,0,.476.135.476,1.436,0,4.435-2.083,4.435-4.363a.961.961,0,0,0-1.05-1.023Z" transform="translate(-30.197 -21.05)" fill="#40c1c9"/>
        <path id="パス_25997" data-name="パス 25997" d="M78.387,249.73l2.891,7.855H79.59l-.61-1.8H76.07l-.619,1.8H73.79l3.052-7.855Zm.189,4.893-.646-1.876q-.117-.332-.207-.619c-.054-.189-.117-.386-.171-.584H77.5q-.162.61-.377,1.212l-.655,1.867Z" transform="translate(-7.55 -24.714)" fill="#40c1c9"/>
        <path id="パス_25998" data-name="パス 25998" d="M84.481,252.015v-.844a2.047,2.047,0,0,1,.5-1.49,1.984,1.984,0,0,1,1.481-.512,3.616,3.616,0,0,1,.512,0,3.042,3.042,0,0,1,.44.09v1.275l-.314-.072h-.314a.7.7,0,0,0-.584.216.9.9,0,0,0-.171.584V252h1.194v1.311H86.052v4.2H84.481v-4.183H83.7v-1.311Z" transform="translate(-8.564 -24.656)" fill="#40c1c9"/>
        <path id="パス_25999" data-name="パス 25999" d="M89.781,252.136v-1.8h1.562v1.8h1.3v1.311h-1.3v2.146a.961.961,0,0,0,.162.646.709.709,0,0,0,.53.171h.341a1.933,1.933,0,0,0,.332-.072V257.6a3.8,3.8,0,0,1-.539.108,4.036,4.036,0,0,1-.539,0,2.388,2.388,0,0,1-.9-.135,1.4,1.4,0,0,1-.575-.4,1.535,1.535,0,0,1-.314-.628,3.356,3.356,0,0,1-.09-.817v-2.289H89.09v-1.311Z" transform="translate(-9.115 -24.777)" fill="#40c1c9"/>
        <path id="パス_26000" data-name="パス 26000" d="M99.094,252.371a2.594,2.594,0,0,1,.9.637,2.694,2.694,0,0,1,.539.9,3.331,3.331,0,0,1,.189,1.1v.2a1.121,1.121,0,0,1,0,.215H96.571a1.293,1.293,0,0,0,.117.539,1.588,1.588,0,0,0,.305.449,1.426,1.426,0,0,0,.449.314,1.356,1.356,0,0,0,.557.117,1.284,1.284,0,0,0,.646-.153,1.39,1.39,0,0,0,.458-.422h1.508a3.361,3.361,0,0,1-.359.664,2.415,2.415,0,0,1-.539.557,2.539,2.539,0,0,1-.754.377,3.185,3.185,0,0,1-.97.135,3.105,3.105,0,0,1-1.158-.215,2.693,2.693,0,0,1-.9-.61,2.855,2.855,0,0,1-.619-.943A3.214,3.214,0,0,1,95.09,255a3.294,3.294,0,0,1,.189-1.122,2.694,2.694,0,0,1,.557-.9,2.6,2.6,0,0,1,.9-.628,2.962,2.962,0,0,1,1.2-.233A2.9,2.9,0,0,1,99.094,252.371Zm-1.733.943a1.221,1.221,0,0,0-.4.26,1.285,1.285,0,0,0-.26.377,1.375,1.375,0,0,0-.117.44h2.577a1.382,1.382,0,0,0-.4-.826,1.194,1.194,0,0,0-.9-.35,1.31,1.31,0,0,0-.512.1Z" transform="translate(-9.728 -24.959)" fill="#40c1c9"/>
        <path id="パス_26001" data-name="パス 26001" d="M107.189,253.618h-.413a1.284,1.284,0,0,0-1.032.413,1.742,1.742,0,0,0-.35,1.158v2.693H103.84v-5.521h1.517v.853h0a2.29,2.29,0,0,1,.646-.709,1.588,1.588,0,0,1,.97-.305,2.281,2.281,0,0,1,.5.045V253.7Z" transform="translate(-10.623 -24.967)" fill="#40c1c9"/>
        <path id="パス_26002" data-name="パス 26002" d="M112.535,253.342a.62.62,0,0,0-.44-.162.556.556,0,0,0-.422.153.467.467,0,0,0-.144.332.558.558,0,0,0,0,.215.512.512,0,0,0,.162.2,1.688,1.688,0,0,0,.341.2,5.111,5.111,0,0,0,.566.216,2.612,2.612,0,0,1,1.23.727,1.589,1.589,0,0,1,.359,1.032,1.705,1.705,0,0,1-.144.7,1.66,1.66,0,0,1-.413.566,1.885,1.885,0,0,1-.664.377,2.853,2.853,0,0,1-.9.135,2.173,2.173,0,0,1-1.571-.5,1.9,1.9,0,0,1-.557-1.311h1.392a.9.9,0,0,0,.206.539.718.718,0,0,0,.566.206.619.619,0,0,0,.467-.171.575.575,0,0,0,.171-.413.6.6,0,0,0-.233-.485,2.845,2.845,0,0,0-.9-.4,2.882,2.882,0,0,1-1.185-.655,1.445,1.445,0,0,1-.4-1.059,1.562,1.562,0,0,1,.144-.673,1.455,1.455,0,0,1,.413-.521,2.01,2.01,0,0,1,.628-.332,2.578,2.578,0,0,1,.808-.117,1.993,1.993,0,0,1,1.418.476,1.93,1.93,0,0,1,.593,1.194h-1.347A.674.674,0,0,0,112.535,253.342Z" transform="translate(-11.246 -24.959)" fill="#40c1c9"/>
        <path id="パス_26003" data-name="パス 26003" d="M120.821,252.322a2.559,2.559,0,0,1,.781.476,2.414,2.414,0,0,1,.512.646,2.548,2.548,0,0,1,.26.7H120.83a.961.961,0,0,0-.377-.512,1.329,1.329,0,0,0-1.679.26,1.8,1.8,0,0,0-.359,1.176,2.12,2.12,0,0,0,.09.637,1.6,1.6,0,0,0,.269.521,1.258,1.258,0,0,0,.44.35,1.339,1.339,0,0,0,.592.126,1.051,1.051,0,0,0,.718-.233,1.329,1.329,0,0,0,.377-.53h1.58a3.381,3.381,0,0,1-.332.808,2.487,2.487,0,0,1-.557.664,2.621,2.621,0,0,1-.781.449,2.916,2.916,0,0,1-1.023.171,3.2,3.2,0,0,1-1.149-.206,2.7,2.7,0,0,1-.9-.6,2.847,2.847,0,0,1-.628-.9,3.123,3.123,0,0,1-.233-1.23,3.2,3.2,0,0,1,.2-1.131,2.693,2.693,0,0,1,1.508-1.562,3.122,3.122,0,0,1,1.23-.233,2.81,2.81,0,0,1,1.005.153Z" transform="translate(-11.956 -24.964)" fill="#40c1c9"/>
        <path id="パス_26004" data-name="パス 26004" d="M127.121,249.25v3.465h.045a1.7,1.7,0,0,1,.718-.664,2.119,2.119,0,0,1,.9-.2,2.245,2.245,0,0,1,.844.153,1.8,1.8,0,0,1,.664.467,2.19,2.19,0,0,1,.431.79,3.59,3.59,0,0,1,.153,1.113v3.169h-1.553v-3.079a1.365,1.365,0,0,0-.278-.9.961.961,0,0,0-.763-.314,1.1,1.1,0,0,0-.844.35,1.49,1.49,0,0,0-.332,1.05v2.918H125.55v-8.3Z" transform="translate(-12.842 -24.665)" fill="#40c1c9"/>
        <path id="パス_26005" data-name="パス 26005" d="M134.093,253.9a2.8,2.8,0,0,1,.619-.9,2.838,2.838,0,0,1,.9-.61,3.06,3.06,0,0,1,1.167-.215,3.1,3.1,0,0,1,1.194.224,2.774,2.774,0,0,1,.9.619,2.819,2.819,0,0,1,.6.9,3.07,3.07,0,0,1,.215,1.167,2.989,2.989,0,0,1-.215,1.149,2.9,2.9,0,0,1-2.693,1.8,2.982,2.982,0,0,1-1.176-.233,2.874,2.874,0,0,1-.9-.629,2.918,2.918,0,0,1-.619-.9,3.161,3.161,0,0,1,0-2.343Zm1.445,1.8a1.436,1.436,0,0,0,.3.494,1.375,1.375,0,0,0,.44.323,1.275,1.275,0,0,0,.548.117,1.23,1.23,0,0,0,1.005-.449,1.706,1.706,0,0,0,.368-1.113,1.932,1.932,0,0,0-.09-.6,1.535,1.535,0,0,0-.26-.494,1.257,1.257,0,0,0-.431-.341,1.311,1.311,0,0,0-.584-.126,1.248,1.248,0,0,0-1.023.44,1.715,1.715,0,0,0-.359,1.122,1.849,1.849,0,0,0,.09.646Z" transform="translate(-13.692 -24.965)" fill="#40c1c9"/>
        <path id="パス_26006" data-name="パス 26006" d="M142.7,253.9a2.8,2.8,0,0,1,.62-.9,2.838,2.838,0,0,1,.9-.61,3.279,3.279,0,0,1,2.361.009,2.772,2.772,0,0,1,.9.619,2.817,2.817,0,0,1,.6.9,3.08,3.08,0,0,1,.215,1.167,3.008,3.008,0,0,1-.215,1.149,2.9,2.9,0,0,1-2.693,1.8,2.982,2.982,0,0,1-1.176-.233,2.872,2.872,0,0,1-.9-.629,2.917,2.917,0,0,1-.619-.9,3.16,3.16,0,0,1,0-2.343Zm1.445,1.8a1.455,1.455,0,0,0,.3.494,1.382,1.382,0,0,0,.44.323,1.284,1.284,0,0,0,.548.117,1.23,1.23,0,0,0,1.005-.449,1.705,1.705,0,0,0,.368-1.113,1.93,1.93,0,0,0-.09-.6,1.545,1.545,0,0,0-.269-.494,1.256,1.256,0,0,0-.431-.341,1.311,1.311,0,0,0-.584-.126,1.248,1.248,0,0,0-1.023.44,1.714,1.714,0,0,0-.359,1.122,1.848,1.848,0,0,0,.1.646Z" transform="translate(-14.572 -24.965)" fill="#40c1c9"/>
        <path id="パス_26007" data-name="パス 26007" d="M153.053,249.25v8.3H151.5v-8.3Z" transform="translate(-15.495 -24.665)" fill="#40c1c9"/>
        <path id="パス_26008" data-name="パス 26008" d="M166.695,253.6v.09a3.9,3.9,0,0,1-.215,1.293,3.44,3.44,0,0,1-.575,1.05,1.7,1.7,0,0,0,.422.359.8.8,0,0,0,.386.108h.341v1.23l-.26.054a2.151,2.151,0,0,1-.341,0,1.688,1.688,0,0,1-.808-.18,2.6,2.6,0,0,1-.691-.584,3.752,3.752,0,0,1-.4.269,3.842,3.842,0,0,1-.5.251,3.379,3.379,0,0,1-.6.189,3.591,3.591,0,0,1-1.8-.117,2.28,2.28,0,0,1-.8-.494,1.921,1.921,0,0,1-.467-.718,2.459,2.459,0,0,1-.153-.9,2.119,2.119,0,0,1,.431-1.347,3.779,3.779,0,0,1,1.221-.97,6.036,6.036,0,0,1-.485-.9,2.353,2.353,0,0,1-.206-.979,1.9,1.9,0,0,1,.126-.682,1.652,1.652,0,0,1,.4-.6,1.994,1.994,0,0,1,.691-.431,3.1,3.1,0,0,1,1.867,0,2.048,2.048,0,0,1,.682.359,1.634,1.634,0,0,1,.61,1.311,1.8,1.8,0,0,1-.449,1.248,4.273,4.273,0,0,1-1.311.961l1.194,1.544a2.406,2.406,0,0,0,.224-.584,3.109,3.109,0,0,0,.072-.727V253.6Zm-3.133,2.819a1.912,1.912,0,0,0,.53-.332l-1.535-1.948a2.2,2.2,0,0,0-.655.628,1.283,1.283,0,0,0-.206.7,1.122,1.122,0,0,0,.081.422,1.034,1.034,0,0,0,.233.35,1.148,1.148,0,0,0,.359.242,1.185,1.185,0,0,0,.476.09,1.723,1.723,0,0,0,.718-.153Zm-.79-4.489a2.6,2.6,0,0,0,.341.575,2.793,2.793,0,0,0,.79-.539.952.952,0,0,0,.269-.682.7.7,0,0,0-.189-.458.745.745,0,0,0-.593-.215.789.789,0,0,0-.332.063.69.69,0,0,0-.233.171.638.638,0,0,0-.135.224.736.736,0,0,0,0,.233,1.633,1.633,0,0,0,.072.673Z" transform="translate(-16.388 -24.686)" fill="#40c1c9"/>
        <path id="パス_26009" data-name="パス 26009" d="M176.574,254.459l-.242.251v2.855H174.68V249.71h1.652v3.008l2.855-3.008h2.065l-3.3,3.4,3.69,4.489h-2.092l-2.693-3.367Z" transform="translate(-17.865 -24.712)" fill="#40c1c9"/>
        <path id="パス_26010" data-name="パス 26010" d="M185.814,249.4v1.49H184.18V249.4Zm-.045,2.639v5.521h-1.553v-5.521Z" transform="translate(-18.836 -24.681)" fill="#40c1c9"/>
        <path id="パス_26011" data-name="パス 26011" d="M190.38,252.32v.691h.045a1.7,1.7,0,0,1,.718-.664,2.147,2.147,0,0,1,.9-.2,1.993,1.993,0,0,1,1.517.628,2.693,2.693,0,0,1,.584,1.894v3.169h-1.571V254.78a1.392,1.392,0,0,0-.278-.9.952.952,0,0,0-.763-.314,1.1,1.1,0,0,0-.844.359,1.5,1.5,0,0,0-.332,1.05V257.9H188.8v-5.521Z" transform="translate(-19.308 -24.962)" fill="#40c1c9"/>
        <path id="パス_26012" data-name="パス 26012" d="M201.508,257.54v-.6h0a2.63,2.63,0,0,1-.718.548,2.235,2.235,0,0,1-1.1.251,2.379,2.379,0,0,1-1.652-.7,2.883,2.883,0,0,1-.61-.9,3.366,3.366,0,0,1-.242-1.347,3.25,3.25,0,0,1,.215-1.194,2.928,2.928,0,0,1,.575-.9,2.521,2.521,0,0,1,.835-.6,2.423,2.423,0,0,1,1-.215,1.975,1.975,0,0,1,1.014.233,2.183,2.183,0,0,1,.655.584h.027V249.29h1.517v8.3Zm-2.693-2.164a1.525,1.525,0,0,0,.269.512,1.363,1.363,0,0,0,.44.359,1.328,1.328,0,0,0,.619.135,1.221,1.221,0,0,0,.521-.117,1.337,1.337,0,0,0,.44-.332,1.678,1.678,0,0,0,.305-.5,1.733,1.733,0,0,0,.117-.637,2.05,2.05,0,0,0-.108-.664,1.526,1.526,0,0,0-.287-.521,1.338,1.338,0,0,0-.44-.332,1.24,1.24,0,0,0-.539-.117,1.32,1.32,0,0,0-.628.144,1.374,1.374,0,0,0-.449.377,1.589,1.589,0,0,0-.269.521,2.038,2.038,0,0,0,0,1.176Z" transform="translate(-20.166 -24.669)" fill="#40c1c9"/>
        <path id="パス_26013" data-name="パス 26013" d="M210.229,252.371a2.594,2.594,0,0,1,.9.637,2.7,2.7,0,0,1,.539.9,3.333,3.333,0,0,1,.188,1.1v.2a1.12,1.12,0,0,1,0,.215h-4.1a1.294,1.294,0,0,0,.117.539,1.586,1.586,0,0,0,.305.449,1.426,1.426,0,0,0,.449.314,1.357,1.357,0,0,0,.557.117,1.284,1.284,0,0,0,.646-.153,1.391,1.391,0,0,0,.458-.422h1.508a3.358,3.358,0,0,1-.359.664,2.414,2.414,0,0,1-.539.557,2.54,2.54,0,0,1-.754.377,3.185,3.185,0,0,1-.97.135,3.1,3.1,0,0,1-1.158-.215,2.693,2.693,0,0,1-.9-.61,2.855,2.855,0,0,1-.62-.943,3.213,3.213,0,0,1-.224-1.23,3.3,3.3,0,0,1,.189-1.122,2.694,2.694,0,0,1,.557-.9,2.6,2.6,0,0,1,.9-.628,2.962,2.962,0,0,1,1.2-.233A2.9,2.9,0,0,1,210.229,252.371Zm-1.733.943a1.221,1.221,0,0,0-.4.26,1.285,1.285,0,0,0-.26.377,1.373,1.373,0,0,0-.117.44H210.3a1.383,1.383,0,0,0-.4-.826,1.194,1.194,0,0,0-.9-.35,1.31,1.31,0,0,0-.512.1Z" transform="translate(-21.094 -24.959)" fill="#40c1c9"/>
        <path id="パス_26014" data-name="パス 26014" d="M218.322,253.618h-.413a1.283,1.283,0,0,0-1.032.413,1.741,1.741,0,0,0-.35,1.158v2.693H215v-5.521h1.517v.853h0a2.291,2.291,0,0,1,.646-.709,1.589,1.589,0,0,1,.97-.305,2.281,2.281,0,0,1,.5.045V253.7Z" transform="translate(-21.987 -24.967)" fill="#40c1c9"/>
        <path id="パス_26015" data-name="パス 26015" d="M226.175,260.013a2.873,2.873,0,0,1-2.244.8,2.909,2.909,0,0,1-1.885-.584,2.5,2.5,0,0,1-.9-1.625H222.7a1.247,1.247,0,0,0,.4.673,1.347,1.347,0,0,0,.9.269,1.3,1.3,0,0,0,1.059-.422,1.867,1.867,0,0,0,.359-1.23v-.7h0a2.379,2.379,0,0,1-.7.566,2.2,2.2,0,0,1-1.068.233,2.55,2.55,0,0,1-1.014-.2,2.388,2.388,0,0,1-.826-.584,2.855,2.855,0,0,1-.557-.9,3.32,3.32,0,0,1-.206-1.2,3.266,3.266,0,0,1,.2-1.158,2.791,2.791,0,0,1,.557-.9,2.694,2.694,0,0,1,.844-.611,2.524,2.524,0,0,1,1.068-.224,2.177,2.177,0,0,1,.583.072,2.059,2.059,0,0,1,.476.2,1.8,1.8,0,0,1,.359.269,2.152,2.152,0,0,1,.251.3h.054v-.664h1.454v5.387a3.394,3.394,0,0,1-.709,2.235Zm-3.483-4.4a1.444,1.444,0,0,0,.251.494,1.329,1.329,0,0,0,.44.359,1.356,1.356,0,0,0,.637.135,1.328,1.328,0,0,0,.575-.09,1.375,1.375,0,0,0,.449-.314,1.471,1.471,0,0,0,.3-.485,1.734,1.734,0,0,0,.108-.628,1.8,1.8,0,0,0-.108-.646,1.59,1.59,0,0,0-.3-.494,1.231,1.231,0,0,0-.44-.314,1.392,1.392,0,0,0-.548-.108,1.311,1.311,0,0,0-1.05.485,1.554,1.554,0,0,0-.269.5,1.8,1.8,0,0,0-.09.575,2.02,2.02,0,0,0,.045.53Z" transform="translate(-22.604 -24.969)" fill="#40c1c9"/>
        <path id="パス_26016" data-name="パス 26016" d="M234.385,257.839v-.691h-.045a2.406,2.406,0,0,1-.691.619,2.1,2.1,0,0,1-1.1.26,2.407,2.407,0,0,1-.844-.17,2.362,2.362,0,0,1-.808-.521,2.81,2.81,0,0,1-.611-.9,3.367,3.367,0,0,1-.242-1.347,3.243,3.243,0,0,1,.215-1.2,2.818,2.818,0,0,1,.575-.9,2.488,2.488,0,0,1,.835-.584,2.522,2.522,0,0,1,1.006-.2,2.029,2.029,0,0,1,1.05.269,1.794,1.794,0,0,1,.359.278,2.591,2.591,0,0,1,.269.314h.045v-.718h1.5v5.521Zm-2.693-2.164a1.581,1.581,0,0,0,.26.512,1.239,1.239,0,0,0,.44.359,1.4,1.4,0,0,0,.637.135,1.222,1.222,0,0,0,.521-.117,1.385,1.385,0,0,0,.44-.323,1.607,1.607,0,0,0,.305-.5,1.733,1.733,0,0,0,.117-.637,2,2,0,0,0-.108-.655,1.462,1.462,0,0,0-.287-.5,1.293,1.293,0,0,0-.979-.44,1.292,1.292,0,0,0-1.077.494,1.536,1.536,0,0,0-.269.5,1.966,1.966,0,0,0-.09.584A2.029,2.029,0,0,0,231.692,255.675Z" transform="translate(-23.524 -24.968)" fill="#40c1c9"/>
        <path id="パス_26017" data-name="パス 26017" d="M242.789,253.618h-.413a1.283,1.283,0,0,0-1.032.413,1.742,1.742,0,0,0-.35,1.158v2.693H239.44v-5.521h1.517v.853h0a2.29,2.29,0,0,1,.646-.709,1.58,1.58,0,0,1,.97-.305,2.28,2.28,0,0,1,.5.045V253.7Z" transform="translate(-24.485 -24.967)" fill="#40c1c9"/>
        <path id="パス_26018" data-name="パス 26018" d="M245.922,252.136v-1.8h1.571v1.8h1.3v1.311h-1.3v2.146a.96.96,0,0,0,.162.646.709.709,0,0,0,.53.171h.341a1.92,1.92,0,0,0,.332-.072V257.6a3.8,3.8,0,0,1-.539.108,4.038,4.038,0,0,1-.539,0,2.388,2.388,0,0,1-.9-.135,1.391,1.391,0,0,1-.575-.4,1.537,1.537,0,0,1-.314-.628,3.4,3.4,0,0,1-.09-.817v-2.289h-.664v-1.311Z" transform="translate(-25.078 -24.777)" fill="#40c1c9"/>
        <path id="パス_26019" data-name="パス 26019" d="M255.239,252.371a2.6,2.6,0,0,1,.9.637,2.693,2.693,0,0,1,.539.9,3.342,3.342,0,0,1,.189,1.1v.2a1.124,1.124,0,0,1,0,.215h-4.1a1.293,1.293,0,0,0,.117.539,1.569,1.569,0,0,0,.305.449,1.438,1.438,0,0,0,.449.314,1.356,1.356,0,0,0,.557.117,1.284,1.284,0,0,0,.646-.153,1.4,1.4,0,0,0,.458-.422H256.8a3.331,3.331,0,0,1-.359.664,2.416,2.416,0,0,1-.539.557,2.539,2.539,0,0,1-.754.377,3.185,3.185,0,0,1-.97.135,3.105,3.105,0,0,1-1.158-.215,2.693,2.693,0,0,1-.9-.61,2.855,2.855,0,0,1-.619-.943,3.2,3.2,0,0,1-.224-1.23,3.277,3.277,0,0,1,.189-1.122,2.694,2.694,0,0,1,.557-.9,2.6,2.6,0,0,1,.9-.628,2.962,2.962,0,0,1,1.2-.233,2.9,2.9,0,0,1,1.113.251Zm-1.733.943a1.23,1.23,0,0,0-.395.26,1.285,1.285,0,0,0-.26.377,1.392,1.392,0,0,0-.117.44h2.577a1.383,1.383,0,0,0-.395-.826,1.194,1.194,0,0,0-.9-.35A1.312,1.312,0,0,0,253.506,253.314Z" transform="translate(-25.696 -24.959)" fill="#40c1c9"/>
        <path id="パス_26020" data-name="パス 26020" d="M261.517,252.32v.691h.045a1.7,1.7,0,0,1,.718-.664,2.146,2.146,0,0,1,.9-.2,1.993,1.993,0,0,1,1.517.628,2.693,2.693,0,0,1,.583,1.894v3.169h-1.553V254.78a1.391,1.391,0,0,0-.278-.9.952.952,0,0,0-.763-.314,1.1,1.1,0,0,0-.844.359,1.5,1.5,0,0,0-.332,1.05V257.9H260v-5.521Z" transform="translate(-26.587 -24.962)" fill="#40c1c9"/>
        <path id="パス_26021" data-name="パス 26021" d="M208,132.067a2.253,2.253,0,0,0-.808-1.885,1.8,1.8,0,0,0-1.661-.682H204.5a8.3,8.3,0,0,0-1.131,0,5.786,5.786,0,0,0-1.1.135c-.153,0-.323.072-.61.108a4.241,4.241,0,0,0-.9.224,1.578,1.578,0,0,1-.593.108.449.449,0,0,1-.323-.09,2.5,2.5,0,0,0-1.185-.359,3.707,3.707,0,0,0-1.05.054,2.837,2.837,0,0,1-.61,0,3.523,3.523,0,0,1-.637-.072,4.648,4.648,0,0,0-1.015-.09,3.061,3.061,0,0,0-1.158.206,1.519,1.519,0,0,1-.512.108,3.7,3.7,0,0,0-1.05.206,2.4,2.4,0,0,1-.539.126c-.072.045-.206-.054-.332-.117a1.634,1.634,0,0,0-2.02.26,1.652,1.652,0,0,0-.206,1.966,1,1,0,0,1,.117.359,7.556,7.556,0,0,1-.063.9l-.054.5a4.817,4.817,0,0,0,0,.979,2.226,2.226,0,0,1,0,.673,4.247,4.247,0,0,0-.054.979,1.167,1.167,0,0,1-.09.593c0,.117,0,.117-.215.215a2.514,2.514,0,0,0-.97.9,3.1,3.1,0,0,0-.431,1.149,1.409,1.409,0,0,1-.18.521,2.837,2.837,0,0,1-.35.521,4.23,4.23,0,0,0-.575.9,3.3,3.3,0,0,0-.332,1.077,1.374,1.374,0,0,1-.162.521,2.352,2.352,0,0,1-.35.539,4.238,4.238,0,0,0-.566.9,1.643,1.643,0,0,1-.368.53,5.09,5.09,0,0,0-.575.682,1.867,1.867,0,0,1-.449.494,5.632,5.632,0,0,0-.611.566c-.233.242-.368.4-.485.53a5.323,5.323,0,0,1-.6.6,2.361,2.361,0,0,0-.736,1.149c-.063.189-.063.189-.162.269a4.07,4.07,0,0,1-.521.332,4.173,4.173,0,0,0-.9.646,1.373,1.373,0,0,1-.458.278,2.828,2.828,0,0,0-1.059.745q-.237.249-.449.521a1.329,1.329,0,0,1-.539.431,4.1,4.1,0,0,0-.763.557.763.763,0,0,1-.467.242.61.61,0,0,1-.386,0,2.137,2.137,0,0,0-1.544.072,7.559,7.559,0,0,0-1.5.763l-.18.108a2.433,2.433,0,0,0-.9,1.005l-.18.189a.718.718,0,0,1-.485,0,3.509,3.509,0,0,0-1.059,0,2.945,2.945,0,0,0-1.131.377.772.772,0,0,1-.449.135.521.521,0,0,1-.386-.108,2.693,2.693,0,0,0-1.212-.368,2.829,2.829,0,0,1-.61-.1A4.139,4.139,0,0,0,164.94,155a2.352,2.352,0,0,0-1.356.422.718.718,0,0,1-.4.153l-.494.054a2.882,2.882,0,0,1-1.014,0,.458.458,0,0,1-.35-.162,2.963,2.963,0,0,0-.979-.6,4.176,4.176,0,0,1-.619-.287,4.99,4.99,0,0,0-.979-.431,4,4,0,0,0-1.086-.215,2.588,2.588,0,0,1-.61-.108l-.4-.108a6.274,6.274,0,0,1-1.059-.377,3.3,3.3,0,0,0-1.05-.26.9.9,0,0,1-.476-.153l-.763-.422-.7-.386-1.445-.835a.6.6,0,0,1-.287-.3,3.026,3.026,0,0,0-.988-1.006,10.621,10.621,0,0,1-1.1-.853c-.332-.278-.476-.413-.637-.557l-.6-.539a3.911,3.911,0,0,1-.494-.512,5.565,5.565,0,0,0-.682-.709,2.693,2.693,0,0,0-1.05-.593c-.171-.054-.171-.054-.26-.18a.44.44,0,0,1-.117-.35,2.828,2.828,0,0,0-.242-1.14,4.56,4.56,0,0,0-.512-.9,2.918,2.918,0,0,1-.323-.584,3.8,3.8,0,0,1-.224-.646,5.385,5.385,0,0,0-.314-.9,2.971,2.971,0,0,0-.682-1.005,1.212,1.212,0,0,1-.305-.422,4.831,4.831,0,0,1-.26-.637,5.573,5.573,0,0,0-.413-.961c-.171-.314-.287-.5-.386-.664a3.8,3.8,0,0,1-.368-.727,4.19,4.19,0,0,0-.485-.9,1.741,1.741,0,0,1-.3-.673,7.234,7.234,0,0,1-.287-1.436,4.645,4.645,0,0,1,0-.979v-.476a1.529,1.529,0,0,1,.2-.3,1.571,1.571,0,0,0,.126-2.11,1.93,1.93,0,0,0-1.858-.655,1.715,1.715,0,0,1-.485,0,2.954,2.954,0,0,0-1.194,0,1.858,1.858,0,0,1-.521.045h-.458a9.858,9.858,0,0,0-1.248,0,2.149,2.149,0,0,1-.628,0,4.933,4.933,0,0,0-.9-.1,2.28,2.28,0,0,0-1.32.377c-.162.09-.162.09-.26.09s-.063,0-.215-.144a1.984,1.984,0,0,0-1.454-.619h0a1.984,1.984,0,0,0-1.454.61c-.144.135-.144.135-.215.135a2.444,2.444,0,0,1-.619,0,4.082,4.082,0,0,0-1.006,0,.844.844,0,0,1-.4-.063,2.612,2.612,0,0,0-1.194-.171h-.368a1.948,1.948,0,0,0-1.652.772,1.867,1.867,0,0,0-.619,1.706v.359a6.283,6.283,0,0,0-.1.934c0,.144.054.314.081.593a6.334,6.334,0,0,1,0,.646,5.662,5.662,0,0,0,.108,1.068,3.951,3.951,0,0,0,.305.988,1.724,1.724,0,0,1,.162.557c.054.35.09.557.117.736s.072.413.126.9a3.143,3.143,0,0,0,.332,1.158,2.3,2.3,0,0,1,.189.512.943.943,0,0,1,0,.449,2.433,2.433,0,0,0,.162,1.347,5.243,5.243,0,0,1,.278.835,2.869,2.869,0,0,0,.162.619,3.062,3.062,0,0,0,.494,1.023.781.781,0,0,1,.18.422,5.045,5.045,0,0,0,.323,1.221l.18.494a5.636,5.636,0,0,0,.53,1.221l.206.377a.836.836,0,0,1,.117.431,2.63,2.63,0,0,0,.341,1.2,4.928,4.928,0,0,0,.539.826,3.516,3.516,0,0,1,.368.557,1.481,1.481,0,0,1,.18.5,3.071,3.071,0,0,0,.449,1.113,3.024,3.024,0,0,0,.817.9,1.437,1.437,0,0,1,.377.377,3.87,3.87,0,0,0,.718.781,2.116,2.116,0,0,1,.413.44,2.809,2.809,0,0,1,.323.557,4.487,4.487,0,0,0,.512.9,6.287,6.287,0,0,0,.826,1l.332.341a5.612,5.612,0,0,1,.4.449,4.793,4.793,0,0,0,.9.826,2.954,2.954,0,0,0,1.023.539.682.682,0,0,1,.377.224c.072.072.072.072.09.26a2.361,2.361,0,0,0,.494,1.284,7.12,7.12,0,0,0,1.266,1.365,4.32,4.32,0,0,0,1.059.736,5.648,5.648,0,0,1,.494.278,7.575,7.575,0,0,0,.808.431,5.841,5.841,0,0,1,.646.35,3.777,3.777,0,0,1,.557.395,5.513,5.513,0,0,0,.772.557,2.478,2.478,0,0,0,1.23.386.5.5,0,0,1,.341.108c.126.09.135.108.215.287a2.424,2.424,0,0,0,.8,1.05,3.3,3.3,0,0,0,1.077.584,2.693,2.693,0,0,1,.53.233,3.133,3.133,0,0,0,1.131.422,2.425,2.425,0,0,1,.539.153.763.763,0,0,1,.35.251,2.586,2.586,0,0,0,1.05.718,4.79,4.79,0,0,0,.97.278,3.59,3.59,0,0,1,.637.18c.269.1.44.171.584.233a6.485,6.485,0,0,0,1.041.359,2.837,2.837,0,0,0,1.239.09,1.338,1.338,0,0,1,.5,0,1.293,1.293,0,0,1,.512.189,3.52,3.52,0,0,0,.979.4l.584.144a9.59,9.59,0,0,1,.952.269.988.988,0,0,1,.4.233,2.5,2.5,0,0,0,1.221.593,2.631,2.631,0,0,0,1.32,0,1.266,1.266,0,0,1,.494-.054,1.8,1.8,0,0,1,.584.126,4.047,4.047,0,0,0,1,.233h.4a2.943,2.943,0,0,0,.763-.1,1.014,1.014,0,0,1,.485,0,5.65,5.65,0,0,0,1.275.081h.5a5.264,5.264,0,0,0,1.131-.1c.144,0,.314-.063.6-.09l.637-.054a6.989,6.989,0,0,0,1.086-.144,4.484,4.484,0,0,0,1-.305,3.59,3.59,0,0,1,.611-.2.988.988,0,0,1,.494,0,3.169,3.169,0,0,0,1.1,0,2.694,2.694,0,0,0,1.149-.44.583.583,0,0,1,.368-.135.682.682,0,0,1,.395.081,2.316,2.316,0,0,0,1.365.189,13.581,13.581,0,0,0,1.742-.18,2.38,2.38,0,0,0,1.212-.655.942.942,0,0,1,.368-.242,1.949,1.949,0,0,1,.476-.251,2.971,2.971,0,0,0,1.185-.4,5.494,5.494,0,0,0,.763-.5,2.693,2.693,0,0,1,.584-.359,7.183,7.183,0,0,1,.817-.35l.646-.242c.323-.135.5-.189.664-.251s.44-.153.9-.341a2.128,2.128,0,0,1,.584-.171,4,4,0,0,0,1.032-.323,2.379,2.379,0,0,0,1.041-.9.655.655,0,0,1,.287-.269.942.942,0,0,1,.44-.126,2.586,2.586,0,0,0,1.23-.4,3.035,3.035,0,0,0,.9-.808,1.652,1.652,0,0,1,.386-.386,11.44,11.44,0,0,0,1.1-.9l.233-.206a2.854,2.854,0,0,1,.521-.377,4.718,4.718,0,0,0,.817-.593,6.1,6.1,0,0,0,.673-.682,3.929,3.929,0,0,1,.467-.386A8.973,8.973,0,0,0,195.06,161a1.32,1.32,0,0,1,.386-.314,2.693,2.693,0,0,0,.961-.9,3.429,3.429,0,0,0,.467-.988,1.409,1.409,0,0,1,.242-.494,3.761,3.761,0,0,0,.494-.9,1.705,1.705,0,0,1,.287-.5c.332-.422.44-.584.6-.817l.368-.521c.314-.431.422-.6.566-.835l.359-.539c.063-.1.063-.1.242-.171a2.352,2.352,0,0,0,1.562-2.155c0-.2,0-.2.081-.278a.6.6,0,0,1,.3-.171,2.074,2.074,0,0,0,1.221-.9,2.532,2.532,0,0,0,.413-1.284,1.167,1.167,0,0,1,.1-.467,2.093,2.093,0,0,1,.3-.521,3.785,3.785,0,0,0,.53-.9,2.629,2.629,0,0,0,.207-1.248.808.808,0,0,1,.063-.44,5.456,5.456,0,0,1,.287-.628,6.138,6.138,0,0,0,.4-.9.6.6,0,0,1,.224-.314,2.415,2.415,0,0,0,.745-1.122c.081-.242.144-.4.2-.548a6.289,6.289,0,0,0,.332-1.167,2.317,2.317,0,0,0-.126-1.418.71.71,0,0,1-.072-.4,6.821,6.821,0,0,0,0-.9,3.712,3.712,0,0,1,.045-.727,2.131,2.131,0,0,1,.171-.628,4.725,4.725,0,0,0,.287-.9,7,7,0,0,0,.18-1.284v-.458a1.087,1.087,0,0,1,.135-.467,2.5,2.5,0,0,0,.287-1.347Zm-4.57,11.949a7.078,7.078,0,0,0-.368.817,2.576,2.576,0,0,0-.189.817h-.063l-.772.431c0-.072-.072-.144-.117-.224a.952.952,0,0,0-.575-.458.969.969,0,0,0-.494,0c1.1-.673,2-1.248,2.747-1.751A2.957,2.957,0,0,1,203.427,144.016Zm2.37-10.665a2.805,2.805,0,0,0-.117.61v.485a5.647,5.647,0,0,1-.144,1.014,2.873,2.873,0,0,1-.188.593,2.425,2.425,0,0,0-.835.1.961.961,0,0,0-1.329-.377l-.691.4-.359.206-2.559,1.481,1.194-.817c3.313-2.271,4.615-3.169,5.028-3.69ZM191.353,136a4.08,4.08,0,0,0,.045-.449.952.952,0,0,0,.44.3h.063l-.593.557a2.183,2.183,0,0,1,.045-.4Zm-3.2,6.85a1.382,1.382,0,0,1,.162-.521,2.325,2.325,0,0,1,.35-.548,5.089,5.089,0,0,0,.458-.673h0a.9.9,0,0,0,.18.548.961.961,0,0,0,.6.467h.054l-2.02,1.418a3.822,3.822,0,0,0,.216-.682ZM205,131.421a1.535,1.535,0,0,0,.646-.063,1.294,1.294,0,0,1,.153.144c.2.215.26.287.26.287a2.044,2.044,0,0,1,0,.341v.26a.664.664,0,0,1-.1.431v.1a1.14,1.14,0,0,0-.171-.4,1.158,1.158,0,0,0-.664-.5,1.014,1.014,0,0,0-.584,0,1.2,1.2,0,0,0-.188-.467.9.9,0,0,0-.189-.215h.144Zm-6.114.171a2.433,2.433,0,0,0,1.329.332,3.4,3.4,0,0,0,1.14-.215,2.531,2.531,0,0,1,.557-.135,2.632,2.632,0,0,0,.682-.117l-7.829,4.336,3.313-3.124a.961.961,0,0,0,.269-.9.9.9,0,0,0-.153-.278h.323A.655.655,0,0,1,198.885,131.591Zm-5.665.242a1.742,1.742,0,0,1,.6-.117,3.4,3.4,0,0,0,1.041-.224,1.167,1.167,0,0,1,.512-.09,3.045,3.045,0,0,1,.664.063h.233l-1.957,1.149-1.472.9c-.1-.619-.18-1.086-.242-1.463A4.967,4.967,0,0,0,193.22,131.834Zm-28.729,25.227a.512.512,0,0,1,.359-.126,2.351,2.351,0,0,1,.646.081,4.531,4.531,0,0,0,.97.162.835.835,0,0,1,.422.135,2.522,2.522,0,0,0,.5.206c-3,1.8-5.988,3.537-8.574,5.019,4.148-3.51,4.7-4.489,4.588-5.063a2.693,2.693,0,0,0,1.077-.413Zm-5.638.754.952-.557a.95.95,0,0,0,.278-.242,2.127,2.127,0,0,0,.763.422l-2.613,1.589c.575-.584.673-.907.575-1.212Zm-5.844-3.214a2.775,2.775,0,0,0,1.23.4,1.5,1.5,0,0,1,.5.126,7.667,7.667,0,0,0,1.3.458l.377.108a4.282,4.282,0,0,0,1,.18,2.117,2.117,0,0,1,.619.126h.09c-3.25,1.8-7.371,4.166-10.6,5.961,1.679-1.535,3.69-3.322,5.62-4.983a.953.953,0,0,0-1.14-1.526c-2.4,1.544-4.974,3.133-7.182,4.408l6.446-6.006a.9.9,0,0,0,.1-.162l.144.081.763.422Zm-5.575-4.031a13.25,13.25,0,0,0,1.392,1.059.9.9,0,0,1,.3.332,2.541,2.541,0,0,0,.521.637l-.9.5a.961.961,0,0,0,0-.9,1.122,1.122,0,0,0-.655-.5,2.051,2.051,0,0,0-1.1.18,1.6,1.6,0,0,0-.18-.4,1.257,1.257,0,0,0-.691-.53,2.5,2.5,0,0,0-1.634.368c.9-.754,1.472-1.266,1.867-1.652l.35.314C146.913,150.157,147.066,150.31,147.434,150.57Zm-4.947-5.862a2.89,2.89,0,0,1,.323.593.978.978,0,0,1,.09.449,2.263,2.263,0,0,0,.476,1.4,2.182,2.182,0,0,0,1.212.9.98.98,0,0,1,.3.144c-.512.242-1.167.575-2.029,1.032a.961.961,0,0,0,.2-1.167,1.077,1.077,0,0,0-.637-.494,1.2,1.2,0,0,0-.7,0,.9.9,0,0,0-.144-.431,1.068,1.068,0,0,0-.835-.449c1.571-1.3,1.616-1.733,1.275-2.343a1.2,1.2,0,0,0-.682-.521c-.566-.153-1.356.117-3.42,1.329l3.367-3.214a1.2,1.2,0,0,1,.153.269,3.8,3.8,0,0,1,.224.646,5.384,5.384,0,0,0,.314.9,4.559,4.559,0,0,0,.521,1.006Zm-2.63-5.387a3.639,3.639,0,0,1,.269.611,13.811,13.811,0,0,0-1.625.835.952.952,0,0,0-1.239-.072l-1.1.718,2.208-1.8a.961.961,0,0,0,.242-1.212,1.221,1.221,0,0,0-.494-.449.8.8,0,0,0,0-1.041c-.35-.619-.458-.8-4.085,1.167,1.23-1,2.559-2.056,3.9-3.106a11.219,11.219,0,0,0,.278,1.131,3.312,3.312,0,0,0,.521,1.122,2.242,2.242,0,0,1,.287.521,5.39,5.39,0,0,0,.521,1.041c.09.171.18.323.323.584Zm-2.442-7.918a3.367,3.367,0,0,0,.736,0,2.082,2.082,0,0,0-.341,1.014c-.4.162-.952.422-1.8.844l.512-.4a.952.952,0,0,0,.215-1.284.9.9,0,0,0-.126-.135l.26-.045a1.167,1.167,0,0,1,.53.063Zm-4.731-.045a3.209,3.209,0,0,1,.593.063,3.877,3.877,0,0,0,1.086.072h.808l-5.934,3.286c1.67-1.742,2.316-2.5,2.469-3.008a2.56,2.56,0,0,0,.682-.287c.153-.063.144-.09.3-.072Zm-4.722.449a2.119,2.119,0,0,0,1.338-.637l.162-.108.081.054c-1.1.682-2.226,1.374-3.232,1.957l.9-1.149v-.108a4.063,4.063,0,0,0,.754.045Zm-3.385,5.054a3.734,3.734,0,0,0-.162-.584c.341-.153.763-.359,1.338-.673-.494.6-.862.961-1.176,1.3Zm-.718-4.426v-.081l.278-.171a1.015,1.015,0,0,0,.081.305l.045.09-.35.458a4.489,4.489,0,0,1-.054-.548Zm2.1,10.953c-.072-.251-.108-.413-.144-.557a6.634,6.634,0,0,0-.359-1.1.565.565,0,0,1,0-.4,2.846,2.846,0,0,0-.054-1.158,4.149,4.149,0,0,0-.323-.9h0l1.966-1.086c-1.239,1.2-1.086,1.481-.835,1.921a.952.952,0,0,0,.593.458.979.979,0,0,0,.745-.108l2.334-1.409c-3.636,3.16-3.385,3.591-3.079,4.157a.97.97,0,0,0,.287.314,5.816,5.816,0,0,0-.664.575c-.063-.108-.126-.215-.2-.314A1.176,1.176,0,0,1,125.959,143.388Zm1.068,2.819-.117-.323-.072-.207h.063a.9.9,0,0,0,.754-.126l.9-.584Zm1.517,3.735a3.226,3.226,0,0,1-.368-.557.826.826,0,0,1-.117-.431,3.139,3.139,0,0,0-.135-.673c.269-.1.6-.233,1.023-.431a1.112,1.112,0,0,0,.458.26c.682.162,1.392-.2,5.871-3.061l-4.983,4.758a.952.952,0,0,0-.18,1.158.988.988,0,0,0,.61.467.656.656,0,0,0,.314,0c-.548.4-.961.727-1.284,1a1.328,1.328,0,0,1-.135-.18,1.176,1.176,0,0,1-.2-.494,3.367,3.367,0,0,0-.368-1.023,5.091,5.091,0,0,0-.521-.763Zm9.561,12.12a5.53,5.53,0,0,1-1.023-1.113c-.081-.1-.081-.135-.108-.323a2.119,2.119,0,0,0-.637-1.392,2.549,2.549,0,0,0-1.149-.7,1.068,1.068,0,0,1-.422-.216,2.944,2.944,0,0,1-.566-.548c-.117-.135-.251-.305-.485-.548l-.359-.359a4.955,4.955,0,0,1-.637-.763,2.811,2.811,0,0,1-.323-.557l-.126-.251c.278-.144.593-.323,1-.566a.961.961,0,0,0,1.3,1.32l4.237-2.379c-2.909,2.541-3.124,3.034-2.693,3.78a1,1,0,0,0,.61.467h.072c-.26.323-.171.521,0,.9a.961.961,0,0,0,.6.467,1.041,1.041,0,0,0,.386,0,.952.952,0,0,0,0,.97,1.014,1.014,0,0,0,.6.467c.44.126.682.18,5.387-2.478l-4.713,4.426h0l-.278-.153a2.441,2.441,0,0,1-.691-.422Zm3.16,1.867a30.943,30.943,0,0,0,2.819-1.418,19.481,19.481,0,0,0-1.921,2.092,4.074,4.074,0,0,1-.539-.395Zm8.5,4.893a3.149,3.149,0,0,1-.646-.189.754.754,0,0,1-.35-.242,2.63,2.63,0,0,0-1.024-.718,4.1,4.1,0,0,0-.9-.26,1.32,1.32,0,0,1-.53-.2,4.38,4.38,0,0,0-.9-.386,1.472,1.472,0,0,1-.53-.287.592.592,0,0,1-.224-.314,3.106,3.106,0,0,0-.224-.395l.9-.449a.959.959,0,0,0,1.014-.018l2.065-1.32c-1.858,1.347-1.8,1.463-1.427,2.128a1.1,1.1,0,0,0,.637.494c.332.09.952.251,7.425-3.5-1.41,1.149-2.927,2.361-4.4,3.5a.961.961,0,0,0-.251,1.221,1.087,1.087,0,0,0,.637.494h0a2.748,2.748,0,0,0-.494.691,5.491,5.491,0,0,0-.8-.224Zm6.141,1.634-.548-.135a1.625,1.625,0,0,1-.5-.206,3.443,3.443,0,0,0-.431-.215l4.031-2.235,1.176-.592c-2.469,1.8-2.909,2.765-2.442,3.591a.943.943,0,0,0,.413.377,2.881,2.881,0,0,0-.592-.269,10.984,10.984,0,0,0-1.131-.3Zm1.8.619.1.054a.989.989,0,0,0,.368,0,1.705,1.705,0,0,0,.144.3l.045.054a.727.727,0,0,1-.278-.162,3.7,3.7,0,0,0-.44-.224Zm7.972.6a3.654,3.654,0,0,1-.79.072h-.557a3.591,3.591,0,0,1-.9-.063,2.693,2.693,0,0,0-1.23.054,1.123,1.123,0,0,1-.494,0,2.218,2.218,0,0,1-.575-.135,4.076,4.076,0,0,0-.835-.2L185.23,157.59c-6.284,4.13-13.2,8.654-18.907,12.38a.952.952,0,0,0-.278,1.32.9.9,0,0,0,.242.251Zm5.584-.808a1.284,1.284,0,0,1-.512,0,2.791,2.791,0,0,0-1.248,0,4.77,4.77,0,0,0-.9.3,2.985,2.985,0,0,1-.628.189l-.341.054c2.882-1.8,5.827-3.681,8.708-5.449-4.489,3.2-4.821,4.148-4.632,4.686h0a.79.79,0,0,1-.512.242Zm25.227-15.2a3.591,3.591,0,0,0-.548.961,2,2,0,0,1-.278.5,3.185,3.185,0,0,0-.512,1.014.844.844,0,0,0-.054-.171.961.961,0,0,0-1.293-.359l-7.335,4.067c3.16-1.975,6.643-4.085,10.118-6.159Zm5.18-6.284-.215.135a2.343,2.343,0,0,0-1.14.754,2.182,2.182,0,0,0-.53,1.4v.1a1.275,1.275,0,0,0-.251-.117,6.285,6.285,0,0,0-2.864.718c2.361-1.6,4.013-2.747,5.162-3.591v.189a.664.664,0,0,1-.224.449Z" transform="translate(-12.479 -12.395)" fill="#f6a631"/>
        <path id="パス_26022" data-name="パス 26022" d="M207.183,69.88a1.887,1.887,0,0,1,0-.575,3.188,3.188,0,0,0,0-1.212,1.32,1.32,0,0,1,0-.53,2.871,2.871,0,0,0,0-1.284,2.406,2.406,0,0,0-.655-1.257.691.691,0,0,1-.215-.359c-.117-.44-.162-.637-.206-.9s-.081-.4-.171-.781a4.109,4.109,0,0,0-.368-1,1.977,1.977,0,0,1-.215-.6.637.637,0,0,1,0-.413,2.424,2.424,0,0,0,0-1.4,4.994,4.994,0,0,1-.135-.691,5.806,5.806,0,0,0-.224-1.041,3.383,3.383,0,0,0-.575-1.167,3.013,3.013,0,0,1-.323-.521c-.108-.215-.18-.377-.233-.512a5.458,5.458,0,0,0-.673-1.158,2.46,2.46,0,0,0-1.086-.9c-.2-.09-.206-.09-.278-.224a.952.952,0,0,1-.153-.494,3.178,3.178,0,0,0-.3-1.122,2.512,2.512,0,0,1-.2-.593,3.591,3.591,0,0,0-.422-1.1,2.99,2.99,0,0,0-.8-.97,1.58,1.58,0,0,1-.377-.413.62.62,0,0,1-.108-.386A2.334,2.334,0,0,0,199,46.915a2.531,2.531,0,0,0-1.077-.9.817.817,0,0,1-.368-.269,7.762,7.762,0,0,0-1.032-1.1l-.242-.224a2.53,2.53,0,0,1-.4-.458,3.312,3.312,0,0,0-.9-.9c-.664-.467-.682-.485-1.347-1.005a4.813,4.813,0,0,0-.826-.53,2.353,2.353,0,0,1-.557-.377,5.256,5.256,0,0,1-.485-.467,5.309,5.309,0,0,0-.808-.736,3.8,3.8,0,0,0-1-.566,2.486,2.486,0,0,1-.548-.287.987.987,0,0,1-.359-.359,3.232,3.232,0,0,0-.763-.835,3.59,3.59,0,0,0-.97-.548,1.266,1.266,0,0,1-.485-.305,4.487,4.487,0,0,0-.979-.718,5.383,5.383,0,0,1-.539-.332.691.691,0,0,1-.26-.323A2.245,2.245,0,0,0,184,34.616l-.566-.305a10.2,10.2,0,0,0-1.05-.5,4.641,4.641,0,0,0-1.086-.332,4.265,4.265,0,0,1-.655-.18,3.652,3.652,0,0,1-.61-.269,4.435,4.435,0,0,0-1.086-.422,8.027,8.027,0,0,0-1.149-.224l-.646-.1a2.208,2.208,0,0,0-1.5.26c-.18.09-.171.09-.269.072a.566.566,0,0,1-.341-.206,2.558,2.558,0,0,0-1.131-.7,6.436,6.436,0,0,0-1.122-.269,3.147,3.147,0,0,1-.646-.126,6.073,6.073,0,0,1-.646-.18,5.217,5.217,0,0,0-1.113-.242,6.382,6.382,0,0,0-1.176-.081h-.449a5,5,0,0,0-1.149.072,5.828,5.828,0,0,1-.655.072,2.6,2.6,0,0,1-.655,0,5.062,5.062,0,0,0-1.05-.081,2.532,2.532,0,0,0-1.284.377.61.61,0,0,1-.386.126.9.9,0,0,1-.422-.108A2.5,2.5,0,0,0,161.819,31a2.613,2.613,0,0,0-1.266.377.9.9,0,0,1-.449.153.485.485,0,0,1-.35-.09,2.334,2.334,0,0,0-1.427-.287,2.612,2.612,0,0,0-1.248.467.781.781,0,0,1-.422.171,6.572,6.572,0,0,0-1.392.287l-.395.117-.575.144a5.054,5.054,0,0,0-1.185.413,6.526,6.526,0,0,1-.9.359l-.628.215a2.379,2.379,0,0,1-.682.153,5.388,5.388,0,0,0-.9.162,4.354,4.354,0,0,0-1.1.422,4.265,4.265,0,0,1-.593.269l-.2.072a10.5,10.5,0,0,0-1.472.637,3.3,3.3,0,0,0-1.006.718,2.345,2.345,0,0,1-.458.377,6.1,6.1,0,0,1-.557.323,4.8,4.8,0,0,0-.97.646l-.485.4a7.6,7.6,0,0,1-.817.619.638.638,0,0,1-.413.135,2.828,2.828,0,0,0-1.185.359,3.636,3.636,0,0,0-1.005.781,3.815,3.815,0,0,1-.449.422,5.385,5.385,0,0,0-.952.9l-.359.413c-.3.323-.44.467-.593.619s-.305.305-.593.6a2.9,2.9,0,0,0-.646,1.041.979.979,0,0,1-.26.422,2.11,2.11,0,0,1-.494.4,4.111,4.111,0,0,0-.826.655l-.431.431c-.233.233-.359.359-.772.754a4.425,4.425,0,0,0-.718.853,3.482,3.482,0,0,1-.4.512l-.386.413c-.251.269-.377.4-.79.9a2.207,2.207,0,0,1-.422.4,3.278,3.278,0,0,0-.826.9,6.2,6.2,0,0,1-.368.521,5.065,5.065,0,0,0-.619,1.023,3.42,3.42,0,0,0-.332,1.1,1.3,1.3,0,0,1-.171.539,7.5,7.5,0,0,1-.431.727c-.117.171-.242.359-.44.709a4.76,4.76,0,0,1-.35.521,4.273,4.273,0,0,0-.584,1.041,3.034,3.034,0,0,0-.269,1.239,1.9,1.9,0,0,1-.081.557,7.575,7.575,0,0,0-.189.9,3.593,3.593,0,0,1-.189.754.718.718,0,0,1-.26.377,2.818,2.818,0,0,0-.727,1.023l-.224.5a11.47,11.47,0,0,0-.449,1.149,3.655,3.655,0,0,0-.224,1.158,2.4,2.4,0,0,1-.1.61,1.438,1.438,0,0,1-.224.476,2.693,2.693,0,0,0-.467,1.284,2.767,2.767,0,0,1-.09.6,5.384,5.384,0,0,0-.09,1.293,2.523,2.523,0,0,0,.386,1.3.619.619,0,0,1,.126.4,1.113,1.113,0,0,1-.1.521,3.1,3.1,0,0,0-.224,1.167,6.585,6.585,0,0,1-.054.9c0,.188-.045.4-.072.772a5.381,5.381,0,0,1-.108.817c0,.2-.09.422-.135.826a2.81,2.81,0,0,0,.126,1.383,2.126,2.126,0,0,1,.117.557,3.448,3.448,0,0,0,.305,1.275,4.739,4.739,0,0,1,.2.548,5.747,5.747,0,0,0,.341.9,2.943,2.943,0,0,1,.233.7.607.607,0,0,1-.063.287,2.28,2.28,0,0,0-.242,1.427,5.833,5.833,0,0,1,.063.655,4.911,4.911,0,0,0,.18,1.167,3.906,3.906,0,0,0,.467,1.113,3.177,3.177,0,0,1,.278.566,3.08,3.08,0,0,0,.628,1.041,1.22,1.22,0,0,1,.278.449,1.571,1.571,0,0,1,.117.557,3.349,3.349,0,0,0,.251,1.131l.269.7c.09.233.162.44.35.9a3.33,3.33,0,0,0,.61,1.005,1.544,1.544,0,0,1,.3.476,4.262,4.262,0,0,1,.215.628,5.142,5.142,0,0,0,.458,1.149,15.834,15.834,0,0,0,.781,1.445,1.715,1.715,0,0,1,.207.521,3.016,3.016,0,0,0,.53,1.149,2.406,2.406,0,0,0,1.113.9.763.763,0,0,1,.359.251,1.1,1.1,0,0,1,.251.449,2.989,2.989,0,0,0,.6,1.059l.575.655.548.619a2.694,2.694,0,0,0,1.041.763.9.9,0,0,1,.377.269,1.392,1.392,0,0,1,.287.458,3.107,3.107,0,0,0,.655,1.005,2.8,2.8,0,0,0,1.014.718.9.9,0,0,1,.4.278c.287.314.449.476.6.628s.3.3.584.61a.9.9,0,0,1,.224.4,2.343,2.343,0,0,0,.835,1.185l.35.278a6.112,6.112,0,0,0,1.194.808,3.59,3.59,0,0,0,1.05.4,1.454,1.454,0,0,1,.539.215,1.8,1.8,0,0,1,.485.4,4.023,4.023,0,0,0,.817.682,3.483,3.483,0,0,0,1.068.485,2.12,2.12,0,0,1,.557.233,1.8,1.8,0,0,1,.458.35,3.259,3.259,0,0,0,.979.7,2.316,2.316,0,0,1,.521.332,3.727,3.727,0,0,0,.988.6,2.45,2.45,0,0,0,1.374.189.709.709,0,0,1,.431,0c.53.2.736.26,1.023.341l.637.2a.817.817,0,0,1,.386.242,2.568,2.568,0,0,0,1.176.664,2.532,2.532,0,0,0,1.347,0,.728.728,0,0,1,.44,0,4.652,4.652,0,0,1,.655.207,5.324,5.324,0,0,0,1,.3c.9.189.9,0,1.733.18.539.09.754.108,1.023.144l.691.081a2.693,2.693,0,0,1,.628.153,4.318,4.318,0,0,0,1.059.233h.341c.539.054.646.072,1.383.135a3.761,3.761,0,0,0,1.122-.054,2.172,2.172,0,0,1,.619,0h1.67a2.929,2.929,0,0,1,.6.072,3.707,3.707,0,0,0,1.194.063,1.8,1.8,0,0,1,.557,0,3.142,3.142,0,0,0,.6.063,3.215,3.215,0,0,0,.682-.081,2.962,2.962,0,0,0,1.122-.458,1.05,1.05,0,0,1,.476-.189c.826-.144.853,0,1.688-.135a4.012,4.012,0,0,0,.646-.081,6.384,6.384,0,0,0,1.131-.189,5.136,5.136,0,0,0,1.077-.359,5.783,5.783,0,0,1,.619-.242,8.367,8.367,0,0,0,.835-.323,5.957,5.957,0,0,1,.745-.278c.458-.144.655-.189.9-.251l.745-.2a3.853,3.853,0,0,1,.593-.126,3.591,3.591,0,0,0,1.221-.377,6.178,6.178,0,0,0,1.284-.763l.323-.233a4.057,4.057,0,0,1,.727-.44,9.059,9.059,0,0,0,1.4-.844,2.884,2.884,0,0,1,.655-.377,1.8,1.8,0,0,1,.53-.153,2.774,2.774,0,0,0,1.266-.485,3.242,3.242,0,0,0,.943-.9,2.8,2.8,0,0,1,.395-.449,1.875,1.875,0,0,1,.521-.368,4.275,4.275,0,0,0,.853-.557,2.747,2.747,0,0,0,.781-.979.691.691,0,0,1,.278-.341.96.96,0,0,1,.44-.189,2.514,2.514,0,0,0,1.221-.61,2.442,2.442,0,0,0,.781-1.167.844.844,0,0,1,.224-.386,2.182,2.182,0,0,1,.5-.413,4.489,4.489,0,0,0,.817-.646l.548-.548c.171-.18.305-.323.655-.646a.9.9,0,0,1,.4-.215,2.244,2.244,0,0,0,1.275-.9,2.047,2.047,0,0,0,.368-1.643v-.377a5.909,5.909,0,0,1,.431-.8c.1-.162.216-.35.4-.664a1.041,1.041,0,0,1,.341-.4,3.592,3.592,0,0,0,1.248-1.9,1.543,1.543,0,0,1,.224-.521.835.835,0,0,1,.332-.323,2.622,2.622,0,0,0,.9-.943,2.774,2.774,0,0,0,.431-1.275,1.617,1.617,0,0,1,.135-.53,2.881,2.881,0,0,0,.26-1.266,1.8,1.8,0,0,1,.072-.548,4.281,4.281,0,0,1,.287-.79c.081-.189.18-.4.314-.754a.9.9,0,0,1,.278-.422,3.09,3.09,0,0,0,.691-.952,4,4,0,0,1,.305-.53,3.5,3.5,0,0,0,.548-1.239,2.693,2.693,0,0,0,0-1.418,1.8,1.8,0,0,1-.063-.548,3.36,3.36,0,0,1,.1-.7,5.389,5.389,0,0,0,.144-1.014,2.613,2.613,0,0,0-.242-1.284.7.7,0,0,1-.09-.422,1.122,1.122,0,0,1,.135-.5,3.025,3.025,0,0,0,.314-1.158c0-.44,0-.673,0-.9a6.618,6.618,0,0,1,0-.79,3.42,3.42,0,0,0-.054-1.167,1.8,1.8,0,0,1,0-.584q.023-.451.09-.9c0-.18.054-.4.09-.736a3.3,3.3,0,0,0-.063-1.257A3.387,3.387,0,0,1,207.183,69.88Zm-22.327,22.6-3.95,2.3c15.837-9.7,21.87-13.61,24.042-15.433a.823.823,0,0,0,.108.305.737.737,0,0,1,.09.422,3.731,3.731,0,0,1-.1.7,5.137,5.137,0,0,0-.144,1.041,3.341,3.341,0,0,0,0,.754,5.386,5.386,0,0,0-1.1.233,1,1,0,0,0-.135-.332.961.961,0,0,0-1.338-.35l-5.6,3.42C193.483,87.458,189.129,89.99,184.856,92.477Zm19.275-28.334c-.215-.377-.332-.6-1.239-.269l-.054-.1-1.167.646c-1.562.772-4.255,2.253-8.978,4.866-6.069,3.358-14.158,7.846-22.238,12.344L159.9,87.539c11.087-6.787,24.94-15.065,37-22.175,1.185-.664,2.209-1.266,3.07-1.8l3.349-2.065a.951.951,0,0,0,.242-.215,2.183,2.183,0,0,0,0,.494,3.9,3.9,0,0,0,.377,1.059,2.262,2.262,0,0,1,.224.593c.081.341.126.539.162.718s.1.476.233.97v.054c-13.691,7.8-31.2,17.641-44.592,25.057,13.081-7.622,30.345-17.345,43.811-24.787a.952.952,0,0,0,.368-1.3Zm.081,6.392a1.481,1.481,0,0,0-.745-.566,6.347,6.347,0,0,0-2.819.7,48.541,48.541,0,0,0,4.767-3.438,3.089,3.089,0,0,0,0,1.113,1.393,1.393,0,0,1,0,.575,3.7,3.7,0,0,0-.081,1.068,4.945,4.945,0,0,0,.126.9,1.49,1.49,0,0,1,0,.637,4.436,4.436,0,0,1-.081.682c-.018.171-.072.512-.108,1.068v.171a1.311,1.311,0,0,0-.485-.251c-1.014-.26-4.426,1.149-9.175,3.573l8.242-4.911a.961.961,0,0,0,.359-1.32Zm1.014,4.489a.9.9,0,0,0,.135-.126,8.185,8.185,0,0,0-.054.97V76.6a1.183,1.183,0,0,1-.063.323c-.628-.09-2.2.727-25.012,13.691ZM203.044,57.8l.063.1a12.009,12.009,0,0,0-1.526.521l-.2-.081a.961.961,0,0,0-.727.09L187.5,65.8c5.97-3.717,9.229-5.9,10.962-7.254a18.468,18.468,0,0,0,3.591-2.5,3.906,3.906,0,0,1,.2.386c.063.144.144.323.269.566a4.64,4.64,0,0,0,.521.844Zm-3.232-5.207a1.32,1.32,0,0,1,.135.521,2.792,2.792,0,0,0,.341,1.14,26.559,26.559,0,0,0-3.825,1.742c2.11-1.724,1.858-2.173,1.6-2.648a.952.952,0,0,0-1.32-.359c-16.4,9.588-38.38,22.193-52.735,30.066,14.472-8.619,37.365-21.717,54.548-31.422a.952.952,0,0,0,.476-.9,1.2,1.2,0,0,1,.224.314,1.877,1.877,0,0,1,.233.6,4.416,4.416,0,0,0,.323.979ZM130.334,93.446c-.144-.26-.242-.449-.485-.9-.045-.09-.063-.153-.1-.224a32.241,32.241,0,0,0,4.193-1.8,7.837,7.837,0,0,0-2.415,2.289Zm-2.819-6.805a3.256,3.256,0,0,0-.1-.341,3.133,3.133,0,0,0-.619-1.023,1.194,1.194,0,0,1-.278-.458c-.063-.153-.108-.269-.162-.377.341-.162.9-.44,1.7-.9a1.059,1.059,0,0,0,.584.44c.979.278,5.836-2.074,43.183-23.342-13.1,7.855-28.531,16.806-36.808,21.591C131.052,84.5,128.772,85.815,127.515,86.641Zm11.034-9.516,1.131-.691c1.472-.808,3.061-1.661,4.722-2.541C142.31,75.06,140.335,76.146,138.549,77.125ZM198.16,49.833l.045.063a1.194,1.194,0,0,0-.458,0l.341-.189Zm-1.3-2.164a29.957,29.957,0,0,0-3.214,1.418,13.9,13.9,0,0,0,2.46-2.146l.144.18a2.693,2.693,0,0,0,.611.521ZM183.536,36.717a2.559,2.559,0,0,0,.9,1.006,7.573,7.573,0,0,0,.7.431,2.549,2.549,0,0,1,.62.449,3.1,3.1,0,0,0,1.068.664,1.68,1.68,0,0,1,.5.278,1.33,1.33,0,0,1,.287.413,2.837,2.837,0,0,0,.9.9,4.418,4.418,0,0,0,.9.467,1.922,1.922,0,0,1,.557.314,3.653,3.653,0,0,1,.557.5,6.987,6.987,0,0,0,.637.619,4.263,4.263,0,0,0,.9.61,39.9,39.9,0,0,0-5.575,2.271l2.361-1.463a.961.961,0,0,0,.332-1.275,1.365,1.365,0,0,0-.539-.539.817.817,0,0,0-.09-.9,1.365,1.365,0,0,0-.709-.548,1.589,1.589,0,0,0-.682,0,1.256,1.256,0,0,0-.153-.566.961.961,0,0,0-1.3-.377l-6.886,3.816c5.387-3.842,4.92-4.606,4.489-5.315a.961.961,0,0,0-1.23-.413,1.156,1.156,0,0,0-.117-.305.97.97,0,0,0-.583-.458c-.539-.153-.53-.162-13.323,7.308-11.3,6.59-30.659,17.884-38.424,21.753,1.365-1.006,3.241-2.244,5.5-3.672,11.509-6.06,29.923-15.98,39.107-22.148,2.792-1.5,5.485-2.927,7.99-4.246a.961.961,0,0,0,.3-.251l.126.063.611.323C183.437,36.519,183.437,36.528,183.536,36.717ZM139.877,56.548c-2.325,1.338-4.489,2.568-6.356,3.591C135.362,59.053,137.543,57.823,139.877,56.548Zm30.443-23.611a3.59,3.59,0,0,1,.772.171,7.615,7.615,0,0,0,.817.224c.35.081.566.108.754.144a5.046,5.046,0,0,1,.844.206.718.718,0,0,1,.359.233,2.694,2.694,0,0,0,.575.44c-4.39,2.334-14.041,7.712-35.794,19.939,9.391-5.9,22.372-13.556,31.907-19.033a.952.952,0,0,0,.359-1.293,1.041,1.041,0,0,0-.61-.476c-.305-.09-.664-.063-2.128.646.9-.655,1.221-1,1.275-1.257a7.065,7.065,0,0,1,.871.054Zm-10.279.593c-.709.4-1.481.826-2.433,1.383l-3.169,1.8,4.309-2.693a.951.951,0,0,0,.422-.61,2.164,2.164,0,0,0,.862.126Zm-7.829,1.688.584-.2.35-.117-2.469,1.374a6.286,6.286,0,0,0,.9-.9,4.838,4.838,0,0,0,.628-.162Zm-22.74,19.9a9.248,9.248,0,0,0,.521-.9.961.961,0,0,0,.566.44,1.1,1.1,0,0,0,.323,0c-.9.557-1.508,1-2,1.356.063-.1.126-.2.215-.341C129.257,55.426,129.374,55.264,129.472,55.121ZM128,58.649a.5.5,0,0,1,.054-.278.983.983,0,0,0,.144.072c.215.063.377.1,1.113-.224-.548.4-1.023.763-1.454,1.1A5.909,5.909,0,0,1,128,58.64Zm-3.313,17.058a.952.952,0,0,1-.054-.557,2.438,2.438,0,0,1,.117-.691,6.835,6.835,0,0,0,.144-1.059,1.923,1.923,0,0,1,.063-.673,8.139,8.139,0,0,0,.063-1.068,1.257,1.257,0,0,1,.1-.521,2.971,2.971,0,0,0,.215-1.2,2.487,2.487,0,0,0-.377-1.338.673.673,0,0,1-.135-.4,3.7,3.7,0,0,1,.063-.9c0-.171.063-.386.1-.691a.808.808,0,0,1,.171-.458,3.223,3.223,0,0,0,.512-1.05,4.221,4.221,0,0,0,.162-1.023,1.8,1.8,0,0,1,.126-.619v-.09h.072a1.274,1.274,0,0,0-.081.2,1.257,1.257,0,0,0,.09.979,1.32,1.32,0,0,0,.575.494l-.9.467a.961.961,0,0,0-.4,1.311,1.086,1.086,0,0,0,.6.476,2.317,2.317,0,0,0-.485.772,1.311,1.311,0,0,0,.09,1.041,1.068,1.068,0,0,0,.269.305.61.61,0,0,0-.2.332.961.961,0,0,0,1.383,1.113l2.28-1.266,4.812-2.541C149.2,59.08,160.176,53.137,167.8,48.765c-11.958,7.425-29.231,17.354-41.845,24.374h0a.961.961,0,0,0,.485,1.8,1.176,1.176,0,0,0,.548,1.329c-1.921,1.23-1.8,1.481-1.517,1.966a1.212,1.212,0,0,0,.682.521c1.284.332,5.387-2.065,20.649-11.455l11.6-6.464L136.852,74.207c-4.336,2.693-7.784,4.812-9.741,6.033a.952.952,0,0,0-.386,1.14,11.313,11.313,0,0,0-.9.754,1.312,1.312,0,0,0-.054-.431c-.054-.171,0-.144.081-.332a2.173,2.173,0,0,0,.2-1.526,4.639,4.639,0,0,0-.368-1.086,4.23,4.23,0,0,1-.242-.637,6.609,6.609,0,0,0-.278-.745,1.7,1.7,0,0,1-.153-.682,3.993,3.993,0,0,0-.332-.988Zm19.895-10.226c-5.656,3.367-10.773,6.329-13.924,7.891,2.918-1.948,8.17-4.848,13.915-7.891ZM128.108,88.823l.287-.081a1.338,1.338,0,0,0,.117.709.961.961,0,0,0,.584.458,1.266,1.266,0,0,0,.844-.18,11.474,11.474,0,0,0-.9.772,4.03,4.03,0,0,0-.323-.44,1.426,1.426,0,0,1-.3-.485c-.189-.413-.26-.6-.332-.79Zm5.144,8.8a2.98,2.98,0,0,0-.6-1.059,2.693,2.693,0,0,0-1.05-.763.619.619,0,0,1-.251-.171c3.914-.584,16.16-7.864,39.592-22.184l5.566-3.4,3-1.508C166.272,76.613,148.613,87,134.886,94.955a.952.952,0,0,0-.467.952.9.9,0,0,0,.063.242,1.9,1.9,0,0,0-.26.5,1.12,1.12,0,0,0,0,.135c-.458.476-.413.727-.287.979a1.864,1.864,0,0,0-.314.4l-.081-.1a1.1,1.1,0,0,1-.305-.485Zm6.9,7.469a2.8,2.8,0,0,0-.6-1.041c-.323-.359-.485-.521-.655-.7s-.278-.278-.539-.566a2.774,2.774,0,0,0-1.032-.736.96.96,0,0,1-.4-.269,1.239,1.239,0,0,1-.3-.458,3.26,3.26,0,0,0-.619-.979,2.693,2.693,0,0,0-1.023-.736l-.171-.09a38.553,38.553,0,0,0,3.411-1.921c3.079-1.293,8.215-4.193,15.926-8.834-17.255,10.656-16.932,11.249-16.42,12.183a.952.952,0,0,0,.575.458.9.9,0,0,0,.727-.081l.5-.278a2.317,2.317,0,0,0-.655.8,1.248,1.248,0,0,0,.09.835.978.978,0,0,0,.583.458c.422.117.961.305,39.807-21.546l-4.229,2.559c-13.251,7.622-27.544,16.259-34.277,20.37a.943.943,0,0,0-.449.9l-.072-.063a.485.485,0,0,1-.206-.3Zm2.038,1.427a1.688,1.688,0,0,1-.548-.206h0a.9.9,0,0,0,.242-.081c.162-.1,16.42-9.633,32.32-19.221l.494-.3c4.157-2.406,8.143-4.677,11.752-6.679-4.273,2.568-8.978,5.387-13.7,8.277-20.738,12.569-27.4,16.923-29.348,18.745l-.126-.09a3.323,3.323,0,0,0-1.1-.485Zm4.848,2.873a3.645,3.645,0,0,0-.9-.655,3.922,3.922,0,0,0-.97-.4h0c15.549-9.57,37.706-22.776,50.1-29.285L147.984,108.52a.961.961,0,0,0-.332,1.275v.045l-.189-.108a1.454,1.454,0,0,1-.431-.377Zm4.489,1.733c-.251-.072-.431-.126-.9-.3a2.613,2.613,0,0,0-1.3-.153.575.575,0,0,1-.413-.045,1.841,1.841,0,0,1-.539-.323h0c.727.117,2.693-.817,32.167-17.587l2.029-1.158c-9.75,6.006-21.089,12.856-30.264,18.341a.952.952,0,0,0-.35,1.284,1.1,1.1,0,0,0,.1.108Zm2.155,1.086a.673.673,0,0,1-.377-.224l-.278-.233a3.314,3.314,0,0,0,.673-.108.79.79,0,0,0,.153.539l.054.063a.718.718,0,0,1-.215-.072Zm8.286,1.239a2.414,2.414,0,0,1-.646-.144,4.488,4.488,0,0,0-1-.233l-.754-.09a2.837,2.837,0,0,1-.9-.126h-.054c5.387-3.025,14.31-7.99,22.74-12.676L162.7,112.407a.943.943,0,0,0-.386,1.041Zm3.367.063a3.717,3.717,0,0,0-.709,0l2.361-1.365a1.069,1.069,0,0,0-.287.7c-.359.242-.386.359-.449.548v.117h0c-.269-.018-.458-.009-.907-.027Zm4.9.206a1.114,1.114,0,0,1-.557,0,4.764,4.764,0,0,0-.485-.054l.9-.494,3.744-1.948.817-.422c-1.005.655-1.724,1.14-2.217,1.508l-.521.314v.063a2.255,2.255,0,0,0-.413.44,2.884,2.884,0,0,0-.835.386,1.149,1.149,0,0,1-.431.171Zm10.692-2.855a5.521,5.521,0,0,0-.844.171l-.548.153c.826-.449,1.8-.961,2.837-1.571l.449-.233c-.341.368-.422.6-.413.8a4.662,4.662,0,0,1-.826.467,1.733,1.733,0,0,1-.646.189ZM197.7,98.635c-.09.126-.1.126-.314.2a3.476,3.476,0,0,0-.682.323h-.2l1.2-.826v-.018a.439.439,0,0,1,0,.3Zm4.641-8.978a3.41,3.41,0,0,0-.269,1.059.9.9,0,0,1-.171.5.772.772,0,0,1-.323.323,2.693,2.693,0,0,0-.9.9,3.266,3.266,0,0,0-.224.431,1.8,1.8,0,0,0-.1-.215,1.023,1.023,0,0,0-.6-.467c-.314-.09-.79-.233-10.612,5.189l13.368-8.771a4.471,4.471,0,0,0,0,.521,1.023,1.023,0,0,1-.162.485Z" transform="translate(-12.554 -2.333)" fill="#40c1c9"/>
        <rect id="長方形_5622" data-name="長方形 5622" width="306" height="262" transform="translate(0)" fill="none"/>
      </g>
    </g>
  </g>
</svg>
