<svg id="レイヤー_2" data-name="レイヤー 2" xmlns="http://www.w3.org/2000/svg" width="270" height="234" viewBox="0 0 270 234">
  <g id="レイヤー_1" data-name="レイヤー 1">
    <rect id="長方形_5621" data-name="長方形 5621" width="270" height="234" fill="#40c1c9"/>
    <path id="パス_25941" data-name="パス 25941" d="M48.42,225.833c-.574.542-2.879.909-3.988.909-.183,0-.423,0-.423-.088-.215-.909-1.97-10.726-2.393-11.875-.064-.12-.12-.184-.152-.184s-.152.184-.152.184A68.769,68.769,0,0,0,38.65,225.2c0,.239-2.058.909-3.669.909a.8.8,0,0,1-.423-.088c-1.061-1.061-4.179-15.847-4.179-20.336a4.664,4.664,0,0,1,3.062-.8,2.956,2.956,0,0,1,.726.088c.064,1.125.8,10.663,2.209,14.243,0,0,.064.215.152.215s.088-.064.152-.215c0,0,2.488-9.57,3.031-10.184a9.21,9.21,0,0,1,3.062-.423,4.9,4.9,0,0,1,1.212.183c.12.12,2.058,9.761,2.393,11.4,0,0,.152.638.391,0a46.471,46.471,0,0,0,2.089-12.274c0-.455-.973-.941-1.7-1.029a.8.8,0,0,1,0-.271,4.027,4.027,0,0,1,.367-1.6,24.835,24.835,0,0,1,5.519-.726,2.742,2.742,0,0,1,.486.088C53.484,211.007,49,225.251,48.42,225.833Z" transform="translate(-6.152 -41.369)" fill="#fff"/>
    <path id="パス_25942" data-name="パス 25942" d="M63.53,211.9a1.8,1.8,0,0,1-1.85-2.058,2.225,2.225,0,0,1,2.153-2.034,1.842,1.842,0,0,1,1.882,2.034A2.233,2.233,0,0,1,63.53,211.9Zm1.882,1.906c0,.152-.088,3.669-.088,6.452a27.782,27.782,0,0,0,.088,3.126,4.945,4.945,0,0,0,.8,2.393c0,.367-2.089,1.635-3.365,1.635-.12,0-.726-.8-.909-2.664,0-.391-.064-1.4-.064-2.64,0-3.118.088-7.728.215-7.975a4.2,4.2,0,0,1,2.456-.542s.678.04.829.223Z" transform="translate(-12.49 -42.08)" fill="#fff"/>
    <path id="パス_25943" data-name="パス 25943" d="M70.114,216.469a6.062,6.062,0,0,1,.152-2.034,4.65,4.65,0,0,1,2.759-.845c.271,0,.638.064.638.152,0,.239-.088,1-.088,1.6s0,.606.088.606.088-.064.088-.064a5.152,5.152,0,0,1,3.724-1.962c3.788,0,3.876,4.968,3.876,10.152,0,2-.088,3.541-.088,3.541a4.833,4.833,0,0,1-2.608.606,3.277,3.277,0,0,1-1-.152,47.4,47.4,0,0,0,.3-5.184c0-2.943-.12-5.24-1.786-5.24-1.97,0-2.512,2.153-2.512,2.153v3.852a22.419,22.419,0,0,1-.12,3.366c-.606.606-2.3.8-3.118.8-.239,0-.455,0-.455-.088a34.187,34.187,0,0,0,.207-4.482C70.2,220.895,70.114,218.255,70.114,216.469Z" transform="translate(-14.168 -43.25)" fill="#fff"/>
    <path id="パス_25944" data-name="パス 25944" d="M95.343,225.486v-.12l-.088.088a4.514,4.514,0,0,1-3.988,1.97c-2.879,0-4.458-2.783-4.458-5.208,0-4.578,2.943-8.366,9.028-8.366,0,0,1.061,0,1.061.152a7.177,7.177,0,0,1,.088,1.116v.455h.335a3.493,3.493,0,0,1,1.308.183v3.852c0,2.815.064,6.332.064,7.178,0,8.334-5.79,9.762-8.119,9.762a5.224,5.224,0,0,1-1.124-3.19h.574C91.523,233.4,95.343,232.767,95.343,225.486Zm-.694-8.517a4.1,4.1,0,0,0-4.211,4.394,2.169,2.169,0,0,0,2.105,2.337,2.815,2.815,0,0,0,2.608-2.217c0-.455,0-3.692.12-4.426.008-.08-.63-.08-.63-.08Z" transform="translate(-17.578 -43.303)" fill="#fff"/>
    <path id="パス_25945" data-name="パス 25945" d="M105.5,228.835c-.3,0-1.18-1.276-1.18-2.7v-.207c3.485,0,4.849-1.547,4.849-2.512,0-1.754-4.849-2.7-4.849-5.3s3.788-4.937,7.178-4.937c.335,0,1.276,1.244,1.3,2.544-.455,0-4.211.638-4.211,2.241s4.729,2.393,4.785,5.583C113.435,227.049,107.861,228.835,105.5,228.835Z" transform="translate(-21.124 -43.167)" fill="#fff"/>
    <path id="パス_25946" data-name="パス 25946" d="M138.51,226.419a7.973,7.973,0,0,0-.152-1.97.063.063,0,0,0-.064-.064l-.088.064a6.739,6.739,0,0,1-4.665,1.786c-5.511,0-7.911-4.059-7.911-9.124,0-4.45,1.731-12.122,11.668-12.122a11.784,11.784,0,0,1,2.967.423c.064.064.064.239.064.486a8.3,8.3,0,0,1-.486,2.911,7.608,7.608,0,0,0-3.19-.487c-4.123,0-7.034,2.759-7.034,8.454,0,3.4,1.332,5.878,4.362,5.878,2.664,0,4.211-1.97,4.211-2.608v-.973a6.26,6.26,0,0,0-.183-2.034,10.37,10.37,0,0,0-2.815-.271,16.392,16.392,0,0,0-1.85.088c-.12,0-.12-.215-.12-.239a5.263,5.263,0,0,1,.973-2.847c.207-.215,3.365-.423,7.178-.423a8.62,8.62,0,0,1,1.731.151,9.474,9.474,0,0,1-1.029,3.485s0,8.151-.207,8.486a4.721,4.721,0,0,1-2.783,1.061C138.781,226.531,138.51,226.531,138.51,226.419Z" transform="translate(-25.439 -41.509)" fill="#fff"/>
    <path id="パス_25947" data-name="パス 25947" d="M153.585,220.184c0,1.148,0,2.089.064,2.576a4.9,4.9,0,0,0,.877,2.393c0,.367-2.089,1.635-3.366,1.635-.12,0-.8-.8-.941-2.664v-3.19c0-3.094.12-6.149.12-10.966,0-3.062-.12-3.82-.12-4.155s1.755-1.093,2.847-1.093a2.159,2.159,0,0,1,.8.12c-.064.455-.152,5.583-.152,7.879S153.585,217.3,153.585,220.184Z" transform="translate(-30.418 -41.454)" fill="#fff"/>
    <path id="パス_25948" data-name="パス 25948" d="M157.9,221.275a7.521,7.521,0,0,1,7.784-7.576,5.95,5.95,0,0,1,1.635.239,1.022,1.022,0,0,1,.064.423,8.249,8.249,0,0,1-.088,1.093c.3,0,3.453,1.061,3.453,5.335,0,3.6-2.273,7.09-6.484,7.09C160.2,227.879,157.9,225.1,157.9,221.275Zm7.058-3.062h-.239a1.053,1.053,0,0,1-.064-.391,4.9,4.9,0,0,1,.088-.877c-1.451,0-3.4,1.332-3.4,4.243,0,.3,0,3.637,2.911,3.637,1.428,0,3-1.061,3-3.756S165.6,218.213,164.958,218.213Z" transform="translate(-31.974 -43.272)" fill="#fff"/>
    <path id="パス_25949" data-name="パス 25949" d="M177.05,227.352a48.945,48.945,0,0,0,.207-6.428c0-3.637-.064-8.063-.064-11.165a21.489,21.489,0,0,1,.152-3.94,4.737,4.737,0,0,1,2.791-1.029,1.9,1.9,0,0,1,.758.12c-.064.335-.3,6.213-.239,7.337h.486c1.818,0,7.608.423,7.608,6.38,0,4.059-3.876,6.6-8.063,7.273a6.932,6.932,0,0,1,0,.8c-.606.606-2.337.8-3.19.8C177.3,227.447,177.05,227.447,177.05,227.352Zm8.119-8.972a2.919,2.919,0,0,0-3.19-3.031c-.542,0-1.4.088-1.4.088v2.185a46.682,46.682,0,0,0,.12,4.913c.5-.032,4.474-.032,4.474-4.155Z" transform="translate(-35.851 -41.469)" fill="#fff"/>
    <path id="パス_25950" data-name="パス 25950" d="M205.484,224.691a3.581,3.581,0,0,0,1.029,2.393c0,.367-1.938,1.667-3.365,1.667-.12,0-.8-.694-.973-2.337v-.064l-.088.064a6.755,6.755,0,0,1-3.852,1.276c-2.727,0-4.394-1.427-4.394-3.988,0-5.3,7-6,7.608-6a.1.1,0,0,0,.064,0c0-.877-1.125-1.483-3.756-1.483a18.872,18.872,0,0,0-2.209.12h0a5.9,5.9,0,0,1,1.061-2.759,6.624,6.624,0,0,1,2.121-.215c4.61,0,6.731,1.731,6.731,5.391v1.491A41.158,41.158,0,0,0,205.484,224.691Zm-3.453-3.645a2.679,2.679,0,0,0,0-.67c-1.093,0-4.45.542-4.45,2.727,0,.8.518,1.483,1.874,1.483a2.393,2.393,0,0,0,2.608-2.393Z" transform="translate(-39.251 -43.203)" fill="#fff"/>
    <path id="パス_25951" data-name="パス 25951" d="M215.606,220.184c0,1.148,0,2.089.064,2.576a4.9,4.9,0,0,0,.877,2.393c0,.367-2.09,1.635-3.366,1.635-.12,0-.8-.8-.941-2.664v-3.19c0-3.094.12-6.149.12-10.966,0-3.062-.12-3.82-.12-4.155s1.755-1.093,2.847-1.093a2.159,2.159,0,0,1,.8.12c-.064.455-.151,5.583-.151,7.879S215.606,217.3,215.606,220.184Z" transform="translate(-42.977 -41.454)" fill="#fff"/>
    <path id="パス_25952" data-name="パス 25952" d="M237.025,216.555a39.463,39.463,0,0,0-3.988.088v2.488c0,3.03.183,5.583.239,6.093,0,.239-1.124.8-2.64.8a3.04,3.04,0,0,1-1.117-.152,36.27,36.27,0,0,1-.183-5.583v-3.573a6.125,6.125,0,0,1-1.428-3.086,10.986,10.986,0,0,1,1.483-.088v-5.575a7.664,7.664,0,0,1-.8-2.879.231.231,0,0,1,0-.152h.638c1.938,0,3.988.726,3.988,1.029s-.215,3.94-.215,6.906v.606h4.027a14.292,14.292,0,0,1,2.241.064c0-3.692.239-7.512.239-7.632a5.248,5.248,0,0,1,3.19-1.029c.12,0,.391,0,.391.12,0,0-.335,4.458-.335,9.57,0,5.941.183,9.45,1.635,10.91,0,.064-.064.12-.088.152a6.947,6.947,0,0,1-3.573,1.061,1.091,1.091,0,0,1-.367-.064c-.694-.694-1-1.786-1.061-9.969A13.216,13.216,0,0,0,237.025,216.555Z" transform="translate(-46.15 -41.487)" fill="#fff"/>
    <path id="パス_25953" data-name="パス 25953" d="M251.39,221.275a7.521,7.521,0,0,1,7.784-7.576,5.949,5.949,0,0,1,1.635.239,1.02,1.02,0,0,1,.064.423,8.241,8.241,0,0,1-.088,1.093c.3,0,3.453,1.061,3.453,5.335,0,3.6-2.273,7.09-6.484,7.09C253.695,227.879,251.39,225.1,251.39,221.275Zm7.058-3.062h-.239a1.055,1.055,0,0,1-.064-.391,4.9,4.9,0,0,1,.088-.877c-1.451,0-3.4,1.332-3.4,4.243,0,.3,0,3.637,2.911,3.637,1.428,0,3-1.061,3-3.756S259.054,218.213,258.448,218.213Z" transform="translate(-50.905 -43.272)" fill="#fff"/>
    <path id="パス_25954" data-name="パス 25954" d="M281.131,223.22a11.566,11.566,0,0,1-.12,2.393,4.545,4.545,0,0,1-2.544.606,2.957,2.957,0,0,1-.973-.151,37.293,37.293,0,0,0,.271-4.61c0-2.456-.064-3.844-1.364-3.844-1.595,0-2.392,2.089-2.392,2.456v3.844a19.627,19.627,0,0,1-.12,3.118c-.694.67-2.089.726-3.19.726-.12,0-.239,0-.239-.088a33.376,33.376,0,0,0,.207-4.45c0-2.456-.088-5.24-.088-7.122a7.375,7.375,0,0,1,.152-2.089,4.426,4.426,0,0,1,2.64-.909c.271,0,.638.064.638.12,0,.335-.12,2-.12,2.576,0,0,0,.152.064.152s.064,0,.12-.064,1.635-1.786,3.27-1.786a3.07,3.07,0,0,1,2.967,1.755,4.823,4.823,0,0,1,3.82-2.393c3.788,0,3.876,5.391,3.876,10.575,0,2-.12,3.541-.12,3.541a4.833,4.833,0,0,1-2.608.606,2.958,2.958,0,0,1-.973-.152,49.6,49.6,0,0,0,.335-5.335c0-3.094-.12-5.272-1.85-5.272a2.169,2.169,0,0,0-1.818,1.332A28.61,28.61,0,0,1,281.131,223.22Z" transform="translate(-54.766 -43.151)" fill="#fff"/>
    <path id="パス_25955" data-name="パス 25955" d="M295.21,221.434c0-3.94,2.392-7.544,7.337-7.544,1.428,0,3.82.606,3.82,3.3,0,2.576-2.273,5.335-6.149,6.667,0,.183.638.8,2.209.8a7.329,7.329,0,0,0,3.637-.8.1.1,0,0,1,.064,0c.064,0,.088.4.088.574a4.9,4.9,0,0,1-.8,2.727s-1.029.694-3.987.694C297.236,227.83,295.21,224.983,295.21,221.434Zm6.667-4.785c-1.635,0-3.126,1.938-3.126,4.33,0,.335,0,.423.12.423,1.276,0,3.94-1.85,3.94-3.876a.854.854,0,0,0-.933-.909Z" transform="translate(-59.778 -43.311)" fill="#fff"/>
    <path id="パス_25956" data-name="パス 25956" d="M77.783,249.73l2.536,6.978H78.844l-.542-1.6H75.726l-.55,1.6H73.7l2.712-6.978Zm.167,4.346-.574-1.667q-.1-.3-.183-.55c-.048-.167-.1-.343-.152-.518h-.048q-.144.542-.335,1.077l-.582,1.659Z" transform="translate(-14.924 -50.569)" fill="#fff"/>
    <path id="パス_25957" data-name="パス 25957" d="M84.294,251.7v-.75a1.818,1.818,0,0,1,.447-1.324,1.763,1.763,0,0,1,1.316-.455,3.238,3.238,0,0,1,.455,0,2.713,2.713,0,0,1,.391.08v1.132l-.279-.064h-.279a.622.622,0,0,0-.518.191.8.8,0,0,0-.152.518v.654h1.061v1.164H85.689v3.732h-1.4V252.86H83.6V251.7Z" transform="translate(-16.928 -50.453)" fill="#fff"/>
    <path id="パス_25958" data-name="パス 25958" d="M89.606,251.935v-1.6h1.388v1.6h1.2V253.1h-1.2v1.906a.853.853,0,0,0,.144.574.63.63,0,0,0,.471.152h.3a1.724,1.724,0,0,0,.279-.08v1.124a3.374,3.374,0,0,1-.479.1,3.6,3.6,0,0,1-.478,0,2.123,2.123,0,0,1-.8-.12,1.244,1.244,0,0,1-.51-.351,1.364,1.364,0,0,1-.279-.558,2.984,2.984,0,0,1-.08-.726V253.1H89v-1.164Z" transform="translate(-18.022 -50.692)" fill="#fff"/>
    <path id="パス_25959" data-name="パス 25959" d="M98.549,252.343a2.3,2.3,0,0,1,.8.566,2.392,2.392,0,0,1,.479.8,2.959,2.959,0,0,1,.167.981v.175a1,1,0,0,1,0,.191H96.316a1.148,1.148,0,0,0,.1.479,1.411,1.411,0,0,0,.271.4,1.269,1.269,0,0,0,.4.279,1.2,1.2,0,0,0,.494.1,1.14,1.14,0,0,0,.574-.136,1.236,1.236,0,0,0,.407-.375H99.9a2.981,2.981,0,0,1-.319.59,2.147,2.147,0,0,1-.479.495,2.254,2.254,0,0,1-.67.335,2.83,2.83,0,0,1-.861.12,2.76,2.76,0,0,1-1.029-.191,2.391,2.391,0,0,1-.8-.542,2.535,2.535,0,0,1-.55-.837,2.855,2.855,0,0,1-.2-1.093,2.927,2.927,0,0,1,.167-1,2.393,2.393,0,0,1,.494-.8,2.313,2.313,0,0,1,.8-.558,2.633,2.633,0,0,1,1.069-.207A2.576,2.576,0,0,1,98.549,252.343Zm-1.539.837a1.083,1.083,0,0,0-.351.231,1.139,1.139,0,0,0-.231.335,1.22,1.22,0,0,0-.1.391h2.289a1.228,1.228,0,0,0-.351-.734,1.061,1.061,0,0,0-.8-.311A1.164,1.164,0,0,0,97.01,253.181Z" transform="translate(-19.237 -51.052)" fill="#fff"/>
    <path id="パス_25960" data-name="パス 25960" d="M106.715,253.46h-.367a1.141,1.141,0,0,0-.917.367,1.547,1.547,0,0,0-.311,1.029v2.392h-1.38v-4.9h1.348v.758h0a2.033,2.033,0,0,1,.574-.63,1.411,1.411,0,0,1,.861-.271,2.035,2.035,0,0,1,.447.04v1.292Z" transform="translate(-21.007 -51.069)" fill="#fff"/>
    <path id="パス_25961" data-name="パス 25961" d="M112.145,253.214a.55.55,0,0,0-.391-.144.494.494,0,0,0-.375.136.415.415,0,0,0-.128.3.494.494,0,0,0,0,.191.454.454,0,0,0,.144.175,1.5,1.5,0,0,0,.3.175,4.522,4.522,0,0,0,.5.191,2.321,2.321,0,0,1,1.093.646,1.411,1.411,0,0,1,.319.917,1.515,1.515,0,0,1-.128.622,1.475,1.475,0,0,1-.367.5,1.677,1.677,0,0,1-.59.335,2.538,2.538,0,0,1-.8.12,1.931,1.931,0,0,1-1.4-.447,1.691,1.691,0,0,1-.494-1.164h1.236a.8.8,0,0,0,.183.479.638.638,0,0,0,.5.183.551.551,0,0,0,.415-.152.511.511,0,0,0,.152-.367.535.535,0,0,0-.207-.431,2.529,2.529,0,0,0-.8-.359,2.56,2.56,0,0,1-1.053-.582,1.284,1.284,0,0,1-.3-.909,1.387,1.387,0,0,1,.128-.6,1.291,1.291,0,0,1,.367-.463,1.786,1.786,0,0,1,.558-.3,2.288,2.288,0,0,1,.718-.1,1.771,1.771,0,0,1,1.26.423,1.715,1.715,0,0,1,.526,1.061H112.36A.6.6,0,0,0,112.145,253.214Z" transform="translate(-22.242 -51.062)" fill="#fff"/>
    <path id="パス_25962" data-name="パス 25962" d="M120.277,252.305a2.273,2.273,0,0,1,.694.423,2.146,2.146,0,0,1,.455.574,2.264,2.264,0,0,1,.231.622h-1.372a.853.853,0,0,0-.335-.455,1.18,1.18,0,0,0-1.491.231,1.6,1.6,0,0,0-.319,1.045,1.881,1.881,0,0,0,.08.566,1.419,1.419,0,0,0,.239.463,1.115,1.115,0,0,0,.391.311,1.187,1.187,0,0,0,.526.112.933.933,0,0,0,.638-.207,1.18,1.18,0,0,0,.335-.471h1.388a3.007,3.007,0,0,1-.3.718,2.211,2.211,0,0,1-.494.59,2.33,2.33,0,0,1-.694.4,2.592,2.592,0,0,1-.909.152,2.84,2.84,0,0,1-1.021-.183,2.392,2.392,0,0,1-.8-.534,2.529,2.529,0,0,1-.558-.8,2.776,2.776,0,0,1-.207-1.093,2.84,2.84,0,0,1,.175-1,2.393,2.393,0,0,1,1.34-1.388,2.773,2.773,0,0,1,1.093-.207A2.5,2.5,0,0,1,120.277,252.305Z" transform="translate(-23.643 -51.062)" fill="#fff"/>
    <path id="パス_25963" data-name="パス 25963" d="M126.846,249.25v3.078h.04a1.507,1.507,0,0,1,.638-.59,1.883,1.883,0,0,1,.8-.175,2,2,0,0,1,.75.136,1.6,1.6,0,0,1,.59.415,1.946,1.946,0,0,1,.383.7,3.189,3.189,0,0,1,.136.989v2.815H128.8v-2.735a1.212,1.212,0,0,0-.247-.8.853.853,0,0,0-.678-.279.981.981,0,0,0-.75.311,1.324,1.324,0,0,0-.3.933v2.592h-1.38v-7.369Z" transform="translate(-25.403 -50.471)" fill="#fff"/>
    <path id="パス_25964" data-name="パス 25964" d="M133.947,253.711a2.489,2.489,0,0,1,.55-.8,2.522,2.522,0,0,1,.8-.542,2.719,2.719,0,0,1,1.037-.191,2.751,2.751,0,0,1,1.061.2,2.463,2.463,0,0,1,.8.55,2.5,2.5,0,0,1,.534.8,2.726,2.726,0,0,1,.191,1.037,2.655,2.655,0,0,1-.191,1.021,2.576,2.576,0,0,1-2.392,1.6,2.648,2.648,0,0,1-1.045-.207,2.553,2.553,0,0,1-.8-.558,2.592,2.592,0,0,1-.55-.8,2.807,2.807,0,0,1,0-2.082Zm1.284,1.6a1.275,1.275,0,0,0,.263.439,1.221,1.221,0,0,0,.391.287,1.132,1.132,0,0,0,.486.1,1.092,1.092,0,0,0,.893-.4,1.515,1.515,0,0,0,.327-.989,1.716,1.716,0,0,0-.08-.534,1.364,1.364,0,0,0-.231-.439,1.117,1.117,0,0,0-.383-.3,1.165,1.165,0,0,0-.518-.112,1.109,1.109,0,0,0-.909.391,1.524,1.524,0,0,0-.319,1,1.643,1.643,0,0,0,.1.574Z" transform="translate(-27.081 -51.065)" fill="#fff"/>
    <path id="パス_25965" data-name="パス 25965" d="M142.577,253.711a2.488,2.488,0,0,1,.55-.8,2.521,2.521,0,0,1,.8-.542,2.912,2.912,0,0,1,2.1.008,2.464,2.464,0,0,1,.8.55,2.5,2.5,0,0,1,.534.8,2.736,2.736,0,0,1,.191,1.037,2.672,2.672,0,0,1-.191,1.021,2.576,2.576,0,0,1-2.393,1.6,2.649,2.649,0,0,1-1.045-.207,2.553,2.553,0,0,1-.8-.558,2.593,2.593,0,0,1-.55-.8,2.807,2.807,0,0,1,0-2.082Zm1.284,1.6a1.292,1.292,0,0,0,.263.439,1.228,1.228,0,0,0,.391.287,1.14,1.14,0,0,0,.486.1,1.092,1.092,0,0,0,.893-.4,1.515,1.515,0,0,0,.327-.989,1.715,1.715,0,0,0-.08-.534,1.372,1.372,0,0,0-.239-.439,1.117,1.117,0,0,0-.383-.3,1.165,1.165,0,0,0-.518-.112,1.109,1.109,0,0,0-.909.391,1.523,1.523,0,0,0-.319,1,1.642,1.642,0,0,0,.088.574Z" transform="translate(-28.829 -51.065)" fill="#fff"/>
    <path id="パス_25966" data-name="パス 25966" d="M152.78,249.25v7.369H151.4V249.25Z" transform="translate(-30.657 -50.471)" fill="#fff"/>
    <path id="パス_25967" data-name="パス 25967" d="M165.874,253.134v.08a3.462,3.462,0,0,1-.191,1.148,3.054,3.054,0,0,1-.51.933,1.506,1.506,0,0,0,.375.319.71.71,0,0,0,.343.1h.3V256.8l-.231.048a1.9,1.9,0,0,1-.3,0,1.5,1.5,0,0,1-.718-.16,2.3,2.3,0,0,1-.614-.518,3.336,3.336,0,0,1-.351.239,3.414,3.414,0,0,1-.447.223,3,3,0,0,1-.534.168,3.189,3.189,0,0,1-1.6-.1,2.025,2.025,0,0,1-.71-.439,1.707,1.707,0,0,1-.415-.638,2.186,2.186,0,0,1-.136-.8,1.882,1.882,0,0,1,.383-1.2,3.357,3.357,0,0,1,1.085-.861,5.363,5.363,0,0,1-.431-.8,2.09,2.09,0,0,1-.183-.869,1.69,1.69,0,0,1,.112-.606,1.468,1.468,0,0,1,.351-.534,1.771,1.771,0,0,1,.614-.383,2.751,2.751,0,0,1,1.659,0,1.818,1.818,0,0,1,.606.319,1.451,1.451,0,0,1,.542,1.164,1.6,1.6,0,0,1-.4,1.108,3.8,3.8,0,0,1-1.164.853l1.061,1.372a2.135,2.135,0,0,0,.2-.518,2.759,2.759,0,0,0,.064-.646v-.1Zm-2.783,2.5a1.7,1.7,0,0,0,.471-.3l-1.364-1.731a1.953,1.953,0,0,0-.582.558,1.14,1.14,0,0,0-.183.622,1,1,0,0,0,.072.375.918.918,0,0,0,.207.311,1.021,1.021,0,0,0,.319.215,1.052,1.052,0,0,0,.423.08,1.53,1.53,0,0,0,.638-.136Zm-.7-3.988a2.314,2.314,0,0,0,.3.51,2.479,2.479,0,0,0,.7-.479.846.846,0,0,0,.239-.606.622.622,0,0,0-.167-.407.662.662,0,0,0-.526-.191.7.7,0,0,0-.3.056.614.614,0,0,0-.207.152.566.566,0,0,0-.12.2.654.654,0,0,0,0,.207,1.452,1.452,0,0,0,.1.6Z" transform="translate(-32.427 -50.512)" fill="#fff"/>
    <path id="パス_25968" data-name="パス 25968" d="M176.273,253.929l-.215.223v2.536H174.59V249.71h1.467v2.672l2.536-2.672h1.834l-2.935,3.023,3.278,3.988H178.9l-2.393-2.991Z" transform="translate(-35.353 -50.564)" fill="#fff"/>
    <path id="パス_25969" data-name="パス 25969" d="M185.561,249.4v1.324H184.11V249.4Zm-.04,2.345v4.9h-1.38v-4.9Z" transform="translate(-37.281 -50.502)" fill="#fff"/>
    <path id="パス_25970" data-name="パス 25970" d="M190.108,252.3v.614h.04a1.508,1.508,0,0,1,.638-.59,1.907,1.907,0,0,1,.8-.175,1.771,1.771,0,0,1,1.348.558,2.393,2.393,0,0,1,.518,1.683v2.815h-1.38v-2.719a1.236,1.236,0,0,0-.247-.8.845.845,0,0,0-.678-.279.973.973,0,0,0-.75.319,1.332,1.332,0,0,0-.3.933v2.592h-1.38v-4.9Z" transform="translate(-38.214 -51.058)" fill="#fff"/>
    <path id="パス_25971" data-name="パス 25971" d="M200.946,256.619v-.534h-.04a2.333,2.333,0,0,1-.638.486,1.986,1.986,0,0,1-.973.223,2.114,2.114,0,0,1-1.467-.622,2.56,2.56,0,0,1-.542-.8,2.99,2.99,0,0,1-.215-1.2,2.888,2.888,0,0,1,.191-1.061,2.6,2.6,0,0,1,.51-.8,2.241,2.241,0,0,1,.742-.534,2.153,2.153,0,0,1,.885-.191,1.755,1.755,0,0,1,.9.207,1.939,1.939,0,0,1,.582.518h.04V249.29h1.348v7.369Zm-2.393-1.922a1.355,1.355,0,0,0,.239.455,1.213,1.213,0,0,0,.391.319,1.181,1.181,0,0,0,.55.12,1.084,1.084,0,0,0,.463-.1,1.188,1.188,0,0,0,.391-.3,1.491,1.491,0,0,0,.271-.447,1.539,1.539,0,0,0,.1-.566,1.818,1.818,0,0,0-.1-.59,1.357,1.357,0,0,0-.255-.463,1.189,1.189,0,0,0-.391-.3,1.1,1.1,0,0,0-.478-.1,1.173,1.173,0,0,0-.558.128,1.22,1.22,0,0,0-.4.335,1.41,1.41,0,0,0-.239.463,1.81,1.81,0,0,0,0,1.045Z" transform="translate(-39.905 -50.479)" fill="#fff"/>
    <path id="パス_25972" data-name="パス 25972" d="M209.687,252.343a2.3,2.3,0,0,1,.8.566,2.392,2.392,0,0,1,.479.8,2.957,2.957,0,0,1,.167.981v.175a.988.988,0,0,1,0,.191h-3.645a1.149,1.149,0,0,0,.1.479,1.412,1.412,0,0,0,.271.4,1.269,1.269,0,0,0,.4.279,1.205,1.205,0,0,0,.494.1,1.14,1.14,0,0,0,.574-.136,1.236,1.236,0,0,0,.407-.375h1.34a2.984,2.984,0,0,1-.319.59,2.145,2.145,0,0,1-.478.495,2.258,2.258,0,0,1-.67.335,2.83,2.83,0,0,1-.861.12,2.76,2.76,0,0,1-1.029-.191,2.393,2.393,0,0,1-.8-.542,2.535,2.535,0,0,1-.55-.837,2.856,2.856,0,0,1-.2-1.093,2.929,2.929,0,0,1,.167-1,2.394,2.394,0,0,1,.494-.8,2.313,2.313,0,0,1,.8-.558,2.632,2.632,0,0,1,1.069-.207A2.576,2.576,0,0,1,209.687,252.343Zm-1.539.837a1.085,1.085,0,0,0-.351.231,1.138,1.138,0,0,0-.231.335,1.219,1.219,0,0,0-.1.391h2.289a1.228,1.228,0,0,0-.351-.734,1.061,1.061,0,0,0-.8-.311A1.164,1.164,0,0,0,208.148,253.181Z" transform="translate(-41.748 -51.052)" fill="#fff"/>
    <path id="パス_25973" data-name="パス 25973" d="M217.845,253.46h-.367a1.141,1.141,0,0,0-.917.367,1.547,1.547,0,0,0-.311,1.029v2.392h-1.38v-4.9h1.348v.758h0a2.034,2.034,0,0,1,.574-.63,1.411,1.411,0,0,1,.861-.271,2.035,2.035,0,0,1,.447.04v1.292Z" transform="translate(-43.51 -51.069)" fill="#fff"/>
    <path id="パス_25974" data-name="パス 25974" d="M225.5,259.142a2.552,2.552,0,0,1-1.994.71,2.584,2.584,0,0,1-1.675-.518,2.217,2.217,0,0,1-.8-1.443h1.38a1.109,1.109,0,0,0,.351.6,1.2,1.2,0,0,0,.8.239,1.157,1.157,0,0,0,.941-.375,1.659,1.659,0,0,0,.319-1.093v-.622h0a2.114,2.114,0,0,1-.622.5,1.955,1.955,0,0,1-.949.207,2.266,2.266,0,0,1-.9-.175,2.12,2.12,0,0,1-.734-.518,2.536,2.536,0,0,1-.495-.8,2.95,2.95,0,0,1-.183-1.069,2.9,2.9,0,0,1,.175-1.029,2.48,2.48,0,0,1,.494-.8,2.394,2.394,0,0,1,.75-.542,2.241,2.241,0,0,1,.949-.2,1.928,1.928,0,0,1,.518.064,1.827,1.827,0,0,1,.423.175,1.593,1.593,0,0,1,.319.239,1.914,1.914,0,0,1,.223.263h.048v-.59h1.292v4.785A3.015,3.015,0,0,1,225.5,259.142Zm-3.086-3.908a1.285,1.285,0,0,0,.223.439,1.18,1.18,0,0,0,.391.319,1.2,1.2,0,0,0,.566.12,1.179,1.179,0,0,0,.486-.1,1.22,1.22,0,0,0,.4-.279,1.309,1.309,0,0,0,.263-.431,1.54,1.54,0,0,0,.1-.558,1.6,1.6,0,0,0-.1-.574,1.413,1.413,0,0,0-.263-.439,1.093,1.093,0,0,0-.391-.279,1.234,1.234,0,0,0-.486-.1,1.164,1.164,0,0,0-.933.431,1.378,1.378,0,0,0-.239.447,1.592,1.592,0,0,0-.08.51A1.8,1.8,0,0,0,222.415,255.235Z" transform="translate(-44.739 -51.073)" fill="#fff"/>
    <path id="パス_25975" data-name="パス 25975" d="M233.8,257.21V256.6h-.04a2.136,2.136,0,0,1-.614.55,1.866,1.866,0,0,1-.981.231,2.138,2.138,0,0,1-.75-.152,2.1,2.1,0,0,1-.718-.463,2.5,2.5,0,0,1-.542-.8,2.991,2.991,0,0,1-.215-1.2,2.878,2.878,0,0,1,.191-1.069,2.5,2.5,0,0,1,.51-.8,2.209,2.209,0,0,1,.742-.518,2.241,2.241,0,0,1,.893-.175,1.8,1.8,0,0,1,.933.239,1.6,1.6,0,0,1,.319.247,2.308,2.308,0,0,1,.239.279h.04v-.638h1.332v4.9Zm-2.393-1.922a1.4,1.4,0,0,0,.231.455,1.1,1.1,0,0,0,.391.319,1.244,1.244,0,0,0,.566.12,1.086,1.086,0,0,0,.463-.1,1.229,1.229,0,0,0,.391-.287,1.425,1.425,0,0,0,.271-.447,1.539,1.539,0,0,0,.1-.566,1.772,1.772,0,0,0-.1-.582,1.3,1.3,0,0,0-.255-.447,1.149,1.149,0,0,0-.869-.391,1.147,1.147,0,0,0-.957.439,1.362,1.362,0,0,0-.239.447,1.749,1.749,0,0,0-.08.518,1.8,1.8,0,0,0,.088.526Z" transform="translate(-46.561 -51.071)" fill="#fff"/>
    <path id="パス_25976" data-name="パス 25976" d="M242.325,253.46h-.367a1.141,1.141,0,0,0-.917.367,1.547,1.547,0,0,0-.311,1.029v2.392h-1.38v-4.9h1.316v.758h0a2.035,2.035,0,0,1,.574-.63,1.4,1.4,0,0,1,.861-.271,2.035,2.035,0,0,1,.447.04v1.292Z" transform="translate(-48.467 -51.069)" fill="#fff"/>
    <path id="パス_25977" data-name="パス 25977" d="M245.746,251.935v-1.6h1.4v1.6H248.3V253.1h-1.156v1.906a.853.853,0,0,0,.144.574.63.63,0,0,0,.47.152h.3a1.709,1.709,0,0,0,.3-.064v1.124a3.359,3.359,0,0,1-.479.1,3.566,3.566,0,0,1-.478,0,2.12,2.12,0,0,1-.8-.12,1.236,1.236,0,0,1-.51-.351,1.363,1.363,0,0,1-.279-.558,3.014,3.014,0,0,1-.08-.726V253.1h-.59v-1.164Z" transform="translate(-49.639 -50.692)" fill="#fff"/>
    <path id="パス_25978" data-name="パス 25978" d="M254.707,252.343a2.311,2.311,0,0,1,.8.566,2.391,2.391,0,0,1,.478.8,2.965,2.965,0,0,1,.168.981v.175a.993.993,0,0,1,0,.191h-3.645a1.149,1.149,0,0,0,.1.479,1.4,1.4,0,0,0,.271.4,1.278,1.278,0,0,0,.4.279,1.2,1.2,0,0,0,.494.1,1.14,1.14,0,0,0,.574-.136,1.243,1.243,0,0,0,.407-.375h1.34a2.96,2.96,0,0,1-.319.59,2.144,2.144,0,0,1-.478.495,2.257,2.257,0,0,1-.67.335,2.833,2.833,0,0,1-.861.12,2.76,2.76,0,0,1-1.029-.191,2.394,2.394,0,0,1-.8-.542,2.536,2.536,0,0,1-.55-.837,2.84,2.84,0,0,1-.2-1.093,2.911,2.911,0,0,1,.167-1,2.391,2.391,0,0,1,.494-.8,2.3,2.3,0,0,1,.8-.558,2.633,2.633,0,0,1,1.069-.207A2.576,2.576,0,0,1,254.707,252.343Zm-1.539.837a1.092,1.092,0,0,0-.351.231,1.136,1.136,0,0,0-.231.335,1.235,1.235,0,0,0-.1.391h2.289a1.228,1.228,0,0,0-.351-.734,1.061,1.061,0,0,0-.8-.311,1.163,1.163,0,0,0-.463.088Z" transform="translate(-50.864 -51.052)" fill="#fff"/>
    <path id="パス_25979" data-name="パス 25979" d="M261.238,252.3v.614h.04a1.508,1.508,0,0,1,.638-.59,1.906,1.906,0,0,1,.8-.175,1.771,1.771,0,0,1,1.348.558,2.393,2.393,0,0,1,.518,1.683v2.815H263.2v-2.719a1.236,1.236,0,0,0-.247-.8.845.845,0,0,0-.678-.279.973.973,0,0,0-.75.319,1.332,1.332,0,0,0-.3.933v2.592h-1.38v-4.9Z" transform="translate(-52.618 -51.058)" fill="#fff"/>
    <path id="パス_25980" data-name="パス 25980" d="M198.31,131.75a2,2,0,0,0-.718-1.675,1.6,1.6,0,0,0-1.475-.606H195.2a7.382,7.382,0,0,0-1,0,5.136,5.136,0,0,0-.973.12c-.136,0-.287.064-.542.1a3.767,3.767,0,0,0-.8.2,1.4,1.4,0,0,1-.526.1.4.4,0,0,1-.287-.08,2.218,2.218,0,0,0-1.053-.319,3.294,3.294,0,0,0-.933.048,2.517,2.517,0,0,1-.542,0,3.118,3.118,0,0,1-.566-.064,4.133,4.133,0,0,0-.9-.08,2.72,2.72,0,0,0-1.029.183,1.348,1.348,0,0,1-.455.1,3.285,3.285,0,0,0-.933.183,2.126,2.126,0,0,1-.479.112c-.064.04-.183-.048-.3-.1a1.451,1.451,0,0,0-1.794.231,1.467,1.467,0,0,0-.183,1.747.885.885,0,0,1,.1.319,6.727,6.727,0,0,1-.056.8l-.048.447a4.281,4.281,0,0,0,0,.869,1.976,1.976,0,0,1,0,.6,3.773,3.773,0,0,0-.048.869,1.037,1.037,0,0,1-.08.526c0,.1,0,.1-.191.191a2.233,2.233,0,0,0-.861.8,2.752,2.752,0,0,0-.383,1.021,1.253,1.253,0,0,1-.159.463,2.522,2.522,0,0,1-.311.463,3.754,3.754,0,0,0-.51.8,2.935,2.935,0,0,0-.3.957,1.22,1.22,0,0,1-.143.463,2.091,2.091,0,0,1-.311.479,3.761,3.761,0,0,0-.5.8,1.459,1.459,0,0,1-.327.471,4.525,4.525,0,0,0-.51.606,1.66,1.66,0,0,1-.4.439,4.994,4.994,0,0,0-.542.5c-.207.215-.327.359-.431.47a4.725,4.725,0,0,1-.534.534,2.1,2.1,0,0,0-.654,1.021c-.056.167-.056.167-.144.239a3.61,3.61,0,0,1-.463.3,3.71,3.71,0,0,0-.8.574,1.22,1.22,0,0,1-.407.247,2.512,2.512,0,0,0-.941.662q-.211.221-.4.463a1.179,1.179,0,0,1-.478.383,3.649,3.649,0,0,0-.678.494.678.678,0,0,1-.415.215.542.542,0,0,1-.343,0,1.9,1.9,0,0,0-1.372.064,6.713,6.713,0,0,0-1.332.678l-.16.1a2.162,2.162,0,0,0-.8.893l-.16.167a.638.638,0,0,1-.431,0,3.117,3.117,0,0,0-.941,0,2.617,2.617,0,0,0-1,.335.685.685,0,0,1-.4.12.462.462,0,0,1-.343-.1,2.392,2.392,0,0,0-1.077-.327,2.512,2.512,0,0,1-.542-.088,3.677,3.677,0,0,0-1.029-.128,2.089,2.089,0,0,0-1.2.375.638.638,0,0,1-.351.136l-.439.048a2.56,2.56,0,0,1-.9,0,.407.407,0,0,1-.311-.144,2.633,2.633,0,0,0-.869-.534,3.708,3.708,0,0,1-.55-.255,4.435,4.435,0,0,0-.869-.383,3.557,3.557,0,0,0-.965-.191,2.3,2.3,0,0,1-.542-.1l-.351-.1a5.58,5.58,0,0,1-.941-.335,2.935,2.935,0,0,0-.933-.231.8.8,0,0,1-.423-.136l-.678-.375-.622-.343-1.284-.742a.534.534,0,0,1-.255-.263,2.688,2.688,0,0,0-.877-.893,9.446,9.446,0,0,1-.981-.758c-.3-.247-.423-.367-.566-.494l-.534-.479a3.479,3.479,0,0,1-.439-.455,4.944,4.944,0,0,0-.606-.63,2.393,2.393,0,0,0-.933-.526c-.152-.048-.152-.048-.231-.16a.391.391,0,0,1-.1-.311,2.513,2.513,0,0,0-.215-1.013,4.053,4.053,0,0,0-.455-.8,2.591,2.591,0,0,1-.287-.518,3.374,3.374,0,0,1-.2-.574,4.785,4.785,0,0,0-.279-.8,2.639,2.639,0,0,0-.606-.893,1.077,1.077,0,0,1-.271-.375,4.293,4.293,0,0,1-.231-.566,4.951,4.951,0,0,0-.367-.853c-.152-.279-.255-.447-.343-.59a3.376,3.376,0,0,1-.327-.646,3.725,3.725,0,0,0-.431-.8,1.546,1.546,0,0,1-.263-.6,6.429,6.429,0,0,1-.255-1.276,4.123,4.123,0,0,1,0-.869v-.423a1.356,1.356,0,0,1,.175-.263,1.4,1.4,0,0,0,.112-1.874,1.715,1.715,0,0,0-1.651-.582,1.524,1.524,0,0,1-.431,0,2.624,2.624,0,0,0-1.061,0,1.651,1.651,0,0,1-.463.04h-.407a8.787,8.787,0,0,0-1.109,0,1.9,1.9,0,0,1-.558,0,4.389,4.389,0,0,0-.8-.088,2.026,2.026,0,0,0-1.172.335c-.144.08-.144.08-.231.08s-.056,0-.191-.128a1.763,1.763,0,0,0-1.292-.55h0a1.763,1.763,0,0,0-1.292.542c-.128.12-.128.12-.191.12a2.169,2.169,0,0,1-.55,0,3.628,3.628,0,0,0-.893,0,.75.75,0,0,1-.359-.056,2.321,2.321,0,0,0-1.061-.152h-.327a1.731,1.731,0,0,0-1.467.686,1.659,1.659,0,0,0-.55,1.515v.319a5.578,5.578,0,0,0,.088.9c0,.128.048.279.072.526a5.644,5.644,0,0,1,0,.574,5.032,5.032,0,0,0,.1.949,3.509,3.509,0,0,0,.271.877,1.53,1.53,0,0,1,.144.494c.048.311.08.494.1.654s.064.367.112.8a2.791,2.791,0,0,0,.3,1.029,2.042,2.042,0,0,1,.167.455.837.837,0,0,1,0,.4,2.161,2.161,0,0,0,.144,1.2,4.654,4.654,0,0,1,.247.742,2.549,2.549,0,0,0,.144.55,2.719,2.719,0,0,0,.439.909.694.694,0,0,1,.159.375,4.483,4.483,0,0,0,.287,1.085l.159.439a5.007,5.007,0,0,0,.471,1.085l.183.335a.742.742,0,0,1,.1.383,2.337,2.337,0,0,0,.3,1.069,4.381,4.381,0,0,0,.478.734,3.126,3.126,0,0,1,.327.494,1.315,1.315,0,0,1,.159.447,2.728,2.728,0,0,0,.4.989,2.687,2.687,0,0,0,.726.8,1.276,1.276,0,0,1,.335.335,3.438,3.438,0,0,0,.638.694,1.882,1.882,0,0,1,.367.391,2.5,2.5,0,0,1,.287.494,3.988,3.988,0,0,0,.455.8,5.58,5.58,0,0,0,.734.885l.3.3a4.961,4.961,0,0,1,.351.4,4.258,4.258,0,0,0,.8.734,2.623,2.623,0,0,0,.909.479.606.606,0,0,1,.335.2c.064.064.064.064.08.231a2.1,2.1,0,0,0,.439,1.14,6.325,6.325,0,0,0,1.124,1.212,3.837,3.837,0,0,0,.941.654c.112.056.247.128.439.247a6.725,6.725,0,0,0,.718.383,5.192,5.192,0,0,1,.574.311,3.346,3.346,0,0,1,.494.351,4.9,4.9,0,0,0,.686.494,2.2,2.2,0,0,0,1.093.343.446.446,0,0,1,.3.1c.112.08.12.1.191.255a2.154,2.154,0,0,0,.71.933,2.928,2.928,0,0,0,.957.518,2.391,2.391,0,0,1,.471.207,2.783,2.783,0,0,0,1,.375,2.155,2.155,0,0,1,.479.136.678.678,0,0,1,.311.223,2.3,2.3,0,0,0,.933.638,4.26,4.26,0,0,0,.861.247,3.184,3.184,0,0,1,.566.159c.239.088.391.152.518.207a5.767,5.767,0,0,0,.925.319,2.521,2.521,0,0,0,1.1.08,1.187,1.187,0,0,1,.447,0,1.148,1.148,0,0,1,.455.167,3.127,3.127,0,0,0,.869.359l.518.128a8.539,8.539,0,0,1,.845.239.878.878,0,0,1,.359.207,2.216,2.216,0,0,0,1.085.526,2.337,2.337,0,0,0,1.172,0,1.125,1.125,0,0,1,.439-.048,1.6,1.6,0,0,1,.518.112,3.6,3.6,0,0,0,.885.207h.359a2.616,2.616,0,0,0,.678-.088.9.9,0,0,1,.431,0,5.015,5.015,0,0,0,1.132.072h.447a4.678,4.678,0,0,0,1-.088c.128,0,.279-.056.534-.08l.566-.048a6.215,6.215,0,0,0,.965-.128,3.985,3.985,0,0,0,.885-.271,3.2,3.2,0,0,1,.542-.175.877.877,0,0,1,.439,0,2.815,2.815,0,0,0,.973,0,2.392,2.392,0,0,0,1.021-.391.518.518,0,0,1,.327-.12.606.606,0,0,1,.351.072,2.058,2.058,0,0,0,1.212.167,12.064,12.064,0,0,0,1.547-.159,2.113,2.113,0,0,0,1.077-.582.838.838,0,0,1,.327-.215,1.729,1.729,0,0,1,.471-.12,2.64,2.64,0,0,0,1.053-.359,4.878,4.878,0,0,0,.678-.447,2.393,2.393,0,0,1,.518-.319,6.368,6.368,0,0,1,.726-.311l.574-.215c.287-.12.447-.167.59-.223s.391-.136.8-.3a1.89,1.89,0,0,1,.518-.152,3.549,3.549,0,0,0,.917-.287,2.113,2.113,0,0,0,.925-.8.582.582,0,0,1,.255-.239.838.838,0,0,1,.391-.112,2.3,2.3,0,0,0,1.093-.359,2.7,2.7,0,0,0,.8-.718,1.468,1.468,0,0,1,.343-.343,10.176,10.176,0,0,0,.973-.8l.207-.183a2.539,2.539,0,0,1,.463-.335,4.194,4.194,0,0,0,.726-.526,5.42,5.42,0,0,0,.6-.606,3.489,3.489,0,0,1,.431-.439,7.972,7.972,0,0,0,1.1-1.1,1.173,1.173,0,0,1,.343-.279,2.393,2.393,0,0,0,.853-.8,3.046,3.046,0,0,0,.415-.877,1.252,1.252,0,0,1,.215-.439,3.34,3.34,0,0,0,.439-.8,1.518,1.518,0,0,1,.255-.447c.3-.375.391-.518.534-.726l.327-.463c.279-.383.375-.534.5-.742l.319-.478c.056-.088.056-.088.215-.152a2.089,2.089,0,0,0,1.388-1.914c0-.175,0-.175.072-.247a.53.53,0,0,1,.263-.152,1.842,1.842,0,0,0,1.085-.8,2.25,2.25,0,0,0,.367-1.14,1.038,1.038,0,0,1,.088-.415,1.857,1.857,0,0,1,.263-.463,3.366,3.366,0,0,0,.47-.8,2.337,2.337,0,0,0,.183-1.109.718.718,0,0,1,.056-.391,4.849,4.849,0,0,1,.255-.558,5.452,5.452,0,0,0,.351-.8.534.534,0,0,1,.2-.279,2.146,2.146,0,0,0,.662-1c.072-.215.128-.359.175-.486a5.586,5.586,0,0,0,.3-1.037,2.058,2.058,0,0,0-.112-1.26.63.63,0,0,1-.064-.359,6.066,6.066,0,0,0,0-.8,3.3,3.3,0,0,1,.04-.646,1.889,1.889,0,0,1,.152-.558,4.2,4.2,0,0,0,.255-.8,6.224,6.224,0,0,0,.16-1.14v-.407a.965.965,0,0,1,.12-.415,2.225,2.225,0,0,0,.255-1.2Zm-4.059,10.615a6.284,6.284,0,0,0-.327.726,2.287,2.287,0,0,0-.167.726H193.7l-.726.383c0-.064-.064-.128-.1-.2a.845.845,0,0,0-.51-.407.86.86,0,0,0-.439,0c.973-.6,1.778-1.109,2.44-1.555A.827.827,0,0,1,194.251,142.365Zm2.105-9.474a2.5,2.5,0,0,0-.1.542v.431a5.007,5.007,0,0,1-.128.9,2.549,2.549,0,0,1-.167.526,2.153,2.153,0,0,0-.742.088.853.853,0,0,0-1.18-.335l-.614.359-.319.183L190.83,136.9l1.061-.726c2.943-2.018,4.1-2.815,4.466-3.278Zm-12.832,2.353a3.625,3.625,0,0,0,.04-.4.845.845,0,0,0,.391.263h.056l-.526.494A1.946,1.946,0,0,1,183.524,135.243Zm-2.839,6.085a1.229,1.229,0,0,1,.144-.463,2.065,2.065,0,0,1,.311-.486,4.526,4.526,0,0,0,.407-.6h0a.8.8,0,0,0,.16.486.853.853,0,0,0,.534.415h.048l-1.794,1.26a3.393,3.393,0,0,0,.191-.606Zm14.961-10.152a1.362,1.362,0,0,0,.574-.056,1.147,1.147,0,0,1,.136.128c.175.191.231.255.231.255a1.811,1.811,0,0,1,0,.3v.231a.59.59,0,0,1-.088.383v.088a1.013,1.013,0,0,0-.152-.351,1.029,1.029,0,0,0-.59-.447.9.9,0,0,0-.518,0,1.069,1.069,0,0,0-.167-.415.8.8,0,0,0-.167-.191h.128Zm-5.431.152a2.161,2.161,0,0,0,1.18.3,3.024,3.024,0,0,0,1.013-.191,2.251,2.251,0,0,1,.494-.12,2.34,2.34,0,0,0,.606-.1l-6.914,3.86,2.943-2.775a.853.853,0,0,0,.239-.8.8.8,0,0,0-.136-.247h.287a.582.582,0,0,1,.287.08Zm-5.032.215a1.546,1.546,0,0,1,.5-.1,3.024,3.024,0,0,0,.925-.2,1.036,1.036,0,0,1,.455-.08,2.7,2.7,0,0,1,.59.056h.207l-1.707,1.013-1.308.8c-.088-.55-.16-.965-.215-1.3a4.42,4.42,0,0,0,.55-.191Zm-25.52,22.41a.454.454,0,0,1,.319-.112,2.09,2.09,0,0,1,.574.072,4.027,4.027,0,0,0,.861.143.742.742,0,0,1,.375.12,2.242,2.242,0,0,0,.447.183c-2.664,1.6-5.319,3.142-7.616,4.458,3.684-3.118,4.179-3.988,4.075-4.5a2.393,2.393,0,0,0,.957-.367Zm-5.008.67.845-.494a.845.845,0,0,0,.247-.215,1.89,1.89,0,0,0,.678.375L154.1,155.7c.494-.518.59-.805.542-1.077Zm-5.192-2.855a2.464,2.464,0,0,0,1.093.351,1.331,1.331,0,0,1,.447.112,6.806,6.806,0,0,0,1.156.407l.335.1a3.8,3.8,0,0,0,.885.16,1.879,1.879,0,0,1,.55.112h.08c-2.887,1.6-6.548,3.7-9.419,5.3,1.491-1.364,3.278-2.951,4.992-4.426a.846.846,0,0,0-1.013-1.356c-2.129,1.372-4.418,2.783-6.38,3.916l5.726-5.335a.8.8,0,0,0,.088-.144l.128.072.678.375Zm-4.945-3.581a11.766,11.766,0,0,0,1.236.941.8.8,0,0,1,.263.3,2.257,2.257,0,0,0,.463.566l-.8.447a.853.853,0,0,0,0-.8,1,1,0,0,0-.582-.447,1.822,1.822,0,0,0-.981.159,1.42,1.42,0,0,0-.16-.351,1.117,1.117,0,0,0-.614-.47,2.225,2.225,0,0,0-1.451.327c.8-.67,1.308-1.124,1.659-1.467l.311.279C144.048,147.82,144.191,147.955,144.518,148.187Zm-4.394-5.208a2.572,2.572,0,0,1,.287.526.869.869,0,0,1,.08.4,2.01,2.01,0,0,0,.423,1.244,1.938,1.938,0,0,0,1.077.8.87.87,0,0,1,.263.128c-.455.215-1.037.51-1.8.917a.853.853,0,0,0,.175-1.037.957.957,0,0,0-.566-.439,1.069,1.069,0,0,0-.622,0,.8.8,0,0,0-.128-.383.949.949,0,0,0-.742-.4c1.4-1.156,1.436-1.539,1.132-2.081a1.069,1.069,0,0,0-.606-.463c-.5-.136-1.2.1-3.038,1.18l2.991-2.855a1.061,1.061,0,0,1,.136.239,3.376,3.376,0,0,1,.2.574,4.782,4.782,0,0,0,.279.8,4.05,4.05,0,0,0,.455.893Zm-2.337-4.785a3.237,3.237,0,0,1,.239.542,12.286,12.286,0,0,0-1.443.742.845.845,0,0,0-1.077-.12l-.981.638,1.962-1.595a.853.853,0,0,0,.215-1.077,1.085,1.085,0,0,0-.439-.4.71.71,0,0,0,0-.925c-.311-.55-.407-.71-3.629,1.037,1.093-.885,2.273-1.826,3.461-2.759a9.973,9.973,0,0,0,.247,1,2.942,2.942,0,0,0,.463,1,1.992,1.992,0,0,1,.255.463,4.785,4.785,0,0,0,.463.925,2.356,2.356,0,0,0,.255.574Zm-2.169-7.034a2.994,2.994,0,0,0,.654,0,1.85,1.85,0,0,0-.3.9c-.351.144-.845.375-1.595.75l.455-.359a.845.845,0,0,0,.191-1.14.791.791,0,0,0-.112-.12l.231-.04a1.036,1.036,0,0,1,.463.056Zm-4.2-.04a2.855,2.855,0,0,1,.526.056,3.443,3.443,0,0,0,.965.064h.718l-5.248,2.951c1.483-1.547,2.058-2.217,2.193-2.672a2.273,2.273,0,0,0,.606-.255c.1-.088.1-.112.231-.1Zm-4.195.4a1.882,1.882,0,0,0,1.188-.566l.144-.1.072.048c-.973.606-1.978,1.22-2.871,1.739l.8-1.021v-.1a3.61,3.61,0,0,0,.662.04Zm-3.007,4.49a3.317,3.317,0,0,0-.144-.518c.3-.136.678-.319,1.188-.6-.439.534-.774.853-1.053,1.156Zm-.638-3.932v-.072l.247-.152a.9.9,0,0,0,.072.271l.04.08-.311.407a3.987,3.987,0,0,1-.032-.486Zm1.858,9.73c-.064-.223-.1-.367-.128-.494a5.894,5.894,0,0,0-.319-.973.5.5,0,0,1,0-.351,2.528,2.528,0,0,0-.048-1.029,3.682,3.682,0,0,0-.287-.8h0l1.747-.965c-1.1,1.069-.965,1.316-.742,1.707a.845.845,0,0,0,.526.407.869.869,0,0,0,.662-.1l2.074-1.252c-3.23,2.807-3.007,3.19-2.735,3.692a.861.861,0,0,0,.255.279,5.162,5.162,0,0,0-.59.51,3.288,3.288,0,0,0-.175-.279A1.045,1.045,0,0,1,125.434,141.807Zm.949,2.5-.1-.287-.064-.183h.056a.8.8,0,0,0,.67-.112l.8-.518Zm1.348,3.318a2.863,2.863,0,0,1-.327-.494.734.734,0,0,1-.1-.383,2.79,2.79,0,0,0-.12-.6c.239-.088.534-.207.909-.383a.988.988,0,0,0,.407.231c.606.144,1.236-.175,5.216-2.719l-4.426,4.227a.845.845,0,0,0-.159,1.029.877.877,0,0,0,.542.415.582.582,0,0,0,.279,0c-.486.359-.853.646-1.14.885a1.178,1.178,0,0,1-.12-.159,1.045,1.045,0,0,1-.175-.439,2.99,2.99,0,0,0-.327-.909,4.523,4.523,0,0,0-.463-.678Zm8.493,10.766a4.912,4.912,0,0,1-.909-.989c-.072-.088-.072-.12-.1-.287a1.882,1.882,0,0,0-.566-1.236,2.265,2.265,0,0,0-1.021-.622.95.95,0,0,1-.375-.191,2.617,2.617,0,0,1-.5-.487c-.1-.12-.223-.271-.431-.486l-.319-.319a4.4,4.4,0,0,1-.566-.678,2.5,2.5,0,0,1-.287-.494l-.112-.223c.247-.128.526-.287.885-.5a.853.853,0,0,0,1.164,1.14l3.764-2.113c-2.584,2.257-2.775,2.7-2.393,3.358a.885.885,0,0,0,.542.415h.064c-.231.287-.152.463,0,.8a.853.853,0,0,0,.534.415.927.927,0,0,0,.343,0,.845.845,0,0,0,0,.861.9.9,0,0,0,.534.415c.391.112.606.159,4.785-2.2l-4.171,3.892h0l-.247-.136a2.169,2.169,0,0,1-.63-.3Zm2.807,1.659a27.479,27.479,0,0,0,2.5-1.26,17.31,17.31,0,0,0-1.707,1.858,3.621,3.621,0,0,1-.478-.351Zm7.552,4.346a2.8,2.8,0,0,1-.574-.167.671.671,0,0,1-.311-.215,2.337,2.337,0,0,0-.909-.638,3.643,3.643,0,0,0-.8-.231,1.173,1.173,0,0,1-.471-.176,3.894,3.894,0,0,0-.8-.343,1.307,1.307,0,0,1-.471-.255.526.526,0,0,1-.2-.279,2.758,2.758,0,0,0-.2-.383l.8-.4a.851.851,0,0,0,.9-.016l1.834-1.172c-1.651,1.2-1.6,1.3-1.268,1.89a.973.973,0,0,0,.566.439c.3.08.845.223,6.6-3.11-1.252,1.021-2.6,2.1-3.908,3.11a.853.853,0,0,0-.223,1.085.965.965,0,0,0,.566.439h0a2.442,2.442,0,0,0-.439.614,4.89,4.89,0,0,0-.71-.167Zm5.455,1.451-.534-.12a1.444,1.444,0,0,1-.447-.183,3.053,3.053,0,0,0-.383-.191l3.581-1.986,1.045-.526c-2.193,1.595-2.584,2.456-2.169,3.19a.837.837,0,0,0,.367.335,2.561,2.561,0,0,0-.526-.239,9.767,9.767,0,0,0-.949-.263Zm1.6.55.088.048a.878.878,0,0,0,.327,0,1.51,1.51,0,0,0,.128.263l.04.048a.645.645,0,0,1-.247-.144,3.3,3.3,0,0,0-.391-.2Zm7.082.534a3.245,3.245,0,0,1-.7.064h-.534a3.191,3.191,0,0,1-.8-.056,2.392,2.392,0,0,0-1.093.048,1,1,0,0,1-.439,0,1.97,1.97,0,0,1-.51-.12,3.62,3.62,0,0,0-.742-.175l22.147-12.274c-5.583,3.669-11.723,7.688-16.8,11a.845.845,0,0,0-.247,1.172.8.8,0,0,0,.215.223Zm4.96-.718a1.14,1.14,0,0,1-.455,0,2.48,2.48,0,0,0-1.109,0,4.241,4.241,0,0,0-.8.263,2.644,2.644,0,0,1-.558.167l-.3.048c2.56-1.6,5.176-3.27,7.736-4.841-3.988,2.839-4.283,3.684-4.115,4.163h0a.7.7,0,0,1-.455.215Zm22.41-13.5a3.19,3.19,0,0,0-.486.853,1.778,1.778,0,0,1-.247.447,2.833,2.833,0,0,0-.455.9.749.749,0,0,0-.048-.152.853.853,0,0,0-1.148-.319l-6.516,3.613c2.807-1.755,5.9-3.629,8.988-5.471Zm4.6-5.583-.191.12a2.082,2.082,0,0,0-1.013.67,1.938,1.938,0,0,0-.471,1.244v.088a1.133,1.133,0,0,0-.223-.1,5.582,5.582,0,0,0-2.544.638c2.1-1.42,3.565-2.44,4.586-3.19v.167a.59.59,0,0,1-.2.4Z" transform="translate(-24.701 -26.168)" fill="#fff"/>
    <path id="パス_25981" data-name="パス 25981" d="M197.647,65.554a1.675,1.675,0,0,1,0-.51,2.832,2.832,0,0,0,0-1.077,1.172,1.172,0,0,1,0-.471,2.552,2.552,0,0,0,0-1.14,2.138,2.138,0,0,0-.582-1.117.614.614,0,0,1-.191-.319c-.1-.391-.144-.566-.183-.8s-.072-.359-.152-.694a3.65,3.65,0,0,0-.327-.885,1.754,1.754,0,0,1-.191-.534.567.567,0,0,1,0-.367,2.154,2.154,0,0,0,0-1.244,4.427,4.427,0,0,1-.12-.614,5.159,5.159,0,0,0-.2-.925,3.006,3.006,0,0,0-.51-1.037,2.674,2.674,0,0,1-.287-.463c-.1-.191-.16-.335-.207-.455a4.847,4.847,0,0,0-.6-1.029,2.185,2.185,0,0,0-.965-.8c-.175-.08-.183-.08-.247-.2a.846.846,0,0,1-.136-.439,2.822,2.822,0,0,0-.263-1,2.235,2.235,0,0,1-.175-.526,3.191,3.191,0,0,0-.375-.981,2.656,2.656,0,0,0-.71-.861,1.4,1.4,0,0,1-.335-.367.55.55,0,0,1-.1-.343,2.074,2.074,0,0,0-.423-1.212,2.249,2.249,0,0,0-.957-.8.726.726,0,0,1-.327-.239,6.9,6.9,0,0,0-.782-.853l-.215-.2a2.252,2.252,0,0,1-.351-.407,2.942,2.942,0,0,0-.8-.8c-.59-.415-.606-.431-1.2-.893a4.275,4.275,0,0,0-.734-.471,2.09,2.09,0,0,1-.494-.335,4.67,4.67,0,0,1-.431-.415,4.714,4.714,0,0,0-.718-.654,3.372,3.372,0,0,0-.885-.5,2.21,2.21,0,0,1-.487-.255.877.877,0,0,1-.319-.319,2.871,2.871,0,0,0-.678-.742,3.192,3.192,0,0,0-.861-.486,1.124,1.124,0,0,1-.431-.271,3.987,3.987,0,0,0-.869-.638,4.778,4.778,0,0,1-.478-.3.614.614,0,0,1-.231-.287,1.994,1.994,0,0,0-.941-.949l-.5-.271a9.059,9.059,0,0,0-.933-.447,4.123,4.123,0,0,0-.965-.3,3.788,3.788,0,0,1-.582-.16,3.244,3.244,0,0,1-.542-.239,3.941,3.941,0,0,0-.965-.375,7.129,7.129,0,0,0-1.021-.2l-.574-.088a1.962,1.962,0,0,0-1.332.231c-.16.08-.152.08-.239.064a.5.5,0,0,1-.3-.183,2.273,2.273,0,0,0-1-.622,5.718,5.718,0,0,0-1-.239,2.794,2.794,0,0,1-.574-.112,5.4,5.4,0,0,1-.574-.16,4.634,4.634,0,0,0-.989-.215,5.671,5.671,0,0,0-1.029-.04H163.5a4.443,4.443,0,0,0-1.021.064,5.171,5.171,0,0,1-.582.064,2.313,2.313,0,0,1-.582,0A4.5,4.5,0,0,0,160.4,31a2.249,2.249,0,0,0-1.14.335.542.542,0,0,1-.343.112.8.8,0,0,1-.375-.1,2.225,2.225,0,0,0-1.188-.239,2.321,2.321,0,0,0-1.125.335.8.8,0,0,1-.4.136.431.431,0,0,1-.311-.08,2.074,2.074,0,0,0-1.268-.255,2.321,2.321,0,0,0-1.109.415.694.694,0,0,1-.375.152,5.838,5.838,0,0,0-1.236.255l-.351.1-.51.128a4.49,4.49,0,0,0-1.053.367,5.8,5.8,0,0,1-.8.319l-.558.191a2.114,2.114,0,0,1-.606.136,4.785,4.785,0,0,0-.8.144,3.868,3.868,0,0,0-.981.375,3.788,3.788,0,0,1-.526.239l-.175.064a9.329,9.329,0,0,0-1.308.566,2.935,2.935,0,0,0-.893.638,2.081,2.081,0,0,1-.407.335,5.4,5.4,0,0,1-.494.287,4.266,4.266,0,0,0-.861.574l-.431.359a6.748,6.748,0,0,1-.726.55.566.566,0,0,1-.367.12,2.512,2.512,0,0,0-1.053.319,3.23,3.23,0,0,0-.893.694,3.387,3.387,0,0,1-.4.375,4.785,4.785,0,0,0-.869.821l-.319.367c-.263.287-.391.415-.526.55s-.271.271-.526.534a2.576,2.576,0,0,0-.574.925.87.87,0,0,1-.231.375,1.874,1.874,0,0,1-.439.359,3.652,3.652,0,0,0-.734.582l-.383.383c-.207.207-.319.319-.686.67a3.932,3.932,0,0,0-.638.758,3.094,3.094,0,0,1-.359.455l-.343.367c-.223.239-.335.351-.7.8a1.962,1.962,0,0,1-.375.359,2.91,2.91,0,0,0-.734.8,5.515,5.515,0,0,1-.327.463,4.5,4.5,0,0,0-.55.909,3.04,3.04,0,0,0-.327.957,1.156,1.156,0,0,1-.152.479,6.657,6.657,0,0,1-.383.646c-.1.152-.215.319-.391.63a4.223,4.223,0,0,1-.311.463,3.8,3.8,0,0,0-.518.925,2.7,2.7,0,0,0-.239,1.1,1.691,1.691,0,0,1-.072.494,6.721,6.721,0,0,0-.167.8,3.191,3.191,0,0,1-.168.67.638.638,0,0,1-.231.335,2.5,2.5,0,0,0-.646.909l-.2.447a10.18,10.18,0,0,0-.4,1.021,3.246,3.246,0,0,0-.2,1.029,2.138,2.138,0,0,1-.088.542,1.277,1.277,0,0,1-.2.423,2.393,2.393,0,0,0-.415,1.14,2.459,2.459,0,0,1-.08.534,4.784,4.784,0,0,0-.08,1.148,2.241,2.241,0,0,0,.343,1.156.55.55,0,0,1,.112.359.989.989,0,0,1-.088.463,2.751,2.751,0,0,0-.2,1.037,5.851,5.851,0,0,1-.048.8c0,.167-.04.359-.064.686a4.783,4.783,0,0,1-.1.726c0,.175-.08.375-.12.734a2.5,2.5,0,0,0,.112,1.228,1.89,1.89,0,0,1,.1.494,3.063,3.063,0,0,0,.271,1.132,4.2,4.2,0,0,1,.175.486,5.107,5.107,0,0,0,.3.8,2.614,2.614,0,0,1,.207.622.539.539,0,0,1-.056.255,2.026,2.026,0,0,0-.215,1.268,5.179,5.179,0,0,1,.056.582,4.362,4.362,0,0,0,.159,1.037,3.469,3.469,0,0,0,.415.989,2.825,2.825,0,0,1,.247.5,2.735,2.735,0,0,0,.558.925,1.084,1.084,0,0,1,.247.4,1.4,1.4,0,0,1,.12.455,2.975,2.975,0,0,0,.223,1l.239.622c.08.207.144.391.311.8a2.959,2.959,0,0,0,.542.893,1.372,1.372,0,0,1,.263.423,3.79,3.79,0,0,1,.191.558,4.571,4.571,0,0,0,.407,1.021,14.064,14.064,0,0,0,.694,1.284,1.522,1.522,0,0,1,.183.463,2.68,2.68,0,0,0,.471,1.021,2.137,2.137,0,0,0,.989.8.678.678,0,0,1,.319.223.981.981,0,0,1,.223.4,2.656,2.656,0,0,0,.534.941l.51.582.486.55a2.393,2.393,0,0,0,.925.678.8.8,0,0,1,.335.239,1.236,1.236,0,0,1,.255.407,2.76,2.76,0,0,0,.582.893,2.489,2.489,0,0,0,.9.638.8.8,0,0,1,.351.247c.255.279.4.423.534.558s.263.263.518.542a.8.8,0,0,1,.2.351,2.081,2.081,0,0,0,.742,1.053l.311.247a5.43,5.43,0,0,0,1.061.718,3.19,3.19,0,0,0,.933.351,1.291,1.291,0,0,1,.479.191,1.6,1.6,0,0,1,.431.351,3.572,3.572,0,0,0,.726.606,3.1,3.1,0,0,0,.949.431,1.882,1.882,0,0,1,.494.207,1.6,1.6,0,0,1,.407.311,2.9,2.9,0,0,0,.869.622,2.057,2.057,0,0,1,.463.3,3.311,3.311,0,0,0,.877.534,2.177,2.177,0,0,0,1.22.167.63.63,0,0,1,.383,0c.471.175.654.231.909.3l.566.175a.726.726,0,0,1,.343.215,2.281,2.281,0,0,0,1.045.59,2.249,2.249,0,0,0,1.2,0,.646.646,0,0,1,.391,0,4.13,4.13,0,0,1,.582.183,4.73,4.73,0,0,0,.885.263c.8.167.8,0,1.539.159.478.08.67.1.909.128l.614.072a2.394,2.394,0,0,1,.558.136,3.836,3.836,0,0,0,.941.207h.3c.479.048.574.064,1.228.12a3.341,3.341,0,0,0,1-.048,1.93,1.93,0,0,1,.55,0h1.547a2.6,2.6,0,0,1,.534.064,3.294,3.294,0,0,0,1.061.056,1.594,1.594,0,0,1,.494,0,2.793,2.793,0,0,0,.534.056,2.857,2.857,0,0,0,.606-.072,2.631,2.631,0,0,0,1-.407.934.934,0,0,1,.423-.167c.734-.128.758,0,1.5-.12a3.565,3.565,0,0,0,.574-.072,5.67,5.67,0,0,0,1-.167,4.563,4.563,0,0,0,.957-.319,5.135,5.135,0,0,1,.55-.215,7.434,7.434,0,0,0,.742-.287,5.282,5.282,0,0,1,.662-.247c.407-.128.582-.167.8-.223l.662-.175a3.429,3.429,0,0,1,.526-.112,3.189,3.189,0,0,0,1.085-.335,5.483,5.483,0,0,0,1.14-.678l.287-.207a3.6,3.6,0,0,1,.646-.391,8.05,8.05,0,0,0,1.244-.75,2.56,2.56,0,0,1,.582-.335,1.6,1.6,0,0,1,.471-.136,2.465,2.465,0,0,0,1.109-.343,2.879,2.879,0,0,0,.837-.8,2.488,2.488,0,0,1,.351-.4,1.667,1.667,0,0,1,.463-.327,3.8,3.8,0,0,0,.758-.494,2.44,2.44,0,0,0,.694-.869.614.614,0,0,1,.247-.3.853.853,0,0,1,.391-.167,2.233,2.233,0,0,0,1.085-.542,2.169,2.169,0,0,0,.694-1.037.749.749,0,0,1,.2-.343,1.938,1.938,0,0,1,.447-.367,3.987,3.987,0,0,0,.726-.574l.486-.486c.152-.159.271-.287.582-.574a.8.8,0,0,1,.359-.191,1.994,1.994,0,0,0,1.133-.8,1.818,1.818,0,0,0,.327-1.459v-.335a5.245,5.245,0,0,1,.383-.71c.088-.144.191-.311.351-.59a.924.924,0,0,1,.3-.359,3.19,3.19,0,0,0,1.109-1.691,1.37,1.37,0,0,1,.2-.463.741.741,0,0,1,.3-.287,2.329,2.329,0,0,0,.8-.837,2.464,2.464,0,0,0,.383-1.132,1.436,1.436,0,0,1,.12-.471,2.558,2.558,0,0,0,.231-1.124,1.6,1.6,0,0,1,.064-.486,3.8,3.8,0,0,1,.255-.7c.072-.167.16-.351.279-.67a.8.8,0,0,1,.247-.375,2.744,2.744,0,0,0,.614-.845,3.559,3.559,0,0,1,.271-.471A3.109,3.109,0,0,0,197.3,78a2.393,2.393,0,0,0,0-1.26,1.594,1.594,0,0,1-.056-.486,2.988,2.988,0,0,1,.088-.622,4.781,4.781,0,0,0,.128-.9,2.32,2.32,0,0,0-.215-1.14.623.623,0,0,1-.08-.375,1,1,0,0,1,.12-.447,2.687,2.687,0,0,0,.279-1.029v-.8a5.866,5.866,0,0,1,0-.7,3.037,3.037,0,0,0-.048-1.037,1.593,1.593,0,0,1,0-.518q.02-.4.08-.8c0-.16.048-.351.08-.654a2.928,2.928,0,0,0-.056-1.117A3,3,0,0,1,197.647,65.554ZM177.805,85.627,174.3,87.669c14.068-8.621,19.427-12.09,21.357-13.709a.732.732,0,0,0,.1.271.654.654,0,0,1,.08.375,3.309,3.309,0,0,1-.088.622,4.567,4.567,0,0,0-.128.925,2.965,2.965,0,0,0,0,.67,4.784,4.784,0,0,0-.981.207.894.894,0,0,0-.12-.3.853.853,0,0,0-1.188-.311l-4.976,3.038C185.469,81.169,181.6,83.418,177.805,85.627Zm17.122-25.169c-.191-.335-.3-.534-1.1-.239l-.048-.088-1.037.574c-1.388.686-3.78,2-7.975,4.322-5.391,2.983-12.577,6.97-19.754,10.966l-9.4,5.248c9.849-6.029,22.155-13.382,32.865-19.7,1.053-.59,1.962-1.124,2.727-1.6l3.007-1.834a.846.846,0,0,0,.215-.191,1.936,1.936,0,0,0,0,.439,3.47,3.47,0,0,0,.335.941,2.011,2.011,0,0,1,.2.526c.072.3.112.479.143.638s.088.423.207.861v.048c-12.17,6.93-27.737,15.671-39.612,22.258,11.612-6.8,26.948-15.432,38.9-22.043a.845.845,0,0,0,.327-1.156ZM195,66.136a1.316,1.316,0,0,0-.662-.5,5.638,5.638,0,0,0-2.5.622,43.119,43.119,0,0,0,4.235-3.054,2.743,2.743,0,0,0,0,.989,1.236,1.236,0,0,1,0,.51,3.286,3.286,0,0,0-.072.949,4.4,4.4,0,0,0,.112.8,1.323,1.323,0,0,1,0,.566,3.939,3.939,0,0,1-.072.606c-.016.152-.064.455-.1.949v.152a1.163,1.163,0,0,0-.455-.239c-.885-.231-3.916,1.021-8.127,3.142l7.329-4.346A.853.853,0,0,0,195,66.136Zm.9,3.988a.8.8,0,0,0,.12-.112,7.243,7.243,0,0,0-.048.861v.654a1.053,1.053,0,0,1-.056.287c-.558-.08-1.954.646-22.219,12.162Zm-1.938-15.3.056.088a10.672,10.672,0,0,0-1.356.463l-.175-.072a.853.853,0,0,0-.646.08l-11.683,6.548c5.3-3.3,8.2-5.24,9.738-6.444a16.4,16.4,0,0,0,3.2-2.153,3.455,3.455,0,0,1,.175.343c.056.128.128.287.239.5a4.129,4.129,0,0,0,.455.686Zm-2.871-4.626a1.172,1.172,0,0,1,.12.463,2.48,2.48,0,0,0,.287,1.077,23.588,23.588,0,0,0-3.4,1.547c1.874-1.531,1.651-1.93,1.42-2.353a.845.845,0,0,0-1.172-.319c-14.555,8.454-34.077,19.651-46.83,26.645,12.856-7.656,33.192-19.292,48.457-27.913a.845.845,0,0,0,.423-.8,1.068,1.068,0,0,1,.2.279,1.667,1.667,0,0,1,.207.534,3.928,3.928,0,0,0,.287.869ZM129.373,86.528c-.128-.231-.215-.4-.431-.8-.04-.08-.056-.136-.088-.2a28.636,28.636,0,0,0,3.724-1.6,6.962,6.962,0,0,0-2.145,2.034ZM126.9,80.444a2.905,2.905,0,0,0-.088-.3,2.783,2.783,0,0,0-.55-.909,1.061,1.061,0,0,1-.247-.407c-.056-.136-.1-.239-.144-.335.3-.144.8-.391,1.507-.8a.941.941,0,0,0,.518.391c.869.247,5.184-1.842,38.36-20.735-11.636,6.978-25.345,14.929-32.7,19.18C130,78.545,127.993,79.71,126.9,80.444Zm9.8-8.454,1-.614c1.308-.718,2.719-1.475,4.195-2.257-1.89,1.037-3.637,2-5.232,2.871Zm52.923-24.244.04.056a1.061,1.061,0,0,0-.407,0l.3-.167Zm-1.156-1.922a26.6,26.6,0,0,0-2.855,1.26,12.349,12.349,0,0,0,2.185-1.906l.128.16a2.393,2.393,0,0,0,.542.463Zm-11.835-9.73a2.273,2.273,0,0,0,.8.893,6.723,6.723,0,0,0,.622.383,2.265,2.265,0,0,1,.55.4,2.751,2.751,0,0,0,.949.59,1.491,1.491,0,0,1,.447.247,1.181,1.181,0,0,1,.311.343,2.519,2.519,0,0,0,.8.8,3.924,3.924,0,0,0,.8.415,1.707,1.707,0,0,1,.494.279,3.244,3.244,0,0,1,.494.447,6.2,6.2,0,0,0,.566.55,3.788,3.788,0,0,0,.8.542A35.45,35.45,0,0,0,179.3,44l2.1-1.3a.853.853,0,0,0,.3-1.132,1.213,1.213,0,0,0-.478-.479.726.726,0,0,0-.08-.8,1.212,1.212,0,0,0-.63-.486,1.412,1.412,0,0,0-.606,0,1.116,1.116,0,0,0-.136-.5.853.853,0,0,0-1.156-.335l-6.117,3.389c4.785-3.413,4.37-4.091,3.988-4.721a.853.853,0,0,0-1.093-.367,1.029,1.029,0,0,0-.1-.271.861.861,0,0,0-.518-.407c-.479-.136-.47-.144-11.835,6.492C152.891,48.934,135.7,58.967,128.8,62.4c1.212-.893,2.879-1.994,4.889-3.262,10.224-5.383,26.581-14.2,34.739-19.675,2.48-1.332,4.873-2.6,7.1-3.772a.853.853,0,0,0,.263-.223l.112.056.542.287A.69.69,0,0,1,176.633,36.094ZM137.85,53.711c-2.066,1.188-3.988,2.281-5.646,3.19C133.839,55.936,135.777,54.844,137.85,53.711Zm27.044-20.974a3.19,3.19,0,0,1,.686.152,6.768,6.768,0,0,0,.726.2c.311.072.5.1.67.128a4.481,4.481,0,0,1,.75.183.638.638,0,0,1,.319.207,2.394,2.394,0,0,0,.51.391c-3.9,2.074-12.473,6.851-31.8,17.713C145.1,46.47,156.632,39.667,165.1,34.8a.845.845,0,0,0,.319-1.148.925.925,0,0,0-.542-.423c-.271-.08-.59-.056-1.89.574.8-.582,1.085-.885,1.132-1.117a6.276,6.276,0,0,1,.774.048Zm-9.131.526c-.63.351-1.316.734-2.161,1.228l-2.815,1.6,3.828-2.393a.845.845,0,0,0,.375-.542A1.922,1.922,0,0,0,155.762,33.263Zm-6.954,1.5.518-.175.311-.1-2.193,1.22a5.584,5.584,0,0,0,.8-.8,4.3,4.3,0,0,0,.558-.144Zm-20.2,17.681a8.219,8.219,0,0,0,.463-.8.853.853,0,0,0,.5.391.972.972,0,0,0,.287,0c-.8.494-1.34.885-1.778,1.2.056-.088.112-.175.191-.3A5.654,5.654,0,0,1,128.607,52.443ZM127.3,55.577a.445.445,0,0,1,.048-.247.879.879,0,0,0,.128.064c.191.056.335.088.989-.2-.487.359-.909.678-1.292.973a5.246,5.246,0,0,1,.128-.6ZM124.357,70.73a.845.845,0,0,1-.048-.494,2.166,2.166,0,0,1,.1-.614,6.079,6.079,0,0,0,.128-.941,1.707,1.707,0,0,1,.056-.6,7.235,7.235,0,0,0,.056-.949,1.117,1.117,0,0,1,.088-.463,2.639,2.639,0,0,0,.191-1.069,2.209,2.209,0,0,0-.335-1.188.6.6,0,0,1-.12-.359,3.285,3.285,0,0,1,.056-.8c0-.152.056-.343.088-.614a.718.718,0,0,1,.152-.407,2.862,2.862,0,0,0,.415-.9,3.748,3.748,0,0,0,.144-.909,1.6,1.6,0,0,1,.112-.55V59.8h.064a1.131,1.131,0,0,0-.072.175,1.116,1.116,0,0,0,.08.869,1.172,1.172,0,0,0,.51.439l-.8.415a.853.853,0,0,0-.351,1.164.965.965,0,0,0,.534.423,2.058,2.058,0,0,0-.431.686,1.164,1.164,0,0,0,.08.925.949.949,0,0,0,.239.271.543.543,0,0,0-.175.3.853.853,0,0,0,1.228.989l2.018-1.117,4.275-2.257C146.081,56,155.834,50.72,162.6,46.837c-10.623,6.6-25.967,15.416-37.172,21.652h0a.853.853,0,0,0,.431,1.6,1.045,1.045,0,0,0,.486,1.18c-1.707,1.093-1.6,1.316-1.348,1.747a1.077,1.077,0,0,0,.606.463c1.14.3,4.785-1.834,18.343-10.176l10.3-5.742-19.14,11.883c-3.852,2.393-6.914,4.275-8.653,5.359a.845.845,0,0,0-.343,1.013,10.053,10.053,0,0,0-.8.67,1.165,1.165,0,0,0-.048-.383c-.048-.152,0-.128.072-.3a1.93,1.93,0,0,0,.175-1.356,4.124,4.124,0,0,0-.327-.965,3.754,3.754,0,0,1-.215-.566,5.87,5.87,0,0,0-.247-.662,1.507,1.507,0,0,1-.136-.606,3.549,3.549,0,0,0-.247-.917Zm17.7-9.084c-5.024,2.991-9.57,5.622-12.369,7.01C132.252,66.926,136.917,64.35,142.053,61.646ZM127.419,82.381l.255-.072a1.188,1.188,0,0,0,.1.63.853.853,0,0,0,.518.407,1.125,1.125,0,0,0,.75-.16,10.188,10.188,0,0,0-.8.686,3.576,3.576,0,0,0-.287-.391,1.269,1.269,0,0,1-.263-.431,5.587,5.587,0,0,1-.319-.7Zm4.57,7.816a2.649,2.649,0,0,0-.534-.941,2.392,2.392,0,0,0-.933-.678.55.55,0,0,1-.223-.152c3.477-.518,14.355-6.986,35.17-19.706l4.945-3.023,2.664-1.34c-11.755,7.178-27.442,16.4-39.636,23.471a.845.845,0,0,0-.415.845.8.8,0,0,0,.056.215,1.689,1.689,0,0,0-.231.447.99.99,0,0,0,0,.12c-.407.423-.367.646-.255.869a1.658,1.658,0,0,0-.279.359l-.072-.088a.98.98,0,0,1-.3-.431Zm6.133,6.635a2.488,2.488,0,0,0-.534-.925c-.287-.319-.431-.463-.582-.622s-.247-.247-.479-.5a2.464,2.464,0,0,0-.917-.654.853.853,0,0,1-.351-.239,1.1,1.1,0,0,1-.263-.407,2.9,2.9,0,0,0-.55-.869,2.392,2.392,0,0,0-.909-.654l-.152-.08a34.238,34.238,0,0,0,3.07-1.683c2.735-1.148,7.3-3.724,14.148-7.847-15.328,9.466-15.041,9.993-14.586,10.822a.845.845,0,0,0,.51.407.8.8,0,0,0,.646-.072l.447-.247a2.057,2.057,0,0,0-.582.71,1.108,1.108,0,0,0,.08.742.869.869,0,0,0,.518.407c.375.1.853.271,35.361-19.14l-3.828,2.281C157.4,85.029,144.7,92.7,138.72,96.354a.837.837,0,0,0-.4.8l-.064-.056a.431.431,0,0,1-.191-.3Zm1.81,1.268a1.5,1.5,0,0,1-.486-.183h0a.8.8,0,0,0,.215-.072c.144-.088,14.586-8.557,28.71-17.075l.439-.263c3.692-2.137,7.233-4.155,10.439-5.933-3.8,2.281-7.975,4.785-12.17,7.353-18.422,11.165-24.34,15.033-26.071,16.652l-.112-.08a2.951,2.951,0,0,0-1-.431Zm4.307,2.552a3.238,3.238,0,0,0-.8-.582,3.485,3.485,0,0,0-.861-.359h0c13.813-8.5,33.5-20.233,44.509-26.015L145.076,99.879a.853.853,0,0,0-.3,1.132v.04l-.168-.1a1.293,1.293,0,0,1-.407-.335Zm3.988,1.539c-.223-.064-.383-.112-.8-.263a2.321,2.321,0,0,0-1.156-.136.51.51,0,0,1-.367-.04,1.635,1.635,0,0,1-.479-.287h0c.646.1,2.393-.726,28.575-15.623l1.8-1.029c-8.661,5.335-18.733,11.42-26.884,16.293a.845.845,0,0,0-.311,1.14.977.977,0,0,0,.088.1Zm1.914.965a.6.6,0,0,1-.335-.2l-.247-.207a2.944,2.944,0,0,0,.6-.1.7.7,0,0,0,.136.479l.048.056a.637.637,0,0,1-.215-.064Zm7.361,1.1a2.145,2.145,0,0,1-.574-.128,3.985,3.985,0,0,0-.885-.207l-.67-.08a2.521,2.521,0,0,1-.8-.112h-.048c4.785-2.688,12.712-7.1,20.2-11.261l-16.6,10.862a.837.837,0,0,0-.343.925Zm2.991.056a3.3,3.3,0,0,0-.63,0l2.1-1.212a.949.949,0,0,0-.255.622c-.319.215-.343.319-.4.486v.1h0c-.263-.016-.431-.008-.829-.024Zm4.354.183a.989.989,0,0,1-.494,0,4.237,4.237,0,0,0-.431-.048l.8-.439,3.326-1.731.726-.375c-.893.582-1.531,1.013-1.97,1.34l-.463.279v.056a2,2,0,0,0-.367.391,2.56,2.56,0,0,0-.742.343,1.021,1.021,0,0,1-.407.152Zm9.5-2.536a4.906,4.906,0,0,0-.75.152l-.486.136c.734-.4,1.595-.853,2.52-1.4l.4-.207c-.3.327-.375.534-.367.71a4.138,4.138,0,0,1-.734.415,1.54,1.54,0,0,1-.6.167Zm14.9-10.862c-.08.112-.088.112-.279.175a3.085,3.085,0,0,0-.606.287h-.175l1.069-.734v-.016a.391.391,0,0,1-.024.263Zm4.123-7.975a3.03,3.03,0,0,0-.239.941.8.8,0,0,1-.152.447.686.686,0,0,1-.287.287,2.392,2.392,0,0,0-.8.8,2.9,2.9,0,0,0-.2.383,1.6,1.6,0,0,0-.088-.191.909.909,0,0,0-.534-.415c-.279-.08-.7-.207-9.427,4.61l11.875-7.792a4.005,4.005,0,0,0,0,.463.91.91,0,0,1-.167.431Z" transform="translate(-24.82 -6.275)" fill="#fff"/>
  </g>
</svg>
