<svg id="レイヤー_2" data-name="レイヤー 2" xmlns="http://www.w3.org/2000/svg" width="419" height="123" viewBox="0 0 419 123">
  <g id="レイヤー_1" data-name="レイヤー 1">
    <path id="パス_26304" data-name="パス 26304" d="M112.43,71.33c-.78.74-3.89,1.23-5.4,1.23-.24,0-.57,0-.57-.12-.29-1.23-2.66-14.49-3.28-16-.08-.16-.16-.24-.2-.24s-.2.24-.2.24a92.91,92.91,0,0,0-3.6,14.08c0,.33-2.78,1.23-5,1.23a1.07,1.07,0,0,1-.57-.12C92.21,70.14,88,50.16,88,44.1c0-.12,1.43-1,4.14-1a4,4,0,0,1,1,.12c.08,1.52,1.06,14.41,3,19.24,0,0,.08.29.2.29s.12-.08.2-.29c0,0,3.36-13,4.09-13.76a12.44,12.44,0,0,1,4.13-.57,6.62,6.62,0,0,1,1.64.24c.16.16,2.78,13.18,3.27,15.39,0,0,.21.86.53,0A62.78,62.78,0,0,0,113,47.18c0-.61-1.31-1.27-2.29-1.39a1,1,0,0,1,0-.37,5.44,5.44,0,0,1,.49-2.17,33.55,33.55,0,0,1,7.45-1,3.71,3.71,0,0,1,.65.12C119.27,51.31,113.21,70.55,112.43,71.33Z" fill="#f6a631"/>
    <path id="パス_26305" data-name="パス 26305" d="M124.23,51.56c-1.52,0-2.5-1-2.5-2.78A3,3,0,0,1,124.64,46a2.49,2.49,0,0,1,2.54,2.74,3,3,0,0,1-2.95,2.82Zm2.54,2.58c0,.21-.12,5-.12,8.72a37.046,37.046,0,0,0,.12,4.22,6.68,6.68,0,0,0,1.1,3.27c0,.49-2.82,2.21-4.54,2.21-.16,0-1-1.06-1.23-3.6,0-.53-.08-1.88-.08-3.56,0-4.22.12-10.44.29-10.77a5.67,5.67,0,0,1,3.32-.74s.93,0,1.14.24Z" fill="#40c1c9"/>
    <path id="パス_26306" data-name="パス 26306" d="M130.9,56.14a8.19,8.19,0,0,1,.2-2.74,6.28,6.28,0,0,1,3.72-1.15c.37,0,.86.08.86.2,0,.33-.12,1.35-.12,2.13s0,.82.12.82.12-.08.12-.08a7,7,0,0,1,5-2.58c5.12,0,5.24,6.71,5.24,13.71,0,2.7-.12,4.79-.12,4.79,0,.21-1.76.82-3.52.82a4.42,4.42,0,0,1-1.35-.2,64,64,0,0,0,.41-7c0-4-.16-7.08-2.41-7.08-2.66,0-3.4,2.91-3.4,2.91v5.2a30.289,30.289,0,0,1-.16,4.54c-.82.82-3.11,1.1-4.22,1.1-.33,0-.61,0-.61-.12a46.192,46.192,0,0,0,.29-6.06C131,62.12,130.9,58.56,130.9,56.14Z" fill="#40c1c9"/>
    <path id="パス_26307" data-name="パス 26307" d="M160.38,68.26V68.1l-.12.12a6.1,6.1,0,0,1-5.36,2.66c-3.89,0-6-3.77-6-7,0-6.18,4-11.3,12.2-11.3,0,0,1.43,0,1.43.21a9.691,9.691,0,0,1,.12,1.51c0,.2,0,.61,0,.61H163a4.72,4.72,0,0,1,1.76.24v5.2c0,3.81.08,8.56.08,9.7,0,11.26-7.82,13.18-11,13.18-.24,0-1.52-2.25-1.52-4.26h.78C155.22,78.94,160.38,78.08,160.38,68.26Zm-.94-11.5c-3.64,0-5.69,2.7-5.69,5.94a2.93,2.93,0,0,0,2.87,3.15,3.81,3.81,0,0,0,3.52-3c0-.61,0-5,.16-6,0-.1-.86-.1-.86-.1Z" fill="#40c1c9"/>
    <path id="パス_26308" data-name="パス 26308" d="M169.31,73c-.41,0-1.6-1.72-1.6-3.64V69c4.71,0,6.55-2.09,6.55-3.4,0-2.37-6.55-3.64-6.55-7.16s5.12-6.67,9.74-6.67c.45,0,1.72,1.68,1.76,3.44-.61,0-5.69.86-5.69,3s6.39,3.23,6.51,7.49C180,70.55,172.5,73,169.31,73Z" fill="#40c1c9"/>
    <path id="パス_26309" data-name="パス 26309" d="M208.08,71.94a10.8,10.8,0,0,0-.2-2.66.078.078,0,0,0-.08-.08l-.12.08a9.11,9.11,0,0,1-6.3,2.42c-7.45,0-10.68-5.48-10.68-12.32,0-6,2.33-16.37,15.76-16.37a15.93,15.93,0,0,1,4,.57c.08.08.08.33.08.66,0,1.19-.33,3.6-.66,3.93a10.28,10.28,0,0,0-4.3-.65c-5.57,0-9.5,3.72-9.5,11.42,0,4.58,1.8,7.94,5.9,7.94,3.6,0,5.69-2.66,5.69-3.52V62a8.46,8.46,0,0,0-.24-2.74,14,14,0,0,0-3.81-.37,22.138,22.138,0,0,0-2.5.12c-.16,0-.16-.29-.16-.33a7.11,7.11,0,0,1,1.31-3.85c.29-.29,4.54-.57,9.66-.57a11.65,11.65,0,0,1,2.33.21,12.8,12.8,0,0,1-1.39,4.71s0,11-.29,11.46a6.38,6.38,0,0,1-3.73,1.39C208.45,72.06,208.08,72.06,208.08,71.94Z" fill="#40c1c9"/>
    <path id="パス_26310" data-name="パス 26310" d="M221.72,63.59c0,1.56,0,2.82.08,3.48a6.61,6.61,0,0,0,1.2,3.27c0,.49-2.82,2.21-4.54,2.21-.16,0-1-1.06-1.27-3.6v-4.3c0-4.18.16-8.31.16-14.82,0-4.14-.16-5.16-.16-5.61s2.37-1.47,3.85-1.47c.37,0,1,.08,1,.16-.08.61-.21,7.57-.21,10.64S221.72,59.7,221.72,63.59Z" fill="#40c1c9"/>
    <path id="パス_26311" data-name="パス 26311" d="M225.44,62.61A10.16,10.16,0,0,1,236,52.37a8,8,0,0,1,2.21.33,1.38,1.38,0,0,1,.08.57,11.151,11.151,0,0,1-.12,1.47c.41,0,4.67,1.43,4.67,7.2,0,4.87-3.07,9.58-8.76,9.58C228.55,71.53,225.44,67.72,225.44,62.61ZM235,58.47h-.33a1.419,1.419,0,0,1-.08-.53,6.609,6.609,0,0,1,.12-1.19c-2,0-4.58,1.8-4.58,5.73,0,.41,0,4.91,3.93,4.91,1.92,0,4.05-1.43,4.05-5.08S235.84,58.47,235,58.47Z" fill="#40c1c9"/>
    <path id="パス_26312" data-name="パス 26312" d="M246.08,73.25a66.131,66.131,0,0,0,.29-8.68c0-4.91-.08-10.89-.08-15.1a29,29,0,0,1,.2-5.32,6.4,6.4,0,0,1,3.77-1.39c.37,0,1,.08,1,.16-.08.45-.41,8.39-.33,9.91h.65c2.46,0,10.28.57,10.28,8.6,0,5.49-5.24,8.92-10.89,9.82a9.362,9.362,0,0,1,0,1c-.82.82-3.15,1.11-4.26,1.11C246.41,73.38,246.08,73.38,246.08,73.25Zm11-12.12c0-3.11-2.42-4.09-4.26-4.09-.74,0-1.88.12-1.88.12v2.95a63.62,63.62,0,0,0,.16,6.63c.59,0,5.95-.08,5.95-5.6Z" fill="#40c1c9"/>
    <path id="パス_26313" data-name="パス 26313" d="M279.9,67.32a4.83,4.83,0,0,0,1.39,3.23c0,.49-2.62,2.25-4.54,2.25-.16,0-1.06-.94-1.31-3.15v-.08l-.12.08a9.12,9.12,0,0,1-5.2,1.72c-3.68,0-5.94-1.92-5.94-5.4,0-7.16,9.46-8.1,10.28-8.1a.14.14,0,0,0,.08,0c0-1.19-1.52-2-5.08-2a25.491,25.491,0,0,0-3,.16h0a8,8,0,0,1,1.43-3.72,9,9,0,0,1,2.86-.29c6.22,0,9.09,2.33,9.09,7.29V61.4A54.172,54.172,0,0,0,279.9,67.32Zm-4.67-4.91a3.628,3.628,0,0,0,0-.9c-1.47,0-6,.74-6,3.68,0,1,.7,2,2.54,2A3.27,3.27,0,0,0,275.23,64Z" fill="#40c1c9"/>
    <path id="パス_26314" data-name="パス 26314" d="M288.54,63.59c0,1.56,0,2.82.08,3.48a6.61,6.61,0,0,0,1.19,3.27c0,.49-2.82,2.21-4.54,2.21-.16,0-1-1.06-1.27-3.6v-4.3c0-4.18.16-8.31.16-14.82,0-4.14-.16-5.16-.16-5.61s2.37-1.47,3.85-1.47c.37,0,1,.08,1,.16-.08.61-.21,7.57-.21,10.64S288.54,59.7,288.54,63.59Z" fill="#40c1c9"/>
    <path id="パス_26315" data-name="パス 26315" d="M313.19,58.64a51.547,51.547,0,0,0-5.36.12v3.36c0,4.09.24,7.57.33,8.23,0,.33-1.52,1.06-3.56,1.06a4.1,4.1,0,0,1-1.51-.2c-.2-.2-.25-3.48-.25-7.53V58.84a8.27,8.27,0,0,1-1.92-4.17,14.83,14.83,0,0,1,2-.12c0-2.91,0-5.4,0-6.67V47a10.36,10.36,0,0,1-1.06-3.89.31.31,0,0,1,0-.2h.86c2.62,0,5.4,1,5.4,1.39s-.29,5.32-.29,9.33v.82h5.45a20.24,20.24,0,0,1,3,.08c0-5,.33-10.15.33-10.32a7.09,7.09,0,0,1,4.3-1.39c.16,0,.53,0,.53.16,0,0-.45,6-.45,12.94,0,8,.24,12.77,2.21,14.74a.34.34,0,0,1-.12.2,9.38,9.38,0,0,1-4.83,1.43,1.47,1.47,0,0,1-.49-.08c-.94-.94-1.35-2.42-1.43-13.47A26.646,26.646,0,0,0,313.19,58.64Z" fill="#f6a631"/>
    <path id="パス_26316" data-name="パス 26316" d="M326.17,62.61a10.16,10.16,0,0,1,10.52-10.23,8,8,0,0,1,2.21.33,1.38,1.38,0,0,1,.08.57,11.146,11.146,0,0,1-.12,1.47c.41,0,4.67,1.43,4.67,7.2,0,4.87-3.07,9.58-8.76,9.58C329.28,71.53,326.17,67.72,326.17,62.61Zm9.54-4.14h-.33a1.42,1.42,0,0,1-.08-.53,6.609,6.609,0,0,1,.12-1.19c-2,0-4.58,1.8-4.58,5.73,0,.41,0,4.91,3.93,4.91,1.92,0,4.05-1.43,4.05-5.08s-2.25-3.84-3.11-3.84Z" fill="#40c1c9"/>
    <path id="パス_26317" data-name="パス 26317" d="M361.13,65.39a15.629,15.629,0,0,1-.16,3.23c0,.21-1.68.82-3.44.82a4,4,0,0,1-1.31-.2,50.361,50.361,0,0,0,.37-6.22c0-3.32-.08-5.2-1.84-5.2-2.17,0-3.19,2.82-3.19,3.32v5.2a26.529,26.529,0,0,1-.16,4.22c-.94.9-2.82,1-4.3,1-.16,0-.33,0-.33-.12a45.1,45.1,0,0,0,.29-6c0-3.32-.12-7.08-.12-9.62a10,10,0,0,1,.2-2.82,6,6,0,0,1,3.56-1.23c.37,0,.86.08.86.16,0,.45-.16,2.7-.16,3.48,0,0,0,.2.08.2s.08,0,.16-.08,2.21-2.42,4.42-2.42a4.15,4.15,0,0,1,4,2.38c1.19-1.68,2.86-3.28,5.16-3.28,5.12,0,5.24,7.29,5.24,14.29,0,2.7-.16,4.79-.16,4.79,0,.21-1.76.82-3.52.82a4,4,0,0,1-1.31-.2,67.015,67.015,0,0,0,.45-7.2c0-4.18-.16-7.12-2.5-7.12a2.93,2.93,0,0,0-2.46,1.8A48.451,48.451,0,0,1,361.13,65.39Z" fill="#40c1c9"/>
    <path id="パス_26318" data-name="パス 26318" d="M373.38,62.77c0-5.32,3.28-10.19,9.91-10.19,1.92,0,5.16.82,5.16,4.46,0,3.48-3.07,7.2-8.31,9,0,.24.86,1.1,3,1.1A9.9,9.9,0,0,0,388,66a.14.14,0,0,1,.08,0c.08,0,.12.53.12.78a6.63,6.63,0,0,1-1,3.68s-1.39.94-5.36.94C376.12,71.41,373.38,67.56,373.38,62.77Zm9-6.51c-2.21,0-4.22,2.62-4.22,5.85,0,.45,0,.57.16.57,1.72,0,5.32-2.5,5.32-5.24a1.16,1.16,0,0,0-1.26-1.18Z" fill="#40c1c9"/>
    <path id="パス_26319" data-name="パス 26319" d="M229.72,77.45l2.69,7.31h-1.58l-.57-1.66h-2.7L227,84.77h-1.54l2.84-7.31Zm.17,4.56-.6-1.75q-.11-.31-.19-.57c-.05-.18-.11-.36-.16-.54h-.05q-.15.57-.35,1.13L227.93,82Z" fill="#40c1c9"/>
    <path id="パス_26320" data-name="パス 26320" d="M234.45,79.63v-.78a1.91,1.91,0,0,1,.47-1.39,1.84,1.84,0,0,1,1.38-.48,3.389,3.389,0,0,1,.48,0,2.84,2.84,0,0,1,.41.09v1.19l-.29-.06h-.29a.65.65,0,0,0-.54.2.86.86,0,0,0-.16.54v.69H237v1.22h-1.12v3.91h-1.46V80.85h-.73V79.63Z" fill="#40c1c9"/>
    <path id="パス_26321" data-name="パス 26321" d="M238.87,79.63V78h1.46v1.64h1.21v1.22h-1.21v2a.89.89,0,0,0,.15.61.66.66,0,0,0,.49.16h.32l.31-.06V84.7a3.521,3.521,0,0,1-.5.1,3.738,3.738,0,0,1-.5,0,2.22,2.22,0,0,1-.81-.13,1.31,1.31,0,0,1-.53-.37,1.43,1.43,0,0,1-.29-.58,3.128,3.128,0,0,1-.09-.76V80.85h-.62V79.63Z" fill="#40c1c9"/>
    <path id="パス_26322" data-name="パス 26322" d="M247,79.68a2.41,2.41,0,0,1,.82.59,2.5,2.5,0,0,1,.5.86,3.1,3.1,0,0,1,.17,1v.18a1,1,0,0,1,0,.2h-3.82a1.2,1.2,0,0,0,.11.5,1.48,1.48,0,0,0,.28.42,1.33,1.33,0,0,0,.42.29,1.26,1.26,0,0,0,.52.11,1.2,1.2,0,0,0,.61-.14,1.3,1.3,0,0,0,.42-.39h1.4a3.13,3.13,0,0,1-.33.62,2.25,2.25,0,0,1-.5.52,2.371,2.371,0,0,1-.7.35,3,3,0,0,1-.91.13,2.9,2.9,0,0,1-1.08-.2,2.55,2.55,0,0,1-.87-.57,2.66,2.66,0,0,1-.58-.88,3,3,0,0,1-.21-1.14,3.06,3.06,0,0,1,.18-1,2.53,2.53,0,0,1,.51-.86,2.42,2.42,0,0,1,.83-.58,2.76,2.76,0,0,1,1.12-.21,2.7,2.7,0,0,1,1.11.2Zm-1.61.88a1.14,1.14,0,0,0-.36.24,1.19,1.19,0,0,0-.24.35,1.279,1.279,0,0,0-.11.41H247a1.29,1.29,0,0,0-.37-.77,1.11,1.11,0,0,0-.83-.32,1.22,1.22,0,0,0-.45.09Z" fill="#40c1c9"/>
    <path id="パス_26323" data-name="パス 26323" d="M253.67,80.83h-.38a1.19,1.19,0,0,0-1,.38,1.62,1.62,0,0,0-.32,1.08v2.5h-1.45V79.63H252v.79h0a2.13,2.13,0,0,1,.6-.66,1.48,1.48,0,0,1,.9-.28,2.13,2.13,0,0,1,.47,0v1.35Z" fill="#40c1c9"/>
    <path id="パス_26324" data-name="パス 26324" d="M258.07,80.58a.58.58,0,0,0-.41-.15.52.52,0,0,0-.39.14.44.44,0,0,0-.13.31.52.52,0,0,0,0,.2.48.48,0,0,0,.15.18,1.57,1.57,0,0,0,.32.19,4.751,4.751,0,0,0,.53.2,2.43,2.43,0,0,1,1.15.68,1.48,1.48,0,0,1,.33,1,1.59,1.59,0,0,1-.13.65,1.54,1.54,0,0,1-.39.53,1.76,1.76,0,0,1-.62.35,2.66,2.66,0,0,1-.84.12,2,2,0,0,1-1.46-.47,1.78,1.78,0,0,1-.52-1.22H257a.82.82,0,0,0,.19.5.67.67,0,0,0,.53.19.58.58,0,0,0,.43-.16.54.54,0,0,0,.16-.39.56.56,0,0,0-.22-.45,2.65,2.65,0,0,0-.8-.38,2.68,2.68,0,0,1-1.1-.61,1.34,1.34,0,0,1-.37-1,1.45,1.45,0,0,1,.13-.63,1.35,1.35,0,0,1,.38-.48,1.87,1.87,0,0,1,.58-.31,2.4,2.4,0,0,1,.76-.11,1.86,1.86,0,0,1,1.32.44,1.79,1.79,0,0,1,.55,1.12h-1.28a.63.63,0,0,0-.19-.44Z" fill="#40c1c9"/>
    <path id="パス_26325" data-name="パス 26325" d="M265.12,79.63a2.39,2.39,0,0,1,.73.44,2.25,2.25,0,0,1,.48.61,2.37,2.37,0,0,1,.24.65h-1.44a.9.9,0,0,0-.35-.48,1.24,1.24,0,0,0-1.57.24,1.71,1.71,0,0,0-.33,1.09,2,2,0,0,0,.09.6,1.49,1.49,0,0,0,.25.48,1.17,1.17,0,0,0,.41.33,1.24,1.24,0,0,0,.55.12,1,1,0,0,0,.67-.21,1.24,1.24,0,0,0,.35-.49h1.47a3.149,3.149,0,0,1-.31.75,2.319,2.319,0,0,1-.51.62,2.44,2.44,0,0,1-.73.42,2.72,2.72,0,0,1-1,.16,3,3,0,0,1-1.07-.19,2.51,2.51,0,0,1-.87-.56,2.65,2.65,0,0,1-.58-.87,2.91,2.91,0,0,1-.21-1.14,3,3,0,0,1,.19-1.06A2.49,2.49,0,0,1,263,79.67a2.91,2.91,0,0,1,1.14-.21A2.61,2.61,0,0,1,265.12,79.63Z" fill="#40c1c9"/>
    <path id="パス_26326" data-name="パス 26326" d="M270.16,77v3.23h0a1.58,1.58,0,0,1,.67-.62,2,2,0,0,1,.84-.19,2.09,2.09,0,0,1,.79.14,1.63,1.63,0,0,1,.62.43,2,2,0,0,1,.4.73,3.35,3.35,0,0,1,.14,1v2.95h-1.45V81.9A1.27,1.27,0,0,0,272,81a.9.9,0,0,0-.71-.29,1,1,0,0,0-.79.33,1.39,1.39,0,0,0-.31,1v2.71h-1.45V77Z" fill="#40c1c9"/>
    <path id="パス_26327" data-name="パス 26327" d="M275.86,81.1a2.61,2.61,0,0,1,.58-.87,2.64,2.64,0,0,1,.87-.57,2.85,2.85,0,0,1,1.09-.2,2.88,2.88,0,0,1,1.12.21,2.59,2.59,0,0,1,.86.57,2.62,2.62,0,0,1,.56.87,2.861,2.861,0,0,1,.2,1.08,2.791,2.791,0,0,1-.2,1.07,2.7,2.7,0,0,1-2.54,1.69,2.77,2.77,0,0,1-1.09-.21,2.67,2.67,0,0,1-.87-.58,2.709,2.709,0,0,1-.57-.87,2.94,2.94,0,0,1,0-2.18Zm1.35,1.69a1.33,1.33,0,0,0,.27.46,1.28,1.28,0,0,0,.41.3,1.19,1.19,0,0,0,.51.11,1.14,1.14,0,0,0,.93-.42,1.58,1.58,0,0,0,.34-1,1.8,1.8,0,0,0-.09-.56,1.43,1.43,0,0,0-.25-.46,1.17,1.17,0,0,0-.4-.32,1.22,1.22,0,0,0-.54-.12,1.16,1.16,0,0,0-.95.41,1.6,1.6,0,0,0-.34,1,1.731,1.731,0,0,0,.1.6Z" fill="#40c1c9"/>
    <path id="パス_26328" data-name="パス 26328" d="M283.05,81.1a2.61,2.61,0,0,1,.58-.87,2.64,2.64,0,0,1,.87-.57,2.85,2.85,0,0,1,1.09-.2,2.88,2.88,0,0,1,1.12.21,2.58,2.58,0,0,1,.86.57,2.62,2.62,0,0,1,.56.87,2.87,2.87,0,0,1,.2,1.08,2.8,2.8,0,0,1-.2,1.07,2.7,2.7,0,0,1-2.54,1.69,2.77,2.77,0,0,1-1.09-.21,2.68,2.68,0,0,1-.87-.58,2.71,2.71,0,0,1-.57-.87,2.94,2.94,0,0,1,0-2.18Zm1.35,1.69a1.35,1.35,0,0,0,.27.46,1.28,1.28,0,0,0,.41.3,1.19,1.19,0,0,0,.51.11,1.14,1.14,0,0,0,.93-.42,1.58,1.58,0,0,0,.34-1,1.8,1.8,0,0,0-.09-.56,1.441,1.441,0,0,0-.25-.46,1.17,1.17,0,0,0-.4-.32,1.22,1.22,0,0,0-.54-.12,1.16,1.16,0,0,0-.95.41,1.6,1.6,0,0,0-.34,1,1.73,1.73,0,0,0,.11.6Z" fill="#40c1c9"/>
    <path id="パス_26329" data-name="パス 26329" d="M291.83,77v7.72h-1.45V77Z" fill="#40c1c9"/>
    <path id="パス_26330" data-name="パス 26330" d="M303.7,81.08v.09a3.63,3.63,0,0,1-.2,1.2,3.2,3.2,0,0,1-.53,1,1.58,1.58,0,0,0,.39.33.74.74,0,0,0,.36.1h.32v1.15h-.56a1.57,1.57,0,0,1-.75-.17,2.411,2.411,0,0,1-.64-.54,3.514,3.514,0,0,1-.36.25,3.568,3.568,0,0,1-.47.24,3.15,3.15,0,0,1-.56.17,3.32,3.32,0,0,1-1.71-.11,2.13,2.13,0,0,1-.74-.46,1.79,1.79,0,0,1-.43-.67,2.29,2.29,0,0,1-.14-.8,2,2,0,0,1,.4-1.25,3.52,3.52,0,0,1,1.14-.91,5.618,5.618,0,0,1-.45-.82,2.19,2.19,0,0,1-.19-.91,1.769,1.769,0,0,1,.12-.63,1.54,1.54,0,0,1,.37-.56,1.85,1.85,0,0,1,.64-.4,2.89,2.89,0,0,1,1.74,0,1.9,1.9,0,0,1,.64.34,1.52,1.52,0,0,1,.57,1.22,1.71,1.71,0,0,1-.42,1.16A4,4,0,0,1,301,81l1.12,1.44a2.24,2.24,0,0,0,.21-.55,2.889,2.889,0,0,0,.07-.68v-.1Zm-2.92,2.63a1.78,1.78,0,0,0,.49-.31l-1.43-1.81a2.05,2.05,0,0,0-.61.58,1.2,1.2,0,0,0-.19.65,1.089,1.089,0,0,0,.29.72,1.069,1.069,0,0,0,.34.22,1.11,1.11,0,0,0,.44.09,1.61,1.61,0,0,0,.67-.15ZM300,79.56a2.421,2.421,0,0,0,.32.54,2.59,2.59,0,0,0,.73-.5.89.89,0,0,0,.25-.64.65.65,0,0,0-.18-.43.7.7,0,0,0-.55-.2.74.74,0,0,0-.31.06.64.64,0,0,0-.21.16.59.59,0,0,0-.12.21.681.681,0,0,0,0,.22,1.52,1.52,0,0,0,.07.58Z" fill="#40c1c9"/>
    <path id="パス_26331" data-name="パス 26331" d="M311.52,81.87l-.23.24v2.66h-1.53V77.45h1.53v2.8l2.66-2.8h1.92l-3.08,3.16,3.43,4.15h-1.94l-2.54-3.13Z" fill="#40c1c9"/>
    <path id="パス_26332" data-name="パス 26332" d="M319.24,77.17v1.38h-1.52V77.17Zm0,2.46v5.14h-1.45V79.63Z" fill="#40c1c9"/>
    <path id="パス_26333" data-name="パス 26333" d="M323,79.63v.64h0a1.58,1.58,0,0,1,.67-.62,2,2,0,0,1,.85-.19,1.85,1.85,0,0,1,1.42.58,2.5,2.5,0,0,1,.55,1.76v2.95H325.1V81.91a1.29,1.29,0,0,0-.26-.87.89.89,0,0,0-.71-.3,1,1,0,0,0-.79.33,1.4,1.4,0,0,0-.31,1v2.71H321.6V79.63Z" fill="#40c1c9"/>
    <path id="パス_26334" data-name="パス 26334" d="M332.61,84.77v-.56h0a2.45,2.45,0,0,1-.67.51,2.08,2.08,0,0,1-1,.23,2.22,2.22,0,0,1-1.53-.65,2.68,2.68,0,0,1-.57-.86,3.13,3.13,0,0,1-.23-1.25,3,3,0,0,1,.2-1.12,2.73,2.73,0,0,1,.53-.86,2.35,2.35,0,0,1,.78-.56,2.26,2.26,0,0,1,.93-.2,1.84,1.84,0,0,1,.94.21,2,2,0,0,1,.61.55h0V77H334v7.72Zm-2.5-2a1.42,1.42,0,0,0,.25.48,1.27,1.27,0,0,0,.41.34,1.24,1.24,0,0,0,.58.13,1.14,1.14,0,0,0,.49-.11,1.25,1.25,0,0,0,.41-.31,1.56,1.56,0,0,0,.28-.47,1.61,1.61,0,0,0,.11-.6,1.9,1.9,0,0,0-.1-.62,1.421,1.421,0,0,0-.27-.48,1.24,1.24,0,0,0-.41-.31,1.15,1.15,0,0,0-.5-.11,1.23,1.23,0,0,0-.58.13,1.28,1.28,0,0,0-.42.35,1.48,1.48,0,0,0-.25.48,1.9,1.9,0,0,0,0,1.09Z" fill="#40c1c9"/>
    <path id="パス_26335" data-name="パス 26335" d="M339.84,79.68a2.41,2.41,0,0,1,.82.59,2.5,2.5,0,0,1,.5.86,3.1,3.1,0,0,1,.17,1v.18a1,1,0,0,1,0,.2H337.5a1.2,1.2,0,0,0,.11.5,1.48,1.48,0,0,0,.28.42,1.33,1.33,0,0,0,.42.29,1.26,1.26,0,0,0,.52.11,1.2,1.2,0,0,0,.61-.14,1.3,1.3,0,0,0,.42-.39h1.4a3.131,3.131,0,0,1-.33.62,2.25,2.25,0,0,1-.5.52,2.37,2.37,0,0,1-.7.35,3,3,0,0,1-.91.13,2.9,2.9,0,0,1-1.08-.2,2.55,2.55,0,0,1-.87-.57,2.66,2.66,0,0,1-.58-.88,3,3,0,0,1-.21-1.14,3.059,3.059,0,0,1,.18-1,2.53,2.53,0,0,1,.51-.86,2.42,2.42,0,0,1,.83-.58,2.76,2.76,0,0,1,1.12-.21A2.7,2.7,0,0,1,339.84,79.68Zm-1.61.88a1.14,1.14,0,0,0-.36.24,1.19,1.19,0,0,0-.24.35,1.281,1.281,0,0,0-.11.41h2.4a1.29,1.29,0,0,0-.37-.77,1.11,1.11,0,0,0-.83-.32,1.22,1.22,0,0,0-.49.09Z" fill="#40c1c9"/>
    <path id="パス_26336" data-name="パス 26336" d="M346.54,80.83h-.38a1.19,1.19,0,0,0-1,.38,1.62,1.62,0,0,0-.32,1.08v2.5h-1.45V79.63h1.42v.79h0a2.13,2.13,0,0,1,.6-.66,1.48,1.48,0,0,1,.9-.28,2.131,2.131,0,0,1,.47,0v1.35Z" fill="#40c1c9"/>
    <path id="パス_26337" data-name="パス 26337" d="M353.28,86.78a2.68,2.68,0,0,1-2.09.74,2.71,2.71,0,0,1-1.76-.55,2.33,2.33,0,0,1-.83-1.51H350a1.16,1.16,0,0,0,.37.63,1.25,1.25,0,0,0,.85.25,1.21,1.21,0,0,0,1-.4,1.74,1.74,0,0,0,.33-1.15v-.65h0a2.21,2.21,0,0,1-.65.53,2,2,0,0,1-1,.21,2.37,2.37,0,0,1-.94-.19,2.22,2.22,0,0,1-.77-.54,2.66,2.66,0,0,1-.52-.85,3.089,3.089,0,0,1-.19-1.12,3,3,0,0,1,.19-1.08,2.6,2.6,0,0,1,.52-.86,2.46,2.46,0,0,1,.79-.57,2.34,2.34,0,0,1,1-.21,2,2,0,0,1,.55.07,1.91,1.91,0,0,1,.44.18,1.651,1.651,0,0,1,.33.25,2,2,0,0,1,.24.28h.05v-.62h1.35v5a3.16,3.16,0,0,1-.66,2.16ZM350,82.7a1.351,1.351,0,0,0,.24.46,1.24,1.24,0,0,0,.41.33,1.26,1.26,0,0,0,.59.13,1.23,1.23,0,0,0,.51-.11,1.28,1.28,0,0,0,.42-.29,1.37,1.37,0,0,0,.28-.45,1.62,1.62,0,0,0,.1-.58,1.69,1.69,0,0,0-.1-.6,1.48,1.48,0,0,0-.27-.46,1.14,1.14,0,0,0-.41-.29,1.29,1.29,0,0,0-.51-.1,1.22,1.22,0,0,0-1,.45,1.451,1.451,0,0,0-.25.47,1.709,1.709,0,0,0-.09.53,1.881,1.881,0,0,0,.08.51Z" fill="#40c1c9"/>
    <path id="パス_26338" data-name="パス 26338" d="M360.06,84.77v-.64h0a2.24,2.24,0,0,1-.64.57,2,2,0,0,1-1,.24,2.24,2.24,0,0,1-.79-.16,2.2,2.2,0,0,1-.76-.49,2.619,2.619,0,0,1-.57-.85,3.13,3.13,0,0,1-.23-1.25,3,3,0,0,1,.2-1.12,2.631,2.631,0,0,1,.54-.85,2.32,2.32,0,0,1,.78-.54,2.35,2.35,0,0,1,.93-.19,1.89,1.89,0,0,1,1,.25,1.661,1.661,0,0,1,.34.26,2.413,2.413,0,0,1,.25.3h0v-.67h1.39v5.14Zm-2.5-2a1.471,1.471,0,0,0,.24.48,1.16,1.16,0,0,0,.41.33,1.31,1.31,0,0,0,.59.12,1.14,1.14,0,0,0,.49-.11,1.28,1.28,0,0,0,.41-.3,1.491,1.491,0,0,0,.28-.47,1.61,1.61,0,0,0,.11-.6,1.852,1.852,0,0,0-.1-.61,1.359,1.359,0,0,0-.27-.47,1.21,1.21,0,0,0-.91-.41,1.207,1.207,0,0,0-1,.47,1.429,1.429,0,0,0-.25.47,1.829,1.829,0,0,0-.08.54,1.89,1.89,0,0,0,.08.54Z" fill="#40c1c9"/>
    <path id="パス_26339" data-name="パス 26339" d="M367,80.83h-.38a1.19,1.19,0,0,0-1,.38,1.62,1.62,0,0,0-.32,1.08v2.5h-1.45V79.63h1.42v.79h0a2.13,2.13,0,0,1,.6-.66,1.47,1.47,0,0,1,.9-.28,2.13,2.13,0,0,1,.47,0v1.35Z" fill="#40c1c9"/>
    <path id="パス_26340" data-name="パス 26340" d="M369.36,79.63V78h1.46v1.64H372v1.22h-1.21v2a.89.89,0,0,0,.15.61.66.66,0,0,0,.49.16h.32l.31-.06V84.7a3.521,3.521,0,0,1-.5.1,3.738,3.738,0,0,1-.5,0,2.22,2.22,0,0,1-.81-.13,1.3,1.3,0,0,1-.53-.37,1.43,1.43,0,0,1-.29-.58,3.16,3.16,0,0,1-.09-.76V80.85h-.62V79.63Z" fill="#40c1c9"/>
    <path id="パス_26341" data-name="パス 26341" d="M377.46,79.68a2.42,2.42,0,0,1,.82.59,2.519,2.519,0,0,1,.5.86,3.11,3.11,0,0,1,.17,1v.18a1,1,0,0,1,0,.2h-3.82a1.2,1.2,0,0,0,.11.5,1.471,1.471,0,0,0,.28.42,1.331,1.331,0,0,0,.42.29,1.27,1.27,0,0,0,.52.11,1.2,1.2,0,0,0,.61-.14,1.3,1.3,0,0,0,.42-.39h1.4a3.1,3.1,0,0,1-.33.62,2.25,2.25,0,0,1-.5.52,2.37,2.37,0,0,1-.7.35,3,3,0,0,1-.91.13,2.89,2.89,0,0,1-1.08-.2,2.55,2.55,0,0,1-.87-.57,2.66,2.66,0,0,1-.58-.88,3.035,3.035,0,0,1-.03-2.14,2.53,2.53,0,0,1,.51-.86,2.421,2.421,0,0,1,.83-.58,2.76,2.76,0,0,1,1.12-.21,2.7,2.7,0,0,1,1.11.2Zm-1.61.88a1.14,1.14,0,0,0-.37.24,1.19,1.19,0,0,0-.24.35,1.291,1.291,0,0,0-.11.41h2.4a1.29,1.29,0,0,0-.37-.77,1.11,1.11,0,0,0-.83-.32,1.22,1.22,0,0,0-.49.09Z" fill="#40c1c9"/>
    <path id="パス_26342" data-name="パス 26342" d="M382.47,79.63v.64h0a1.58,1.58,0,0,1,.67-.62,2,2,0,0,1,.85-.19,1.85,1.85,0,0,1,1.42.58,2.5,2.5,0,0,1,.55,1.76v2.95h-1.45V81.91a1.29,1.29,0,0,0-.26-.87.89.89,0,0,0-.71-.3,1,1,0,0,0-.79.33,1.4,1.4,0,0,0-.31,1v2.71H381V79.63Z" fill="#40c1c9"/>
    <path id="パス_26343" data-name="パス 26343" d="M71,73.37a1.05,1.05,0,0,0-.38-.88.84.84,0,0,0-.78-.32h-.48a3.881,3.881,0,0,0-.53,0,2.7,2.7,0,0,0-.51.06h-.29a2,2,0,0,0-.43.1.74.74,0,0,1-.28,0h-.15a1.17,1.17,0,0,0-.55-.17,1.739,1.739,0,0,0-.49,0,1.33,1.33,0,0,1-.29,0,1.65,1.65,0,0,1-.3,0,2.169,2.169,0,0,0-.47,0,1.43,1.43,0,0,0-.54.1.71.71,0,0,1-.24.05,1.73,1.73,0,0,0-.49.1,1.12,1.12,0,0,1-.25.06.254.254,0,0,1-.16-.06.76.76,0,0,0-.94.12.77.77,0,0,0-.1.92.47.47,0,0,1,.06.17,3.541,3.541,0,0,1,0,.43v.23a2.25,2.25,0,0,0,0,.46,1,1,0,0,1,0,.31,2,2,0,0,0,0,.46.55.55,0,0,1,0,.28c0,.05,0,.05-.1.1a1.18,1.18,0,0,0-.45.43,1.45,1.45,0,0,0-.2.54.66.66,0,0,1-.09.24,1.33,1.33,0,0,1-.16.24,2,2,0,0,0-.27.42,1.54,1.54,0,0,0-.16.5.64.64,0,0,1-.08.24,1.1,1.1,0,0,1-.16.25,2,2,0,0,0-.27.41.77.77,0,0,1-.17.25,2.38,2.38,0,0,0-.27.32.88.88,0,0,1-.21.23,2.641,2.641,0,0,0-.28.26l-.23.25a2.49,2.49,0,0,1-.28.28,1.1,1.1,0,0,0-.34.54c0,.09,0,.09-.08.13a1.9,1.9,0,0,1-.24.15,2,2,0,0,0-.43.3.64.64,0,0,1-.21.13,1.32,1.32,0,0,0-.5.35q-.111.115-.21.24a.62.62,0,0,1-.25.2,1.921,1.921,0,0,0-.36.26.36.36,0,0,1-.22.11.29.29,0,0,1-.18,0,1,1,0,0,0-.72,0,3.53,3.53,0,0,0-.7.36l-.08.05a1.14,1.14,0,0,0-.43.47l-.08.09a.34.34,0,0,1-.23,0,1.64,1.64,0,0,0-.5,0,1.38,1.38,0,0,0-.53.18.36.36,0,0,1-.21.06.24.24,0,0,1-.18,0,1.25,1.25,0,0,0-.57-.17,1.32,1.32,0,0,1-.29,0,1.94,1.94,0,0,0-.54-.07,1.1,1.1,0,0,0-.63.2.33.33,0,0,1-.18.07h-.23a1.35,1.35,0,0,1-.47,0,.21.21,0,0,1-.16-.08,1.38,1.38,0,0,0-.46-.28,2,2,0,0,1-.29-.13,2.34,2.34,0,0,0-.46-.2,1.87,1.87,0,0,0-.51-.1,1.21,1.21,0,0,1-.29,0l-.18-.05a2.939,2.939,0,0,1-.5-.18,1.54,1.54,0,0,0-.49-.12.43.43,0,0,1-.22-.07l-.36-.2L45,82.76l-.68-.39a.28.28,0,0,1-.13-.14,1.41,1.41,0,0,0-.46-.47,5,5,0,0,1-.52-.4l-.3-.26-.28-.25a1.83,1.83,0,0,1-.23-.24,2.6,2.6,0,0,0-.32-.33,1.25,1.25,0,0,0-.49-.28c-.08,0-.08,0-.12-.08a.2.2,0,0,1-.05-.16,1.32,1.32,0,0,0-.11-.53,2.13,2.13,0,0,0-.24-.43,1.37,1.37,0,0,1-.15-.27,1.78,1.78,0,0,1-.1-.3,2.519,2.519,0,0,0-.15-.44,1.39,1.39,0,0,0-.32-.47.57.57,0,0,1-.14-.2,2.26,2.26,0,0,1-.12-.3,2.609,2.609,0,0,0-.19-.45,2.921,2.921,0,0,0-.18-.31,1.78,1.78,0,0,1-.17-.34,2,2,0,0,0-.23-.42.81.81,0,0,1-.14-.32A3.38,3.38,0,0,1,39,74.3a2.17,2.17,0,0,1,0-.46v-.22a.71.71,0,0,1,.09-.14.73.73,0,0,0,.06-1,.9.9,0,0,0-.87-.31.8.8,0,0,1-.23,0,1.38,1.38,0,0,0-.56,0,.87.87,0,0,1-.24,0H37a4.641,4.641,0,0,0-.59,0,1,1,0,0,1-.3,0,2.31,2.31,0,0,0-.43,0,1.06,1.06,0,0,0-.62.18h-.12c-.04,0,0,0-.1-.07a.93.93,0,0,0-.68-.29h0a.93.93,0,0,0-.68.29c-.07.06-.07.06-.1.06a1.14,1.14,0,0,1-.29,0,1.91,1.91,0,0,0-.47,0,.4.4,0,0,1-.19,0,1.22,1.22,0,0,0-.56-.08H31.7a.91.91,0,0,0-.77.36.87.87,0,0,0-.29.8v.17a2.94,2.94,0,0,0,0,.47c0,.07,0,.15,0,.28a3,3,0,0,1,0,.3,2.65,2.65,0,0,0,0,.5,1.85,1.85,0,0,0,.14.46.81.81,0,0,1,.08.26.547.547,0,0,0,.06.34c.06.08,0,.19.06.4a1.47,1.47,0,0,0,.16.54,1.07,1.07,0,0,1,.09.24.44.44,0,0,1,0,.21,1.14,1.14,0,0,0,.08.63,2.45,2.45,0,0,1,.13.39.486.486,0,0,0,.08.29,1.43,1.43,0,0,0,.23.48.37.37,0,0,1,.08.2,2.36,2.36,0,0,0,.15.57l.08.23a2.64,2.64,0,0,0,.25.57l.1.18a.39.39,0,0,1,.05.2,1.23,1.23,0,0,0,.16.56,2.31,2.31,0,0,0,.25.39,1.64,1.64,0,0,1,.17.26.69.69,0,0,1,.08.24,1.43,1.43,0,0,0,.21.52,1.41,1.41,0,0,0,.38.42.67.67,0,0,1,.17.18,1.81,1.81,0,0,0,.33.36,1,1,0,0,1,.19.21,1.31,1.31,0,0,1,.15.26,2.09,2.09,0,0,0,.24.41,3,3,0,0,0,.39.46l.16.16.19.21a2.24,2.24,0,0,0,.4.38,1.38,1.38,0,0,0,.48.25.32.32,0,0,1,.18.1v.12a1.1,1.1,0,0,0,.23.6,3.33,3.33,0,0,0,.59.64,2,2,0,0,0,.49.34l.23.13a3.54,3.54,0,0,0,.38.2,2.74,2.74,0,0,1,.3.16,1.769,1.769,0,0,1,.26.19,2.58,2.58,0,0,0,.36.26,1.16,1.16,0,0,0,.58.18.23.23,0,0,1,.16,0c.06,0,.06.05.1.13a1.13,1.13,0,0,0,.38.49,1.54,1.54,0,0,0,.5.27,1.27,1.27,0,0,1,.25.11,1.47,1.47,0,0,0,.53.2,1.14,1.14,0,0,1,.25.07.36.36,0,0,1,.16.12,1.21,1.21,0,0,0,.49.34,2.241,2.241,0,0,0,.45.13,1.68,1.68,0,0,1,.3.08l.27.11a3,3,0,0,0,.49.17,1.33,1.33,0,0,0,.58,0,.63.63,0,0,1,.23,0,.61.61,0,0,1,.24.09,1.65,1.65,0,0,0,.46.19l.27.07.44.13a.46.46,0,0,1,.19.11,1.17,1.17,0,0,0,.57.28,1.23,1.23,0,0,0,.62,0,.59.59,0,0,1,.23,0,.85.85,0,0,1,.27.06,1.9,1.9,0,0,0,.47.11h.19a1.38,1.38,0,0,0,.36,0,.48.48,0,0,1,.23,0,2.641,2.641,0,0,0,.6,0h.23a2.46,2.46,0,0,0,.53,0h.58a3.27,3.27,0,0,0,.51-.07,2.11,2.11,0,0,0,.46-.14,1.66,1.66,0,0,1,.28-.09.46.46,0,0,1,.23,0,1.48,1.48,0,0,0,.51,0,1.24,1.24,0,0,0,.54-.21.27.27,0,0,1,.17-.06.32.32,0,0,1,.18,0,1.08,1.08,0,0,0,.64.09,6.351,6.351,0,0,0,.81-.08,1.11,1.11,0,0,0,.57-.31.44.44,0,0,1,.17-.11.91.91,0,0,1,.25-.06,1.39,1.39,0,0,0,.56-.19,2.57,2.57,0,0,0,.36-.24,1.24,1.24,0,0,1,.27-.17,3.338,3.338,0,0,1,.38-.16l.3-.12.31-.12.41-.16a1,1,0,0,1,.27-.08,1.87,1.87,0,0,0,.48-.15,1.11,1.11,0,0,0,.49-.41.31.31,0,0,1,.13-.13.44.44,0,0,1,.21-.06,1.21,1.21,0,0,0,.58-.19,1.42,1.42,0,0,0,.42-.38A.77.77,0,0,1,62.3,89a5.349,5.349,0,0,0,.51-.42l.11-.1a1.34,1.34,0,0,1,.24-.18,2.21,2.21,0,0,0,.64-.3,2.851,2.851,0,0,0,.31-.32,1.829,1.829,0,0,1,.23-.23,4.191,4.191,0,0,0,.58-.58.62.62,0,0,1,.18-.15,1.24,1.24,0,0,0,.45-.42,1.61,1.61,0,0,0,.22-.46.66.66,0,0,1,.11-.23,1.76,1.76,0,0,0,.23-.42.8.8,0,0,1,.13-.23c.15-.2.21-.27.28-.38l.17-.24a2.822,2.822,0,0,0,.26-.39l.17-.25.11-.08a1.1,1.1,0,0,0,.73-1v-.13c0-.04.05-.05.14-.08a1,1,0,0,0,.57-.44,1.18,1.18,0,0,0,.19-.6.54.54,0,0,1,0-.22,1,1,0,0,1,.14-.24,1.77,1.77,0,0,0,.25-.44,1.23,1.23,0,0,0,.1-.58.38.38,0,0,1,0-.2,2.549,2.549,0,0,1,.13-.29,2.87,2.87,0,0,0,.32-.4.28.28,0,0,1,.11-.15,1.13,1.13,0,0,0,.35-.53l.09-.26a2.931,2.931,0,0,0,.16-.55,1.08,1.08,0,0,0-.06-.66.33.33,0,0,1,0-.19,3.188,3.188,0,0,0,0-.41,1.74,1.74,0,0,1,0-.34,1,1,0,0,1,.08-.29,2.21,2.21,0,0,0,.13-.43,3.271,3.271,0,0,0,.09-.6v-.22a.51.51,0,0,1,.06-.22,1.17,1.17,0,0,0,.13-.63ZM68.82,79a3.31,3.31,0,0,0-.17.38,1.21,1.21,0,0,0-.09.38h0l-.36.2-.05-.1a.442.442,0,0,0-.5-.21c.51-.31.94-.58,1.28-.82Zm1.11-5a1.32,1.32,0,0,0-.06.29v.23a2.64,2.64,0,0,1-.07.48,1.339,1.339,0,0,1-.09.28,1.14,1.14,0,0,0-.39,0,.45.45,0,0,0-.62-.17l-.33.19-.17.1-1.2.69.56-.38A16.55,16.55,0,0,0,69.93,74Zm-6.76,1.24a1.911,1.911,0,0,0,0-.21.44.44,0,0,0,.21.14h0l-.28.26a1,1,0,0,1,.07-.22Zm-1.5,3.21a.65.65,0,0,1,.08-.24,1.09,1.09,0,0,1,.16-.26,2.38,2.38,0,0,0,.21-.31h0a.43.43,0,0,0,.08.26.45.45,0,0,0,.28.22h0l-.94.66a1.789,1.789,0,0,0,.14-.37Zm7.88-5.35a.72.72,0,0,0,.3,0l.07.07.12.13a1,1,0,0,1,0,.16v.12a.31.31,0,0,1,0,.2h0a.53.53,0,0,0-.08-.18.54.54,0,0,0-.31-.24.47.47,0,0,0-.27,0,.56.56,0,0,0-.09-.22.43.43,0,0,0-.09-.1h.07Zm-2.86.08a1.14,1.14,0,0,0,.62.16,1.59,1.59,0,0,0,.53-.1,1.18,1.18,0,0,1,.26-.06l.32-.05-3.66,2,1.55-1.46a.45.45,0,0,0,.13-.43.43.43,0,0,0-.07-.13h.15a.31.31,0,0,1,.18.03ZM64,73.26a.82.82,0,0,1,.26-.05,1.59,1.59,0,0,0,.49-.1.55.55,0,0,1,.24,0,1.42,1.42,0,0,1,.31,0h.11l-.9.51-.69.4a3.433,3.433,0,0,0-.11-.69ZM50.6,85.06a.24.24,0,0,1,.17-.06,1.1,1.1,0,0,1,.3,0,2.12,2.12,0,0,0,.45.07.39.39,0,0,1,.2.06,1.18,1.18,0,0,0,.23.1c-1.4.84-2.8,1.66-4,2.35,1.94-1.64,2.2-2.1,2.15-2.37a1.27,1.27,0,0,0,.5-.15Zm-2.6.35.45-.26a.44.44,0,0,0,.13-.11,1,1,0,0,0,.36.2L47.67,86C47.94,85.71,48,85.55,48,85.41Zm-2.73-1.5a1.3,1.3,0,0,0,.58.18.7.7,0,0,1,.24.06,3.589,3.589,0,0,0,.61.22h.18a2,2,0,0,0,.47.08,1,1,0,0,1,.29.06h0l-5,2.79c.79-.72,1.73-1.55,2.63-2.33a.45.45,0,0,0-.53-.72c-1.12.72-2.33,1.47-3.34,2.06l3-2.81a.43.43,0,0,0,0-.08h.07l.36.2ZM42.63,82a6.191,6.191,0,0,0,.65.49.4.4,0,0,1,.14.15,1.19,1.19,0,0,0,.24.3l-.4.23a.45.45,0,0,0,0-.43.53.53,0,0,0-.31-.23,2.109,2.109,0,0,0-.52.08.75.75,0,0,0-.08-.19.59.59,0,0,0-.33-.25,1.17,1.17,0,0,0-.77.17c.41-.35.69-.59.87-.77l.16.15Zm-2.32-2.7a1.35,1.35,0,0,1,.15.28.46.46,0,0,1,0,.21,1.06,1.06,0,0,0,.22.65,1,1,0,0,0,.57.41.46.46,0,0,1,.14.07l-.95.48a.45.45,0,0,0,.09-.55.5.5,0,0,0-.3-.23.56.56,0,0,0-.33,0,.43.43,0,0,0-.07-.2.5.5,0,0,0-.39-.21c.73-.61.75-.81.59-1.1a.56.56,0,0,0-.32-.24c-.27-.07-.63.06-1.6.62L39.75,78a.56.56,0,0,1,.07.13,1.78,1.78,0,0,1,.1.3,2.52,2.52,0,0,0,.15.44,2.13,2.13,0,0,0,.24.43Zm-1.23-2.52a1.7,1.7,0,0,1,.13.29,6.47,6.47,0,0,0-.76.39.45.45,0,0,0-.57-.06l-.52.33,1-.82a.45.45,0,0,0,.11-.57.57.57,0,0,0-.23-.21.37.37,0,0,0,0-.49c-.17-.29-.21-.37-1.91.54.57-.47,1.2-1,1.82-1.45a5.252,5.252,0,0,0,.13.53,1.55,1.55,0,0,0,.24.53,1,1,0,0,1,.13.25,2.5,2.5,0,0,0,.24.49c.11.06.11.13.19.25Zm-1.14-3.7a1.571,1.571,0,0,0,.35,0,1,1,0,0,0-.16.47,7.9,7.9,0,0,0-.83.4l.24-.19a.45.45,0,0,0,.1-.6l-.06-.06h.12a.55.55,0,0,1,.24-.02Zm-2.21,0a1.5,1.5,0,0,1,.28,0,1.82,1.82,0,0,0,.51,0h.38l-2.78,1.54c.78-.81,1.09-1.17,1.15-1.41a1.2,1.2,0,0,0,.32-.14c.07,0,.06-.02.13-.01Zm-2.21.21a1,1,0,0,0,.63-.3l.08-.05h0c-.51.32-1,.64-1.51.92l.43-.54v-.05a1.9,1.9,0,0,0,.37,0Zm-1.58,2.36a1.75,1.75,0,0,0-.07-.27c.16-.07.36-.17.63-.31Zm-.33-2.07h0l.13-.08a.48.48,0,0,0,0,.14h0l-.16.21a2.11,2.11,0,0,1,.02-.29Zm1,5.11-.07-.26a3.1,3.1,0,0,0-.17-.51.26.26,0,0,1,0-.18,1.33,1.33,0,0,0,0-.54,1.94,1.94,0,0,0-.15-.41h0l.92-.51c-.58.56-.51.69-.39.9a.44.44,0,0,0,.28.22.46.46,0,0,0,.35,0l1.09-.66c-1.7,1.48-1.58,1.69-1.44,1.95a.45.45,0,0,0,.13.15,2.719,2.719,0,0,0-.31.27l-.09-.15a.55.55,0,0,1-.18-.28Zm.5,1.32L33,79.84v-.1h0a.43.43,0,0,0,.35-.06l.42-.27Zm.71,1.75a1.51,1.51,0,0,1-.17-.26.38.38,0,0,1-.06-.2,1.47,1.47,0,0,0-.09-.3l.48-.2a.52.52,0,0,0,.21.12c.32.08.65-.09,2.75-1.43l-2.33,2.22a.45.45,0,0,0-.08.54.46.46,0,0,0,.29.22.31.31,0,0,0,.15,0l-.6.46-.06-.08a.55.55,0,0,1-.09-.23,1.58,1.58,0,0,0-.17-.48,2.38,2.38,0,0,0-.27-.4Zm4.47,5.67a2.59,2.59,0,0,1-.48-.52s0-.06,0-.15a1,1,0,0,0-.3-.65,1.19,1.19,0,0,0-.54-.33.5.5,0,0,1-.2-.1,1.38,1.38,0,0,1-.27-.26l-.23-.25L36,85a2.319,2.319,0,0,1-.3-.36,1.31,1.31,0,0,1-.15-.26l-.06-.12L36,84a.45.45,0,0,0,.61.6l2-1.11c-1.36,1.19-1.46,1.42-1.27,1.77a.47.47,0,0,0,.29.22h0c-.12.15-.08.24,0,.42a.45.45,0,0,0,.28.22.49.49,0,0,0,.18,0,.45.45,0,0,0,0,.45.47.47,0,0,0,.28.22c.2.06.32.09,2.5-1.16l-2.2,2h0l-.13-.07a1.14,1.14,0,0,1-.28-.15Zm1.48.87a14.47,14.47,0,0,0,1.32-.66,9.12,9.12,0,0,0-.9,1,1.91,1.91,0,0,1-.25-.18Zm4,2.29a1.47,1.47,0,0,1-.3-.09.35.35,0,0,1-.16-.12,1.23,1.23,0,0,0-.48-.33,1.92,1.92,0,0,0-.42-.12.62.62,0,0,1-.25-.09,2,2,0,0,0-.4-.18.69.69,0,0,1-.25-.13.28.28,0,0,1-.1-.15,1.45,1.45,0,0,0-.11-.2l.4-.21h.12a.46.46,0,0,0,.35-.06l1-.62c-.87.63-.84.68-.67,1a.51.51,0,0,0,.3.23c.15,0,.45.12,3.47-1.64-.66.54-1.37,1.1-2.06,1.64a.45.45,0,0,0-.12.57.51.51,0,0,0,.3.23h0a1.29,1.29,0,0,0-.23.32,2.57,2.57,0,0,0-.45-.07Zm2.87.76-.26-.06a.76.76,0,0,1-.24-.1l-.2-.1,1.89-1,.55-.28c-1.21.79-1.38,1.19-1.2,1.63a.44.44,0,0,0,.19.17,1.35,1.35,0,0,0-.28-.13,5.152,5.152,0,0,0-.51-.14Zm.82.29h0a.46.46,0,0,0,.17,0,.8.8,0,0,0,.07.14h0a.34.34,0,0,1-.13-.08Zm3.73.28a1.71,1.71,0,0,1-.37,0H50.5a1.69,1.69,0,0,1-.43,0,1.26,1.26,0,0,0-.57,0,.53.53,0,0,1-.23,0A1,1,0,0,1,49,91.9a1.91,1.91,0,0,0-.39-.09l11.66-6.47c-2.93,1.93-6.17,4.05-8.85,5.79a.45.45,0,0,0-.13.62.43.43,0,0,0,.11.12Zm2.61-.38a.6.6,0,0,1-.24,0,1.31,1.31,0,0,0-.58,0,2.24,2.24,0,0,0-.42.14,1.4,1.4,0,0,1-.3.09H52.1c1.35-.86,2.73-1.72,4.07-2.55-2.1,1.5-2.25,1.94-2.17,2.19h0a.37.37,0,0,1-.26.12Zm11.8-7.11a1.66,1.66,0,0,0-.26.45.94.94,0,0,1-.13.24,1.49,1.49,0,0,0-.24.48.4.4,0,0,0,0-.08.45.45,0,0,0-.6-.17l-3.43,1.9c1.48-.92,3.11-1.91,4.73-2.88ZM68,81.49l-.1.06a1.1,1.1,0,0,0-.53.35,1,1,0,0,0-.25.65H67a2.94,2.94,0,0,0-1.34.34c1.11-.75,1.88-1.28,2.41-1.68v.09a.31.31,0,0,1-.07.19Z" fill="#f6a631"/>
    <path id="パス_26344" data-name="パス 26344" d="M70.54,49a.88.88,0,0,1,0-.27,1.49,1.49,0,0,0,0-.57.62.62,0,0,1,0-.25,1.34,1.34,0,0,0,0-.6,1.12,1.12,0,0,0-.31-.59.32.32,0,0,1-.1-.17c-.06-.21-.07-.3-.1-.4a1.32,1.32,0,0,0-.08-.36,1.93,1.93,0,0,0-.17-.47.92.92,0,0,1-.1-.28.3.3,0,0,1,0-.19,1.13,1.13,0,0,0,0-.65,2.329,2.329,0,0,1-.06-.33,2.719,2.719,0,0,0-.11-.49,1.58,1.58,0,0,0-.27-.54,1.41,1.41,0,0,1-.15-.24l-.11-.24a2.55,2.55,0,0,0-.31-.54,1.15,1.15,0,0,0-.51-.4c-.09,0-.1,0-.13-.1a.44.44,0,0,1-.07-.23,1.49,1.49,0,0,0-.14-.52,1.18,1.18,0,0,1-.09-.28,1.69,1.69,0,0,0-.2-.51,1.4,1.4,0,0,0-.38-.45.74.74,0,0,1-.17-.19.29.29,0,0,1-.05-.18,1.09,1.09,0,0,0-.22-.64,1.18,1.18,0,0,0-.5-.4.38.38,0,0,1-.17-.13,3.641,3.641,0,0,0-.48-.51l-.11-.1a1.19,1.19,0,0,1-.18-.21,1.55,1.55,0,0,0-.42-.42c-.31-.22-.32-.23-.63-.47a2.25,2.25,0,0,0-.39-.25,1.1,1.1,0,0,1-.26-.18,2.46,2.46,0,0,1-.23-.22,2.48,2.48,0,0,0-.38-.34,1.78,1.78,0,0,0-.47-.26,1.16,1.16,0,0,1-.26-.14.46.46,0,0,1-.17-.17,1.51,1.51,0,0,0-.36-.39,1.66,1.66,0,0,0-.45-.26.59.59,0,0,1-.23-.14,2.08,2.08,0,0,0-.46-.33l-.25-.16a.33.33,0,0,1-.12-.15,1.05,1.05,0,0,0-.5-.5l-.27-.14a4.77,4.77,0,0,0-.49-.24,2.17,2.17,0,0,0-.51-.16,2,2,0,0,1-.31-.08,1.71,1.71,0,0,1-.28-.13,2.07,2.07,0,0,0-.51-.2,3.76,3.76,0,0,0-.54-.1h-.3a1,1,0,0,0-.7.12h-.12a.26.26,0,0,1-.16-.1,1.2,1.2,0,0,0-.53-.33,3,3,0,0,0-.52-.13l-.3-.06-.3-.08a2.44,2.44,0,0,0-.52-.11,3,3,0,0,0-.55,0h-.3a2.34,2.34,0,0,0-.54,0h-.31a1.22,1.22,0,0,1-.31,0,2.37,2.37,0,0,0-.49,0,1.18,1.18,0,0,0-.6.18.28.28,0,0,1-.18.06.43.43,0,0,1-.2,0,1.17,1.17,0,0,0-.63-.13,1.22,1.22,0,0,0-.59.18.42.42,0,0,1-.21.07.23.23,0,0,1-.16,0,1.09,1.09,0,0,0-.67-.13,1.22,1.22,0,0,0-.58.22.36.36,0,0,1-.2.08,3.07,3.07,0,0,0-.65.13l-.18.05-.27.07a2.37,2.37,0,0,0-.55.19,3.06,3.06,0,0,1-.42.17l-.3.1a1.11,1.11,0,0,1-.32.07,2.51,2.51,0,0,0-.43.08,2,2,0,0,0-.52.2,2,2,0,0,1-.28.13H42.8a4.911,4.911,0,0,0-.69.3,1.54,1.54,0,0,0-.47.34,1.1,1.1,0,0,1-.21.17l-.26.15a2.25,2.25,0,0,0-.46.3l-.23.19a3.549,3.549,0,0,1-.38.29.3.3,0,0,1-.19.06,1.32,1.32,0,0,0-.56.17,1.7,1.7,0,0,0-.47.37,1.781,1.781,0,0,1-.21.2,2.51,2.51,0,0,0-.45.43l-.17.19-.28.29-.28.28a1.36,1.36,0,0,0-.3.49.46.46,0,0,1-.12.2,1,1,0,0,1-.23.19,1.92,1.92,0,0,0-.39.31l-.2.2-.36.35a2.07,2.07,0,0,0-.33.4,1.63,1.63,0,0,1-.19.24l-.18.19c-.12.13-.18.19-.37.42a1,1,0,0,1-.2.19,1.53,1.53,0,0,0-.39.43c-.08.12-.13.19-.17.24a2.37,2.37,0,0,0-.29.48,1.6,1.6,0,0,0-.16.51.61.61,0,0,1-.08.25,3.509,3.509,0,0,1-.2.34c-.05.08-.11.17-.21.33a2.219,2.219,0,0,1-.16.25,2,2,0,0,0-.27.49,1.42,1.42,0,0,0-.13.58.89.89,0,0,1,0,.26,3.539,3.539,0,0,0-.09.41,1.7,1.7,0,0,1-.09.35.33.33,0,0,1-.12.18,1.32,1.32,0,0,0-.34.48l-.1.24a5.36,5.36,0,0,0-.21.54,1.71,1.71,0,0,0-.11.54,1.13,1.13,0,0,1,0,.28.67.67,0,0,1-.1.22,1.25,1.25,0,0,0-.22.6v.28a2.53,2.53,0,0,0,0,.6,1.18,1.18,0,0,0,.18.61.29.29,0,0,1,.06.19.52.52,0,0,1,0,.24,1.45,1.45,0,0,0-.1.55,3.08,3.08,0,0,1,0,.4c0,.09,0,.19,0,.36a2.51,2.51,0,0,1-.05.38,1.136,1.136,0,0,1-.06.39,1.32,1.32,0,0,0,.06.65,1,1,0,0,1,.06.26,1.61,1.61,0,0,0,.14.6,2.22,2.22,0,0,1,.09.26,2.69,2.69,0,0,0,.16.42,1.38,1.38,0,0,1,.11.33s0,0,0,.14a1.07,1.07,0,0,0-.11.67,2.729,2.729,0,0,1,0,.31,2.3,2.3,0,0,0,.08.55,1.83,1.83,0,0,0,.22.52,1.48,1.48,0,0,1,.13.27,1.44,1.44,0,0,0,.29.49.57.57,0,0,1,.13.21.74.74,0,0,1,.06.26,1.56,1.56,0,0,0,.12.53l.13.33.16.42a1.56,1.56,0,0,0,.28.47.72.72,0,0,1,.14.22,2,2,0,0,1,.1.29,2.41,2.41,0,0,0,.21.54,7.4,7.4,0,0,0,.37.67.8.8,0,0,1,.1.25,1.41,1.41,0,0,0,.25.54,1.13,1.13,0,0,0,.52.41A.36.36,0,0,1,35,62a.52.52,0,0,1,.12.21,1.4,1.4,0,0,0,.28.5l.27.31.26.29a1.24,1.24,0,0,0,.49.36.42.42,0,0,1,.18.13.65.65,0,0,1,.14.22,1.45,1.45,0,0,0,.31.47,1.31,1.31,0,0,0,.48.34.42.42,0,0,1,.18.13l.28.29.27.29a.43.43,0,0,1,.1.19,1.1,1.1,0,0,0,.39.56l.16.13a2.86,2.86,0,0,0,.56.38,1.66,1.66,0,0,0,.49.19.68.68,0,0,1,.25.1.85.85,0,0,1,.23.18,1.88,1.88,0,0,0,.38.32,1.63,1.63,0,0,0,.5.23,1,1,0,0,1,.26.11.84.84,0,0,1,.21.17,1.52,1.52,0,0,0,.46.33,1.08,1.08,0,0,1,.24.16,1.75,1.75,0,0,0,.46.28,1.14,1.14,0,0,0,.64.09.33.33,0,0,1,.2,0l.48.16.3.09a.38.38,0,0,1,.18.11,1.242,1.242,0,0,0,1.18.31.34.34,0,0,1,.2,0,2.18,2.18,0,0,1,.31.1,2.49,2.49,0,0,0,.47.14c.42.09.43,0,.81.08l.48.07h.32a1.25,1.25,0,0,1,.29.07,2,2,0,0,0,.5.11h.16l.65.06a1.76,1.76,0,0,0,.52,0,1,1,0,0,1,.29,0h.81a1.37,1.37,0,0,1,.28,0,1.73,1.73,0,0,0,.56,0,.83.83,0,0,1,.26,0,1.47,1.47,0,0,0,.28,0,1.5,1.5,0,0,0,.32,0,1.39,1.39,0,0,0,.52-.22.49.49,0,0,1,.22-.09c.39-.07.4,0,.79-.06h.3a3,3,0,0,0,.53-.09,2.4,2.4,0,0,0,.5-.17l.29-.11.39-.15a2.791,2.791,0,0,1,.35-.13l.42-.12.35-.09.28-.06a1.66,1.66,0,0,0,.57-.18,2.89,2.89,0,0,0,.6-.36l.15-.11a1.9,1.9,0,0,1,.34-.21l.32-.17a3.42,3.42,0,0,0,.34-.22,1.35,1.35,0,0,1,.31-.18.83.83,0,0,1,.25-.07,1.3,1.3,0,0,0,.59-.23,1.52,1.52,0,0,0,.44-.42,1.31,1.31,0,0,1,.18-.21.88.88,0,0,1,.24-.17,2,2,0,0,0,.4-.26,1.29,1.29,0,0,0,.36-.46.32.32,0,0,1,.13-.16.45.45,0,0,1,.21-.09,1.18,1.18,0,0,0,.57-.29,1.14,1.14,0,0,0,.36-.55.39.39,0,0,1,.1-.18,1,1,0,0,1,.24-.19,2.09,2.09,0,0,0,.38-.3l.26-.26.31-.3a.42.42,0,0,1,.19-.1,1.05,1.05,0,0,0,.6-.42,1,1,0,0,0,.17-.77v-.18a2.769,2.769,0,0,1,.2-.37l.18-.31a.49.49,0,0,1,.16-.19,1.67,1.67,0,0,0,.58-.89.72.72,0,0,1,.1-.24.39.39,0,0,1,.16-.15,1.23,1.23,0,0,0,.44-.44,1.3,1.3,0,0,0,.2-.6.75.75,0,0,1,.06-.25,1.35,1.35,0,0,0,.12-.59.85.85,0,0,1,0-.25,2,2,0,0,1,.13-.37c0-.09.08-.18.15-.35a.41.41,0,0,1,.13-.2,1.44,1.44,0,0,0,.32-.45,1.869,1.869,0,0,1,.14-.25,1.64,1.64,0,0,0,.25-.58,1.26,1.26,0,0,0,0-.66.83.83,0,0,1,0-.26,1.569,1.569,0,0,1,0-.33,2.51,2.51,0,0,0,.07-.47,1.22,1.22,0,0,0-.11-.6.33.33,0,0,1,0-.2.52.52,0,0,1,.06-.23,1.42,1.42,0,0,0,.15-.54v-.42a3.089,3.089,0,0,1,0-.37,1.6,1.6,0,0,0,0-.55.86.86,0,0,1,0-.27q-.011-.215,0-.43v-.35a1.54,1.54,0,0,0,0-.59A1.58,1.58,0,0,1,70.54,49ZM60.1,59.56l-1.85,1.08c7.41-4.54,10.23-6.37,11.25-7.22v.14a.35.35,0,0,1,0,.2,1.74,1.74,0,0,1,0,.33,2.4,2.4,0,0,0-.07.49,1.56,1.56,0,0,0,0,.35A2.52,2.52,0,0,0,69,55a.47.47,0,0,0-.06-.16.45.45,0,0,0-.63-.16l-2.62,1.6Zm9-13.26c-.1-.18-.15-.28-.58-.13h0l-.55.3c-.73.36-2,1.05-4.21,2.28l-10.4,5.77-4.93,2.75c5.19-3.18,11.67-7,17.31-10.37.55-.31,1-.59,1.44-.85l1.57-.92a.44.44,0,0,0,.11-.1,1,1,0,0,0,0,.23,1.83,1.83,0,0,0,.18.5,1.06,1.06,0,0,1,.1.28,1.4,1.4,0,0,0,.07.33,1.155,1.155,0,0,0,.11.46h0c-6.41,3.6-14.6,8.17-20.87,11.69,6.12-3.58,14.19-8.13,20.49-11.61a.45.45,0,0,0,.17-.61Zm0,3a.69.69,0,0,0-.3-.3,3,3,0,0,0-1.32.33,22.71,22.71,0,0,0,2.23-1.61,1.44,1.44,0,0,0,0,.52.65.65,0,0,1,0,.27,1.73,1.73,0,0,0,0,.5,2.31,2.31,0,0,0,.06.41.7.7,0,0,1,0,.3v.9a.61.61,0,0,0-.23-.12c-.46-.12-2.06.54-4.28,1.66L69,49.89a.45.45,0,0,0,.15-.6Zm.47,2.12.06-.06a3.82,3.82,0,0,0,0,.45v.35a.55.55,0,0,1,0,.15c-.29,0-1,.34-11.7,6.41Zm-1-8.06h0a5.619,5.619,0,0,0-.72.24h-.09a.45.45,0,0,0-.34,0l-6.15,3.45c2.79-1.74,4.32-2.76,5.13-3.39a8.64,8.64,0,0,0,1.7-1.17l.09.18.13.27a2.17,2.17,0,0,0,.29.41Zm-1.51-2.44a.62.62,0,0,1,.06.24,1.31,1.31,0,0,0,.16.53,12.42,12.42,0,0,0-1.79.82c1-.81.87-1,.75-1.24a.45.45,0,0,0-.62-.17C58,45.56,47.7,51.46,41,55.16c6.77-4,17.48-10.16,25.52-14.69a.45.45,0,0,0,.22-.43.56.56,0,0,1,.11.15.88.88,0,0,1,.11.28,2.07,2.07,0,0,0,.13.44ZM34.59,60c-.07-.12-.11-.21-.23-.44v-.1a15.079,15.079,0,0,0,2-.84,3.67,3.67,0,0,0-1.13,1.07Zm-1.32-3.2a1.531,1.531,0,0,0,0-.16,1.47,1.47,0,0,0-.29-.48.56.56,0,0,1-.13-.21l-.08-.18a7.042,7.042,0,0,0,.79-.44.5.5,0,0,0,.27.21c.46.13,2.73-1,20.2-10.92-6.13,3.67-13.35,7.86-17.21,10.1-1.9,1.1-2.96,1.72-3.55,2.1Zm5.16-4.45.53-.32,2.21-1.19ZM66.32,39.59h0a.56.56,0,0,0-.21,0l.16-.09Zm-.61-1a14,14,0,0,0-1.5.66,6.5,6.5,0,0,0,1.15-1l.07.08a1.25,1.25,0,0,0,.28.25Zm-6.23-5.11a1.2,1.2,0,0,0,.4.47,3.539,3.539,0,0,0,.33.2,1.19,1.19,0,0,1,.29.21,1.45,1.45,0,0,0,.5.31.78.78,0,0,1,.23.13.62.62,0,0,1,.16.18,1.33,1.33,0,0,0,.42.42,2.06,2.06,0,0,0,.42.22.9.9,0,0,1,.26.15,1.71,1.71,0,0,1,.26.24,3.27,3.27,0,0,0,.3.29,2,2,0,0,0,.41.28,18.67,18.67,0,0,0-2.61,1.06L62,37a.45.45,0,0,0,.16-.6.64.64,0,0,0-.25-.25.38.38,0,0,0,0-.41.64.64,0,0,0-.33-.26.74.74,0,0,0-.32,0,.59.59,0,0,0-.07-.26.45.45,0,0,0-.61-.17l-3.22,1.78c2.5-1.8,2.3-2.15,2.12-2.49a.45.45,0,0,0-.57-.19.54.54,0,0,0-.06-.14.45.45,0,0,0-.27-.22c-.25-.07-.25-.07-6.23,3.42-5.29,3.08-14.34,8.37-18,10.18.64-.47,1.51-1.05,2.58-1.72,5.38-2.83,14-7.47,18.3-10.36l3.74-2a.45.45,0,0,0,.14-.12h.06l.29.15c-.03.04-.02.04.02.13ZM39.05,42.74c-1.09.63-2.1,1.2-3,1.68C36.94,43.92,38,43.34,39.05,42.74Zm14.24-11a1.69,1.69,0,0,1,.36.08l.38.1.35.07a2.36,2.36,0,0,1,.4.1.34.34,0,0,1,.17.11,1.28,1.28,0,0,0,.27.21c-2.06,1.09-6.57,3.61-16.75,9.33,4.39-2.76,10.47-6.34,14.93-8.9a.45.45,0,0,0,.17-.6.49.49,0,0,0-.28-.22,2.3,2.3,0,0,0-1,.3c.43-.31.57-.47.59-.59a3.31,3.31,0,0,1,.42-.03Zm-4.8.26-1.14.65-1.48.83,2-1.26a.44.44,0,0,0,.2-.29A1,1,0,0,0,48.49,32Zm-3.66.79.27-.09.16-.06-1.16.64a2.92,2.92,0,0,0,.4-.4ZM34.19,42.08a4.33,4.33,0,0,0,.24-.41.45.45,0,0,0,.27.21h.15c-.41.26-.71.47-.94.63l.1-.16C34.09,42.22,34.14,42.15,34.19,42.08Zm-.69,1.65V43.6h.07a1.424,1.424,0,0,0,.52-.11l-.68.51a2.761,2.761,0,0,1,.09-.27Zm-1.55,8a.45.45,0,0,1,0-.26.6.6,0,0,1,.05-.33,3.2,3.2,0,0,0,.07-.5v-.32a3.809,3.809,0,0,0,0-.5.59.59,0,0,1,0-.24,1.39,1.39,0,0,0,.1-.56,1.16,1.16,0,0,0-.18-.63.31.31,0,0,1-.06-.19,1.73,1.73,0,0,1,0-.43v-.32a.38.38,0,0,1,.08-.22,1.51,1.51,0,0,0,.22-.47,2,2,0,0,0,.08-.48.84.84,0,0,1,.06-.29h0v.09a.59.59,0,0,0,0,.46.62.62,0,0,0,.27.23l-.42.22a.45.45,0,0,0-.19.61.51.51,0,0,0,.28.22,1.08,1.08,0,0,0-.23.36.61.61,0,0,0,0,.49.5.5,0,0,0,.13.14.29.29,0,0,0-.09.16.45.45,0,0,0,.65.52l1.06-.59,2.25-1.19c7.08-3.73,12.21-6.51,15.78-8.55-5.59,3.47-13.67,8.12-19.58,11.4h0a.45.45,0,0,0,.23.84A.55.55,0,0,0,33,52c-.9.58-.83.69-.71.92a.57.57,0,0,0,.32.24c.6.15,2.54-1,9.65-5.36l5.42-3L37.59,51c-2,1.25-3.64,2.25-4.56,2.82a.45.45,0,0,0-.18.53,5.291,5.291,0,0,0-.43.35c0-.06,0-.12,0-.2v-.15a1,1,0,0,0,.09-.71,2.17,2.17,0,0,0-.17-.51,2,2,0,0,1-.11-.3,3.09,3.09,0,0,0-.13-.35.79.79,0,0,1-.07-.32,1.87,1.87,0,0,0-.08-.45Zm9.31-4.78c-2.65,1.58-5,3-6.51,3.69,1.36-.93,3.81-2.29,6.5-3.72Zm-7.71,10.9h.13a.62.62,0,0,0,.06.33.45.45,0,0,0,.27.22,1.1,1.1,0,0,0,.39-.08,5.369,5.369,0,0,0-.43.36,1.891,1.891,0,0,0-.15-.21.67.67,0,0,1-.14-.23Zm2.41,4.12a1.4,1.4,0,0,0-.28-.5,1.24,1.24,0,0,0-.49-.35.29.29,0,0,1-.12-.08c1.83-.27,7.57-3.68,18.52-10.38L56.18,49l1.4-.71C51.39,52.11,43.13,57,36.71,60.7a.45.45,0,0,0-.22.44.42.42,0,0,0,0,.11.89.89,0,0,0-.12.23v.06c-.21.22-.19.34-.13.46a.87.87,0,0,0-.15.19h0a.52.52,0,0,1-.14-.25Zm3.23,3.49A1.31,1.31,0,0,0,38.9,65l-.31-.33-.25-.26a1.3,1.3,0,0,0-.48-.34.45.45,0,0,1-.19-.13.58.58,0,0,1-.14-.21,1.52,1.52,0,0,0-.29-.46,1.27,1.27,0,0,0-.48-.34h-.08a18,18,0,0,0,1.61-.88,71.791,71.791,0,0,0,7.45-4.13c-8.07,5-7.92,5.26-7.68,5.7a.45.45,0,0,0,.27.21.44.44,0,0,0,.34,0l.23-.13a1.08,1.08,0,0,0-.31.38.58.58,0,0,0,0,.39.46.46,0,0,0,.27.22c.2.05.45.14,18.62-10.06l-2,1.19c-6.2,3.57-12.88,7.61-16,9.53a.44.44,0,0,0-.21.42h0a.23.23,0,0,1-.09-.33Zm1,.67a.79.79,0,0,1-.26-.1h0L40,66c.08,0,7.68-4.5,15.14-9l.23-.14c1.95-1.13,3.81-2.19,5.5-3.13L54.46,57.6c-9.7,5.89-12.82,7.92-13.73,8.77h-.06a1.55,1.55,0,0,0-.54-.26Zm2.27,1.34a1.7,1.7,0,0,0-.4-.31,1.83,1.83,0,0,0-.46-.19h0C48.81,62.47,59.18,56.3,65,53.25L42.85,67a.45.45,0,0,0-.15.6h0l-.09-.05a.68.68,0,0,1-.21-.1Zm2.11.81-.42-.14a1.22,1.22,0,0,0-.61-.07.27.27,0,0,1-.19,0,.86.86,0,0,1-.25-.15h0c.34.05,1.24-.38,15-8.23l1-.54c-4.56,2.81-9.87,6-14.16,8.58a.45.45,0,0,0-.16.6v.05Zm1,.51a.31.31,0,0,1-.17-.1l-.13-.11a1.55,1.55,0,0,0,.31-.05.37.37,0,0,0,.07.25h0Zm3.88.58a1.13,1.13,0,0,1-.3-.07,2.09,2.09,0,0,0-.47-.11h-.35l-.42-.06h0L58.55,63.2,49.8,68.94a.44.44,0,0,0-.18.49Zm1.57,0a1.74,1.74,0,0,0-.33,0l1.1-.64a.5.5,0,0,0-.14.33.386.386,0,0,0-.21.26c-.03.09,0,0,0,.05H51Zm2.29.1a.52.52,0,0,1-.26,0h-.23l.42-.23,1.75-.91.38-.2a8.64,8.64,0,0,0-1,.71L54,69h0a1.06,1.06,0,0,0-.19.21,1.35,1.35,0,0,0-.39.18.54.54,0,0,1-.16.09Zm5-1.33a2.579,2.579,0,0,0-.4.08l-.26.07,1.33-.73.21-.11c-.16.17-.2.28-.19.37a2.18,2.18,0,0,1-.39.22.81.81,0,0,1-.35.1Zm7.85-5.72c0,.06,0,.06-.15.09a1.63,1.63,0,0,0-.32.15H65.6l.56-.38h0a.2.2,0,0,1-.05.14Zm2.17-4.21a1.6,1.6,0,0,0-.13.5.44.44,0,0,1-.08.24.36.36,0,0,1-.15.15,1.26,1.26,0,0,0-.43.42,1.53,1.53,0,0,0-.1.2v-.1a.48.48,0,0,0-.28-.22c-.15,0-.37-.11-5,2.43l6.25-4.1a2.109,2.109,0,0,0,0,.24.48.48,0,0,1-.13.25Z" fill="#40c1c9"/>
    <rect id="長方形_5902" data-name="長方形 5902" width="419" height="123" fill="none"/>
  </g>
</svg>
