<svg id="solidarity_1_" data-name="solidarity (1)" xmlns="http://www.w3.org/2000/svg" width="56.226" height="56.22" viewBox="0 0 56.226 56.22">
  <path id="パス_47867" data-name="パス 47867" d="M21.858,38.553V29.777A3.178,3.178,0,0,0,18.684,26.6a3.142,3.142,0,0,0-1.36.318V21.615a3.178,3.178,0,0,0-3.174-3.174,3.142,3.142,0,0,0-1.36.318V16.174a3.167,3.167,0,0,0-6.235-.794A3.613,3.613,0,0,0,1,18.441V33.858a.91.91,0,0,0,.111.434l5.441,9.976a.935.935,0,0,0,.155.207l7.1,7.1a2.739,2.739,0,0,1,.8,1.923v3.939a.907.907,0,0,0,.907.907H26.392a.907.907,0,0,0,.907-.907V46.171a4.521,4.521,0,0,0-1.22-3.094ZM18.684,28.417a1.362,1.362,0,0,1,1.36,1.36v6.832l-2.721-2.915V29.777a1.362,1.362,0,0,1,1.36-1.36ZM14.15,20.255a1.362,1.362,0,0,1,1.36,1.36V31.751l-.613-.657a2.731,2.731,0,0,0-1.989-.864h-.119V21.615A1.362,1.362,0,0,1,14.15,20.255ZM8.255,16.174a1.36,1.36,0,0,1,2.721,0V30.936a2.713,2.713,0,0,0-.833,1.384l-1.888-2.4V16.174ZM25.486,56.53H16.417V53.5a4.5,4.5,0,0,0-1.328-3.206L8.082,43.285,2.814,33.627V18.441a1.814,1.814,0,1,1,3.627,0V30.231a.906.906,0,0,0,.194.56l9.976,12.7,1.426-1.12-6.154-7.834V32.951a.908.908,0,0,1,.907-.907h.119a.913.913,0,0,1,.663.287L24.755,44.313a2.719,2.719,0,0,1,.731,1.857Z" transform="translate(-1 -2.123)" fill="#fff"/>
  <path id="パス_47868" data-name="パス 47868" d="M56.672,14.814a3.6,3.6,0,0,0-1.927.566,3.167,3.167,0,0,0-6.235.794V18.76a3.142,3.142,0,0,0-1.36-.318,3.178,3.178,0,0,0-3.174,3.174v5.306a3.142,3.142,0,0,0-1.36-.318,3.178,3.178,0,0,0-3.174,3.174v8.776L35.22,43.076A4.521,4.521,0,0,0,34,46.171V57.437a.907.907,0,0,0,.907.907H45.789a.907.907,0,0,0,.907-.907V53.5a2.74,2.74,0,0,1,.8-1.923l7.1-7.1a.935.935,0,0,0,.155-.207l5.441-9.976a.91.91,0,0,0,.111-.434V18.441a3.631,3.631,0,0,0-3.627-3.627Zm-6.348,1.36a1.36,1.36,0,0,1,2.721,0V29.917l-1.888,2.4a2.717,2.717,0,0,0-.833-1.384V16.174Zm-4.534,5.441a1.36,1.36,0,0,1,2.721,0v8.615h-.119a2.731,2.731,0,0,0-1.989.864l-.613.657V21.615Zm-4.534,8.162a1.36,1.36,0,1,1,2.721,0v3.918l-2.721,2.915Zm17.231,3.85-5.268,9.657L46.21,50.291A4.507,4.507,0,0,0,44.882,53.5V56.53H35.814V46.171a2.712,2.712,0,0,1,.732-1.856L47.729,32.333a.907.907,0,0,1,.662-.288h.119a.908.908,0,0,1,.907.907v1.582l-6.154,7.833,1.426,1.12,9.976-12.7a.9.9,0,0,0,.194-.56V18.441a1.814,1.814,0,1,1,3.627,0Z" transform="translate(-4.073 -2.123)" fill="#fff"/>
  <path id="パス_47869" data-name="パス 47869" d="M44.19,8.471a7.958,7.958,0,0,0-3.364-6.049,7.793,7.793,0,0,0-9.519.432l-.7.6-.7-.6a7.793,7.793,0,0,0-9.519-.432,8.046,8.046,0,0,0-.766,12.491l10.379,9.44a.908.908,0,0,0,1.221,0l10.379-9.44a7.987,7.987,0,0,0,2.6-6.442ZM30.6,22.458l-9.769-8.885a6.233,6.233,0,0,1,.59-9.666,5.976,5.976,0,0,1,7.3.332l1.29,1.094a.909.909,0,0,0,1.173,0L32.48,4.238a5.977,5.977,0,0,1,7.3-.332,6.233,6.233,0,0,1,.59,9.666Z" transform="translate(-2.49 -1.006)" fill="#fff"/>
</svg>
