<svg id="question" xmlns="http://www.w3.org/2000/svg" width="32.642" height="33.999" viewBox="0 0 32.642 33.999">
  <path id="パス_47874" data-name="パス 47874" d="M370.746,36.641a2.312,2.312,0,0,0-2.309,2.309.5.5,0,0,0,1,0,1.313,1.313,0,1,1,1.313,1.313h-.316a.5.5,0,0,0-.5.5v1.7a.5.5,0,1,0,1,0V41.253a2.309,2.309,0,0,0-.182-4.612Z" transform="translate(-344.65 -34.208)"/>
  <path id="パス_47875" data-name="パス 47875" d="M391.452,143.284a.5.5,0,0,0-.5.5v.146a.5.5,0,1,0,1,0v-.146A.5.5,0,0,0,391.452,143.284Z" transform="translate(-365.672 -133.769)"/>
  <path id="パス_47876" data-name="パス 47876" d="M40.686,0h-8.74a2.177,2.177,0,0,0-2.175,2.175V6.116a9.061,9.061,0,0,0-7.444-3.9H20.1a7.481,7.481,0,0,0-6.378,3.59,4.272,4.272,0,0,0-3,4.219l.126,4.346a1.984,1.984,0,0,0-.63,1.451v.467a1.992,1.992,0,0,0,1.99,1.989h1.335a7.973,7.973,0,0,0,1.476,2.339l-2.278,3.155a.5.5,0,0,0-.078.166l-2.3,8.837A.976.976,0,0,0,11.312,34H29.838a1.2,1.2,0,0,0,1.2-1.287l-.189-2.582a4.852,4.852,0,0,0-.516-1.858.5.5,0,1,0-.888.451,3.861,3.861,0,0,1,.41,1.479l.189,2.581a.2.2,0,0,1-.2.219h-2.3V30.968a.5.5,0,1,0-1,0V33h-10.9l1.271-4.888a.036.036,0,0,1,.035-.027h2.2a2.643,2.643,0,0,0,1.237-.306,5.477,5.477,0,0,0,.977.088,5.344,5.344,0,0,0,3.705-1.474h0c.1.02.024.005,1.5.238a3.868,3.868,0,0,1,1.506.572.5.5,0,1,0,.539-.837,4.857,4.857,0,0,0-1.891-.719,13.962,13.962,0,0,1-1.6-.274.955.955,0,0,1-.612-.881,1.64,1.64,0,0,0,.927-2.029,8.826,8.826,0,0,0,3.741-4.185h.937A1.992,1.992,0,0,0,32.1,16.291v-.467a1.987,1.987,0,0,0-.713-1.525V13.017a2.173,2.173,0,0,0,.554.072h1.568a.329.329,0,0,1,.329.329v1.414a.8.8,0,0,0,.548.766.826.826,0,0,0,.267.045.8.8,0,0,0,.634-.315l1.648-2.123a.3.3,0,0,1,.236-.116h3.51a2.177,2.177,0,0,0,2.175-2.175V2.175A2.178,2.178,0,0,0,40.686,0ZM11.216,16.291v-.467a1,1,0,0,1,.994-.994h.808a8.175,8.175,0,0,0,.2,2.455H12.21A1,1,0,0,1,11.216,16.291ZM21.378,26.872a2.643,2.643,0,0,0,.428-1.444v-.8H23.52a1.947,1.947,0,0,0,.6,1.27A4.365,4.365,0,0,1,21.378,26.872Zm2.464-3.236H21.694a.884.884,0,0,0-.883.883v.909a1.665,1.665,0,0,1-1.664,1.664h-2.2a1.033,1.033,0,0,0-1,.773L14.611,33H11.338l2.267-8.721L17.419,19a.656.656,0,0,1,.431-.266.667.667,0,0,1,.5.12l.024.018a.62.62,0,0,1,.257.491.612.612,0,0,1-.112.376l-.928,1.326a.8.8,0,0,0,.658,1.266h5.624a.652.652,0,0,1,.652.658A.669.669,0,0,1,23.843,23.636Zm7.266-7.345a1,1,0,0,1-.993.993H29.5a7.486,7.486,0,0,0,.218-1.8c0-.222,0-.442-.013-.658h.41a1,1,0,0,1,.993.994Zm-.993-2.458h-.482a13.3,13.3,0,0,0-.266-1.615,2.349,2.349,0,0,0-2.149-1.8,15.648,15.648,0,0,1-5.691-1.447,1.133,1.133,0,0,0-1.411.376.711.711,0,0,1-.568.288,2,2,0,0,1-1.206-.6,10.239,10.239,0,0,1-.985-.984,1.3,1.3,0,0,0-.973-.439h0a1.294,1.294,0,0,0-.967.435A8.485,8.485,0,0,0,14.18,9.891a.5.5,0,1,0,.891.444,7.488,7.488,0,0,1,1.09-1.629.294.294,0,0,1,.222-.1.3.3,0,0,1,.228.1,11.222,11.222,0,0,0,1.082,1.08,2.994,2.994,0,0,0,1.844.843A1.706,1.706,0,0,0,20.942,9.9a.134.134,0,0,1,.164-.03,16.656,16.656,0,0,0,6.057,1.539A1.347,1.347,0,0,1,28.4,12.443a12.629,12.629,0,0,1,.285,1.926c.027.359.04.736.04,1.119a6.432,6.432,0,0,1-.358,2.131,7.773,7.773,0,0,1-3.515,4.038,1.636,1.636,0,0,0-.978-.321H18.617l.717-1.024a1.626,1.626,0,0,0-.375-2.245l-.024-.018a1.66,1.66,0,0,0-2.324.368l-.992,1.374a6.852,6.852,0,0,1-1.26-2.173,7.557,7.557,0,0,1-.317-3.25,12.573,12.573,0,0,1,.3-1.968.5.5,0,1,0-.969-.229,13.267,13.267,0,0,0-.278,1.662H12.21a1.989,1.989,0,0,0-.378.037L11.72,10a3.281,3.281,0,0,1,2.458-3.285.5.5,0,0,0,.306-.235A6.482,6.482,0,0,1,20.1,3.213h2.227A8.078,8.078,0,0,1,30.4,11.282v2.571a2,2,0,0,0-.281-.02Zm11.75-2.918a1.18,1.18,0,0,1-1.179,1.179h-3.51a1.287,1.287,0,0,0-1.023.5l-1.315,1.694v-.87a1.326,1.326,0,0,0-1.325-1.325H31.946a1.164,1.164,0,0,1-.554-.138v-.673a9.019,9.019,0,0,0-.625-3.308v-5.8A1.18,1.18,0,0,1,31.946,1h8.74a1.18,1.18,0,0,1,1.179,1.179Z" transform="translate(-10.22)"/>
  <path id="パス_47877" data-name="パス 47877" d="M133.1,218.836a.5.5,0,0,0,.5-.5v-.556a.5.5,0,0,0-1,0v.556A.5.5,0,0,0,133.1,218.836Z" transform="translate(-124.479 -202.855)"/>
  <path id="パス_47878" data-name="パス 47878" d="M245.181,218.836a.5.5,0,0,0,.5-.5v-.556a.5.5,0,0,0-1,0v.556A.5.5,0,0,0,245.181,218.836Z" transform="translate(-229.114 -202.855)"/>
  <path id="パス_47879" data-name="パス 47879" d="M172.677,259.438a1.816,1.816,0,0,1,1.99,0,.5.5,0,1,0,.5-.86,2.829,2.829,0,0,0-2.994,0,.5.5,0,1,0,.5.86Z" transform="translate(-161.19 -241.007)"/>
</svg>
