<svg xmlns="http://www.w3.org/2000/svg" width="34" height="34" viewBox="0 0 34 34">
  <g id="social-care" transform="translate(-0.001)">
    <g id="グループ_12416" data-name="グループ 12416" transform="translate(5.089 31.263)">
      <g id="グループ_12415" data-name="グループ 12415">
        <path id="パス_47880" data-name="パス 47880" d="M78.829,472.479l-1-1.408a.664.664,0,1,0-1.083.769l1,1.408a.664.664,0,0,0,1.083-.769Z" transform="translate(-76.624 -470.791)"/>
      </g>
    </g>
    <g id="グループ_12418" data-name="グループ 12418" transform="translate(0.001 10.389)">
      <g id="グループ_12417" data-name="グループ 12417" transform="translate(0)">
        <path id="パス_47881" data-name="パス 47881" d="M14.956,179.261l-1.088-5.186a9.78,9.78,0,0,0-4.136-6.14l-2.323-1.562a2.337,2.337,0,0,0-2.962.3v-8a2.223,2.223,0,0,0-3.614-1.734A2.212,2.212,0,0,0,0,158.675v10.3a6.432,6.432,0,0,0,1.194,3.743l1.184,1.668a.664.664,0,0,0,1.083-.769l-1.184-1.668a5.111,5.111,0,0,1-.948-2.975v-10.3a.895.895,0,1,1,1.79,0v8.169a4.64,4.64,0,0,0,1.2,3.115c.033.04.067.079.1.117l1.448,1.537.684.728.007.007,1.025,1.091a.664.664,0,1,0,.968-.909l-1.677-1.784-1.523-1.62-.011-.013a1.12,1.12,0,0,1,.022-1.469,1,1,0,0,1,1.307-.167l2.323,1.562a8.458,8.458,0,0,1,3.577,5.31l1.088,5.186a.664.664,0,1,0,1.3-.273Z" transform="translate(-0.001 -156.451)"/>
      </g>
    </g>
    <g id="グループ_12420" data-name="グループ 12420" transform="translate(3.712 29.323)">
      <g id="グループ_12419" data-name="グループ 12419">
        <path id="パス_47882" data-name="パス 47882" d="M57.093,441.86l0-.006a.664.664,0,0,0-1.081.771l0,.006a.664.664,0,0,0,1.081-.771Z" transform="translate(-55.884 -441.575)"/>
      </g>
    </g>
    <g id="グループ_12422" data-name="グループ 12422" transform="translate(19.032 10.389)">
      <g id="グループ_12421" data-name="グループ 12421">
        <path id="パス_47883" data-name="パス 47883" d="M300.717,156.943a2.223,2.223,0,0,0-3.614,1.734v8a2.337,2.337,0,0,0-2.962-.3l-2.323,1.562a9.779,9.779,0,0,0-4.136,6.14l-1.088,5.186a.664.664,0,1,0,1.3.273l1.088-5.186a8.458,8.458,0,0,1,3.577-5.31l2.323-1.562a1,1,0,0,1,1.307.167,1.121,1.121,0,0,1,.023,1.467l-.013.014-3.2,3.4a.664.664,0,1,0,.968.909c.009-.01,2.723-2.895,3.164-3.362.036-.038.07-.077.1-.117a4.64,4.64,0,0,0,1.2-3.115v-8.169a.895.895,0,1,1,1.79,0v10.3a5.111,5.111,0,0,1-.948,2.975l-5.017,7.067a.664.664,0,1,0,1.083.769l5.017-7.067a6.432,6.432,0,0,0,1.194-3.743v-10.3A2.213,2.213,0,0,0,300.717,156.943Z" transform="translate(-286.58 -156.454)"/>
      </g>
    </g>
    <g id="グループ_12424" data-name="グループ 12424" transform="translate(6.203 3.586)">
      <g id="グループ_12423" data-name="グループ 12423">
        <path id="パス_47884" data-name="パス 47884" d="M112.6,63.141l-1.181-.282v-.212a2.97,2.97,0,0,0,1.271-2.435V58.676a2.97,2.97,0,0,0-4.9-2.259,3.877,3.877,0,0,0-7.186.005A2.97,2.97,0,0,0,95.7,58.676v1.536a2.97,2.97,0,0,0,1.271,2.435v.212l-1.181.282a3.111,3.111,0,0,0-2.4,3.036v1.24a.664.664,0,0,0,.664.664h3.051c0,.081-.008.161-.008.243v2.388a.664.664,0,0,0,.664.664h3.992a.664.664,0,1,0,0-1.328h-.686V68.676a.664.664,0,0,0-1.328,0v1.372H98.426V68.324a2.75,2.75,0,0,1,2.115-2.682l1.822-.437,1.22,2.775a.664.664,0,0,0,.608.4h0a.664.664,0,0,0,.608-.4l1.218-2.77,1.817.434a2.749,2.749,0,0,1,2.117,2.683v1.722h-1.313V68.676a.664.664,0,1,0-1.328,0v1.372h-.753a.664.664,0,0,0,0,1.328h4.058a.664.664,0,0,0,.664-.664V68.326c0-.082,0-.164-.008-.245h3.06a.664.664,0,0,0,.664-.664v-1.24A3.111,3.111,0,0,0,112.6,63.141Zm-2.882-6.109a1.646,1.646,0,0,1,1.64,1.536h-.923a4.84,4.84,0,0,1-2.227-.543A1.646,1.646,0,0,1,109.717,57.032Zm-1.644,3.083c0-.032,0-.065,0-.1v-.591a6.168,6.168,0,0,0,2.359.469h.927v.316a1.644,1.644,0,1,1-3.288,0Zm-6.427-2.236h0a2.551,2.551,0,0,1,5.069-.405l-1.118-.657a.664.664,0,0,0-.845.146,2.861,2.861,0,0,1-2.2,1.026h-.908Zm-2.978-.847a1.646,1.646,0,0,1,1.509.993,4.84,4.84,0,0,1-2.227.543h-.923A1.646,1.646,0,0,1,98.668,57.032ZM97.024,59.9h.927a6.169,6.169,0,0,0,2.361-.47v.786a1.644,1.644,0,0,1-3.288,0Zm3.208,4.455a4.073,4.073,0,0,0-2.822,2.4H94.718v-.576a1.787,1.787,0,0,1,1.376-1.744l1.691-.4a.664.664,0,0,0,.51-.646V63.16a2.883,2.883,0,0,0,.742,0v.189c0,.01,0,.02,0,.03a.665.665,0,0,0,.54.653l.991.237Zm1.852-1.031a3.116,3.116,0,0,0-.532-.179l-1.186-.284v-.207a3,3,0,0,0,.576-.526,3.909,3.909,0,0,0,1.142,1.145Zm2.884.976-.777,1.767-.779-1.772v-.474a3.892,3.892,0,0,0,1.556,0Zm-.771-1.727a2.553,2.553,0,0,1-2.551-2.551v-.7h.908a4.184,4.184,0,0,0,2.822-1.09l1.369.8v1.084A2.553,2.553,0,0,1,104.2,62.569Zm2.1.753v-.045a3.908,3.908,0,0,0,1.152-1.148,3,3,0,0,0,.571.52v.207l-1.186.284A3.127,3.127,0,0,0,106.3,63.322Zm7.371,3.431h-2.7a4.072,4.072,0,0,0-2.824-2.4l-.333-.08,1-.239a.665.665,0,0,0,.543-.654c0-.005,0-.01,0-.016v-.2a2.883,2.883,0,0,0,.742,0v.223a.664.664,0,0,0,.51.646l1.691.4a1.787,1.787,0,0,1,1.376,1.744Z" transform="translate(-93.39 -54)"/>
      </g>
    </g>
    <g id="グループ_12426" data-name="グループ 12426" transform="translate(16.337 19.634)">
      <g id="グループ_12425" data-name="グループ 12425">
        <path id="パス_47885" data-name="パス 47885" d="M247.133,295.864a.664.664,0,1,0,.195.47A.669.669,0,0,0,247.133,295.864Z" transform="translate(-246 -295.67)"/>
      </g>
    </g>
    <g id="グループ_12428" data-name="グループ 12428" transform="translate(16.336)">
      <g id="グループ_12427" data-name="グループ 12427">
        <path id="パス_47886" data-name="パス 47886" d="M246.657,0a.664.664,0,0,0-.664.664v.994a.664.664,0,0,0,1.328,0V.664A.664.664,0,0,0,246.657,0Z" transform="translate(-245.993)"/>
      </g>
    </g>
    <g id="グループ_12430" data-name="グループ 12430" transform="translate(12.724 1.276)">
      <g id="グループ_12429" data-name="グループ 12429">
        <path id="パス_47887" data-name="パス 47887" d="M193.429,20.1l-.7-.7a.664.664,0,1,0-.939.94l.7.7a.664.664,0,1,0,.939-.94Z" transform="translate(-191.599 -19.213)"/>
      </g>
    </g>
    <g id="グループ_12432" data-name="グループ 12432" transform="translate(19.242 1.293)">
      <g id="グループ_12431" data-name="グループ 12431">
        <path id="パス_47888" data-name="パス 47888" d="M291.57,19.664a.664.664,0,0,0-.939,0l-.691.692a.664.664,0,1,0,.94.939l.691-.692A.664.664,0,0,0,291.57,19.664Z" transform="translate(-289.746 -19.469)"/>
      </g>
    </g>
  </g>
</svg>
