<svg xmlns="http://www.w3.org/2000/svg" xmlns:xlink="http://www.w3.org/1999/xlink" width="34" height="34" viewBox="0 0 34 34">
  <defs>
    <clipPath id="clip-path">
      <path id="path711" d="M0-682.665H34v34H0Z" transform="translate(0 682.665)"/>
    </clipPath>
  </defs>
  <g id="g705" transform="translate(0 682.665)">
    <g id="g707" transform="translate(0 -682.665)">
      <g id="g709" clip-path="url(#clip-path)">
        <g id="g715" transform="translate(22.002 11.046)">
          <path id="path717" d="M-9.5-19a.5.5,0,0,1-.5-.5.5.5,0,0,1,.5-.5.5.5,0,0,1,.5.5.5.5,0,0,1-.5.5" transform="translate(10 20)"/>
        </g>
        <g id="g719" transform="translate(23.995 11.046)">
          <path id="path721" d="M-9.5-19a.5.5,0,0,1-.5-.5.5.5,0,0,1,.5-.5.5.5,0,0,1,.5.5.5.5,0,0,1-.5.5" transform="translate(10 20)"/>
        </g>
        <g id="g723" transform="translate(20.01 11.046)">
          <path id="path725" d="M-9.5-19a.5.5,0,0,1-.5-.5.5.5,0,0,1,.5-.5.5.5,0,0,1,.5.5.5.5,0,0,1-.5.5" transform="translate(10 20)"/>
        </g>
        <g id="g727" transform="translate(11.679 0.498)">
          <path id="path729" d="M0-171.924a11,11,0,0,1,10.821-9.011,11,11,0,0,1,11,11,10.962,10.962,0,0,1-2.989,7.538,5.329,5.329,0,0,0,2.989,3.077,5.3,5.3,0,0,1-1.992.387,5.293,5.293,0,0,1-3.609-1.415,10.921,10.921,0,0,1-3.41,1.234" transform="translate(0 180.936)" fill="none" stroke="#000" stroke-linecap="round" stroke-linejoin="round" stroke-miterlimit="10" stroke-width="1"/>
        </g>
        <g id="g731" transform="translate(10.233 20.508)">
          <path id="path733" d="M0-35H1.36A1.072,1.072,0,0,1,2.432-33.93,1.072,1.072,0,0,1,1.36-32.858c-.294,0-1.36,0-1.36,0v-3.984H1.157a.917.917,0,0,1,.917.917A.917.917,0,0,1,1.157-35" transform="translate(0 36.837)" fill="none" stroke="#000" stroke-linecap="round" stroke-linejoin="round" stroke-miterlimit="10" stroke-width="1"/>
        </g>
        <g id="g735" transform="translate(5.13 20.508)">
          <path id="path737" d="M-60.015-76.016l-1.5-3.928a.09.09,0,0,0-.167,0l-1.483,3.928" transform="translate(63.161 80)" fill="none" stroke="#000" stroke-linecap="round" stroke-linejoin="round" stroke-miterlimit="10" stroke-width="1"/>
        </g>
        <g id="g739" transform="translate(5.499 23.514)">
          <path id="path741" d="M-45.863,0h-2.4" transform="translate(48.267)" fill="none" stroke="#000" stroke-linecap="round" stroke-linejoin="round" stroke-miterlimit="10" stroke-width="1"/>
        </g>
        <g id="g743" transform="translate(14.621 20.508)">
          <path id="path745" d="M-59.258-6.492a1.983,1.983,0,0,0-1.114-.34A1.992,1.992,0,0,0-62.364-4.84a1.992,1.992,0,0,0,1.992,1.992,1.6,1.6,0,0,0,1.093-.4,1.58,1.58,0,0,0,.162-.167" transform="translate(62.364 6.832)" fill="none" stroke="#000" stroke-linecap="round" stroke-linejoin="round" stroke-miterlimit="10" stroke-width="1"/>
        </g>
        <g id="g747" transform="translate(0.498 11.499)">
          <path id="path749" d="M-209.888,0a11,11,0,0,0-11,11,10.963,10.963,0,0,0,2.989,7.538,5.329,5.329,0,0,1-2.989,3.077A5.3,5.3,0,0,0-218.9,22a5.293,5.293,0,0,0,3.609-1.415,10.95,10.95,0,0,0,5.4,1.415,11,11,0,0,0,11-11A11,11,0,0,0-209.888,0Z" transform="translate(220.889 0)" fill="none" stroke="#000" stroke-linecap="round" stroke-linejoin="round" stroke-miterlimit="10" stroke-width="1"/>
        </g>
      </g>
    </g>
  </g>
</svg>
