<svg xmlns="http://www.w3.org/2000/svg" width="60.784" height="54.225" viewBox="0 0 60.784 54.225">
  <g id="shrug" transform="translate(0 0)">
    <path id="パス_26276" data-name="パス 26276" d="M225.513,201.687a1.189,1.189,0,0,0,.93,1.4l3.165.641a1.19,1.19,0,0,0,.472-2.332l-3.165-.641A1.19,1.19,0,0,0,225.513,201.687Z" transform="translate(-198.667 -180.136)" fill="#fff"/>
    <path id="パス_26277" data-name="パス 26277" d="M59.266,46.91a3.344,3.344,0,0,0-4.335.554c-1.71,1.885-3.422,3.006-4.82,3.155-2.715.29-4.444,2.337-4.773,5.633a1.2,1.2,0,0,0-.034.127l-.358,1.768a14.2,14.2,0,0,0-6.456-5.262,14.3,14.3,0,0,0,3.153-3.436,3.962,3.962,0,0,0,3.551-6.542c-.118-4.772-1.411-8.506-3.846-11.1a13.559,13.559,0,0,0-7.4-3.891,13.548,13.548,0,0,0-8.355.713c-3.27,1.461-5.923,4.43-7.889,8.826a3.961,3.961,0,0,0,.886,7.328A13.751,13.751,0,0,0,22.9,52.608a13.446,13.446,0,0,0-7.1,5.45l-.339-1.674c-.3-3.372-2.033-5.471-4.784-5.764-1.4-.15-3.111-1.27-4.82-3.155A3.362,3.362,0,0,0,0,49.72a3.326,3.326,0,0,0,.311,1.407A28.493,28.493,0,0,0,6.52,59.009L8.73,71.3a5.777,5.777,0,0,0,9.984,2.9l.4-.44v5.656a2.382,2.382,0,0,0,2.38,2.38h3.542a1.19,1.19,0,1,0,0-2.379H21.49V68.537a1.19,1.19,0,1,0-2.379,0v1.673l-2.163,2.4A3.4,3.4,0,0,1,11.075,70.9l0-.012-2.194-12.2,4.474-.713,1.205,5.947a1.189,1.189,0,1,0,2.332-.472l-.306-1.51a10.915,10.915,0,0,1,7.473-7.179,6.74,6.74,0,0,0,1.98,4.032,6.229,6.229,0,0,0,4.359,1.79,6.376,6.376,0,0,0,6.246-5.8A10.329,10.329,0,0,1,40.9,57.126a10.984,10.984,0,0,1,3.267,4.846l-.3,1.473a1.189,1.189,0,1,0,2.332.472l1.205-5.947,4.474.713-2.194,12.2,0,.012a3.4,3.4,0,0,1-5.873,1.709l-2.163-2.4V68.537a1.19,1.19,0,1,0-2.379,0V79.418H35.717a1.19,1.19,0,1,0,0,2.379h3.554a2.382,2.382,0,0,0,2.379-2.379V73.762l.4.44a5.777,5.777,0,0,0,9.984-2.9l2.206-12.27a28.487,28.487,0,0,0,6.236-7.9,3.354,3.354,0,0,0-1.207-4.218ZM7.325,56.521A25.755,25.755,0,0,1,2.47,50.128a.963.963,0,0,1-.091-.408.983.983,0,0,1,1.712-.657c1.487,1.64,3.792,3.651,6.33,3.923,1.332.142,2.177,1.031,2.525,2.641ZM26.559,30.8a11.08,11.08,0,0,1,6.912-.554,11.089,11.089,0,0,1,6.139,3.186c1.807,1.927,2.856,4.691,3.135,8.227h-.009A22.279,22.279,0,0,1,35.673,39.5a14.683,14.683,0,0,1-5.611-4.283,2.394,2.394,0,0,0-3.579-.436A8.234,8.234,0,0,1,20.5,37.121c1.627-3.128,3.66-5.252,6.06-6.324ZM20.808,43.572a1.189,1.189,0,0,0-1.181-1.049,1.577,1.577,0,0,1-.155-3.149c3.888.757,7.053-1.437,8.6-2.817a.025.025,0,0,1,.021-.006h0c2.651,3.927,9.841,7.1,14.655,7.5a1.779,1.779,0,0,1,.535.312,1.578,1.578,0,0,1-1.365,2.723,1.589,1.589,0,0,1-.332-.107,1.19,1.19,0,0,0-1.519.5c-2.4,4.214-6.885,6.464-11.157,5.6s-7.526-4.683-8.1-9.5ZM30.394,58.2a4.108,4.108,0,0,1-3.92-3.38,11.536,11.536,0,0,0,4.266.814,12.025,12.025,0,0,0,3.416-.5A3.951,3.951,0,0,1,30.394,58.2Zm27.919-8.071a25.756,25.756,0,0,1-4.858,6.4h0l-5.618-.895c.347-1.612,1.193-2.5,2.526-2.644,2.537-.271,4.843-2.283,6.33-3.923a.983.983,0,0,1,1.712.658A.962.962,0,0,1,58.314,50.129Z" transform="translate(0 -27.573)" fill="#fff"/>
    <circle id="楕円形_147" data-name="楕円形 147" cx="1.19" cy="1.19" r="1.19" transform="translate(25.464 13.647)" fill="#fff"/>
    <circle id="楕円形_148" data-name="楕円形 148" cx="1.19" cy="1.19" r="1.19" transform="translate(33.953 15.367)" fill="#fff"/>
    <circle id="楕円形_149" data-name="楕円形 149" cx="1.19" cy="1.19" r="1.19" transform="translate(29.16 51.845)" fill="#fff"/>
  </g>
</svg>
