<svg id="team" xmlns="http://www.w3.org/2000/svg" width="34" height="34" viewBox="0 0 34 34">
  <g id="グループ_12410" data-name="グループ 12410">
    <path id="パス_47866" data-name="パス 47866" d="M30.207,28.581l-.559-.224A17,17,0,0,0,31.056,7.437a.532.532,0,0,0-.085-.122,17.047,17.047,0,0,0-2.962-3.269.537.537,0,0,0-.7.818,15.986,15.986,0,0,1,2.43,2.583A23.681,23.681,0,0,1,25.72,8.564a19.179,19.179,0,0,0-1.544-3.474,12.3,12.3,0,0,0-2.786-3.4A15.833,15.833,0,0,1,25.9,3.793a.537.537,0,0,0,.6-.89A17,17,0,0,0,4.358,28.364l-.552.216a3.05,3.05,0,0,0-1.93,2.959v1.924A.537.537,0,0,0,2.413,34h7.9a.532.532,0,0,0,.076-.006.533.533,0,0,0,.076.006h2.184a.537.537,0,1,0,0-1.074H11v-1.87a2.624,2.624,0,0,1,1.612-2.562l.025-.009,2.614-1.024.017.018,1.389,1.353a.537.537,0,0,0,.375.152h.008a.536.536,0,0,0,.378-.164l1.334-1.384,2.611,1.047.025.009a2.624,2.624,0,0,1,1.616,2.563v1.87H14.329a.537.537,0,1,0,0,1.074H31.6a.54.54,0,0,0,.537-.541v-1.92A3.05,3.05,0,0,0,30.207,28.581Zm-1.624-.651-.529-.212v-.305A2.807,2.807,0,0,0,29.3,25.865a1.516,1.516,0,0,0,.839-2.688v-.954a3.622,3.622,0,0,0-3.16-3.588c.02-.364.034-.731.041-1.1h5.895A15.851,15.851,0,0,1,28.583,27.93Zm-1.938-1.209h-.49A1.722,1.722,0,0,1,24.435,25v-1.42h0a5.55,5.55,0,0,0,2.892-1.117,2.415,2.415,0,0,0,1.038.995V25A1.722,1.722,0,0,1,26.645,26.721Zm.335,1.053v.3l-.6.621-.562-.547v-.371a2.809,2.809,0,0,0,.335.021h.49A2.8,2.8,0,0,0,26.98,27.774ZM23.9,22.542h0l-.055,0-.017,0-.036.006-.024.006-.027.007-.017.006v-.35a2.547,2.547,0,0,1,2.544-2.544h.257a2.547,2.547,0,0,1,2.544,2.544v.346l-.031-.008-.015,0c-.748-.17-.993-1.169-.995-1.177a.537.537,0,0,0-.959-.2C26.1,22.527,23.928,22.542,23.9,22.542Zm5.539,2.172v-.723a.443.443,0,0,1,0,.723ZM30.373,8.35a15.9,15.9,0,0,1,2.543,8.113H27.022a27.1,27.1,0,0,0-.983-6.87A23.956,23.956,0,0,0,30.373,8.35Zm-4.425,8.113h-5.5a4.381,4.381,0,0,0-2.915-1.434V10.413a48.4,48.4,0,0,0,7.442-.626A25.954,25.954,0,0,1,25.948,16.463Zm-4.736,5.606a.691.691,0,0,1-.5.664V21.405A.691.691,0,0,1,21.212,22.069ZM17.537,1.1c2.136.228,4.146,1.813,5.709,4.523a18,18,0,0,1,1.407,3.129,47.571,47.571,0,0,1-7.116.584V1.1ZM17.2,16.089a3.32,3.32,0,0,1,3.316,3.316v.656l-.011-.008-.024-.018-.019-.013-.024-.015L20.411,20l-.023-.011-.029-.011-.02-.007-.033-.009-.015,0c-1.02-.232-1.343-1.562-1.346-1.573a.537.537,0,0,0-.959-.2c-1.257,1.738-4.034,1.756-4.071,1.756h0l-.055,0-.017,0-.036.006-.023.006-.029.007-.026.009-.024.009L13.677,20,13.659,20l-.028.017-.016.01-.025.019-.016.012-.014.013v-.669a3.32,3.32,0,0,1,3.316-3.316H17.2Zm-9.144.374a25.955,25.955,0,0,1,.97-6.677,48.454,48.454,0,0,0,7.441.627v4.622a4.383,4.383,0,0,0-2.846,1.432.55.55,0,0,0-.059,0H8.052ZM13.377,21.4v1.339a.689.689,0,0,1,0-1.339ZM16.463,1.1V9.339a47.6,47.6,0,0,1-7.115-.585,18.013,18.013,0,0,1,1.407-3.127C12.317,2.917,14.327,1.332,16.463,1.1ZM12.6,1.691a12.307,12.307,0,0,0-2.78,3.4A19.178,19.178,0,0,0,8.28,8.563,23.731,23.731,0,0,1,4.264,7.449,15.979,15.979,0,0,1,12.6,1.691ZM3.632,8.353a24.007,24.007,0,0,0,4.33,1.239,27.094,27.094,0,0,0-.984,6.871H1.084A15.826,15.826,0,0,1,3.632,8.353ZM7.091,27.774a2.809,2.809,0,0,0,.335.021h.49a2.793,2.793,0,0,0,.335-.021v.3l-.6.621-.562-.547v-.371Zm.825-1.053h-.49A1.722,1.722,0,0,1,5.706,25v-1.42A5.548,5.548,0,0,0,8.6,22.463a2.415,2.415,0,0,0,1.038.995V25A1.722,1.722,0,0,1,7.916,26.721ZM9.3,21.379a.537.537,0,0,0-.959-.2c-.973,1.345-3.142,1.359-3.168,1.359h0l-.055,0-.017,0-.036.006-.023.006-.029.007-.017.006v-.35a2.547,2.547,0,0,1,2.544-2.544h.257a2.547,2.547,0,0,1,2.544,2.544v.346h0l-.031-.009-.014,0C9.544,22.385,9.3,21.386,9.3,21.379ZM1.084,17.537H6.978c.007.37.021.739.041,1.105a3.623,3.623,0,0,0-3.1,3.58v.95a1.516,1.516,0,0,0,.851,2.693,2.806,2.806,0,0,0,1.248,1.547v.3l-.586.23A15.844,15.844,0,0,1,1.084,17.537Zm3.549,6.442v.747a.443.443,0,0,1,0-.747Zm5.3,7.078v1.87H2.95V31.539a2,2,0,0,1,1.216-1.947l.025-.009,2.025-.793,1.076,1.048a.537.537,0,0,0,.375.152h.009a.536.536,0,0,0,.378-.164l1.016-1.055,1.256.5A4.009,4.009,0,0,0,9.93,31.057Zm5.18-4.691L12.26,27.481a3.423,3.423,0,0,0-1.31.888l-1.625-.652v-.305a2.807,2.807,0,0,0,1.248-1.548,1.516,1.516,0,0,0,.839-2.688v-.954a3.622,3.622,0,0,0-3.318-3.6c-.02-.358-.035-.719-.041-1.081H12.9a4.362,4.362,0,0,0-.419,1.868v1.253a1.763,1.763,0,0,0,1.03,3.175,3.374,3.374,0,0,0,1.594,1.985v.548Zm-4.4-1.651v-.724a.443.443,0,0,1,0,.724ZM17.9,26.74v.035l-.88.913-.841-.819v-.675a3.362,3.362,0,0,0,.554.046h.612a3.376,3.376,0,0,0,.554-.046Zm-.554-1.574h-.612a2.289,2.289,0,0,1-2.286-2.286v-1.9A6.759,6.759,0,0,0,18.239,19.5a2.927,2.927,0,0,0,1.4,1.366V22.88A2.289,2.289,0,0,1,17.349,25.166Zm5.716,3.207a3.426,3.426,0,0,0-1.312-.891l-2.777-1.114v-.551a3.374,3.374,0,0,0,1.594-1.986,1.763,1.763,0,0,0,1.016-3.169V19.405a4.362,4.362,0,0,0-.419-1.868h4.78c-.007.363-.021.726-.042,1.086a3.623,3.623,0,0,0-3.258,3.6v.95a1.516,1.516,0,0,0,.851,2.693,2.807,2.807,0,0,0,1.248,1.547v.3Zm.3-4.394v.747a.443.443,0,0,1,0-.747Zm7.7,8.948h-6.98v-1.87a4.009,4.009,0,0,0-.391-1.775l1.253-.491,1.076,1.048a.537.537,0,0,0,.375.152H26.4a.536.536,0,0,0,.378-.164L27.8,28.772l2.02.81.024.009a2,2,0,0,1,1.22,1.948v1.387Z"/>
  </g>
</svg>
