<svg xmlns="http://www.w3.org/2000/svg" width="29.112" height="34" viewBox="0 0 29.112 34">
  <g id="self-confident" transform="translate(-36.801)">
    <g id="グループ_12413" data-name="グループ 12413" transform="translate(36.801 0)">
      <path id="パス_47870" data-name="パス 47870" d="M65.477,196.5v-2.643a2.805,2.805,0,0,0-2.725-2.8H61.228a2.8,2.8,0,0,0-2.82,2.743,2.766,2.766,0,0,0,1.473,2.484c.106.056.218.107.318.173h-.554a.664.664,0,0,0-.664.664v3.246a.584.584,0,0,1-.584.584H54.708c1.588-1.523,1.655-2.987,1.6-5.106a.676.676,0,0,0,.74-.672A5.27,5.27,0,0,0,54.5,190.8a.664.664,0,1,0-.7,1.126,4.035,4.035,0,0,1,1.855,2.6,2.688,2.688,0,0,1-1.582-.573.7.7,0,0,0-.814-.071,3.685,3.685,0,0,1-1.965.643H46.924a4.737,4.737,0,0,1,1.945-2.611.664.664,0,0,0-.711-1.122,5.6,5.6,0,0,0-2.648,4.4.664.664,0,0,0,.664.664h.169V197.3a4.971,4.971,0,0,0,1.6,3.655H44.161c-.23,0-.584-.48-.584-.895v-2.935a.664.664,0,0,0-.664-.664h-.492c.021-.013.318-.173.318-.173a2.8,2.8,0,0,0,.631-4.444,2.762,2.762,0,0,0-1.977-.783H39.869a2.806,2.806,0,0,0-2.725,2.8v2.684a.664.664,0,0,0-.343.581V200.8a7.108,7.108,0,0,0,5.548,6.879l1.507.327v3.353a.664.664,0,1,0,1.328,0v-3.889a.664.664,0,0,0-.523-.649l-2.03-.44a5.767,5.767,0,0,1-4.5-5.581v-3.008h4.12v2.271a2.176,2.176,0,0,0,1.912,2.223h3.48a3.791,3.791,0,0,0,7.37,0H58.4a1.914,1.914,0,0,0,1.912-1.912v-2.582h4.275v3a5.767,5.767,0,0,1-4.478,5.576l-1.543.341a.664.664,0,0,0-.521.648v4a.664.664,0,0,0,1.328,0v-3.468l1.023-.226a7.108,7.108,0,0,0,5.52-6.873v-3.664a.664.664,0,0,0-.436-.623Zm-27-.041v-2.6a1.47,1.47,0,0,1,1.415-1.472H41.41a1.448,1.448,0,0,1,.706,2.726,2.376,2.376,0,0,0-1.276,1.346Zm9.2.839v-1.451h3.617a4.761,4.761,0,0,0,2.3-.624,3.906,3.906,0,0,0,1.4.588V197.3a3.659,3.659,0,0,1-3.643,3.655h-.026A3.659,3.659,0,0,1,47.671,197.3Zm3.655,6.573a2.465,2.465,0,0,1-2.3-1.59h4.6A2.465,2.465,0,0,1,51.325,203.873Zm10.454-7.412a2.377,2.377,0,0,0-1.276-1.346,1.45,1.45,0,0,1,.718-2.726h1.511a1.47,1.47,0,0,1,1.415,1.471v2.6H61.78Z" transform="translate(-36.801 -178.021)"/>
      <path id="パス_47871" data-name="パス 47871" d="M49.35,72.1l.009,0a2.46,2.46,0,0,1,1.612,1.657,1.1,1.1,0,0,0,2.1.01A2.5,2.5,0,0,1,54.709,72.1a1.051,1.051,0,0,0,.011-1.991,2.539,2.539,0,0,1-1.651-1.7,1.1,1.1,0,0,0-2.1,0,2.511,2.511,0,0,1-1.617,1.7,1.049,1.049,0,0,0,0,1.994Zm2.671-2.721A3.805,3.805,0,0,0,53.666,71.1a3.8,3.8,0,0,0-1.642,1.71A3.785,3.785,0,0,0,50.389,71.1,3.794,3.794,0,0,0,52.02,69.379Z" transform="translate(-47.842 -63.137)"/>
      <path id="パス_47872" data-name="パス 47872" d="M313,6.786l.007,0a4.734,4.734,0,0,1,3.1,3.188,1.421,1.421,0,0,0,2.726-.046,4.742,4.742,0,0,1,3.073-3.139l.047-.015a1.33,1.33,0,0,0,.014-2.523A4.83,4.83,0,0,1,318.805,1a1.412,1.412,0,0,0-2.7,0,4.82,4.82,0,0,1-3.108,3.253,1.329,1.329,0,0,0,0,2.528Zm.406-1.265a6.093,6.093,0,0,0,3.969-4.133.084.084,0,0,1,.161,0,6.167,6.167,0,0,0,4.008,4.126,6.04,6.04,0,0,0-4,4.093.084.084,0,0,1-.161,0,6.061,6.061,0,0,0-3.971-4.082s-.007,0-.007,0Z" transform="translate(-293.796 0)"/>
      <path id="パス_47873" data-name="パス 47873" d="M245.706,179.706a.664.664,0,1,0,.272-.824A.666.666,0,0,0,245.706,179.706Z" transform="translate(-231.787 -166.917)"/>
    </g>
  </g>
</svg>
