<svg xmlns="http://www.w3.org/2000/svg" width="62.168" height="68.078" viewBox="0 0 62.168 68.078">
  <g id="children" transform="translate(-22.225)">
    <g id="グループ_11894" data-name="グループ 11894" transform="translate(22.225)">
      <g id="グループ_11893" data-name="グループ 11893" transform="translate(0)">
        <path id="パス_39185" data-name="パス 39185" d="M83.4,66.083H72.057V60.5a1,1,0,1,0-1.994,0v1.957a2.322,2.322,0,0,0-.332-.027H67.859V54.714h2.2v1.663a1,1,0,1,0,1.994,0V54.714h3.775A2.468,2.468,0,0,0,78.3,52.249V45.007l1.162,1.162a1.664,1.664,0,0,0,2.351,0l1.82-1.82a1.664,1.664,0,0,0,0-2.351l-4.491-4.517a1,1,0,0,0-1.41,1.41l1.749,1.749L78.1,42.017l-7.329-7.329a.973.973,0,0,1,1.376-1.376L74.8,35.967a1,1,0,1,0,1.41-1.41L73.56,31.9c-.034-.034-.071-.064-.106-.1a5.352,5.352,0,0,0-.435-.853h.669a2.33,2.33,0,0,0,2.327-2.327V24.439a2.984,2.984,0,0,0,.966-2.2v-.81a2.989,2.989,0,0,0-1.2-2.394,1.32,1.32,0,0,0,.234-.751V16.406A10.62,10.62,0,0,0,65.406,5.8h-.442A10.62,10.62,0,0,0,54.357,16.406v1.878a1.32,1.32,0,0,0,.234.751,2.989,2.989,0,0,0-1.2,2.394v.81a2.984,2.984,0,0,0,.966,2.2v4.186a2.33,2.33,0,0,0,2.327,2.327h.667a5.325,5.325,0,0,0-.658,1.548c-.138.234-3.849,14.58-3.849,14.58a1.664,1.664,0,0,0,1.2,2.023l1.549.4-.25,1.7a1.556,1.556,0,0,0,1.555,1.8h2.3v9.423h-.833a2.33,2.33,0,0,0-2.327,2.327v1a2.285,2.285,0,0,0,.025.332H48.081a2.284,2.284,0,0,0,.025-.332v-1a2.33,2.33,0,0,0-2.327-2.327H44.745V51.043h1.242a1.664,1.664,0,0,0,1.662-1.662V37.629a1,1,0,1,0-1.994,0v7.746H43.412c0-.06.009-.119.009-.18V26a4.367,4.367,0,0,1,2.234,3.807v3.433a1,1,0,0,0,1.994,0V29.809a6.365,6.365,0,0,0-3.42-5.637,10.033,10.033,0,0,0,4.346-8.277V6.607c0-2.677-1.067-4.551-3.171-5.57A15.984,15.984,0,0,0,38.671,0a15.984,15.984,0,0,0-6.732,1.038c-2.1,1.019-3.171,2.893-3.171,5.57v5.628a3.271,3.271,0,0,0-1,2.354v.9A3.276,3.276,0,0,0,29,18.048a10.039,10.039,0,0,0,3.259,5.469A6.372,6.372,0,0,0,27.583,26.8H24.552a2.33,2.33,0,0,0-2.327,2.327V45.2a2.33,2.33,0,0,0,2.327,2.327H29.21V66.083H23.222a1,1,0,1,0,0,1.994H83.4a1,1,0,1,0,0-1.994Zm-2.52-24.019,1.109,1.109-1.35,1.35-1.109-1.109Zm-25,5.453-1.022-.263.391-1.519.86.221Zm.654-4.456-.134.911-.672-.173.806-3.136ZM44.745,47.37h.91v1.679h-.91ZM30.762,6.607h0c0-3.449,2-4.613,7.909-4.613S46.58,3.158,46.58,6.607v4.667a5.418,5.418,0,0,1-3.246-2.706,1,1,0,0,0-.783-.539,1.008,1.008,0,0,0-.106-.006,1,1,0,0,0-.773.367A5.367,5.367,0,0,1,35.6,10.018a1,1,0,0,0-.954.133,5.367,5.367,0,0,1-3.88,1.027Zm.518,12.135a1,1,0,0,0-.23-1.967,1.288,1.288,0,0,1-1.287-1.287v-.9A1.288,1.288,0,0,1,31.05,13.3a.992.992,0,0,0,.41-.089A7.3,7.3,0,0,0,35.4,12.055a7.366,7.366,0,0,0,6.88-1.439,7.291,7.291,0,0,0,4.3,2.716v2.562a8.023,8.023,0,0,1-5.267,7.555H36.024A8,8,0,0,1,31.28,18.743Zm9.814,10.05a.337.337,0,0,1,.332.332V45.2a.326.326,0,0,1-.055.18H39.89c0-.06.009-.119.009-.18V29.126a2.3,2.3,0,0,0-.027-.332ZM40.043,26.8V25.443h1.246c.046,0,.091,0,.137,0v1.379a2.323,2.323,0,0,0-.332-.027Zm1.051,20.723a2.311,2.311,0,0,0,.821-.152h.836V62.429H39.759a2.323,2.323,0,0,0-.332.027V47.522ZM35.112,25.443V26.8H33.729V25.443Zm-3.378.248V26.8H30.025A4.375,4.375,0,0,1,31.734,25.691Zm-.2,40.392a.337.337,0,0,1-.332-.332v-1a.337.337,0,0,1,.332-.332h5.9v1.439a.993.993,0,0,0,.025.219,0,0,0,0,1,0,0H31.537ZM31.2,62.456V47.522h3.324V62.429H31.537A2.322,2.322,0,0,0,31.2,62.456Zm5.318-.027V47.522h.91V62.429h-.91ZM37.9,45.2a.337.337,0,0,1-.332.332H24.552a.337.337,0,0,1-.332-.332V35.617H37.9Zm0-11.573H24.219v-4.5a.337.337,0,0,1,.332-.332H37.572a.337.337,0,0,1,.332.332Zm.144-6.824h-.943V25.443h.943Zm8.062,38.952a.337.337,0,0,1-.332.332h-6.02a.337.337,0,0,1-.332-.332v-1a.337.337,0,0,1,.332-.332h6.02a.337.337,0,0,1,.332.332ZM76.3,43.217v9.031a.478.478,0,0,1-.471.471h-8.84v-9.5a2.467,2.467,0,0,0-.045-.471h8.885A.478.478,0,0,1,76.3,43.217ZM69.362,31.9a2.971,2.971,0,0,0,0,4.2l2.48,2.48v2.174H64.82L60.61,30.683a3.34,3.34,0,0,1,1.279-.254H62.2c.056.02.113.039.17.059v.265a2.814,2.814,0,0,0,5.629,0v-.265c.057-.019.114-.038.17-.059h.311a3.342,3.342,0,0,1,2.1.739A2.948,2.948,0,0,0,69.362,31.9Zm-3.5,22.813v7.715h-.477V54.714ZM65,43.217V47.58H63.685V43.217a.478.478,0,0,1,.471-.471h.37A.477.477,0,0,1,65,43.217Zm.188-14.256a6.874,6.874,0,0,1-6.819-6.913V19.613h8.713a1.334,1.334,0,0,0,1.144-.653l.547-.926.559.932a1.335,1.335,0,0,0,1.14.646H72v2.436A6.874,6.874,0,0,1,65.185,28.962Zm.8,1.956a.82.82,0,0,1-1.607,0c.265.024.533.038.8.038S65.724,30.942,65.988,30.918ZM62.823,41.146a2.474,2.474,0,0,0-1.005,1.294h-3.29V33.791a3.342,3.342,0,0,1,.49-1.746Zm11.2-12.521h0a.337.337,0,0,1-.332.332H70.781l-.026-.012a8.949,8.949,0,0,0,2.66-3.714h.6Zm.966-7.2v.81a1,1,0,0,1-1,1h-.07A9.035,9.035,0,0,0,74,22.048V20.433A1,1,0,0,1,74.985,21.43ZM64.964,7.793h.442a8.623,8.623,0,0,1,8.613,8.613v1.212H70.846l-1.034-1.725a1.218,1.218,0,0,0-2.095,0L66.7,17.618H56.351V16.406h0A8.623,8.623,0,0,1,64.964,7.793ZM55.385,22.24v-.81a1,1,0,0,1,.987-1v1.615a9.035,9.035,0,0,0,.081,1.189h-.07A1,1,0,0,1,55.385,22.24Zm1.3,6.718a.337.337,0,0,1-.332-.332V25.231h.6a8.949,8.949,0,0,0,2.659,3.713l-.026.012Zm.7,22.054.967-6.577H61.69v6.577Zm5.349,15.072H58.363a.337.337,0,0,1-.332-.332v-1a.337.337,0,0,1,.332-.332h4.369a2.322,2.322,0,0,0-.027.332v1A2.322,2.322,0,0,0,62.732,66.083Zm.661-3.628a2.3,2.3,0,0,0-.332-.027H61.19V53.006h.62a2.476,2.476,0,0,0,1.583,1.586Zm.292-10.207V49.575H65V52.72h-.841A.478.478,0,0,1,63.685,52.249Zm6.378,13.5a.337.337,0,0,1-.332.332h-4.7a.337.337,0,0,1-.332-.332V65.02c0-.31.039-.6.506-.6H69.73a.337.337,0,0,1,.332.332v1Z" transform="translate(-22.225)" fill="#fff"/>
      </g>
    </g>
    <g id="グループ_11896" data-name="グループ 11896" transform="translate(63.669 20.842)">
      <g id="グループ_11895" data-name="グループ 11895">
        <path id="パス_39186" data-name="パス 39186" d="M335.952,158.119h-.04v-.373a1,1,0,0,0-1.994,0v.927a1.44,1.44,0,0,0,1.436,1.441h.6a1,1,0,0,0,0-1.994Z" transform="translate(-333.917 -156.749)" fill="#fff"/>
      </g>
    </g>
    <g id="グループ_11898" data-name="グループ 11898" transform="translate(60.553 19.968)">
      <g id="グループ_11897" data-name="グループ 11897">
        <path id="パス_39187" data-name="パス 39187" d="M311.481,150.173a1,1,0,0,0-1,1V152.2a1,1,0,1,0,1.994,0V151.17A1,1,0,0,0,311.481,150.173Z" transform="translate(-310.484 -150.173)" fill="#fff"/>
      </g>
    </g>
    <g id="グループ_11900" data-name="グループ 11900" transform="translate(67.822 19.968)">
      <g id="グループ_11899" data-name="グループ 11899">
        <path id="パス_39188" data-name="パス 39188" d="M366.151,150.173a1,1,0,0,0-1,1V152.2a1,1,0,1,0,1.994,0V151.17A1,1,0,0,0,366.151,150.173Z" transform="translate(-365.154 -150.173)" fill="#fff"/>
      </g>
    </g>
    <g id="グループ_11902" data-name="グループ 11902" transform="translate(62.371 24.315)">
      <g id="グループ_11901" data-name="グループ 11901">
        <path id="パス_39189" data-name="パス 39189" d="M328.785,182.871a1,1,0,0,0-1,1,.82.82,0,1,1-1.64,0,1,1,0,0,0-1.994,0,2.814,2.814,0,1,0,5.629,0A1,1,0,0,0,328.785,182.871Z" transform="translate(-324.153 -182.871)" fill="#fff"/>
      </g>
    </g>
    <g id="グループ_11904" data-name="グループ 11904" transform="translate(39.148 14.027)">
      <g id="グループ_11903" data-name="グループ 11903">
        <path id="パス_39190" data-name="パス 39190" d="M151.618,105.491a1,1,0,0,0-1,1v.967H150.5a1,1,0,1,0,0,1.994h.646a1.475,1.475,0,0,0,1.47-1.476v-1.486A1,1,0,0,0,151.618,105.491Z" transform="translate(-149.501 -105.491)" fill="#fff"/>
      </g>
    </g>
    <g id="グループ_11906" data-name="グループ 11906" transform="translate(43.629 13.569)">
      <g id="グループ_11905" data-name="グループ 11905">
        <path id="パス_39191" data-name="パス 39191" d="M184.2,102.051a1,1,0,0,0-1,1v1.116a1,1,0,1,0,1.994,0v-1.116A1,1,0,0,0,184.2,102.051Z" transform="translate(-183.202 -102.051)" fill="#fff"/>
      </g>
    </g>
    <g id="グループ_11908" data-name="グループ 11908" transform="translate(35.786 13.569)">
      <g id="グループ_11907" data-name="グループ 11907">
        <path id="パス_39192" data-name="パス 39192" d="M125.215,102.051a1,1,0,0,0-1,1v1.116a1,1,0,1,0,1.994,0v-1.116A1,1,0,0,0,125.215,102.051Z" transform="translate(-124.218 -102.051)" fill="#fff"/>
      </g>
    </g>
    <g id="グループ_11910" data-name="グループ 11910" transform="translate(37.299 18.147)">
      <g id="グループ_11909" data-name="グループ 11909">
        <path id="パス_39193" data-name="パス 39193" d="M141.41,136.48a1,1,0,0,0-1,1,1.411,1.411,0,1,1-2.823,0,1,1,0,1,0-1.994,0,3.406,3.406,0,1,0,6.812,0A1,1,0,0,0,141.41,136.48Z" transform="translate(-135.595 -136.48)" fill="#fff"/>
      </g>
    </g>
    <g id="グループ_11912" data-name="グループ 11912" transform="translate(25.419 37.688)">
      <g id="グループ_11911" data-name="グループ 11911" transform="translate(0)">
        <path id="パス_39194" data-name="パス 39194" d="M55.205,283.441H48.573a2.33,2.33,0,0,0-2.327,2.327v1.841a2.33,2.33,0,0,0,2.327,2.327h6.632a2.33,2.33,0,0,0,2.327-2.327v-1.841A2.329,2.329,0,0,0,55.205,283.441Zm0,4.5H48.573a.337.337,0,0,1-.332-.332v-1.841a.337.337,0,0,1,.332-.332h6.632a.337.337,0,0,1,.332.332v1.841h0A.337.337,0,0,1,55.205,287.942Z" transform="translate(-46.246 -283.441)" fill="#fff"/>
      </g>
    </g>
    <g id="グループ_11914" data-name="グループ 11914" transform="translate(28.503 30.105)">
      <g id="グループ_11913" data-name="グループ 11913" transform="translate(0)">
        <path id="パス_39195" data-name="パス 39195" d="M73.378,226.411H70.441a1,1,0,0,0,0,1.994h2.937a1,1,0,1,0,0-1.994Z" transform="translate(-69.444 -226.411)" fill="#fff"/>
      </g>
    </g>
    <g id="グループ_11916" data-name="グループ 11916" transform="translate(67.419 46.699)">
      <g id="グループ_11915" data-name="グループ 11915">
        <path id="パス_39196" data-name="パス 39196" d="M368.916,351.213h-5.132a1.664,1.664,0,0,0-1.662,1.662v2.195a1.664,1.664,0,0,0,1.662,1.662h5.132a1.664,1.664,0,0,0,1.662-1.662v-2.195A1.664,1.664,0,0,0,368.916,351.213Zm-.332,3.524h-4.467v-1.53h4.467Z" transform="translate(-362.122 -351.213)" fill="#fff"/>
      </g>
    </g>
    <g id="グループ_11918" data-name="グループ 11918" transform="translate(69.328 43.909)">
      <g id="グループ_11917" data-name="グループ 11917">
        <path id="パス_39197" data-name="パス 39197" d="M380.267,330.229h-2.79a1,1,0,1,0,0,1.994h2.79a1,1,0,0,0,0-1.994Z" transform="translate(-376.48 -330.229)" fill="#fff"/>
      </g>
    </g>
  </g>
</svg>
