<svg xmlns="http://www.w3.org/2000/svg" xmlns:xlink="http://www.w3.org/1999/xlink" width="74.397" height="74.397" viewBox="0 0 74.397 74.397">
  <defs>
    <clipPath id="clip-path">
      <path id="path2481" d="M0-682.665H74.4v74.4H0Z" transform="translate(0 682.665)"/>
    </clipPath>
  </defs>
  <g id="g2475" transform="translate(0 0)">
    <g id="g2477" transform="translate(0 0)">
      <g id="g2479" clip-path="url(#clip-path)">
        <g id="g2485" transform="translate(1.09 69.231)">
          <path id="path2487" d="M0,0H72.218" fill="none" stroke="#fff" stroke-linecap="round" stroke-linejoin="round" stroke-miterlimit="10" stroke-width="2"/>
        </g>
        <g id="g2489" transform="translate(70.978 36.616)">
          <path id="path2491" d="M0,0V32.615" fill="none" stroke="#fff" stroke-linecap="round" stroke-linejoin="round" stroke-miterlimit="10" stroke-width="2"/>
        </g>
        <g id="g2493" transform="translate(3.419 36.616)">
          <path id="path2495" d="M0-266.654v-32.615" transform="translate(0 299.269)" fill="none" stroke="#fff" stroke-linecap="round" stroke-linejoin="round" stroke-miterlimit="10" stroke-width="2"/>
        </g>
        <g id="g2497" transform="translate(45.352 26.133)">
          <path id="path2499" d="M-190.467-85.71h4.659l-4.659-10.483h-23.3" transform="translate(213.764 96.193)" fill="none" stroke="#fff" stroke-linecap="round" stroke-linejoin="round" stroke-miterlimit="10" stroke-width="2"/>
        </g>
        <g id="g2501" transform="translate(1.09 17.979)">
          <path id="path2503" d="M-228.56-66.664h-23.3l-4.659,10.483h17.472l18.637-18.637L-201.77-56.18h8.154" transform="translate(256.515 74.817)" fill="none" stroke="#fff" stroke-linecap="round" stroke-linejoin="round" stroke-miterlimit="10" stroke-width="2"/>
        </g>
      </g>
    </g>
    <g id="g2505" transform="translate(37.199 5.167)">
      <path id="path2507" d="M0-104.756v-12.813" transform="translate(0 117.569)" fill="none" stroke="#fff" stroke-linecap="round" stroke-linejoin="round" stroke-miterlimit="10" stroke-width="2"/>
    </g>
    <g id="g2509" transform="translate(37.199 5.167)">
      <path id="path2511" d="M0,0H8.154V5.824H0" fill="none" stroke="#fff" stroke-linecap="round" stroke-linejoin="round" stroke-miterlimit="10" stroke-width="2"/>
    </g>
    <g id="g2513" transform="translate(0 0)">
      <g id="g2515" clip-path="url(#clip-path)">
        <g id="g2521" transform="translate(30.21 31.957)">
          <path id="path2523" d="M-114.279-57.14a6.989,6.989,0,0,1-6.989,6.989,6.989,6.989,0,0,1-6.989-6.989,6.989,6.989,0,0,1,6.989-6.989A6.989,6.989,0,0,1-114.279-57.14Z" transform="translate(128.257 64.129)" fill="none" stroke="#fff" stroke-linecap="round" stroke-linejoin="round" stroke-miterlimit="10" stroke-width="2"/>
        </g>
        <g id="g2525" transform="translate(37.199 37.781)">
          <path id="path2527" d="M0-28.57V-30.9l2.33-1.165" transform="translate(0 32.064)" fill="none" stroke="#fff" stroke-linecap="round" stroke-linejoin="round" stroke-miterlimit="10" stroke-width="2"/>
        </g>
        <g id="g2529" transform="translate(37.199 54.088)">
          <path id="path2531" d="M0,0V10.483" fill="none" stroke="#fff" stroke-linecap="round" stroke-linejoin="round" stroke-miterlimit="10" stroke-width="2"/>
        </g>
        <g id="g2533" transform="translate(27.88 64.572)">
          <path id="path2535" d="M0-38.093v-4.659H18.637v4.659" transform="translate(0 42.752)" fill="none" stroke="#fff" stroke-linecap="round" stroke-linejoin="round" stroke-miterlimit="10" stroke-width="2"/>
        </g>
        <g id="g2537" transform="translate(30.21 54.088)">
          <path id="path2539" d="M-114.279-85.71V-96.193h-13.978V-85.71" transform="translate(128.257 96.193)" fill="none" stroke="#fff" stroke-linecap="round" stroke-linejoin="round" stroke-miterlimit="10" stroke-width="2"/>
        </g>
        <g id="g2541" transform="translate(8.079 54.088)">
          <path id="path2543" d="M-57.142-57.14h9.318v-6.989H-64.131v6.989h2.33" transform="translate(64.131 64.129)" fill="none" stroke="#fff" stroke-linecap="round" stroke-linejoin="round" stroke-miterlimit="10" stroke-width="2"/>
        </g>
        <path id="path2545" d="M74.129-286.248H90.436v-6.989H74.129Z" transform="translate(-66.051 335.677)" fill="none" stroke="#fff" stroke-linecap="round" stroke-linejoin="round" stroke-miterlimit="10" stroke-width="2"/>
        <g id="g2547" transform="translate(16.232 42.44)">
          <path id="path2549" d="M0-57.14v-6.989" transform="translate(0 64.129)" fill="none" stroke="#fff" stroke-linecap="round" stroke-linejoin="round" stroke-miterlimit="10" stroke-width="2"/>
        </g>
        <g id="g2551" transform="translate(16.232 54.088)">
          <path id="path2553" d="M0-57.14v-6.989" transform="translate(0 64.129)" fill="none" stroke="#fff" stroke-linecap="round" stroke-linejoin="round" stroke-miterlimit="10" stroke-width="2"/>
        </g>
        <path id="path2555" d="M458.9-179.365h16.307v-6.989H458.9Z" transform="translate(-408.89 240.443)" fill="none" stroke="#fff" stroke-linecap="round" stroke-linejoin="round" stroke-miterlimit="10" stroke-width="2"/>
        <path id="path2557" d="M458.9-286.248h16.307v-6.989H458.9Z" transform="translate(-408.89 335.677)" fill="none" stroke="#fff" stroke-linecap="round" stroke-linejoin="round" stroke-miterlimit="10" stroke-width="2"/>
        <g id="g2559" transform="translate(58.165 42.44)">
          <path id="path2561" d="M0-57.14v-6.989" transform="translate(0 64.129)" fill="none" stroke="#fff" stroke-linecap="round" stroke-linejoin="round" stroke-miterlimit="10" stroke-width="2"/>
        </g>
        <g id="g2563" transform="translate(58.165 54.088)">
          <path id="path2565" d="M0-57.14v-6.989" transform="translate(0 64.129)" fill="none" stroke="#fff" stroke-linecap="round" stroke-linejoin="round" stroke-miterlimit="10" stroke-width="2"/>
        </g>
      </g>
    </g>
  </g>
</svg>
