<svg xmlns="http://www.w3.org/2000/svg" xmlns:xlink="http://www.w3.org/1999/xlink" width="68.078" height="68.078" viewBox="0 0 68.078 68.078">
  <defs>
    <clipPath id="clip-path">
      <path id="path3156" d="M0-682.665H68.078v68.078H0Z" transform="translate(0 682.665)"/>
    </clipPath>
  </defs>
  <g id="g3150" transform="translate(0 682.665)">
    <g id="g3152" transform="translate(0 -682.665)">
      <g id="g3154" transform="translate(0 0)" clip-path="url(#clip-path)">
        <g id="g3160" transform="translate(0.996 0.996)">
          <path id="path3162" d="M-188.263-244.507l-20.209-20.209a2.2,2.2,0,0,1,0-3.115l3.115-3.115a2.2,2.2,0,0,1,3.115,0l20.209,20.209v6.23Z" transform="translate(209.117 271.591)" fill="none" stroke="#fff" stroke-linecap="round" stroke-linejoin="round" stroke-miterlimit="10" stroke-width="2"/>
        </g>
        <g id="g3164" transform="translate(28.08 28.08)">
          <path id="path3166" d="M0,0,1.558,1.558" fill="none" stroke="#fff" stroke-linecap="round" stroke-linejoin="round" stroke-miterlimit="10" stroke-width="2"/>
        </g>
        <g id="g3168" transform="translate(4.756 4.756)">
          <path id="path3170" d="M-56.243,0l-6.23,6.23" transform="translate(62.473)" fill="none" stroke="#fff" stroke-linecap="round" stroke-linejoin="round" stroke-miterlimit="10" stroke-width="2"/>
        </g>
        <g id="g3172" transform="translate(21.85 21.85)">
          <path id="path3174" d="M-56.243,0l-6.23,6.23" transform="translate(62.473)" fill="none" stroke="#fff" stroke-linecap="round" stroke-linejoin="round" stroke-miterlimit="10" stroke-width="2"/>
        </g>
        <g id="g3176" transform="translate(7.871 7.871)">
          <path id="path3178" d="M0,0,17.094,17.094" fill="none" stroke="#fff" stroke-linecap="round" stroke-linejoin="round" stroke-miterlimit="10" stroke-width="2"/>
        </g>
        <g id="g3180" transform="translate(38.444 58.269)">
          <path id="path3182" d="M-132.161-79.54H-146.8v-4.405A4.405,4.405,0,0,1-142.4-88.35h24.229v4.405a4.405,4.405,0,0,1-4.405,4.405h-5.6" transform="translate(146.801 88.35)" fill="none" stroke="#fff" stroke-linecap="round" stroke-linejoin="round" stroke-miterlimit="10" stroke-width="2"/>
        </g>
        <g id="g3184" transform="translate(38.444 16.418)">
          <path id="path3186" d="M0-417.584v-41.851a4.405,4.405,0,0,1,4.405-4.405H24.23a4.405,4.405,0,0,1,4.405,4.405v37.445" transform="translate(0 463.84)" fill="none" stroke="#fff" stroke-linecap="round" stroke-linejoin="round" stroke-miterlimit="10" stroke-width="2"/>
        </g>
        <g id="g3188" transform="translate(38.445 62.674)">
          <path id="path3190" d="M-178.965,0h-19.824" transform="translate(198.789)" fill="none" stroke="#fff" stroke-linecap="round" stroke-linejoin="round" stroke-miterlimit="10" stroke-width="2"/>
        </g>
        <g id="g3192" transform="translate(49.458 23.026)">
          <path id="path3194" d="M0,0H6.608" fill="none" stroke="#fff" stroke-linecap="round" stroke-linejoin="round" stroke-miterlimit="10" stroke-width="2"/>
        </g>
        <g id="g3196" transform="translate(45.052 29.634)">
          <path id="path3198" d="M0,0H15.419" fill="none" stroke="#fff" stroke-linecap="round" stroke-linejoin="round" stroke-miterlimit="10" stroke-width="2"/>
        </g>
        <g id="g3200" transform="translate(45.052 34.039)">
          <path id="path3202" d="M0,0H15.419" transform="translate(0 0)" fill="none" stroke="#fff" stroke-linecap="round" stroke-linejoin="round" stroke-miterlimit="10" stroke-width="2"/>
        </g>
        <g id="g3204" transform="translate(45.052 38.444)">
          <path id="path3206" d="M0,0H15.419" fill="none" stroke="#fff" stroke-linecap="round" stroke-linejoin="round" stroke-miterlimit="10" stroke-width="2"/>
        </g>
        <g id="g3208" transform="translate(45.052 42.85)">
          <path id="path3210" d="M0,0H15.419" fill="none" stroke="#fff" stroke-linecap="round" stroke-linejoin="round" stroke-miterlimit="10" stroke-width="2"/>
        </g>
        <g id="g3212" transform="translate(47.255 47.255)">
          <path id="path3214" d="M0,0H13.216" fill="none" stroke="#fff" stroke-linecap="round" stroke-linejoin="round" stroke-miterlimit="10" stroke-width="2"/>
        </g>
        <g id="g3216" transform="translate(9.81 58.269)">
          <path id="path3218" d="M-258.5-39.769a4.405,4.405,0,0,0-4.405-4.405h-24.229v4.405a4.405,4.405,0,0,0,4.405,4.405H-258.5Z" transform="translate(287.139 44.175)" fill="none" stroke="#fff" stroke-linecap="round" stroke-linejoin="round" stroke-miterlimit="10" stroke-width="2"/>
        </g>
        <g id="g3220" transform="translate(9.81 42.642)">
          <path id="path3222" d="M0,0V15.627" fill="none" stroke="#fff" stroke-linecap="round" stroke-linejoin="round" stroke-miterlimit="10" stroke-width="2"/>
        </g>
        <g id="g3224" transform="translate(9.81 17.525)">
          <path id="path3226" d="M-13.406,0a4.395,4.395,0,0,0-1.485,3.3v17.83" transform="translate(14.891)" fill="none" stroke="#fff" stroke-linecap="round" stroke-linejoin="round" stroke-miterlimit="10" stroke-width="2"/>
        </g>
        <g id="g3228" transform="translate(22.648 16.418)">
          <path id="path3230" d="M-142.607-417.584v-41.851a4.405,4.405,0,0,0-4.405-4.405H-158.4" transform="translate(158.404 463.84)" fill="none" stroke="#fff" stroke-linecap="round" stroke-linejoin="round" stroke-miterlimit="10" stroke-width="2"/>
        </g>
        <g id="g3232" transform="translate(18.62 62.674)">
          <path id="path3234" d="M0,0H19.824" fill="none" stroke="#fff" stroke-linecap="round" stroke-linejoin="round" stroke-miterlimit="10" stroke-width="2"/>
        </g>
        <g id="g3236" transform="translate(29.637 29.634)">
          <path id="path3238" d="M-19.854,0h-2.2" transform="translate(22.053)" fill="none" stroke="#fff" stroke-linecap="round" stroke-linejoin="round" stroke-miterlimit="10" stroke-width="2"/>
        </g>
      </g>
    </g>
  </g>
</svg>
