<svg id="teacher" xmlns="http://www.w3.org/2000/svg" width="54" height="54" viewBox="0 0 54 54">
  <ellipse id="楕円形_168" data-name="楕円形 168" cx="0.5" cy="1" rx="0.5" ry="1" transform="translate(13 13)"/>
  <circle id="楕円形_169" data-name="楕円形 169" cx="1" cy="1" r="1" transform="translate(19 13)"/>
  <path id="パス_39148" data-name="パス 39148" d="M21.844,7.531a.844.844,0,0,0,.6-.247l.844-.844a.844.844,0,1,0-1.193-1.193l-.844.844a.844.844,0,0,0,.6,1.44Z" transform="translate(-3.281 -0.781)"/>
  <path id="パス_39149" data-name="パス 39149" d="M53.156,0H30.375a1.688,1.688,0,0,0-1.687,1.688V23.625a1.688,1.688,0,0,0,1.688,1.688h9.844l-.1,3.469a2.571,2.571,0,0,0-1.653.742l-1.049,1.049-4.958,3.544-2.427-5.331a4.237,4.237,0,0,0-2.4-2.219l-7.39-2.688v-1.9a7.611,7.611,0,0,0,4.023-5.1h.2a2.525,2.525,0,0,0,.87-4.9,2.516,2.516,0,0,0,.818-1.851V8.512A9.413,9.413,0,0,0,24.569,3.27,5.791,5.791,0,0,0,18.673.8L17.252.089A.844.844,0,0,0,16.875,0H15.361A8.621,8.621,0,0,0,6.75,8.612v2.357a.844.844,0,0,0,.844.844H9.281a2.531,2.531,0,0,0,0,5.063h.2a7.611,7.611,0,0,0,4.023,5.1v1.9L6.106,26.566a4.237,4.237,0,0,0-2.4,2.219L.228,36.443A2.511,2.511,0,0,0,0,37.49v8.072a2.531,2.531,0,0,0,2.531,2.531H3.976l-.591,4.962A.844.844,0,0,0,4.219,54H29.531a.844.844,0,0,0,.838-.944L29.331,44.4a3.016,3.016,0,0,0,1.905,1,3.128,3.128,0,0,0,.364.021,3.038,3.038,0,0,0,1.952-.707l8.331-6.943c.011-.009.016-.023.027-.032s.02-.011.029-.019l3.8-3.8a2.843,2.843,0,0,0,.21-3.787l-1.03-1.288a2.421,2.421,0,0,0-.222-.224l-.2-3.316h8.663a.844.844,0,0,0,0-1.687H44.391l-.467-7.66a1.725,1.725,0,0,0-3.448.057l-.21,7.6H30.375V1.688H53.156a.844.844,0,0,0,0-1.688ZM21.094,48.938H15.188a.844.844,0,0,0,0,1.688h5.906v1.688H12.656V48.094a1.687,1.687,0,0,0,1.688-1.687V42.188A1.688,1.688,0,0,0,12.656,40.5V36.385l1.5-6.049.014,0-.67,6.7a.844.844,0,0,0,.084.462l2.531,5.063a.844.844,0,0,0,1.51,0L20.161,37.5a.844.844,0,0,0,.089-.462l-.675-6.7.014,0,1.5,6.049ZM9.281,42.188h3.375v4.219H9.281Zm5.984-14.771-.851.849L12.6,26l1.109-.4A3.375,3.375,0,0,0,15.265,27.417Zm3.278,9.55L16.875,40.3l-1.668-3.335.791-7.9.877-.878.878.878Zm.793-8.7-.851-.851A3.375,3.375,0,0,0,20.042,25.6l1.109.4Zm5.133-13.081V13.5a.844.844,0,0,1,0,1.688ZM8.438,10.125V8.612a6.933,6.933,0,0,1,6.924-6.925h1.315l1.509.759a.85.85,0,0,0,.581.063,4.1,4.1,0,0,1,4.4,1.7,7.736,7.736,0,0,1,1.3,4.3v1.613a.844.844,0,0,1-.844.844H22.509L21.918,9.5a2.419,2.419,0,0,0-3.1-1.36,2.389,2.389,0,0,0-1.754-1,2.427,2.427,0,0,0-1.982.759,7.642,7.642,0,0,1-5.8,2.232Zm0,4.219a.844.844,0,0,1,.844-.844v1.688A.844.844,0,0,1,8.438,14.344Zm2.531.844v-3.5A8.914,8.914,0,0,0,16.3,9.053a.739.739,0,0,1,.614-.238.709.709,0,0,1,.536.318l.41.616a.844.844,0,0,0,1.3.13.729.729,0,0,1,1.194.246l.8,2a.844.844,0,0,0,.784.528h.844v2.531a5.906,5.906,0,1,1-11.812,0Zm5.906,7.594a7.569,7.569,0,0,0,1.688-.2v1.883a1.688,1.688,0,0,1-3.375,0V22.585A7.569,7.569,0,0,0,16.875,22.781ZM1.687,45.563V37.49a.851.851,0,0,1,.076-.349l3.48-7.658a2.541,2.541,0,0,1,1.439-1.331l4.242-1.543,1.847,2.309-1.779,7.159a.865.865,0,0,0-.024.2V40.5H6.587l1-8.337a.844.844,0,0,0-1.676-.2l-.8,6.666-.191-.287a.844.844,0,1,0-1.4.937L5.2,41.809a.844.844,0,0,0,.7.379H7.594v4.219H2.531A.844.844,0,0,1,1.687,45.563Zm3.988,2.531h5.293v4.219H5.17Zm26.8-4.674a1.343,1.343,0,0,1-1.04.31,1.363,1.363,0,0,1-.939-.541l-1.552-2.075-1.1-9.151a.844.844,0,0,0-1.676.2l2.412,20.15h-5.8V36.281a.865.865,0,0,0-.024-.2l-1.779-7.159,1.847-2.309,4.242,1.543a2.541,2.541,0,0,1,1.439,1.331l3.632,7.991a.844.844,0,1,0,1.536-.7l-.5-1.1L37.7,32.447l2.561,4.482ZM44.544,32.732l-3.016,3.016L39.021,31.36l.643-.643a.878.878,0,0,1,.711-.265.9.9,0,0,1,.667.363l.876,1.169-.327.327A.844.844,0,1,0,42.784,33.5l.844-.844a.844.844,0,0,0,.078-1.1L42.391,29.8c-.013-.017-.03-.03-.043-.046a.836.836,0,0,1,.591-.193.9.9,0,0,1,.662.342l1.03,1.288a1.156,1.156,0,0,1-.087,1.54Zm-2.3-16.665.72,11.813a2.562,2.562,0,0,0-1.12.224Z" transform="translate(0 0)"/>
  <path id="パス_39150" data-name="パス 39150" d="M59.094,4H38.844A.844.844,0,0,0,38,4.844V21.719a.844.844,0,0,0,.844.844h4.9a.844.844,0,1,0,0-1.687H39.688V5.688H59.094a.844.844,0,0,0,0-1.687Z" transform="translate(-5.938 -0.625)"/>
  <path id="パス_39151" data-name="パス 39151" d="M55.271,25.688h6.39a.844.844,0,0,0,0-1.687h-6.39a.844.844,0,0,0,0,1.688Z" transform="translate(-8.504 -3.75)"/>
  <path id="パス_39152" data-name="パス 39152" d="M42.844,9.688h13.5a.844.844,0,0,0,0-1.687h-13.5a.844.844,0,0,0,0,1.688Z" transform="translate(-6.563 -1.25)"/>
  <path id="パス_39153" data-name="パス 39153" d="M42.844,13.688h13.5a.844.844,0,0,0,0-1.687h-13.5a.844.844,0,0,0,0,1.688Z" transform="translate(-6.563 -1.875)"/>
</svg>
