<svg xmlns="http://www.w3.org/2000/svg" width="41.4" height="54" viewBox="0 0 41.4 54">
  <g id="Outline" transform="translate(-72 -16)">
    <path id="パス_39144" data-name="パス 39144" d="M77.135,43.988A6.3,6.3,0,0,0,72,50.182V66.4A3.6,3.6,0,0,0,75.6,70H81a.933.933,0,0,0,.191-.02l9.677-2.107,13.391,2.116A.827.827,0,0,0,104.4,70h5.4a3.6,3.6,0,0,0,3.6-3.6V50.182a6.3,6.3,0,0,0-5.137-6.2L99,42.253V38.6a8.981,8.981,0,0,0,2.7-6.4h0a3.6,3.6,0,0,0,0-7.2v-.9a7.27,7.27,0,0,0-.3-2.039.889.889,0,0,0,.3-.661A5.406,5.406,0,0,0,96.3,16H92.545a13.6,13.6,0,0,0-1.395.137v.005a7.108,7.108,0,0,0-3.25,1.616,3.761,3.761,0,0,0-4.2,3.753V25a3.6,3.6,0,0,0,0,7.2h0a8.98,8.98,0,0,0,2.7,6.4v3.65ZM92.7,41.2a8.963,8.963,0,0,0,4.5-1.216v2.367l-4.5,1.5-4.5-1.5V39.984A8.96,8.96,0,0,0,92.7,41.2Zm6.327,10.118.783,3.136L96.892,57.7l-1.719.107L98.76,44.039l2.295.431,2.094,5.063-3.426.686a.9.9,0,0,0-.7,1.1Zm8.286,5.182H111.6v2.642l-8.5-.533ZM84.474,59.25l2.447.153-.366,4.9-2.716-.591Zm1.787-8.632a.9.9,0,0,0-.584-.4l-3.426-.686,2.094-5.062,2.295-.431L90.226,57.8l-1.72-.108L85.59,54.454l.783-3.136A.9.9,0,0,0,86.26,50.618ZM89.638,48.4,90,48.113v1.678Zm2.162,8.28V46.673l.9-.72.9.72v10.01l-.32,1.237H92.12Zm3.6-8.57.362.289L95.4,49.791Zm.859-1.619-1.7-1.364,2.256-.751Zm-7.117,0-.551-2.115,2.256.751Zm-11.675-.737,4.768-.893-2.065,4.991a.9.9,0,0,0,.655,1.227L84.4,51.8l-.671,2.684a.9.9,0,0,0,.2.82l2.013,2.236-2-.125L81.9,56.394V53.8H80.1v1.694l-1.4-.7a.9.9,0,0,0-.4-.095H73.8V50.182A4.5,4.5,0,0,1,77.466,45.757ZM73.8,56.5h4.287l4.63,2.315-.664,4.641-4.526-.647A.883.883,0,0,0,77.4,62.8H73.8Zm7.1,11.7H75.6a1.8,1.8,0,0,1-1.8-1.8V64.6h3.536l9.083,1.514-.017.223a.9.9,0,0,0,.193.623Zm30.7-1.8a1.8,1.8,0,0,1-1.8,1.8h-5.33L88.255,65.64l.46-6.125L111.6,60.946Zm0-16.218V54.7h-4.5a.9.9,0,0,0-.4.1l-1.4.7V53.8h-1.8v2.594l-2.039,1.019-2,.124,2.012-2.235a.9.9,0,0,0,.2-.82L101,51.8l3.574-.715a.9.9,0,0,0,.655-1.227l-2.066-4.991,4.767.892A4.5,4.5,0,0,1,111.6,50.182ZM99.6,22.3a5.425,5.425,0,0,1,.3,1.8v.818A21.75,21.75,0,0,1,98.536,22.3Zm3.9,6.3a1.8,1.8,0,0,1-1.8,1.8V26.8A1.8,1.8,0,0,1,103.5,28.6Zm-5.927-8.1,1.446-1.446.017.022L98,20.137l1.039-1.053a3.579,3.579,0,0,1,.744,1.416Zm-.058-2.487L95.027,20.5H92.773l2.16-2.7H96.3a3.578,3.578,0,0,1,1.214.213ZM92.627,17.8l-2.16,2.7H89.1V19.091A5.284,5.284,0,0,1,92.544,17.8ZM85.5,21.511a2,2,0,0,1,1.8-1.989v1.694a35.276,35.276,0,0,1-1.8,3.574ZM81.9,28.6a1.809,1.809,0,0,1,1.8-1.8v3.6a1.8,1.8,0,0,1-1.8-1.8Zm3.6,3.6V28.014A29.39,29.39,0,0,0,88.79,22.3h7.78A22.905,22.905,0,0,0,99.9,28v4.2a7.2,7.2,0,1,1-14.4,0Z"/>
    <path id="パス_39145" data-name="パス 39145" d="M209.35,106.7a1.35,1.35,0,1,0-1.35-1.35A1.35,1.35,0,0,0,209.35,106.7Z" transform="translate(-120.7 -78.1)"/>
    <path id="パス_39146" data-name="パス 39146" d="M281.35,106.7a1.35,1.35,0,1,0-1.35-1.35A1.35,1.35,0,0,0,281.35,106.7Z" transform="translate(-184.6 -78.1)"/>
    <path id="パス_39147" data-name="パス 39147" d="M232,155.671h1.675a8.409,8.409,0,0,0,4.178-1.023l-.907-1.554a6.7,6.7,0,0,1-3.271.777H232Z" transform="translate(-142 -121.671)"/>
    <rect id="長方形_5936" data-name="長方形 5936" width="2" height="2" transform="translate(91 63)"/>
    <rect id="長方形_5937" data-name="長方形 5937" width="2" height="2" transform="translate(94 63)"/>
  </g>
</svg>
