<svg id="bus" xmlns="http://www.w3.org/2000/svg" width="89.912" height="54" viewBox="0 0 89.912 54">
  <path id="パス_39198" data-name="パス 39198" d="M88.42,33.187V24.07A4.8,4.8,0,0,0,84.332,19.3L74.371,17.75V8.341A8.351,8.351,0,0,0,66.029,0H10.1A8.351,8.351,0,0,0,1.756,8.341V33.08A2.637,2.637,0,0,0,0,35.561v6.585A2.637,2.637,0,0,0,2.634,44.78h7.724a10.534,10.534,0,0,0,20.9,0h32.4a10.533,10.533,0,0,0,20.9,0h2.719a2.637,2.637,0,0,0,2.634-2.634V35.561A2.64,2.64,0,0,0,88.42,33.187ZM5.268,42.146H2.634l0-6.585H5.268Zm15.541,9.22a7.9,7.9,0,1,1,7.9-7.9A7.912,7.912,0,0,1,20.81,51.366ZM58.3,42.146h-4.39V24.585H58.3Zm0-20.2h-4.39V10.537H58.3Zm-7.024,0h-4.39V10.537h4.39Zm-4.39,2.634h4.39V42.146h-4.39Zm27.22,26.78a7.9,7.9,0,1,1,7.9-7.9A7.912,7.912,0,0,1,74.107,51.366Zm13.171-9.22H84.559a10.534,10.534,0,0,0-20.9,0H60.937V9.22A1.317,1.317,0,0,0,59.62,7.9H45.571A1.317,1.317,0,0,0,44.254,9.22V42.146H31.261a10.534,10.534,0,0,0-20.9,0H7.9v-7.9a1.317,1.317,0,0,0-1.317-1.317H4.39V10.537h6.5V21.951H8.341a1.317,1.317,0,1,0,0,2.634H40.3a1.317,1.317,0,0,0,1.317-1.317V9.22A1.317,1.317,0,0,0,40.3,7.9H4.409A5.713,5.713,0,0,1,10.1,2.634H66.029A5.713,5.713,0,0,1,71.718,7.9h-6.83A1.319,1.319,0,0,0,63.571,9.22v9.659A1.319,1.319,0,0,0,64.888,20.2h2.9a1.317,1.317,0,0,0,0-2.634H66.2V10.537h5.532v8.341a1.32,1.32,0,0,0,1.115,1.3L83.927,21.9a2.184,2.184,0,0,1,1.858,2.169v8.857H85a1.317,1.317,0,0,0,0,2.634h2.283ZM24.937,10.537V21.951H13.522V10.537Zm14.049,0V21.951H27.571V10.537Zm0,0"/>
  <path id="パス_39199" data-name="パス 39199" d="M97.3,220.555a1.322,1.322,0,0,0-.971,1.591s0,0,0,0a2.726,2.726,0,0,1,.072.62,2.634,2.634,0,1,1-2.634-2.634,1.317,1.317,0,0,0,0-2.634h0a5.264,5.264,0,1,0,5.121,4.027A1.315,1.315,0,0,0,97.3,220.555Zm0,0" transform="translate(-72.959 -179.305)"/>
  <path id="パス_39200" data-name="パス 39200" d="M400.8,220.555a1.322,1.322,0,0,0-.971,1.591s0,0,0,0a2.7,2.7,0,0,1,.072.62,2.634,2.634,0,1,1-2.634-2.634,1.317,1.317,0,0,0,0-2.634h0a5.264,5.264,0,1,0,5.121,4.027A1.314,1.314,0,0,0,400.8,220.555Zm0,0" transform="translate(-323.161 -179.305)"/>
</svg>
