<svg id="school" xmlns="http://www.w3.org/2000/svg" width="46" height="46" viewBox="0 0 46 46">
  <g id="グループ_8015" data-name="グループ 8015" transform="translate(26.845 12.069)">
    <g id="グループ_8014" data-name="グループ 8014">
      <path id="パス_26113" data-name="パス 26113" d="M311.889,134.333h-13.1l8.041,9.583h11.114v-2Z" transform="translate(-298.794 -134.333)"/>
    </g>
  </g>
  <g id="グループ_8017" data-name="グループ 8017" transform="translate(0 12.069)">
    <g id="グループ_8016" data-name="グループ 8016">
      <path id="パス_26114" data-name="パス 26114" d="M6.06,134.333,0,141.917v2H11.114l8.041-9.583Z" transform="translate(0 -134.333)"/>
    </g>
  </g>
  <g id="グループ_8019" data-name="グループ 8019">
    <g id="グループ_8018" data-name="グループ 8018">
      <path id="パス_26115" data-name="パス 26115" d="M43.514,43.3V24.348H33.629L24.348,13.286v-5.8h7.783V0H21.652V13.286L12.371,24.348H2.486V43.3H0V46H46V43.3ZM7.218,28.75h2.7v3.833h-2.7Zm2.764,11.5h-2.7V36.417h2.7ZM23,18.777A4.223,4.223,0,1,1,18.777,23,4.227,4.227,0,0,1,23,18.777ZM30.1,43.3H27.4V33.931H24.348V43.3h-2.7V33.931H18.6V43.3H15.9V31.236H30.1Zm8.616-3.055h-2.7V36.417h2.7Zm.069-7.667h-2.7V28.75h2.7Z"/>
    </g>
  </g>
  <g id="グループ_8021" data-name="グループ 8021" transform="translate(21.473 21.473)">
    <g id="グループ_8020" data-name="グループ 8020">
      <path id="パス_26116" data-name="パス 26116" d="M240.527,239a1.527,1.527,0,1,0,1.527,1.527A1.529,1.529,0,0,0,240.527,239Z" transform="translate(-239 -239)"/>
    </g>
  </g>
</svg>
