<svg xmlns="http://www.w3.org/2000/svg" width="60.439" height="54" viewBox="0 0 60.439 54">
  <g id="map" transform="translate(0 -27.272)">
    <g id="グループ_11821" data-name="グループ 11821" transform="translate(0 27.272)">
      <g id="グループ_11820" data-name="グループ 11820" transform="translate(0)">
        <path id="パス_39164" data-name="パス 39164" d="M60.426,80.227,56.885,60.7a.887.887,0,1,0-1.746.316l1.5,8.255L45.094,55.867l7.763-1.733,1.15.64.5,2.752a.887.887,0,0,0,1.746-.316l-.574-3.165a.887.887,0,0,0-.441-.617L53.425,52.42h0L47.7,49.234h0l-4.416-2.458h0a.879.879,0,0,0-.1-.049l-.034-.011c-.025-.009-.05-.017-.075-.024l-.044-.009c-.023,0-.046-.009-.069-.012l-.047,0c-.022,0-.045,0-.067,0l-.048,0-.066.006-.048.008-.064.015-.047.014-.061.023-.047.021-.02.009L40.416,47.82a17.25,17.25,0,0,0,2.269-8.139,12.409,12.409,0,1,0-24.818,0A17.3,17.3,0,0,0,20.181,47.9L18,46.764l-.021-.009-.045-.02-.062-.024-.047-.014-.064-.015-.048-.008-.065-.006-.049,0-.065,0-.049,0c-.022,0-.044.007-.066.011l-.046.009c-.024.006-.048.014-.072.022l-.037.012a.893.893,0,0,0-.1.049h0L5.2,53.428a.886.886,0,0,0-.441.617L1.4,72.605a.887.887,0,0,0,1.746.316l1.01-5.568,11.481-6.069L14.71,73.206,2.061,78.886l.445-2.455A.887.887,0,1,0,.76,76.114L.014,80.227a.887.887,0,0,0,1.236.967l14.3-6.422,14.3,6.42h0l0,0,.025.01.04.015.039.013.025.007.033.009.056.011.027,0,.018,0a.871.871,0,0,0,.089.006h.017a.885.885,0,0,0,.107-.008h.013l.02,0a.842.842,0,0,0,.083-.018l.023-.005h0l.007,0a.881.881,0,0,0,.1-.038l14.3-6.422,14.3,6.422.042.016.042.016c.019.006.038.011.056.016l.035.009c.023,0,.046.008.069.011l.025,0a.876.876,0,0,0,.095.005h0a.9.9,0,0,0,.129-.011l.03,0a.868.868,0,0,0,.126-.032l.008,0a.827.827,0,0,0,.081-.033l.022-.013c.022-.011.044-.024.065-.037s.043-.026.063-.041l.022-.014c.016-.012.029-.026.044-.039l.035-.031a.846.846,0,0,0,.074-.084l.014-.016a.886.886,0,0,0,.07-.113c.006-.011.01-.023.016-.034a.912.912,0,0,0,.037-.088c.005-.015.01-.03.014-.046s.015-.056.02-.084.006-.033.008-.049a.906.906,0,0,0,.006-.091c0-.015,0-.029,0-.044A.824.824,0,0,0,60.426,80.227ZM44.833,49.667l-.909.213-.058-.751ZM42.9,59.61l-3.7-2.893a.887.887,0,0,0-.9-.114l-7.182,3.126v-.972a41.668,41.668,0,0,0,3.217-2.947l8-3.516Zm-.825-10.652.113,1.463-5,2.2q.745-.923,1.389-1.836Zm-23.705,0,3.677,1.917q.817,1.149,1.791,2.313c.568.679,1.135,1.309,1.68,1.887L17.977,54ZM15.8,59.192,4.555,65.134,5.1,62.115l.014-.078,10.9-5.747Zm.387-4.992L5.519,59.82l.915-5.046,10.141-5.645L16.32,52.42Zm.3,19.046.84-10.845L27.805,78.329Zm12.847-3.419-5.465-8.612,5.465.654Zm0-9.745-7.11-.851a.887.887,0,0,0-.854,1.356l7.964,12.551v4.284L17.55,59.514l.29-3.745,9.787,1.4c.738.685,1.337,1.194,1.705,1.5v1.416Zm.944-2.941c-2.24-1.889-10.635-9.5-10.635-17.46a10.635,10.635,0,1,1,21.27,0C40.912,47.639,32.517,55.252,30.277,57.141Zm.83,21.874V75.077l2.652,2.747Zm4.372-1.963-4.372-4.529V61.665l7.41-3.225,4.566,3.565.871,11.241ZM44.062,51.67l3.076-.719,2.181,1.214,1.207.672-6.265,1.4ZM45.73,73.206l-.693-8.942,11.4,13.748ZM44.8,61.2l-.241-3.113-.01-.132L57.261,72.72l.815,4.494Z" transform="translate(0 -27.272)"/>
      </g>
    </g>
    <g id="グループ_11823" data-name="グループ 11823" transform="translate(24.794 34.199)">
      <g id="グループ_11822" data-name="グループ 11822" transform="translate(0 0)">
        <path id="パス_39165" data-name="パス 39165" d="M215.525,85.95a.887.887,0,0,0,0,1.774,3.708,3.708,0,1,1-2.645,1.109.887.887,0,1,0-1.266-1.243,5.483,5.483,0,1,0,3.911-1.64Z" transform="translate(-210.042 -85.95)"/>
      </g>
    </g>
  </g>
</svg>
