<svg xmlns="http://www.w3.org/2000/svg" width="57" height="71" viewBox="0 0 57 71">
  <g id="グループ_11826" data-name="グループ 11826" transform="translate(-1315 -6482.372)">
    <rect id="長方形_5625" data-name="長方形 5625" width="57" height="57" rx="28.5" transform="translate(1315 6482.372)" fill="#fff"/>
    <g id="グループ_11825" data-name="グループ 11825" transform="translate(1315 6486.04)">
      <g id="レイヤー_1" data-name="レイヤー 1" transform="translate(0)">
        <path id="パス_25982" data-name="パス 25982" d="M34.293,208.851a1.836,1.836,0,0,1-.843.192c-.039,0-.089,0-.089-.019-.046-.192-.416-2.267-.506-2.51-.013-.025-.025-.039-.032-.039s-.032.039-.032.039a14.538,14.538,0,0,0-.563,2.2,1.508,1.508,0,0,1-.775.192.169.169,0,0,1-.089-.019,17.406,17.406,0,0,1-.883-4.3.986.986,0,0,1,.647-.169.625.625,0,0,1,.153.019,15.073,15.073,0,0,0,.467,3.011s.013.046.032.046.019-.013.032-.046c0,0,.526-2.023.641-2.153a1.947,1.947,0,0,1,.647-.089,1.034,1.034,0,0,1,.256.039c.025.025.435,2.063.506,2.409,0,0,.032.135.083,0a9.823,9.823,0,0,0,.442-2.594c0-.1-.206-.2-.359-.217a.168.168,0,0,1,0-.057.851.851,0,0,1,.078-.337,5.249,5.249,0,0,1,1.167-.153.582.582,0,0,1,.1.019A17.307,17.307,0,0,1,34.293,208.851Z" transform="translate(-25.343 -169.705)" fill="#f6a631"/>
        <path id="パス_25983" data-name="パス 25983" d="M62.121,208.674a.38.38,0,0,1-.391-.435.47.47,0,0,1,.455-.43.389.389,0,0,1,.4.43A.472.472,0,0,1,62.121,208.674Zm.4.4c0,.032-.019.775-.019,1.364a5.87,5.87,0,0,0,.019.661,1.045,1.045,0,0,0,.169.506,1.106,1.106,0,0,1-.711.346c-.025,0-.153-.169-.192-.563,0-.083-.013-.3-.013-.558,0-.659.019-1.633.046-1.686a.888.888,0,0,1,.519-.115s.152.008.184.047Z" transform="translate(-51.325 -172.623)" fill="#40c1c9"/>
        <path id="パス_25984" data-name="パス 25984" d="M70.134,214.2a1.281,1.281,0,0,1,.032-.43.983.983,0,0,1,.583-.179c.057,0,.135.013.135.032,0,.051-.019.211-.019.337s0,.128.019.128.019-.013.019-.013a1.089,1.089,0,0,1,.787-.415c.8,0,.819,1.05.819,2.146,0,.423-.019.748-.019.748a1.021,1.021,0,0,1-.544.14.693.693,0,0,1-.211-.032,10.016,10.016,0,0,0,.064-1.1c0-.622-.025-1.108-.378-1.108-.416,0-.531.455-.531.455v.814a4.739,4.739,0,0,1-.025.711,1.168,1.168,0,0,1-.659.169c-.051,0-.1,0-.1-.019a7.225,7.225,0,0,0,.044-.947C70.152,215.133,70.134,214.575,70.134,214.2Z" transform="translate(-58.292 -177.429)" fill="#40c1c9"/>
        <path id="パス_25985" data-name="パス 25985" d="M88.714,216.31v-.025l-.019.019a.954.954,0,0,1-.843.416,1.029,1.029,0,0,1-.942-1.1,1.715,1.715,0,0,1,1.908-1.768s.224,0,.224.032a1.517,1.517,0,0,1,.019.236v.1h.056a.738.738,0,0,1,.276.039v.814c0,.6.013,1.338.013,1.517,0,1.762-1.224,2.063-1.716,2.063a1.1,1.1,0,0,1-.238-.674h.121C87.906,217.982,88.714,217.849,88.714,216.31Zm-.147-1.8a.867.867,0,0,0-.89.929.459.459,0,0,0,.448.494.6.6,0,0,0,.551-.469c0-.1,0-.78.025-.936,0-.017-.137-.017-.137-.017Z" transform="translate(-72.26 -177.646)" fill="#40c1c9"/>
        <path id="パス_25986" data-name="パス 25986" d="M104.659,216.489a.7.7,0,0,1-.249-.57v-.044c.737,0,1.025-.327,1.025-.531,0-.371-1.025-.57-1.025-1.121s.8-1.043,1.517-1.043c.071,0,.27.263.275.538-.1,0-.89.135-.89.474s1,.506,1.011,1.18C106.338,216.112,105.16,216.489,104.659,216.489Z" transform="translate(-86.81 -177.089)" fill="#40c1c9"/>
        <path id="パス_25987" data-name="パス 25987" d="M128.452,209.52a1.686,1.686,0,0,0-.032-.416.013.013,0,0,0-.013-.013l-.019.013a1.424,1.424,0,0,1-.986.378c-1.165,0-1.672-.858-1.672-1.928a2.319,2.319,0,0,1,2.466-2.562,2.492,2.492,0,0,1,.627.089c.013.013.013.051.013.1a1.756,1.756,0,0,1-.1.615,1.608,1.608,0,0,0-.674-.1c-.872,0-1.487.583-1.487,1.787,0,.718.282,1.242.922,1.242a.9.9,0,0,0,.89-.551v-.206a1.323,1.323,0,0,0-.039-.43,2.192,2.192,0,0,0-.6-.057,3.462,3.462,0,0,0-.391.019c-.025,0-.025-.046-.025-.051a1.113,1.113,0,0,1,.206-.6,7.359,7.359,0,0,1,1.517-.089,1.825,1.825,0,0,1,.366.032,2,2,0,0,1-.217.737s0,1.723-.044,1.794a1,1,0,0,1-.588.224C128.51,209.543,128.452,209.543,128.452,209.52Z" transform="translate(-104.536 -170.279)" fill="#40c1c9"/>
        <path id="パス_25988" data-name="パス 25988" d="M151.031,207.989c0,.243,0,.442.013.544a1.035,1.035,0,0,0,.185.506,1.106,1.106,0,0,1-.711.346c-.025,0-.169-.169-.2-.563v-.674c0-.654.025-1.3.025-2.318,0-.647-.025-.807-.025-.878s.371-.231.6-.231a.456.456,0,0,1,.169.025c-.013.1-.032,1.18-.032,1.665S151.031,207.38,151.031,207.989Z" transform="translate(-124.981 -170.055)" fill="#40c1c9"/>
        <path id="パス_25989" data-name="パス 25989" d="M158,215.3a1.59,1.59,0,0,1,1.645-1.6,1.258,1.258,0,0,1,.346.051.216.216,0,0,1,.013.089,1.747,1.747,0,0,1-.019.231,1.061,1.061,0,0,1,.73,1.128,1.393,1.393,0,0,1-1.37,1.5A1.283,1.283,0,0,1,158,215.3Zm1.492-.647h-.051a.221.221,0,0,1-.013-.083,1.035,1.035,0,0,1,.019-.185.8.8,0,0,0-.718.9c0,.064,0,.769.615.769.3,0,.634-.224.634-.794S159.626,214.649,159.492,214.649Z" transform="translate(-131.366 -177.516)" fill="#40c1c9"/>
        <path id="パス_25990" data-name="パス 25990" d="M177.15,209.559a10.346,10.346,0,0,0,.044-1.359c0-.769-.013-1.7-.013-2.36a4.54,4.54,0,0,1,.032-.833,1,1,0,0,1,.59-.217.4.4,0,0,1,.16.025c-.014.071-.064,1.313-.051,1.551h.1c.384,0,1.608.089,1.608,1.349,0,.858-.819,1.4-1.7,1.537a1.458,1.458,0,0,1,0,.169,1.2,1.2,0,0,1-.674.169C177.2,209.579,177.15,209.579,177.15,209.559Zm1.716-1.9a.617.617,0,0,0-.674-.641c-.115,0-.295.019-.295.019v.462a9.873,9.873,0,0,0,.025,1.038.871.871,0,0,0,.946-.878Z" transform="translate(-147.288 -170.113)" fill="#40c1c9"/>
        <path id="パス_25991" data-name="パス 25991" d="M196.4,215.668a.757.757,0,0,0,.217.506,1.023,1.023,0,0,1-.711.352c-.025,0-.169-.147-.206-.494v-.013l-.019.013a1.428,1.428,0,0,1-.814.27.813.813,0,0,1-.929-.843c0-1.121,1.48-1.268,1.608-1.268a.022.022,0,0,0,.013,0c0-.185-.238-.314-.794-.314a3.987,3.987,0,0,0-.48.008h0a1.247,1.247,0,0,1,.224-.583,1.4,1.4,0,0,1,.448-.046c.974,0,1.423.366,1.423,1.14v.332C196.383,215.053,196.383,215.533,196.4,215.668Zm-.73-.77a.567.567,0,0,0,0-.142c-.231,0-.941.115-.941.577,0,.169.11.314.4.314a.506.506,0,0,0,.551-.506Z" transform="translate(-161.248 -177.151)" fill="#40c1c9"/>
        <path id="パス_25992" data-name="パス 25992" d="M213.051,207.989c0,.243,0,.442.013.544a1.035,1.035,0,0,0,.185.506,1.106,1.106,0,0,1-.711.346c-.025,0-.169-.169-.2-.563v-.674c0-.654.025-1.3.025-2.318,0-.647-.025-.807-.025-.878s.371-.231.6-.231a.456.456,0,0,1,.169.025c-.013.1-.032,1.18-.032,1.665S213.051,207.38,213.051,207.989Z" transform="translate(-176.546 -170.055)" fill="#40c1c9"/>
        <path id="パス_25993" data-name="パス 25993" d="M229.937,207.347a8.344,8.344,0,0,0-.843.019v.526c0,.641.039,1.18.051,1.288,0,.051-.238.169-.558.169a.642.642,0,0,1-.236-.032,7.666,7.666,0,0,1-.039-1.18v-.755a1.3,1.3,0,0,1-.3-.652,2.316,2.316,0,0,1,.314-.019c0-.455,0-.843,0-1.043v-.135a1.621,1.621,0,0,1-.169-.609.049.049,0,0,1,0-.032h.135a1.409,1.409,0,0,1,.843.217c0,.064-.046.833-.046,1.46v.128h.851a3.018,3.018,0,0,1,.474.013c0-.78.051-1.588.051-1.613a1.109,1.109,0,0,1,.674-.217c.025,0,.083,0,.083.025,0,0-.071.942-.071,2.023,0,1.256.039,2,.346,2.306,0,.013-.013.025-.019.032a1.468,1.468,0,0,1-.755.224.231.231,0,0,1-.078-.013c-.147-.147-.211-.378-.224-2.107A2.792,2.792,0,0,0,229.937,207.347Z" transform="translate(-189.575 -170.187)" fill="#f6a631"/>
        <path id="パス_25994" data-name="パス 25994" d="M251.49,215.3a1.59,1.59,0,0,1,1.645-1.6,1.258,1.258,0,0,1,.346.051.215.215,0,0,1,.013.089,1.744,1.744,0,0,1-.019.231,1.061,1.061,0,0,1,.73,1.128,1.393,1.393,0,0,1-1.37,1.5A1.283,1.283,0,0,1,251.49,215.3Zm1.492-.647h-.057a.223.223,0,0,1-.014-.083,1.04,1.04,0,0,1,.019-.185.8.8,0,0,0-.718.9c0,.064,0,.769.615.769.3,0,.634-.224.634-.794S253.117,214.649,252.982,214.649Z" transform="translate(-209.097 -177.516)" fill="#40c1c9"/>
        <path id="パス_25995" data-name="パス 25995" d="M272.816,215.239a2.445,2.445,0,0,1-.025.506.961.961,0,0,1-.538.128.625.625,0,0,1-.206-.032,7.883,7.883,0,0,0,.057-.974c0-.519-.014-.812-.288-.812-.337,0-.506.442-.506.519v.813a4.147,4.147,0,0,1-.025.659,1.041,1.041,0,0,1-.674.153c-.025,0-.051,0-.051-.019a7.06,7.06,0,0,0,.044-.941c0-.519-.019-1.108-.019-1.505a1.558,1.558,0,0,1,.032-.442.935.935,0,0,1,.558-.192c.057,0,.135.013.135.025,0,.071-.025.423-.025.544,0,0,0,.032.013.032s.013,0,.025-.013a1.151,1.151,0,0,1,.691-.378.649.649,0,0,1,.627.371,1.02,1.02,0,0,1,.807-.506c.8,0,.819,1.14.819,2.235,0,.423-.025.748-.025.748a1.022,1.022,0,0,1-.551.128.625.625,0,0,1-.206-.032,10.489,10.489,0,0,0,.071-1.128c0-.654-.025-1.114-.391-1.114a.459.459,0,0,0-.384.282A6.044,6.044,0,0,1,272.816,215.239Z" transform="translate(-224.952 -177.022)" fill="#40c1c9"/>
        <path id="パス_25996" data-name="パス 25996" d="M295.31,215.485a1.488,1.488,0,0,1,1.551-1.595.718.718,0,0,1,.807.7,1.69,1.69,0,0,1-1.3,1.409c0,.039.135.169.467.169A1.549,1.549,0,0,0,297.6,216a.022.022,0,0,1,.013,0c.013,0,.019.084.019.121a1.037,1.037,0,0,1-.169.577,1.648,1.648,0,0,1-.843.147A1.246,1.246,0,0,1,295.31,215.485Zm1.409-1.011c-.346,0-.661.41-.661.915,0,.071,0,.089.025.089a1.009,1.009,0,0,0,.833-.819.18.18,0,0,0-.2-.192Z" transform="translate(-245.53 -177.679)" fill="#40c1c9"/>
        <path id="パス_25997" data-name="パス 25997" d="M74.653,249.73l.543,1.475h-.317l-.115-.337h-.546l-.116.337H73.79l.573-1.475Zm.035.919-.121-.352q-.022-.062-.039-.116c-.01-.035-.022-.073-.032-.11h-.01q-.03.115-.071.228l-.123.351Z" transform="translate(-61.352 -207.477)" fill="#40c1c9"/>
        <path id="パス_25998" data-name="パス 25998" d="M83.847,249.7v-.158a.384.384,0,0,1,.094-.28.373.373,0,0,1,.278-.1.682.682,0,0,1,.1,0,.569.569,0,0,1,.083.017v.239l-.059-.013H84.28a.131.131,0,0,0-.11.04.169.169,0,0,0-.032.11v.138h.224v.246h-.221v.789h-.3v-.786H83.7V249.7Z" transform="translate(-69.591 -207.003)" fill="#40c1c9"/>
        <path id="パス_25999" data-name="パス 25999" d="M89.22,250.677v-.337h.293v.337h.244v.246h-.244v.4a.18.18,0,0,0,.03.121.133.133,0,0,0,.1.032h.064a.364.364,0,0,0,.062-.013v.238a.72.72,0,0,1-.1.02.761.761,0,0,1-.1,0,.448.448,0,0,1-.169-.025.263.263,0,0,1-.108-.074.288.288,0,0,1-.059-.118.629.629,0,0,1-.017-.153v-.43H89.09v-.246Z" transform="translate(-74.073 -207.984)" fill="#40c1c9"/>
        <path id="パス_26000" data-name="パス 26000" d="M95.841,252.167a.487.487,0,0,1,.169.12.506.506,0,0,1,.1.169.625.625,0,0,1,.035.207v.037a.211.211,0,0,1,0,.04h-.779a.243.243,0,0,0,.022.1.3.3,0,0,0,.057.084.268.268,0,0,0,.084.059.255.255,0,0,0,.1.022.241.241,0,0,0,.121-.029.261.261,0,0,0,.086-.079h.283a.632.632,0,0,1-.067.125.453.453,0,0,1-.1.1.476.476,0,0,1-.142.071.6.6,0,0,1-.182.025.583.583,0,0,1-.217-.04.505.505,0,0,1-.169-.115.536.536,0,0,1-.116-.177.6.6,0,0,1-.042-.231.619.619,0,0,1,.035-.211.506.506,0,0,1,.1-.169.489.489,0,0,1,.169-.118.557.557,0,0,1,.226-.044A.544.544,0,0,1,95.841,252.167Zm-.325.177a.229.229,0,0,0-.074.049.241.241,0,0,0-.049.071.258.258,0,0,0-.022.083h.484a.259.259,0,0,0-.074-.155.224.224,0,0,0-.169-.066A.246.246,0,0,0,95.516,252.344Z" transform="translate(-79.061 -209.464)" fill="#40c1c9"/>
        <path id="パス_26001" data-name="パス 26001" d="M104.469,252.466h-.078a.241.241,0,0,0-.194.078.327.327,0,0,0-.066.217v.506h-.292V252.23h.285v.16h0a.43.43,0,0,1,.121-.133.3.3,0,0,1,.182-.057.428.428,0,0,1,.094.008v.273Z" transform="translate(-86.336 -209.53)" fill="#40c1c9"/>
        <path id="パス_26002" data-name="パス 26002" d="M110.427,252.354a.116.116,0,0,0-.083-.03.1.1,0,0,0-.079.029.088.088,0,0,0-.027.062.1.1,0,0,0,0,.04.1.1,0,0,0,.03.037.318.318,0,0,0,.064.037.961.961,0,0,0,.106.04.491.491,0,0,1,.231.137.3.3,0,0,1,.067.194.32.32,0,0,1-.027.132.312.312,0,0,1-.078.106.354.354,0,0,1-.125.071.536.536,0,0,1-.169.025.408.408,0,0,1-.295-.094.357.357,0,0,1-.1-.246h.261a.169.169,0,0,0,.039.1.135.135,0,0,0,.106.039.116.116,0,0,0,.088-.032.108.108,0,0,0,.032-.078.113.113,0,0,0-.044-.091.535.535,0,0,0-.169-.076.541.541,0,0,1-.223-.123.271.271,0,0,1-.074-.2.293.293,0,0,1,.027-.126.273.273,0,0,1,.078-.1.377.377,0,0,1,.118-.062.483.483,0,0,1,.152-.022.374.374,0,0,1,.266.089.363.363,0,0,1,.111.224h-.253A.127.127,0,0,0,110.427,252.354Z" transform="translate(-91.408 -209.469)" fill="#40c1c9"/>
        <path id="パス_26003" data-name="パス 26003" d="M117.62,252.2a.48.48,0,0,1,.147.089.454.454,0,0,1,.1.121.479.479,0,0,1,.049.132h-.29a.18.18,0,0,0-.071-.1.249.249,0,0,0-.315.049.337.337,0,0,0-.067.221.4.4,0,0,0,.017.12.3.3,0,0,0,.051.1.236.236,0,0,0,.083.066.252.252,0,0,0,.111.024.2.2,0,0,0,.135-.044.249.249,0,0,0,.071-.1h.3a.635.635,0,0,1-.062.152.467.467,0,0,1-.1.125.492.492,0,0,1-.147.084.547.547,0,0,1-.192.032.6.6,0,0,1-.216-.039.506.506,0,0,1-.169-.113.535.535,0,0,1-.118-.169.586.586,0,0,1-.044-.231.6.6,0,0,1,.037-.212.506.506,0,0,1,.283-.293.586.586,0,0,1,.231-.044.527.527,0,0,1,.189.029Z" transform="translate(-97.178 -209.505)" fill="#40c1c9"/>
        <path id="パス_26004" data-name="パス 26004" d="M125.845,249.25v.651h.008a.319.319,0,0,1,.135-.125.4.4,0,0,1,.169-.037.422.422,0,0,1,.158.029.337.337,0,0,1,.125.088.411.411,0,0,1,.081.148.674.674,0,0,1,.029.209v.6h-.292v-.578a.256.256,0,0,0-.052-.169.18.18,0,0,0-.143-.059.207.207,0,0,0-.158.066.28.28,0,0,0-.062.2v.548h-.292v-1.558Z" transform="translate(-104.387 -207.078)" fill="#40c1c9"/>
        <path id="パス_26005" data-name="パス 26005" d="M133.9,252.5a.525.525,0,0,1,.116-.169.533.533,0,0,1,.169-.115.575.575,0,0,1,.219-.04.582.582,0,0,1,.224.042.521.521,0,0,1,.169.116.53.53,0,0,1,.113.169.576.576,0,0,1,.04.219.562.562,0,0,1-.04.216.545.545,0,0,1-.506.337.56.56,0,0,1-.221-.044.54.54,0,0,1-.169-.118.548.548,0,0,1-.116-.169.594.594,0,0,1,0-.44Zm.271.337a.269.269,0,0,0,.056.093.258.258,0,0,0,.083.061.24.24,0,0,0,.1.022.231.231,0,0,0,.189-.084.32.32,0,0,0,.069-.209.363.363,0,0,0-.017-.113.288.288,0,0,0-.049-.093.236.236,0,0,0-.081-.064.246.246,0,0,0-.11-.024.234.234,0,0,0-.192.083.322.322,0,0,0-.067.211.347.347,0,0,0,.017.121Z" transform="translate(-111.295 -209.514)" fill="#40c1c9"/>
        <path id="パス_26006" data-name="パス 26006" d="M142.513,252.5a.525.525,0,0,1,.116-.169.533.533,0,0,1,.169-.115.616.616,0,0,1,.443,0,.521.521,0,0,1,.169.116.529.529,0,0,1,.113.169.579.579,0,0,1,.04.219.565.565,0,0,1-.04.216.545.545,0,0,1-.506.337.56.56,0,0,1-.221-.044.539.539,0,0,1-.169-.118.548.548,0,0,1-.116-.169.593.593,0,0,1,0-.44Zm.271.337a.273.273,0,0,0,.056.093.26.26,0,0,0,.083.061.242.242,0,0,0,.1.022.231.231,0,0,0,.189-.084.32.32,0,0,0,.069-.209.363.363,0,0,0-.017-.113.29.29,0,0,0-.051-.093.236.236,0,0,0-.081-.064.246.246,0,0,0-.11-.024.234.234,0,0,0-.192.083.322.322,0,0,0-.067.211.347.347,0,0,0,.019.121Z" transform="translate(-118.454 -209.514)" fill="#40c1c9"/>
        <path id="パス_26007" data-name="パス 26007" d="M151.792,249.25v1.558H151.5V249.25Z" transform="translate(-125.962 -207.078)" fill="#40c1c9"/>
        <path id="パス_26008" data-name="パス 26008" d="M161.451,250.228v.017a.732.732,0,0,1-.04.243.646.646,0,0,1-.108.2.318.318,0,0,0,.079.067.15.15,0,0,0,.072.02h.064V251l-.049.01a.4.4,0,0,1-.064,0,.317.317,0,0,1-.152-.034.487.487,0,0,1-.13-.11.7.7,0,0,1-.074.051.723.723,0,0,1-.094.047.633.633,0,0,1-.113.035.674.674,0,0,1-.337-.022.428.428,0,0,1-.15-.093.361.361,0,0,1-.088-.135.462.462,0,0,1-.029-.169.4.4,0,0,1,.081-.253.71.71,0,0,1,.229-.182,1.134,1.134,0,0,1-.091-.169.441.441,0,0,1-.039-.184.357.357,0,0,1,.024-.128.31.31,0,0,1,.074-.113.375.375,0,0,1,.13-.081.582.582,0,0,1,.351,0,.385.385,0,0,1,.128.067.307.307,0,0,1,.115.246.337.337,0,0,1-.084.234.8.8,0,0,1-.246.18l.224.29a.453.453,0,0,0,.042-.11.583.583,0,0,0,.013-.137v-.02Zm-.588.529a.359.359,0,0,0,.1-.062l-.288-.366a.413.413,0,0,0-.123.118.241.241,0,0,0-.039.131.21.21,0,0,0,.015.079.194.194,0,0,0,.044.066.215.215,0,0,0,.067.046.222.222,0,0,0,.089.017A.324.324,0,0,0,160.863,250.758Zm-.148-.843a.487.487,0,0,0,.064.108.525.525,0,0,0,.148-.1.179.179,0,0,0,.051-.128.131.131,0,0,0-.035-.086.14.14,0,0,0-.111-.04.149.149,0,0,0-.062.012.13.13,0,0,0-.044.032.119.119,0,0,0-.025.042.138.138,0,0,0,0,.044.307.307,0,0,0,.013.126Z" transform="translate(-133.228 -207.244)" fill="#40c1c9"/>
        <path id="パス_26009" data-name="パス 26009" d="M175.036,250.6l-.046.047v.536h-.31V249.71h.31v.565l.536-.565h.388l-.62.639.693.843h-.393l-.506-.632Z" transform="translate(-145.235 -207.461)" fill="#40c1c9"/>
        <path id="パス_26010" data-name="パス 26010" d="M184.487,249.4v.28h-.307v-.28Zm-.008.5v1.037h-.292V249.9Z" transform="translate(-153.133 -207.203)" fill="#40c1c9"/>
        <path id="パス_26011" data-name="パス 26011" d="M189.1,252.181v.13h.008a.318.318,0,0,1,.135-.125.4.4,0,0,1,.169-.037.374.374,0,0,1,.285.118.506.506,0,0,1,.11.356v.6h-.3v-.575a.261.261,0,0,0-.052-.169.179.179,0,0,0-.143-.059.206.206,0,0,0-.158.067.281.281,0,0,0-.062.2v.548H188.8v-1.037Z" transform="translate(-156.975 -209.488)" fill="#40c1c9"/>
        <path id="パス_26012" data-name="パス 26012" d="M198,250.839v-.113h0a.494.494,0,0,1-.135.1.419.419,0,0,1-.206.047.446.446,0,0,1-.31-.131.541.541,0,0,1-.115-.169.633.633,0,0,1-.046-.253.61.61,0,0,1,.04-.224.55.55,0,0,1,.108-.169.474.474,0,0,1,.157-.113.455.455,0,0,1,.187-.04.371.371,0,0,1,.19.044.41.41,0,0,1,.123.11H198v-.641h.285v1.558Zm-.506-.406a.286.286,0,0,0,.051.1.256.256,0,0,0,.083.067.249.249,0,0,0,.116.025.229.229,0,0,0,.1-.022.251.251,0,0,0,.083-.062.315.315,0,0,0,.057-.094.325.325,0,0,0,.022-.12.384.384,0,0,0-.02-.125.286.286,0,0,0-.054-.1.251.251,0,0,0-.083-.062.233.233,0,0,0-.1-.022.248.248,0,0,0-.118.027.258.258,0,0,0-.084.071.3.3,0,0,0-.051.1.383.383,0,0,0,0,.221Z" transform="translate(-163.949 -207.111)" fill="#40c1c9"/>
        <path id="パス_26013" data-name="パス 26013" d="M207.013,252.167a.487.487,0,0,1,.169.12.507.507,0,0,1,.1.169.626.626,0,0,1,.035.207v.037a.208.208,0,0,1,0,.04h-.77a.243.243,0,0,0,.022.1.3.3,0,0,0,.057.084.268.268,0,0,0,.084.059.255.255,0,0,0,.1.022.241.241,0,0,0,.121-.029.261.261,0,0,0,.086-.079h.283a.63.63,0,0,1-.067.125.453.453,0,0,1-.1.1.477.477,0,0,1-.142.071.6.6,0,0,1-.182.025.582.582,0,0,1-.217-.04.505.505,0,0,1-.169-.115.536.536,0,0,1-.116-.177.6.6,0,0,1-.042-.231.619.619,0,0,1,.035-.211.506.506,0,0,1,.1-.169.489.489,0,0,1,.169-.118.557.557,0,0,1,.226-.044A.544.544,0,0,1,207.013,252.167Zm-.325.177a.229.229,0,0,0-.074.049.241.241,0,0,0-.049.071.258.258,0,0,0-.022.083h.484a.26.26,0,0,0-.074-.155.224.224,0,0,0-.169-.066A.246.246,0,0,0,206.688,252.344Z" transform="translate(-171.499 -209.464)" fill="#40c1c9"/>
        <path id="パス_26014" data-name="パス 26014" d="M215.624,252.466h-.078a.241.241,0,0,0-.194.078.327.327,0,0,0-.066.217v.506H215V252.23h.285v.16h0a.43.43,0,0,1,.121-.133.3.3,0,0,1,.182-.057.428.428,0,0,1,.094.008v.273Z" transform="translate(-178.758 -209.53)" fill="#40c1c9"/>
        <path id="パス_26015" data-name="パス 26015" d="M222,253.683a.539.539,0,0,1-.421.15.546.546,0,0,1-.354-.11.469.469,0,0,1-.169-.305h.292a.234.234,0,0,0,.074.126.253.253,0,0,0,.169.051.244.244,0,0,0,.2-.079.351.351,0,0,0,.067-.231v-.131h0a.446.446,0,0,1-.132.106.413.413,0,0,1-.2.044.479.479,0,0,1-.191-.037.449.449,0,0,1-.155-.11.536.536,0,0,1-.1-.169.623.623,0,0,1-.039-.226.614.614,0,0,1,.037-.217.525.525,0,0,1,.1-.169.506.506,0,0,1,.158-.115.474.474,0,0,1,.2-.042.409.409,0,0,1,.11.014.387.387,0,0,1,.089.037.339.339,0,0,1,.067.051.4.4,0,0,1,.047.056h.01v-.125h.273v1.011A.637.637,0,0,1,222,253.683Zm-.654-.826a.271.271,0,0,0,.047.093.25.25,0,0,0,.083.067.254.254,0,0,0,.12.025.249.249,0,0,0,.108-.017.258.258,0,0,0,.084-.059.276.276,0,0,0,.056-.091.325.325,0,0,0,.02-.118.338.338,0,0,0-.02-.121.3.3,0,0,0-.056-.093.231.231,0,0,0-.083-.059.262.262,0,0,0-.1-.02.246.246,0,0,0-.2.091.292.292,0,0,0-.051.094.337.337,0,0,0-.017.108.38.38,0,0,0,.008.1Z" transform="translate(-183.779 -209.547)" fill="#40c1c9"/>
        <path id="パス_26016" data-name="パス 26016" d="M230.855,253.267v-.13h-.008a.452.452,0,0,1-.13.116.4.4,0,0,1-.207.049.452.452,0,0,1-.158-.032.443.443,0,0,1-.152-.1.528.528,0,0,1-.115-.169.632.632,0,0,1-.046-.253.61.61,0,0,1,.04-.226.53.53,0,0,1,.108-.169.467.467,0,0,1,.157-.11.474.474,0,0,1,.189-.037.381.381,0,0,1,.2.051.337.337,0,0,1,.067.052.484.484,0,0,1,.051.059h.008v-.135h.282v1.037Zm-.506-.406a.3.3,0,0,0,.049.1.233.233,0,0,0,.083.067.263.263,0,0,0,.12.025.23.23,0,0,0,.1-.022.261.261,0,0,0,.083-.061.3.3,0,0,0,.057-.094.325.325,0,0,0,.022-.12.375.375,0,0,0-.02-.123.274.274,0,0,0-.054-.094.243.243,0,0,0-.184-.083.242.242,0,0,0-.2.093.289.289,0,0,0-.051.094.37.37,0,0,0-.017.11A.382.382,0,0,0,230.349,252.86Z" transform="translate(-191.262 -209.539)" fill="#40c1c9"/>
        <path id="パス_26017" data-name="パス 26017" d="M240.069,252.466h-.078a.241.241,0,0,0-.194.078.327.327,0,0,0-.066.217v.506h-.292V252.23h.285v.16h0a.43.43,0,0,1,.121-.133.3.3,0,0,1,.182-.057.428.428,0,0,1,.094.008v.273Z" transform="translate(-199.078 -209.53)" fill="#40c1c9"/>
        <path id="パス_26018" data-name="パス 26018" d="M245.368,250.677v-.337h.3v.337h.244v.246h-.244v.4a.18.18,0,0,0,.03.121.133.133,0,0,0,.1.032h.064a.359.359,0,0,0,.062-.013v.238a.721.721,0,0,1-.1.02.761.761,0,0,1-.1,0,.448.448,0,0,1-.169-.025.261.261,0,0,1-.108-.074.288.288,0,0,1-.059-.118.637.637,0,0,1-.017-.153v-.43h-.125v-.246Z" transform="translate(-203.9 -207.984)" fill="#40c1c9"/>
        <path id="パス_26019" data-name="パス 26019" d="M252.023,252.167a.489.489,0,0,1,.169.12.505.505,0,0,1,.1.169.626.626,0,0,1,.035.207v.037a.208.208,0,0,1,0,.04h-.77a.243.243,0,0,0,.022.1.3.3,0,0,0,.057.084.27.27,0,0,0,.084.059.255.255,0,0,0,.1.022.241.241,0,0,0,.121-.029.263.263,0,0,0,.086-.079h.283a.625.625,0,0,1-.067.125.454.454,0,0,1-.1.1.477.477,0,0,1-.142.071.6.6,0,0,1-.182.025.583.583,0,0,1-.217-.04.506.506,0,0,1-.169-.115.537.537,0,0,1-.116-.177.6.6,0,0,1-.042-.231.615.615,0,0,1,.035-.211.505.505,0,0,1,.1-.169.487.487,0,0,1,.169-.118.557.557,0,0,1,.226-.044.544.544,0,0,1,.209.047Zm-.325.177a.231.231,0,0,0-.074.049.241.241,0,0,0-.049.071.261.261,0,0,0-.022.083h.484a.26.26,0,0,0-.074-.155.224.224,0,0,0-.169-.066A.246.246,0,0,0,251.7,252.344Z" transform="translate(-208.922 -209.464)" fill="#40c1c9"/>
        <path id="パス_26020" data-name="パス 26020" d="M260.285,252.181v.13h.008a.319.319,0,0,1,.135-.125.4.4,0,0,1,.169-.037.374.374,0,0,1,.285.118.506.506,0,0,1,.11.356v.6H260.7v-.575a.261.261,0,0,0-.052-.169.179.179,0,0,0-.143-.059.206.206,0,0,0-.158.067.281.281,0,0,0-.062.2v.548H260v-1.037Z" transform="translate(-216.172 -209.488)" fill="#40c1c9"/>
        <path id="パス_26021" data-name="パス 26021" d="M138.147,129.763a.423.423,0,0,0-.152-.354.337.337,0,0,0-.312-.128h-.194a1.561,1.561,0,0,0-.212,0,1.085,1.085,0,0,0-.206.025c-.029,0-.061.013-.115.02a.8.8,0,0,0-.169.042.3.3,0,0,1-.111.02.084.084,0,0,1-.061-.017.468.468,0,0,0-.223-.067.7.7,0,0,0-.2.01.533.533,0,0,1-.115,0,.66.66,0,0,1-.12-.013.872.872,0,0,0-.19-.017.575.575,0,0,0-.217.039.285.285,0,0,1-.1.02.694.694,0,0,0-.2.039.449.449,0,0,1-.1.024c-.013.008-.039-.01-.062-.022a.307.307,0,0,0-.379.049.31.31,0,0,0-.039.369.188.188,0,0,1,.022.067,1.422,1.422,0,0,1-.012.169l-.01.094a.906.906,0,0,0,0,.184.417.417,0,0,1,0,.126.8.8,0,0,0-.01.184.219.219,0,0,1-.017.111c0,.022,0,.022-.04.04a.472.472,0,0,0-.182.169.581.581,0,0,0-.081.216.265.265,0,0,1-.034.1.531.531,0,0,1-.066.1.794.794,0,0,0-.108.169.62.62,0,0,0-.062.2.258.258,0,0,1-.03.1.441.441,0,0,1-.066.1.8.8,0,0,0-.106.169.308.308,0,0,1-.069.1.956.956,0,0,0-.108.128.351.351,0,0,1-.084.093,1.056,1.056,0,0,0-.115.106c-.044.046-.069.076-.091.1a1,1,0,0,1-.113.113.443.443,0,0,0-.138.216c-.012.035-.012.035-.03.051a.765.765,0,0,1-.1.062.783.783,0,0,0-.169.121.258.258,0,0,1-.086.052.531.531,0,0,0-.2.14q-.045.047-.084.1a.249.249,0,0,1-.1.081.771.771,0,0,0-.143.1.143.143,0,0,1-.088.046.115.115,0,0,1-.072,0,.4.4,0,0,0-.29.013,1.42,1.42,0,0,0-.282.143l-.034.02a.457.457,0,0,0-.169.189l-.034.035a.135.135,0,0,1-.091,0,.659.659,0,0,0-.2,0,.553.553,0,0,0-.212.071.145.145,0,0,1-.084.025.1.1,0,0,1-.072-.02.506.506,0,0,0-.228-.069.532.532,0,0,1-.115-.019.777.777,0,0,0-.217-.027.442.442,0,0,0-.255.079.135.135,0,0,1-.074.029l-.093.01a.541.541,0,0,1-.19,0,.086.086,0,0,1-.066-.03.557.557,0,0,0-.184-.113.783.783,0,0,1-.116-.054.937.937,0,0,0-.184-.081.751.751,0,0,0-.2-.04.486.486,0,0,1-.115-.02l-.074-.02a1.176,1.176,0,0,1-.2-.071.621.621,0,0,0-.2-.049.169.169,0,0,1-.089-.029l-.143-.079-.131-.072-.271-.157a.113.113,0,0,1-.054-.056.568.568,0,0,0-.185-.189,1.992,1.992,0,0,1-.207-.16c-.062-.052-.089-.078-.12-.1l-.113-.1a.734.734,0,0,1-.093-.1,1.045,1.045,0,0,0-.128-.133.506.506,0,0,0-.2-.111c-.032-.01-.032-.01-.049-.034a.083.083,0,0,1-.022-.066.531.531,0,0,0-.046-.214.855.855,0,0,0-.1-.169.548.548,0,0,1-.061-.11.711.711,0,0,1-.042-.121,1.012,1.012,0,0,0-.059-.169.558.558,0,0,0-.128-.189.227.227,0,0,1-.057-.079.907.907,0,0,1-.049-.12,1.046,1.046,0,0,0-.078-.18c-.032-.059-.054-.094-.072-.125a.713.713,0,0,1-.069-.137.786.786,0,0,0-.091-.169.327.327,0,0,1-.056-.126,1.359,1.359,0,0,1-.054-.27.872.872,0,0,1,0-.184v-.089a.287.287,0,0,1,.037-.056.3.3,0,0,0,.024-.4.362.362,0,0,0-.349-.123.324.324,0,0,1-.091,0,.554.554,0,0,0-.224,0,.349.349,0,0,1-.1.008h-.086a1.853,1.853,0,0,0-.234,0,.4.4,0,0,1-.118,0,.928.928,0,0,0-.169-.019.428.428,0,0,0-.248.071c-.03.017-.03.017-.049.017s-.012,0-.04-.027a.373.373,0,0,0-.273-.116h0a.373.373,0,0,0-.273.115c-.027.025-.027.025-.04.025a.458.458,0,0,1-.116,0,.766.766,0,0,0-.189,0,.158.158,0,0,1-.076-.012.491.491,0,0,0-.224-.032h-.069a.366.366,0,0,0-.31.145.351.351,0,0,0-.116.32v.067a1.18,1.18,0,0,0-.019.175c0,.027.01.059.015.111a1.193,1.193,0,0,1,0,.121,1.063,1.063,0,0,0,.02.2.741.741,0,0,0,.057.185.324.324,0,0,1,.03.1c.01.066.017.1.022.138s.013.078.024.169a.59.59,0,0,0,.062.217.431.431,0,0,1,.035.1.177.177,0,0,1,0,.084.457.457,0,0,0,.03.253.982.982,0,0,1,.052.157.539.539,0,0,0,.03.116.575.575,0,0,0,.093.192.147.147,0,0,1,.034.079.947.947,0,0,0,.061.229l.034.093a1.059,1.059,0,0,0,.1.229l.039.071a.157.157,0,0,1,.022.081.494.494,0,0,0,.064.226.926.926,0,0,0,.1.155.659.659,0,0,1,.069.1.278.278,0,0,1,.034.094.576.576,0,0,0,.084.209.568.568,0,0,0,.153.169.269.269,0,0,1,.071.071.727.727,0,0,0,.135.147.4.4,0,0,1,.078.083.528.528,0,0,1,.061.1.843.843,0,0,0,.1.169,1.18,1.18,0,0,0,.155.187l.062.064a1.055,1.055,0,0,1,.074.084.9.9,0,0,0,.169.155.555.555,0,0,0,.192.1.128.128,0,0,1,.071.042c.013.013.013.013.017.049a.443.443,0,0,0,.093.241,1.337,1.337,0,0,0,.238.256.812.812,0,0,0,.2.138,1.057,1.057,0,0,1,.093.052,1.425,1.425,0,0,0,.152.081,1.1,1.1,0,0,1,.121.066.709.709,0,0,1,.1.074,1.035,1.035,0,0,0,.145.1.466.466,0,0,0,.231.072.094.094,0,0,1,.064.02c.024.017.025.02.04.054a.455.455,0,0,0,.15.2.619.619,0,0,0,.2.11.5.5,0,0,1,.1.044.588.588,0,0,0,.212.079.455.455,0,0,1,.1.029.143.143,0,0,1,.066.047.486.486,0,0,0,.2.135.9.9,0,0,0,.182.052.676.676,0,0,1,.12.034c.051.019.083.032.11.044a1.218,1.218,0,0,0,.2.067.533.533,0,0,0,.233.017.251.251,0,0,1,.094,0,.243.243,0,0,1,.1.035.662.662,0,0,0,.184.076l.11.027a1.8,1.8,0,0,1,.179.051.185.185,0,0,1,.076.044.469.469,0,0,0,.229.111.494.494,0,0,0,.248,0,.237.237,0,0,1,.093-.01.337.337,0,0,1,.11.024.759.759,0,0,0,.187.044h.076a.553.553,0,0,0,.143-.019.19.19,0,0,1,.091,0,1.061,1.061,0,0,0,.239.015h.094a.988.988,0,0,0,.212-.019c.027,0,.059-.012.113-.017l.12-.01a1.314,1.314,0,0,0,.2-.027.841.841,0,0,0,.187-.057.674.674,0,0,1,.115-.037.186.186,0,0,1,.093,0,.6.6,0,0,0,.206,0,.506.506,0,0,0,.216-.083.109.109,0,0,1,.069-.025.128.128,0,0,1,.074.015.435.435,0,0,0,.256.035,2.549,2.549,0,0,0,.327-.034.447.447,0,0,0,.228-.123.177.177,0,0,1,.069-.046.367.367,0,0,1,.089-.047.558.558,0,0,0,.223-.076,1.032,1.032,0,0,0,.143-.094.505.505,0,0,1,.11-.067,1.348,1.348,0,0,1,.153-.066l.121-.046c.061-.025.094-.035.125-.047s.083-.029.169-.064a.4.4,0,0,1,.11-.032.75.75,0,0,0,.194-.061.446.446,0,0,0,.2-.169.123.123,0,0,1,.054-.051.177.177,0,0,1,.083-.024.486.486,0,0,0,.231-.076.57.57,0,0,0,.169-.152.311.311,0,0,1,.073-.072,2.147,2.147,0,0,0,.206-.169l.044-.039a.537.537,0,0,1,.1-.071.886.886,0,0,0,.153-.111,1.147,1.147,0,0,0,.126-.128.738.738,0,0,1,.088-.073,1.684,1.684,0,0,0,.233-.233.248.248,0,0,1,.072-.059.506.506,0,0,0,.18-.169.645.645,0,0,0,.088-.185.264.264,0,0,1,.046-.093.706.706,0,0,0,.093-.169.32.32,0,0,1,.054-.094c.062-.079.083-.11.113-.153l.069-.1c.059-.081.079-.113.106-.157l.067-.1c.012-.019.012-.019.046-.032a.442.442,0,0,0,.293-.4c0-.037,0-.037.015-.052a.112.112,0,0,1,.056-.032.389.389,0,0,0,.229-.169.475.475,0,0,0,.078-.241.219.219,0,0,1,.019-.088.393.393,0,0,1,.056-.1.712.712,0,0,0,.1-.169.494.494,0,0,0,.039-.234.152.152,0,0,1,.012-.083,1.023,1.023,0,0,1,.054-.118,1.153,1.153,0,0,0,.074-.169.113.113,0,0,1,.042-.059.453.453,0,0,0,.14-.211c.015-.046.027-.076.037-.1a1.182,1.182,0,0,0,.062-.219.435.435,0,0,0-.024-.266.133.133,0,0,1-.013-.076,1.284,1.284,0,0,0,0-.169.7.7,0,0,1,.008-.137.4.4,0,0,1,.032-.118.887.887,0,0,0,.054-.169,1.316,1.316,0,0,0,.034-.241v-.086a.2.2,0,0,1,.025-.088.47.47,0,0,0,.054-.253Zm-.858,2.244a1.328,1.328,0,0,0-.069.153.483.483,0,0,0-.035.153h-.012l-.145.081c0-.013-.013-.027-.022-.042a.179.179,0,0,0-.108-.086.182.182,0,0,0-.093,0c.206-.126.376-.234.516-.329A.557.557,0,0,1,137.289,132.006Zm.445-2a.527.527,0,0,0-.022.115v.091a1.06,1.06,0,0,1-.027.19.54.54,0,0,1-.035.111.456.456,0,0,0-.157.019.18.18,0,0,0-.249-.071l-.13.076-.067.039-.48.278.224-.153a6.7,6.7,0,0,0,.944-.693Zm-2.712.5a.769.769,0,0,0,.008-.084.179.179,0,0,0,.083.056h.012l-.111.1A.41.41,0,0,1,135.022,130.5Zm-.6,1.286a.259.259,0,0,1,.03-.1.436.436,0,0,1,.066-.1.956.956,0,0,0,.086-.126h0a.169.169,0,0,0,.034.1.18.18,0,0,0,.113.088h.01l-.379.266a.721.721,0,0,0,.04-.128Zm3.162-2.146a.289.289,0,0,0,.121-.012.242.242,0,0,1,.029.027l.049.054a.384.384,0,0,1,0,.064v.049a.125.125,0,0,1-.019.081v.019a.214.214,0,0,0-.032-.074.217.217,0,0,0-.125-.094.191.191,0,0,0-.11,0,.226.226,0,0,0-.035-.088.169.169,0,0,0-.035-.04h.027Zm-1.148.032a.457.457,0,0,0,.249.062.638.638,0,0,0,.214-.04.475.475,0,0,1,.1-.025.494.494,0,0,0,.128-.022l-1.47.814.622-.587a.18.18,0,0,0,.051-.169.169.169,0,0,0-.029-.052h.061A.123.123,0,0,1,136.436,129.673Zm-1.064.046a.327.327,0,0,1,.113-.022.639.639,0,0,0,.2-.042.219.219,0,0,1,.1-.017.573.573,0,0,1,.125.012h.044l-.367.216-.276.169c-.019-.116-.034-.2-.046-.275A.934.934,0,0,0,135.373,129.719Zm-5.394,4.737a.1.1,0,0,1,.067-.024.441.441,0,0,1,.121.015.851.851,0,0,0,.182.03.157.157,0,0,1,.079.025.474.474,0,0,0,.094.039c-.563.337-1.124.664-1.61.942.779-.659.883-.843.861-.951a.506.506,0,0,0,.2-.078Zm-1.059.142.179-.1a.179.179,0,0,0,.052-.046.4.4,0,0,0,.143.079l-.491.3c.108-.11.126-.17.108-.228Zm-1.1-.6a.521.521,0,0,0,.231.074.282.282,0,0,1,.094.024,1.439,1.439,0,0,0,.244.086l.071.02a.8.8,0,0,0,.187.034.4.4,0,0,1,.116.024h.017c-.61.337-1.384.782-1.991,1.119.315-.288.693-.624,1.055-.936a.179.179,0,0,0-.214-.287c-.45.29-.934.588-1.349.828l1.21-1.128a.17.17,0,0,0,.019-.03l.027.015.143.079Zm-1.047-.757a2.486,2.486,0,0,0,.261.2.169.169,0,0,1,.056.062.477.477,0,0,0,.1.12l-.169.094a.18.18,0,0,0,0-.169.211.211,0,0,0-.123-.094.385.385,0,0,0-.207.034.3.3,0,0,0-.034-.074.236.236,0,0,0-.13-.1.47.47,0,0,0-.307.069c.169-.142.276-.238.351-.31l.066.059C126.678,133.159,126.707,133.188,126.776,133.237Zm-.929-1.1a.542.542,0,0,1,.061.111.184.184,0,0,1,.017.084.425.425,0,0,0,.089.263.41.41,0,0,0,.228.169.184.184,0,0,1,.056.027c-.1.046-.219.108-.381.194a.18.18,0,0,0,.037-.219.2.2,0,0,0-.12-.093.226.226,0,0,0-.131,0,.168.168,0,0,0-.027-.081.2.2,0,0,0-.157-.084c.295-.244.3-.325.239-.44a.226.226,0,0,0-.128-.1c-.106-.029-.255.022-.642.249l.632-.6a.225.225,0,0,1,.029.051.715.715,0,0,1,.042.121,1.011,1.011,0,0,0,.059.169.856.856,0,0,0,.1.189Zm-.494-1.011a.684.684,0,0,1,.051.115,2.592,2.592,0,0,0-.305.157.179.179,0,0,0-.233-.013l-.207.135.415-.337a.18.18,0,0,0,.046-.228.229.229,0,0,0-.093-.084.15.15,0,0,0,0-.2c-.066-.116-.086-.15-.767.219.231-.187.48-.386.732-.583a2.111,2.111,0,0,0,.052.212.622.622,0,0,0,.1.211.42.42,0,0,1,.054.1,1.012,1.012,0,0,0,.1.2c.017.032.034.061.061.11Zm-.459-1.487a.633.633,0,0,0,.138,0,.391.391,0,0,0-.064.19c-.074.03-.179.079-.337.158l.1-.076a.179.179,0,0,0,.04-.241.169.169,0,0,0-.024-.025l.049-.008a.219.219,0,0,1,.1.012Zm-.888-.008a.6.6,0,0,1,.111.012.728.728,0,0,0,.2.013h.152l-1.114.617a2.1,2.1,0,0,0,.464-.565.481.481,0,0,0,.128-.054c.029-.012.027-.017.056-.013Zm-.887.084a.4.4,0,0,0,.251-.12l.03-.02.015.01c-.206.128-.418.258-.607.367l.169-.216v-.02a.762.762,0,0,0,.142.008Zm-.636.949a.7.7,0,0,0-.03-.11c.064-.029.143-.067.251-.126-.093.113-.162.18-.221.244Zm-.135-.831v-.015l.052-.032a.191.191,0,0,0,.015.057l.008.017-.066.086a.841.841,0,0,1-.01-.1Zm.394,2.057c-.013-.047-.02-.078-.027-.1a1.246,1.246,0,0,0-.067-.206.106.106,0,0,1,0-.074.534.534,0,0,0-.01-.217.779.779,0,0,0-.061-.169h0l.369-.2c-.233.226-.2.278-.157.361a.179.179,0,0,0,.111.086.184.184,0,0,0,.14-.02l.438-.265c-.683.593-.636.674-.578.78a.182.182,0,0,0,.054.059,1.09,1.09,0,0,0-.125.108c-.012-.02-.024-.04-.037-.059A.221.221,0,0,1,122.743,131.888Zm.2.529-.022-.061-.013-.039h.012a.169.169,0,0,0,.142-.024l.169-.11Zm.285.7a.606.606,0,0,1-.069-.1.155.155,0,0,1-.022-.081.59.59,0,0,0-.025-.126c.051-.019.113-.044.192-.081a.209.209,0,0,0,.086.049c.128.03.261-.037,1.1-.575l-.936.893a.179.179,0,0,0-.034.217.185.185,0,0,0,.115.088.123.123,0,0,0,.059,0c-.1.076-.18.137-.241.187a.25.25,0,0,1-.025-.034.221.221,0,0,1-.037-.093.632.632,0,0,0-.069-.192.956.956,0,0,0-.1-.143Zm1.8,2.276a1.039,1.039,0,0,1-.192-.209c-.015-.019-.015-.025-.02-.061a.4.4,0,0,0-.12-.261.479.479,0,0,0-.216-.132.2.2,0,0,1-.079-.04.553.553,0,0,1-.106-.1c-.022-.025-.047-.057-.091-.1l-.067-.067a.932.932,0,0,1-.12-.143.528.528,0,0,1-.061-.1l-.024-.047c.052-.027.111-.061.187-.106a.18.18,0,0,0,.244.248l.8-.447c-.546.477-.587.57-.506.71a.187.187,0,0,0,.115.088h.013c-.049.061-.032.1,0,.169a.18.18,0,0,0,.113.088.2.2,0,0,0,.072,0,.179.179,0,0,0,0,.182.19.19,0,0,0,.113.088c.083.024.128.034,1.011-.465l-.885.831h0l-.052-.029a.458.458,0,0,1-.13-.079Zm.593.351a5.812,5.812,0,0,0,.529-.266,3.656,3.656,0,0,0-.361.393.763.763,0,0,1-.1-.074Zm1.6.919a.592.592,0,0,1-.121-.035.142.142,0,0,1-.066-.046.494.494,0,0,0-.192-.135.77.77,0,0,0-.169-.049.248.248,0,0,1-.1-.037.823.823,0,0,0-.169-.072.276.276,0,0,1-.1-.054.111.111,0,0,1-.042-.059.582.582,0,0,0-.042-.074l.169-.084a.18.18,0,0,0,.19,0l.388-.248c-.349.253-.337.275-.268.4a.206.206,0,0,0,.12.093c.062.017.179.047,1.394-.657-.265.216-.55.443-.826.657a.18.18,0,0,0-.047.229.2.2,0,0,0,.12.093h0a.516.516,0,0,0-.093.13,1.033,1.033,0,0,0-.15-.042Zm1.153.307-.1-.025a.3.3,0,0,1-.094-.039.65.65,0,0,0-.081-.04l.757-.42.221-.111c-.464.337-.546.519-.459.674a.177.177,0,0,0,.078.071.54.54,0,0,0-.111-.051,2.064,2.064,0,0,0-.212-.056Zm.337.116.019.01a.185.185,0,0,0,.069,0,.318.318,0,0,0,.027.056l.008.01a.137.137,0,0,1-.052-.03.693.693,0,0,0-.083-.042Zm1.5.113a.687.687,0,0,1-.148.013h-.1a.673.673,0,0,1-.169-.012.506.506,0,0,0-.231.01.211.211,0,0,1-.093,0,.418.418,0,0,1-.108-.025.764.764,0,0,0-.157-.037l4.681-2.594c-1.18.775-2.478,1.625-3.55,2.325a.179.179,0,0,0-.052.248.168.168,0,0,0,.046.047Zm1.049-.152a.241.241,0,0,1-.1,0,.524.524,0,0,0-.234,0,.9.9,0,0,0-.169.056.56.56,0,0,1-.118.035l-.064.01c.541-.337,1.094-.691,1.635-1.023-.843.6-.905.779-.87.88h0a.148.148,0,0,1-.1.046Zm4.737-2.854a.675.675,0,0,0-.1.18.377.377,0,0,1-.052.094.6.6,0,0,0-.1.19.159.159,0,0,0-.01-.032.18.18,0,0,0-.243-.067l-1.377.764c.593-.371,1.247-.767,1.9-1.156Zm.973-1.18-.04.025a.44.44,0,0,0-.214.142.41.41,0,0,0-.1.263v.019a.239.239,0,0,0-.047-.022,1.18,1.18,0,0,0-.538.135c.443-.3.754-.516.969-.674v.035a.125.125,0,0,1-.042.084Z" transform="translate(-101.435 -107.29)" fill="#f6a631"/>
        <path id="パス_26022" data-name="パス 26022" d="M138.588,38.14a.354.354,0,0,1,0-.108.6.6,0,0,0,0-.228.248.248,0,0,1,0-.1.539.539,0,0,0,0-.241.452.452,0,0,0-.123-.236.13.13,0,0,1-.04-.067c-.022-.083-.03-.12-.039-.169s-.015-.076-.032-.147a.771.771,0,0,0-.069-.187.371.371,0,0,1-.04-.113.12.12,0,0,1,0-.078.455.455,0,0,0,0-.263.939.939,0,0,1-.025-.13,1.091,1.091,0,0,0-.042-.2.635.635,0,0,0-.108-.219.567.567,0,0,1-.061-.1c-.02-.04-.034-.071-.044-.1a1.025,1.025,0,0,0-.126-.217.462.462,0,0,0-.2-.169c-.037-.017-.039-.017-.052-.042a.179.179,0,0,1-.029-.093.6.6,0,0,0-.056-.211.472.472,0,0,1-.037-.111.674.674,0,0,0-.079-.207.561.561,0,0,0-.15-.182.3.3,0,0,1-.071-.078.117.117,0,0,1-.02-.072.438.438,0,0,0-.089-.256.475.475,0,0,0-.2-.169.153.153,0,0,1-.069-.051,1.458,1.458,0,0,0-.194-.206l-.046-.042a.474.474,0,0,1-.074-.086.622.622,0,0,0-.169-.169c-.125-.088-.128-.091-.253-.189a.9.9,0,0,0-.155-.1.442.442,0,0,1-.1-.071.984.984,0,0,1-.091-.088,1,1,0,0,0-.152-.138.713.713,0,0,0-.187-.106.467.467,0,0,1-.1-.054.185.185,0,0,1-.067-.067.607.607,0,0,0-.143-.157.674.674,0,0,0-.182-.1.238.238,0,0,1-.091-.057.842.842,0,0,0-.184-.135,1.01,1.01,0,0,1-.1-.062.13.13,0,0,1-.049-.061.422.422,0,0,0-.2-.2l-.106-.057a1.914,1.914,0,0,0-.2-.094.872.872,0,0,0-.2-.062.8.8,0,0,1-.123-.034.685.685,0,0,1-.115-.051.833.833,0,0,0-.2-.079,1.508,1.508,0,0,0-.216-.042l-.121-.019a.415.415,0,0,0-.282.049c-.034.017-.032.017-.051.013a.106.106,0,0,1-.064-.039.48.48,0,0,0-.212-.131,1.209,1.209,0,0,0-.211-.051.591.591,0,0,1-.121-.024,1.139,1.139,0,0,1-.121-.034.98.98,0,0,0-.209-.046,1.2,1.2,0,0,0-.221-.015h-.084a.939.939,0,0,0-.216.013,1.094,1.094,0,0,1-.123.013.489.489,0,0,1-.123,0,.951.951,0,0,0-.2-.015.475.475,0,0,0-.241.071.115.115,0,0,1-.072.024.169.169,0,0,1-.079-.02.47.47,0,0,0-.251-.051.491.491,0,0,0-.238.071.168.168,0,0,1-.084.029.091.091,0,0,1-.066-.017.438.438,0,0,0-.268-.054.491.491,0,0,0-.234.088.147.147,0,0,1-.079.032,1.234,1.234,0,0,0-.261.054l-.074.022-.108.027a.949.949,0,0,0-.223.078,1.225,1.225,0,0,1-.169.067l-.118.04a.447.447,0,0,1-.128.029,1.012,1.012,0,0,0-.169.03.817.817,0,0,0-.207.079.8.8,0,0,1-.111.051l-.037.013a1.972,1.972,0,0,0-.276.12.62.62,0,0,0-.189.135.44.44,0,0,1-.086.071,1.144,1.144,0,0,1-.1.061.9.9,0,0,0-.182.121l-.091.076a1.428,1.428,0,0,1-.153.116.12.12,0,0,1-.078.025.531.531,0,0,0-.223.067.683.683,0,0,0-.189.147.718.718,0,0,1-.084.079,1.011,1.011,0,0,0-.179.169l-.067.078c-.056.061-.083.088-.111.116l-.111.113a.544.544,0,0,0-.121.2.184.184,0,0,1-.049.079.4.4,0,0,1-.093.076.772.772,0,0,0-.155.123l-.081.081c-.044.044-.067.067-.145.142a.831.831,0,0,0-.135.16.654.654,0,0,1-.076.1l-.072.078c-.047.051-.071.074-.148.169a.414.414,0,0,1-.079.076.615.615,0,0,0-.155.169,1.169,1.169,0,0,1-.069.1.952.952,0,0,0-.116.192.642.642,0,0,0-.062.206.245.245,0,0,1-.032.1,1.411,1.411,0,0,1-.081.137c-.022.032-.046.067-.083.133a.9.9,0,0,1-.066.1.8.8,0,0,0-.11.2.569.569,0,0,0-.051.233.358.358,0,0,1-.015.1,1.42,1.42,0,0,0-.035.169.675.675,0,0,1-.035.142.135.135,0,0,1-.049.071.529.529,0,0,0-.137.192l-.042.094a2.151,2.151,0,0,0-.084.216.686.686,0,0,0-.042.217.452.452,0,0,1-.019.115.27.27,0,0,1-.042.089.506.506,0,0,0-.088.241.521.521,0,0,1-.017.113,1.01,1.01,0,0,0-.017.243.474.474,0,0,0,.072.244.116.116,0,0,1,.024.076.209.209,0,0,1-.019.1.582.582,0,0,0-.042.219,1.238,1.238,0,0,1-.01.169c0,.035-.008.076-.013.145a1.012,1.012,0,0,1-.02.153c0,.037-.017.079-.025.155a.528.528,0,0,0,.024.26.4.4,0,0,1,.022.1.647.647,0,0,0,.057.239.894.894,0,0,1,.037.1,1.078,1.078,0,0,0,.064.169.552.552,0,0,1,.044.131.114.114,0,0,1-.012.054.428.428,0,0,0-.046.268,1.094,1.094,0,0,1,.012.123.922.922,0,0,0,.034.219.734.734,0,0,0,.088.209.6.6,0,0,1,.052.106.578.578,0,0,0,.118.2.229.229,0,0,1,.052.084.3.3,0,0,1,.022.1.629.629,0,0,0,.047.212l.051.131c.017.044.03.083.066.169a.625.625,0,0,0,.115.189.29.29,0,0,1,.056.089.8.8,0,0,1,.04.118.966.966,0,0,0,.086.216,2.971,2.971,0,0,0,.147.271.322.322,0,0,1,.039.1.566.566,0,0,0,.1.216.452.452,0,0,0,.209.169.143.143,0,0,1,.067.047.207.207,0,0,1,.047.084.561.561,0,0,0,.113.2l.108.123.1.116a.506.506,0,0,0,.2.143.169.169,0,0,1,.071.051.261.261,0,0,1,.054.086.583.583,0,0,0,.123.189.526.526,0,0,0,.19.135.169.169,0,0,1,.074.052c.054.059.084.089.113.118s.056.056.11.115a.168.168,0,0,1,.042.074.44.44,0,0,0,.157.223l.066.052a1.148,1.148,0,0,0,.224.152.674.674,0,0,0,.2.074.273.273,0,0,1,.1.04.338.338,0,0,1,.091.074.755.755,0,0,0,.153.128.654.654,0,0,0,.2.091.4.4,0,0,1,.1.044.337.337,0,0,1,.086.066.612.612,0,0,0,.184.131.434.434,0,0,1,.1.062.7.7,0,0,0,.185.113.46.46,0,0,0,.258.035.133.133,0,0,1,.081,0c.1.037.138.049.192.064l.12.037a.153.153,0,0,1,.072.046.482.482,0,0,0,.221.125.475.475,0,0,0,.253,0,.137.137,0,0,1,.083,0,.872.872,0,0,1,.123.039,1,1,0,0,0,.187.056c.169.035.169,0,.325.034.1.017.142.02.192.027l.13.015a.506.506,0,0,1,.118.029.811.811,0,0,0,.2.044h.064c.1.01.121.013.26.025a.706.706,0,0,0,.211-.01.408.408,0,0,1,.116,0h.314a.55.55,0,0,1,.113.013.7.7,0,0,0,.224.012.337.337,0,0,1,.1,0,.59.59,0,0,0,.113.012.6.6,0,0,0,.128-.015.556.556,0,0,0,.211-.086.2.2,0,0,1,.089-.035c.155-.027.16,0,.317-.025a.753.753,0,0,0,.121-.015,1.2,1.2,0,0,0,.212-.035.964.964,0,0,0,.2-.067,1.084,1.084,0,0,1,.116-.046,1.573,1.573,0,0,0,.157-.061,1.117,1.117,0,0,1,.14-.052c.086-.027.123-.035.169-.047l.14-.037a.724.724,0,0,1,.111-.024.674.674,0,0,0,.229-.071,1.16,1.16,0,0,0,.241-.143l.061-.044a.762.762,0,0,1,.137-.083,1.7,1.7,0,0,0,.263-.158.542.542,0,0,1,.123-.071.338.338,0,0,1,.1-.029.521.521,0,0,0,.238-.091.609.609,0,0,0,.177-.169.526.526,0,0,1,.074-.084.352.352,0,0,1,.1-.069.8.8,0,0,0,.16-.1.516.516,0,0,0,.147-.184.13.13,0,0,1,.052-.064.18.18,0,0,1,.083-.035.472.472,0,0,0,.229-.115.458.458,0,0,0,.147-.219.158.158,0,0,1,.042-.072.409.409,0,0,1,.094-.078.843.843,0,0,0,.153-.121l.1-.1c.032-.034.057-.061.123-.121a.169.169,0,0,1,.076-.04.421.421,0,0,0,.239-.169.384.384,0,0,0,.069-.308v-.071a1.108,1.108,0,0,1,.081-.15c.019-.03.04-.066.074-.125a.2.2,0,0,1,.064-.076.674.674,0,0,0,.234-.357.29.29,0,0,1,.042-.1.157.157,0,0,1,.062-.061.492.492,0,0,0,.169-.177.521.521,0,0,0,.081-.239.3.3,0,0,1,.025-.1.541.541,0,0,0,.049-.238.337.337,0,0,1,.013-.1.805.805,0,0,1,.054-.148c.015-.035.034-.074.059-.142a.169.169,0,0,1,.052-.079.58.58,0,0,0,.13-.179.75.75,0,0,1,.057-.1.657.657,0,0,0,.1-.233.506.506,0,0,0,0-.266.338.338,0,0,1-.012-.1.632.632,0,0,1,.019-.131,1.013,1.013,0,0,0,.027-.19.491.491,0,0,0-.046-.241.131.131,0,0,1-.017-.079.211.211,0,0,1,.025-.094.568.568,0,0,0,.059-.217v-.169a1.24,1.24,0,0,1,0-.148.643.643,0,0,0-.01-.219.337.337,0,0,1,0-.11q0-.085.017-.169c0-.034.01-.074.017-.138a.618.618,0,0,0-.012-.236A.64.64,0,0,1,138.588,38.14ZM134.4,42.383l-.742.432c2.974-1.822,4.106-2.556,4.514-2.9a.155.155,0,0,0,.02.057.138.138,0,0,1,.017.079.7.7,0,0,1-.019.131.964.964,0,0,0-.027.2.628.628,0,0,0,0,.142,1.011,1.011,0,0,0-.207.044.188.188,0,0,0-.025-.062.18.18,0,0,0-.251-.066l-1.052.642C136.016,41.44,135.2,41.916,134.4,42.383Zm3.619-5.32c-.04-.071-.062-.113-.233-.051l-.01-.019-.219.121c-.293.145-.8.423-1.686.914-1.14.63-2.658,1.473-4.176,2.318l-1.982,1.109c2.082-1.274,4.683-2.829,6.947-4.164.223-.125.415-.238.577-.337l.629-.388a.178.178,0,0,0,.046-.04.41.41,0,0,0,0,.093.733.733,0,0,0,.071.2.425.425,0,0,1,.042.111c.015.064.024.1.03.135s.019.089.044.182v.01c-2.571,1.465-5.858,3.312-8.373,4.7,2.456-1.431,5.7-3.257,8.226-4.654a.179.179,0,0,0,.069-.244Zm.015,1.2a.278.278,0,0,0-.14-.106,1.192,1.192,0,0,0-.529.131,9.112,9.112,0,0,0,.9-.646.58.58,0,0,0,0,.209.262.262,0,0,1,0,.108.7.7,0,0,0-.015.2.929.929,0,0,0,.024.169.279.279,0,0,1,0,.12.835.835,0,0,1-.015.128c0,.032-.014.1-.02.2v.032a.246.246,0,0,0-.091-.047,4.736,4.736,0,0,0-1.723.671l1.547-.922a.18.18,0,0,0,.067-.248Zm.19.843a.168.168,0,0,0,.025-.024,1.535,1.535,0,0,0-.01.182V39.4a.223.223,0,0,1-.012.061c-.118-.017-.413.137-4.7,2.571Zm-.41-3.235.012.019a2.254,2.254,0,0,0-.287.1l-.037-.015a.18.18,0,0,0-.137.017l-2.47,1.384c1.121-.7,1.733-1.108,2.058-1.362a3.467,3.467,0,0,0,.674-.469.734.734,0,0,1,.037.072c.012.027.027.061.051.106a.872.872,0,0,0,.1.158Zm-.607-.978a.248.248,0,0,1,.025.1.525.525,0,0,0,.064.214,4.988,4.988,0,0,0-.718.327c.4-.324.349-.408.3-.5a.179.179,0,0,0-.248-.067c-3.08,1.8-7.206,4.167-9.9,5.646,2.717-1.618,7.016-4.078,10.242-5.9a.179.179,0,0,0,.089-.169.226.226,0,0,1,.042.059.353.353,0,0,1,.044.113.83.83,0,0,0,.061.184Zm-13.046,7.672c-.027-.049-.046-.084-.091-.169-.008-.017-.012-.029-.019-.042a6.054,6.054,0,0,0,.787-.337,1.472,1.472,0,0,0-.453.43Zm-.529-1.278a.615.615,0,0,0-.019-.064.589.589,0,0,0-.116-.192.224.224,0,0,1-.052-.086c-.012-.029-.02-.051-.03-.071.064-.03.169-.083.319-.169a.2.2,0,0,0,.11.083c.184.052,1.1-.389,8.108-4.383-2.459,1.475-5.357,3.156-6.911,4.054C124.293,40.886,123.865,41.132,123.629,41.287ZM125.7,39.5l.212-.13c.276-.152.575-.312.887-.477C126.407,39.112,126.036,39.316,125.7,39.5Zm11.193-5.125.008.012a.224.224,0,0,0-.086,0l.064-.035Zm-.244-.406a5.625,5.625,0,0,0-.6.266,2.609,2.609,0,0,0,.462-.4l.027.034a.506.506,0,0,0,.115.1Zm-2.5-2.057a.48.48,0,0,0,.169.189,1.42,1.42,0,0,0,.131.081.478.478,0,0,1,.116.084.582.582,0,0,0,.2.125.315.315,0,0,1,.094.052.25.25,0,0,1,.054.078.533.533,0,0,0,.169.169.829.829,0,0,0,.169.088.361.361,0,0,1,.1.059.686.686,0,0,1,.1.094,1.313,1.313,0,0,0,.12.116.8.8,0,0,0,.169.115,7.491,7.491,0,0,0-1.047.426l.443-.275a.18.18,0,0,0,.062-.239.256.256,0,0,0-.1-.1.153.153,0,0,0-.017-.169.256.256,0,0,0-.133-.1.3.3,0,0,0-.128,0,.236.236,0,0,0-.029-.106.18.18,0,0,0-.244-.071l-1.293.716c1.011-.721.924-.865.843-1a.18.18,0,0,0-.231-.078.218.218,0,0,0-.022-.057.182.182,0,0,0-.11-.086c-.1-.029-.1-.03-2.5,1.372-2.122,1.237-5.757,3.358-7.215,4.085.256-.189.609-.421,1.033-.689,2.161-1.138,5.618-3,7.343-4.159.524-.282,1.03-.55,1.5-.8a.18.18,0,0,0,.056-.047l.024.012.115.061C134.129,31.876,134.129,31.877,134.148,31.913Zm-8.2,3.724c-.437.251-.843.482-1.193.674C125.1,36.107,125.512,35.876,125.95,35.636Zm5.716-4.433a.674.674,0,0,1,.145.032,1.43,1.43,0,0,0,.153.042c.066.015.106.02.142.027a.947.947,0,0,1,.158.039.135.135,0,0,1,.067.044.506.506,0,0,0,.108.083c-.824.438-2.636,1.448-6.721,3.744,1.763-1.108,4.2-2.545,5.991-3.574a.179.179,0,0,0,.067-.243.2.2,0,0,0-.115-.089c-.057-.017-.125-.012-.4.121.169-.123.229-.187.239-.236a1.327,1.327,0,0,1,.164.01Zm-1.93.111c-.133.074-.278.155-.457.26l-.6.337.809-.506a.179.179,0,0,0,.079-.115.406.406,0,0,0,.162.024Zm-1.47.317.11-.037.066-.022-.464.258a1.181,1.181,0,0,0,.169-.169.908.908,0,0,0,.118-.03ZM124,35.368a1.731,1.731,0,0,0,.1-.169.18.18,0,0,0,.106.083.206.206,0,0,0,.061,0c-.169.1-.283.187-.376.255l.04-.064C123.956,35.426,123.978,35.4,124,35.368Zm-.276.662a.094.094,0,0,1,.01-.052l.027.013c.04.012.071.019.209-.042-.1.076-.192.143-.273.206a1.11,1.11,0,0,1,.027-.126Zm-.622,3.2a.179.179,0,0,1-.01-.1.458.458,0,0,1,.022-.13,1.283,1.283,0,0,0,.027-.2.361.361,0,0,1,.012-.126,1.53,1.53,0,0,0,.012-.2.236.236,0,0,1,.019-.1.558.558,0,0,0,.04-.226.467.467,0,0,0-.071-.251.126.126,0,0,1-.025-.076.7.7,0,0,1,.012-.169c0-.032.012-.072.019-.13a.152.152,0,0,1,.032-.086.605.605,0,0,0,.1-.2.792.792,0,0,0,.03-.192.337.337,0,0,1,.024-.116v-.017h.013a.239.239,0,0,0,0,.221.248.248,0,0,0,.108.093l-.169.088a.18.18,0,0,0-.074.246.2.2,0,0,0,.113.089.435.435,0,0,0-.091.145.246.246,0,0,0,.017.2.2.2,0,0,0,.051.057.115.115,0,0,0-.037.062.18.18,0,0,0,.26.209l.428-.238.9-.477c2.84-1.5,4.9-2.611,6.333-3.432-2.245,1.394-5.489,3.259-7.857,4.577h0a.18.18,0,0,0,.091.337.221.221,0,0,0,.1.249c-.361.231-.337.278-.285.369a.228.228,0,0,0,.128.1c.241.062,1.011-.388,3.877-2.151l2.178-1.214-4.046,2.512c-.814.506-1.462.9-1.829,1.133a.179.179,0,0,0-.072.214,2.126,2.126,0,0,0-.169.142.247.247,0,0,0-.01-.081c-.01-.032,0-.027.015-.062a.408.408,0,0,0,.037-.287.871.871,0,0,0-.069-.2.793.793,0,0,1-.046-.12,1.239,1.239,0,0,0-.052-.14.319.319,0,0,1-.029-.128.75.75,0,0,0-.062-.185Zm3.736-1.92c-1.062.632-2.023,1.188-2.615,1.482.548-.366,1.534-.91,2.613-1.482ZM123.74,41.7l.054-.015a.251.251,0,0,0,.022.133.18.18,0,0,0,.11.086.238.238,0,0,0,.158-.034,2.153,2.153,0,0,0-.169.145.758.758,0,0,0-.061-.083.268.268,0,0,1-.056-.091c-.035-.078-.049-.113-.062-.148Zm.966,1.652a.559.559,0,0,0-.113-.2.506.506,0,0,0-.2-.143.116.116,0,0,1-.047-.032c.735-.11,3.034-1.477,7.434-4.165l1.045-.639.563-.283c-2.485,1.517-5.8,3.468-8.378,4.961a.179.179,0,0,0-.088.179.168.168,0,0,0,.012.046.357.357,0,0,0-.049.094.212.212,0,0,0,0,.025c-.086.089-.078.137-.054.184a.35.35,0,0,0-.059.076l-.015-.019a.207.207,0,0,1-.057-.091Zm1.3,1.4a.526.526,0,0,0-.113-.2c-.061-.067-.091-.1-.123-.131s-.052-.052-.1-.106a.521.521,0,0,0-.194-.138.18.18,0,0,1-.074-.051.233.233,0,0,1-.056-.086.612.612,0,0,0-.116-.184.506.506,0,0,0-.192-.138L125,43.7a7.237,7.237,0,0,0,.641-.361,28.832,28.832,0,0,0,2.99-1.659c-3.24,2-3.179,2.112-3.083,2.288a.179.179,0,0,0,.108.086.169.169,0,0,0,.137-.015l.094-.052a.435.435,0,0,0-.123.15.234.234,0,0,0,.017.157.184.184,0,0,0,.11.086c.079.022.18.057,7.474-4.046l-.794.48c-2.488,1.431-5.172,3.053-6.436,3.825a.177.177,0,0,0-.084.169l-.013-.012a.091.091,0,0,1-.039-.056Zm.383.268a.317.317,0,0,1-.1-.039h0a.168.168,0,0,0,.046-.015c.03-.019,3.083-1.809,6.069-3.609l.093-.056c.781-.452,1.529-.878,2.207-1.254-.8.482-1.686,1.011-2.572,1.554a56.235,56.235,0,0,0-5.511,3.52l-.024-.017a.624.624,0,0,0-.207-.091Zm.91.539a.684.684,0,0,0-.169-.123.736.736,0,0,0-.182-.076h0c2.92-1.8,7.08-4.277,9.408-5.5l-8.88,5.534a.18.18,0,0,0-.062.239v.008l-.035-.02a.273.273,0,0,1-.081-.071Zm.843.325c-.047-.013-.081-.024-.169-.056a.491.491,0,0,0-.244-.029.108.108,0,0,1-.078-.008.346.346,0,0,1-.1-.061h0c.137.022.506-.153,6.04-3.3l.381-.217c-1.831,1.128-3.96,2.414-5.683,3.444a.179.179,0,0,0-.066.241l.019.02Zm.4.2a.126.126,0,0,1-.071-.042L128.42,46a.623.623,0,0,0,.126-.02.148.148,0,0,0,.029.1l.01.012a.134.134,0,0,1-.04-.013Zm1.556.233a.453.453,0,0,1-.121-.027.843.843,0,0,0-.187-.044l-.142-.017a.533.533,0,0,1-.169-.024h-.01c1.011-.568,2.687-1.5,4.27-2.38l-3.5,2.3a.177.177,0,0,0-.072.2Zm.632.012a.7.7,0,0,0-.133,0l.443-.256a.2.2,0,0,0-.054.131c-.067.046-.072.067-.084.1v.022h0c-.051,0-.086,0-.17-.005Zm.92.039a.209.209,0,0,1-.1,0,.894.894,0,0,0-.091-.01l.169-.093.7-.366.153-.079c-.189.123-.324.214-.416.283l-.1.059v.012a.423.423,0,0,0-.078.083.542.542,0,0,0-.157.072.216.216,0,0,1-.081.032Zm2.008-.536a1.037,1.037,0,0,0-.158.032l-.1.029c.155-.084.337-.18.533-.295l.084-.044c-.064.069-.079.113-.078.15a.876.876,0,0,1-.155.088.325.325,0,0,1-.121.035Zm3.149-2.3c-.017.024-.019.024-.059.037a.653.653,0,0,0-.128.061h-.037l.226-.155v0a.083.083,0,0,1,0,.056Zm.872-1.686a.641.641,0,0,0-.051.2.169.169,0,0,1-.032.094.145.145,0,0,1-.061.061.506.506,0,0,0-.169.169.614.614,0,0,0-.042.081.339.339,0,0,0-.019-.04.192.192,0,0,0-.113-.088c-.059-.017-.148-.044-1.993.974l2.51-1.647a.829.829,0,0,0,0,.1.192.192,0,0,1-.03.091Z" transform="translate(-102.043 -25.455)" fill="#40c1c9"/>
        <rect id="長方形_5622" data-name="長方形 5622" width="57" height="49" transform="translate(0 0.332)" fill="none"/>
      </g>
      <path id="多角形_5" data-name="多角形 5" d="M6.131,4.906a2,2,0,0,1,3.738,0l5.1,13.382A2,2,0,0,1,13.1,21H2.9a2,2,0,0,1-1.869-2.712Z" transform="translate(37 67.332) rotate(180)" fill="#fff"/>
    </g>
  </g>
</svg>
