<svg width="192" height="312" viewBox="0 0 192 312" fill="none" xmlns="http://www.w3.org/2000/svg">
<path d="M72 32C76.418 32 80 28.418 80 24V8C80 3.582 76.418 0 72 0C67.582 0 64 3.582 64 8V24C64 28.418 67.582 32 72 32Z" fill="#231F20"/>
<path d="M105.944 46.056C108.066 46.056 110.1 45.212 111.6 43.712L122.912 32.4C125.981 29.222 125.894 24.157 122.716 21.088C119.616 18.094 114.701 18.094 111.6 21.088L100.288 32.4C97.1642 35.525 97.1652 40.59 100.29 43.714C101.79 45.213 103.823 46.056 105.944 46.056Z" fill="#231F20"/>
<path d="M112 72C112 76.418 115.582 80 120 80H136C140.418 80 144 76.418 144 72C144 67.582 140.418 64 136 64H120C115.582 64 112 67.582 112 72Z" fill="#231F20"/>
<path d="M32 72C32 67.582 28.418 64 24 64H8C3.582 64 0 67.582 0 72C0 76.418 3.582 80 8 80H24C28.418 80 32 76.418 32 72Z" fill="#231F20"/>
<path d="M32.3998 43.712C35.5778 46.781 40.6428 46.693 43.7118 43.515C46.7058 40.415 46.7058 35.5 43.7118 32.4L32.3998 21.088C29.2218 18.019 24.1568 18.107 21.0878 21.285C18.0938 24.385 18.0938 29.3 21.0878 32.4L32.3998 43.712Z" fill="#231F20"/>
<path d="M168 128C163.866 128.024 159.809 129.127 156.232 131.2C149.495 120.303 135.304 116.755 124.232 123.2C118.351 113.633 106.526 109.559 96 113.472V72C96 58.745 85.255 48 72 48C58.745 48 48 58.745 48 72V145.472C45.438 144.525 42.732 144.027 40 144C26.745 144 16 154.745 16 168V224C16 272.601 55.399 312 104 312C152.601 312 192 272.601 192 224V152C192 138.745 181.255 128 168 128ZM176 224C176 263.764 143.764 296 104 296C64.236 296 32 263.764 32 224V168C32 163.582 35.582 160 40 160C44.418 160 48 163.582 48 168V192C48 196.418 51.582 200 56 200C60.418 200 64 196.418 64 192V72C64 67.582 67.582 64 72 64C76.418 64 80 67.582 80 72V160C80 164.418 83.582 168 88 168C92.418 168 96 164.418 96 160V136C96 131.582 99.582 128 104 128C108.418 128 112 131.582 112 136V168C112 172.418 115.582 176 120 176C124.418 176 128 172.418 128 168V144C128 139.582 131.582 136 136 136C140.418 136 144 139.582 144 144V176C144 180.418 147.582 184 152 184C156.418 184 160 180.418 160 176V152C160 147.582 163.582 144 168 144C172.418 144 176 147.582 176 152V224Z" fill="#231F20"/>
</svg>
