<svg xmlns="http://www.w3.org/2000/svg" width="55.908" height="54" viewBox="0 0 55.908 54">
  <g id="Layer_2" data-name="Layer 2" transform="translate(-2 -2.682)">
    <path id="パス_26108" data-name="パス 26108" d="M38.445,3.5a5.488,5.488,0,0,0-5.424-.2A83.231,83.231,0,0,1,18,9.27c-2.638.759-5.352,1.4-8.061,1.895A9.722,9.722,0,0,0,2,20.766V25.51a9.722,9.722,0,0,0,7.936,9.6c2.711.5,5.424,1.136,8.063,1.895a83.284,83.284,0,0,1,15.024,5.967,5.49,5.49,0,0,0,5.423-.2,5.564,5.564,0,0,0,2.69-4.785V8.29A5.564,5.564,0,0,0,38.445,3.5Z" transform="translate(0 0)"/>
    <path id="パス_26109" data-name="パス 26109" d="M18.959,31.5A6.97,6.97,0,0,1,6.828,27.755L5.29,15.4c2.013.391,4.053.895,6.038,1.454a79.706,79.706,0,0,1,8.554,3.019l.755,6.15A7,7,0,0,1,18.959,31.5Z" transform="translate(5.907 22.833)"/>
    <path id="パス_26110" data-name="パス 26110" d="M26.386,14.591H20.8A2.8,2.8,0,1,1,20.8,9h5.591a2.8,2.8,0,0,1,0,5.591Z" transform="translate(28.726 11.342)"/>
    <path id="パス_26111" data-name="パス 26111" d="M20.8,12.834A2.794,2.794,0,0,1,19.315,7.67l5.591-3.494a2.794,2.794,0,0,1,2.962,4.739l-5.591,3.494a2.766,2.766,0,0,1-1.478.426Z" transform="translate(28.725 1.917)"/>
    <path id="パス_26112" data-name="パス 26112" d="M26.383,22.084a2.766,2.766,0,0,1-1.478-.426l-5.591-3.494a2.794,2.794,0,0,1,2.962-4.739l5.591,3.494a2.794,2.794,0,0,1-1.484,5.165Z" transform="translate(28.726 18.524)"/>
  </g>
</svg>
