<svg id="school" xmlns="http://www.w3.org/2000/svg" width="38" height="38" viewBox="0 0 38 38">
  <g id="グループ_8015" data-name="グループ 8015" transform="translate(22.176 9.97)">
    <g id="グループ_8014" data-name="グループ 8014">
      <path id="パス_26113" data-name="パス 26113" d="M309.612,134.333H298.794l6.643,7.917h9.181V140.6Z" transform="translate(-298.794 -134.333)"/>
    </g>
  </g>
  <g id="グループ_8017" data-name="グループ 8017" transform="translate(0 9.97)">
    <g id="グループ_8016" data-name="グループ 8016">
      <path id="パス_26114" data-name="パス 26114" d="M5.006,134.333,0,140.6v1.652H9.181l6.642-7.917Z" transform="translate(0 -134.333)"/>
    </g>
  </g>
  <g id="グループ_8019" data-name="グループ 8019">
    <g id="グループ_8018" data-name="グループ 8018">
      <path id="パス_26115" data-name="パス 26115" d="M35.947,35.773V20.113H27.78l-7.667-9.138V6.185h6.43V0H17.887V10.976L10.22,20.113H2.053v15.66H0V38H38V35.773ZM5.962,23.75H8.189v3.167H5.962Zm2.284,9.5H6.019V30.083H8.246ZM19,15.512A3.488,3.488,0,1,1,15.512,19,3.492,3.492,0,0,1,19,15.512Zm5.863,20.262H22.637V28.03H20.113v7.743H17.887V28.03H15.363v7.743H13.137V25.8H24.863Zm7.117-2.523H29.754V30.083h2.227Zm.057-6.333H29.811V23.75h2.227Z"/>
    </g>
  </g>
  <g id="グループ_8021" data-name="グループ 8021" transform="translate(17.738 17.738)">
    <g id="グループ_8020" data-name="グループ 8020">
      <path id="パス_26116" data-name="パス 26116" d="M240.262,239a1.262,1.262,0,1,0,1.262,1.262A1.263,1.263,0,0,0,240.262,239Z" transform="translate(-239 -239)"/>
    </g>
  </g>
</svg>
