<svg id="blog_3_" data-name="blog (3)" xmlns="http://www.w3.org/2000/svg" width="54" height="54" viewBox="0 0 54 54">
  <path id="パス_26211" data-name="パス 26211" d="M52.418,0H1.582A1.582,1.582,0,0,0,0,1.582v9.045H54V1.582A1.582,1.582,0,0,0,52.418,0ZM6.906,6.893A1.581,1.581,0,1,1,8.367,4.705,1.588,1.588,0,0,1,6.906,6.893Zm6.328,0a1.581,1.581,0,1,1,1.461-2.187,1.588,1.588,0,0,1-1.461,2.187Zm6.328,0a1.581,1.581,0,1,1,1.461-2.187A1.587,1.587,0,0,1,19.562,6.892Z"/>
  <path id="パス_26212" data-name="パス 26212" d="M87.791,331.581a1.182,1.182,0,0,0-1.18-1.18H84.762v2.365c.707,0,1.5-.006,1.849-.006A1.182,1.182,0,0,0,87.791,331.581Z" transform="translate(-75.822 -295.554)"/>
  <path id="パス_26213" data-name="パス 26213" d="M241.312,296.082a3.323,3.323,0,1,0,0-5.843A3.334,3.334,0,0,0,241.312,296.082Z" transform="translate(-214.312 -259.265)"/>
  <path id="パス_26214" data-name="パス 26214" d="M86.14,291.507a.818.818,0,1,0,0-1.635H84.762v1.638h.383Z" transform="translate(-75.822 -259.3)"/>
  <path id="パス_26215" data-name="パス 26215" d="M0,169.386a1.582,1.582,0,0,0,1.582,1.582H52.418A1.582,1.582,0,0,0,54,169.386V130.759H0ZM42.372,144.9a5.931,5.931,0,0,1,3.333,1.019,1.318,1.318,0,1,1-1.476,2.185,3.323,3.323,0,1,0-1.857,6.079,2.5,2.5,0,0,0,2.514-2H43.6a1.318,1.318,0,0,1,0-2.637h2.777a1.318,1.318,0,0,1,1.318,1.318c0,3.509-2.19,5.96-5.325,5.96a5.96,5.96,0,1,1,0-11.919ZM27,145.119a5.959,5.959,0,1,1,0,11.49,5.985,5.985,0,0,1,0-11.49Zm-10.552,1.1a1.318,1.318,0,0,1,1.343-1.318,1.347,1.347,0,0,1,1.294,1.362v7.92c.572,0,1.266,0,1.925-.007h.007a1.3,1.3,0,0,1,1.251.892,1.323,1.323,0,0,1-1.244,1.745l-3.262-.018a1.289,1.289,0,0,1-1.314-1.3Zm-10.145,0A1.318,1.318,0,0,1,7.621,144.9h2.7a3.452,3.452,0,0,1,2.972,5.212,3.814,3.814,0,0,1-2.5,6.7c-.674,0-3.137.011-3.161.011H7.621A1.318,1.318,0,0,1,6.3,155.5Z" transform="translate(0 -116.968)"/>
</svg>
