<svg id="instagram_3_" data-name="instagram (3)" xmlns="http://www.w3.org/2000/svg" width="54" height="54" viewBox="0 0 54 54">
  <path id="パス_26117" data-name="パス 26117" d="M217.336,212.168A5.168,5.168,0,1,1,212.168,207,5.168,5.168,0,0,1,217.336,212.168Zm0,0" transform="translate(-185.168 -185.168)"/>
  <path id="パス_26118" data-name="パス 26118" d="M160.281,139.055a5.134,5.134,0,0,0-2.942-2.942,8.578,8.578,0,0,0-2.879-.534c-1.635-.075-2.125-.091-6.265-.091s-4.63.016-6.265.09a8.584,8.584,0,0,0-2.879.534,5.136,5.136,0,0,0-2.943,2.942,8.581,8.581,0,0,0-.534,2.879c-.075,1.635-.091,2.125-.091,6.265s.016,4.63.091,6.265a8.578,8.578,0,0,0,.534,2.879,5.134,5.134,0,0,0,2.942,2.942,8.567,8.567,0,0,0,2.879.534c1.635.075,2.125.09,6.265.09s4.631-.016,6.265-.09a8.568,8.568,0,0,0,2.879-.534,5.134,5.134,0,0,0,2.942-2.942,8.586,8.586,0,0,0,.534-2.879c.075-1.635.09-2.125.09-6.265s-.016-4.63-.09-6.265A8.567,8.567,0,0,0,160.281,139.055ZM148.2,156.16a7.961,7.961,0,1,1,7.961-7.961A7.961,7.961,0,0,1,148.2,156.16Zm8.276-14.377a1.861,1.861,0,1,1,1.861-1.861A1.861,1.861,0,0,1,156.471,141.783Zm0,0" transform="translate(-121.195 -121.199)"/>
  <path id="パス_26119" data-name="パス 26119" d="M27,0A27,27,0,1,0,54,27,27,27,0,0,0,27,0ZM42.41,33.392a11.375,11.375,0,0,1-.721,3.764,7.927,7.927,0,0,1-4.534,4.534,11.383,11.383,0,0,1-3.763.721c-1.653.075-2.181.094-6.392.094s-4.739-.018-6.392-.094a11.383,11.383,0,0,1-3.763-.721,7.927,7.927,0,0,1-4.534-4.534,11.372,11.372,0,0,1-.721-3.763C11.514,31.739,11.5,31.211,11.5,27s.018-4.739.094-6.392a11.376,11.376,0,0,1,.72-3.764,7.933,7.933,0,0,1,4.535-4.534,11.385,11.385,0,0,1,3.764-.721c1.653-.075,2.181-.094,6.392-.094s4.739.018,6.392.094a11.388,11.388,0,0,1,3.764.72,7.93,7.93,0,0,1,4.534,4.535,11.374,11.374,0,0,1,.721,3.764c.075,1.653.093,2.181.093,6.392S42.486,31.739,42.41,33.392Zm0,0"/>
</svg>
