<svg xmlns="http://www.w3.org/2000/svg" width="58.908" height="54" viewBox="0 0 58.908 54">
  <g id="image-gallery" transform="translate(-0.001 -2)">
    <g id="グループ_8108" data-name="グループ 8108" transform="translate(0.001 9.364)">
      <g id="グループ_8107" data-name="グループ 8107" transform="translate(0 9.651)">
        <path id="パス_26153" data-name="パス 26153" d="M15.34,34.872A9.19,9.19,0,0,1,6.646,28.61l-.086-.282a8.954,8.954,0,0,1-.425-2.661V8.932L.181,28.809a5.574,5.574,0,0,0,3.908,6.762L42.043,45.735a5.629,5.629,0,0,0,1.414.182,5.472,5.472,0,0,0,5.3-4.013l2.212-7.032Z" transform="translate(-0.001 -8.932)"/>
      </g>
      <path id="パス_26154" data-name="パス 26154" d="M11.909,14.818A4.909,4.909,0,1,0,7,9.909,4.914,4.914,0,0,0,11.909,14.818Z" transform="translate(10.18 -5)"/>
    </g>
    <path id="パス_26155" data-name="パス 26155" d="M46.955,2H10.136A6.145,6.145,0,0,0,4,8.136v27a6.145,6.145,0,0,0,6.136,6.136H46.955a6.145,6.145,0,0,0,6.136-6.136v-27A6.145,6.145,0,0,0,46.955,2ZM10.136,6.909H46.955a1.228,1.228,0,0,1,1.227,1.227V25.561l-7.754-9.047A4.4,4.4,0,0,0,37.136,15a4.292,4.292,0,0,0-3.279,1.549L24.741,27.5l-2.97-2.963a4.308,4.308,0,0,0-6.087,0L8.909,31.3V8.136a1.228,1.228,0,0,1,1.227-1.227Z" transform="translate(5.817 0)"/>
  </g>
</svg>
