<svg xmlns="http://www.w3.org/2000/svg" width="58.907" height="54" viewBox="0 0 58.907 54">
  <g id="image" transform="translate(0 -0.492)">
    <path id="パス_39160" data-name="パス 39160" d="M43.451,204.576a5.565,5.565,0,0,1-1.407-.182L4.088,194.23A5.573,5.573,0,0,1,.18,187.467l4.173-16a1.841,1.841,0,0,1,3.562.93l-4.173,16a1.874,1.874,0,0,0,1.311,2.275l37.935,10.16a1.829,1.829,0,0,0,2.236-1.291l1.3-5.228a1.841,1.841,0,0,1,3.574.884l-1.3,5.253A5.529,5.529,0,0,1,43.451,204.576Zm0,0" transform="translate(0 -150.083)"/>
    <path id="パス_39161" data-name="パス 39161" d="M128.888,39.765H90.843a5.528,5.528,0,0,1-5.523-5.523V6.015A5.528,5.528,0,0,1,90.843.492h38.045a5.528,5.528,0,0,1,5.523,5.523V34.242A5.528,5.528,0,0,1,128.888,39.765ZM90.843,4.174A1.842,1.842,0,0,0,89,6.015V34.242a1.842,1.842,0,0,0,1.841,1.841h38.045a1.842,1.842,0,0,0,1.841-1.841V6.015a1.842,1.842,0,0,0-1.841-1.841Zm0,0" transform="translate(-75.504)"/>
    <path id="パス_39162" data-name="パス 39162" d="M154.23,74.311a4.909,4.909,0,1,1,4.909-4.909A4.914,4.914,0,0,1,154.23,74.311Zm0-6.137a1.227,1.227,0,1,0,1.227,1.227A1.228,1.228,0,0,0,154.23,68.174Zm0,0" transform="translate(-132.14 -56.636)"/>
    <path id="パス_39163" data-name="パス 39163" d="M87.594,137.253a1.842,1.842,0,0,1-1.3-3.144l11.094-11.094a4.308,4.308,0,0,1,6.087,0l2.968,2.968,9.116-10.942a4.3,4.3,0,0,1,3.28-1.549,3.947,3.947,0,0,1,3.291,1.51l12.219,14.256a1.842,1.842,0,0,1-2.8,2.4l-12.223-14.261a.737.737,0,0,0-.471-.219.617.617,0,0,0-.471.223l-10.407,12.494a1.838,1.838,0,0,1-1.33.66,1.8,1.8,0,0,1-1.385-.538l-4.393-4.394a.532.532,0,0,0-.881,0L88.9,136.713A1.828,1.828,0,0,1,87.594,137.253Zm0,0" transform="translate(-75.887 -99.992)"/>
  </g>
</svg>
