<svg xmlns="http://www.w3.org/2000/svg" width="38.25" height="54" viewBox="0 0 38.25 54">
  <g id="clock" transform="translate(-13 -6)">
    <path id="パス_39166" data-name="パス 39166" d="M50.125,10.5H42.182a13.489,13.489,0,0,0-20.115,0H14.125A1.128,1.128,0,0,0,13,11.625v47.25A1.128,1.128,0,0,0,14.125,60h36a1.128,1.128,0,0,0,1.125-1.125V11.625A1.128,1.128,0,0,0,50.125,10.5ZM49,57.75H15.25v-45h7.324a1.117,1.117,0,0,0,.866-.4,11.245,11.245,0,0,1,17.359,0,1.139,1.139,0,0,0,.877.4H49Z"/>
    <path id="パス_39167" data-name="パス 39167" d="M31.375,12a12.368,12.368,0,0,0-6.75,22.736V46.875a6.75,6.75,0,0,0,13.5,0V34.736A12.368,12.368,0,0,0,31.375,12Zm4.5,34.875a4.5,4.5,0,0,1-9,0V35.895a12.029,12.029,0,0,0,3.375.8v7.931H29.125a1.125,1.125,0,0,0,0,2.25h4.5a1.125,1.125,0,0,0,0-2.25H32.5V36.694a12.431,12.431,0,0,0,3.375-.8ZM39.25,25.5h2.182A10.14,10.14,0,0,1,32.5,34.432V32.25a1.125,1.125,0,1,0-2.25,0v2.182A10.14,10.14,0,0,1,21.317,25.5H23.5a1.125,1.125,0,0,0,0-2.25H21.317a10.14,10.14,0,0,1,8.932-8.933V16.5a1.125,1.125,0,0,0,2.25,0V14.317a10.14,10.14,0,0,1,8.933,8.933H39.25a1.125,1.125,0,0,0,0,2.25Z" transform="translate(0.75 0.75)"/>
    <path id="パス_39168" data-name="パス 39168" d="M30.462,18a1.128,1.128,0,0,0-1.125,1.125v4.039l-2.711,2.767a1.125,1.125,0,0,0,.8,1.913,1.1,1.1,0,0,0,.8-.337l3.038-3.094a1.107,1.107,0,0,0,.326-.788v-4.5A1.128,1.128,0,0,0,30.462,18Z" transform="translate(1.663 1.5)"/>
  </g>
</svg>
