<svg xmlns="http://www.w3.org/2000/svg" width="49.511" height="54" viewBox="0 0 49.511 54">
  <g id="XMLID_4535_" transform="translate(-6.876 -4.96)">
    <path id="XMLID_8_" d="M49.557,58.96a1.172,1.172,0,0,1-1.172-1.172V46.1a11.849,11.849,0,0,1,2.064-6.752A20.489,20.489,0,0,0,24.784,9.263,20.6,20.6,0,0,0,13.172,25.735a21.1,21.1,0,0,0-.093,2.46,15.942,15.942,0,0,1-1.337,6.54l-2.493,5.9a.385.385,0,0,0,.008.322.393.393,0,0,0,.253.211l2.967.824a2.737,2.737,0,0,1,1.985,2.293l1.279,7.971a1.2,1.2,0,0,1,.015.183,2.128,2.128,0,0,0,2.125,2.12h7.436a5.182,5.182,0,0,0,5.176-5.176,1.172,1.172,0,1,1,2.344,0,7.528,7.528,0,0,1-7.52,7.52H17.882a4.477,4.477,0,0,1-4.467-4.359l-1.27-7.924a.415.415,0,0,0-.293-.369L8.885,43.43a2.738,2.738,0,0,1-1.792-3.705l2.491-5.9a13.578,13.578,0,0,0,1.153-5.578,23.751,23.751,0,0,1,.1-2.734A22.961,22.961,0,0,1,23.779,7.148,22.594,22.594,0,0,1,33.487,4.96a22.807,22.807,0,0,1,18.9,35.716A9.509,9.509,0,0,0,50.731,46.1V57.789A1.173,1.173,0,0,1,49.557,58.96Z" transform="translate(0 0)"/>
    <path id="XMLID_7_" d="M42.439,26.245a1.172,1.172,0,0,1-.993-1.792,4.853,4.853,0,0,0-4.119-7.418,5.021,5.021,0,0,0-.744.056,1.166,1.166,0,0,1-1.249-.682A5.758,5.758,0,0,0,24.28,18.685a5.751,5.751,0,0,0,.046.728A1.172,1.172,0,1,1,22,19.705a8.1,8.1,0,0,1,15.09-5.011c.079,0,.159,0,.238,0a7.2,7.2,0,0,1,6.108,11,1.175,1.175,0,0,1-1,.551Z" transform="translate(2.589 0.964)"/>
    <path id="XMLID_6_" d="M23.3,29.915a7.2,7.2,0,1,1,0-14.393c.123,0,.246,0,.369.009a1.172,1.172,0,0,1-.116,2.34c-.083,0-.168-.006-.252-.006a4.853,4.853,0,0,0,0,9.705,1.172,1.172,0,1,1,0,2.344Z" transform="translate(1.585 1.815)"/>
    <path id="XMLID_5_" d="M39.076,32.335a6.173,6.173,0,0,1-6.165-6.165,1.172,1.172,0,1,1,2.344,0,3.821,3.821,0,1,0,5.77-3.288,1.172,1.172,0,0,1,1.2-2.014,6.167,6.167,0,0,1-3.148,11.468Z" transform="translate(4.475 2.706)"/>
    <path id="XMLID_4_" d="M33.455,27.188a4.609,4.609,0,0,1-3.717-1.873,1.172,1.172,0,0,1,1.886-1.391,2.267,2.267,0,0,0,4.055-1.753,1.172,1.172,0,1,1,2.305-.422,4.607,4.607,0,0,1-4.528,5.439Z" transform="translate(3.89 2.721)"/>
    <path id="XMLID_3_" d="M33.142,22.627a1.124,1.124,0,0,1-.177-.013,1.172,1.172,0,0,1-.982-1.335,2.267,2.267,0,0,0-4.106-1.628,1.172,1.172,0,0,1-1.928-1.332A4.61,4.61,0,0,1,34.3,21.628a1.176,1.176,0,0,1-1.159,1Z" transform="translate(3.242 1.954)"/>
    <path id="XMLID_2_" d="M33.571,40.008A1.171,1.171,0,0,1,32.4,38.836V35.5a2.873,2.873,0,0,0-2.87-2.87H26.989a5.054,5.054,0,0,1,0-10.109,1.172,1.172,0,1,1,0,2.344,2.711,2.711,0,0,0,0,5.421h2.539A5.22,5.22,0,0,1,34.742,35.5v3.34a1.171,1.171,0,0,1-1.172,1.172Z" transform="translate(2.588 3.018)"/>
  </g>
</svg>
