<svg id="g2159" xmlns="http://www.w3.org/2000/svg" xmlns:xlink="http://www.w3.org/1999/xlink" width="54" height="54" viewBox="0 0 54 54">
  <defs>
    <clipPath id="clip-path">
      <path id="path2163" d="M0-682.665H54v54H0Z" transform="translate(0 682.665)"/>
    </clipPath>
  </defs>
  <g id="g2161" clip-path="url(#clip-path)">
    <g id="g2167" transform="translate(14.041 5.643)">
      <path id="path2169" d="M-301.741-163.706v-2.205a1.16,1.16,0,0,0-1.16-1.16h-.131a1.168,1.168,0,0,1-1.121-.863,10.874,10.874,0,0,0-.868-2.173,1.168,1.168,0,0,1,.2-1.377l.067-.067a1.16,1.16,0,0,0,0-1.641l-1.559-1.559a1.16,1.16,0,0,0-1.641,0l-.015.015a1.169,1.169,0,0,1-1.4.185,10.875,10.875,0,0,0-2.24-.94,1.156,1.156,0,0,1-.826-1.11v0a1.16,1.16,0,0,0-1.16-1.16H-315.8a1.16,1.16,0,0,0-1.16,1.16v0a1.156,1.156,0,0,1-.826,1.11,10.875,10.875,0,0,0-2.24.94,1.169,1.169,0,0,1-1.4-.185l-.015-.015a1.16,1.16,0,0,0-1.641,0l-1.559,1.559a1.16,1.16,0,0,0,0,1.641l.067.067a1.168,1.168,0,0,1,.2,1.377,10.874,10.874,0,0,0-.868,2.173,1.168,1.168,0,0,1-1.121.863h-.131a1.16,1.16,0,0,0-1.16,1.16v2.205a1.16,1.16,0,0,0,1.16,1.16h.235a1.168,1.168,0,0,1,1.112.828,10.886,10.886,0,0,0,.9,2.084,1.153,1.153,0,0,1-.2,1.376l-.192.192a1.16,1.16,0,0,0,0,1.641l1.559,1.559a1.16,1.16,0,0,0,1.641,0l.244-.244a1.153,1.153,0,0,1,1.354-.21,10.883,10.883,0,0,0,2.058.84,1.16,1.16,0,0,1,.825,1.116v.353a1.16,1.16,0,0,0,1.16,1.16h2.205a1.16,1.16,0,0,0,1.16-1.16v-.353a1.16,1.16,0,0,1,.825-1.116,10.881,10.881,0,0,0,2.058-.84,1.153,1.153,0,0,1,1.354.21l.244.244a1.16,1.16,0,0,0,1.641,0l1.559-1.559a1.16,1.16,0,0,0,0-1.641l-.192-.192a1.153,1.153,0,0,1-.2-1.376,10.88,10.88,0,0,0,.9-2.084,1.168,1.168,0,0,1,1.112-.828h.235A1.16,1.16,0,0,0-301.741-163.706Z" transform="translate(327.659 177.768)" fill="none" stroke="#000" stroke-linecap="round" stroke-linejoin="round" stroke-miterlimit="10" stroke-width="2"/>
    </g>
    <g id="g2171" transform="translate(19.518 10.943)">
      <path id="path2173" d="M-174.2-87.1a7.482,7.482,0,0,1-7.482,7.482,7.482,7.482,0,0,1-7.482-7.482,7.482,7.482,0,0,1,7.482-7.482A7.482,7.482,0,0,1-174.2-87.1Z" transform="translate(189.166 94.584)" fill="none" stroke="#000" stroke-linecap="round" stroke-linejoin="round" stroke-miterlimit="10" stroke-width="2"/>
    </g>
    <g id="g2175" transform="translate(24.235 14.823)">
      <path id="path2177" d="M-64.374-32.187a2.765,2.765,0,0,1-2.765,2.765A2.765,2.765,0,0,1-69.9-32.187a2.765,2.765,0,0,1,2.765-2.765A2.765,2.765,0,0,1-64.374-32.187Z" transform="translate(69.904 34.952)" fill="none" stroke="#000" stroke-linecap="round" stroke-linejoin="round" stroke-miterlimit="10" stroke-width="2"/>
    </g>
    <g id="g2179" transform="translate(28.538 19.886)">
      <path id="path2181" d="M-49.1-38.652a6.491,6.491,0,0,0-4.217-3.32" transform="translate(53.313 41.972)" fill="none" stroke="#000" stroke-linecap="round" stroke-linejoin="round" stroke-miterlimit="10" stroke-width="2"/>
    </g>
    <g id="g2183" transform="translate(21.245 19.886)">
      <path id="path2185" d="M-49.1,0a6.491,6.491,0,0,0-4.217,3.32" transform="translate(53.313)" fill="none" stroke="#000" stroke-linecap="round" stroke-linejoin="round" stroke-miterlimit="10" stroke-width="2"/>
    </g>
    <g id="g2187" transform="translate(9.039 7.334)">
      <path id="path2189" d="M-48,0a17.874,17.874,0,0,0-4.123,11.5,17.894,17.894,0,0,0,4.715,12.048,23.435,23.435,0,0,1,4.444,7.036" transform="translate(52.121)" fill="none" stroke="#000" stroke-linecap="round" stroke-linejoin="round" stroke-miterlimit="10" stroke-width="2"/>
    </g>
    <g id="g2191" transform="translate(15.794 0.791)">
      <path id="path2193" d="M-293.761-339.7a17.883,17.883,0,0,0,3.934-11.218,17.961,17.961,0,0,0-18.094-17.961,17.851,17.851,0,0,0-11.073,3.949" transform="translate(318.994 368.88)" fill="none" stroke="#000" stroke-linecap="round" stroke-linejoin="round" stroke-miterlimit="10" stroke-width="2"/>
    </g>
    <g id="g2195" transform="translate(35.81 32.827)">
      <path id="path2197" d="M0-59.284a23.685,23.685,0,0,1,2.845-5.092" transform="translate(0 64.376)" fill="none" stroke="#000" stroke-linecap="round" stroke-linejoin="round" stroke-miterlimit="10" stroke-width="2"/>
    </g>
    <g id="g2199" transform="translate(16.572 37.89)">
      <path id="path2201" d="M-22.6-45.2a1.941,1.941,0,0,1-1.941-1.941h0A1.941,1.941,0,0,1-22.6-49.085H-5.627a1.941,1.941,0,0,1,1.941,1.941h0A1.941,1.941,0,0,1-5.627-45.2" transform="translate(24.543 49.085)" fill="none" stroke="#000" stroke-linecap="round" stroke-linejoin="round" stroke-miterlimit="10" stroke-width="2"/>
    </g>
    <g id="g2203" transform="translate(16.572 41.773)">
      <path id="path2205" d="M-38.054-45.2h-1.327a1.941,1.941,0,0,1-1.941-1.941,1.941,1.941,0,0,1,1.941-1.941h16.974a1.941,1.941,0,0,1,1.941,1.941A1.941,1.941,0,0,1-22.407-45.2H-34.356" transform="translate(41.323 49.084)" fill="none" stroke="#000" stroke-linecap="round" stroke-linejoin="round" stroke-miterlimit="10" stroke-width="2"/>
    </g>
    <g id="g2207" transform="translate(16.572 45.656)">
      <path id="path2209" d="M-220.21,0a1.941,1.941,0,0,1,1.941,1.941,1.941,1.941,0,0,1-1.941,1.941h-16.974a1.941,1.941,0,0,1-1.941-1.941A1.941,1.941,0,0,1-237.183,0" transform="translate(239.125)" fill="none" stroke="#000" stroke-linecap="round" stroke-linejoin="round" stroke-miterlimit="10" stroke-width="2"/>
    </g>
    <g id="g2211" transform="translate(19.354 49.538)">
      <path id="path2213" d="M0,0V1.012A2.658,2.658,0,0,0,2.658,3.671h9.975a2.658,2.658,0,0,0,2.658-2.658V0" fill="none" stroke="#000" stroke-linecap="round" stroke-linejoin="round" stroke-miterlimit="10" stroke-width="2"/>
    </g>
  </g>
</svg>
