<svg xmlns="http://www.w3.org/2000/svg" width="60.334" height="59" viewBox="0 0 60.334 59">
  <g id="open-book" transform="translate(0 -5.64)">
    <path id="パス_47841" data-name="パス 47841" d="M308.924,366.237h-14.8a.887.887,0,0,0,0,1.774h14.8a.887.887,0,1,0,0-1.774Z" transform="translate(-258.56 -317.954)" fill="#fff"/>
    <path id="パス_47842" data-name="パス 47842" d="M77.7,147.3h7.463a.887.887,0,0,0,0-1.774H77.7a.887.887,0,0,0,0,1.774Z" transform="translate(-67.728 -123.341)" fill="#fff"/>
    <path id="パス_47843" data-name="パス 47843" d="M77.7,178.827h7.463a.887.887,0,0,0,0-1.774H77.7a.887.887,0,0,0,0,1.774Z" transform="translate(-67.728 -151.142)" fill="#fff"/>
    <path id="パス_47844" data-name="パス 47844" d="M77.7,210.359h7.463a.887.887,0,0,0,0-1.774H77.7a.887.887,0,0,0,0,1.774Z" transform="translate(-67.728 -178.945)" fill="#fff"/>
    <path id="パス_47845" data-name="パス 47845" d="M77.7,241.889H88.681a.887.887,0,1,0,0-1.774H77.7a.887.887,0,0,0,0,1.774Z" transform="translate(-67.728 -206.747)" fill="#fff"/>
    <path id="パス_47846" data-name="パス 47846" d="M77.7,273.419H90.413a.887.887,0,0,0,0-1.774H77.7a.887.887,0,0,0,0,1.774Z" transform="translate(-67.728 -234.548)" fill="#fff"/>
    <path id="パス_47847" data-name="パス 47847" d="M77.7,304.95H92.5a.887.887,0,0,0,0-1.774H77.7a.887.887,0,0,0,0,1.774Z" transform="translate(-67.728 -262.35)" fill="#fff"/>
    <path id="パス_47848" data-name="パス 47848" d="M77.7,336.481H92.5a.887.887,0,0,0,0-1.774H77.7a.887.887,0,0,0,0,1.774Z" transform="translate(-67.728 -290.152)" fill="#fff"/>
    <path id="パス_47849" data-name="パス 47849" d="M77.7,368.011H92.5a.887.887,0,1,0,0-1.774H77.7a.887.887,0,0,0,0,1.774Z" transform="translate(-67.728 -317.954)" fill="#fff"/>
    <path id="パス_47850" data-name="パス 47850" d="M363.623,145.523H356.16a.887.887,0,0,0,0,1.774h7.463a.887.887,0,1,0,0-1.774Z" transform="translate(-313.259 -123.341)" fill="#fff"/>
    <path id="パス_47851" data-name="パス 47851" d="M363.623,177.053H356.16a.887.887,0,0,0,0,1.774h7.463a.887.887,0,0,0,0-1.774Z" transform="translate(-313.259 -151.142)" fill="#fff"/>
    <path id="パス_47852" data-name="パス 47852" d="M363.623,208.585H356.16a.887.887,0,0,0,0,1.774h7.463a.887.887,0,0,0,0-1.774Z" transform="translate(-313.259 -178.945)" fill="#fff"/>
    <path id="パス_47853" data-name="パス 47853" d="M337.273,240.115h-11a.887.887,0,0,0,0,1.774h11a.887.887,0,0,0,0-1.774Z" transform="translate(-286.909 -206.747)" fill="#fff"/>
    <path id="パス_47854" data-name="パス 47854" d="M324.356,271.645H311.627a.887.887,0,1,0,0,1.774h12.729a.887.887,0,0,0,0-1.774Z" transform="translate(-273.993 -234.548)" fill="#fff"/>
    <path id="パス_47855" data-name="パス 47855" d="M308.924,303.176h-14.8a.887.887,0,1,0,0,1.774h14.8a.887.887,0,1,0,0-1.774Z" transform="translate(-258.56 -262.35)" fill="#fff"/>
    <path id="パス_47856" data-name="パス 47856" d="M308.924,334.707h-14.8a.887.887,0,1,0,0,1.774h14.8a.887.887,0,1,0,0-1.774Z" transform="translate(-258.56 -290.152)" fill="#fff"/>
    <path id="パス_47857" data-name="パス 47857" d="M138.326,117.512h2.45a.887.887,0,1,0,0-1.774h-2.45a.887.887,0,1,0,0,1.774Z" transform="translate(-121.186 -97.078)" fill="#fff"/>
    <path id="パス_47858" data-name="パス 47858" d="M341.144,116.625a.887.887,0,0,0-.887-.887h-2.45a.887.887,0,1,0,0,1.774h2.45A.887.887,0,0,0,341.144,116.625Z" transform="translate(-297.077 -97.078)" fill="#fff"/>
    <path id="パス_47859" data-name="パス 47859" d="M169.945,182.188a.887.887,0,0,0,1.254,0l1.732-1.732a.887.887,0,0,0-1.254-1.254l-1.732,1.732A.887.887,0,0,0,169.945,182.188Z" transform="translate(-149.619 -152.808)" fill="#fff"/>
    <path id="パス_47860" data-name="パス 47860" d="M312.254,41.134l1.732-1.732a.887.887,0,0,0-1.254-1.254L311,39.88a.887.887,0,0,0,1.254,1.254Z" transform="translate(-273.993 -28.434)" fill="#fff"/>
    <path id="パス_47861" data-name="パス 47861" d="M248.424,9.864a.887.887,0,0,0,.887-.887V6.527a.887.887,0,0,0-1.774,0v2.45A.887.887,0,0,0,248.424,9.864Z" transform="translate(-218.264)" fill="#fff"/>
    <path id="パス_47862" data-name="パス 47862" d="M311,179.2a.887.887,0,0,0,0,1.254l1.732,1.732a.887.887,0,0,0,1.254-1.254l-1.732-1.732A.887.887,0,0,0,311,179.2Z" transform="translate(-273.993 -152.807)" fill="#fff"/>
    <path id="パス_47863" data-name="パス 47863" d="M171.677,41.134a.887.887,0,1,0,1.254-1.254L171.2,38.147a.887.887,0,0,0-1.254,1.254Z" transform="translate(-149.619 -28.434)" fill="#fff"/>
    <path id="パス_47864" data-name="パス 47864" d="M56.515,61.063V60.3a3.134,3.134,0,0,0-3.13-3.13H49.528a.887.887,0,0,0,0,1.774h3.856A1.358,1.358,0,0,1,54.741,60.3V96.059a1.358,1.358,0,0,1-1.356,1.356H32.4a1.358,1.358,0,0,1-1.356-1.356V79.436h.713A2.735,2.735,0,0,0,34.492,76.7v-.783a1.629,1.629,0,0,0,1.394-1.606V72.569a1.631,1.631,0,0,0-1.111-1.539,7.01,7.01,0,0,1,.031-1.187,2.183,2.183,0,0,1,.784-1.342,8.617,8.617,0,0,0,3.221-6.736,8.827,8.827,0,0,0-.47-2.825h7.05a.887.887,0,1,0,0-1.774h-7.9a8.641,8.641,0,0,0-14.649,0H6.949a3.133,3.133,0,0,0-3.13,3.13v.767A6.107,6.107,0,0,0,0,66.705V96.988a6.091,6.091,0,0,0,6.084,6.084h19.2a.646.646,0,0,1,.6.445,4.552,4.552,0,0,0,8.543,0,.646.646,0,0,1,.6-.445H54.25a6.091,6.091,0,0,0,6.084-6.084V83.658a.887.887,0,0,0-1.774,0v13.33a4.315,4.315,0,0,1-4.31,4.31H35.031a2.433,2.433,0,0,0-2.266,1.612,2.776,2.776,0,0,1-5.21,0,2.433,2.433,0,0,0-2.266-1.612H6.084a4.315,4.315,0,0,1-4.31-4.31V66.705a4.324,4.324,0,0,1,2.045-3.662V96.059a3.133,3.133,0,0,0,3.13,3.13H27.917a3.13,3.13,0,0,0,2.243-.949,3.138,3.138,0,0,0,2.243.949H53.385a3.133,3.133,0,0,0,3.13-3.13V63.043a4.324,4.324,0,0,1,2.045,3.662V79.519a.887.887,0,0,0,1.774,0V66.705A6.107,6.107,0,0,0,56.515,61.063ZM32.718,76.7a.959.959,0,0,1-.958.958H28.551a.957.957,0,0,1-.958-.958v-.767h5.125V76.7ZM30.156,66.025a.78.78,0,1,1,.78-.781A.781.781,0,0,1,30.156,66.025Zm3.956,6.7v1.442H26.2V72.721ZM29.83,54.892A6.88,6.88,0,0,1,34.474,67.12,3.957,3.957,0,0,0,33,70.214v.734H31.043V67.64a2.554,2.554,0,1,0-1.774,0v3.308H27.311v-.733a4.02,4.02,0,0,0-1.5-3.118,6.832,6.832,0,0,1-2.526-5.654,6.923,6.923,0,0,1,6.547-6.551ZM5.593,60.3A1.358,1.358,0,0,1,6.949,58.94H21.976a8.649,8.649,0,0,0,2.711,9.532,2.254,2.254,0,0,1,.85,1.743v.815a1.629,1.629,0,0,0-1.111,1.539v1.747a1.63,1.63,0,0,0,1.394,1.605V76.7a2.735,2.735,0,0,0,2.732,2.732h.722V96.059a1.358,1.358,0,0,1-1.356,1.356H6.949A1.358,1.358,0,0,1,5.6,96.2a1.374,1.374,0,0,1-.007-.138C5.593,91.734,5.593,61.44,5.593,60.3Z" transform="translate(0 -41.857)" fill="#fff"/>
  </g>
</svg>
